ISO-10303-21;
HEADER;
/* Generated by software containing ST-Developer
 * from STEP Tools, Inc. (www.steptools.com) 
 */

FILE_DESCRIPTION(
/* description */ (''),
/* implementation_level */ '2;1');

FILE_NAME(
/* name */ 'Angle Control Rod.step',
/* time_stamp */ '2026-03-01T00:21:12+05:30',
/* author */ (''),
/* organization */ (''),
/* preprocessor_version */ 'ST-DEVELOPER v20.1',
/* originating_system */ 'Autodesk Translation Framework v14.24.0.0',
/* authorisation */ '');

FILE_SCHEMA (('AUTOMOTIVE_DESIGN { 1 0 10303 214 3 1 1 }'));
ENDSEC;

DATA;
#10=MECHANICAL_DESIGN_GEOMETRIC_PRESENTATION_REPRESENTATION('',(#13),#523);
#11=SHAPE_REPRESENTATION_RELATIONSHIP('SRR','None',#530,#12);
#12=ADVANCED_BREP_SHAPE_REPRESENTATION('',(#14),#522);
#13=STYLED_ITEM('',(#540),#14);
#14=MANIFOLD_SOLID_BREP('Angle Control Rod',#311);
#15=FACE_BOUND('',#60,.T.);
#16=FACE_BOUND('',#62,.T.);
#17=FACE_BOUND('',#68,.T.);
#18=FACE_BOUND('',#70,.T.);
#19=CIRCLE('',#332,1.60000000000004);
#20=CIRCLE('',#333,1.60000000000004);
#21=CIRCLE('',#337,3.49999999999998);
#22=CIRCLE('',#338,3.49999999999998);
#23=CIRCLE('',#342,1.65);
#24=CIRCLE('',#343,1.65);
#25=CIRCLE('',#346,3.5);
#26=CIRCLE('',#347,3.5);
#27=CYLINDRICAL_SURFACE('',#331,1.60000000000004);
#28=CYLINDRICAL_SURFACE('',#336,3.49999999999998);
#29=CYLINDRICAL_SURFACE('',#341,1.65);
#30=CYLINDRICAL_SURFACE('',#345,3.5);
#31=FACE_OUTER_BOUND('',#49,.T.);
#32=FACE_OUTER_BOUND('',#50,.T.);
#33=FACE_OUTER_BOUND('',#51,.T.);
#34=FACE_OUTER_BOUND('',#52,.T.);
#35=FACE_OUTER_BOUND('',#53,.T.);
#36=FACE_OUTER_BOUND('',#54,.T.);
#37=FACE_OUTER_BOUND('',#55,.T.);
#38=FACE_OUTER_BOUND('',#56,.T.);
#39=FACE_OUTER_BOUND('',#57,.T.);
#40=FACE_OUTER_BOUND('',#58,.T.);
#41=FACE_OUTER_BOUND('',#59,.T.);
#42=FACE_OUTER_BOUND('',#61,.T.);
#43=FACE_OUTER_BOUND('',#63,.T.);
#44=FACE_OUTER_BOUND('',#64,.T.);
#45=FACE_OUTER_BOUND('',#65,.T.);
#46=FACE_OUTER_BOUND('',#66,.T.);
#47=FACE_OUTER_BOUND('',#67,.T.);
#48=FACE_OUTER_BOUND('',#69,.T.);
#49=EDGE_LOOP('',(#199,#200,#201,#202));
#50=EDGE_LOOP('',(#203,#204,#205,#206));
#51=EDGE_LOOP('',(#207,#208,#209,#210));
#52=EDGE_LOOP('',(#211,#212,#213,#214));
#53=EDGE_LOOP('',(#215,#216,#217,#218));
#54=EDGE_LOOP('',(#219,#220,#221,#222));
#55=EDGE_LOOP('',(#223,#224,#225,#226));
#56=EDGE_LOOP('',(#227,#228,#229,#230,#231,#232));
#57=EDGE_LOOP('',(#233,#234,#235,#236,#237,#238));
#58=EDGE_LOOP('',(#239,#240,#241,#242));
#59=EDGE_LOOP('',(#243,#244,#245,#246));
#60=EDGE_LOOP('',(#247));
#61=EDGE_LOOP('',(#248,#249,#250,#251));
#62=EDGE_LOOP('',(#252));
#63=EDGE_LOOP('',(#253,#254,#255,#256));
#64=EDGE_LOOP('',(#257,#258,#259,#260));
#65=EDGE_LOOP('',(#261,#262,#263,#264));
#66=EDGE_LOOP('',(#265,#266,#267,#268));
#67=EDGE_LOOP('',(#269,#270,#271,#272));
#68=EDGE_LOOP('',(#273));
#69=EDGE_LOOP('',(#274,#275,#276,#277));
#70=EDGE_LOOP('',(#278));
#71=LINE('',#441,#103);
#72=LINE('',#443,#104);
#73=LINE('',#445,#105);
#74=LINE('',#446,#106);
#75=LINE('',#449,#107);
#76=LINE('',#451,#108);
#77=LINE('',#452,#109);
#78=LINE('',#455,#110);
#79=LINE('',#457,#111);
#80=LINE('',#458,#112);
#81=LINE('',#460,#113);
#82=LINE('',#461,#114);
#83=LINE('',#465,#115);
#84=LINE('',#467,#116);
#85=LINE('',#469,#117);
#86=LINE('',#470,#118);
#87=LINE('',#472,#119);
#88=LINE('',#473,#120);
#89=LINE('',#478,#121);
#90=LINE('',#482,#122);
#91=LINE('',#484,#123);
#92=LINE('',#485,#124);
#93=LINE('',#488,#125);
#94=LINE('',#490,#126);
#95=LINE('',#491,#127);
#96=LINE('',#501,#128);
#97=LINE('',#505,#129);
#98=LINE('',#507,#130);
#99=LINE('',#508,#131);
#100=LINE('',#514,#132);
#101=LINE('',#516,#133);
#102=LINE('',#517,#134);
#103=VECTOR('',#355,10.);
#104=VECTOR('',#356,10.);
#105=VECTOR('',#357,10.);
#106=VECTOR('',#358,10.);
#107=VECTOR('',#361,10.);
#108=VECTOR('',#362,10.);
#109=VECTOR('',#363,10.);
#110=VECTOR('',#366,10.);
#111=VECTOR('',#367,10.);
#112=VECTOR('',#368,10.);
#113=VECTOR('',#371,10.);
#114=VECTOR('',#372,10.);
#115=VECTOR('',#375,10.);
#116=VECTOR('',#376,10.);
#117=VECTOR('',#377,10.);
#118=VECTOR('',#378,10.);
#119=VECTOR('',#381,10.);
#120=VECTOR('',#382,10.);
#121=VECTOR('',#387,1.60000000000004);
#122=VECTOR('',#392,10.);
#123=VECTOR('',#393,10.);
#124=VECTOR('',#394,10.);
#125=VECTOR('',#397,10.);
#126=VECTOR('',#398,10.);
#127=VECTOR('',#399,10.);
#128=VECTOR('',#414,1.65);
#129=VECTOR('',#419,10.);
#130=VECTOR('',#420,10.);
#131=VECTOR('',#421,10.);
#132=VECTOR('',#428,10.);
#133=VECTOR('',#431,10.);
#134=VECTOR('',#432,10.);
#135=VERTEX_POINT('',#439);
#136=VERTEX_POINT('',#440);
#137=VERTEX_POINT('',#442);
#138=VERTEX_POINT('',#444);
#139=VERTEX_POINT('',#448);
#140=VERTEX_POINT('',#450);
#141=VERTEX_POINT('',#454);
#142=VERTEX_POINT('',#456);
#143=VERTEX_POINT('',#463);
#144=VERTEX_POINT('',#464);
#145=VERTEX_POINT('',#466);
#146=VERTEX_POINT('',#468);
#147=VERTEX_POINT('',#475);
#148=VERTEX_POINT('',#477);
#149=VERTEX_POINT('',#481);
#150=VERTEX_POINT('',#483);
#151=VERTEX_POINT('',#487);
#152=VERTEX_POINT('',#489);
#153=VERTEX_POINT('',#498);
#154=VERTEX_POINT('',#500);
#155=VERTEX_POINT('',#504);
#156=VERTEX_POINT('',#506);
#157=VERTEX_POINT('',#510);
#158=VERTEX_POINT('',#512);
#159=EDGE_CURVE('',#135,#136,#71,.T.);
#160=EDGE_CURVE('',#135,#137,#72,.T.);
#161=EDGE_CURVE('',#138,#137,#73,.T.);
#162=EDGE_CURVE('',#136,#138,#74,.T.);
#163=EDGE_CURVE('',#136,#139,#75,.T.);
#164=EDGE_CURVE('',#138,#140,#76,.T.);
#165=EDGE_CURVE('',#139,#140,#77,.T.);
#166=EDGE_CURVE('',#141,#139,#78,.T.);
#167=EDGE_CURVE('',#142,#140,#79,.T.);
#168=EDGE_CURVE('',#141,#142,#80,.T.);
#169=EDGE_CURVE('',#135,#141,#81,.T.);
#170=EDGE_CURVE('',#137,#142,#82,.T.);
#171=EDGE_CURVE('',#143,#144,#83,.T.);
#172=EDGE_CURVE('',#143,#145,#84,.T.);
#173=EDGE_CURVE('',#146,#145,#85,.T.);
#174=EDGE_CURVE('',#144,#146,#86,.T.);
#175=EDGE_CURVE('',#145,#138,#87,.T.);
#176=EDGE_CURVE('',#137,#146,#88,.T.);
#177=EDGE_CURVE('',#147,#147,#19,.T.);
#178=EDGE_CURVE('',#147,#148,#89,.T.);
#179=EDGE_CURVE('',#148,#148,#20,.T.);
#180=EDGE_CURVE('',#149,#143,#90,.T.);
#181=EDGE_CURVE('',#149,#150,#91,.T.);
#182=EDGE_CURVE('',#140,#150,#92,.T.);
#183=EDGE_CURVE('',#151,#142,#93,.T.);
#184=EDGE_CURVE('',#152,#151,#94,.T.);
#185=EDGE_CURVE('',#144,#152,#95,.T.);
#186=EDGE_CURVE('',#149,#152,#21,.T.);
#187=EDGE_CURVE('',#150,#151,#22,.T.);
#188=EDGE_CURVE('',#153,#153,#23,.T.);
#189=EDGE_CURVE('',#153,#154,#96,.T.);
#190=EDGE_CURVE('',#154,#154,#24,.T.);
#191=EDGE_CURVE('',#155,#135,#97,.T.);
#192=EDGE_CURVE('',#156,#136,#98,.T.);
#193=EDGE_CURVE('',#155,#156,#99,.T.);
#194=EDGE_CURVE('',#157,#155,#25,.T.);
#195=EDGE_CURVE('',#158,#156,#26,.T.);
#196=EDGE_CURVE('',#157,#158,#100,.T.);
#197=EDGE_CURVE('',#141,#157,#101,.T.);
#198=EDGE_CURVE('',#139,#158,#102,.T.);
#199=ORIENTED_EDGE('',*,*,#159,.F.);
#200=ORIENTED_EDGE('',*,*,#160,.T.);
#201=ORIENTED_EDGE('',*,*,#161,.F.);
#202=ORIENTED_EDGE('',*,*,#162,.F.);
#203=ORIENTED_EDGE('',*,*,#163,.F.);
#204=ORIENTED_EDGE('',*,*,#162,.T.);
#205=ORIENTED_EDGE('',*,*,#164,.T.);
#206=ORIENTED_EDGE('',*,*,#165,.F.);
#207=ORIENTED_EDGE('',*,*,#166,.T.);
#208=ORIENTED_EDGE('',*,*,#165,.T.);
#209=ORIENTED_EDGE('',*,*,#167,.F.);
#210=ORIENTED_EDGE('',*,*,#168,.F.);
#211=ORIENTED_EDGE('',*,*,#169,.T.);
#212=ORIENTED_EDGE('',*,*,#168,.T.);
#213=ORIENTED_EDGE('',*,*,#170,.F.);
#214=ORIENTED_EDGE('',*,*,#160,.F.);
#215=ORIENTED_EDGE('',*,*,#171,.F.);
#216=ORIENTED_EDGE('',*,*,#172,.T.);
#217=ORIENTED_EDGE('',*,*,#173,.F.);
#218=ORIENTED_EDGE('',*,*,#174,.F.);
#219=ORIENTED_EDGE('',*,*,#175,.T.);
#220=ORIENTED_EDGE('',*,*,#161,.T.);
#221=ORIENTED_EDGE('',*,*,#176,.T.);
#222=ORIENTED_EDGE('',*,*,#173,.T.);
#223=ORIENTED_EDGE('',*,*,#177,.F.);
#224=ORIENTED_EDGE('',*,*,#178,.T.);
#225=ORIENTED_EDGE('',*,*,#179,.T.);
#226=ORIENTED_EDGE('',*,*,#178,.F.);
#227=ORIENTED_EDGE('',*,*,#180,.F.);
#228=ORIENTED_EDGE('',*,*,#181,.T.);
#229=ORIENTED_EDGE('',*,*,#182,.F.);
#230=ORIENTED_EDGE('',*,*,#164,.F.);
#231=ORIENTED_EDGE('',*,*,#175,.F.);
#232=ORIENTED_EDGE('',*,*,#172,.F.);
#233=ORIENTED_EDGE('',*,*,#170,.T.);
#234=ORIENTED_EDGE('',*,*,#183,.F.);
#235=ORIENTED_EDGE('',*,*,#184,.F.);
#236=ORIENTED_EDGE('',*,*,#185,.F.);
#237=ORIENTED_EDGE('',*,*,#174,.T.);
#238=ORIENTED_EDGE('',*,*,#176,.F.);
#239=ORIENTED_EDGE('',*,*,#186,.T.);
#240=ORIENTED_EDGE('',*,*,#184,.T.);
#241=ORIENTED_EDGE('',*,*,#187,.F.);
#242=ORIENTED_EDGE('',*,*,#181,.F.);
#243=ORIENTED_EDGE('',*,*,#187,.T.);
#244=ORIENTED_EDGE('',*,*,#183,.T.);
#245=ORIENTED_EDGE('',*,*,#167,.T.);
#246=ORIENTED_EDGE('',*,*,#182,.T.);
#247=ORIENTED_EDGE('',*,*,#177,.T.);
#248=ORIENTED_EDGE('',*,*,#171,.T.);
#249=ORIENTED_EDGE('',*,*,#185,.T.);
#250=ORIENTED_EDGE('',*,*,#186,.F.);
#251=ORIENTED_EDGE('',*,*,#180,.T.);
#252=ORIENTED_EDGE('',*,*,#179,.F.);
#253=ORIENTED_EDGE('',*,*,#188,.F.);
#254=ORIENTED_EDGE('',*,*,#189,.T.);
#255=ORIENTED_EDGE('',*,*,#190,.T.);
#256=ORIENTED_EDGE('',*,*,#189,.F.);
#257=ORIENTED_EDGE('',*,*,#191,.T.);
#258=ORIENTED_EDGE('',*,*,#159,.T.);
#259=ORIENTED_EDGE('',*,*,#192,.F.);
#260=ORIENTED_EDGE('',*,*,#193,.F.);
#261=ORIENTED_EDGE('',*,*,#194,.T.);
#262=ORIENTED_EDGE('',*,*,#193,.T.);
#263=ORIENTED_EDGE('',*,*,#195,.F.);
#264=ORIENTED_EDGE('',*,*,#196,.F.);
#265=ORIENTED_EDGE('',*,*,#197,.T.);
#266=ORIENTED_EDGE('',*,*,#196,.T.);
#267=ORIENTED_EDGE('',*,*,#198,.F.);
#268=ORIENTED_EDGE('',*,*,#166,.F.);
#269=ORIENTED_EDGE('',*,*,#198,.T.);
#270=ORIENTED_EDGE('',*,*,#195,.T.);
#271=ORIENTED_EDGE('',*,*,#192,.T.);
#272=ORIENTED_EDGE('',*,*,#163,.T.);
#273=ORIENTED_EDGE('',*,*,#188,.T.);
#274=ORIENTED_EDGE('',*,*,#197,.F.);
#275=ORIENTED_EDGE('',*,*,#169,.F.);
#276=ORIENTED_EDGE('',*,*,#191,.F.);
#277=ORIENTED_EDGE('',*,*,#194,.F.);
#278=ORIENTED_EDGE('',*,*,#190,.F.);
#279=PLANE('',#325);
#280=PLANE('',#326);
#281=PLANE('',#327);
#282=PLANE('',#328);
#283=PLANE('',#329);
#284=PLANE('',#330);
#285=PLANE('',#334);
#286=PLANE('',#335);
#287=PLANE('',#339);
#288=PLANE('',#340);
#289=PLANE('',#344);
#290=PLANE('',#348);
#291=PLANE('',#349);
#292=PLANE('',#350);
#293=ADVANCED_FACE('',(#31),#279,.F.);
#294=ADVANCED_FACE('',(#32),#280,.F.);
#295=ADVANCED_FACE('',(#33),#281,.F.);
#296=ADVANCED_FACE('',(#34),#282,.F.);
#297=ADVANCED_FACE('',(#35),#283,.T.);
#298=ADVANCED_FACE('',(#36),#284,.T.);
#299=ADVANCED_FACE('',(#37),#27,.F.);
#300=ADVANCED_FACE('',(#38),#285,.T.);
#301=ADVANCED_FACE('',(#39),#286,.T.);
#302=ADVANCED_FACE('',(#40),#28,.T.);
#303=ADVANCED_FACE('',(#41,#15),#287,.T.);
#304=ADVANCED_FACE('',(#42,#16),#288,.F.);
#305=ADVANCED_FACE('',(#43),#29,.F.);
#306=ADVANCED_FACE('',(#44),#289,.T.);
#307=ADVANCED_FACE('',(#45),#30,.T.);
#308=ADVANCED_FACE('',(#46),#290,.T.);
#309=ADVANCED_FACE('',(#47,#17),#291,.T.);
#310=ADVANCED_FACE('',(#48,#18),#292,.F.);
#311=CLOSED_SHELL('',(#293,#294,#295,#296,#297,#298,#299,#300,#301,#302,
#303,#304,#305,#306,#307,#308,#309,#310));
#312=DERIVED_UNIT_ELEMENT(#314,1.);
#313=DERIVED_UNIT_ELEMENT(#525,-3.);
#314=(
MASS_UNIT()
NAMED_UNIT(*)
SI_UNIT(.KILO.,.GRAM.)
);
#315=DERIVED_UNIT((#312,#313));
#316=MEASURE_REPRESENTATION_ITEM('density measure',
POSITIVE_RATIO_MEASURE(7850.),#315);
#317=PROPERTY_DEFINITION_REPRESENTATION(#322,#319);
#318=PROPERTY_DEFINITION_REPRESENTATION(#323,#320);
#319=REPRESENTATION('material name',(#321),#522);
#320=REPRESENTATION('density',(#316),#522);
#321=DESCRIPTIVE_REPRESENTATION_ITEM('Steel','Steel');
#322=PROPERTY_DEFINITION('material property','material name',#532);
#323=PROPERTY_DEFINITION('material property','density of part',#532);
#324=AXIS2_PLACEMENT_3D('',#437,#351,#352);
#325=AXIS2_PLACEMENT_3D('',#438,#353,#354);
#326=AXIS2_PLACEMENT_3D('',#447,#359,#360);
#327=AXIS2_PLACEMENT_3D('',#453,#364,#365);
#328=AXIS2_PLACEMENT_3D('',#459,#369,#370);
#329=AXIS2_PLACEMENT_3D('',#462,#373,#374);
#330=AXIS2_PLACEMENT_3D('',#471,#379,#380);
#331=AXIS2_PLACEMENT_3D('',#474,#383,#384);
#332=AXIS2_PLACEMENT_3D('',#476,#385,#386);
#333=AXIS2_PLACEMENT_3D('',#479,#388,#389);
#334=AXIS2_PLACEMENT_3D('',#480,#390,#391);
#335=AXIS2_PLACEMENT_3D('',#486,#395,#396);
#336=AXIS2_PLACEMENT_3D('',#492,#400,#401);
#337=AXIS2_PLACEMENT_3D('',#493,#402,#403);
#338=AXIS2_PLACEMENT_3D('',#494,#404,#405);
#339=AXIS2_PLACEMENT_3D('',#495,#406,#407);
#340=AXIS2_PLACEMENT_3D('',#496,#408,#409);
#341=AXIS2_PLACEMENT_3D('',#497,#410,#411);
#342=AXIS2_PLACEMENT_3D('',#499,#412,#413);
#343=AXIS2_PLACEMENT_3D('',#502,#415,#416);
#344=AXIS2_PLACEMENT_3D('',#503,#417,#418);
#345=AXIS2_PLACEMENT_3D('',#509,#422,#423);
#346=AXIS2_PLACEMENT_3D('',#511,#424,#425);
#347=AXIS2_PLACEMENT_3D('',#513,#426,#427);
#348=AXIS2_PLACEMENT_3D('',#515,#429,#430);
#349=AXIS2_PLACEMENT_3D('',#518,#433,#434);
#350=AXIS2_PLACEMENT_3D('',#519,#435,#436);
#351=DIRECTION('axis',(0.,0.,1.));
#352=DIRECTION('refdir',(1.,0.,0.));
#353=DIRECTION('center_axis',(-0.999567754464353,2.11622091450791E-17,-0.0293990516018937));
#354=DIRECTION('ref_axis',(-0.0293990516018937,0.,0.999567754464353));
#355=DIRECTION('',(0.,-1.,0.));
#356=DIRECTION('',(-0.028994765612522,-0.165270163991372,0.985822030825717));
#357=DIRECTION('',(0.,1.,0.));
#358=DIRECTION('',(-0.0286735478057172,-0.220786318104018,0.974900625394355));
#359=DIRECTION('center_axis',(-1.35377482369377E-16,0.97530164085523,0.220877136311333));
#360=DIRECTION('ref_axis',(0.,-0.220877136311333,0.97530164085523));
#361=DIRECTION('',(-1.,0.,0.));
#362=DIRECTION('',(-1.,0.,0.));
#363=DIRECTION('',(-0.0715296602578914,-0.220311353594304,0.972803379507307));
#364=DIRECTION('center_axis',(0.997307625290336,4.06495991583311E-17,0.0733314430360554));
#365=DIRECTION('ref_axis',(0.0733314430360554,0.,-0.997307625290336));
#366=DIRECTION('',(0.,-1.,0.));
#367=DIRECTION('',(0.,-1.,0.));
#368=DIRECTION('',(-0.0723274754565033,-0.164906644040826,0.983653666208428));
#369=DIRECTION('center_axis',(1.32577907291802E-16,-0.986236680822528,-0.165339678843778));
#370=DIRECTION('ref_axis',(0.,0.165339678843778,-0.986236680822528));
#371=DIRECTION('',(-1.,0.,0.));
#372=DIRECTION('',(-1.,0.,0.));
#373=DIRECTION('center_axis',(0.,0.,1.));
#374=DIRECTION('ref_axis',(0.,-1.,0.));
#375=DIRECTION('',(0.,1.,0.));
#376=DIRECTION('',(1.,0.,0.));
#377=DIRECTION('',(0.,-1.,0.));
#378=DIRECTION('',(1.,0.,0.));
#379=DIRECTION('center_axis',(1.,0.,0.));
#380=DIRECTION('ref_axis',(0.,0.,-1.));
#381=DIRECTION('',(0.,0.,-1.));
#382=DIRECTION('',(0.,0.,1.));
#383=DIRECTION('center_axis',(-1.,0.,0.));
#384=DIRECTION('ref_axis',(0.,-1.,0.));
#385=DIRECTION('center_axis',(1.,0.,0.));
#386=DIRECTION('ref_axis',(0.,-1.,0.));
#387=DIRECTION('',(1.,0.,0.));
#388=DIRECTION('center_axis',(1.,0.,0.));
#389=DIRECTION('ref_axis',(0.,-1.,0.));
#390=DIRECTION('center_axis',(0.,-1.,0.));
#391=DIRECTION('ref_axis',(0.,0.,1.));
#392=DIRECTION('',(0.,0.,-1.));
#393=DIRECTION('',(-1.,0.,0.));
#394=DIRECTION('',(0.,0.,1.));
#395=DIRECTION('center_axis',(0.,1.,0.));
#396=DIRECTION('ref_axis',(0.,0.,-1.));
#397=DIRECTION('',(0.,0.,-1.));
#398=DIRECTION('',(-1.,0.,0.));
#399=DIRECTION('',(0.,0.,1.));
#400=DIRECTION('center_axis',(-1.,0.,0.));
#401=DIRECTION('ref_axis',(0.,-1.,0.));
#402=DIRECTION('center_axis',(-1.,0.,0.));
#403=DIRECTION('ref_axis',(0.,-1.,0.));
#404=DIRECTION('center_axis',(-1.,0.,0.));
#405=DIRECTION('ref_axis',(0.,-1.,0.));
#406=DIRECTION('center_axis',(-1.,0.,0.));
#407=DIRECTION('ref_axis',(0.,-1.,0.));
#408=DIRECTION('center_axis',(-1.,0.,0.));
#409=DIRECTION('ref_axis',(0.,-1.,0.));
#410=DIRECTION('center_axis',(0.,-1.,0.));
#411=DIRECTION('ref_axis',(-1.,0.,0.));
#412=DIRECTION('center_axis',(0.,1.,0.));
#413=DIRECTION('ref_axis',(-1.,0.,0.));
#414=DIRECTION('',(0.,1.,0.));
#415=DIRECTION('center_axis',(0.,1.,0.));
#416=DIRECTION('ref_axis',(-1.,0.,0.));
#417=DIRECTION('center_axis',(1.,0.,0.));
#418=DIRECTION('ref_axis',(0.,0.,1.));
#419=DIRECTION('',(0.,0.,1.));
#420=DIRECTION('',(0.,0.,1.));
#421=DIRECTION('',(0.,-1.,0.));
#422=DIRECTION('center_axis',(0.,-1.,0.));
#423=DIRECTION('ref_axis',(-1.,0.,0.));
#424=DIRECTION('center_axis',(0.,-1.,0.));
#425=DIRECTION('ref_axis',(-1.,0.,0.));
#426=DIRECTION('center_axis',(0.,-1.,0.));
#427=DIRECTION('ref_axis',(-1.,0.,0.));
#428=DIRECTION('',(0.,-1.,0.));
#429=DIRECTION('center_axis',(-1.,0.,0.));
#430=DIRECTION('ref_axis',(0.,0.,-1.));
#431=DIRECTION('',(0.,0.,-1.));
#432=DIRECTION('',(0.,0.,-1.));
#433=DIRECTION('center_axis',(0.,-1.,0.));
#434=DIRECTION('ref_axis',(-1.,0.,0.));
#435=DIRECTION('center_axis',(0.,-1.,0.));
#436=DIRECTION('ref_axis',(-1.,0.,0.));
#437=CARTESIAN_POINT('',(0.,0.,0.));
#438=CARTESIAN_POINT('Origin',(47.5136751702519,240.358155034251,631.101864602531));
#439=CARTESIAN_POINT('',(47.5136751702519,240.358155034251,631.101864602531));
#440=CARTESIAN_POINT('',(47.5136751702519,235.358155034251,631.101864602531));
#441=CARTESIAN_POINT('',(47.5136751702519,240.358155034251,631.101864602531));
#442=CARTESIAN_POINT('',(46.5136751702519,234.658155034251,665.101864602531));
#443=CARTESIAN_POINT('',(47.5136751702519,240.358155034251,631.101864602531));
#444=CARTESIAN_POINT('',(46.5136751702519,227.658155034251,665.101864602531));
#445=CARTESIAN_POINT('',(46.5136751702519,227.658155034251,665.101864602531));
#446=CARTESIAN_POINT('',(47.5136751702519,235.358155034251,631.101864602531));
#447=CARTESIAN_POINT('Origin',(47.5136751702519,235.358155034251,631.101864602531));
#448=CARTESIAN_POINT('',(40.5136751702519,235.358155034251,631.101864602531));
#449=CARTESIAN_POINT('',(47.5136751702519,235.358155034251,631.101864602531));
#450=CARTESIAN_POINT('',(38.0136751702519,227.658155034251,665.101864602531));
#451=CARTESIAN_POINT('',(42.0136751702519,227.658155034251,665.101864602531));
#452=CARTESIAN_POINT('',(40.5136751702519,235.358155034251,631.101864602531));
#453=CARTESIAN_POINT('Origin',(40.5136751702519,235.358155034251,631.101864602531));
#454=CARTESIAN_POINT('',(40.5136751702519,240.358155034251,631.101864602531));
#455=CARTESIAN_POINT('',(40.5136751702519,240.358155034251,631.101864602531));
#456=CARTESIAN_POINT('',(38.0136751702519,234.658155034251,665.101864602531));
#457=CARTESIAN_POINT('',(38.0136751702519,227.658155034251,665.101864602531));
#458=CARTESIAN_POINT('',(40.5136751702519,240.358155034251,631.101864602531));
#459=CARTESIAN_POINT('Origin',(40.5136751702519,240.358155034251,631.101864602531));
#460=CARTESIAN_POINT('',(47.5136751702519,240.358155034251,631.101864602531));
#461=CARTESIAN_POINT('',(42.0136751702519,234.658155034251,665.101864602531));
#462=CARTESIAN_POINT('Origin',(42.0136751702519,234.658155034251,667.101864602531));
#463=CARTESIAN_POINT('',(42.0136751702519,227.658155034251,667.101864602531));
#464=CARTESIAN_POINT('',(42.0136751702519,234.658155034251,667.101864602531));
#465=CARTESIAN_POINT('',(42.0136751702519,232.908155034251,667.101864602531));
#466=CARTESIAN_POINT('',(46.5136751702519,227.658155034251,667.101864602531));
#467=CARTESIAN_POINT('',(42.0136751702519,227.658155034251,667.101864602531));
#468=CARTESIAN_POINT('',(46.5136751702519,234.658155034251,667.101864602531));
#469=CARTESIAN_POINT('',(46.5136751702519,234.658155034251,667.101864602531));
#470=CARTESIAN_POINT('',(42.0136751702519,234.658155034251,667.101864602531));
#471=CARTESIAN_POINT('Origin',(46.5136751702519,231.158155034251,666.101864602531));
#472=CARTESIAN_POINT('',(46.5136751702519,227.658155034251,667.101864602531));
#473=CARTESIAN_POINT('',(46.5136751702519,234.658155034251,665.101864602531));
#474=CARTESIAN_POINT('Origin',(42.0136751702519,231.158155034251,672.101864602531));
#475=CARTESIAN_POINT('',(38.0136751702519,232.758155034251,672.101864602531));
#476=CARTESIAN_POINT('Origin',(38.0136751702519,231.158155034251,672.101864602531));
#477=CARTESIAN_POINT('',(42.0136751702519,232.758155034251,672.101864602531));
#478=CARTESIAN_POINT('',(42.0136751702519,232.758155034251,672.101864602531));
#479=CARTESIAN_POINT('Origin',(42.0136751702519,231.158155034251,672.101864602531));
#480=CARTESIAN_POINT('Origin',(42.0136751702519,227.658155034251,665.101864602531));
#481=CARTESIAN_POINT('',(42.0136751702519,227.658155034251,672.101864602531));
#482=CARTESIAN_POINT('',(42.0136751702519,227.658155034251,672.101864602531));
#483=CARTESIAN_POINT('',(38.0136751702519,227.658155034251,672.101864602531));
#484=CARTESIAN_POINT('',(42.0136751702519,227.658155034251,672.101864602531));
#485=CARTESIAN_POINT('',(38.0136751702519,227.658155034251,672.101864602531));
#486=CARTESIAN_POINT('Origin',(42.0136751702519,234.658155034251,672.101864602531));
#487=CARTESIAN_POINT('',(38.0136751702519,234.658155034251,672.101864602531));
#488=CARTESIAN_POINT('',(38.0136751702519,234.658155034251,665.101864602531));
#489=CARTESIAN_POINT('',(42.0136751702519,234.658155034251,672.101864602531));
#490=CARTESIAN_POINT('',(42.0136751702519,234.658155034251,672.101864602531));
#491=CARTESIAN_POINT('',(42.0136751702519,234.658155034251,665.101864602531));
#492=CARTESIAN_POINT('Origin',(42.0136751702519,231.158155034251,672.101864602531));
#493=CARTESIAN_POINT('Origin',(42.0136751702519,231.158155034251,672.101864602531));
#494=CARTESIAN_POINT('Origin',(38.0136751702519,231.158155034251,672.101864602531));
#495=CARTESIAN_POINT('Origin',(38.0136751702519,231.158155034251,670.351864602531));
#496=CARTESIAN_POINT('Origin',(42.0136751702519,231.158155034251,670.351864602531));
#497=CARTESIAN_POINT('Origin',(44.0136751702519,240.358155034251,624.101864602531));
#498=CARTESIAN_POINT('',(45.6636751702519,235.358155034251,624.101864602531));
#499=CARTESIAN_POINT('Origin',(44.0136751702519,235.358155034251,624.101864602531));
#500=CARTESIAN_POINT('',(45.6636751702519,240.358155034251,624.101864602531));
#501=CARTESIAN_POINT('',(45.6636751702519,240.358155034251,624.101864602531));
#502=CARTESIAN_POINT('Origin',(44.0136751702519,240.358155034251,624.101864602531));
#503=CARTESIAN_POINT('Origin',(47.5136751702519,240.358155034251,624.101864602531));
#504=CARTESIAN_POINT('',(47.5136751702519,240.358155034251,624.101864602531));
#505=CARTESIAN_POINT('',(47.5136751702519,240.358155034251,624.101864602531));
#506=CARTESIAN_POINT('',(47.5136751702519,235.358155034251,624.101864602531));
#507=CARTESIAN_POINT('',(47.5136751702519,235.358155034251,624.101864602531));
#508=CARTESIAN_POINT('',(47.5136751702519,240.358155034251,624.101864602531));
#509=CARTESIAN_POINT('Origin',(44.0136751702519,240.358155034251,624.101864602531));
#510=CARTESIAN_POINT('',(40.5136751702519,240.358155034251,624.101864602531));
#511=CARTESIAN_POINT('Origin',(44.0136751702519,240.358155034251,624.101864602531));
#512=CARTESIAN_POINT('',(40.5136751702519,235.358155034251,624.101864602531));
#513=CARTESIAN_POINT('Origin',(44.0136751702519,235.358155034251,624.101864602531));
#514=CARTESIAN_POINT('',(40.5136751702519,240.358155034251,624.101864602531));
#515=CARTESIAN_POINT('Origin',(40.5136751702519,240.358155034251,631.101864602531));
#516=CARTESIAN_POINT('',(40.5136751702519,240.358155034251,631.101864602531));
#517=CARTESIAN_POINT('',(40.5136751702519,235.358155034251,631.101864602531));
#518=CARTESIAN_POINT('Origin',(44.0136751702519,235.358155034251,625.851864602531));
#519=CARTESIAN_POINT('Origin',(44.0136751702519,240.358155034251,625.851864602531));
#520=UNCERTAINTY_MEASURE_WITH_UNIT(LENGTH_MEASURE(0.01),#524,
'DISTANCE_ACCURACY_VALUE',
'Maximum model space distance between geometric entities at asserted c
onnectivities');
#521=UNCERTAINTY_MEASURE_WITH_UNIT(LENGTH_MEASURE(0.01),#524,
'DISTANCE_ACCURACY_VALUE',
'Maximum model space distance between geometric entities at asserted c
onnectivities');
#522=(
GEOMETRIC_REPRESENTATION_CONTEXT(3)
GLOBAL_UNCERTAINTY_ASSIGNED_CONTEXT((#520))
GLOBAL_UNIT_ASSIGNED_CONTEXT((#524,#526,#527))
REPRESENTATION_CONTEXT('','3D')
);
#523=(
GEOMETRIC_REPRESENTATION_CONTEXT(3)
GLOBAL_UNCERTAINTY_ASSIGNED_CONTEXT((#521))
GLOBAL_UNIT_ASSIGNED_CONTEXT((#524,#526,#527))
REPRESENTATION_CONTEXT('','3D')
);
#524=(
LENGTH_UNIT()
NAMED_UNIT(*)
SI_UNIT(.MILLI.,.METRE.)
);
#525=(
LENGTH_UNIT()
NAMED_UNIT(*)
SI_UNIT($,.METRE.)
);
#526=(
NAMED_UNIT(*)
PLANE_ANGLE_UNIT()
SI_UNIT($,.RADIAN.)
);
#527=(
NAMED_UNIT(*)
SI_UNIT($,.STERADIAN.)
SOLID_ANGLE_UNIT()
);
#528=SHAPE_DEFINITION_REPRESENTATION(#529,#530);
#529=PRODUCT_DEFINITION_SHAPE('',$,#532);
#530=SHAPE_REPRESENTATION('',(#324),#522);
#531=PRODUCT_DEFINITION_CONTEXT('part definition',#536,'design');
#532=PRODUCT_DEFINITION('Angle Control Rod','Angle Control Rod',#533,#531);
#533=PRODUCT_DEFINITION_FORMATION('',$,#538);
#534=PRODUCT_RELATED_PRODUCT_CATEGORY('Angle Control Rod',
'Angle Control Rod',(#538));
#535=APPLICATION_PROTOCOL_DEFINITION('international standard',
'automotive_design',2009,#536);
#536=APPLICATION_CONTEXT(
'Core Data for Automotive Mechanical Design Process');
#537=PRODUCT_CONTEXT('part definition',#536,'mechanical');
#538=PRODUCT('Angle Control Rod','Angle Control Rod',$,(#537));
#539=PRESENTATION_STYLE_ASSIGNMENT((#541));
#540=PRESENTATION_STYLE_ASSIGNMENT((#542));
#541=SURFACE_STYLE_USAGE(.BOTH.,#543);
#542=SURFACE_STYLE_USAGE(.BOTH.,#544);
#543=SURFACE_SIDE_STYLE('',(#545));
#544=SURFACE_SIDE_STYLE('',(#546));
#545=SURFACE_STYLE_FILL_AREA(#547);
#546=SURFACE_STYLE_FILL_AREA(#548);
#547=FILL_AREA_STYLE('Steel - Satin',(#549));
#548=FILL_AREA_STYLE('EPX 86FR (with Carbon M2 M3 L1 3D Printers)',(#550));
#549=FILL_AREA_STYLE_COLOUR('Steel - Satin',#551);
#550=FILL_AREA_STYLE_COLOUR(
'EPX 86FR (with Carbon M2 M3 L1 3D Printers)',#552);
#551=COLOUR_RGB('Steel - Satin',0.627450980392157,0.627450980392157,0.627450980392157);
#552=COLOUR_RGB('EPX 86FR (with Carbon M2 M3 L1 3D Printers)',0.247058823529412,
0.247058823529412,0.247058823529412);
ENDSEC;
END-ISO-10303-21;
