ISO-10303-21;
HEADER;
/* Generated by software containing ST-Developer
 * from STEP Tools, Inc. (www.steptools.com) 
 */

FILE_DESCRIPTION(
/* description */ (''),
/* implementation_level */ '2;1');

FILE_NAME(
/* name */ 'Assem1 final prj_Castor Mount Back v1.step',
/* time_stamp */ '2026-03-01T00:20:38+05:30',
/* author */ (''),
/* organization */ (''),
/* preprocessor_version */ 'ST-DEVELOPER v20.1',
/* originating_system */ 'Autodesk Translation Framework v14.24.0.0',
/* authorisation */ '');

FILE_SCHEMA (('AUTOMOTIVE_DESIGN { 1 0 10303 214 3 1 1 }'));
ENDSEC;

DATA;
#10=MECHANICAL_DESIGN_GEOMETRIC_PRESENTATION_REPRESENTATION('',(#13),#1370);
#11=SHAPE_REPRESENTATION_RELATIONSHIP('SRR','None',#1377,#12);
#12=ADVANCED_BREP_SHAPE_REPRESENTATION('',(#14),#1369);
#13=STYLED_ITEM('',(#1386),#14);
#14=MANIFOLD_SOLID_BREP('Castor Mount Back',#823);
#15=FACE_BOUND('',#117,.T.);
#16=FACE_BOUND('',#121,.T.);
#17=FACE_BOUND('',#122,.T.);
#18=FACE_BOUND('',#123,.T.);
#19=FACE_BOUND('',#124,.T.);
#20=FACE_BOUND('',#125,.T.);
#21=FACE_BOUND('',#126,.T.);
#22=FACE_BOUND('',#127,.T.);
#23=FACE_BOUND('',#128,.T.);
#24=FACE_BOUND('',#129,.T.);
#25=FACE_BOUND('',#130,.T.);
#26=FACE_BOUND('',#132,.T.);
#27=FACE_BOUND('',#133,.T.);
#28=FACE_BOUND('',#134,.T.);
#29=FACE_BOUND('',#135,.T.);
#30=FACE_BOUND('',#136,.T.);
#31=FACE_BOUND('',#137,.T.);
#32=FACE_BOUND('',#138,.T.);
#33=FACE_BOUND('',#139,.T.);
#34=FACE_BOUND('',#140,.T.);
#35=FACE_BOUND('',#141,.T.);
#36=FACE_BOUND('',#152,.T.);
#37=ELLIPSE('',#848,7.25579554639521,7.);
#38=PLANE('',#840);
#39=PLANE('',#845);
#40=PLANE('',#850);
#41=PLANE('',#851);
#42=PLANE('',#855);
#43=PLANE('',#856);
#44=PLANE('',#857);
#45=PLANE('',#858);
#46=PLANE('',#859);
#47=PLANE('',#860);
#48=PLANE('',#861);
#49=PLANE('',#864);
#50=PLANE('',#865);
#51=PLANE('',#866);
#52=PLANE('',#877);
#53=PLANE('',#888);
#54=PLANE('',#889);
#55=PLANE('',#892);
#56=PLANE('',#895);
#57=PLANE('',#896);
#58=PLANE('',#897);
#59=PLANE('',#898);
#60=PLANE('',#899);
#61=PLANE('',#910);
#62=FACE_OUTER_BOUND('',#102,.T.);
#63=FACE_OUTER_BOUND('',#103,.T.);
#64=FACE_OUTER_BOUND('',#104,.T.);
#65=FACE_OUTER_BOUND('',#105,.T.);
#66=FACE_OUTER_BOUND('',#106,.T.);
#67=FACE_OUTER_BOUND('',#107,.T.);
#68=FACE_OUTER_BOUND('',#108,.T.);
#69=FACE_OUTER_BOUND('',#109,.T.);
#70=FACE_OUTER_BOUND('',#110,.T.);
#71=FACE_OUTER_BOUND('',#111,.T.);
#72=FACE_OUTER_BOUND('',#112,.T.);
#73=FACE_OUTER_BOUND('',#113,.T.);
#74=FACE_OUTER_BOUND('',#114,.T.);
#75=FACE_OUTER_BOUND('',#115,.T.);
#76=FACE_OUTER_BOUND('',#116,.T.);
#77=FACE_OUTER_BOUND('',#118,.T.);
#78=FACE_OUTER_BOUND('',#119,.T.);
#79=FACE_OUTER_BOUND('',#120,.T.);
#80=FACE_OUTER_BOUND('',#131,.T.);
#81=FACE_OUTER_BOUND('',#142,.T.);
#82=FACE_OUTER_BOUND('',#143,.T.);
#83=FACE_OUTER_BOUND('',#144,.T.);
#84=FACE_OUTER_BOUND('',#145,.T.);
#85=FACE_OUTER_BOUND('',#146,.T.);
#86=FACE_OUTER_BOUND('',#147,.T.);
#87=FACE_OUTER_BOUND('',#148,.T.);
#88=FACE_OUTER_BOUND('',#149,.T.);
#89=FACE_OUTER_BOUND('',#150,.T.);
#90=FACE_OUTER_BOUND('',#151,.T.);
#91=FACE_OUTER_BOUND('',#153,.T.);
#92=FACE_OUTER_BOUND('',#154,.T.);
#93=FACE_OUTER_BOUND('',#155,.T.);
#94=FACE_OUTER_BOUND('',#156,.T.);
#95=FACE_OUTER_BOUND('',#157,.T.);
#96=FACE_OUTER_BOUND('',#158,.T.);
#97=FACE_OUTER_BOUND('',#159,.T.);
#98=FACE_OUTER_BOUND('',#160,.T.);
#99=FACE_OUTER_BOUND('',#161,.T.);
#100=FACE_OUTER_BOUND('',#162,.T.);
#101=FACE_OUTER_BOUND('',#163,.T.);
#102=EDGE_LOOP('',(#541,#542,#543,#544));
#103=EDGE_LOOP('',(#545,#546,#547,#548));
#104=EDGE_LOOP('',(#549,#550,#551,#552,#553,#554));
#105=EDGE_LOOP('',(#555,#556,#557,#558,#559,#560,#561,#562));
#106=EDGE_LOOP('',(#563,#564,#565,#566,#567,#568));
#107=EDGE_LOOP('',(#569,#570,#571,#572));
#108=EDGE_LOOP('',(#573,#574,#575));
#109=EDGE_LOOP('',(#576,#577,#578,#579,#580));
#110=EDGE_LOOP('',(#581,#582,#583,#584));
#111=EDGE_LOOP('',(#585,#586,#587,#588,#589,#590,#591));
#112=EDGE_LOOP('',(#592,#593,#594,#595,#596));
#113=EDGE_LOOP('',(#597,#598,#599,#600));
#114=EDGE_LOOP('',(#601,#602,#603,#604,#605));
#115=EDGE_LOOP('',(#606,#607,#608,#609,#610,#611));
#116=EDGE_LOOP('',(#612,#613,#614,#615));
#117=EDGE_LOOP('',(#616,#617,#618,#619));
#118=EDGE_LOOP('',(#620,#621,#622,#623,#624));
#119=EDGE_LOOP('',(#625,#626,#627,#628));
#120=EDGE_LOOP('',(#629,#630,#631,#632,#633,#634,#635));
#121=EDGE_LOOP('',(#636));
#122=EDGE_LOOP('',(#637));
#123=EDGE_LOOP('',(#638));
#124=EDGE_LOOP('',(#639));
#125=EDGE_LOOP('',(#640));
#126=EDGE_LOOP('',(#641));
#127=EDGE_LOOP('',(#642));
#128=EDGE_LOOP('',(#643));
#129=EDGE_LOOP('',(#644));
#130=EDGE_LOOP('',(#645));
#131=EDGE_LOOP('',(#646,#647,#648,#649));
#132=EDGE_LOOP('',(#650));
#133=EDGE_LOOP('',(#651));
#134=EDGE_LOOP('',(#652));
#135=EDGE_LOOP('',(#653));
#136=EDGE_LOOP('',(#654));
#137=EDGE_LOOP('',(#655));
#138=EDGE_LOOP('',(#656));
#139=EDGE_LOOP('',(#657));
#140=EDGE_LOOP('',(#658));
#141=EDGE_LOOP('',(#659));
#142=EDGE_LOOP('',(#660,#661,#662,#663));
#143=EDGE_LOOP('',(#664,#665,#666,#667));
#144=EDGE_LOOP('',(#668,#669,#670,#671));
#145=EDGE_LOOP('',(#672,#673,#674,#675));
#146=EDGE_LOOP('',(#676,#677,#678,#679));
#147=EDGE_LOOP('',(#680,#681,#682,#683,#684,#685));
#148=EDGE_LOOP('',(#686,#687,#688,#689,#690,#691));
#149=EDGE_LOOP('',(#692,#693,#694,#695,#696,#697));
#150=EDGE_LOOP('',(#698,#699,#700,#701));
#151=EDGE_LOOP('',(#702,#703,#704,#705,#706,#707,#708,#709,#710,#711,#712,
#713));
#152=EDGE_LOOP('',(#714,#715,#716,#717));
#153=EDGE_LOOP('',(#718,#719,#720,#721));
#154=EDGE_LOOP('',(#722,#723,#724,#725));
#155=EDGE_LOOP('',(#726,#727,#728,#729));
#156=EDGE_LOOP('',(#730,#731,#732,#733));
#157=EDGE_LOOP('',(#734,#735,#736,#737));
#158=EDGE_LOOP('',(#738,#739,#740,#741));
#159=EDGE_LOOP('',(#742,#743,#744,#745));
#160=EDGE_LOOP('',(#746,#747,#748,#749));
#161=EDGE_LOOP('',(#750,#751,#752,#753));
#162=EDGE_LOOP('',(#754,#755,#756,#757));
#163=EDGE_LOOP('',(#758,#759,#760,#761,#762,#763,#764,#765,#766));
#164=LINE('',#1146,#243);
#165=LINE('',#1149,#244);
#166=LINE('',#1152,#245);
#167=LINE('',#1154,#246);
#168=LINE('',#1155,#247);
#169=LINE('',#1161,#248);
#170=LINE('',#1165,#249);
#171=LINE('',#1168,#250);
#172=LINE('',#1171,#251);
#173=LINE('',#1173,#252);
#174=LINE('',#1175,#253);
#175=LINE('',#1177,#254);
#176=LINE('',#1179,#255);
#177=LINE('',#1181,#256);
#178=LINE('',#1182,#257);
#179=LINE('',#1186,#258);
#180=LINE('',#1190,#259);
#181=LINE('',#1194,#260);
#182=LINE('',#1198,#261);
#183=LINE('',#1200,#262);
#184=LINE('',#1201,#263);
#185=LINE('',#1203,#264);
#186=LINE('',#1208,#265);
#187=LINE('',#1211,#266);
#188=LINE('',#1214,#267);
#189=LINE('',#1215,#268);
#190=LINE('',#1217,#269);
#191=LINE('',#1219,#270);
#192=LINE('',#1221,#271);
#193=LINE('',#1222,#272);
#194=LINE('',#1226,#273);
#195=LINE('',#1227,#274);
#196=LINE('',#1229,#275);
#197=LINE('',#1230,#276);
#198=LINE('',#1233,#277);
#199=LINE('',#1234,#278);
#200=LINE('',#1237,#279);
#201=LINE('',#1238,#280);
#202=LINE('',#1240,#281);
#203=LINE('',#1241,#282);
#204=LINE('',#1243,#283);
#205=LINE('',#1244,#284);
#206=LINE('',#1247,#285);
#207=LINE('',#1248,#286);
#208=LINE('',#1253,#287);
#209=LINE('',#1256,#288);
#210=LINE('',#1259,#289);
#211=LINE('',#1260,#290);
#212=LINE('',#1261,#291);
#213=LINE('',#1262,#292);
#214=LINE('',#1266,#293);
#215=LINE('',#1267,#294);
#216=LINE('',#1290,#295);
#217=LINE('',#1291,#296);
#218=LINE('',#1313,#297);
#219=LINE('',#1317,#298);
#220=LINE('',#1318,#299);
#221=LINE('',#1319,#300);
#222=LINE('',#1323,#301);
#223=LINE('',#1326,#302);
#224=LINE('',#1327,#303);
#225=LINE('',#1332,#304);
#226=LINE('',#1333,#305);
#227=LINE('',#1336,#306);
#228=LINE('',#1337,#307);
#229=LINE('',#1340,#308);
#230=LINE('',#1341,#309);
#231=LINE('',#1343,#310);
#232=LINE('',#1345,#311);
#233=LINE('',#1347,#312);
#234=LINE('',#1349,#313);
#235=LINE('',#1351,#314);
#236=LINE('',#1353,#315);
#237=LINE('',#1355,#316);
#238=LINE('',#1357,#317);
#239=LINE('',#1359,#318);
#240=LINE('',#1361,#319);
#241=LINE('',#1363,#320);
#242=LINE('',#1365,#321);
#243=VECTOR('',#917,10.);
#244=VECTOR('',#920,10.);
#245=VECTOR('',#923,10.);
#246=VECTOR('',#924,10.);
#247=VECTOR('',#925,10.);
#248=VECTOR('',#930,10.);
#249=VECTOR('',#933,10.);
#250=VECTOR('',#936,10.);
#251=VECTOR('',#939,10.);
#252=VECTOR('',#940,10.);
#253=VECTOR('',#941,10.);
#254=VECTOR('',#942,10.);
#255=VECTOR('',#943,10.);
#256=VECTOR('',#944,10.);
#257=VECTOR('',#945,10.);
#258=VECTOR('',#948,10.);
#259=VECTOR('',#951,7.);
#260=VECTOR('',#954,10.);
#261=VECTOR('',#959,10.);
#262=VECTOR('',#960,10.);
#263=VECTOR('',#961,10.);
#264=VECTOR('',#964,10.);
#265=VECTOR('',#969,10.);
#266=VECTOR('',#972,21.);
#267=VECTOR('',#975,10.);
#268=VECTOR('',#976,10.);
#269=VECTOR('',#979,10.);
#270=VECTOR('',#980,10.);
#271=VECTOR('',#981,10.);
#272=VECTOR('',#982,10.);
#273=VECTOR('',#985,10.);
#274=VECTOR('',#986,10.);
#275=VECTOR('',#987,10.);
#276=VECTOR('',#988,10.);
#277=VECTOR('',#991,10.);
#278=VECTOR('',#992,10.);
#279=VECTOR('',#995,10.);
#280=VECTOR('',#996,10.);
#281=VECTOR('',#997,10.);
#282=VECTOR('',#998,10.);
#283=VECTOR('',#1001,10.);
#284=VECTOR('',#1002,10.);
#285=VECTOR('',#1005,10.);
#286=VECTOR('',#1006,10.);
#287=VECTOR('',#1009,10.);
#288=VECTOR('',#1012,10.);
#289=VECTOR('',#1015,10.);
#290=VECTOR('',#1016,10.);
#291=VECTOR('',#1017,10.);
#292=VECTOR('',#1018,10.);
#293=VECTOR('',#1023,10.);
#294=VECTOR('',#1024,10.);
#295=VECTOR('',#1047,10.);
#296=VECTOR('',#1048,10.);
#297=VECTOR('',#1071,10.);
#298=VECTOR('',#1074,10.);
#299=VECTOR('',#1075,10.);
#300=VECTOR('',#1076,10.);
#301=VECTOR('',#1081,10.);
#302=VECTOR('',#1084,10.);
#303=VECTOR('',#1085,10.);
#304=VECTOR('',#1092,10.);
#305=VECTOR('',#1093,10.);
#306=VECTOR('',#1096,10.);
#307=VECTOR('',#1097,10.);
#308=VECTOR('',#1100,10.);
#309=VECTOR('',#1101,10.);
#310=VECTOR('',#1104,10.);
#311=VECTOR('',#1107,10.);
#312=VECTOR('',#1110,3.9);
#313=VECTOR('',#1113,1.8);
#314=VECTOR('',#1116,1.8);
#315=VECTOR('',#1119,1.8);
#316=VECTOR('',#1122,1.8);
#317=VECTOR('',#1125,1.8);
#318=VECTOR('',#1128,1.8);
#319=VECTOR('',#1131,1.8);
#320=VECTOR('',#1134,1.8);
#321=VECTOR('',#1137,3.9);
#322=CIRCLE('',#838,2.5);
#323=CIRCLE('',#839,2.5);
#324=CIRCLE('',#842,4.5);
#325=CIRCLE('',#843,4.5);
#326=CIRCLE('',#844,4.5);
#327=CIRCLE('',#847,7.);
#328=CIRCLE('',#849,7.);
#329=CIRCLE('',#853,21.);
#330=CIRCLE('',#854,21.);
#331=CIRCLE('',#862,1.69999999999994);
#332=CIRCLE('',#863,1.70000000000006);
#333=CIRCLE('',#867,1.8);
#334=CIRCLE('',#868,1.8);
#335=CIRCLE('',#869,1.8);
#336=CIRCLE('',#870,1.8);
#337=CIRCLE('',#871,1.8);
#338=CIRCLE('',#872,1.8);
#339=CIRCLE('',#873,1.8);
#340=CIRCLE('',#874,3.9);
#341=CIRCLE('',#875,1.8);
#342=CIRCLE('',#876,3.9);
#343=CIRCLE('',#878,1.8);
#344=CIRCLE('',#879,1.8);
#345=CIRCLE('',#880,1.8);
#346=CIRCLE('',#881,1.8);
#347=CIRCLE('',#882,1.8);
#348=CIRCLE('',#883,1.8);
#349=CIRCLE('',#884,1.8);
#350=CIRCLE('',#885,1.8);
#351=CIRCLE('',#886,3.9);
#352=CIRCLE('',#887,3.9);
#353=CIRCLE('',#891,1.70000000000006);
#354=CIRCLE('',#894,1.69999999999994);
#355=VERTEX_POINT('',#1142);
#356=VERTEX_POINT('',#1143);
#357=VERTEX_POINT('',#1145);
#358=VERTEX_POINT('',#1147);
#359=VERTEX_POINT('',#1151);
#360=VERTEX_POINT('',#1153);
#361=VERTEX_POINT('',#1157);
#362=VERTEX_POINT('',#1158);
#363=VERTEX_POINT('',#1160);
#364=VERTEX_POINT('',#1162);
#365=VERTEX_POINT('',#1164);
#366=VERTEX_POINT('',#1166);
#367=VERTEX_POINT('',#1170);
#368=VERTEX_POINT('',#1172);
#369=VERTEX_POINT('',#1174);
#370=VERTEX_POINT('',#1176);
#371=VERTEX_POINT('',#1178);
#372=VERTEX_POINT('',#1180);
#373=VERTEX_POINT('',#1184);
#374=VERTEX_POINT('',#1185);
#375=VERTEX_POINT('',#1187);
#376=VERTEX_POINT('',#1189);
#377=VERTEX_POINT('',#1191);
#378=VERTEX_POINT('',#1193);
#379=VERTEX_POINT('',#1197);
#380=VERTEX_POINT('',#1199);
#381=VERTEX_POINT('',#1205);
#382=VERTEX_POINT('',#1206);
#383=VERTEX_POINT('',#1209);
#384=VERTEX_POINT('',#1213);
#385=VERTEX_POINT('',#1218);
#386=VERTEX_POINT('',#1220);
#387=VERTEX_POINT('',#1224);
#388=VERTEX_POINT('',#1225);
#389=VERTEX_POINT('',#1228);
#390=VERTEX_POINT('',#1232);
#391=VERTEX_POINT('',#1236);
#392=VERTEX_POINT('',#1239);
#393=VERTEX_POINT('',#1246);
#394=VERTEX_POINT('',#1249);
#395=VERTEX_POINT('',#1250);
#396=VERTEX_POINT('',#1252);
#397=VERTEX_POINT('',#1254);
#398=VERTEX_POINT('',#1258);
#399=VERTEX_POINT('',#1265);
#400=VERTEX_POINT('',#1268);
#401=VERTEX_POINT('',#1270);
#402=VERTEX_POINT('',#1272);
#403=VERTEX_POINT('',#1274);
#404=VERTEX_POINT('',#1276);
#405=VERTEX_POINT('',#1278);
#406=VERTEX_POINT('',#1280);
#407=VERTEX_POINT('',#1282);
#408=VERTEX_POINT('',#1284);
#409=VERTEX_POINT('',#1286);
#410=VERTEX_POINT('',#1289);
#411=VERTEX_POINT('',#1292);
#412=VERTEX_POINT('',#1294);
#413=VERTEX_POINT('',#1296);
#414=VERTEX_POINT('',#1298);
#415=VERTEX_POINT('',#1300);
#416=VERTEX_POINT('',#1302);
#417=VERTEX_POINT('',#1304);
#418=VERTEX_POINT('',#1306);
#419=VERTEX_POINT('',#1308);
#420=VERTEX_POINT('',#1310);
#421=VERTEX_POINT('',#1315);
#422=VERTEX_POINT('',#1316);
#423=VERTEX_POINT('',#1321);
#424=VERTEX_POINT('',#1325);
#425=VERTEX_POINT('',#1331);
#426=VERTEX_POINT('',#1335);
#427=VERTEX_POINT('',#1339);
#428=EDGE_CURVE('',#355,#356,#322,.T.);
#429=EDGE_CURVE('',#356,#357,#164,.T.);
#430=EDGE_CURVE('',#357,#358,#323,.T.);
#431=EDGE_CURVE('',#358,#355,#165,.T.);
#432=EDGE_CURVE('',#359,#356,#166,.T.);
#433=EDGE_CURVE('',#359,#360,#167,.T.);
#434=EDGE_CURVE('',#360,#357,#168,.T.);
#435=EDGE_CURVE('',#361,#362,#324,.T.);
#436=EDGE_CURVE('',#361,#363,#169,.T.);
#437=EDGE_CURVE('',#364,#363,#325,.T.);
#438=EDGE_CURVE('',#365,#364,#170,.F.);
#439=EDGE_CURVE('',#365,#366,#326,.T.);
#440=EDGE_CURVE('',#366,#362,#171,.T.);
#441=EDGE_CURVE('',#366,#367,#172,.T.);
#442=EDGE_CURVE('',#368,#367,#173,.F.);
#443=EDGE_CURVE('',#369,#368,#174,.T.);
#444=EDGE_CURVE('',#369,#370,#175,.T.);
#445=EDGE_CURVE('',#371,#370,#176,.T.);
#446=EDGE_CURVE('',#372,#371,#177,.T.);
#447=EDGE_CURVE('',#372,#362,#178,.T.);
#448=EDGE_CURVE('',#373,#374,#179,.T.);
#449=EDGE_CURVE('',#375,#373,#327,.F.);
#450=EDGE_CURVE('',#375,#376,#180,.T.);
#451=EDGE_CURVE('',#377,#376,#37,.F.);
#452=EDGE_CURVE('',#378,#377,#181,.T.);
#453=EDGE_CURVE('',#374,#378,#328,.T.);
#454=EDGE_CURVE('',#379,#374,#182,.T.);
#455=EDGE_CURVE('',#380,#379,#183,.T.);
#456=EDGE_CURVE('',#373,#380,#184,.T.);
#457=EDGE_CURVE('',#378,#379,#185,.T.);
#458=EDGE_CURVE('',#381,#382,#329,.T.);
#459=EDGE_CURVE('',#369,#382,#186,.T.);
#460=EDGE_CURVE('',#383,#368,#330,.F.);
#461=EDGE_CURVE('',#383,#381,#187,.T.);
#462=EDGE_CURVE('',#384,#365,#188,.T.);
#463=EDGE_CURVE('',#384,#367,#189,.T.);
#464=EDGE_CURVE('',#383,#358,#190,.T.);
#465=EDGE_CURVE('',#360,#385,#191,.T.);
#466=EDGE_CURVE('',#385,#386,#192,.T.);
#467=EDGE_CURVE('',#381,#386,#193,.T.);
#468=EDGE_CURVE('',#387,#388,#194,.T.);
#469=EDGE_CURVE('',#370,#388,#195,.T.);
#470=EDGE_CURVE('',#389,#369,#196,.T.);
#471=EDGE_CURVE('',#389,#387,#197,.T.);
#472=EDGE_CURVE('',#390,#382,#198,.T.);
#473=EDGE_CURVE('',#390,#389,#199,.T.);
#474=EDGE_CURVE('',#391,#390,#200,.T.);
#475=EDGE_CURVE('',#382,#371,#201,.T.);
#476=EDGE_CURVE('',#392,#371,#202,.T.);
#477=EDGE_CURVE('',#392,#391,#203,.T.);
#478=EDGE_CURVE('',#392,#363,#204,.T.);
#479=EDGE_CURVE('',#388,#364,#205,.T.);
#480=EDGE_CURVE('',#361,#393,#206,.T.);
#481=EDGE_CURVE('',#393,#392,#207,.T.);
#482=EDGE_CURVE('',#394,#395,#331,.T.);
#483=EDGE_CURVE('',#395,#396,#208,.T.);
#484=EDGE_CURVE('',#396,#397,#332,.T.);
#485=EDGE_CURVE('',#397,#394,#209,.T.);
#486=EDGE_CURVE('',#398,#376,#210,.T.);
#487=EDGE_CURVE('',#398,#393,#211,.T.);
#488=EDGE_CURVE('',#372,#393,#212,.T.);
#489=EDGE_CURVE('',#377,#372,#213,.T.);
#490=EDGE_CURVE('',#399,#377,#214,.T.);
#491=EDGE_CURVE('',#386,#399,#215,.T.);
#492=EDGE_CURVE('',#400,#400,#333,.T.);
#493=EDGE_CURVE('',#401,#401,#334,.T.);
#494=EDGE_CURVE('',#402,#402,#335,.T.);
#495=EDGE_CURVE('',#403,#403,#336,.T.);
#496=EDGE_CURVE('',#404,#404,#337,.T.);
#497=EDGE_CURVE('',#405,#405,#338,.T.);
#498=EDGE_CURVE('',#406,#406,#339,.T.);
#499=EDGE_CURVE('',#407,#407,#340,.T.);
#500=EDGE_CURVE('',#408,#408,#341,.T.);
#501=EDGE_CURVE('',#409,#409,#342,.T.);
#502=EDGE_CURVE('',#385,#410,#216,.T.);
#503=EDGE_CURVE('',#410,#359,#217,.T.);
#504=EDGE_CURVE('',#411,#411,#343,.T.);
#505=EDGE_CURVE('',#412,#412,#344,.T.);
#506=EDGE_CURVE('',#413,#413,#345,.T.);
#507=EDGE_CURVE('',#414,#414,#346,.T.);
#508=EDGE_CURVE('',#415,#415,#347,.T.);
#509=EDGE_CURVE('',#416,#416,#348,.T.);
#510=EDGE_CURVE('',#417,#417,#349,.T.);
#511=EDGE_CURVE('',#418,#418,#350,.T.);
#512=EDGE_CURVE('',#419,#419,#351,.T.);
#513=EDGE_CURVE('',#420,#420,#352,.T.);
#514=EDGE_CURVE('',#410,#399,#218,.T.);
#515=EDGE_CURVE('',#421,#422,#219,.T.);
#516=EDGE_CURVE('',#422,#394,#220,.T.);
#517=EDGE_CURVE('',#421,#397,#221,.T.);
#518=EDGE_CURVE('',#423,#421,#353,.T.);
#519=EDGE_CURVE('',#423,#396,#222,.T.);
#520=EDGE_CURVE('',#424,#423,#223,.T.);
#521=EDGE_CURVE('',#424,#395,#224,.T.);
#522=EDGE_CURVE('',#422,#424,#354,.T.);
#523=EDGE_CURVE('',#384,#425,#225,.T.);
#524=EDGE_CURVE('',#425,#387,#226,.T.);
#525=EDGE_CURVE('',#425,#426,#227,.T.);
#526=EDGE_CURVE('',#426,#391,#228,.T.);
#527=EDGE_CURVE('',#426,#427,#229,.T.);
#528=EDGE_CURVE('',#427,#398,#230,.T.);
#529=EDGE_CURVE('',#375,#427,#231,.T.);
#530=EDGE_CURVE('',#355,#380,#232,.T.);
#531=EDGE_CURVE('',#409,#419,#233,.T.);
#532=EDGE_CURVE('',#402,#411,#234,.T.);
#533=EDGE_CURVE('',#408,#414,#235,.T.);
#534=EDGE_CURVE('',#404,#417,#236,.T.);
#535=EDGE_CURVE('',#405,#412,#237,.T.);
#536=EDGE_CURVE('',#401,#418,#238,.T.);
#537=EDGE_CURVE('',#406,#415,#239,.T.);
#538=EDGE_CURVE('',#400,#416,#240,.T.);
#539=EDGE_CURVE('',#403,#413,#241,.T.);
#540=EDGE_CURVE('',#407,#420,#242,.T.);
#541=ORIENTED_EDGE('',*,*,#428,.T.);
#542=ORIENTED_EDGE('',*,*,#429,.T.);
#543=ORIENTED_EDGE('',*,*,#430,.T.);
#544=ORIENTED_EDGE('',*,*,#431,.T.);
#545=ORIENTED_EDGE('',*,*,#429,.F.);
#546=ORIENTED_EDGE('',*,*,#432,.F.);
#547=ORIENTED_EDGE('',*,*,#433,.T.);
#548=ORIENTED_EDGE('',*,*,#434,.T.);
#549=ORIENTED_EDGE('',*,*,#435,.F.);
#550=ORIENTED_EDGE('',*,*,#436,.T.);
#551=ORIENTED_EDGE('',*,*,#437,.F.);
#552=ORIENTED_EDGE('',*,*,#438,.F.);
#553=ORIENTED_EDGE('',*,*,#439,.T.);
#554=ORIENTED_EDGE('',*,*,#440,.T.);
#555=ORIENTED_EDGE('',*,*,#440,.F.);
#556=ORIENTED_EDGE('',*,*,#441,.T.);
#557=ORIENTED_EDGE('',*,*,#442,.F.);
#558=ORIENTED_EDGE('',*,*,#443,.F.);
#559=ORIENTED_EDGE('',*,*,#444,.T.);
#560=ORIENTED_EDGE('',*,*,#445,.F.);
#561=ORIENTED_EDGE('',*,*,#446,.F.);
#562=ORIENTED_EDGE('',*,*,#447,.T.);
#563=ORIENTED_EDGE('',*,*,#448,.F.);
#564=ORIENTED_EDGE('',*,*,#449,.F.);
#565=ORIENTED_EDGE('',*,*,#450,.T.);
#566=ORIENTED_EDGE('',*,*,#451,.F.);
#567=ORIENTED_EDGE('',*,*,#452,.F.);
#568=ORIENTED_EDGE('',*,*,#453,.F.);
#569=ORIENTED_EDGE('',*,*,#448,.T.);
#570=ORIENTED_EDGE('',*,*,#454,.F.);
#571=ORIENTED_EDGE('',*,*,#455,.F.);
#572=ORIENTED_EDGE('',*,*,#456,.F.);
#573=ORIENTED_EDGE('',*,*,#453,.T.);
#574=ORIENTED_EDGE('',*,*,#457,.T.);
#575=ORIENTED_EDGE('',*,*,#454,.T.);
#576=ORIENTED_EDGE('',*,*,#458,.T.);
#577=ORIENTED_EDGE('',*,*,#459,.F.);
#578=ORIENTED_EDGE('',*,*,#443,.T.);
#579=ORIENTED_EDGE('',*,*,#460,.F.);
#580=ORIENTED_EDGE('',*,*,#461,.T.);
#581=ORIENTED_EDGE('',*,*,#441,.F.);
#582=ORIENTED_EDGE('',*,*,#439,.F.);
#583=ORIENTED_EDGE('',*,*,#462,.F.);
#584=ORIENTED_EDGE('',*,*,#463,.T.);
#585=ORIENTED_EDGE('',*,*,#461,.F.);
#586=ORIENTED_EDGE('',*,*,#464,.T.);
#587=ORIENTED_EDGE('',*,*,#430,.F.);
#588=ORIENTED_EDGE('',*,*,#434,.F.);
#589=ORIENTED_EDGE('',*,*,#465,.T.);
#590=ORIENTED_EDGE('',*,*,#466,.T.);
#591=ORIENTED_EDGE('',*,*,#467,.F.);
#592=ORIENTED_EDGE('',*,*,#468,.T.);
#593=ORIENTED_EDGE('',*,*,#469,.F.);
#594=ORIENTED_EDGE('',*,*,#444,.F.);
#595=ORIENTED_EDGE('',*,*,#470,.F.);
#596=ORIENTED_EDGE('',*,*,#471,.T.);
#597=ORIENTED_EDGE('',*,*,#459,.T.);
#598=ORIENTED_EDGE('',*,*,#472,.F.);
#599=ORIENTED_EDGE('',*,*,#473,.T.);
#600=ORIENTED_EDGE('',*,*,#470,.T.);
#601=ORIENTED_EDGE('',*,*,#474,.T.);
#602=ORIENTED_EDGE('',*,*,#472,.T.);
#603=ORIENTED_EDGE('',*,*,#475,.T.);
#604=ORIENTED_EDGE('',*,*,#476,.F.);
#605=ORIENTED_EDGE('',*,*,#477,.T.);
#606=ORIENTED_EDGE('',*,*,#437,.T.);
#607=ORIENTED_EDGE('',*,*,#478,.F.);
#608=ORIENTED_EDGE('',*,*,#476,.T.);
#609=ORIENTED_EDGE('',*,*,#445,.T.);
#610=ORIENTED_EDGE('',*,*,#469,.T.);
#611=ORIENTED_EDGE('',*,*,#479,.T.);
#612=ORIENTED_EDGE('',*,*,#436,.F.);
#613=ORIENTED_EDGE('',*,*,#480,.T.);
#614=ORIENTED_EDGE('',*,*,#481,.T.);
#615=ORIENTED_EDGE('',*,*,#478,.T.);
#616=ORIENTED_EDGE('',*,*,#482,.T.);
#617=ORIENTED_EDGE('',*,*,#483,.T.);
#618=ORIENTED_EDGE('',*,*,#484,.T.);
#619=ORIENTED_EDGE('',*,*,#485,.T.);
#620=ORIENTED_EDGE('',*,*,#486,.F.);
#621=ORIENTED_EDGE('',*,*,#487,.T.);
#622=ORIENTED_EDGE('',*,*,#488,.F.);
#623=ORIENTED_EDGE('',*,*,#489,.F.);
#624=ORIENTED_EDGE('',*,*,#451,.T.);
#625=ORIENTED_EDGE('',*,*,#435,.T.);
#626=ORIENTED_EDGE('',*,*,#447,.F.);
#627=ORIENTED_EDGE('',*,*,#488,.T.);
#628=ORIENTED_EDGE('',*,*,#480,.F.);
#629=ORIENTED_EDGE('',*,*,#490,.T.);
#630=ORIENTED_EDGE('',*,*,#489,.T.);
#631=ORIENTED_EDGE('',*,*,#446,.T.);
#632=ORIENTED_EDGE('',*,*,#475,.F.);
#633=ORIENTED_EDGE('',*,*,#458,.F.);
#634=ORIENTED_EDGE('',*,*,#467,.T.);
#635=ORIENTED_EDGE('',*,*,#491,.T.);
#636=ORIENTED_EDGE('',*,*,#492,.T.);
#637=ORIENTED_EDGE('',*,*,#493,.T.);
#638=ORIENTED_EDGE('',*,*,#494,.T.);
#639=ORIENTED_EDGE('',*,*,#495,.T.);
#640=ORIENTED_EDGE('',*,*,#496,.T.);
#641=ORIENTED_EDGE('',*,*,#497,.T.);
#642=ORIENTED_EDGE('',*,*,#498,.T.);
#643=ORIENTED_EDGE('',*,*,#499,.T.);
#644=ORIENTED_EDGE('',*,*,#500,.T.);
#645=ORIENTED_EDGE('',*,*,#501,.T.);
#646=ORIENTED_EDGE('',*,*,#502,.F.);
#647=ORIENTED_EDGE('',*,*,#465,.F.);
#648=ORIENTED_EDGE('',*,*,#433,.F.);
#649=ORIENTED_EDGE('',*,*,#503,.F.);
#650=ORIENTED_EDGE('',*,*,#504,.F.);
#651=ORIENTED_EDGE('',*,*,#505,.F.);
#652=ORIENTED_EDGE('',*,*,#506,.F.);
#653=ORIENTED_EDGE('',*,*,#507,.F.);
#654=ORIENTED_EDGE('',*,*,#508,.F.);
#655=ORIENTED_EDGE('',*,*,#509,.F.);
#656=ORIENTED_EDGE('',*,*,#510,.F.);
#657=ORIENTED_EDGE('',*,*,#511,.F.);
#658=ORIENTED_EDGE('',*,*,#512,.F.);
#659=ORIENTED_EDGE('',*,*,#513,.F.);
#660=ORIENTED_EDGE('',*,*,#502,.T.);
#661=ORIENTED_EDGE('',*,*,#514,.T.);
#662=ORIENTED_EDGE('',*,*,#491,.F.);
#663=ORIENTED_EDGE('',*,*,#466,.F.);
#664=ORIENTED_EDGE('',*,*,#515,.T.);
#665=ORIENTED_EDGE('',*,*,#516,.T.);
#666=ORIENTED_EDGE('',*,*,#485,.F.);
#667=ORIENTED_EDGE('',*,*,#517,.F.);
#668=ORIENTED_EDGE('',*,*,#518,.T.);
#669=ORIENTED_EDGE('',*,*,#517,.T.);
#670=ORIENTED_EDGE('',*,*,#484,.F.);
#671=ORIENTED_EDGE('',*,*,#519,.F.);
#672=ORIENTED_EDGE('',*,*,#520,.T.);
#673=ORIENTED_EDGE('',*,*,#519,.T.);
#674=ORIENTED_EDGE('',*,*,#483,.F.);
#675=ORIENTED_EDGE('',*,*,#521,.F.);
#676=ORIENTED_EDGE('',*,*,#522,.T.);
#677=ORIENTED_EDGE('',*,*,#521,.T.);
#678=ORIENTED_EDGE('',*,*,#482,.F.);
#679=ORIENTED_EDGE('',*,*,#516,.F.);
#680=ORIENTED_EDGE('',*,*,#523,.F.);
#681=ORIENTED_EDGE('',*,*,#462,.T.);
#682=ORIENTED_EDGE('',*,*,#438,.T.);
#683=ORIENTED_EDGE('',*,*,#479,.F.);
#684=ORIENTED_EDGE('',*,*,#468,.F.);
#685=ORIENTED_EDGE('',*,*,#524,.F.);
#686=ORIENTED_EDGE('',*,*,#525,.F.);
#687=ORIENTED_EDGE('',*,*,#524,.T.);
#688=ORIENTED_EDGE('',*,*,#471,.F.);
#689=ORIENTED_EDGE('',*,*,#473,.F.);
#690=ORIENTED_EDGE('',*,*,#474,.F.);
#691=ORIENTED_EDGE('',*,*,#526,.F.);
#692=ORIENTED_EDGE('',*,*,#527,.F.);
#693=ORIENTED_EDGE('',*,*,#526,.T.);
#694=ORIENTED_EDGE('',*,*,#477,.F.);
#695=ORIENTED_EDGE('',*,*,#481,.F.);
#696=ORIENTED_EDGE('',*,*,#487,.F.);
#697=ORIENTED_EDGE('',*,*,#528,.F.);
#698=ORIENTED_EDGE('',*,*,#450,.F.);
#699=ORIENTED_EDGE('',*,*,#529,.T.);
#700=ORIENTED_EDGE('',*,*,#528,.T.);
#701=ORIENTED_EDGE('',*,*,#486,.T.);
#702=ORIENTED_EDGE('',*,*,#431,.F.);
#703=ORIENTED_EDGE('',*,*,#464,.F.);
#704=ORIENTED_EDGE('',*,*,#460,.T.);
#705=ORIENTED_EDGE('',*,*,#442,.T.);
#706=ORIENTED_EDGE('',*,*,#463,.F.);
#707=ORIENTED_EDGE('',*,*,#523,.T.);
#708=ORIENTED_EDGE('',*,*,#525,.T.);
#709=ORIENTED_EDGE('',*,*,#527,.T.);
#710=ORIENTED_EDGE('',*,*,#529,.F.);
#711=ORIENTED_EDGE('',*,*,#449,.T.);
#712=ORIENTED_EDGE('',*,*,#456,.T.);
#713=ORIENTED_EDGE('',*,*,#530,.F.);
#714=ORIENTED_EDGE('',*,*,#522,.F.);
#715=ORIENTED_EDGE('',*,*,#515,.F.);
#716=ORIENTED_EDGE('',*,*,#518,.F.);
#717=ORIENTED_EDGE('',*,*,#520,.F.);
#718=ORIENTED_EDGE('',*,*,#501,.F.);
#719=ORIENTED_EDGE('',*,*,#531,.T.);
#720=ORIENTED_EDGE('',*,*,#512,.T.);
#721=ORIENTED_EDGE('',*,*,#531,.F.);
#722=ORIENTED_EDGE('',*,*,#494,.F.);
#723=ORIENTED_EDGE('',*,*,#532,.T.);
#724=ORIENTED_EDGE('',*,*,#504,.T.);
#725=ORIENTED_EDGE('',*,*,#532,.F.);
#726=ORIENTED_EDGE('',*,*,#500,.F.);
#727=ORIENTED_EDGE('',*,*,#533,.T.);
#728=ORIENTED_EDGE('',*,*,#507,.T.);
#729=ORIENTED_EDGE('',*,*,#533,.F.);
#730=ORIENTED_EDGE('',*,*,#496,.F.);
#731=ORIENTED_EDGE('',*,*,#534,.T.);
#732=ORIENTED_EDGE('',*,*,#510,.T.);
#733=ORIENTED_EDGE('',*,*,#534,.F.);
#734=ORIENTED_EDGE('',*,*,#497,.F.);
#735=ORIENTED_EDGE('',*,*,#535,.T.);
#736=ORIENTED_EDGE('',*,*,#505,.T.);
#737=ORIENTED_EDGE('',*,*,#535,.F.);
#738=ORIENTED_EDGE('',*,*,#493,.F.);
#739=ORIENTED_EDGE('',*,*,#536,.T.);
#740=ORIENTED_EDGE('',*,*,#511,.T.);
#741=ORIENTED_EDGE('',*,*,#536,.F.);
#742=ORIENTED_EDGE('',*,*,#498,.F.);
#743=ORIENTED_EDGE('',*,*,#537,.T.);
#744=ORIENTED_EDGE('',*,*,#508,.T.);
#745=ORIENTED_EDGE('',*,*,#537,.F.);
#746=ORIENTED_EDGE('',*,*,#492,.F.);
#747=ORIENTED_EDGE('',*,*,#538,.T.);
#748=ORIENTED_EDGE('',*,*,#509,.T.);
#749=ORIENTED_EDGE('',*,*,#538,.F.);
#750=ORIENTED_EDGE('',*,*,#495,.F.);
#751=ORIENTED_EDGE('',*,*,#539,.T.);
#752=ORIENTED_EDGE('',*,*,#506,.T.);
#753=ORIENTED_EDGE('',*,*,#539,.F.);
#754=ORIENTED_EDGE('',*,*,#499,.F.);
#755=ORIENTED_EDGE('',*,*,#540,.T.);
#756=ORIENTED_EDGE('',*,*,#513,.T.);
#757=ORIENTED_EDGE('',*,*,#540,.F.);
#758=ORIENTED_EDGE('',*,*,#503,.T.);
#759=ORIENTED_EDGE('',*,*,#432,.T.);
#760=ORIENTED_EDGE('',*,*,#428,.F.);
#761=ORIENTED_EDGE('',*,*,#530,.T.);
#762=ORIENTED_EDGE('',*,*,#455,.T.);
#763=ORIENTED_EDGE('',*,*,#457,.F.);
#764=ORIENTED_EDGE('',*,*,#452,.T.);
#765=ORIENTED_EDGE('',*,*,#490,.F.);
#766=ORIENTED_EDGE('',*,*,#514,.F.);
#767=CYLINDRICAL_SURFACE('',#837,2.5);
#768=CYLINDRICAL_SURFACE('',#841,4.5);
#769=CYLINDRICAL_SURFACE('',#846,7.);
#770=CYLINDRICAL_SURFACE('',#852,21.);
#771=CYLINDRICAL_SURFACE('',#890,1.70000000000006);
#772=CYLINDRICAL_SURFACE('',#893,1.69999999999994);
#773=CYLINDRICAL_SURFACE('',#900,3.9);
#774=CYLINDRICAL_SURFACE('',#901,1.8);
#775=CYLINDRICAL_SURFACE('',#902,1.8);
#776=CYLINDRICAL_SURFACE('',#903,1.8);
#777=CYLINDRICAL_SURFACE('',#904,1.8);
#778=CYLINDRICAL_SURFACE('',#905,1.8);
#779=CYLINDRICAL_SURFACE('',#906,1.8);
#780=CYLINDRICAL_SURFACE('',#907,1.8);
#781=CYLINDRICAL_SURFACE('',#908,1.8);
#782=CYLINDRICAL_SURFACE('',#909,3.9);
#783=ADVANCED_FACE('',(#62),#767,.F.);
#784=ADVANCED_FACE('',(#63),#38,.T.);
#785=ADVANCED_FACE('',(#64),#768,.F.);
#786=ADVANCED_FACE('',(#65),#39,.T.);
#787=ADVANCED_FACE('',(#66),#769,.F.);
#788=ADVANCED_FACE('',(#67),#40,.T.);
#789=ADVANCED_FACE('',(#68),#41,.T.);
#790=ADVANCED_FACE('',(#69),#770,.F.);
#791=ADVANCED_FACE('',(#70),#42,.T.);
#792=ADVANCED_FACE('',(#71),#43,.T.);
#793=ADVANCED_FACE('',(#72),#44,.T.);
#794=ADVANCED_FACE('',(#73),#45,.T.);
#795=ADVANCED_FACE('',(#74),#46,.T.);
#796=ADVANCED_FACE('',(#75),#47,.T.);
#797=ADVANCED_FACE('',(#76,#15),#48,.T.);
#798=ADVANCED_FACE('',(#77),#49,.T.);
#799=ADVANCED_FACE('',(#78),#50,.T.);
#800=ADVANCED_FACE('',(#79,#16,#17,#18,#19,#20,#21,#22,#23,#24,#25),#51,
 .T.);
#801=ADVANCED_FACE('',(#80,#26,#27,#28,#29,#30,#31,#32,#33,#34,#35),#52,
 .T.);
#802=ADVANCED_FACE('',(#81),#53,.T.);
#803=ADVANCED_FACE('',(#82),#54,.T.);
#804=ADVANCED_FACE('',(#83),#771,.F.);
#805=ADVANCED_FACE('',(#84),#55,.T.);
#806=ADVANCED_FACE('',(#85),#772,.F.);
#807=ADVANCED_FACE('',(#86),#56,.T.);
#808=ADVANCED_FACE('',(#87),#57,.T.);
#809=ADVANCED_FACE('',(#88),#58,.T.);
#810=ADVANCED_FACE('',(#89),#59,.T.);
#811=ADVANCED_FACE('',(#90,#36),#60,.F.);
#812=ADVANCED_FACE('',(#91),#773,.F.);
#813=ADVANCED_FACE('',(#92),#774,.F.);
#814=ADVANCED_FACE('',(#93),#775,.F.);
#815=ADVANCED_FACE('',(#94),#776,.F.);
#816=ADVANCED_FACE('',(#95),#777,.F.);
#817=ADVANCED_FACE('',(#96),#778,.F.);
#818=ADVANCED_FACE('',(#97),#779,.F.);
#819=ADVANCED_FACE('',(#98),#780,.F.);
#820=ADVANCED_FACE('',(#99),#781,.F.);
#821=ADVANCED_FACE('',(#100),#782,.F.);
#822=ADVANCED_FACE('',(#101),#61,.T.);
#823=CLOSED_SHELL('',(#783,#784,#785,#786,#787,#788,#789,#790,#791,#792,
#793,#794,#795,#796,#797,#798,#799,#800,#801,#802,#803,#804,#805,#806,#807,
#808,#809,#810,#811,#812,#813,#814,#815,#816,#817,#818,#819,#820,#821,#822));
#824=DERIVED_UNIT_ELEMENT(#826,1.);
#825=DERIVED_UNIT_ELEMENT(#1372,-3.);
#826=(
MASS_UNIT()
NAMED_UNIT(*)
SI_UNIT(.KILO.,.GRAM.)
);
#827=DERIVED_UNIT((#824,#825));
#828=MEASURE_REPRESENTATION_ITEM('density measure',
POSITIVE_RATIO_MEASURE(7850.),#827);
#829=PROPERTY_DEFINITION_REPRESENTATION(#834,#831);
#830=PROPERTY_DEFINITION_REPRESENTATION(#835,#832);
#831=REPRESENTATION('material name',(#833),#1369);
#832=REPRESENTATION('density',(#828),#1369);
#833=DESCRIPTIVE_REPRESENTATION_ITEM('Steel','Steel');
#834=PROPERTY_DEFINITION('material property','material name',#1379);
#835=PROPERTY_DEFINITION('material property','density of part',#1379);
#836=AXIS2_PLACEMENT_3D('',#1140,#911,#912);
#837=AXIS2_PLACEMENT_3D('',#1141,#913,#914);
#838=AXIS2_PLACEMENT_3D('',#1144,#915,#916);
#839=AXIS2_PLACEMENT_3D('',#1148,#918,#919);
#840=AXIS2_PLACEMENT_3D('',#1150,#921,#922);
#841=AXIS2_PLACEMENT_3D('',#1156,#926,#927);
#842=AXIS2_PLACEMENT_3D('',#1159,#928,#929);
#843=AXIS2_PLACEMENT_3D('',#1163,#931,#932);
#844=AXIS2_PLACEMENT_3D('',#1167,#934,#935);
#845=AXIS2_PLACEMENT_3D('',#1169,#937,#938);
#846=AXIS2_PLACEMENT_3D('',#1183,#946,#947);
#847=AXIS2_PLACEMENT_3D('',#1188,#949,#950);
#848=AXIS2_PLACEMENT_3D('',#1192,#952,#953);
#849=AXIS2_PLACEMENT_3D('',#1195,#955,#956);
#850=AXIS2_PLACEMENT_3D('',#1196,#957,#958);
#851=AXIS2_PLACEMENT_3D('',#1202,#962,#963);
#852=AXIS2_PLACEMENT_3D('',#1204,#965,#966);
#853=AXIS2_PLACEMENT_3D('',#1207,#967,#968);
#854=AXIS2_PLACEMENT_3D('',#1210,#970,#971);
#855=AXIS2_PLACEMENT_3D('',#1212,#973,#974);
#856=AXIS2_PLACEMENT_3D('',#1216,#977,#978);
#857=AXIS2_PLACEMENT_3D('',#1223,#983,#984);
#858=AXIS2_PLACEMENT_3D('',#1231,#989,#990);
#859=AXIS2_PLACEMENT_3D('',#1235,#993,#994);
#860=AXIS2_PLACEMENT_3D('',#1242,#999,#1000);
#861=AXIS2_PLACEMENT_3D('',#1245,#1003,#1004);
#862=AXIS2_PLACEMENT_3D('',#1251,#1007,#1008);
#863=AXIS2_PLACEMENT_3D('',#1255,#1010,#1011);
#864=AXIS2_PLACEMENT_3D('',#1257,#1013,#1014);
#865=AXIS2_PLACEMENT_3D('',#1263,#1019,#1020);
#866=AXIS2_PLACEMENT_3D('',#1264,#1021,#1022);
#867=AXIS2_PLACEMENT_3D('',#1269,#1025,#1026);
#868=AXIS2_PLACEMENT_3D('',#1271,#1027,#1028);
#869=AXIS2_PLACEMENT_3D('',#1273,#1029,#1030);
#870=AXIS2_PLACEMENT_3D('',#1275,#1031,#1032);
#871=AXIS2_PLACEMENT_3D('',#1277,#1033,#1034);
#872=AXIS2_PLACEMENT_3D('',#1279,#1035,#1036);
#873=AXIS2_PLACEMENT_3D('',#1281,#1037,#1038);
#874=AXIS2_PLACEMENT_3D('',#1283,#1039,#1040);
#875=AXIS2_PLACEMENT_3D('',#1285,#1041,#1042);
#876=AXIS2_PLACEMENT_3D('',#1287,#1043,#1044);
#877=AXIS2_PLACEMENT_3D('',#1288,#1045,#1046);
#878=AXIS2_PLACEMENT_3D('',#1293,#1049,#1050);
#879=AXIS2_PLACEMENT_3D('',#1295,#1051,#1052);
#880=AXIS2_PLACEMENT_3D('',#1297,#1053,#1054);
#881=AXIS2_PLACEMENT_3D('',#1299,#1055,#1056);
#882=AXIS2_PLACEMENT_3D('',#1301,#1057,#1058);
#883=AXIS2_PLACEMENT_3D('',#1303,#1059,#1060);
#884=AXIS2_PLACEMENT_3D('',#1305,#1061,#1062);
#885=AXIS2_PLACEMENT_3D('',#1307,#1063,#1064);
#886=AXIS2_PLACEMENT_3D('',#1309,#1065,#1066);
#887=AXIS2_PLACEMENT_3D('',#1311,#1067,#1068);
#888=AXIS2_PLACEMENT_3D('',#1312,#1069,#1070);
#889=AXIS2_PLACEMENT_3D('',#1314,#1072,#1073);
#890=AXIS2_PLACEMENT_3D('',#1320,#1077,#1078);
#891=AXIS2_PLACEMENT_3D('',#1322,#1079,#1080);
#892=AXIS2_PLACEMENT_3D('',#1324,#1082,#1083);
#893=AXIS2_PLACEMENT_3D('',#1328,#1086,#1087);
#894=AXIS2_PLACEMENT_3D('',#1329,#1088,#1089);
#895=AXIS2_PLACEMENT_3D('',#1330,#1090,#1091);
#896=AXIS2_PLACEMENT_3D('',#1334,#1094,#1095);
#897=AXIS2_PLACEMENT_3D('',#1338,#1098,#1099);
#898=AXIS2_PLACEMENT_3D('',#1342,#1102,#1103);
#899=AXIS2_PLACEMENT_3D('',#1344,#1105,#1106);
#900=AXIS2_PLACEMENT_3D('',#1346,#1108,#1109);
#901=AXIS2_PLACEMENT_3D('',#1348,#1111,#1112);
#902=AXIS2_PLACEMENT_3D('',#1350,#1114,#1115);
#903=AXIS2_PLACEMENT_3D('',#1352,#1117,#1118);
#904=AXIS2_PLACEMENT_3D('',#1354,#1120,#1121);
#905=AXIS2_PLACEMENT_3D('',#1356,#1123,#1124);
#906=AXIS2_PLACEMENT_3D('',#1358,#1126,#1127);
#907=AXIS2_PLACEMENT_3D('',#1360,#1129,#1130);
#908=AXIS2_PLACEMENT_3D('',#1362,#1132,#1133);
#909=AXIS2_PLACEMENT_3D('',#1364,#1135,#1136);
#910=AXIS2_PLACEMENT_3D('',#1366,#1138,#1139);
#911=DIRECTION('axis',(0.,0.,1.));
#912=DIRECTION('refdir',(1.,0.,0.));
#913=DIRECTION('center_axis',(1.66641413298374E-59,-1.194330829521E-14,
-1.));
#914=DIRECTION('ref_axis',(0.707106781186547,0.707106781186547,-1.00485917355762E-14));
#915=DIRECTION('center_axis',(0.,1.21566320014822E-14,1.));
#916=DIRECTION('ref_axis',(0.707106781186547,0.707106781186547,-1.00485917355762E-14));
#917=DIRECTION('',(1.66641413298374E-59,-1.194330829521E-14,-1.));
#918=DIRECTION('center_axis',(0.,-1.21713338995942E-14,-1.));
#919=DIRECTION('ref_axis',(0.707106781186547,0.707106781186547,-1.00485917355762E-14));
#920=DIRECTION('',(-1.66641413298374E-59,1.194330829521E-14,1.));
#921=DIRECTION('center_axis',(0.,-1.,1.194330829521E-14));
#922=DIRECTION('ref_axis',(2.24189710755931E-30,-1.194330829521E-14,-1.));
#923=DIRECTION('',(1.,0.,0.));
#924=DIRECTION('',(6.68386331829489E-31,-1.194330829521E-14,-1.));
#925=DIRECTION('',(1.,0.,0.));
#926=DIRECTION('center_axis',(-1.66641413298374E-59,1.18919286319685E-14,
1.));
#927=DIRECTION('ref_axis',(-0.707106781186547,0.707106781186547,-8.37382644631345E-15));
#928=DIRECTION('center_axis',(0.,0.,-1.));
#929=DIRECTION('ref_axis',(-0.707106781186547,0.707106781186547,-8.37382644631345E-15));
#930=DIRECTION('',(1.66641413298374E-59,-1.18919286319685E-14,-1.));
#931=DIRECTION('center_axis',(0.,0.,1.));
#932=DIRECTION('ref_axis',(-0.707106781186547,0.707106781186547,-8.37382644631345E-15));
#933=DIRECTION('',(-1.66641413298374E-59,1.18919286319685E-14,1.));
#934=DIRECTION('center_axis',(0.,-1.21713338995942E-14,-1.));
#935=DIRECTION('ref_axis',(-0.707106781186547,0.707106781186547,-8.37382644631345E-15));
#936=DIRECTION('',(-1.66641413298374E-59,1.18919286319685E-14,1.));
#937=DIRECTION('center_axis',(0.,-1.,1.18919286319685E-14));
#938=DIRECTION('ref_axis',(-3.71622769749016E-16,-1.18919286319685E-14,
-1.));
#939=DIRECTION('',(-1.,0.,0.));
#940=DIRECTION('',(1.66641413298374E-59,-1.18919286319685E-14,-1.));
#941=DIRECTION('',(-1.,0.,0.));
#942=DIRECTION('',(0.,0.,1.));
#943=DIRECTION('',(-1.,1.77635683940025E-15,0.));
#944=DIRECTION('',(-3.71622769749016E-16,-1.18919286319685E-14,-1.));
#945=DIRECTION('',(-1.,0.,0.));
#946=DIRECTION('center_axis',(-1.,0.,0.));
#947=DIRECTION('ref_axis',(0.,0.90008502999685,-0.435714285714354));
#948=DIRECTION('',(1.,0.,0.));
#949=DIRECTION('center_axis',(-1.,9.83390068600254E-60,-1.66641413298375E-59));
#950=DIRECTION('ref_axis',(0.,0.90008502999685,-0.435714285714354));
#951=DIRECTION('',(1.,0.,0.));
#952=DIRECTION('center_axis',(0.964746037183712,-0.263182605311074,0.));
#953=DIRECTION('ref_axis',(0.263182605311074,0.964746037183712,-6.12047579084134E-16));
#954=DIRECTION('',(1.,0.,0.));
#955=DIRECTION('center_axis',(1.,-9.83390068600254E-60,1.66641413298375E-59));
#956=DIRECTION('ref_axis',(0.,0.90008502999685,-0.435714285714354));
#957=DIRECTION('center_axis',(0.,-1.,1.34913177675969E-14));
#958=DIRECTION('ref_axis',(0.,-1.34913177675969E-14,-1.));
#959=DIRECTION('',(0.,-1.34913177675969E-14,-1.));
#960=DIRECTION('',(1.,0.,0.));
#961=DIRECTION('',(0.,1.34913177675969E-14,1.));
#962=DIRECTION('center_axis',(1.,-9.83390068600254E-60,1.66641413298375E-59));
#963=DIRECTION('ref_axis',(9.83390068600254E-60,1.,0.));
#964=DIRECTION('',(-9.83390068600274E-60,-1.,1.20616822428411E-14));
#965=DIRECTION('center_axis',(-1.,0.,0.));
#966=DIRECTION('ref_axis',(0.,-0.851835419999907,0.523809523809544));
#967=DIRECTION('center_axis',(1.,-5.6068396551162E-30,-3.71622769749016E-16));
#968=DIRECTION('ref_axis',(0.,-0.851835419999907,0.523809523809544));
#969=DIRECTION('',(1.,0.,0.));
#970=DIRECTION('center_axis',(-1.,9.83390068600254E-60,-1.66641413298375E-59));
#971=DIRECTION('ref_axis',(0.,-0.851835419999907,0.523809523809544));
#972=DIRECTION('',(1.,0.,0.));
#973=DIRECTION('center_axis',(0.,-1.21713338995942E-14,-1.));
#974=DIRECTION('ref_axis',(0.,1.,-1.21713338995942E-14));
#975=DIRECTION('',(1.,0.,0.));
#976=DIRECTION('',(0.,1.,-1.21713338995942E-14));
#977=DIRECTION('center_axis',(0.,-1.21713338995942E-14,-1.));
#978=DIRECTION('ref_axis',(0.,1.,-1.21713338995942E-14));
#979=DIRECTION('',(0.,1.,-1.21713338995942E-14));
#980=DIRECTION('',(-9.89410526628961E-48,1.,-1.21713338995942E-14));
#981=DIRECTION('',(1.,0.,0.));
#982=DIRECTION('',(2.73258972975129E-32,1.,-1.50139179081705E-14));
#983=DIRECTION('center_axis',(-1.,0.,0.));
#984=DIRECTION('ref_axis',(0.,-1.,0.));
#985=DIRECTION('',(0.,0.,1.));
#986=DIRECTION('',(0.,-1.,0.));
#987=DIRECTION('',(0.,0.,1.));
#988=DIRECTION('',(0.,-1.,0.));
#989=DIRECTION('center_axis',(1.77635683940025E-15,1.,0.));
#990=DIRECTION('ref_axis',(-1.,1.77635683940025E-15,0.));
#991=DIRECTION('',(0.,0.,1.));
#992=DIRECTION('',(-1.,1.77635683940025E-15,0.));
#993=DIRECTION('center_axis',(0.964746037183711,-0.263182605311075,0.));
#994=DIRECTION('ref_axis',(0.263182605311075,0.964746037183711,0.));
#995=DIRECTION('',(0.263182605311075,0.964746037183711,0.));
#996=DIRECTION('',(0.,0.,1.));
#997=DIRECTION('',(0.263182605311075,0.964746037183711,0.));
#998=DIRECTION('',(1.66641413298374E-59,-1.18919286319682E-14,-1.));
#999=DIRECTION('center_axis',(0.,0.,1.));
#1000=DIRECTION('ref_axis',(1.,0.,0.));
#1001=DIRECTION('',(9.83390068600254E-60,1.,0.));
#1002=DIRECTION('',(1.,0.,0.));
#1003=DIRECTION('center_axis',(1.,-9.83390068600254E-60,1.66641413298375E-59));
#1004=DIRECTION('ref_axis',(9.83390068600254E-60,1.,0.));
#1005=DIRECTION('',(-9.83390068600254E-60,-1.,0.));
#1006=DIRECTION('',(1.66641413298374E-59,-1.18919286319682E-14,-1.));
#1007=DIRECTION('center_axis',(-1.,0.,0.));
#1008=DIRECTION('ref_axis',(0.,1.,-1.04491578788254E-14));
#1009=DIRECTION('',(0.,-4.44089209850063E-16,-1.));
#1010=DIRECTION('center_axis',(-1.,0.,0.));
#1011=DIRECTION('ref_axis',(0.,-1.,1.04491578788246E-14));
#1012=DIRECTION('',(0.,1.15463194561016E-14,1.));
#1013=DIRECTION('center_axis',(0.964746037183712,-0.263182605311074,0.));
#1014=DIRECTION('ref_axis',(-0.263182605311074,-0.964746037183712,0.));
#1015=DIRECTION('',(0.263182605311074,0.964746037183712,0.));
#1016=DIRECTION('',(1.66641413298374E-59,-1.18919286319682E-14,-1.));
#1017=DIRECTION('',(-0.263182605311074,-0.964746037183712,0.));
#1018=DIRECTION('',(-3.71622769749016E-16,-1.18919286319685E-14,-1.));
#1019=DIRECTION('center_axis',(0.,0.,-1.));
#1020=DIRECTION('ref_axis',(-1.,0.,0.));
#1021=DIRECTION('center_axis',(1.,-5.6068396551162E-30,-3.71622769749016E-16));
#1022=DIRECTION('ref_axis',(5.6068396551162E-30,1.,0.));
#1023=DIRECTION('',(1.23064900886644E-16,-1.,6.27630994521882E-15));
#1024=DIRECTION('',(0.,1.2542268479029E-14,1.));
#1025=DIRECTION('center_axis',(-1.,0.,0.));
#1026=DIRECTION('ref_axis',(0.,-1.,0.));
#1027=DIRECTION('center_axis',(-1.,0.,0.));
#1028=DIRECTION('ref_axis',(0.,-1.,0.));
#1029=DIRECTION('center_axis',(-1.,0.,0.));
#1030=DIRECTION('ref_axis',(0.,-1.,0.));
#1031=DIRECTION('center_axis',(-1.,0.,0.));
#1032=DIRECTION('ref_axis',(0.,-1.,0.));
#1033=DIRECTION('center_axis',(-1.,0.,0.));
#1034=DIRECTION('ref_axis',(0.,-1.,0.));
#1035=DIRECTION('center_axis',(-1.,0.,0.));
#1036=DIRECTION('ref_axis',(0.,-1.,0.));
#1037=DIRECTION('center_axis',(-1.,0.,0.));
#1038=DIRECTION('ref_axis',(0.,-1.,0.));
#1039=DIRECTION('center_axis',(-1.,0.,0.));
#1040=DIRECTION('ref_axis',(0.,-1.,0.));
#1041=DIRECTION('center_axis',(-1.,0.,0.));
#1042=DIRECTION('ref_axis',(0.,-1.,0.));
#1043=DIRECTION('center_axis',(-1.,0.,0.));
#1044=DIRECTION('ref_axis',(0.,-1.,0.));
#1045=DIRECTION('center_axis',(-1.,-8.145047323888E-45,-6.68386331829489E-31));
#1046=DIRECTION('ref_axis',(8.145047323888E-45,-1.,-6.22301527786127E-61));
#1047=DIRECTION('',(-6.68386331829489E-31,1.21956317098976E-14,1.));
#1048=DIRECTION('',(1.97206530163639E-47,-1.,1.21566320014822E-14));
#1049=DIRECTION('center_axis',(-1.,-8.145047323888E-45,-6.68386331829489E-31));
#1050=DIRECTION('ref_axis',(0.,1.,0.));
#1051=DIRECTION('center_axis',(-1.,-8.145047323888E-45,-6.68386331829489E-31));
#1052=DIRECTION('ref_axis',(0.,1.,0.));
#1053=DIRECTION('center_axis',(-1.,-8.145047323888E-45,-6.68386331829489E-31));
#1054=DIRECTION('ref_axis',(0.,1.,0.));
#1055=DIRECTION('center_axis',(-1.,-8.145047323888E-45,-6.68386331829489E-31));
#1056=DIRECTION('ref_axis',(0.,1.,0.));
#1057=DIRECTION('center_axis',(-1.,-8.145047323888E-45,-6.68386331829489E-31));
#1058=DIRECTION('ref_axis',(0.,1.,0.));
#1059=DIRECTION('center_axis',(-1.,-8.145047323888E-45,-6.68386331829489E-31));
#1060=DIRECTION('ref_axis',(0.,1.,0.));
#1061=DIRECTION('center_axis',(-1.,-8.145047323888E-45,-6.68386331829489E-31));
#1062=DIRECTION('ref_axis',(0.,1.,0.));
#1063=DIRECTION('center_axis',(-1.,-8.145047323888E-45,-6.68386331829489E-31));
#1064=DIRECTION('ref_axis',(0.,1.,0.));
#1065=DIRECTION('center_axis',(-1.,-8.145047323888E-45,-6.68386331829489E-31));
#1066=DIRECTION('ref_axis',(0.,1.,0.));
#1067=DIRECTION('center_axis',(-1.,-8.145047323888E-45,-6.68386331829489E-31));
#1068=DIRECTION('ref_axis',(0.,1.,0.));
#1069=DIRECTION('center_axis',(0.,1.,-1.21956317098976E-14));
#1070=DIRECTION('ref_axis',(0.,1.21956317098976E-14,1.));
#1071=DIRECTION('',(1.,0.,0.));
#1072=DIRECTION('center_axis',(0.,1.,-1.15463194561016E-14));
#1073=DIRECTION('ref_axis',(0.,1.15463194561016E-14,1.));
#1074=DIRECTION('',(0.,1.15463194561016E-14,1.));
#1075=DIRECTION('',(1.,0.,0.));
#1076=DIRECTION('',(1.,0.,0.));
#1077=DIRECTION('center_axis',(1.,0.,0.));
#1078=DIRECTION('ref_axis',(0.,-1.,1.04491578788246E-14));
#1079=DIRECTION('center_axis',(-1.,0.,0.));
#1080=DIRECTION('ref_axis',(0.,-1.,1.04491578788246E-14));
#1081=DIRECTION('',(1.,0.,0.));
#1082=DIRECTION('center_axis',(0.,-1.,4.44089209850063E-16));
#1083=DIRECTION('ref_axis',(0.,-4.44089209850063E-16,-1.));
#1084=DIRECTION('',(0.,-4.44089209850063E-16,-1.));
#1085=DIRECTION('',(1.,0.,0.));
#1086=DIRECTION('center_axis',(1.,0.,0.));
#1087=DIRECTION('ref_axis',(0.,1.,-1.04491578788254E-14));
#1088=DIRECTION('center_axis',(-1.,0.,0.));
#1089=DIRECTION('ref_axis',(0.,1.,-1.04491578788254E-14));
#1090=DIRECTION('center_axis',(0.,1.,0.));
#1091=DIRECTION('ref_axis',(0.,0.,1.));
#1092=DIRECTION('',(0.,0.,-1.));
#1093=DIRECTION('',(1.,0.,0.));
#1094=DIRECTION('center_axis',(0.,0.,-1.));
#1095=DIRECTION('ref_axis',(0.,1.,0.));
#1096=DIRECTION('',(0.,-1.,0.));
#1097=DIRECTION('',(1.,0.,0.));
#1098=DIRECTION('center_axis',(0.,-1.,1.18919286319682E-14));
#1099=DIRECTION('ref_axis',(1.66641413298374E-59,-1.18919286319682E-14,
-1.));
#1100=DIRECTION('',(-1.66641413298374E-59,1.18919286319682E-14,1.));
#1101=DIRECTION('',(1.,0.,0.));
#1102=DIRECTION('center_axis',(0.,1.25996502139913E-14,1.));
#1103=DIRECTION('ref_axis',(0.,-1.,1.25996502139913E-14));
#1104=DIRECTION('',(0.,-1.,1.25996502139913E-14));
#1105=DIRECTION('center_axis',(1.,-9.83390068600254E-60,1.66641413298375E-59));
#1106=DIRECTION('ref_axis',(9.83390068600254E-60,1.,0.));
#1107=DIRECTION('',(-9.83390068600274E-60,-1.,1.20616822428411E-14));
#1108=DIRECTION('center_axis',(1.,0.,0.));
#1109=DIRECTION('ref_axis',(0.,1.,0.));
#1110=DIRECTION('',(-1.,0.,0.));
#1111=DIRECTION('center_axis',(1.,0.,0.));
#1112=DIRECTION('ref_axis',(0.,1.,0.));
#1113=DIRECTION('',(-1.,0.,0.));
#1114=DIRECTION('center_axis',(1.,0.,0.));
#1115=DIRECTION('ref_axis',(0.,1.,0.));
#1116=DIRECTION('',(-1.,0.,0.));
#1117=DIRECTION('center_axis',(1.,0.,0.));
#1118=DIRECTION('ref_axis',(0.,1.,0.));
#1119=DIRECTION('',(-1.,0.,0.));
#1120=DIRECTION('center_axis',(1.,0.,0.));
#1121=DIRECTION('ref_axis',(0.,1.,0.));
#1122=DIRECTION('',(-1.,0.,0.));
#1123=DIRECTION('center_axis',(1.,0.,0.));
#1124=DIRECTION('ref_axis',(0.,1.,0.));
#1125=DIRECTION('',(-1.,0.,0.));
#1126=DIRECTION('center_axis',(1.,0.,0.));
#1127=DIRECTION('ref_axis',(0.,1.,0.));
#1128=DIRECTION('',(-1.,0.,0.));
#1129=DIRECTION('center_axis',(1.,0.,0.));
#1130=DIRECTION('ref_axis',(0.,1.,0.));
#1131=DIRECTION('',(-1.,0.,0.));
#1132=DIRECTION('center_axis',(1.,0.,0.));
#1133=DIRECTION('ref_axis',(0.,1.,0.));
#1134=DIRECTION('',(-1.,0.,0.));
#1135=DIRECTION('center_axis',(1.,0.,0.));
#1136=DIRECTION('ref_axis',(0.,1.,0.));
#1137=DIRECTION('',(-1.,0.,0.));
#1138=DIRECTION('center_axis',(0.,1.21566320014822E-14,1.));
#1139=DIRECTION('ref_axis',(-2.11985715128522E-31,-1.,1.21566320014822E-14));
#1140=CARTESIAN_POINT('',(0.,0.,0.));
#1141=CARTESIAN_POINT('Origin',(65.3114583598254,-25.843446631896,49.5268646025116));
#1142=CARTESIAN_POINT('',(67.8114583598254,-25.8434466318959,58.0018646025114));
#1143=CARTESIAN_POINT('',(65.3114583598254,-23.3434466318959,58.0018646025114));
#1144=CARTESIAN_POINT('Origin',(65.3114583598254,-25.8434466318959,58.0018646025114));
#1145=CARTESIAN_POINT('',(65.3114583598254,-23.3434466318961,34.1018646025114));
#1146=CARTESIAN_POINT('',(65.3114583598254,-23.343446631896,49.5268646025116));
#1147=CARTESIAN_POINT('',(67.8114583598254,-25.8434466318961,34.1018646025114));
#1148=CARTESIAN_POINT('Origin',(65.3114583598254,-25.8434466318961,34.1018646025114));
#1149=CARTESIAN_POINT('',(67.8114583598254,-25.843446631896,49.5268646025116));
#1150=CARTESIAN_POINT('Origin',(61.8114583598254,-23.3434466318959,58.0018646025114));
#1151=CARTESIAN_POINT('',(64.8114583598254,-23.3434466318959,58.0018646025114));
#1152=CARTESIAN_POINT('',(61.8114583598254,-23.3434466318959,58.0018646025114));
#1153=CARTESIAN_POINT('',(64.8114583598254,-23.3434466318961,34.1018646025114));
#1154=CARTESIAN_POINT('',(64.8114583598254,-23.3434466318959,52.0268646025114));
#1155=CARTESIAN_POINT('',(61.8114583598254,-23.3434466318961,34.1018646025114));
#1156=CARTESIAN_POINT('Origin',(75.3114583598254,-59.5149929705416,49.5268646025118));
#1157=CARTESIAN_POINT('',(70.8114583598254,-59.5149929705415,52.0518646025118));
#1158=CARTESIAN_POINT('',(75.3114583598254,-55.0149929705415,52.0518646025118));
#1159=CARTESIAN_POINT('Origin',(75.3114583598254,-59.5149929705415,52.0518646025118));
#1160=CARTESIAN_POINT('',(70.8114583598254,-59.5149929705418,26.101864602512));
#1161=CARTESIAN_POINT('',(70.8114583598254,-59.5149929705416,49.5268646025118));
#1162=CARTESIAN_POINT('',(75.2475619876271,-55.0154466318961,26.101864602512));
#1163=CARTESIAN_POINT('Origin',(75.3114583598254,-59.5149929705418,26.1018646025119));
#1164=CARTESIAN_POINT('',(75.2475619876202,-55.0154466318962,34.1018646025117));
#1165=CARTESIAN_POINT('',(75.2475619876071,-55.0154466318962,49.5268646025118));
#1166=CARTESIAN_POINT('',(75.3114583598254,-55.0149929705417,34.1018646025117));
#1167=CARTESIAN_POINT('Origin',(75.3114583598254,-59.5149929705418,34.1018646025118));
#1168=CARTESIAN_POINT('',(75.3114583598254,-55.0149929705416,49.5268646025118));
#1169=CARTESIAN_POINT('Origin',(70.8114583598255,-55.0149929705415,58.0018646025113));
#1170=CARTESIAN_POINT('',(67.8114583598254,-55.0149929705417,34.1018646025117));
#1171=CARTESIAN_POINT('',(66.3114583598254,-55.0149929705417,34.1018646025117));
#1172=CARTESIAN_POINT('',(67.8114583598254,-55.0149929705419,24.1026023266931));
#1173=CARTESIAN_POINT('',(67.8114583598254,-55.0149929705416,49.5268646025118));
#1174=CARTESIAN_POINT('',(70.8114583598254,-55.0149929705419,24.1026023266931));
#1175=CARTESIAN_POINT('',(67.8114583598254,-55.0149929705419,24.1026023266931));
#1176=CARTESIAN_POINT('',(70.8114583598254,-55.0149929705417,26.101864602512));
#1177=CARTESIAN_POINT('',(70.8114583598254,-55.0149929705417,24.1018646025119));
#1178=CARTESIAN_POINT('',(75.8114583598254,-55.0149929705417,26.101864602512));
#1179=CARTESIAN_POINT('',(75.8114583598254,-55.0149929705417,26.101864602512));
#1180=CARTESIAN_POINT('',(75.8114583598254,-55.0149929705415,52.0518646025118));
#1181=CARTESIAN_POINT('',(75.8114583598255,-55.0149929705415,58.0018646025113));
#1182=CARTESIAN_POINT('',(72.0614583598254,-55.0149929705415,52.0518646025118));
#1183=CARTESIAN_POINT('Origin',(70.8114583598255,-61.3155881805194,61.0518646025118));
#1184=CARTESIAN_POINT('',(67.8114583598254,-55.0154466318959,58.0009276206475));
#1185=CARTESIAN_POINT('',(70.8114583598254,-55.0154466318959,58.0009276206475));
#1186=CARTESIAN_POINT('',(70.8114583598255,-55.0154466318959,58.0009276206475));
#1187=CARTESIAN_POINT('',(67.8114583598254,-61.3155881805195,54.0518646025118));
#1188=CARTESIAN_POINT('Origin',(67.8114583598254,-61.3155881805194,61.0518646025118));
#1189=CARTESIAN_POINT('',(74.0926567286592,-61.3155881805195,54.0518646025118));
#1190=CARTESIAN_POINT('',(70.8114583598255,-61.3155881805195,54.0518646025118));
#1191=CARTESIAN_POINT('',(75.8114583598255,-55.0149929705415,58.0018646025113));
#1192=CARTESIAN_POINT('Origin',(74.0926567286593,-61.3155881805194,61.0518646025118));
#1193=CARTESIAN_POINT('',(70.8114583598255,-55.0149929705415,58.0018646025113));
#1194=CARTESIAN_POINT('',(70.8114583598255,-55.0149929705415,58.0018646025113));
#1195=CARTESIAN_POINT('Origin',(70.8114583598254,-61.3155881805194,61.0518646025118));
#1196=CARTESIAN_POINT('Origin',(67.8114583598254,-55.0154466318959,58.0018646025117));
#1197=CARTESIAN_POINT('',(70.8114583598254,-55.0154466318959,58.0018646025117));
#1198=CARTESIAN_POINT('',(70.8114583598254,-55.0154466318959,54.0518646025117));
#1199=CARTESIAN_POINT('',(67.8114583598254,-55.0154466318959,58.0018646025117));
#1200=CARTESIAN_POINT('',(67.8114583598254,-55.0154466318959,58.0018646025117));
#1201=CARTESIAN_POINT('',(67.8114583598254,-55.0154466318959,54.0518646025117));
#1202=CARTESIAN_POINT('Origin',(70.8114583598254,-28.0934466318959,41.0518646025118));
#1203=CARTESIAN_POINT('',(70.8114583598254,17.1565533681044,58.0018646025109));
#1204=CARTESIAN_POINT('Origin',(67.8114583598254,-37.1269028118981,13.1018646025115));
#1205=CARTESIAN_POINT('',(75.8114583598254,-37.1269028118978,34.1018646025117));
#1206=CARTESIAN_POINT('',(75.8114583598255,-55.0149929705419,24.1026023266931));
#1207=CARTESIAN_POINT('Origin',(75.8114583598255,-37.1269028118981,13.1018646025115));
#1208=CARTESIAN_POINT('',(67.8114583598254,-55.0149929705417,24.1026023266933));
#1209=CARTESIAN_POINT('',(67.8114583598254,-37.1269028118978,34.1018646025115));
#1210=CARTESIAN_POINT('Origin',(67.8114583598254,-37.1269028118981,13.1018646025115));
#1211=CARTESIAN_POINT('',(67.8114583598254,-37.1269028118978,34.1018646025115));
#1212=CARTESIAN_POINT('Origin',(61.8114583598254,-23.3434466318961,34.1018646025114));
#1213=CARTESIAN_POINT('',(67.8114583598254,-55.0154466318962,34.101864602512));
#1214=CARTESIAN_POINT('',(67.8114583598254,-55.0154466318962,34.101864602512));
#1215=CARTESIAN_POINT('',(67.8114583598254,-23.3434466318961,34.1018646025114));
#1216=CARTESIAN_POINT('Origin',(61.8114583598254,-23.3434466318961,34.1018646025114));
#1217=CARTESIAN_POINT('',(67.8114583598254,-23.3434466318961,34.1018646025114));
#1218=CARTESIAN_POINT('',(64.8114583598254,17.1565533681041,34.1018646025109));
#1219=CARTESIAN_POINT('',(64.8114583598254,-13.2184466318961,34.1018646025112));
#1220=CARTESIAN_POINT('',(75.8114583598254,17.1565533681041,34.1018646025109));
#1221=CARTESIAN_POINT('',(61.8114583598254,17.1565533681041,34.1018646025109));
#1222=CARTESIAN_POINT('',(75.8114583598254,-55.0149929705417,34.101864602512));
#1223=CARTESIAN_POINT('Origin',(70.8114583598254,-55.0149929705417,24.1018646025119));
#1224=CARTESIAN_POINT('',(70.8114583598254,-55.0154466318962,24.101864602512));
#1225=CARTESIAN_POINT('',(70.8114583598254,-55.0154466318962,26.101864602512));
#1226=CARTESIAN_POINT('',(70.8114583598254,-55.0154466318962,34.101864602512));
#1227=CARTESIAN_POINT('',(70.8114583598254,-55.0149929705417,26.101864602512));
#1228=CARTESIAN_POINT('',(70.8114583598254,-55.0149929705417,24.1018646025119));
#1229=CARTESIAN_POINT('',(70.8114583598254,-55.0149929705417,24.1018646025119));
#1230=CARTESIAN_POINT('',(70.8114583598254,-55.0149929705417,24.1018646025119));
#1231=CARTESIAN_POINT('Origin',(75.8114583598254,-55.0149929705417,24.1018646025119));
#1232=CARTESIAN_POINT('',(75.8114583598254,-55.0149929705417,24.1018646025119));
#1233=CARTESIAN_POINT('',(75.8114583598254,-55.0149929705417,24.1018646025119));
#1234=CARTESIAN_POINT('',(75.8114583598254,-55.0149929705417,24.1018646025119));
#1235=CARTESIAN_POINT('Origin',(70.8114583598254,-73.3434466318961,24.1018646025119));
#1236=CARTESIAN_POINT('',(70.8114583598254,-73.3434466318961,24.101864602512));
#1237=CARTESIAN_POINT('',(70.8114583598254,-73.3434466318961,24.1018646025119));
#1238=CARTESIAN_POINT('',(75.8114583598254,-55.0149929705417,24.1018646025119));
#1239=CARTESIAN_POINT('',(70.8114583598254,-73.3434466318961,26.101864602512));
#1240=CARTESIAN_POINT('',(70.8114583598254,-73.3434466318961,26.101864602512));
#1241=CARTESIAN_POINT('',(70.8114583598254,-73.3434466318961,34.101864602512));
#1242=CARTESIAN_POINT('Origin',(73.3114583598254,-64.1792198012189,26.101864602512));
#1243=CARTESIAN_POINT('',(70.8114583598254,-46.1363332165574,26.101864602512));
#1244=CARTESIAN_POINT('',(70.5614583598254,-55.0154466318961,26.101864602512));
#1245=CARTESIAN_POINT('Origin',(70.8114583598254,-28.0934466318959,41.0518646025118));
#1246=CARTESIAN_POINT('',(70.8114583598254,-73.3434466318959,52.0518646025118));
#1247=CARTESIAN_POINT('',(70.8114583598254,-46.1363332165573,52.0518646025118));
#1248=CARTESIAN_POINT('',(70.8114583598254,-73.3434466318961,34.101864602512));
#1249=CARTESIAN_POINT('',(70.8114583598254,-68.0434466318959,49.0518646025119));
#1250=CARTESIAN_POINT('',(70.8114583598254,-64.6434466318961,49.0518646025119));
#1251=CARTESIAN_POINT('Origin',(70.8114583598254,-66.343446631896,49.0518646025119));
#1252=CARTESIAN_POINT('',(70.8114583598254,-64.6434466318961,29.0518646025119));
#1253=CARTESIAN_POINT('',(70.8114583598254,-64.6434466318961,29.0518646025119));
#1254=CARTESIAN_POINT('',(70.8114583598254,-68.0434466318962,29.0518646025119));
#1255=CARTESIAN_POINT('Origin',(70.8114583598254,-66.3434466318961,29.0518646025119));
#1256=CARTESIAN_POINT('',(70.8114583598254,-68.043446631896,49.0518646025119));
#1257=CARTESIAN_POINT('Origin',(75.8114583598254,-55.0149929705415,54.0518646025118));
#1258=CARTESIAN_POINT('',(70.8114583598254,-73.3434466318959,54.051864602512));
#1259=CARTESIAN_POINT('',(70.8114583598254,-73.3434466318959,54.0518646025118));
#1260=CARTESIAN_POINT('',(70.8114583598254,-73.3434466318961,34.101864602512));
#1261=CARTESIAN_POINT('',(70.8114583598254,-73.3434466318959,52.0518646025118));
#1262=CARTESIAN_POINT('',(75.8114583598255,-55.0149929705415,58.0018646025113));
#1263=CARTESIAN_POINT('Origin',(73.3114583598254,-64.1792198012187,52.0518646025118));
#1264=CARTESIAN_POINT('Origin',(75.8114583598255,-18.9292198012187,46.0518646025111));
#1265=CARTESIAN_POINT('',(75.8114583598254,17.1565533681044,58.0018646025109));
#1266=CARTESIAN_POINT('',(75.8114583598254,17.1565533681044,58.0018646025109));
#1267=CARTESIAN_POINT('',(75.8114583598254,17.1565533681041,34.1018646025109));
#1268=CARTESIAN_POINT('',(75.8114583598255,-8.34344663189608,38.9018646025121));
#1269=CARTESIAN_POINT('Origin',(75.8114583598255,-6.54344663189608,38.9018646025121));
#1270=CARTESIAN_POINT('',(75.8114583598255,-2.75730306052193,52.3880081738857));
#1271=CARTESIAN_POINT('Origin',(75.8114583598255,-0.957303060521932,52.3880081738857));
#1272=CARTESIAN_POINT('',(75.8114583598255,-13.9295902032701,41.2157210311384));
#1273=CARTESIAN_POINT('Origin',(75.8114583598255,-12.1295902032701,41.2157210311384));
#1274=CARTESIAN_POINT('',(75.8114583598255,-0.443446631895986,46.8018646025119));
#1275=CARTESIAN_POINT('Origin',(75.8114583598255,1.35655336810402,46.8018646025119));
#1276=CARTESIAN_POINT('',(75.8114583598255,-13.9295902032699,52.3880081738859));
#1277=CARTESIAN_POINT('Origin',(75.8114583598255,-12.1295902032699,52.3880081738859));
#1278=CARTESIAN_POINT('',(75.8114583598255,-8.34344663189591,54.7018646025121));
#1279=CARTESIAN_POINT('Origin',(75.8114583598255,-6.54344663189591,54.7018646025121));
#1280=CARTESIAN_POINT('',(75.8114583598255,-16.243446631896,46.8018646025122));
#1281=CARTESIAN_POINT('Origin',(75.8114583598255,-14.443446631896,46.8018646025122));
#1282=CARTESIAN_POINT('',(75.8114583598255,5.356553368104,46.8018646025117));
#1283=CARTESIAN_POINT('Origin',(75.8114583598255,9.25655336810401,46.8018646025118));
#1284=CARTESIAN_POINT('',(75.8114583598255,-2.75730306052207,41.2157210311382));
#1285=CARTESIAN_POINT('Origin',(75.8114583598255,-0.957303060522074,41.2157210311382));
#1286=CARTESIAN_POINT('',(75.8114583598255,-10.443446631896,46.8018646025121));
#1287=CARTESIAN_POINT('Origin',(75.8114583598255,-6.54344663189599,46.8018646025121));
#1288=CARTESIAN_POINT('Origin',(64.8114583598254,-3.0934466318959,46.0518646025111));
#1289=CARTESIAN_POINT('',(64.8114583598254,17.1565533681044,58.0018646025109));
#1290=CARTESIAN_POINT('',(64.8114583598254,17.1565533681041,40.0768646025109));
#1291=CARTESIAN_POINT('',(64.8114583598254,7.0315533681043,58.001864602511));
#1292=CARTESIAN_POINT('',(64.8114583598254,-13.9295902032701,41.2157210311384));
#1293=CARTESIAN_POINT('Origin',(64.8114583598254,-12.1295902032701,41.2157210311384));
#1294=CARTESIAN_POINT('',(64.8114583598254,-8.34344663189591,54.7018646025121));
#1295=CARTESIAN_POINT('Origin',(64.8114583598254,-6.5434466318959,54.7018646025121));
#1296=CARTESIAN_POINT('',(64.8114583598254,-0.443446631895987,46.8018646025119));
#1297=CARTESIAN_POINT('Origin',(64.8114583598254,1.35655336810402,46.8018646025119));
#1298=CARTESIAN_POINT('',(64.8114583598254,-2.75730306052208,41.2157210311382));
#1299=CARTESIAN_POINT('Origin',(64.8114583598254,-0.957303060522074,41.2157210311382));
#1300=CARTESIAN_POINT('',(64.8114583598254,-16.243446631896,46.8018646025122));
#1301=CARTESIAN_POINT('Origin',(64.8114583598254,-14.443446631896,46.8018646025122));
#1302=CARTESIAN_POINT('',(64.8114583598254,-8.34344663189608,38.9018646025121));
#1303=CARTESIAN_POINT('Origin',(64.8114583598254,-6.54344663189608,38.9018646025121));
#1304=CARTESIAN_POINT('',(64.8114583598254,-13.9295902032699,52.3880081738859));
#1305=CARTESIAN_POINT('Origin',(64.8114583598254,-12.1295902032699,52.3880081738859));
#1306=CARTESIAN_POINT('',(64.8114583598254,-2.75730306052193,52.3880081738857));
#1307=CARTESIAN_POINT('Origin',(64.8114583598254,-0.957303060521931,52.3880081738857));
#1308=CARTESIAN_POINT('',(64.8114583598254,-10.443446631896,46.8018646025121));
#1309=CARTESIAN_POINT('Origin',(64.8114583598254,-6.54344663189599,46.8018646025121));
#1310=CARTESIAN_POINT('',(64.8114583598254,5.356553368104,46.8018646025117));
#1311=CARTESIAN_POINT('Origin',(64.8114583598254,9.25655336810401,46.8018646025117));
#1312=CARTESIAN_POINT('Origin',(61.8114583598254,17.1565533681041,34.1018646025109));
#1313=CARTESIAN_POINT('',(61.8114583598254,17.1565533681044,58.0018646025109));
#1314=CARTESIAN_POINT('Origin',(67.8114583598254,-68.0434466318962,29.0518646025119));
#1315=CARTESIAN_POINT('',(67.8114583598254,-68.0434466318962,29.0518646025119));
#1316=CARTESIAN_POINT('',(67.8114583598254,-68.0434466318959,49.0518646025119));
#1317=CARTESIAN_POINT('',(67.8114583598254,-68.043446631896,49.0518646025119));
#1318=CARTESIAN_POINT('',(67.8114583598254,-68.0434466318959,49.0518646025119));
#1319=CARTESIAN_POINT('',(67.8114583598254,-68.0434466318962,29.0518646025119));
#1320=CARTESIAN_POINT('Origin',(67.8114583598254,-66.3434466318961,29.0518646025119));
#1321=CARTESIAN_POINT('',(67.8114583598254,-64.6434466318961,29.0518646025119));
#1322=CARTESIAN_POINT('Origin',(67.8114583598254,-66.3434466318961,29.0518646025119));
#1323=CARTESIAN_POINT('',(67.8114583598254,-64.6434466318961,29.0518646025119));
#1324=CARTESIAN_POINT('Origin',(67.8114583598254,-64.6434466318961,49.0518646025119));
#1325=CARTESIAN_POINT('',(67.8114583598254,-64.6434466318961,49.0518646025119));
#1326=CARTESIAN_POINT('',(67.8114583598254,-64.6434466318961,29.0518646025119));
#1327=CARTESIAN_POINT('',(67.8114583598254,-64.6434466318961,49.0518646025119));
#1328=CARTESIAN_POINT('Origin',(67.8114583598254,-66.343446631896,49.0518646025119));
#1329=CARTESIAN_POINT('Origin',(67.8114583598254,-66.343446631896,49.0518646025119));
#1330=CARTESIAN_POINT('Origin',(67.8114583598254,-55.0154466318962,24.101864602512));
#1331=CARTESIAN_POINT('',(67.8114583598254,-55.0154466318962,24.101864602512));
#1332=CARTESIAN_POINT('',(67.8114583598254,-55.0154466318962,34.101864602512));
#1333=CARTESIAN_POINT('',(67.8114583598254,-55.0154466318962,24.101864602512));
#1334=CARTESIAN_POINT('Origin',(67.8114583598254,-73.3434466318961,24.101864602512));
#1335=CARTESIAN_POINT('',(67.8114583598254,-73.3434466318961,24.101864602512));
#1336=CARTESIAN_POINT('',(67.8114583598254,-55.0154466318962,24.101864602512));
#1337=CARTESIAN_POINT('',(67.8114583598254,-73.3434466318961,24.101864602512));
#1338=CARTESIAN_POINT('Origin',(67.8114583598254,-73.3434466318959,54.051864602512));
#1339=CARTESIAN_POINT('',(67.8114583598254,-73.3434466318959,54.051864602512));
#1340=CARTESIAN_POINT('',(67.8114583598254,-73.3434466318961,34.101864602512));
#1341=CARTESIAN_POINT('',(67.8114583598254,-73.3434466318959,54.051864602512));
#1342=CARTESIAN_POINT('Origin',(67.8114583598254,-55.0154466318959,54.0518646025117));
#1343=CARTESIAN_POINT('',(67.8114583598254,-55.0154466318959,54.0518646025117));
#1344=CARTESIAN_POINT('Origin',(67.8114583598254,-28.0934466318959,41.0518646025118));
#1345=CARTESIAN_POINT('',(67.8114583598254,17.1565533681044,58.0018646025109));
#1346=CARTESIAN_POINT('Origin',(61.8114583598254,-6.54344663189599,46.8018646025121));
#1347=CARTESIAN_POINT('',(61.8114583598254,-10.443446631896,46.8018646025121));
#1348=CARTESIAN_POINT('Origin',(61.8114583598254,-12.1295902032701,41.2157210311384));
#1349=CARTESIAN_POINT('',(61.8114583598254,-13.9295902032701,41.2157210311384));
#1350=CARTESIAN_POINT('Origin',(61.8114583598254,-0.957303060522074,41.2157210311382));
#1351=CARTESIAN_POINT('',(61.8114583598254,-2.75730306052207,41.2157210311382));
#1352=CARTESIAN_POINT('Origin',(61.8114583598254,-12.1295902032699,52.3880081738859));
#1353=CARTESIAN_POINT('',(61.8114583598254,-13.9295902032699,52.3880081738859));
#1354=CARTESIAN_POINT('Origin',(61.8114583598254,-6.5434466318959,54.7018646025121));
#1355=CARTESIAN_POINT('',(61.8114583598254,-8.34344663189591,54.7018646025121));
#1356=CARTESIAN_POINT('Origin',(61.8114583598254,-0.957303060521931,52.3880081738857));
#1357=CARTESIAN_POINT('',(61.8114583598254,-2.75730306052193,52.3880081738857));
#1358=CARTESIAN_POINT('Origin',(61.8114583598254,-14.443446631896,46.8018646025122));
#1359=CARTESIAN_POINT('',(61.8114583598254,-16.243446631896,46.8018646025122));
#1360=CARTESIAN_POINT('Origin',(61.8114583598254,-6.54344663189608,38.9018646025121));
#1361=CARTESIAN_POINT('',(61.8114583598254,-8.34344663189608,38.9018646025121));
#1362=CARTESIAN_POINT('Origin',(61.8114583598254,1.35655336810402,46.8018646025119));
#1363=CARTESIAN_POINT('',(61.8114583598254,-0.443446631895986,46.8018646025119));
#1364=CARTESIAN_POINT('Origin',(61.8114583598254,9.25655336810401,46.8018646025117));
#1365=CARTESIAN_POINT('',(61.8114583598254,5.356553368104,46.8018646025117));
#1366=CARTESIAN_POINT('Origin',(61.8114583598254,17.1565533681044,58.0018646025109));
#1367=UNCERTAINTY_MEASURE_WITH_UNIT(LENGTH_MEASURE(0.01),#1371,
'DISTANCE_ACCURACY_VALUE',
'Maximum model space distance between geometric entities at asserted c
onnectivities');
#1368=UNCERTAINTY_MEASURE_WITH_UNIT(LENGTH_MEASURE(0.01),#1371,
'DISTANCE_ACCURACY_VALUE',
'Maximum model space distance between geometric entities at asserted c
onnectivities');
#1369=(
GEOMETRIC_REPRESENTATION_CONTEXT(3)
GLOBAL_UNCERTAINTY_ASSIGNED_CONTEXT((#1367))
GLOBAL_UNIT_ASSIGNED_CONTEXT((#1371,#1373,#1374))
REPRESENTATION_CONTEXT('','3D')
);
#1370=(
GEOMETRIC_REPRESENTATION_CONTEXT(3)
GLOBAL_UNCERTAINTY_ASSIGNED_CONTEXT((#1368))
GLOBAL_UNIT_ASSIGNED_CONTEXT((#1371,#1373,#1374))
REPRESENTATION_CONTEXT('','3D')
);
#1371=(
LENGTH_UNIT()
NAMED_UNIT(*)
SI_UNIT(.MILLI.,.METRE.)
);
#1372=(
LENGTH_UNIT()
NAMED_UNIT(*)
SI_UNIT($,.METRE.)
);
#1373=(
NAMED_UNIT(*)
PLANE_ANGLE_UNIT()
SI_UNIT($,.RADIAN.)
);
#1374=(
NAMED_UNIT(*)
SI_UNIT($,.STERADIAN.)
SOLID_ANGLE_UNIT()
);
#1375=SHAPE_DEFINITION_REPRESENTATION(#1376,#1377);
#1376=PRODUCT_DEFINITION_SHAPE('',$,#1379);
#1377=SHAPE_REPRESENTATION('',(#836),#1369);
#1378=PRODUCT_DEFINITION_CONTEXT('part definition',#1383,'design');
#1379=PRODUCT_DEFINITION('Assem1 final prj_Castor Mount Back',
'Assem1 final prj_Castor Mount Back v1',#1380,#1378);
#1380=PRODUCT_DEFINITION_FORMATION('',$,#1385);
#1381=PRODUCT_RELATED_PRODUCT_CATEGORY(
'Assem1 final prj_Castor Mount Back v1',
'Assem1 final prj_Castor Mount Back v1',(#1385));
#1382=APPLICATION_PROTOCOL_DEFINITION('international standard',
'automotive_design',2009,#1383);
#1383=APPLICATION_CONTEXT(
'Core Data for Automotive Mechanical Design Process');
#1384=PRODUCT_CONTEXT('part definition',#1383,'mechanical');
#1385=PRODUCT('Assem1 final prj_Castor Mount Back',
'Assem1 final prj_Castor Mount Back v1',$,(#1384));
#1386=PRESENTATION_STYLE_ASSIGNMENT((#1387));
#1387=SURFACE_STYLE_USAGE(.BOTH.,#1388);
#1388=SURFACE_SIDE_STYLE('',(#1389));
#1389=SURFACE_STYLE_FILL_AREA(#1390);
#1390=FILL_AREA_STYLE('Steel - Satin',(#1391));
#1391=FILL_AREA_STYLE_COLOUR('Steel - Satin',#1392);
#1392=COLOUR_RGB('Steel - Satin',0.627450980392157,0.627450980392157,0.627450980392157);
ENDSEC;
END-ISO-10303-21;
