ISO-10303-21;
HEADER;
/* Generated by software containing ST-Developer
 * from STEP Tools, Inc. (www.steptools.com) 
 */

FILE_DESCRIPTION(
/* description */ (''),
/* implementation_level */ '2;1');

FILE_NAME(
/* name */ 'Cam Bot Mount.step',
/* time_stamp */ '2026-03-01T00:21:02+05:30',
/* author */ (''),
/* organization */ (''),
/* preprocessor_version */ 'ST-DEVELOPER v20.1',
/* originating_system */ 'Autodesk Translation Framework v14.24.0.0',
/* authorisation */ '');

FILE_SCHEMA (('AUTOMOTIVE_DESIGN { 1 0 10303 214 3 1 1 }'));
ENDSEC;

DATA;
#10=MECHANICAL_DESIGN_GEOMETRIC_PRESENTATION_REPRESENTATION('',(#13),#1000);
#11=SHAPE_REPRESENTATION_RELATIONSHIP('SRR','None',#1007,#12);
#12=ADVANCED_BREP_SHAPE_REPRESENTATION('',(#14),#999);
#13=STYLED_ITEM('',(#1017),#14);
#14=MANIFOLD_SOLID_BREP('Cam Bot Mount',#588);
#15=FACE_BOUND('',#76,.T.);
#16=FACE_BOUND('',#79,.T.);
#17=FACE_BOUND('',#84,.T.);
#18=FACE_BOUND('',#88,.T.);
#19=FACE_BOUND('',#101,.T.);
#20=FACE_BOUND('',#104,.T.);
#21=FACE_BOUND('',#106,.T.);
#22=FACE_BOUND('',#107,.T.);
#23=FACE_BOUND('',#108,.T.);
#24=FACE_BOUND('',#109,.T.);
#25=FACE_BOUND('',#111,.T.);
#26=FACE_BOUND('',#112,.T.);
#27=FACE_BOUND('',#113,.T.);
#28=FACE_BOUND('',#114,.T.);
#29=PLANE('',#605);
#30=PLANE('',#609);
#31=PLANE('',#616);
#32=PLANE('',#621);
#33=PLANE('',#624);
#34=PLANE('',#630);
#35=PLANE('',#631);
#36=PLANE('',#636);
#37=PLANE('',#638);
#38=PLANE('',#656);
#39=PLANE('',#657);
#40=PLANE('',#658);
#41=PLANE('',#659);
#42=PLANE('',#660);
#43=FACE_OUTER_BOUND('',#72,.T.);
#44=FACE_OUTER_BOUND('',#73,.T.);
#45=FACE_OUTER_BOUND('',#74,.T.);
#46=FACE_OUTER_BOUND('',#75,.T.);
#47=FACE_OUTER_BOUND('',#77,.T.);
#48=FACE_OUTER_BOUND('',#78,.T.);
#49=FACE_OUTER_BOUND('',#80,.T.);
#50=FACE_OUTER_BOUND('',#81,.T.);
#51=FACE_OUTER_BOUND('',#82,.T.);
#52=FACE_OUTER_BOUND('',#83,.T.);
#53=FACE_OUTER_BOUND('',#85,.T.);
#54=FACE_OUTER_BOUND('',#86,.T.);
#55=FACE_OUTER_BOUND('',#87,.T.);
#56=FACE_OUTER_BOUND('',#89,.T.);
#57=FACE_OUTER_BOUND('',#90,.T.);
#58=FACE_OUTER_BOUND('',#91,.T.);
#59=FACE_OUTER_BOUND('',#92,.T.);
#60=FACE_OUTER_BOUND('',#93,.T.);
#61=FACE_OUTER_BOUND('',#94,.T.);
#62=FACE_OUTER_BOUND('',#95,.T.);
#63=FACE_OUTER_BOUND('',#96,.T.);
#64=FACE_OUTER_BOUND('',#97,.T.);
#65=FACE_OUTER_BOUND('',#98,.T.);
#66=FACE_OUTER_BOUND('',#99,.T.);
#67=FACE_OUTER_BOUND('',#100,.T.);
#68=FACE_OUTER_BOUND('',#102,.T.);
#69=FACE_OUTER_BOUND('',#103,.T.);
#70=FACE_OUTER_BOUND('',#105,.T.);
#71=FACE_OUTER_BOUND('',#110,.T.);
#72=EDGE_LOOP('',(#382,#383,#384,#385));
#73=EDGE_LOOP('',(#386,#387,#388,#389));
#74=EDGE_LOOP('',(#390,#391,#392,#393));
#75=EDGE_LOOP('',(#394,#395,#396,#397,#398,#399));
#76=EDGE_LOOP('',(#400));
#77=EDGE_LOOP('',(#401,#402,#403,#404));
#78=EDGE_LOOP('',(#405,#406,#407,#408,#409,#410,#411,#412,#413,#414));
#79=EDGE_LOOP('',(#415,#416,#417,#418));
#80=EDGE_LOOP('',(#419,#420,#421,#422));
#81=EDGE_LOOP('',(#423,#424,#425,#426));
#82=EDGE_LOOP('',(#427,#428,#429,#430));
#83=EDGE_LOOP('',(#431,#432,#433,#434,#435,#436,#437,#438,#439,#440));
#84=EDGE_LOOP('',(#441,#442,#443,#444));
#85=EDGE_LOOP('',(#445,#446,#447,#448));
#86=EDGE_LOOP('',(#449,#450,#451,#452));
#87=EDGE_LOOP('',(#453,#454,#455,#456,#457,#458));
#88=EDGE_LOOP('',(#459));
#89=EDGE_LOOP('',(#460,#461,#462,#463));
#90=EDGE_LOOP('',(#464,#465,#466,#467));
#91=EDGE_LOOP('',(#468,#469,#470,#471));
#92=EDGE_LOOP('',(#472,#473,#474,#475));
#93=EDGE_LOOP('',(#476,#477,#478,#479));
#94=EDGE_LOOP('',(#480,#481,#482,#483));
#95=EDGE_LOOP('',(#484,#485,#486,#487));
#96=EDGE_LOOP('',(#488,#489,#490,#491));
#97=EDGE_LOOP('',(#492,#493,#494,#495));
#98=EDGE_LOOP('',(#496,#497,#498,#499));
#99=EDGE_LOOP('',(#500,#501,#502,#503));
#100=EDGE_LOOP('',(#504,#505,#506,#507,#508,#509,#510,#511,#512));
#101=EDGE_LOOP('',(#513));
#102=EDGE_LOOP('',(#514,#515,#516,#517));
#103=EDGE_LOOP('',(#518,#519,#520,#521,#522,#523,#524,#525,#526));
#104=EDGE_LOOP('',(#527));
#105=EDGE_LOOP('',(#528,#529,#530,#531));
#106=EDGE_LOOP('',(#532));
#107=EDGE_LOOP('',(#533));
#108=EDGE_LOOP('',(#534));
#109=EDGE_LOOP('',(#535));
#110=EDGE_LOOP('',(#536,#537,#538,#539));
#111=EDGE_LOOP('',(#540));
#112=EDGE_LOOP('',(#541));
#113=EDGE_LOOP('',(#542));
#114=EDGE_LOOP('',(#543));
#115=LINE('',#838,#166);
#116=LINE('',#841,#167);
#117=LINE('',#844,#168);
#118=LINE('',#846,#169);
#119=LINE('',#847,#170);
#120=LINE('',#852,#171);
#121=LINE('',#856,#172);
#122=LINE('',#860,#173);
#123=LINE('',#863,#174);
#124=LINE('',#871,#175);
#125=LINE('',#874,#176);
#126=LINE('',#877,#177);
#127=LINE('',#879,#178);
#128=LINE('',#880,#179);
#129=LINE('',#882,#180);
#130=LINE('',#883,#181);
#131=LINE('',#886,#182);
#132=LINE('',#890,#183);
#133=LINE('',#895,#184);
#134=LINE('',#898,#185);
#135=LINE('',#899,#186);
#136=LINE('',#903,#187);
#137=LINE('',#906,#188);
#138=LINE('',#908,#189);
#139=LINE('',#910,#190);
#140=LINE('',#912,#191);
#141=LINE('',#913,#192);
#142=LINE('',#916,#193);
#143=LINE('',#920,#194);
#144=LINE('',#927,#195);
#145=LINE('',#930,#196);
#146=LINE('',#932,#197);
#147=LINE('',#933,#198);
#148=LINE('',#941,#199);
#149=LINE('',#942,#200);
#150=LINE('',#944,#201);
#151=LINE('',#946,#202);
#152=LINE('',#950,#203);
#153=LINE('',#955,#204);
#154=LINE('',#960,#205);
#155=LINE('',#966,#206);
#156=LINE('',#972,#207);
#157=LINE('',#978,#208);
#158=LINE('',#982,#209);
#159=LINE('',#984,#210);
#160=LINE('',#985,#211);
#161=LINE('',#988,#212);
#162=LINE('',#990,#213);
#163=LINE('',#991,#214);
#164=LINE('',#993,#215);
#165=LINE('',#994,#216);
#166=VECTOR('',#667,10.);
#167=VECTOR('',#670,10.);
#168=VECTOR('',#673,10.);
#169=VECTOR('',#674,10.);
#170=VECTOR('',#675,10.);
#171=VECTOR('',#680,10.);
#172=VECTOR('',#685,10.);
#173=VECTOR('',#688,10.);
#174=VECTOR('',#691,10.);
#175=VECTOR('',#698,10.);
#176=VECTOR('',#701,10.);
#177=VECTOR('',#704,10.);
#178=VECTOR('',#705,10.);
#179=VECTOR('',#706,10.);
#180=VECTOR('',#707,10.);
#181=VECTOR('',#708,10.);
#182=VECTOR('',#709,10.);
#183=VECTOR('',#712,10.);
#184=VECTOR('',#719,10.);
#185=VECTOR('',#722,10.);
#186=VECTOR('',#723,10.);
#187=VECTOR('',#728,10.);
#188=VECTOR('',#731,10.);
#189=VECTOR('',#732,10.);
#190=VECTOR('',#733,10.);
#191=VECTOR('',#734,10.);
#192=VECTOR('',#735,10.);
#193=VECTOR('',#736,10.);
#194=VECTOR('',#739,10.);
#195=VECTOR('',#748,10.);
#196=VECTOR('',#751,10.);
#197=VECTOR('',#752,10.);
#198=VECTOR('',#753,10.);
#199=VECTOR('',#766,10.);
#200=VECTOR('',#767,10.);
#201=VECTOR('',#770,10.);
#202=VECTOR('',#773,10.);
#203=VECTOR('',#778,1.70000000000002);
#204=VECTOR('',#785,1.70000000000002);
#205=VECTOR('',#790,2.2);
#206=VECTOR('',#797,2.2);
#207=VECTOR('',#804,2.2);
#208=VECTOR('',#811,2.2);
#209=VECTOR('',#816,10.);
#210=VECTOR('',#817,10.);
#211=VECTOR('',#818,10.);
#212=VECTOR('',#821,10.);
#213=VECTOR('',#822,10.);
#214=VECTOR('',#823,10.);
#215=VECTOR('',#826,10.);
#216=VECTOR('',#827,10.);
#217=CIRCLE('',#603,2.);
#218=CIRCLE('',#604,2.);
#219=CIRCLE('',#607,2.);
#220=CIRCLE('',#608,2.);
#221=CIRCLE('',#610,3.5);
#222=CIRCLE('',#611,3.5);
#223=CIRCLE('',#612,1.70000000000002);
#224=CIRCLE('',#614,3.);
#225=CIRCLE('',#615,3.);
#226=CIRCLE('',#617,1.65);
#227=CIRCLE('',#618,1.65);
#228=CIRCLE('',#620,3.5);
#229=CIRCLE('',#623,3.5);
#230=CIRCLE('',#625,1.65);
#231=CIRCLE('',#626,1.65);
#232=CIRCLE('',#628,3.5);
#233=CIRCLE('',#629,3.5);
#234=CIRCLE('',#632,3.5);
#235=CIRCLE('',#633,1.70000000000002);
#236=CIRCLE('',#635,3.5);
#237=CIRCLE('',#641,1.70000000000002);
#238=CIRCLE('',#643,1.70000000000002);
#239=CIRCLE('',#645,2.2);
#240=CIRCLE('',#646,2.2);
#241=CIRCLE('',#648,2.2);
#242=CIRCLE('',#649,2.2);
#243=CIRCLE('',#651,2.2);
#244=CIRCLE('',#652,2.2);
#245=CIRCLE('',#654,2.2);
#246=CIRCLE('',#655,2.2);
#247=VERTEX_POINT('',#834);
#248=VERTEX_POINT('',#835);
#249=VERTEX_POINT('',#837);
#250=VERTEX_POINT('',#839);
#251=VERTEX_POINT('',#843);
#252=VERTEX_POINT('',#845);
#253=VERTEX_POINT('',#849);
#254=VERTEX_POINT('',#851);
#255=VERTEX_POINT('',#855);
#256=VERTEX_POINT('',#857);
#257=VERTEX_POINT('',#859);
#258=VERTEX_POINT('',#861);
#259=VERTEX_POINT('',#864);
#260=VERTEX_POINT('',#867);
#261=VERTEX_POINT('',#868);
#262=VERTEX_POINT('',#870);
#263=VERTEX_POINT('',#872);
#264=VERTEX_POINT('',#876);
#265=VERTEX_POINT('',#878);
#266=VERTEX_POINT('',#881);
#267=VERTEX_POINT('',#884);
#268=VERTEX_POINT('',#885);
#269=VERTEX_POINT('',#887);
#270=VERTEX_POINT('',#889);
#271=VERTEX_POINT('',#893);
#272=VERTEX_POINT('',#897);
#273=VERTEX_POINT('',#901);
#274=VERTEX_POINT('',#905);
#275=VERTEX_POINT('',#907);
#276=VERTEX_POINT('',#909);
#277=VERTEX_POINT('',#911);
#278=VERTEX_POINT('',#914);
#279=VERTEX_POINT('',#915);
#280=VERTEX_POINT('',#917);
#281=VERTEX_POINT('',#919);
#282=VERTEX_POINT('',#923);
#283=VERTEX_POINT('',#925);
#284=VERTEX_POINT('',#929);
#285=VERTEX_POINT('',#931);
#286=VERTEX_POINT('',#936);
#287=VERTEX_POINT('',#949);
#288=VERTEX_POINT('',#953);
#289=VERTEX_POINT('',#957);
#290=VERTEX_POINT('',#959);
#291=VERTEX_POINT('',#963);
#292=VERTEX_POINT('',#965);
#293=VERTEX_POINT('',#969);
#294=VERTEX_POINT('',#971);
#295=VERTEX_POINT('',#975);
#296=VERTEX_POINT('',#977);
#297=VERTEX_POINT('',#981);
#298=VERTEX_POINT('',#983);
#299=VERTEX_POINT('',#987);
#300=VERTEX_POINT('',#989);
#301=EDGE_CURVE('',#247,#248,#217,.T.);
#302=EDGE_CURVE('',#248,#249,#115,.T.);
#303=EDGE_CURVE('',#249,#250,#218,.T.);
#304=EDGE_CURVE('',#250,#247,#116,.T.);
#305=EDGE_CURVE('',#251,#248,#117,.T.);
#306=EDGE_CURVE('',#252,#251,#118,.T.);
#307=EDGE_CURVE('',#249,#252,#119,.T.);
#308=EDGE_CURVE('',#251,#253,#219,.T.);
#309=EDGE_CURVE('',#253,#254,#120,.T.);
#310=EDGE_CURVE('',#254,#252,#220,.T.);
#311=EDGE_CURVE('',#255,#253,#121,.T.);
#312=EDGE_CURVE('',#256,#255,#221,.T.);
#313=EDGE_CURVE('',#257,#256,#122,.T.);
#314=EDGE_CURVE('',#258,#257,#222,.T.);
#315=EDGE_CURVE('',#254,#258,#123,.T.);
#316=EDGE_CURVE('',#259,#259,#223,.T.);
#317=EDGE_CURVE('',#260,#261,#224,.T.);
#318=EDGE_CURVE('',#261,#262,#124,.T.);
#319=EDGE_CURVE('',#262,#263,#225,.T.);
#320=EDGE_CURVE('',#263,#260,#125,.T.);
#321=EDGE_CURVE('',#261,#264,#126,.T.);
#322=EDGE_CURVE('',#265,#264,#127,.T.);
#323=EDGE_CURVE('',#265,#250,#128,.T.);
#324=EDGE_CURVE('',#266,#258,#129,.T.);
#325=EDGE_CURVE('',#262,#266,#130,.T.);
#326=EDGE_CURVE('',#267,#268,#131,.T.);
#327=EDGE_CURVE('',#268,#269,#226,.T.);
#328=EDGE_CURVE('',#269,#270,#132,.T.);
#329=EDGE_CURVE('',#270,#267,#227,.T.);
#330=EDGE_CURVE('',#271,#266,#228,.T.);
#331=EDGE_CURVE('',#257,#271,#133,.T.);
#332=EDGE_CURVE('',#272,#256,#134,.T.);
#333=EDGE_CURVE('',#272,#271,#135,.T.);
#334=EDGE_CURVE('',#273,#272,#229,.T.);
#335=EDGE_CURVE('',#255,#273,#136,.T.);
#336=EDGE_CURVE('',#247,#274,#137,.T.);
#337=EDGE_CURVE('',#275,#274,#138,.T.);
#338=EDGE_CURVE('',#276,#275,#139,.F.);
#339=EDGE_CURVE('',#277,#276,#140,.T.);
#340=EDGE_CURVE('',#277,#273,#141,.T.);
#341=EDGE_CURVE('',#278,#279,#142,.T.);
#342=EDGE_CURVE('',#279,#280,#230,.T.);
#343=EDGE_CURVE('',#280,#281,#143,.T.);
#344=EDGE_CURVE('',#281,#278,#231,.T.);
#345=EDGE_CURVE('',#282,#275,#232,.T.);
#346=EDGE_CURVE('',#274,#283,#233,.T.);
#347=EDGE_CURVE('',#283,#282,#144,.T.);
#348=EDGE_CURVE('',#283,#284,#145,.T.);
#349=EDGE_CURVE('',#285,#284,#146,.T.);
#350=EDGE_CURVE('',#285,#282,#147,.T.);
#351=EDGE_CURVE('',#284,#265,#234,.T.);
#352=EDGE_CURVE('',#286,#286,#235,.T.);
#353=EDGE_CURVE('',#264,#285,#236,.T.);
#354=EDGE_CURVE('',#270,#280,#148,.T.);
#355=EDGE_CURVE('',#269,#281,#149,.T.);
#356=EDGE_CURVE('',#268,#278,#150,.T.);
#357=EDGE_CURVE('',#267,#279,#151,.T.);
#358=EDGE_CURVE('',#259,#287,#152,.T.);
#359=EDGE_CURVE('',#287,#287,#237,.T.);
#360=EDGE_CURVE('',#288,#288,#238,.T.);
#361=EDGE_CURVE('',#288,#286,#153,.T.);
#362=EDGE_CURVE('',#289,#289,#239,.T.);
#363=EDGE_CURVE('',#289,#290,#154,.T.);
#364=EDGE_CURVE('',#290,#290,#240,.T.);
#365=EDGE_CURVE('',#291,#291,#241,.T.);
#366=EDGE_CURVE('',#291,#292,#155,.T.);
#367=EDGE_CURVE('',#292,#292,#242,.T.);
#368=EDGE_CURVE('',#293,#293,#243,.T.);
#369=EDGE_CURVE('',#293,#294,#156,.T.);
#370=EDGE_CURVE('',#294,#294,#244,.T.);
#371=EDGE_CURVE('',#295,#295,#245,.T.);
#372=EDGE_CURVE('',#295,#296,#157,.T.);
#373=EDGE_CURVE('',#296,#296,#246,.T.);
#374=EDGE_CURVE('',#297,#260,#158,.T.);
#375=EDGE_CURVE('',#298,#297,#159,.T.);
#376=EDGE_CURVE('',#276,#298,#160,.T.);
#377=EDGE_CURVE('',#299,#298,#161,.T.);
#378=EDGE_CURVE('',#300,#297,#162,.T.);
#379=EDGE_CURVE('',#299,#300,#163,.T.);
#380=EDGE_CURVE('',#277,#299,#164,.T.);
#381=EDGE_CURVE('',#263,#300,#165,.T.);
#382=ORIENTED_EDGE('',*,*,#301,.T.);
#383=ORIENTED_EDGE('',*,*,#302,.T.);
#384=ORIENTED_EDGE('',*,*,#303,.T.);
#385=ORIENTED_EDGE('',*,*,#304,.T.);
#386=ORIENTED_EDGE('',*,*,#302,.F.);
#387=ORIENTED_EDGE('',*,*,#305,.F.);
#388=ORIENTED_EDGE('',*,*,#306,.F.);
#389=ORIENTED_EDGE('',*,*,#307,.F.);
#390=ORIENTED_EDGE('',*,*,#308,.T.);
#391=ORIENTED_EDGE('',*,*,#309,.T.);
#392=ORIENTED_EDGE('',*,*,#310,.T.);
#393=ORIENTED_EDGE('',*,*,#306,.T.);
#394=ORIENTED_EDGE('',*,*,#309,.F.);
#395=ORIENTED_EDGE('',*,*,#311,.F.);
#396=ORIENTED_EDGE('',*,*,#312,.F.);
#397=ORIENTED_EDGE('',*,*,#313,.F.);
#398=ORIENTED_EDGE('',*,*,#314,.F.);
#399=ORIENTED_EDGE('',*,*,#315,.F.);
#400=ORIENTED_EDGE('',*,*,#316,.T.);
#401=ORIENTED_EDGE('',*,*,#317,.T.);
#402=ORIENTED_EDGE('',*,*,#318,.T.);
#403=ORIENTED_EDGE('',*,*,#319,.T.);
#404=ORIENTED_EDGE('',*,*,#320,.T.);
#405=ORIENTED_EDGE('',*,*,#318,.F.);
#406=ORIENTED_EDGE('',*,*,#321,.T.);
#407=ORIENTED_EDGE('',*,*,#322,.F.);
#408=ORIENTED_EDGE('',*,*,#323,.T.);
#409=ORIENTED_EDGE('',*,*,#303,.F.);
#410=ORIENTED_EDGE('',*,*,#307,.T.);
#411=ORIENTED_EDGE('',*,*,#310,.F.);
#412=ORIENTED_EDGE('',*,*,#315,.T.);
#413=ORIENTED_EDGE('',*,*,#324,.F.);
#414=ORIENTED_EDGE('',*,*,#325,.F.);
#415=ORIENTED_EDGE('',*,*,#326,.T.);
#416=ORIENTED_EDGE('',*,*,#327,.T.);
#417=ORIENTED_EDGE('',*,*,#328,.T.);
#418=ORIENTED_EDGE('',*,*,#329,.T.);
#419=ORIENTED_EDGE('',*,*,#330,.T.);
#420=ORIENTED_EDGE('',*,*,#324,.T.);
#421=ORIENTED_EDGE('',*,*,#314,.T.);
#422=ORIENTED_EDGE('',*,*,#331,.T.);
#423=ORIENTED_EDGE('',*,*,#331,.F.);
#424=ORIENTED_EDGE('',*,*,#313,.T.);
#425=ORIENTED_EDGE('',*,*,#332,.F.);
#426=ORIENTED_EDGE('',*,*,#333,.T.);
#427=ORIENTED_EDGE('',*,*,#334,.T.);
#428=ORIENTED_EDGE('',*,*,#332,.T.);
#429=ORIENTED_EDGE('',*,*,#312,.T.);
#430=ORIENTED_EDGE('',*,*,#335,.T.);
#431=ORIENTED_EDGE('',*,*,#335,.F.);
#432=ORIENTED_EDGE('',*,*,#311,.T.);
#433=ORIENTED_EDGE('',*,*,#308,.F.);
#434=ORIENTED_EDGE('',*,*,#305,.T.);
#435=ORIENTED_EDGE('',*,*,#301,.F.);
#436=ORIENTED_EDGE('',*,*,#336,.T.);
#437=ORIENTED_EDGE('',*,*,#337,.F.);
#438=ORIENTED_EDGE('',*,*,#338,.F.);
#439=ORIENTED_EDGE('',*,*,#339,.F.);
#440=ORIENTED_EDGE('',*,*,#340,.T.);
#441=ORIENTED_EDGE('',*,*,#341,.T.);
#442=ORIENTED_EDGE('',*,*,#342,.T.);
#443=ORIENTED_EDGE('',*,*,#343,.T.);
#444=ORIENTED_EDGE('',*,*,#344,.T.);
#445=ORIENTED_EDGE('',*,*,#345,.T.);
#446=ORIENTED_EDGE('',*,*,#337,.T.);
#447=ORIENTED_EDGE('',*,*,#346,.T.);
#448=ORIENTED_EDGE('',*,*,#347,.T.);
#449=ORIENTED_EDGE('',*,*,#347,.F.);
#450=ORIENTED_EDGE('',*,*,#348,.T.);
#451=ORIENTED_EDGE('',*,*,#349,.F.);
#452=ORIENTED_EDGE('',*,*,#350,.T.);
#453=ORIENTED_EDGE('',*,*,#304,.F.);
#454=ORIENTED_EDGE('',*,*,#323,.F.);
#455=ORIENTED_EDGE('',*,*,#351,.F.);
#456=ORIENTED_EDGE('',*,*,#348,.F.);
#457=ORIENTED_EDGE('',*,*,#346,.F.);
#458=ORIENTED_EDGE('',*,*,#336,.F.);
#459=ORIENTED_EDGE('',*,*,#352,.T.);
#460=ORIENTED_EDGE('',*,*,#353,.T.);
#461=ORIENTED_EDGE('',*,*,#349,.T.);
#462=ORIENTED_EDGE('',*,*,#351,.T.);
#463=ORIENTED_EDGE('',*,*,#322,.T.);
#464=ORIENTED_EDGE('',*,*,#343,.F.);
#465=ORIENTED_EDGE('',*,*,#354,.F.);
#466=ORIENTED_EDGE('',*,*,#328,.F.);
#467=ORIENTED_EDGE('',*,*,#355,.T.);
#468=ORIENTED_EDGE('',*,*,#344,.F.);
#469=ORIENTED_EDGE('',*,*,#355,.F.);
#470=ORIENTED_EDGE('',*,*,#327,.F.);
#471=ORIENTED_EDGE('',*,*,#356,.T.);
#472=ORIENTED_EDGE('',*,*,#341,.F.);
#473=ORIENTED_EDGE('',*,*,#356,.F.);
#474=ORIENTED_EDGE('',*,*,#326,.F.);
#475=ORIENTED_EDGE('',*,*,#357,.T.);
#476=ORIENTED_EDGE('',*,*,#342,.F.);
#477=ORIENTED_EDGE('',*,*,#357,.F.);
#478=ORIENTED_EDGE('',*,*,#329,.F.);
#479=ORIENTED_EDGE('',*,*,#354,.T.);
#480=ORIENTED_EDGE('',*,*,#316,.F.);
#481=ORIENTED_EDGE('',*,*,#358,.T.);
#482=ORIENTED_EDGE('',*,*,#359,.F.);
#483=ORIENTED_EDGE('',*,*,#358,.F.);
#484=ORIENTED_EDGE('',*,*,#360,.F.);
#485=ORIENTED_EDGE('',*,*,#361,.T.);
#486=ORIENTED_EDGE('',*,*,#352,.F.);
#487=ORIENTED_EDGE('',*,*,#361,.F.);
#488=ORIENTED_EDGE('',*,*,#362,.F.);
#489=ORIENTED_EDGE('',*,*,#363,.T.);
#490=ORIENTED_EDGE('',*,*,#364,.T.);
#491=ORIENTED_EDGE('',*,*,#363,.F.);
#492=ORIENTED_EDGE('',*,*,#365,.F.);
#493=ORIENTED_EDGE('',*,*,#366,.T.);
#494=ORIENTED_EDGE('',*,*,#367,.T.);
#495=ORIENTED_EDGE('',*,*,#366,.F.);
#496=ORIENTED_EDGE('',*,*,#368,.F.);
#497=ORIENTED_EDGE('',*,*,#369,.T.);
#498=ORIENTED_EDGE('',*,*,#370,.T.);
#499=ORIENTED_EDGE('',*,*,#369,.F.);
#500=ORIENTED_EDGE('',*,*,#371,.F.);
#501=ORIENTED_EDGE('',*,*,#372,.T.);
#502=ORIENTED_EDGE('',*,*,#373,.T.);
#503=ORIENTED_EDGE('',*,*,#372,.F.);
#504=ORIENTED_EDGE('',*,*,#345,.F.);
#505=ORIENTED_EDGE('',*,*,#350,.F.);
#506=ORIENTED_EDGE('',*,*,#353,.F.);
#507=ORIENTED_EDGE('',*,*,#321,.F.);
#508=ORIENTED_EDGE('',*,*,#317,.F.);
#509=ORIENTED_EDGE('',*,*,#374,.F.);
#510=ORIENTED_EDGE('',*,*,#375,.F.);
#511=ORIENTED_EDGE('',*,*,#376,.F.);
#512=ORIENTED_EDGE('',*,*,#338,.T.);
#513=ORIENTED_EDGE('',*,*,#360,.T.);
#514=ORIENTED_EDGE('',*,*,#377,.T.);
#515=ORIENTED_EDGE('',*,*,#375,.T.);
#516=ORIENTED_EDGE('',*,*,#378,.F.);
#517=ORIENTED_EDGE('',*,*,#379,.F.);
#518=ORIENTED_EDGE('',*,*,#330,.F.);
#519=ORIENTED_EDGE('',*,*,#333,.F.);
#520=ORIENTED_EDGE('',*,*,#334,.F.);
#521=ORIENTED_EDGE('',*,*,#340,.F.);
#522=ORIENTED_EDGE('',*,*,#380,.T.);
#523=ORIENTED_EDGE('',*,*,#379,.T.);
#524=ORIENTED_EDGE('',*,*,#381,.F.);
#525=ORIENTED_EDGE('',*,*,#319,.F.);
#526=ORIENTED_EDGE('',*,*,#325,.T.);
#527=ORIENTED_EDGE('',*,*,#359,.T.);
#528=ORIENTED_EDGE('',*,*,#320,.F.);
#529=ORIENTED_EDGE('',*,*,#381,.T.);
#530=ORIENTED_EDGE('',*,*,#378,.T.);
#531=ORIENTED_EDGE('',*,*,#374,.T.);
#532=ORIENTED_EDGE('',*,*,#371,.T.);
#533=ORIENTED_EDGE('',*,*,#368,.T.);
#534=ORIENTED_EDGE('',*,*,#365,.T.);
#535=ORIENTED_EDGE('',*,*,#362,.T.);
#536=ORIENTED_EDGE('',*,*,#380,.F.);
#537=ORIENTED_EDGE('',*,*,#339,.T.);
#538=ORIENTED_EDGE('',*,*,#376,.T.);
#539=ORIENTED_EDGE('',*,*,#377,.F.);
#540=ORIENTED_EDGE('',*,*,#373,.F.);
#541=ORIENTED_EDGE('',*,*,#370,.F.);
#542=ORIENTED_EDGE('',*,*,#367,.F.);
#543=ORIENTED_EDGE('',*,*,#364,.F.);
#544=CYLINDRICAL_SURFACE('',#602,2.);
#545=CYLINDRICAL_SURFACE('',#606,2.);
#546=CYLINDRICAL_SURFACE('',#613,3.);
#547=CYLINDRICAL_SURFACE('',#619,3.5);
#548=CYLINDRICAL_SURFACE('',#622,3.5);
#549=CYLINDRICAL_SURFACE('',#627,3.5);
#550=CYLINDRICAL_SURFACE('',#634,3.5);
#551=CYLINDRICAL_SURFACE('',#637,1.65);
#552=CYLINDRICAL_SURFACE('',#639,1.65);
#553=CYLINDRICAL_SURFACE('',#640,1.70000000000002);
#554=CYLINDRICAL_SURFACE('',#642,1.70000000000002);
#555=CYLINDRICAL_SURFACE('',#644,2.2);
#556=CYLINDRICAL_SURFACE('',#647,2.2);
#557=CYLINDRICAL_SURFACE('',#650,2.2);
#558=CYLINDRICAL_SURFACE('',#653,2.2);
#559=ADVANCED_FACE('',(#43),#544,.F.);
#560=ADVANCED_FACE('',(#44),#29,.F.);
#561=ADVANCED_FACE('',(#45),#545,.F.);
#562=ADVANCED_FACE('',(#46,#15),#30,.F.);
#563=ADVANCED_FACE('',(#47),#546,.F.);
#564=ADVANCED_FACE('',(#48,#16),#31,.T.);
#565=ADVANCED_FACE('',(#49),#547,.T.);
#566=ADVANCED_FACE('',(#50),#32,.T.);
#567=ADVANCED_FACE('',(#51),#548,.T.);
#568=ADVANCED_FACE('',(#52,#17),#33,.T.);
#569=ADVANCED_FACE('',(#53),#549,.T.);
#570=ADVANCED_FACE('',(#54),#34,.T.);
#571=ADVANCED_FACE('',(#55,#18),#35,.F.);
#572=ADVANCED_FACE('',(#56),#550,.T.);
#573=ADVANCED_FACE('',(#57),#36,.F.);
#574=ADVANCED_FACE('',(#58),#551,.F.);
#575=ADVANCED_FACE('',(#59),#37,.F.);
#576=ADVANCED_FACE('',(#60),#552,.F.);
#577=ADVANCED_FACE('',(#61),#553,.F.);
#578=ADVANCED_FACE('',(#62),#554,.F.);
#579=ADVANCED_FACE('',(#63),#555,.F.);
#580=ADVANCED_FACE('',(#64),#556,.F.);
#581=ADVANCED_FACE('',(#65),#557,.F.);
#582=ADVANCED_FACE('',(#66),#558,.F.);
#583=ADVANCED_FACE('',(#67,#19),#38,.T.);
#584=ADVANCED_FACE('',(#68),#39,.T.);
#585=ADVANCED_FACE('',(#69,#20),#40,.T.);
#586=ADVANCED_FACE('',(#70,#21,#22,#23,#24),#41,.T.);
#587=ADVANCED_FACE('',(#71,#25,#26,#27,#28),#42,.F.);
#588=CLOSED_SHELL('',(#559,#560,#561,#562,#563,#564,#565,#566,#567,#568,
#569,#570,#571,#572,#573,#574,#575,#576,#577,#578,#579,#580,#581,#582,#583,
#584,#585,#586,#587));
#589=DERIVED_UNIT_ELEMENT(#591,1.);
#590=DERIVED_UNIT_ELEMENT(#1002,-3.);
#591=(
MASS_UNIT()
NAMED_UNIT(*)
SI_UNIT(.KILO.,.GRAM.)
);
#592=DERIVED_UNIT((#589,#590));
#593=MEASURE_REPRESENTATION_ITEM('density measure',
POSITIVE_RATIO_MEASURE(7850.),#592);
#594=PROPERTY_DEFINITION_REPRESENTATION(#599,#596);
#595=PROPERTY_DEFINITION_REPRESENTATION(#600,#597);
#596=REPRESENTATION('material name',(#598),#999);
#597=REPRESENTATION('density',(#593),#999);
#598=DESCRIPTIVE_REPRESENTATION_ITEM('Steel','Steel');
#599=PROPERTY_DEFINITION('material property','material name',#1009);
#600=PROPERTY_DEFINITION('material property','density of part',#1009);
#601=AXIS2_PLACEMENT_3D('',#832,#661,#662);
#602=AXIS2_PLACEMENT_3D('',#833,#663,#664);
#603=AXIS2_PLACEMENT_3D('',#836,#665,#666);
#604=AXIS2_PLACEMENT_3D('',#840,#668,#669);
#605=AXIS2_PLACEMENT_3D('',#842,#671,#672);
#606=AXIS2_PLACEMENT_3D('',#848,#676,#677);
#607=AXIS2_PLACEMENT_3D('',#850,#678,#679);
#608=AXIS2_PLACEMENT_3D('',#853,#681,#682);
#609=AXIS2_PLACEMENT_3D('',#854,#683,#684);
#610=AXIS2_PLACEMENT_3D('',#858,#686,#687);
#611=AXIS2_PLACEMENT_3D('',#862,#689,#690);
#612=AXIS2_PLACEMENT_3D('',#865,#692,#693);
#613=AXIS2_PLACEMENT_3D('',#866,#694,#695);
#614=AXIS2_PLACEMENT_3D('',#869,#696,#697);
#615=AXIS2_PLACEMENT_3D('',#873,#699,#700);
#616=AXIS2_PLACEMENT_3D('',#875,#702,#703);
#617=AXIS2_PLACEMENT_3D('',#888,#710,#711);
#618=AXIS2_PLACEMENT_3D('',#891,#713,#714);
#619=AXIS2_PLACEMENT_3D('',#892,#715,#716);
#620=AXIS2_PLACEMENT_3D('',#894,#717,#718);
#621=AXIS2_PLACEMENT_3D('',#896,#720,#721);
#622=AXIS2_PLACEMENT_3D('',#900,#724,#725);
#623=AXIS2_PLACEMENT_3D('',#902,#726,#727);
#624=AXIS2_PLACEMENT_3D('',#904,#729,#730);
#625=AXIS2_PLACEMENT_3D('',#918,#737,#738);
#626=AXIS2_PLACEMENT_3D('',#921,#740,#741);
#627=AXIS2_PLACEMENT_3D('',#922,#742,#743);
#628=AXIS2_PLACEMENT_3D('',#924,#744,#745);
#629=AXIS2_PLACEMENT_3D('',#926,#746,#747);
#630=AXIS2_PLACEMENT_3D('',#928,#749,#750);
#631=AXIS2_PLACEMENT_3D('',#934,#754,#755);
#632=AXIS2_PLACEMENT_3D('',#935,#756,#757);
#633=AXIS2_PLACEMENT_3D('',#937,#758,#759);
#634=AXIS2_PLACEMENT_3D('',#938,#760,#761);
#635=AXIS2_PLACEMENT_3D('',#939,#762,#763);
#636=AXIS2_PLACEMENT_3D('',#940,#764,#765);
#637=AXIS2_PLACEMENT_3D('',#943,#768,#769);
#638=AXIS2_PLACEMENT_3D('',#945,#771,#772);
#639=AXIS2_PLACEMENT_3D('',#947,#774,#775);
#640=AXIS2_PLACEMENT_3D('',#948,#776,#777);
#641=AXIS2_PLACEMENT_3D('',#951,#779,#780);
#642=AXIS2_PLACEMENT_3D('',#952,#781,#782);
#643=AXIS2_PLACEMENT_3D('',#954,#783,#784);
#644=AXIS2_PLACEMENT_3D('',#956,#786,#787);
#645=AXIS2_PLACEMENT_3D('',#958,#788,#789);
#646=AXIS2_PLACEMENT_3D('',#961,#791,#792);
#647=AXIS2_PLACEMENT_3D('',#962,#793,#794);
#648=AXIS2_PLACEMENT_3D('',#964,#795,#796);
#649=AXIS2_PLACEMENT_3D('',#967,#798,#799);
#650=AXIS2_PLACEMENT_3D('',#968,#800,#801);
#651=AXIS2_PLACEMENT_3D('',#970,#802,#803);
#652=AXIS2_PLACEMENT_3D('',#973,#805,#806);
#653=AXIS2_PLACEMENT_3D('',#974,#807,#808);
#654=AXIS2_PLACEMENT_3D('',#976,#809,#810);
#655=AXIS2_PLACEMENT_3D('',#979,#812,#813);
#656=AXIS2_PLACEMENT_3D('',#980,#814,#815);
#657=AXIS2_PLACEMENT_3D('',#986,#819,#820);
#658=AXIS2_PLACEMENT_3D('',#992,#824,#825);
#659=AXIS2_PLACEMENT_3D('',#995,#828,#829);
#660=AXIS2_PLACEMENT_3D('',#996,#830,#831);
#661=DIRECTION('axis',(0.,0.,1.));
#662=DIRECTION('refdir',(1.,0.,0.));
#663=DIRECTION('center_axis',(0.,-1.,0.));
#664=DIRECTION('ref_axis',(0.707106781186566,0.,-0.707106781186529));
#665=DIRECTION('center_axis',(0.,1.,0.));
#666=DIRECTION('ref_axis',(0.707106781186566,0.,-0.707106781186529));
#667=DIRECTION('',(0.,-1.,0.));
#668=DIRECTION('center_axis',(0.,-1.,0.));
#669=DIRECTION('ref_axis',(0.707106781186566,0.,-0.707106781186529));
#670=DIRECTION('',(0.,1.,0.));
#671=DIRECTION('center_axis',(0.,0.,-1.));
#672=DIRECTION('ref_axis',(1.,0.,0.));
#673=DIRECTION('',(1.,0.,0.));
#674=DIRECTION('',(0.,1.,0.));
#675=DIRECTION('',(-1.,0.,0.));
#676=DIRECTION('center_axis',(0.,-1.,0.));
#677=DIRECTION('ref_axis',(-0.707106781186568,0.,-0.707106781186527));
#678=DIRECTION('center_axis',(0.,1.,0.));
#679=DIRECTION('ref_axis',(-0.707106781186568,0.,-0.707106781186527));
#680=DIRECTION('',(0.,-1.,0.));
#681=DIRECTION('center_axis',(0.,-1.,0.));
#682=DIRECTION('ref_axis',(-0.707106781186568,0.,-0.707106781186527));
#683=DIRECTION('center_axis',(-1.,0.,0.));
#684=DIRECTION('ref_axis',(0.,0.,-1.));
#685=DIRECTION('',(0.,0.,-1.));
#686=DIRECTION('center_axis',(-1.,0.,0.));
#687=DIRECTION('ref_axis',(0.,0.707106781186555,0.70710678118654));
#688=DIRECTION('',(0.,1.,0.));
#689=DIRECTION('center_axis',(-1.,0.,0.));
#690=DIRECTION('ref_axis',(0.,-0.707106781186555,0.70710678118654));
#691=DIRECTION('',(0.,0.,1.));
#692=DIRECTION('center_axis',(-1.,0.,0.));
#693=DIRECTION('ref_axis',(0.,1.,0.));
#694=DIRECTION('center_axis',(-1.,0.,0.));
#695=DIRECTION('ref_axis',(0.,0.707106781186556,-0.707106781186539));
#696=DIRECTION('center_axis',(1.,-4.44089209850063E-16,0.));
#697=DIRECTION('ref_axis',(0.,0.707106781186556,-0.707106781186539));
#698=DIRECTION('',(-1.,0.,0.));
#699=DIRECTION('center_axis',(-1.,-4.44089209850063E-16,0.));
#700=DIRECTION('ref_axis',(0.,0.707106781186556,-0.707106781186539));
#701=DIRECTION('',(1.,0.,0.));
#702=DIRECTION('center_axis',(0.,-1.,0.));
#703=DIRECTION('ref_axis',(1.,0.,0.));
#704=DIRECTION('',(0.,0.,1.));
#705=DIRECTION('',(1.,0.,0.));
#706=DIRECTION('',(0.,0.,-1.));
#707=DIRECTION('',(1.,0.,0.));
#708=DIRECTION('',(0.,0.,1.));
#709=DIRECTION('',(0.,0.,-1.));
#710=DIRECTION('center_axis',(0.,1.,0.));
#711=DIRECTION('ref_axis',(-1.,0.,0.));
#712=DIRECTION('',(0.,0.,1.));
#713=DIRECTION('center_axis',(0.,1.,0.));
#714=DIRECTION('ref_axis',(1.,0.,0.));
#715=DIRECTION('center_axis',(1.,0.,0.));
#716=DIRECTION('ref_axis',(0.,-0.707106781186555,0.70710678118654));
#717=DIRECTION('center_axis',(1.,4.44089209850063E-16,0.));
#718=DIRECTION('ref_axis',(0.,-0.707106781186555,0.70710678118654));
#719=DIRECTION('',(-1.,0.,0.));
#720=DIRECTION('center_axis',(0.,0.,1.));
#721=DIRECTION('ref_axis',(1.,0.,0.));
#722=DIRECTION('',(1.,0.,0.));
#723=DIRECTION('',(0.,-1.,0.));
#724=DIRECTION('center_axis',(-1.,0.,0.));
#725=DIRECTION('ref_axis',(0.,0.707106781186555,0.70710678118654));
#726=DIRECTION('center_axis',(1.,4.44089209850063E-16,0.));
#727=DIRECTION('ref_axis',(0.,0.707106781186555,0.70710678118654));
#728=DIRECTION('',(-1.,0.,0.));
#729=DIRECTION('center_axis',(0.,1.,0.));
#730=DIRECTION('ref_axis',(-1.,0.,0.));
#731=DIRECTION('',(0.,0.,1.));
#732=DIRECTION('',(-1.,0.,0.));
#733=DIRECTION('',(0.,0.,-1.));
#734=DIRECTION('',(1.,0.,0.));
#735=DIRECTION('',(0.,0.,1.));
#736=DIRECTION('',(0.,0.,1.));
#737=DIRECTION('center_axis',(0.,-1.,0.));
#738=DIRECTION('ref_axis',(1.,0.,0.));
#739=DIRECTION('',(0.,0.,-1.));
#740=DIRECTION('center_axis',(0.,-1.,0.));
#741=DIRECTION('ref_axis',(-1.,0.,0.));
#742=DIRECTION('center_axis',(-1.,0.,0.));
#743=DIRECTION('ref_axis',(0.,0.707106781186555,0.70710678118654));
#744=DIRECTION('center_axis',(-1.,4.44089209850063E-16,0.));
#745=DIRECTION('ref_axis',(0.,0.707106781186555,0.70710678118654));
#746=DIRECTION('center_axis',(1.,0.,0.));
#747=DIRECTION('ref_axis',(0.,0.707106781186555,0.70710678118654));
#748=DIRECTION('',(1.,0.,0.));
#749=DIRECTION('center_axis',(0.,0.,1.));
#750=DIRECTION('ref_axis',(1.,0.,0.));
#751=DIRECTION('',(0.,-1.,0.));
#752=DIRECTION('',(-1.,0.,0.));
#753=DIRECTION('',(0.,1.,0.));
#754=DIRECTION('center_axis',(1.,0.,0.));
#755=DIRECTION('ref_axis',(0.,0.,1.));
#756=DIRECTION('center_axis',(1.,0.,0.));
#757=DIRECTION('ref_axis',(0.,-0.707106781186555,0.70710678118654));
#758=DIRECTION('center_axis',(1.,0.,0.));
#759=DIRECTION('ref_axis',(0.,1.,0.));
#760=DIRECTION('center_axis',(1.,0.,0.));
#761=DIRECTION('ref_axis',(0.,-0.707106781186555,0.70710678118654));
#762=DIRECTION('center_axis',(-1.,4.44089209850063E-16,0.));
#763=DIRECTION('ref_axis',(0.,-0.707106781186555,0.70710678118654));
#764=DIRECTION('center_axis',(-1.,0.,0.));
#765=DIRECTION('ref_axis',(0.,0.,1.));
#766=DIRECTION('',(0.,1.,0.));
#767=DIRECTION('',(0.,1.,0.));
#768=DIRECTION('center_axis',(0.,1.,0.));
#769=DIRECTION('ref_axis',(-1.,0.,0.));
#770=DIRECTION('',(0.,1.,0.));
#771=DIRECTION('center_axis',(1.,0.,0.));
#772=DIRECTION('ref_axis',(0.,0.,-1.));
#773=DIRECTION('',(0.,1.,0.));
#774=DIRECTION('center_axis',(0.,1.,0.));
#775=DIRECTION('ref_axis',(1.,0.,0.));
#776=DIRECTION('center_axis',(-1.,0.,0.));
#777=DIRECTION('ref_axis',(0.,1.,0.));
#778=DIRECTION('',(-1.,0.,0.));
#779=DIRECTION('center_axis',(1.,4.44089209850063E-16,0.));
#780=DIRECTION('ref_axis',(0.,1.,0.));
#781=DIRECTION('center_axis',(-1.,0.,0.));
#782=DIRECTION('ref_axis',(0.,1.,0.));
#783=DIRECTION('center_axis',(-1.,4.44089209850063E-16,0.));
#784=DIRECTION('ref_axis',(0.,1.,0.));
#785=DIRECTION('',(-1.,0.,0.));
#786=DIRECTION('center_axis',(0.,0.,1.));
#787=DIRECTION('ref_axis',(1.,0.,0.));
#788=DIRECTION('center_axis',(0.,0.,-1.));
#789=DIRECTION('ref_axis',(1.,0.,0.));
#790=DIRECTION('',(0.,0.,-1.));
#791=DIRECTION('center_axis',(0.,0.,-1.));
#792=DIRECTION('ref_axis',(1.,0.,0.));
#793=DIRECTION('center_axis',(0.,0.,1.));
#794=DIRECTION('ref_axis',(1.,0.,0.));
#795=DIRECTION('center_axis',(0.,0.,-1.));
#796=DIRECTION('ref_axis',(1.,0.,0.));
#797=DIRECTION('',(0.,0.,-1.));
#798=DIRECTION('center_axis',(0.,0.,-1.));
#799=DIRECTION('ref_axis',(1.,0.,0.));
#800=DIRECTION('center_axis',(0.,0.,1.));
#801=DIRECTION('ref_axis',(1.,0.,0.));
#802=DIRECTION('center_axis',(0.,0.,-1.));
#803=DIRECTION('ref_axis',(1.,0.,0.));
#804=DIRECTION('',(0.,0.,-1.));
#805=DIRECTION('center_axis',(0.,0.,-1.));
#806=DIRECTION('ref_axis',(1.,0.,0.));
#807=DIRECTION('center_axis',(0.,0.,1.));
#808=DIRECTION('ref_axis',(1.,0.,0.));
#809=DIRECTION('center_axis',(0.,0.,-1.));
#810=DIRECTION('ref_axis',(1.,0.,0.));
#811=DIRECTION('',(0.,0.,-1.));
#812=DIRECTION('center_axis',(0.,0.,-1.));
#813=DIRECTION('ref_axis',(1.,0.,0.));
#814=DIRECTION('center_axis',(1.,-4.44089209850063E-16,0.));
#815=DIRECTION('ref_axis',(4.44089209850063E-16,1.,0.));
#816=DIRECTION('',(4.44089209850063E-16,1.,0.));
#817=DIRECTION('',(0.,0.,1.));
#818=DIRECTION('',(-4.44089209850063E-16,-1.,0.));
#819=DIRECTION('center_axis',(0.,-1.,0.));
#820=DIRECTION('ref_axis',(1.,0.,0.));
#821=DIRECTION('',(1.,0.,0.));
#822=DIRECTION('',(1.,0.,0.));
#823=DIRECTION('',(0.,0.,1.));
#824=DIRECTION('center_axis',(-1.,-4.44089209850063E-16,0.));
#825=DIRECTION('ref_axis',(4.44089209850063E-16,-1.,0.));
#826=DIRECTION('',(4.44089209850063E-16,-1.,0.));
#827=DIRECTION('',(4.44089209850063E-16,-1.,0.));
#828=DIRECTION('center_axis',(0.,0.,1.));
#829=DIRECTION('ref_axis',(1.,0.,0.));
#830=DIRECTION('center_axis',(0.,0.,1.));
#831=DIRECTION('ref_axis',(1.,0.,0.));
#832=CARTESIAN_POINT('',(0.,0.,0.));
#833=CARTESIAN_POINT('Origin',(54.0136751702519,248.658155034251,664.101864602531));
#834=CARTESIAN_POINT('',(56.0136751702519,248.658155034251,664.101864602531));
#835=CARTESIAN_POINT('',(54.0136751702519,248.658155034251,662.101864602531));
#836=CARTESIAN_POINT('Origin',(54.0136751702519,248.658155034251,664.101864602531));
#837=CARTESIAN_POINT('',(54.0136751702519,240.658155034251,662.101864602531));
#838=CARTESIAN_POINT('',(54.0136751702519,248.658155034251,662.101864602531));
#839=CARTESIAN_POINT('',(56.0136751702519,240.658155034251,664.101864602531));
#840=CARTESIAN_POINT('Origin',(54.0136751702519,240.658155034251,664.101864602531));
#841=CARTESIAN_POINT('',(56.0136751702519,248.658155034251,664.101864602531));
#842=CARTESIAN_POINT('Origin',(32.0136751702519,248.658155034251,662.101864602531));
#843=CARTESIAN_POINT('',(34.0136751702519,248.658155034251,662.101864602531));
#844=CARTESIAN_POINT('',(48.0136751702519,248.658155034251,662.101864602531));
#845=CARTESIAN_POINT('',(34.0136751702519,240.658155034251,662.101864602531));
#846=CARTESIAN_POINT('',(34.0136751702519,248.658155034251,662.101864602531));
#847=CARTESIAN_POINT('',(28.0136751702519,240.658155034251,662.101864602531));
#848=CARTESIAN_POINT('Origin',(34.0136751702519,248.658155034251,664.101864602531));
#849=CARTESIAN_POINT('',(32.0136751702519,248.658155034251,664.101864602531));
#850=CARTESIAN_POINT('Origin',(34.0136751702519,248.658155034251,664.101864602531));
#851=CARTESIAN_POINT('',(32.0136751702519,240.658155034251,664.101864602531));
#852=CARTESIAN_POINT('',(32.0136751702519,248.658155034251,664.101864602531));
#853=CARTESIAN_POINT('Origin',(34.0136751702519,240.658155034251,664.101864602531));
#854=CARTESIAN_POINT('Origin',(32.0136751702519,248.658155034251,672.101864602531));
#855=CARTESIAN_POINT('',(32.0136751702519,248.658155034251,668.601864602531));
#856=CARTESIAN_POINT('',(32.0136751702519,248.658155034251,638.101864602531));
#857=CARTESIAN_POINT('',(32.0136751702519,245.158155034251,672.101864602531));
#858=CARTESIAN_POINT('Origin',(32.0136751702519,245.158155034251,668.601864602531));
#859=CARTESIAN_POINT('',(32.0136751702519,244.158155034251,672.101864602531));
#860=CARTESIAN_POINT('',(32.0136751702519,246.658155034251,672.101864602531));
#861=CARTESIAN_POINT('',(32.0136751702519,240.658155034251,668.601864602531));
#862=CARTESIAN_POINT('Origin',(32.0136751702519,244.158155034251,668.601864602531));
#863=CARTESIAN_POINT('',(32.0136751702519,240.658155034251,642.101864602531));
#864=CARTESIAN_POINT('',(32.0136751702519,242.958155034251,668.601864602531));
#865=CARTESIAN_POINT('Origin',(32.0136751702519,244.658155034251,668.601864602531));
#866=CARTESIAN_POINT('Origin',(34.0136751702519,237.658155034251,615.101864602531));
#867=CARTESIAN_POINT('',(64.0136751702519,237.658155034251,612.101864602531));
#868=CARTESIAN_POINT('',(64.0136751702519,240.658155034251,615.101864602531));
#869=CARTESIAN_POINT('Origin',(64.0136751702519,237.658155034251,615.101864602531));
#870=CARTESIAN_POINT('',(24.0136751702519,240.658155034251,615.101864602531));
#871=CARTESIAN_POINT('',(34.0136751702519,240.658155034251,615.101864602531));
#872=CARTESIAN_POINT('',(24.0136751702519,237.658155034251,612.101864602531));
#873=CARTESIAN_POINT('Origin',(24.0136751702519,237.658155034251,615.101864602531));
#874=CARTESIAN_POINT('',(34.0136751702519,237.658155034251,612.101864602531));
#875=CARTESIAN_POINT('Origin',(24.0136751702519,240.658155034251,612.101864602531));
#876=CARTESIAN_POINT('',(64.0136751702519,240.658155034251,668.601864602531));
#877=CARTESIAN_POINT('',(64.0136751702519,240.658155034251,612.101864602531));
#878=CARTESIAN_POINT('',(56.0136751702519,240.658155034251,668.601864602531));
#879=CARTESIAN_POINT('',(34.0136751702519,240.658155034251,668.601864602531));
#880=CARTESIAN_POINT('',(56.0136751702519,240.658155034251,637.101864602531));
#881=CARTESIAN_POINT('',(24.0136751702519,240.658155034251,668.601864602531));
#882=CARTESIAN_POINT('',(34.0136751702519,240.658155034251,668.601864602531));
#883=CARTESIAN_POINT('',(24.0136751702519,240.658155034251,612.101864602531));
#884=CARTESIAN_POINT('',(45.6636751702519,240.658155034251,657.101864602531));
#885=CARTESIAN_POINT('',(45.6636751702519,240.658155034251,622.101864602531));
#886=CARTESIAN_POINT('',(45.6636751702519,240.658155034251,634.601864602531));
#887=CARTESIAN_POINT('',(42.3636751702519,240.658155034251,622.101864602531));
#888=CARTESIAN_POINT('Origin',(44.0136751702519,240.658155034251,622.101864602531));
#889=CARTESIAN_POINT('',(42.3636751702519,240.658155034251,657.101864602531));
#890=CARTESIAN_POINT('',(42.3636751702519,240.658155034251,617.101864602531));
#891=CARTESIAN_POINT('Origin',(44.0136751702519,240.658155034251,657.101864602531));
#892=CARTESIAN_POINT('Origin',(34.0136751702519,244.158155034251,668.601864602531));
#893=CARTESIAN_POINT('',(24.0136751702519,244.158155034251,672.101864602531));
#894=CARTESIAN_POINT('Origin',(24.0136751702519,244.158155034251,668.601864602531));
#895=CARTESIAN_POINT('',(34.0136751702519,244.158155034251,672.101864602531));
#896=CARTESIAN_POINT('Origin',(44.0136751702519,244.658155034251,672.101864602531));
#897=CARTESIAN_POINT('',(24.0136751702519,245.158155034251,672.101864602531));
#898=CARTESIAN_POINT('',(54.0136751702519,245.158155034251,672.101864602531));
#899=CARTESIAN_POINT('',(24.0136751702519,248.658155034251,672.101864602531));
#900=CARTESIAN_POINT('Origin',(54.0136751702519,245.158155034251,668.601864602531));
#901=CARTESIAN_POINT('',(24.0136751702519,248.658155034251,668.601864602531));
#902=CARTESIAN_POINT('Origin',(24.0136751702519,245.158155034251,668.601864602531));
#903=CARTESIAN_POINT('',(54.0136751702519,248.658155034251,668.601864602531));
#904=CARTESIAN_POINT('Origin',(64.0136751702519,248.658155034251,604.101864602531));
#905=CARTESIAN_POINT('',(56.0136751702519,248.658155034251,668.601864602531));
#906=CARTESIAN_POINT('',(56.0136751702519,248.658155034251,633.101864602531));
#907=CARTESIAN_POINT('',(64.0136751702519,248.658155034251,668.601864602531));
#908=CARTESIAN_POINT('',(54.0136751702519,248.658155034251,668.601864602531));
#909=CARTESIAN_POINT('',(64.0136751702519,248.658155034251,604.101864602531));
#910=CARTESIAN_POINT('',(64.0136751702519,248.658155034251,604.101864602531));
#911=CARTESIAN_POINT('',(24.0136751702519,248.658155034251,604.101864602531));
#912=CARTESIAN_POINT('',(54.0136751702519,248.658155034251,604.101864602531));
#913=CARTESIAN_POINT('',(24.0136751702519,248.658155034251,604.101864602531));
#914=CARTESIAN_POINT('',(45.6636751702519,248.658155034251,622.101864602531));
#915=CARTESIAN_POINT('',(45.6636751702519,248.658155034251,657.101864602531));
#916=CARTESIAN_POINT('',(45.6636751702519,248.658155034251,630.601864602531));
#917=CARTESIAN_POINT('',(42.3636751702519,248.658155034251,657.101864602531));
#918=CARTESIAN_POINT('Origin',(44.0136751702519,248.658155034251,657.101864602531));
#919=CARTESIAN_POINT('',(42.3636751702519,248.658155034251,622.101864602531));
#920=CARTESIAN_POINT('',(42.3636751702519,248.658155034251,613.101864602531));
#921=CARTESIAN_POINT('Origin',(44.0136751702519,248.658155034251,622.101864602531));
#922=CARTESIAN_POINT('Origin',(54.0136751702519,245.158155034251,668.601864602531));
#923=CARTESIAN_POINT('',(64.0136751702519,245.158155034251,672.101864602531));
#924=CARTESIAN_POINT('Origin',(64.0136751702519,245.158155034251,668.601864602531));
#925=CARTESIAN_POINT('',(56.0136751702519,245.158155034251,672.101864602531));
#926=CARTESIAN_POINT('Origin',(56.0136751702519,245.158155034251,668.601864602531));
#927=CARTESIAN_POINT('',(54.0136751702519,245.158155034251,672.101864602531));
#928=CARTESIAN_POINT('Origin',(44.0136751702519,244.658155034251,672.101864602531));
#929=CARTESIAN_POINT('',(56.0136751702519,244.158155034251,672.101864602531));
#930=CARTESIAN_POINT('',(56.0136751702519,246.658155034251,672.101864602531));
#931=CARTESIAN_POINT('',(64.0136751702519,244.158155034251,672.101864602531));
#932=CARTESIAN_POINT('',(34.0136751702519,244.158155034251,672.101864602531));
#933=CARTESIAN_POINT('',(64.0136751702519,240.658155034251,672.101864602531));
#934=CARTESIAN_POINT('Origin',(56.0136751702519,248.658155034251,662.101864602531));
#935=CARTESIAN_POINT('Origin',(56.0136751702519,244.158155034251,668.601864602531));
#936=CARTESIAN_POINT('',(56.0136751702519,242.958155034251,668.601864602531));
#937=CARTESIAN_POINT('Origin',(56.0136751702519,244.658155034251,668.601864602531));
#938=CARTESIAN_POINT('Origin',(34.0136751702519,244.158155034251,668.601864602531));
#939=CARTESIAN_POINT('Origin',(64.0136751702519,244.158155034251,668.601864602531));
#940=CARTESIAN_POINT('Origin',(42.3636751702519,240.658155034251,622.101864602531));
#941=CARTESIAN_POINT('',(42.3636751702519,240.658155034251,657.101864602531));
#942=CARTESIAN_POINT('',(42.3636751702519,240.658155034251,622.101864602531));
#943=CARTESIAN_POINT('Origin',(44.0136751702519,240.658155034251,622.101864602531));
#944=CARTESIAN_POINT('',(45.6636751702519,240.658155034251,622.101864602531));
#945=CARTESIAN_POINT('Origin',(45.6636751702519,240.658155034251,657.101864602531));
#946=CARTESIAN_POINT('',(45.6636751702519,240.658155034251,657.101864602531));
#947=CARTESIAN_POINT('Origin',(44.0136751702519,240.658155034251,657.101864602531));
#948=CARTESIAN_POINT('Origin',(64.0136751702519,244.658155034251,668.601864602531));
#949=CARTESIAN_POINT('',(24.0136751702519,242.958155034251,668.601864602531));
#950=CARTESIAN_POINT('',(64.0136751702519,242.958155034251,668.601864602531));
#951=CARTESIAN_POINT('Origin',(24.0136751702519,244.658155034251,668.601864602531));
#952=CARTESIAN_POINT('Origin',(64.0136751702519,244.658155034251,668.601864602531));
#953=CARTESIAN_POINT('',(64.0136751702519,242.958155034251,668.601864602531));
#954=CARTESIAN_POINT('Origin',(64.0136751702519,244.658155034251,668.601864602531));
#955=CARTESIAN_POINT('',(64.0136751702519,242.958155034251,668.601864602531));
#956=CARTESIAN_POINT('Origin',(34.0136751702519,233.658155034251,604.101864602531));
#957=CARTESIAN_POINT('',(31.8136751702519,233.658155034251,612.101864602531));
#958=CARTESIAN_POINT('Origin',(34.0136751702519,233.658155034251,612.101864602531));
#959=CARTESIAN_POINT('',(31.8136751702519,233.658155034251,604.101864602531));
#960=CARTESIAN_POINT('',(31.8136751702519,233.658155034251,604.101864602531));
#961=CARTESIAN_POINT('Origin',(34.0136751702519,233.658155034251,604.101864602531));
#962=CARTESIAN_POINT('Origin',(54.0136751702519,233.658155034251,604.101864602531));
#963=CARTESIAN_POINT('',(51.8136751702519,233.658155034251,612.101864602531));
#964=CARTESIAN_POINT('Origin',(54.0136751702519,233.658155034251,612.101864602531));
#965=CARTESIAN_POINT('',(51.8136751702519,233.658155034251,604.101864602531));
#966=CARTESIAN_POINT('',(51.8136751702519,233.658155034251,604.101864602531));
#967=CARTESIAN_POINT('Origin',(54.0136751702519,233.658155034251,604.101864602531));
#968=CARTESIAN_POINT('Origin',(34.0136751702519,223.658155034251,604.101864602531));
#969=CARTESIAN_POINT('',(31.8136751702519,223.658155034251,612.101864602531));
#970=CARTESIAN_POINT('Origin',(34.0136751702519,223.658155034251,612.101864602531));
#971=CARTESIAN_POINT('',(31.8136751702519,223.658155034251,604.101864602531));
#972=CARTESIAN_POINT('',(31.8136751702519,223.658155034251,604.101864602531));
#973=CARTESIAN_POINT('Origin',(34.0136751702519,223.658155034251,604.101864602531));
#974=CARTESIAN_POINT('Origin',(54.0136751702519,223.658155034251,604.101864602531));
#975=CARTESIAN_POINT('',(51.8136751702519,223.658155034251,612.101864602531));
#976=CARTESIAN_POINT('Origin',(54.0136751702519,223.658155034251,612.101864602531));
#977=CARTESIAN_POINT('',(51.8136751702519,223.658155034251,604.101864602531));
#978=CARTESIAN_POINT('',(51.8136751702519,223.658155034251,604.101864602531));
#979=CARTESIAN_POINT('Origin',(54.0136751702519,223.658155034251,604.101864602531));
#980=CARTESIAN_POINT('Origin',(64.0136751702519,218.658155034251,604.101864602531));
#981=CARTESIAN_POINT('',(64.0136751702519,218.658155034251,612.101864602531));
#982=CARTESIAN_POINT('',(64.0136751702519,238.658155034251,612.101864602531));
#983=CARTESIAN_POINT('',(64.0136751702519,218.658155034251,604.101864602531));
#984=CARTESIAN_POINT('',(64.0136751702519,218.658155034251,604.101864602531));
#985=CARTESIAN_POINT('',(64.0136751702519,238.658155034251,604.101864602531));
#986=CARTESIAN_POINT('Origin',(24.0136751702519,218.658155034251,604.101864602531));
#987=CARTESIAN_POINT('',(24.0136751702519,218.658155034251,604.101864602531));
#988=CARTESIAN_POINT('',(24.0136751702519,218.658155034251,604.101864602531));
#989=CARTESIAN_POINT('',(24.0136751702519,218.658155034251,612.101864602531));
#990=CARTESIAN_POINT('',(24.0136751702519,218.658155034251,612.101864602531));
#991=CARTESIAN_POINT('',(24.0136751702519,218.658155034251,604.101864602531));
#992=CARTESIAN_POINT('Origin',(24.0136751702519,238.658155034251,604.101864602531));
#993=CARTESIAN_POINT('',(24.0136751702519,238.658155034251,604.101864602531));
#994=CARTESIAN_POINT('',(24.0136751702519,238.658155034251,612.101864602531));
#995=CARTESIAN_POINT('Origin',(44.0136751702519,228.658155034251,612.101864602531));
#996=CARTESIAN_POINT('Origin',(44.0136751702519,228.658155034251,604.101864602531));
#997=UNCERTAINTY_MEASURE_WITH_UNIT(LENGTH_MEASURE(0.01),#1001,
'DISTANCE_ACCURACY_VALUE',
'Maximum model space distance between geometric entities at asserted c
onnectivities');
#998=UNCERTAINTY_MEASURE_WITH_UNIT(LENGTH_MEASURE(0.01),#1001,
'DISTANCE_ACCURACY_VALUE',
'Maximum model space distance between geometric entities at asserted c
onnectivities');
#999=(
GEOMETRIC_REPRESENTATION_CONTEXT(3)
GLOBAL_UNCERTAINTY_ASSIGNED_CONTEXT((#997))
GLOBAL_UNIT_ASSIGNED_CONTEXT((#1001,#1003,#1004))
REPRESENTATION_CONTEXT('','3D')
);
#1000=(
GEOMETRIC_REPRESENTATION_CONTEXT(3)
GLOBAL_UNCERTAINTY_ASSIGNED_CONTEXT((#998))
GLOBAL_UNIT_ASSIGNED_CONTEXT((#1001,#1003,#1004))
REPRESENTATION_CONTEXT('','3D')
);
#1001=(
LENGTH_UNIT()
NAMED_UNIT(*)
SI_UNIT(.MILLI.,.METRE.)
);
#1002=(
LENGTH_UNIT()
NAMED_UNIT(*)
SI_UNIT($,.METRE.)
);
#1003=(
NAMED_UNIT(*)
PLANE_ANGLE_UNIT()
SI_UNIT($,.RADIAN.)
);
#1004=(
NAMED_UNIT(*)
SI_UNIT($,.STERADIAN.)
SOLID_ANGLE_UNIT()
);
#1005=SHAPE_DEFINITION_REPRESENTATION(#1006,#1007);
#1006=PRODUCT_DEFINITION_SHAPE('',$,#1009);
#1007=SHAPE_REPRESENTATION('',(#601),#999);
#1008=PRODUCT_DEFINITION_CONTEXT('part definition',#1013,'design');
#1009=PRODUCT_DEFINITION('Cam Bot Mount','Cam Bot Mount',#1010,#1008);
#1010=PRODUCT_DEFINITION_FORMATION('',$,#1015);
#1011=PRODUCT_RELATED_PRODUCT_CATEGORY('Cam Bot Mount','Cam Bot Mount',
(#1015));
#1012=APPLICATION_PROTOCOL_DEFINITION('international standard',
'automotive_design',2009,#1013);
#1013=APPLICATION_CONTEXT(
'Core Data for Automotive Mechanical Design Process');
#1014=PRODUCT_CONTEXT('part definition',#1013,'mechanical');
#1015=PRODUCT('Cam Bot Mount','Cam Bot Mount',$,(#1014));
#1016=PRESENTATION_STYLE_ASSIGNMENT((#1018));
#1017=PRESENTATION_STYLE_ASSIGNMENT((#1019));
#1018=SURFACE_STYLE_USAGE(.BOTH.,#1020);
#1019=SURFACE_STYLE_USAGE(.BOTH.,#1021);
#1020=SURFACE_SIDE_STYLE('',(#1022));
#1021=SURFACE_SIDE_STYLE('',(#1023));
#1022=SURFACE_STYLE_FILL_AREA(#1024);
#1023=SURFACE_STYLE_FILL_AREA(#1025);
#1024=FILL_AREA_STYLE('Steel - Satin',(#1026));
#1025=FILL_AREA_STYLE('EPX 86FR (with Carbon M2 M3 L1 3D Printers)',(#1027));
#1026=FILL_AREA_STYLE_COLOUR('Steel - Satin',#1028);
#1027=FILL_AREA_STYLE_COLOUR(
'EPX 86FR (with Carbon M2 M3 L1 3D Printers)',#1029);
#1028=COLOUR_RGB('Steel - Satin',0.627450980392157,0.627450980392157,0.627450980392157);
#1029=COLOUR_RGB('EPX 86FR (with Carbon M2 M3 L1 3D Printers)',0.247058823529412,
0.247058823529412,0.247058823529412);
ENDSEC;
END-ISO-10303-21;
