ISO-10303-21;
HEADER;
/* Generated by software containing ST-Developer
 * from STEP Tools, Inc. (www.steptools.com) 
 */

FILE_DESCRIPTION(
/* description */ (''),
/* implementation_level */ '2;1');

FILE_NAME(
/* name */ 'Cam Base Mount.step',
/* time_stamp */ '2026-03-01T00:21:06+05:30',
/* author */ (''),
/* organization */ (''),
/* preprocessor_version */ 'ST-DEVELOPER v20.1',
/* originating_system */ 'Autodesk Translation Framework v14.24.0.0',
/* authorisation */ '');

FILE_SCHEMA (('AUTOMOTIVE_DESIGN { 1 0 10303 214 3 1 1 }'));
ENDSEC;

DATA;
#10=MECHANICAL_DESIGN_GEOMETRIC_PRESENTATION_REPRESENTATION('',(#13),#1073);
#11=SHAPE_REPRESENTATION_RELATIONSHIP('SRR','None',#1080,#12);
#12=ADVANCED_BREP_SHAPE_REPRESENTATION('',(#14),#1072);
#13=STYLED_ITEM('',(#1090),#14);
#14=MANIFOLD_SOLID_BREP('Cam Base Mount',#641);
#15=FACE_BOUND('',#109,.T.);
#16=FACE_BOUND('',#111,.T.);
#17=FACE_BOUND('',#112,.T.);
#18=FACE_BOUND('',#113,.T.);
#19=FACE_BOUND('',#114,.T.);
#20=FACE_BOUND('',#115,.T.);
#21=FACE_BOUND('',#116,.T.);
#22=FACE_BOUND('',#119,.T.);
#23=FACE_BOUND('',#125,.T.);
#24=FACE_BOUND('',#140,.T.);
#25=FACE_BOUND('',#141,.T.);
#26=FACE_BOUND('',#142,.T.);
#27=FACE_BOUND('',#143,.T.);
#28=FACE_BOUND('',#147,.T.);
#29=CIRCLE('',#665,3.5);
#30=CIRCLE('',#666,3.5);
#31=CIRCLE('',#667,1.70000000000002);
#32=CIRCLE('',#669,1.5);
#33=CIRCLE('',#670,1.5);
#34=CIRCLE('',#671,1.5);
#35=CIRCLE('',#672,1.5);
#36=CIRCLE('',#674,2.75);
#37=CIRCLE('',#675,2.75);
#38=CIRCLE('',#677,2.75);
#39=CIRCLE('',#678,1.60000000000004);
#40=CIRCLE('',#681,2.75);
#41=CIRCLE('',#683,1.60000000000004);
#42=CIRCLE('',#688,1.5);
#43=CIRCLE('',#690,1.5);
#44=CIRCLE('',#692,1.5);
#45=CIRCLE('',#694,1.5);
#46=CIRCLE('',#705,3.5);
#47=CIRCLE('',#708,3.5);
#48=CIRCLE('',#709,1.70000000000002);
#49=PLANE('',#663);
#50=PLANE('',#664);
#51=PLANE('',#668);
#52=PLANE('',#676);
#53=PLANE('',#679);
#54=PLANE('',#684);
#55=PLANE('',#685);
#56=PLANE('',#686);
#57=PLANE('',#695);
#58=PLANE('',#696);
#59=PLANE('',#697);
#60=PLANE('',#698);
#61=PLANE('',#699);
#62=PLANE('',#700);
#63=PLANE('',#701);
#64=PLANE('',#702);
#65=PLANE('',#703);
#66=PLANE('',#706);
#67=PLANE('',#707);
#68=PLANE('',#712);
#69=FACE_OUTER_BOUND('',#103,.T.);
#70=FACE_OUTER_BOUND('',#104,.T.);
#71=FACE_OUTER_BOUND('',#105,.T.);
#72=FACE_OUTER_BOUND('',#106,.T.);
#73=FACE_OUTER_BOUND('',#107,.T.);
#74=FACE_OUTER_BOUND('',#108,.T.);
#75=FACE_OUTER_BOUND('',#110,.T.);
#76=FACE_OUTER_BOUND('',#117,.T.);
#77=FACE_OUTER_BOUND('',#118,.T.);
#78=FACE_OUTER_BOUND('',#120,.T.);
#79=FACE_OUTER_BOUND('',#121,.T.);
#80=FACE_OUTER_BOUND('',#122,.T.);
#81=FACE_OUTER_BOUND('',#123,.T.);
#82=FACE_OUTER_BOUND('',#124,.T.);
#83=FACE_OUTER_BOUND('',#126,.T.);
#84=FACE_OUTER_BOUND('',#127,.T.);
#85=FACE_OUTER_BOUND('',#128,.T.);
#86=FACE_OUTER_BOUND('',#129,.T.);
#87=FACE_OUTER_BOUND('',#130,.T.);
#88=FACE_OUTER_BOUND('',#131,.T.);
#89=FACE_OUTER_BOUND('',#132,.T.);
#90=FACE_OUTER_BOUND('',#133,.T.);
#91=FACE_OUTER_BOUND('',#134,.T.);
#92=FACE_OUTER_BOUND('',#135,.T.);
#93=FACE_OUTER_BOUND('',#136,.T.);
#94=FACE_OUTER_BOUND('',#137,.T.);
#95=FACE_OUTER_BOUND('',#138,.T.);
#96=FACE_OUTER_BOUND('',#139,.T.);
#97=FACE_OUTER_BOUND('',#144,.T.);
#98=FACE_OUTER_BOUND('',#145,.T.);
#99=FACE_OUTER_BOUND('',#146,.T.);
#100=FACE_OUTER_BOUND('',#148,.T.);
#101=FACE_OUTER_BOUND('',#149,.T.);
#102=FACE_OUTER_BOUND('',#150,.T.);
#103=EDGE_LOOP('',(#421,#422,#423,#424));
#104=EDGE_LOOP('',(#425,#426,#427,#428));
#105=EDGE_LOOP('',(#429,#430,#431,#432));
#106=EDGE_LOOP('',(#433,#434,#435,#436));
#107=EDGE_LOOP('',(#437,#438,#439,#440));
#108=EDGE_LOOP('',(#441,#442,#443,#444,#445,#446));
#109=EDGE_LOOP('',(#447));
#110=EDGE_LOOP('',(#448,#449,#450,#451,#452,#453,#454,#455));
#111=EDGE_LOOP('',(#456));
#112=EDGE_LOOP('',(#457));
#113=EDGE_LOOP('',(#458));
#114=EDGE_LOOP('',(#459));
#115=EDGE_LOOP('',(#460,#461,#462,#463));
#116=EDGE_LOOP('',(#464,#465,#466,#467));
#117=EDGE_LOOP('',(#468,#469,#470,#471));
#118=EDGE_LOOP('',(#472,#473,#474,#475,#476,#477));
#119=EDGE_LOOP('',(#478));
#120=EDGE_LOOP('',(#479,#480,#481,#482));
#121=EDGE_LOOP('',(#483,#484,#485,#486));
#122=EDGE_LOOP('',(#487,#488,#489,#490));
#123=EDGE_LOOP('',(#491,#492,#493,#494));
#124=EDGE_LOOP('',(#495,#496,#497,#498,#499,#500));
#125=EDGE_LOOP('',(#501));
#126=EDGE_LOOP('',(#502,#503,#504,#505));
#127=EDGE_LOOP('',(#506,#507,#508,#509));
#128=EDGE_LOOP('',(#510,#511,#512,#513));
#129=EDGE_LOOP('',(#514,#515,#516,#517));
#130=EDGE_LOOP('',(#518,#519,#520,#521));
#131=EDGE_LOOP('',(#522,#523,#524,#525));
#132=EDGE_LOOP('',(#526,#527,#528,#529));
#133=EDGE_LOOP('',(#530,#531,#532,#533));
#134=EDGE_LOOP('',(#534,#535,#536,#537));
#135=EDGE_LOOP('',(#538,#539,#540,#541));
#136=EDGE_LOOP('',(#542,#543,#544,#545));
#137=EDGE_LOOP('',(#546,#547,#548,#549));
#138=EDGE_LOOP('',(#550,#551,#552,#553));
#139=EDGE_LOOP('',(#554,#555,#556,#557,#558,#559,#560,#561));
#140=EDGE_LOOP('',(#562));
#141=EDGE_LOOP('',(#563));
#142=EDGE_LOOP('',(#564));
#143=EDGE_LOOP('',(#565));
#144=EDGE_LOOP('',(#566,#567,#568,#569));
#145=EDGE_LOOP('',(#570,#571,#572,#573));
#146=EDGE_LOOP('',(#574,#575,#576,#577,#578,#579));
#147=EDGE_LOOP('',(#580));
#148=EDGE_LOOP('',(#581,#582,#583,#584));
#149=EDGE_LOOP('',(#585,#586,#587,#588));
#150=EDGE_LOOP('',(#589,#590,#591,#592));
#151=ELLIPSE('',#656,2.82842712474616,2.);
#152=ELLIPSE('',#657,2.82842712474618,2.);
#153=ELLIPSE('',#659,2.82842712474622,2.);
#154=ELLIPSE('',#661,2.82842712474619,2.);
#155=LINE('',#897,#217);
#156=LINE('',#901,#218);
#157=LINE('',#905,#219);
#158=LINE('',#907,#220);
#159=LINE('',#911,#221);
#160=LINE('',#913,#222);
#161=LINE('',#916,#223);
#162=LINE('',#917,#224);
#163=LINE('',#920,#225);
#164=LINE('',#922,#226);
#165=LINE('',#923,#227);
#166=LINE('',#926,#228);
#167=LINE('',#930,#229);
#168=LINE('',#937,#230);
#169=LINE('',#939,#231);
#170=LINE('',#941,#232);
#171=LINE('',#943,#233);
#172=LINE('',#945,#234);
#173=LINE('',#947,#235);
#174=LINE('',#949,#236);
#175=LINE('',#950,#237);
#176=LINE('',#961,#238);
#177=LINE('',#963,#239);
#178=LINE('',#965,#240);
#179=LINE('',#966,#241);
#180=LINE('',#972,#242);
#181=LINE('',#975,#243);
#182=LINE('',#978,#244);
#183=LINE('',#981,#245);
#184=LINE('',#982,#246);
#185=LINE('',#987,#247);
#186=LINE('',#988,#248);
#187=LINE('',#992,#249);
#188=LINE('',#995,#250);
#189=LINE('',#998,#251);
#190=LINE('',#1000,#252);
#191=LINE('',#1005,#253);
#192=LINE('',#1009,#254);
#193=LINE('',#1013,#255);
#194=LINE('',#1017,#256);
#195=LINE('',#1020,#257);
#196=LINE('',#1022,#258);
#197=LINE('',#1023,#259);
#198=LINE('',#1026,#260);
#199=LINE('',#1027,#261);
#200=LINE('',#1030,#262);
#201=LINE('',#1031,#263);
#202=LINE('',#1034,#264);
#203=LINE('',#1035,#265);
#204=LINE('',#1038,#266);
#205=LINE('',#1039,#267);
#206=LINE('',#1042,#268);
#207=LINE('',#1043,#269);
#208=LINE('',#1046,#270);
#209=LINE('',#1047,#271);
#210=LINE('',#1049,#272);
#211=LINE('',#1055,#273);
#212=LINE('',#1056,#274);
#213=LINE('',#1059,#275);
#214=LINE('',#1060,#276);
#215=LINE('',#1063,#277);
#216=LINE('',#1068,#278);
#217=VECTOR('',#717,10.);
#218=VECTOR('',#720,10.);
#219=VECTOR('',#725,10.);
#220=VECTOR('',#726,10.);
#221=VECTOR('',#731,10.);
#222=VECTOR('',#732,10.);
#223=VECTOR('',#737,10.);
#224=VECTOR('',#738,10.);
#225=VECTOR('',#741,10.);
#226=VECTOR('',#742,10.);
#227=VECTOR('',#743,10.);
#228=VECTOR('',#746,10.);
#229=VECTOR('',#749,10.);
#230=VECTOR('',#756,10.);
#231=VECTOR('',#757,10.);
#232=VECTOR('',#758,10.);
#233=VECTOR('',#759,10.);
#234=VECTOR('',#760,10.);
#235=VECTOR('',#761,10.);
#236=VECTOR('',#762,10.);
#237=VECTOR('',#763,10.);
#238=VECTOR('',#772,10.);
#239=VECTOR('',#773,10.);
#240=VECTOR('',#774,10.);
#241=VECTOR('',#775,10.);
#242=VECTOR('',#780,10.);
#243=VECTOR('',#783,10.);
#244=VECTOR('',#786,10.);
#245=VECTOR('',#789,10.);
#246=VECTOR('',#790,10.);
#247=VECTOR('',#795,10.);
#248=VECTOR('',#796,10.);
#249=VECTOR('',#801,10.);
#250=VECTOR('',#804,1.60000000000004);
#251=VECTOR('',#809,10.);
#252=VECTOR('',#812,10.);
#253=VECTOR('',#819,1.5);
#254=VECTOR('',#824,1.5);
#255=VECTOR('',#829,1.5);
#256=VECTOR('',#834,1.5);
#257=VECTOR('',#837,10.);
#258=VECTOR('',#838,10.);
#259=VECTOR('',#839,10.);
#260=VECTOR('',#842,10.);
#261=VECTOR('',#843,10.);
#262=VECTOR('',#846,10.);
#263=VECTOR('',#847,10.);
#264=VECTOR('',#850,10.);
#265=VECTOR('',#851,10.);
#266=VECTOR('',#854,10.);
#267=VECTOR('',#855,10.);
#268=VECTOR('',#858,10.);
#269=VECTOR('',#859,10.);
#270=VECTOR('',#862,10.);
#271=VECTOR('',#863,10.);
#272=VECTOR('',#866,10.);
#273=VECTOR('',#873,10.);
#274=VECTOR('',#874,10.);
#275=VECTOR('',#877,10.);
#276=VECTOR('',#878,10.);
#277=VECTOR('',#883,10.);
#278=VECTOR('',#890,1.70000000000002);
#279=VERTEX_POINT('',#895);
#280=VERTEX_POINT('',#896);
#281=VERTEX_POINT('',#898);
#282=VERTEX_POINT('',#900);
#283=VERTEX_POINT('',#904);
#284=VERTEX_POINT('',#906);
#285=VERTEX_POINT('',#910);
#286=VERTEX_POINT('',#912);
#287=VERTEX_POINT('',#919);
#288=VERTEX_POINT('',#921);
#289=VERTEX_POINT('',#925);
#290=VERTEX_POINT('',#927);
#291=VERTEX_POINT('',#929);
#292=VERTEX_POINT('',#932);
#293=VERTEX_POINT('',#935);
#294=VERTEX_POINT('',#936);
#295=VERTEX_POINT('',#938);
#296=VERTEX_POINT('',#940);
#297=VERTEX_POINT('',#942);
#298=VERTEX_POINT('',#944);
#299=VERTEX_POINT('',#946);
#300=VERTEX_POINT('',#948);
#301=VERTEX_POINT('',#951);
#302=VERTEX_POINT('',#953);
#303=VERTEX_POINT('',#955);
#304=VERTEX_POINT('',#957);
#305=VERTEX_POINT('',#959);
#306=VERTEX_POINT('',#960);
#307=VERTEX_POINT('',#962);
#308=VERTEX_POINT('',#964);
#309=VERTEX_POINT('',#968);
#310=VERTEX_POINT('',#969);
#311=VERTEX_POINT('',#971);
#312=VERTEX_POINT('',#973);
#313=VERTEX_POINT('',#977);
#314=VERTEX_POINT('',#979);
#315=VERTEX_POINT('',#983);
#316=VERTEX_POINT('',#986);
#317=VERTEX_POINT('',#990);
#318=VERTEX_POINT('',#994);
#319=VERTEX_POINT('',#1003);
#320=VERTEX_POINT('',#1007);
#321=VERTEX_POINT('',#1011);
#322=VERTEX_POINT('',#1015);
#323=VERTEX_POINT('',#1019);
#324=VERTEX_POINT('',#1021);
#325=VERTEX_POINT('',#1025);
#326=VERTEX_POINT('',#1029);
#327=VERTEX_POINT('',#1033);
#328=VERTEX_POINT('',#1037);
#329=VERTEX_POINT('',#1041);
#330=VERTEX_POINT('',#1045);
#331=VERTEX_POINT('',#1052);
#332=VERTEX_POINT('',#1053);
#333=VERTEX_POINT('',#1058);
#334=VERTEX_POINT('',#1064);
#335=EDGE_CURVE('',#279,#280,#155,.T.);
#336=EDGE_CURVE('',#280,#281,#151,.T.);
#337=EDGE_CURVE('',#281,#282,#156,.T.);
#338=EDGE_CURVE('',#282,#279,#152,.T.);
#339=EDGE_CURVE('',#283,#281,#157,.T.);
#340=EDGE_CURVE('',#280,#284,#158,.T.);
#341=EDGE_CURVE('',#284,#283,#153,.T.);
#342=EDGE_CURVE('',#285,#283,#159,.T.);
#343=EDGE_CURVE('',#284,#286,#160,.T.);
#344=EDGE_CURVE('',#285,#286,#154,.T.);
#345=EDGE_CURVE('',#286,#279,#161,.T.);
#346=EDGE_CURVE('',#282,#285,#162,.T.);
#347=EDGE_CURVE('',#282,#287,#163,.T.);
#348=EDGE_CURVE('',#288,#287,#164,.T.);
#349=EDGE_CURVE('',#285,#288,#165,.T.);
#350=EDGE_CURVE('',#289,#281,#166,.T.);
#351=EDGE_CURVE('',#290,#289,#29,.T.);
#352=EDGE_CURVE('',#291,#290,#167,.T.);
#353=EDGE_CURVE('',#287,#291,#30,.T.);
#354=EDGE_CURVE('',#292,#292,#31,.T.);
#355=EDGE_CURVE('',#293,#294,#168,.T.);
#356=EDGE_CURVE('',#293,#295,#169,.T.);
#357=EDGE_CURVE('',#295,#296,#170,.T.);
#358=EDGE_CURVE('',#296,#297,#171,.T.);
#359=EDGE_CURVE('',#298,#297,#172,.T.);
#360=EDGE_CURVE('',#298,#299,#173,.T.);
#361=EDGE_CURVE('',#299,#300,#174,.T.);
#362=EDGE_CURVE('',#294,#300,#175,.T.);
#363=EDGE_CURVE('',#301,#301,#32,.T.);
#364=EDGE_CURVE('',#302,#302,#33,.T.);
#365=EDGE_CURVE('',#303,#303,#34,.T.);
#366=EDGE_CURVE('',#304,#304,#35,.T.);
#367=EDGE_CURVE('',#305,#306,#176,.T.);
#368=EDGE_CURVE('',#306,#307,#177,.T.);
#369=EDGE_CURVE('',#307,#308,#178,.T.);
#370=EDGE_CURVE('',#308,#305,#179,.T.);
#371=EDGE_CURVE('',#309,#310,#36,.T.);
#372=EDGE_CURVE('',#310,#311,#180,.T.);
#373=EDGE_CURVE('',#311,#312,#37,.T.);
#374=EDGE_CURVE('',#312,#309,#181,.T.);
#375=EDGE_CURVE('',#313,#311,#182,.T.);
#376=EDGE_CURVE('',#314,#313,#38,.T.);
#377=EDGE_CURVE('',#306,#314,#183,.T.);
#378=EDGE_CURVE('',#305,#312,#184,.T.);
#379=EDGE_CURVE('',#315,#315,#39,.T.);
#380=EDGE_CURVE('',#310,#316,#185,.T.);
#381=EDGE_CURVE('',#313,#316,#186,.T.);
#382=EDGE_CURVE('',#316,#317,#40,.T.);
#383=EDGE_CURVE('',#317,#314,#187,.T.);
#384=EDGE_CURVE('',#315,#318,#188,.T.);
#385=EDGE_CURVE('',#318,#318,#41,.T.);
#386=EDGE_CURVE('',#307,#317,#189,.T.);
#387=EDGE_CURVE('',#308,#309,#190,.T.);
#388=EDGE_CURVE('',#319,#319,#42,.T.);
#389=EDGE_CURVE('',#319,#304,#191,.T.);
#390=EDGE_CURVE('',#320,#320,#43,.T.);
#391=EDGE_CURVE('',#320,#303,#192,.T.);
#392=EDGE_CURVE('',#321,#321,#44,.T.);
#393=EDGE_CURVE('',#321,#302,#193,.T.);
#394=EDGE_CURVE('',#322,#322,#45,.T.);
#395=EDGE_CURVE('',#322,#301,#194,.T.);
#396=EDGE_CURVE('',#293,#323,#195,.T.);
#397=EDGE_CURVE('',#324,#323,#196,.T.);
#398=EDGE_CURVE('',#295,#324,#197,.T.);
#399=EDGE_CURVE('',#325,#324,#198,.T.);
#400=EDGE_CURVE('',#296,#325,#199,.T.);
#401=EDGE_CURVE('',#326,#325,#200,.T.);
#402=EDGE_CURVE('',#297,#326,#201,.T.);
#403=EDGE_CURVE('',#327,#326,#202,.T.);
#404=EDGE_CURVE('',#298,#327,#203,.T.);
#405=EDGE_CURVE('',#328,#327,#204,.T.);
#406=EDGE_CURVE('',#299,#328,#205,.T.);
#407=EDGE_CURVE('',#329,#328,#206,.T.);
#408=EDGE_CURVE('',#300,#329,#207,.T.);
#409=EDGE_CURVE('',#330,#329,#208,.T.);
#410=EDGE_CURVE('',#294,#330,#209,.T.);
#411=EDGE_CURVE('',#323,#330,#210,.T.);
#412=EDGE_CURVE('',#331,#332,#46,.T.);
#413=EDGE_CURVE('',#332,#290,#211,.T.);
#414=EDGE_CURVE('',#289,#331,#212,.T.);
#415=EDGE_CURVE('',#333,#332,#213,.T.);
#416=EDGE_CURVE('',#291,#333,#214,.T.);
#417=EDGE_CURVE('',#333,#288,#47,.T.);
#418=EDGE_CURVE('',#331,#283,#215,.T.);
#419=EDGE_CURVE('',#334,#334,#48,.T.);
#420=EDGE_CURVE('',#334,#292,#216,.T.);
#421=ORIENTED_EDGE('',*,*,#335,.T.);
#422=ORIENTED_EDGE('',*,*,#336,.T.);
#423=ORIENTED_EDGE('',*,*,#337,.T.);
#424=ORIENTED_EDGE('',*,*,#338,.T.);
#425=ORIENTED_EDGE('',*,*,#339,.T.);
#426=ORIENTED_EDGE('',*,*,#336,.F.);
#427=ORIENTED_EDGE('',*,*,#340,.T.);
#428=ORIENTED_EDGE('',*,*,#341,.T.);
#429=ORIENTED_EDGE('',*,*,#342,.T.);
#430=ORIENTED_EDGE('',*,*,#341,.F.);
#431=ORIENTED_EDGE('',*,*,#343,.T.);
#432=ORIENTED_EDGE('',*,*,#344,.F.);
#433=ORIENTED_EDGE('',*,*,#345,.T.);
#434=ORIENTED_EDGE('',*,*,#338,.F.);
#435=ORIENTED_EDGE('',*,*,#346,.T.);
#436=ORIENTED_EDGE('',*,*,#344,.T.);
#437=ORIENTED_EDGE('',*,*,#346,.F.);
#438=ORIENTED_EDGE('',*,*,#347,.T.);
#439=ORIENTED_EDGE('',*,*,#348,.F.);
#440=ORIENTED_EDGE('',*,*,#349,.F.);
#441=ORIENTED_EDGE('',*,*,#337,.F.);
#442=ORIENTED_EDGE('',*,*,#350,.F.);
#443=ORIENTED_EDGE('',*,*,#351,.F.);
#444=ORIENTED_EDGE('',*,*,#352,.F.);
#445=ORIENTED_EDGE('',*,*,#353,.F.);
#446=ORIENTED_EDGE('',*,*,#347,.F.);
#447=ORIENTED_EDGE('',*,*,#354,.F.);
#448=ORIENTED_EDGE('',*,*,#355,.F.);
#449=ORIENTED_EDGE('',*,*,#356,.T.);
#450=ORIENTED_EDGE('',*,*,#357,.T.);
#451=ORIENTED_EDGE('',*,*,#358,.T.);
#452=ORIENTED_EDGE('',*,*,#359,.F.);
#453=ORIENTED_EDGE('',*,*,#360,.T.);
#454=ORIENTED_EDGE('',*,*,#361,.T.);
#455=ORIENTED_EDGE('',*,*,#362,.F.);
#456=ORIENTED_EDGE('',*,*,#363,.F.);
#457=ORIENTED_EDGE('',*,*,#364,.F.);
#458=ORIENTED_EDGE('',*,*,#365,.F.);
#459=ORIENTED_EDGE('',*,*,#366,.F.);
#460=ORIENTED_EDGE('',*,*,#367,.T.);
#461=ORIENTED_EDGE('',*,*,#368,.T.);
#462=ORIENTED_EDGE('',*,*,#369,.T.);
#463=ORIENTED_EDGE('',*,*,#370,.T.);
#464=ORIENTED_EDGE('',*,*,#335,.F.);
#465=ORIENTED_EDGE('',*,*,#345,.F.);
#466=ORIENTED_EDGE('',*,*,#343,.F.);
#467=ORIENTED_EDGE('',*,*,#340,.F.);
#468=ORIENTED_EDGE('',*,*,#371,.T.);
#469=ORIENTED_EDGE('',*,*,#372,.T.);
#470=ORIENTED_EDGE('',*,*,#373,.T.);
#471=ORIENTED_EDGE('',*,*,#374,.T.);
#472=ORIENTED_EDGE('',*,*,#373,.F.);
#473=ORIENTED_EDGE('',*,*,#375,.F.);
#474=ORIENTED_EDGE('',*,*,#376,.F.);
#475=ORIENTED_EDGE('',*,*,#377,.F.);
#476=ORIENTED_EDGE('',*,*,#367,.F.);
#477=ORIENTED_EDGE('',*,*,#378,.T.);
#478=ORIENTED_EDGE('',*,*,#379,.T.);
#479=ORIENTED_EDGE('',*,*,#372,.F.);
#480=ORIENTED_EDGE('',*,*,#380,.T.);
#481=ORIENTED_EDGE('',*,*,#381,.F.);
#482=ORIENTED_EDGE('',*,*,#375,.T.);
#483=ORIENTED_EDGE('',*,*,#376,.T.);
#484=ORIENTED_EDGE('',*,*,#381,.T.);
#485=ORIENTED_EDGE('',*,*,#382,.T.);
#486=ORIENTED_EDGE('',*,*,#383,.T.);
#487=ORIENTED_EDGE('',*,*,#379,.F.);
#488=ORIENTED_EDGE('',*,*,#384,.T.);
#489=ORIENTED_EDGE('',*,*,#385,.F.);
#490=ORIENTED_EDGE('',*,*,#384,.F.);
#491=ORIENTED_EDGE('',*,*,#383,.F.);
#492=ORIENTED_EDGE('',*,*,#386,.F.);
#493=ORIENTED_EDGE('',*,*,#368,.F.);
#494=ORIENTED_EDGE('',*,*,#377,.T.);
#495=ORIENTED_EDGE('',*,*,#371,.F.);
#496=ORIENTED_EDGE('',*,*,#387,.F.);
#497=ORIENTED_EDGE('',*,*,#369,.F.);
#498=ORIENTED_EDGE('',*,*,#386,.T.);
#499=ORIENTED_EDGE('',*,*,#382,.F.);
#500=ORIENTED_EDGE('',*,*,#380,.F.);
#501=ORIENTED_EDGE('',*,*,#385,.T.);
#502=ORIENTED_EDGE('',*,*,#374,.F.);
#503=ORIENTED_EDGE('',*,*,#378,.F.);
#504=ORIENTED_EDGE('',*,*,#370,.F.);
#505=ORIENTED_EDGE('',*,*,#387,.T.);
#506=ORIENTED_EDGE('',*,*,#388,.F.);
#507=ORIENTED_EDGE('',*,*,#389,.T.);
#508=ORIENTED_EDGE('',*,*,#366,.T.);
#509=ORIENTED_EDGE('',*,*,#389,.F.);
#510=ORIENTED_EDGE('',*,*,#390,.F.);
#511=ORIENTED_EDGE('',*,*,#391,.T.);
#512=ORIENTED_EDGE('',*,*,#365,.T.);
#513=ORIENTED_EDGE('',*,*,#391,.F.);
#514=ORIENTED_EDGE('',*,*,#392,.F.);
#515=ORIENTED_EDGE('',*,*,#393,.T.);
#516=ORIENTED_EDGE('',*,*,#364,.T.);
#517=ORIENTED_EDGE('',*,*,#393,.F.);
#518=ORIENTED_EDGE('',*,*,#394,.F.);
#519=ORIENTED_EDGE('',*,*,#395,.T.);
#520=ORIENTED_EDGE('',*,*,#363,.T.);
#521=ORIENTED_EDGE('',*,*,#395,.F.);
#522=ORIENTED_EDGE('',*,*,#356,.F.);
#523=ORIENTED_EDGE('',*,*,#396,.T.);
#524=ORIENTED_EDGE('',*,*,#397,.F.);
#525=ORIENTED_EDGE('',*,*,#398,.F.);
#526=ORIENTED_EDGE('',*,*,#357,.F.);
#527=ORIENTED_EDGE('',*,*,#398,.T.);
#528=ORIENTED_EDGE('',*,*,#399,.F.);
#529=ORIENTED_EDGE('',*,*,#400,.F.);
#530=ORIENTED_EDGE('',*,*,#358,.F.);
#531=ORIENTED_EDGE('',*,*,#400,.T.);
#532=ORIENTED_EDGE('',*,*,#401,.F.);
#533=ORIENTED_EDGE('',*,*,#402,.F.);
#534=ORIENTED_EDGE('',*,*,#359,.T.);
#535=ORIENTED_EDGE('',*,*,#402,.T.);
#536=ORIENTED_EDGE('',*,*,#403,.F.);
#537=ORIENTED_EDGE('',*,*,#404,.F.);
#538=ORIENTED_EDGE('',*,*,#360,.F.);
#539=ORIENTED_EDGE('',*,*,#404,.T.);
#540=ORIENTED_EDGE('',*,*,#405,.F.);
#541=ORIENTED_EDGE('',*,*,#406,.F.);
#542=ORIENTED_EDGE('',*,*,#361,.F.);
#543=ORIENTED_EDGE('',*,*,#406,.T.);
#544=ORIENTED_EDGE('',*,*,#407,.F.);
#545=ORIENTED_EDGE('',*,*,#408,.F.);
#546=ORIENTED_EDGE('',*,*,#362,.T.);
#547=ORIENTED_EDGE('',*,*,#408,.T.);
#548=ORIENTED_EDGE('',*,*,#409,.F.);
#549=ORIENTED_EDGE('',*,*,#410,.F.);
#550=ORIENTED_EDGE('',*,*,#355,.T.);
#551=ORIENTED_EDGE('',*,*,#410,.T.);
#552=ORIENTED_EDGE('',*,*,#411,.F.);
#553=ORIENTED_EDGE('',*,*,#396,.F.);
#554=ORIENTED_EDGE('',*,*,#411,.T.);
#555=ORIENTED_EDGE('',*,*,#409,.T.);
#556=ORIENTED_EDGE('',*,*,#407,.T.);
#557=ORIENTED_EDGE('',*,*,#405,.T.);
#558=ORIENTED_EDGE('',*,*,#403,.T.);
#559=ORIENTED_EDGE('',*,*,#401,.T.);
#560=ORIENTED_EDGE('',*,*,#399,.T.);
#561=ORIENTED_EDGE('',*,*,#397,.T.);
#562=ORIENTED_EDGE('',*,*,#394,.T.);
#563=ORIENTED_EDGE('',*,*,#392,.T.);
#564=ORIENTED_EDGE('',*,*,#390,.T.);
#565=ORIENTED_EDGE('',*,*,#388,.T.);
#566=ORIENTED_EDGE('',*,*,#412,.T.);
#567=ORIENTED_EDGE('',*,*,#413,.T.);
#568=ORIENTED_EDGE('',*,*,#351,.T.);
#569=ORIENTED_EDGE('',*,*,#414,.T.);
#570=ORIENTED_EDGE('',*,*,#413,.F.);
#571=ORIENTED_EDGE('',*,*,#415,.F.);
#572=ORIENTED_EDGE('',*,*,#416,.F.);
#573=ORIENTED_EDGE('',*,*,#352,.T.);
#574=ORIENTED_EDGE('',*,*,#342,.F.);
#575=ORIENTED_EDGE('',*,*,#349,.T.);
#576=ORIENTED_EDGE('',*,*,#417,.F.);
#577=ORIENTED_EDGE('',*,*,#415,.T.);
#578=ORIENTED_EDGE('',*,*,#412,.F.);
#579=ORIENTED_EDGE('',*,*,#418,.T.);
#580=ORIENTED_EDGE('',*,*,#419,.T.);
#581=ORIENTED_EDGE('',*,*,#417,.T.);
#582=ORIENTED_EDGE('',*,*,#348,.T.);
#583=ORIENTED_EDGE('',*,*,#353,.T.);
#584=ORIENTED_EDGE('',*,*,#416,.T.);
#585=ORIENTED_EDGE('',*,*,#419,.F.);
#586=ORIENTED_EDGE('',*,*,#420,.T.);
#587=ORIENTED_EDGE('',*,*,#354,.T.);
#588=ORIENTED_EDGE('',*,*,#420,.F.);
#589=ORIENTED_EDGE('',*,*,#339,.F.);
#590=ORIENTED_EDGE('',*,*,#418,.F.);
#591=ORIENTED_EDGE('',*,*,#414,.F.);
#592=ORIENTED_EDGE('',*,*,#350,.T.);
#593=CYLINDRICAL_SURFACE('',#655,2.);
#594=CYLINDRICAL_SURFACE('',#658,2.);
#595=CYLINDRICAL_SURFACE('',#660,2.);
#596=CYLINDRICAL_SURFACE('',#662,2.);
#597=CYLINDRICAL_SURFACE('',#673,2.75);
#598=CYLINDRICAL_SURFACE('',#680,2.75);
#599=CYLINDRICAL_SURFACE('',#682,1.60000000000004);
#600=CYLINDRICAL_SURFACE('',#687,1.5);
#601=CYLINDRICAL_SURFACE('',#689,1.5);
#602=CYLINDRICAL_SURFACE('',#691,1.5);
#603=CYLINDRICAL_SURFACE('',#693,1.5);
#604=CYLINDRICAL_SURFACE('',#704,3.5);
#605=CYLINDRICAL_SURFACE('',#710,3.5);
#606=CYLINDRICAL_SURFACE('',#711,1.70000000000002);
#607=ADVANCED_FACE('',(#69),#593,.F.);
#608=ADVANCED_FACE('',(#70),#594,.F.);
#609=ADVANCED_FACE('',(#71),#595,.F.);
#610=ADVANCED_FACE('',(#72),#596,.F.);
#611=ADVANCED_FACE('',(#73),#49,.T.);
#612=ADVANCED_FACE('',(#74,#15),#50,.F.);
#613=ADVANCED_FACE('',(#75,#16,#17,#18,#19,#20,#21),#51,.F.);
#614=ADVANCED_FACE('',(#76),#597,.T.);
#615=ADVANCED_FACE('',(#77,#22),#52,.T.);
#616=ADVANCED_FACE('',(#78),#53,.T.);
#617=ADVANCED_FACE('',(#79),#598,.T.);
#618=ADVANCED_FACE('',(#80),#599,.F.);
#619=ADVANCED_FACE('',(#81),#54,.T.);
#620=ADVANCED_FACE('',(#82,#23),#55,.T.);
#621=ADVANCED_FACE('',(#83),#56,.T.);
#622=ADVANCED_FACE('',(#84),#600,.F.);
#623=ADVANCED_FACE('',(#85),#601,.F.);
#624=ADVANCED_FACE('',(#86),#602,.F.);
#625=ADVANCED_FACE('',(#87),#603,.F.);
#626=ADVANCED_FACE('',(#88),#57,.T.);
#627=ADVANCED_FACE('',(#89),#58,.T.);
#628=ADVANCED_FACE('',(#90),#59,.T.);
#629=ADVANCED_FACE('',(#91),#60,.T.);
#630=ADVANCED_FACE('',(#92),#61,.T.);
#631=ADVANCED_FACE('',(#93),#62,.T.);
#632=ADVANCED_FACE('',(#94),#63,.T.);
#633=ADVANCED_FACE('',(#95),#64,.T.);
#634=ADVANCED_FACE('',(#96,#24,#25,#26,#27),#65,.T.);
#635=ADVANCED_FACE('',(#97),#604,.T.);
#636=ADVANCED_FACE('',(#98),#66,.T.);
#637=ADVANCED_FACE('',(#99,#28),#67,.T.);
#638=ADVANCED_FACE('',(#100),#605,.T.);
#639=ADVANCED_FACE('',(#101),#606,.F.);
#640=ADVANCED_FACE('',(#102),#68,.T.);
#641=CLOSED_SHELL('',(#607,#608,#609,#610,#611,#612,#613,#614,#615,#616,
#617,#618,#619,#620,#621,#622,#623,#624,#625,#626,#627,#628,#629,#630,#631,
#632,#633,#634,#635,#636,#637,#638,#639,#640));
#642=DERIVED_UNIT_ELEMENT(#644,1.);
#643=DERIVED_UNIT_ELEMENT(#1075,-3.);
#644=(
MASS_UNIT()
NAMED_UNIT(*)
SI_UNIT(.KILO.,.GRAM.)
);
#645=DERIVED_UNIT((#642,#643));
#646=MEASURE_REPRESENTATION_ITEM('density measure',
POSITIVE_RATIO_MEASURE(7850.),#645);
#647=PROPERTY_DEFINITION_REPRESENTATION(#652,#649);
#648=PROPERTY_DEFINITION_REPRESENTATION(#653,#650);
#649=REPRESENTATION('material name',(#651),#1072);
#650=REPRESENTATION('density',(#646),#1072);
#651=DESCRIPTIVE_REPRESENTATION_ITEM('Steel','Steel');
#652=PROPERTY_DEFINITION('material property','material name',#1082);
#653=PROPERTY_DEFINITION('material property','density of part',#1082);
#654=AXIS2_PLACEMENT_3D('',#893,#713,#714);
#655=AXIS2_PLACEMENT_3D('',#894,#715,#716);
#656=AXIS2_PLACEMENT_3D('',#899,#718,#719);
#657=AXIS2_PLACEMENT_3D('',#902,#721,#722);
#658=AXIS2_PLACEMENT_3D('',#903,#723,#724);
#659=AXIS2_PLACEMENT_3D('',#908,#727,#728);
#660=AXIS2_PLACEMENT_3D('',#909,#729,#730);
#661=AXIS2_PLACEMENT_3D('',#914,#733,#734);
#662=AXIS2_PLACEMENT_3D('',#915,#735,#736);
#663=AXIS2_PLACEMENT_3D('',#918,#739,#740);
#664=AXIS2_PLACEMENT_3D('',#924,#744,#745);
#665=AXIS2_PLACEMENT_3D('',#928,#747,#748);
#666=AXIS2_PLACEMENT_3D('',#931,#750,#751);
#667=AXIS2_PLACEMENT_3D('',#933,#752,#753);
#668=AXIS2_PLACEMENT_3D('',#934,#754,#755);
#669=AXIS2_PLACEMENT_3D('',#952,#764,#765);
#670=AXIS2_PLACEMENT_3D('',#954,#766,#767);
#671=AXIS2_PLACEMENT_3D('',#956,#768,#769);
#672=AXIS2_PLACEMENT_3D('',#958,#770,#771);
#673=AXIS2_PLACEMENT_3D('',#967,#776,#777);
#674=AXIS2_PLACEMENT_3D('',#970,#778,#779);
#675=AXIS2_PLACEMENT_3D('',#974,#781,#782);
#676=AXIS2_PLACEMENT_3D('',#976,#784,#785);
#677=AXIS2_PLACEMENT_3D('',#980,#787,#788);
#678=AXIS2_PLACEMENT_3D('',#984,#791,#792);
#679=AXIS2_PLACEMENT_3D('',#985,#793,#794);
#680=AXIS2_PLACEMENT_3D('',#989,#797,#798);
#681=AXIS2_PLACEMENT_3D('',#991,#799,#800);
#682=AXIS2_PLACEMENT_3D('',#993,#802,#803);
#683=AXIS2_PLACEMENT_3D('',#996,#805,#806);
#684=AXIS2_PLACEMENT_3D('',#997,#807,#808);
#685=AXIS2_PLACEMENT_3D('',#999,#810,#811);
#686=AXIS2_PLACEMENT_3D('',#1001,#813,#814);
#687=AXIS2_PLACEMENT_3D('',#1002,#815,#816);
#688=AXIS2_PLACEMENT_3D('',#1004,#817,#818);
#689=AXIS2_PLACEMENT_3D('',#1006,#820,#821);
#690=AXIS2_PLACEMENT_3D('',#1008,#822,#823);
#691=AXIS2_PLACEMENT_3D('',#1010,#825,#826);
#692=AXIS2_PLACEMENT_3D('',#1012,#827,#828);
#693=AXIS2_PLACEMENT_3D('',#1014,#830,#831);
#694=AXIS2_PLACEMENT_3D('',#1016,#832,#833);
#695=AXIS2_PLACEMENT_3D('',#1018,#835,#836);
#696=AXIS2_PLACEMENT_3D('',#1024,#840,#841);
#697=AXIS2_PLACEMENT_3D('',#1028,#844,#845);
#698=AXIS2_PLACEMENT_3D('',#1032,#848,#849);
#699=AXIS2_PLACEMENT_3D('',#1036,#852,#853);
#700=AXIS2_PLACEMENT_3D('',#1040,#856,#857);
#701=AXIS2_PLACEMENT_3D('',#1044,#860,#861);
#702=AXIS2_PLACEMENT_3D('',#1048,#864,#865);
#703=AXIS2_PLACEMENT_3D('',#1050,#867,#868);
#704=AXIS2_PLACEMENT_3D('',#1051,#869,#870);
#705=AXIS2_PLACEMENT_3D('',#1054,#871,#872);
#706=AXIS2_PLACEMENT_3D('',#1057,#875,#876);
#707=AXIS2_PLACEMENT_3D('',#1061,#879,#880);
#708=AXIS2_PLACEMENT_3D('',#1062,#881,#882);
#709=AXIS2_PLACEMENT_3D('',#1065,#884,#885);
#710=AXIS2_PLACEMENT_3D('',#1066,#886,#887);
#711=AXIS2_PLACEMENT_3D('',#1067,#888,#889);
#712=AXIS2_PLACEMENT_3D('',#1069,#891,#892);
#713=DIRECTION('axis',(0.,0.,1.));
#714=DIRECTION('refdir',(1.,0.,0.));
#715=DIRECTION('center_axis',(0.,1.,0.));
#716=DIRECTION('ref_axis',(-0.70710678118657,0.,0.707106781186526));
#717=DIRECTION('',(0.,-1.,0.));
#718=DIRECTION('center_axis',(-0.70710678118654,-0.707106781186555,0.));
#719=DIRECTION('ref_axis',(0.707106781186555,-0.70710678118654,0.));
#720=DIRECTION('',(0.,1.,0.));
#721=DIRECTION('center_axis',(-0.707106781186546,0.707106781186549,0.));
#722=DIRECTION('ref_axis',(-0.707106781186549,-0.707106781186546,0.));
#723=DIRECTION('center_axis',(-1.,0.,0.));
#724=DIRECTION('ref_axis',(0.,0.70710678118656,0.707106781186535));
#725=DIRECTION('',(1.,0.,0.));
#726=DIRECTION('',(-1.,0.,0.));
#727=DIRECTION('center_axis',(-0.70710678118654,0.707106781186555,0.));
#728=DIRECTION('ref_axis',(0.707106781186555,0.70710678118654,0.));
#729=DIRECTION('center_axis',(0.,1.,0.));
#730=DIRECTION('ref_axis',(0.707106781186566,0.,0.707106781186529));
#731=DIRECTION('',(0.,-1.,0.));
#732=DIRECTION('',(0.,1.,0.));
#733=DIRECTION('center_axis',(-0.707106781186547,-0.707106781186548,0.));
#734=DIRECTION('ref_axis',(0.707106781186548,-0.707106781186547,0.));
#735=DIRECTION('center_axis',(-1.,0.,0.));
#736=DIRECTION('ref_axis',(0.,-0.707106781186573,0.707106781186522));
#737=DIRECTION('',(1.,0.,0.));
#738=DIRECTION('',(-1.,0.,0.));
#739=DIRECTION('center_axis',(0.,1.,0.));
#740=DIRECTION('ref_axis',(0.,0.,-1.));
#741=DIRECTION('',(0.,0.,-1.));
#742=DIRECTION('',(1.,0.,0.));
#743=DIRECTION('',(0.,0.,-1.));
#744=DIRECTION('center_axis',(-1.,0.,0.));
#745=DIRECTION('ref_axis',(0.,-1.,0.));
#746=DIRECTION('',(0.,0.,1.));
#747=DIRECTION('center_axis',(-1.,0.,0.));
#748=DIRECTION('ref_axis',(0.,-0.707106781186555,-0.70710678118654));
#749=DIRECTION('',(0.,-1.,0.));
#750=DIRECTION('center_axis',(-1.,0.,0.));
#751=DIRECTION('ref_axis',(0.,0.707106781186555,-0.70710678118654));
#752=DIRECTION('center_axis',(1.,0.,0.));
#753=DIRECTION('ref_axis',(0.,-1.,0.));
#754=DIRECTION('center_axis',(0.,0.,1.));
#755=DIRECTION('ref_axis',(-1.,0.,0.));
#756=DIRECTION('',(0.,-1.,0.));
#757=DIRECTION('',(1.,0.,0.));
#758=DIRECTION('',(0.,-1.,0.));
#759=DIRECTION('',(1.,-7.10542735760087E-15,0.));
#760=DIRECTION('',(-1.26882631385732E-14,-1.,0.));
#761=DIRECTION('',(1.,0.,0.));
#762=DIRECTION('',(0.,-1.,0.));
#763=DIRECTION('',(1.,0.,0.));
#764=DIRECTION('center_axis',(0.,0.,-1.));
#765=DIRECTION('ref_axis',(-1.,0.,0.));
#766=DIRECTION('center_axis',(0.,0.,-1.));
#767=DIRECTION('ref_axis',(-1.,0.,0.));
#768=DIRECTION('center_axis',(0.,0.,-1.));
#769=DIRECTION('ref_axis',(-1.,0.,0.));
#770=DIRECTION('center_axis',(0.,0.,-1.));
#771=DIRECTION('ref_axis',(-1.,0.,0.));
#772=DIRECTION('',(0.,-1.,0.));
#773=DIRECTION('',(1.,0.,0.));
#774=DIRECTION('',(0.,1.,0.));
#775=DIRECTION('',(-1.,0.,0.));
#776=DIRECTION('center_axis',(1.,0.,0.));
#777=DIRECTION('ref_axis',(0.,0.707106781186502,-0.707106781186593));
#778=DIRECTION('center_axis',(-1.,0.,0.));
#779=DIRECTION('ref_axis',(0.,0.707106781186502,-0.707106781186593));
#780=DIRECTION('',(-1.,0.,0.));
#781=DIRECTION('center_axis',(1.,0.,0.));
#782=DIRECTION('ref_axis',(0.,0.707106781186502,-0.707106781186593));
#783=DIRECTION('',(1.,0.,0.));
#784=DIRECTION('center_axis',(-1.,0.,0.));
#785=DIRECTION('ref_axis',(0.,1.,0.));
#786=DIRECTION('',(0.,1.,0.));
#787=DIRECTION('center_axis',(1.,0.,0.));
#788=DIRECTION('ref_axis',(0.,-0.707106781186502,-0.707106781186593));
#789=DIRECTION('',(0.,0.,-1.));
#790=DIRECTION('',(0.,0.,-1.));
#791=DIRECTION('center_axis',(1.,0.,0.));
#792=DIRECTION('ref_axis',(0.,-1.,0.));
#793=DIRECTION('center_axis',(0.,0.,-1.));
#794=DIRECTION('ref_axis',(-1.,0.,0.));
#795=DIRECTION('',(0.,-1.,0.));
#796=DIRECTION('',(1.,0.,0.));
#797=DIRECTION('center_axis',(-1.,0.,0.));
#798=DIRECTION('ref_axis',(0.,-0.707106781186502,-0.707106781186593));
#799=DIRECTION('center_axis',(-1.,0.,0.));
#800=DIRECTION('ref_axis',(0.,-0.707106781186502,-0.707106781186593));
#801=DIRECTION('',(-1.,0.,0.));
#802=DIRECTION('center_axis',(1.,0.,0.));
#803=DIRECTION('ref_axis',(0.,-1.,0.));
#804=DIRECTION('',(1.,0.,0.));
#805=DIRECTION('center_axis',(-1.,0.,0.));
#806=DIRECTION('ref_axis',(0.,-1.,0.));
#807=DIRECTION('center_axis',(0.,-1.,0.));
#808=DIRECTION('ref_axis',(-1.,0.,0.));
#809=DIRECTION('',(0.,0.,-1.));
#810=DIRECTION('center_axis',(1.,0.,0.));
#811=DIRECTION('ref_axis',(0.,-1.,0.));
#812=DIRECTION('',(0.,0.,-1.));
#813=DIRECTION('center_axis',(0.,1.,0.));
#814=DIRECTION('ref_axis',(1.,0.,0.));
#815=DIRECTION('center_axis',(0.,0.,1.));
#816=DIRECTION('ref_axis',(-1.,0.,0.));
#817=DIRECTION('center_axis',(0.,0.,-1.));
#818=DIRECTION('ref_axis',(-1.,0.,0.));
#819=DIRECTION('',(0.,0.,-1.));
#820=DIRECTION('center_axis',(0.,0.,1.));
#821=DIRECTION('ref_axis',(-1.,0.,0.));
#822=DIRECTION('center_axis',(0.,0.,-1.));
#823=DIRECTION('ref_axis',(-1.,0.,0.));
#824=DIRECTION('',(0.,0.,-1.));
#825=DIRECTION('center_axis',(0.,0.,1.));
#826=DIRECTION('ref_axis',(-1.,0.,0.));
#827=DIRECTION('center_axis',(0.,0.,-1.));
#828=DIRECTION('ref_axis',(-1.,0.,0.));
#829=DIRECTION('',(0.,0.,-1.));
#830=DIRECTION('center_axis',(0.,0.,1.));
#831=DIRECTION('ref_axis',(-1.,0.,0.));
#832=DIRECTION('center_axis',(0.,0.,-1.));
#833=DIRECTION('ref_axis',(-1.,0.,0.));
#834=DIRECTION('',(0.,0.,-1.));
#835=DIRECTION('center_axis',(0.,1.,0.));
#836=DIRECTION('ref_axis',(-1.,0.,0.));
#837=DIRECTION('',(0.,0.,1.));
#838=DIRECTION('',(-1.,0.,0.));
#839=DIRECTION('',(0.,0.,1.));
#840=DIRECTION('center_axis',(1.,0.,0.));
#841=DIRECTION('ref_axis',(0.,1.,0.));
#842=DIRECTION('',(0.,1.,0.));
#843=DIRECTION('',(0.,0.,1.));
#844=DIRECTION('center_axis',(7.10542735760087E-15,1.,0.));
#845=DIRECTION('ref_axis',(-1.,7.10542735760087E-15,0.));
#846=DIRECTION('',(-1.,7.10542735760087E-15,0.));
#847=DIRECTION('',(0.,0.,1.));
#848=DIRECTION('center_axis',(-1.,1.26882631385732E-14,0.));
#849=DIRECTION('ref_axis',(-1.26882631385732E-14,-1.,0.));
#850=DIRECTION('',(-1.26882631385732E-14,-1.,0.));
#851=DIRECTION('',(0.,0.,1.));
#852=DIRECTION('center_axis',(0.,1.,0.));
#853=DIRECTION('ref_axis',(-1.,0.,0.));
#854=DIRECTION('',(-1.,0.,0.));
#855=DIRECTION('',(0.,0.,1.));
#856=DIRECTION('center_axis',(1.,0.,0.));
#857=DIRECTION('ref_axis',(0.,1.,0.));
#858=DIRECTION('',(0.,1.,0.));
#859=DIRECTION('',(0.,0.,1.));
#860=DIRECTION('center_axis',(0.,-1.,0.));
#861=DIRECTION('ref_axis',(1.,0.,0.));
#862=DIRECTION('',(1.,0.,0.));
#863=DIRECTION('',(0.,0.,1.));
#864=DIRECTION('center_axis',(-1.,0.,0.));
#865=DIRECTION('ref_axis',(0.,-1.,0.));
#866=DIRECTION('',(0.,-1.,0.));
#867=DIRECTION('center_axis',(0.,0.,1.));
#868=DIRECTION('ref_axis',(-1.,0.,0.));
#869=DIRECTION('center_axis',(-1.,0.,0.));
#870=DIRECTION('ref_axis',(0.,-0.707106781186555,-0.70710678118654));
#871=DIRECTION('center_axis',(1.,0.,0.));
#872=DIRECTION('ref_axis',(0.,-0.707106781186555,-0.70710678118654));
#873=DIRECTION('',(1.,0.,0.));
#874=DIRECTION('',(-1.,0.,0.));
#875=DIRECTION('center_axis',(0.,0.,-1.));
#876=DIRECTION('ref_axis',(0.,-1.,0.));
#877=DIRECTION('',(0.,-1.,0.));
#878=DIRECTION('',(-1.,0.,0.));
#879=DIRECTION('center_axis',(-1.,0.,0.));
#880=DIRECTION('ref_axis',(0.,-1.,0.));
#881=DIRECTION('center_axis',(1.,0.,0.));
#882=DIRECTION('ref_axis',(0.,0.707106781186555,-0.70710678118654));
#883=DIRECTION('',(0.,0.,1.));
#884=DIRECTION('center_axis',(1.,0.,0.));
#885=DIRECTION('ref_axis',(0.,-1.,0.));
#886=DIRECTION('center_axis',(-1.,0.,0.));
#887=DIRECTION('ref_axis',(0.,0.707106781186555,-0.70710678118654));
#888=DIRECTION('center_axis',(-1.,0.,0.));
#889=DIRECTION('ref_axis',(0.,-1.,0.));
#890=DIRECTION('',(1.,0.,0.));
#891=DIRECTION('center_axis',(0.,-1.,0.));
#892=DIRECTION('ref_axis',(0.,0.,1.));
#893=CARTESIAN_POINT('',(0.,0.,0.));
#894=CARTESIAN_POINT('Origin',(57.5136751702519,244.658155034251,675.101864602531));
#895=CARTESIAN_POINT('',(57.5136751702519,250.658155034251,677.101864602531));
#896=CARTESIAN_POINT('',(57.5136751702519,238.658155034251,677.101864602531));
#897=CARTESIAN_POINT('',(57.5136751702519,244.658155034251,677.101864602531));
#898=CARTESIAN_POINT('',(55.5136751702519,240.658155034251,675.101864602531));
#899=CARTESIAN_POINT('Origin',(57.5136751702519,238.658155034251,675.101864602531));
#900=CARTESIAN_POINT('',(55.5136751702519,248.658155034251,675.101864602531));
#901=CARTESIAN_POINT('',(55.5136751702519,244.658155034251,675.101864602531));
#902=CARTESIAN_POINT('Origin',(57.5136751702519,250.658155034251,675.101864602531));
#903=CARTESIAN_POINT('Origin',(49.7636751702519,238.658155034251,675.101864602531));
#904=CARTESIAN_POINT('',(32.5136751702519,240.658155034251,675.101864602531));
#905=CARTESIAN_POINT('',(49.7636751702519,240.658155034251,675.101864602531));
#906=CARTESIAN_POINT('',(30.5136751702519,238.658155034251,677.101864602531));
#907=CARTESIAN_POINT('',(49.7636751702519,238.658155034251,677.101864602531));
#908=CARTESIAN_POINT('Origin',(30.5136751702519,238.658155034251,675.101864602531));
#909=CARTESIAN_POINT('Origin',(30.5136751702519,244.658155034251,675.101864602531));
#910=CARTESIAN_POINT('',(32.5136751702519,248.658155034251,675.101864602531));
#911=CARTESIAN_POINT('',(32.5136751702519,244.658155034251,675.101864602531));
#912=CARTESIAN_POINT('',(30.5136751702519,250.658155034251,677.101864602531));
#913=CARTESIAN_POINT('',(30.5136751702519,244.658155034251,677.101864602531));
#914=CARTESIAN_POINT('Origin',(30.5136751702519,250.658155034251,675.101864602531));
#915=CARTESIAN_POINT('Origin',(49.7636751702519,250.658155034251,675.101864602531));
#916=CARTESIAN_POINT('',(49.7636751702519,250.658155034251,677.101864602531));
#917=CARTESIAN_POINT('',(49.7636751702519,248.658155034251,675.101864602531));
#918=CARTESIAN_POINT('Origin',(55.5136751702519,248.658155034251,672.101864602531));
#919=CARTESIAN_POINT('',(55.5136751702519,248.658155034251,668.601864602531));
#920=CARTESIAN_POINT('',(55.5136751702519,248.658155034251,672.101864602531));
#921=CARTESIAN_POINT('',(32.5136751702519,248.658155034251,668.601864602531));
#922=CARTESIAN_POINT('',(55.5136751702519,248.658155034251,668.601864602531));
#923=CARTESIAN_POINT('',(32.5136751702519,248.658155034251,672.101864602531));
#924=CARTESIAN_POINT('Origin',(55.5136751702519,244.658155034251,668.601864602531));
#925=CARTESIAN_POINT('',(55.5136751702519,240.658155034251,668.601864602531));
#926=CARTESIAN_POINT('',(55.5136751702519,240.658155034251,662.101864602531));
#927=CARTESIAN_POINT('',(55.5136751702519,244.158155034251,665.101864602531));
#928=CARTESIAN_POINT('Origin',(55.5136751702519,244.158155034251,668.601864602531));
#929=CARTESIAN_POINT('',(55.5136751702519,245.158155034251,665.101864602531));
#930=CARTESIAN_POINT('',(55.5136751702519,248.658155034251,665.101864602531));
#931=CARTESIAN_POINT('Origin',(55.5136751702519,245.158155034251,668.601864602531));
#932=CARTESIAN_POINT('',(55.5136751702519,246.358155034251,668.601864602531));
#933=CARTESIAN_POINT('Origin',(55.5136751702519,244.658155034251,668.601864602531));
#934=CARTESIAN_POINT('Origin',(44.0136751702519,244.658155034251,677.101864602531));
#935=CARTESIAN_POINT('',(19.0136751702519,263.158155034251,677.101864602531));
#936=CARTESIAN_POINT('',(19.0136751702519,226.158155034251,677.101864602531));
#937=CARTESIAN_POINT('',(19.0136751702519,233.158155034251,677.101864602531));
#938=CARTESIAN_POINT('',(39.0136751702519,263.158155034251,677.101864602531));
#939=CARTESIAN_POINT('',(19.0136751702519,263.158155034251,677.101864602531));
#940=CARTESIAN_POINT('',(39.0136751702519,256.158155034251,677.101864602531));
#941=CARTESIAN_POINT('',(39.0136751702519,263.158155034251,677.101864602531));
#942=CARTESIAN_POINT('',(49.0136751702521,256.158155034251,677.101864602531));
#943=CARTESIAN_POINT('',(39.0136751702519,256.158155034251,677.101864602531));
#944=CARTESIAN_POINT('',(49.0136751702522,263.158155034251,677.101864602531));
#945=CARTESIAN_POINT('',(49.0136751702522,263.158155034251,677.101864602531));
#946=CARTESIAN_POINT('',(69.0136751702519,263.158155034251,677.101864602531));
#947=CARTESIAN_POINT('',(19.0136751702519,263.158155034251,677.101864602531));
#948=CARTESIAN_POINT('',(69.0136751702519,226.158155034251,677.101864602531));
#949=CARTESIAN_POINT('',(69.0136751702519,263.158155034251,677.101864602531));
#950=CARTESIAN_POINT('',(19.0136751702519,226.158155034251,677.101864602531));
#951=CARTESIAN_POINT('',(30.5136751702519,259.158155034251,677.101864602531));
#952=CARTESIAN_POINT('Origin',(29.0136751702519,259.158155034251,677.101864602531));
#953=CARTESIAN_POINT('',(60.5136751702521,259.158155034251,677.101864602531));
#954=CARTESIAN_POINT('Origin',(59.0136751702521,259.158155034251,677.101864602531));
#955=CARTESIAN_POINT('',(30.5136751702519,230.158155034251,677.101864602531));
#956=CARTESIAN_POINT('Origin',(29.0136751702519,230.158155034251,677.101864602531));
#957=CARTESIAN_POINT('',(60.5136751702518,230.158155034251,677.101864602531));
#958=CARTESIAN_POINT('Origin',(59.0136751702518,230.158155034251,677.101864602531));
#959=CARTESIAN_POINT('',(42.0136751702519,234.158155034251,677.101864602531));
#960=CARTESIAN_POINT('',(42.0136751702519,228.158155034251,677.101864602531));
#961=CARTESIAN_POINT('',(42.0136751702519,236.408155034251,677.101864602531));
#962=CARTESIAN_POINT('',(46.0136751702519,228.158155034251,677.101864602531));
#963=CARTESIAN_POINT('',(45.0136751702519,228.158155034251,677.101864602531));
#964=CARTESIAN_POINT('',(46.0136751702519,234.158155034251,677.101864602531));
#965=CARTESIAN_POINT('',(46.0136751702519,239.408155034251,677.101864602531));
#966=CARTESIAN_POINT('',(43.0136751702519,234.158155034251,677.101864602531));
#967=CARTESIAN_POINT('Origin',(43.0136751702519,231.408155034251,671.851864602531));
#968=CARTESIAN_POINT('',(46.0136751702519,234.158155034251,671.851864602531));
#969=CARTESIAN_POINT('',(46.0136751702519,231.408155034251,669.101864602531));
#970=CARTESIAN_POINT('Origin',(46.0136751702519,231.408155034251,671.851864602531));
#971=CARTESIAN_POINT('',(42.0136751702519,231.408155034251,669.101864602531));
#972=CARTESIAN_POINT('',(43.0136751702519,231.408155034251,669.101864602531));
#973=CARTESIAN_POINT('',(42.0136751702519,234.158155034251,671.851864602531));
#974=CARTESIAN_POINT('Origin',(42.0136751702519,231.408155034251,671.851864602531));
#975=CARTESIAN_POINT('',(43.0136751702519,234.158155034251,671.851864602531));
#976=CARTESIAN_POINT('Origin',(42.0136751702519,228.158155034251,677.101864602531));
#977=CARTESIAN_POINT('',(42.0136751702519,230.908155034251,669.101864602531));
#978=CARTESIAN_POINT('',(42.0136751702519,234.158155034251,669.101864602531));
#979=CARTESIAN_POINT('',(42.0136751702519,228.158155034251,671.851864602531));
#980=CARTESIAN_POINT('Origin',(42.0136751702519,230.908155034251,671.851864602531));
#981=CARTESIAN_POINT('',(42.0136751702519,228.158155034251,677.101864602531));
#982=CARTESIAN_POINT('',(42.0136751702519,234.158155034251,677.101864602531));
#983=CARTESIAN_POINT('',(42.0136751702519,232.758155034251,672.101864602531));
#984=CARTESIAN_POINT('Origin',(42.0136751702519,231.158155034251,672.101864602531));
#985=CARTESIAN_POINT('Origin',(44.0136751702519,231.158155034251,669.101864602531));
#986=CARTESIAN_POINT('',(46.0136751702519,230.908155034251,669.101864602531));
#987=CARTESIAN_POINT('',(46.0136751702519,228.158155034251,669.101864602531));
#988=CARTESIAN_POINT('',(45.0136751702519,230.908155034251,669.101864602531));
#989=CARTESIAN_POINT('Origin',(45.0136751702519,230.908155034251,671.851864602531));
#990=CARTESIAN_POINT('',(46.0136751702519,228.158155034251,671.851864602531));
#991=CARTESIAN_POINT('Origin',(46.0136751702519,230.908155034251,671.851864602531));
#992=CARTESIAN_POINT('',(45.0136751702519,228.158155034251,671.851864602531));
#993=CARTESIAN_POINT('Origin',(42.0136751702519,231.158155034251,672.101864602531));
#994=CARTESIAN_POINT('',(46.0136751702519,232.758155034251,672.101864602531));
#995=CARTESIAN_POINT('',(42.0136751702519,232.758155034251,672.101864602531));
#996=CARTESIAN_POINT('Origin',(46.0136751702519,231.158155034251,672.101864602531));
#997=CARTESIAN_POINT('Origin',(46.0136751702519,228.158155034251,677.101864602531));
#998=CARTESIAN_POINT('',(46.0136751702519,228.158155034251,677.101864602531));
#999=CARTESIAN_POINT('Origin',(46.0136751702519,234.158155034251,677.101864602531));
#1000=CARTESIAN_POINT('',(46.0136751702519,234.158155034251,677.101864602531));
#1001=CARTESIAN_POINT('Origin',(42.0136751702519,234.158155034251,677.101864602531));
#1002=CARTESIAN_POINT('Origin',(59.0136751702518,230.158155034251,677.101864602531));
#1003=CARTESIAN_POINT('',(60.5136751702518,230.158155034251,682.101864602531));
#1004=CARTESIAN_POINT('Origin',(59.0136751702518,230.158155034251,682.101864602531));
#1005=CARTESIAN_POINT('',(60.5136751702518,230.158155034251,677.101864602531));
#1006=CARTESIAN_POINT('Origin',(29.0136751702519,230.158155034251,677.101864602531));
#1007=CARTESIAN_POINT('',(30.5136751702519,230.158155034251,682.101864602531));
#1008=CARTESIAN_POINT('Origin',(29.0136751702519,230.158155034251,682.101864602531));
#1009=CARTESIAN_POINT('',(30.5136751702519,230.158155034251,677.101864602531));
#1010=CARTESIAN_POINT('Origin',(59.0136751702521,259.158155034251,677.101864602531));
#1011=CARTESIAN_POINT('',(60.5136751702521,259.158155034251,682.101864602531));
#1012=CARTESIAN_POINT('Origin',(59.0136751702521,259.158155034251,682.101864602531));
#1013=CARTESIAN_POINT('',(60.5136751702521,259.158155034251,677.101864602531));
#1014=CARTESIAN_POINT('Origin',(29.0136751702519,259.158155034251,677.101864602531));
#1015=CARTESIAN_POINT('',(30.5136751702519,259.158155034251,682.101864602531));
#1016=CARTESIAN_POINT('Origin',(29.0136751702519,259.158155034251,682.101864602531));
#1017=CARTESIAN_POINT('',(30.5136751702519,259.158155034251,677.101864602531));
#1018=CARTESIAN_POINT('Origin',(39.0136751702519,263.158155034251,677.101864602531));
#1019=CARTESIAN_POINT('',(19.0136751702519,263.158155034251,682.101864602531));
#1020=CARTESIAN_POINT('',(19.0136751702519,263.158155034251,677.101864602531));
#1021=CARTESIAN_POINT('',(39.0136751702519,263.158155034251,682.101864602531));
#1022=CARTESIAN_POINT('',(19.0136751702519,263.158155034251,682.101864602531));
#1023=CARTESIAN_POINT('',(39.0136751702519,263.158155034251,677.101864602531));
#1024=CARTESIAN_POINT('Origin',(39.0136751702519,256.158155034251,677.101864602531));
#1025=CARTESIAN_POINT('',(39.0136751702519,256.158155034251,682.101864602531));
#1026=CARTESIAN_POINT('',(39.0136751702519,263.158155034251,682.101864602531));
#1027=CARTESIAN_POINT('',(39.0136751702519,256.158155034251,677.101864602531));
#1028=CARTESIAN_POINT('Origin',(49.0136751702521,256.158155034251,677.101864602531));
#1029=CARTESIAN_POINT('',(49.0136751702521,256.158155034251,682.101864602531));
#1030=CARTESIAN_POINT('',(39.0136751702519,256.158155034251,682.101864602531));
#1031=CARTESIAN_POINT('',(49.0136751702521,256.158155034251,677.101864602531));
#1032=CARTESIAN_POINT('Origin',(49.0136751702522,263.158155034251,677.101864602531));
#1033=CARTESIAN_POINT('',(49.0136751702522,263.158155034251,682.101864602531));
#1034=CARTESIAN_POINT('',(49.0136751702522,263.158155034251,682.101864602531));
#1035=CARTESIAN_POINT('',(49.0136751702522,263.158155034251,677.101864602531));
#1036=CARTESIAN_POINT('Origin',(69.0136751702519,263.158155034251,677.101864602531));
#1037=CARTESIAN_POINT('',(69.0136751702519,263.158155034251,682.101864602531));
#1038=CARTESIAN_POINT('',(19.0136751702519,263.158155034251,682.101864602531));
#1039=CARTESIAN_POINT('',(69.0136751702519,263.158155034251,677.101864602531));
#1040=CARTESIAN_POINT('Origin',(69.0136751702519,226.158155034251,677.101864602531));
#1041=CARTESIAN_POINT('',(69.0136751702519,226.158155034251,682.101864602531));
#1042=CARTESIAN_POINT('',(69.0136751702519,263.158155034251,682.101864602531));
#1043=CARTESIAN_POINT('',(69.0136751702519,226.158155034251,677.101864602531));
#1044=CARTESIAN_POINT('Origin',(19.0136751702519,226.158155034251,677.101864602531));
#1045=CARTESIAN_POINT('',(19.0136751702519,226.158155034251,682.101864602531));
#1046=CARTESIAN_POINT('',(19.0136751702519,226.158155034251,682.101864602531));
#1047=CARTESIAN_POINT('',(19.0136751702519,226.158155034251,677.101864602531));
#1048=CARTESIAN_POINT('Origin',(19.0136751702519,263.158155034251,677.101864602531));
#1049=CARTESIAN_POINT('',(19.0136751702519,233.158155034251,682.101864602531));
#1050=CARTESIAN_POINT('Origin',(44.0136751702519,244.658155034251,682.101864602531));
#1051=CARTESIAN_POINT('Origin',(55.5136751702519,244.158155034251,668.601864602531));
#1052=CARTESIAN_POINT('',(32.5136751702519,240.658155034251,668.601864602531));
#1053=CARTESIAN_POINT('',(32.5136751702519,244.158155034251,665.101864602531));
#1054=CARTESIAN_POINT('Origin',(32.5136751702519,244.158155034251,668.601864602531));
#1055=CARTESIAN_POINT('',(55.5136751702519,244.158155034251,665.101864602531));
#1056=CARTESIAN_POINT('',(55.5136751702519,240.658155034251,668.601864602531));
#1057=CARTESIAN_POINT('Origin',(55.5136751702519,248.658155034251,665.101864602531));
#1058=CARTESIAN_POINT('',(32.5136751702519,245.158155034251,665.101864602531));
#1059=CARTESIAN_POINT('',(32.5136751702519,248.658155034251,665.101864602531));
#1060=CARTESIAN_POINT('',(55.5136751702519,245.158155034251,665.101864602531));
#1061=CARTESIAN_POINT('Origin',(32.5136751702519,244.658155034251,668.601864602531));
#1062=CARTESIAN_POINT('Origin',(32.5136751702519,245.158155034251,668.601864602531));
#1063=CARTESIAN_POINT('',(32.5136751702519,240.658155034251,662.101864602531));
#1064=CARTESIAN_POINT('',(32.5136751702519,246.358155034251,668.601864602531));
#1065=CARTESIAN_POINT('Origin',(32.5136751702519,244.658155034251,668.601864602531));
#1066=CARTESIAN_POINT('Origin',(55.5136751702519,245.158155034251,668.601864602531));
#1067=CARTESIAN_POINT('Origin',(55.5136751702519,244.658155034251,668.601864602531));
#1068=CARTESIAN_POINT('',(55.5136751702519,246.358155034251,668.601864602531));
#1069=CARTESIAN_POINT('Origin',(55.5136751702519,240.658155034251,665.101864602531));
#1070=UNCERTAINTY_MEASURE_WITH_UNIT(LENGTH_MEASURE(0.01),#1074,
'DISTANCE_ACCURACY_VALUE',
'Maximum model space distance between geometric entities at asserted c
onnectivities');
#1071=UNCERTAINTY_MEASURE_WITH_UNIT(LENGTH_MEASURE(0.01),#1074,
'DISTANCE_ACCURACY_VALUE',
'Maximum model space distance between geometric entities at asserted c
onnectivities');
#1072=(
GEOMETRIC_REPRESENTATION_CONTEXT(3)
GLOBAL_UNCERTAINTY_ASSIGNED_CONTEXT((#1070))
GLOBAL_UNIT_ASSIGNED_CONTEXT((#1074,#1076,#1077))
REPRESENTATION_CONTEXT('','3D')
);
#1073=(
GEOMETRIC_REPRESENTATION_CONTEXT(3)
GLOBAL_UNCERTAINTY_ASSIGNED_CONTEXT((#1071))
GLOBAL_UNIT_ASSIGNED_CONTEXT((#1074,#1076,#1077))
REPRESENTATION_CONTEXT('','3D')
);
#1074=(
LENGTH_UNIT()
NAMED_UNIT(*)
SI_UNIT(.MILLI.,.METRE.)
);
#1075=(
LENGTH_UNIT()
NAMED_UNIT(*)
SI_UNIT($,.METRE.)
);
#1076=(
NAMED_UNIT(*)
PLANE_ANGLE_UNIT()
SI_UNIT($,.RADIAN.)
);
#1077=(
NAMED_UNIT(*)
SI_UNIT($,.STERADIAN.)
SOLID_ANGLE_UNIT()
);
#1078=SHAPE_DEFINITION_REPRESENTATION(#1079,#1080);
#1079=PRODUCT_DEFINITION_SHAPE('',$,#1082);
#1080=SHAPE_REPRESENTATION('',(#654),#1072);
#1081=PRODUCT_DEFINITION_CONTEXT('part definition',#1086,'design');
#1082=PRODUCT_DEFINITION('Cam Base Mount','Cam Base Mount',#1083,#1081);
#1083=PRODUCT_DEFINITION_FORMATION('',$,#1088);
#1084=PRODUCT_RELATED_PRODUCT_CATEGORY('Cam Base Mount',
'Cam Base Mount',(#1088));
#1085=APPLICATION_PROTOCOL_DEFINITION('international standard',
'automotive_design',2009,#1086);
#1086=APPLICATION_CONTEXT(
'Core Data for Automotive Mechanical Design Process');
#1087=PRODUCT_CONTEXT('part definition',#1086,'mechanical');
#1088=PRODUCT('Cam Base Mount','Cam Base Mount',$,(#1087));
#1089=PRESENTATION_STYLE_ASSIGNMENT((#1091));
#1090=PRESENTATION_STYLE_ASSIGNMENT((#1092));
#1091=SURFACE_STYLE_USAGE(.BOTH.,#1093);
#1092=SURFACE_STYLE_USAGE(.BOTH.,#1094);
#1093=SURFACE_SIDE_STYLE('',(#1095));
#1094=SURFACE_SIDE_STYLE('',(#1096));
#1095=SURFACE_STYLE_FILL_AREA(#1097);
#1096=SURFACE_STYLE_FILL_AREA(#1098);
#1097=FILL_AREA_STYLE('Steel - Satin',(#1099));
#1098=FILL_AREA_STYLE('EPX 86FR (with Carbon M2 M3 L1 3D Printers)',(#1100));
#1099=FILL_AREA_STYLE_COLOUR('Steel - Satin',#1101);
#1100=FILL_AREA_STYLE_COLOUR(
'EPX 86FR (with Carbon M2 M3 L1 3D Printers)',#1102);
#1101=COLOUR_RGB('Steel - Satin',0.627450980392157,0.627450980392157,0.627450980392157);
#1102=COLOUR_RGB('EPX 86FR (with Carbon M2 M3 L1 3D Printers)',0.247058823529412,
0.247058823529412,0.247058823529412);
ENDSEC;
END-ISO-10303-21;
