ISO-10303-21;
HEADER;
/* Generated by software containing ST-Developer
 * from STEP Tools, Inc. (www.steptools.com) 
 */

FILE_DESCRIPTION(
/* description */ (''),
/* implementation_level */ '2;1');

FILE_NAME(
/* name */ 'Castor Mount Back.step',
/* time_stamp */ '2026-03-01T00:20:32+05:30',
/* author */ (''),
/* organization */ (''),
/* preprocessor_version */ 'ST-DEVELOPER v20.1',
/* originating_system */ 'Autodesk Translation Framework v14.24.0.0',
/* authorisation */ '');

FILE_SCHEMA (('AUTOMOTIVE_DESIGN { 1 0 10303 214 3 1 1 }'));
ENDSEC;

DATA;
#10=MECHANICAL_DESIGN_GEOMETRIC_PRESENTATION_REPRESENTATION('',(#13),#1193);
#11=SHAPE_REPRESENTATION_RELATIONSHIP('SRR','None',#1200,#12);
#12=ADVANCED_BREP_SHAPE_REPRESENTATION('',(#14),#1192);
#13=STYLED_ITEM('',(#1209),#14);
#14=MANIFOLD_SOLID_BREP('Castor Mount Back',#707);
#15=ELLIPSE('',#729,45.5034339363525,45.);
#16=FACE_BOUND('',#94,.T.);
#17=FACE_BOUND('',#101,.T.);
#18=FACE_BOUND('',#102,.T.);
#19=FACE_BOUND('',#103,.T.);
#20=FACE_BOUND('',#104,.T.);
#21=FACE_BOUND('',#105,.T.);
#22=FACE_BOUND('',#106,.T.);
#23=FACE_BOUND('',#107,.T.);
#24=FACE_BOUND('',#108,.T.);
#25=FACE_BOUND('',#109,.T.);
#26=FACE_BOUND('',#116,.T.);
#27=FACE_BOUND('',#117,.T.);
#28=FACE_BOUND('',#118,.T.);
#29=FACE_BOUND('',#119,.T.);
#30=FACE_BOUND('',#120,.T.);
#31=FACE_BOUND('',#121,.T.);
#32=FACE_BOUND('',#122,.T.);
#33=FACE_BOUND('',#123,.T.);
#34=FACE_BOUND('',#124,.T.);
#35=FACE_BOUND('',#137,.T.);
#36=PLANE('',#724);
#37=PLANE('',#725);
#38=PLANE('',#731);
#39=PLANE('',#732);
#40=PLANE('',#733);
#41=PLANE('',#737);
#42=PLANE('',#751);
#43=PLANE('',#757);
#44=PLANE('',#758);
#45=PLANE('',#768);
#46=PLANE('',#771);
#47=PLANE('',#774);
#48=PLANE('',#775);
#49=PLANE('',#776);
#50=PLANE('',#777);
#51=PLANE('',#778);
#52=PLANE('',#779);
#53=PLANE('',#780);
#54=PLANE('',#781);
#55=FACE_OUTER_BOUND('',#91,.T.);
#56=FACE_OUTER_BOUND('',#92,.T.);
#57=FACE_OUTER_BOUND('',#93,.T.);
#58=FACE_OUTER_BOUND('',#95,.T.);
#59=FACE_OUTER_BOUND('',#96,.T.);
#60=FACE_OUTER_BOUND('',#97,.T.);
#61=FACE_OUTER_BOUND('',#98,.T.);
#62=FACE_OUTER_BOUND('',#99,.T.);
#63=FACE_OUTER_BOUND('',#100,.T.);
#64=FACE_OUTER_BOUND('',#110,.T.);
#65=FACE_OUTER_BOUND('',#111,.T.);
#66=FACE_OUTER_BOUND('',#112,.T.);
#67=FACE_OUTER_BOUND('',#113,.T.);
#68=FACE_OUTER_BOUND('',#114,.T.);
#69=FACE_OUTER_BOUND('',#115,.T.);
#70=FACE_OUTER_BOUND('',#125,.T.);
#71=FACE_OUTER_BOUND('',#126,.T.);
#72=FACE_OUTER_BOUND('',#127,.T.);
#73=FACE_OUTER_BOUND('',#128,.T.);
#74=FACE_OUTER_BOUND('',#129,.T.);
#75=FACE_OUTER_BOUND('',#130,.T.);
#76=FACE_OUTER_BOUND('',#131,.T.);
#77=FACE_OUTER_BOUND('',#132,.T.);
#78=FACE_OUTER_BOUND('',#133,.T.);
#79=FACE_OUTER_BOUND('',#134,.T.);
#80=FACE_OUTER_BOUND('',#135,.T.);
#81=FACE_OUTER_BOUND('',#136,.T.);
#82=FACE_OUTER_BOUND('',#138,.T.);
#83=FACE_OUTER_BOUND('',#139,.T.);
#84=FACE_OUTER_BOUND('',#140,.T.);
#85=FACE_OUTER_BOUND('',#141,.T.);
#86=FACE_OUTER_BOUND('',#142,.T.);
#87=FACE_OUTER_BOUND('',#143,.T.);
#88=FACE_OUTER_BOUND('',#144,.T.);
#89=FACE_OUTER_BOUND('',#145,.T.);
#90=FACE_OUTER_BOUND('',#146,.T.);
#91=EDGE_LOOP('',(#462,#463,#464,#465));
#92=EDGE_LOOP('',(#466,#467,#468));
#93=EDGE_LOOP('',(#469,#470,#471,#472));
#94=EDGE_LOOP('',(#473,#474,#475,#476));
#95=EDGE_LOOP('',(#477,#478,#479,#480));
#96=EDGE_LOOP('',(#481,#482,#483,#484));
#97=EDGE_LOOP('',(#485,#486,#487));
#98=EDGE_LOOP('',(#488,#489,#490,#491,#492));
#99=EDGE_LOOP('',(#493,#494,#495,#496));
#100=EDGE_LOOP('',(#497,#498,#499,#500,#501,#502));
#101=EDGE_LOOP('',(#503));
#102=EDGE_LOOP('',(#504));
#103=EDGE_LOOP('',(#505));
#104=EDGE_LOOP('',(#506));
#105=EDGE_LOOP('',(#507));
#106=EDGE_LOOP('',(#508));
#107=EDGE_LOOP('',(#509));
#108=EDGE_LOOP('',(#510));
#109=EDGE_LOOP('',(#511));
#110=EDGE_LOOP('',(#512,#513,#514,#515));
#111=EDGE_LOOP('',(#516,#517,#518,#519,#520,#521,#522));
#112=EDGE_LOOP('',(#523,#524,#525,#526));
#113=EDGE_LOOP('',(#527,#528,#529,#530));
#114=EDGE_LOOP('',(#531,#532,#533,#534));
#115=EDGE_LOOP('',(#535,#536,#537,#538,#539,#540,#541,#542,#543,#544,#545));
#116=EDGE_LOOP('',(#546));
#117=EDGE_LOOP('',(#547));
#118=EDGE_LOOP('',(#548));
#119=EDGE_LOOP('',(#549));
#120=EDGE_LOOP('',(#550));
#121=EDGE_LOOP('',(#551));
#122=EDGE_LOOP('',(#552));
#123=EDGE_LOOP('',(#553));
#124=EDGE_LOOP('',(#554));
#125=EDGE_LOOP('',(#555,#556,#557,#558,#559,#560,#561));
#126=EDGE_LOOP('',(#562,#563,#564,#565));
#127=EDGE_LOOP('',(#566,#567,#568,#569));
#128=EDGE_LOOP('',(#570,#571,#572,#573));
#129=EDGE_LOOP('',(#574,#575,#576,#577));
#130=EDGE_LOOP('',(#578,#579,#580,#581));
#131=EDGE_LOOP('',(#582,#583,#584,#585));
#132=EDGE_LOOP('',(#586,#587,#588,#589));
#133=EDGE_LOOP('',(#590,#591,#592,#593));
#134=EDGE_LOOP('',(#594,#595,#596,#597));
#135=EDGE_LOOP('',(#598,#599,#600,#601,#602,#603));
#136=EDGE_LOOP('',(#604,#605,#606,#607,#608,#609,#610,#611,#612,#613));
#137=EDGE_LOOP('',(#614,#615,#616,#617));
#138=EDGE_LOOP('',(#618,#619,#620,#621));
#139=EDGE_LOOP('',(#622,#623,#624,#625));
#140=EDGE_LOOP('',(#626,#627,#628,#629));
#141=EDGE_LOOP('',(#630,#631,#632,#633));
#142=EDGE_LOOP('',(#634,#635,#636,#637));
#143=EDGE_LOOP('',(#638,#639,#640,#641));
#144=EDGE_LOOP('',(#642,#643,#644,#645));
#145=EDGE_LOOP('',(#646,#647,#648,#649));
#146=EDGE_LOOP('',(#650,#651,#652,#653));
#147=LINE('',#1001,#209);
#148=LINE('',#1004,#210);
#149=LINE('',#1007,#211);
#150=LINE('',#1008,#212);
#151=LINE('',#1011,#213);
#152=LINE('',#1012,#214);
#153=LINE('',#1015,#215);
#154=LINE('',#1019,#216);
#155=LINE('',#1026,#217);
#156=LINE('',#1029,#218);
#157=LINE('',#1033,#219);
#158=LINE('',#1034,#220);
#159=LINE('',#1035,#221);
#160=LINE('',#1036,#222);
#161=LINE('',#1039,#223);
#162=LINE('',#1041,#224);
#163=LINE('',#1042,#225);
#164=LINE('',#1048,#226);
#165=LINE('',#1051,#227);
#166=LINE('',#1054,#228);
#167=LINE('',#1056,#229);
#168=LINE('',#1058,#230);
#169=LINE('',#1082,#231);
#170=LINE('',#1085,#232);
#171=LINE('',#1088,#233);
#172=LINE('',#1092,#234);
#173=LINE('',#1094,#235);
#174=LINE('',#1095,#236);
#175=LINE('',#1100,#237);
#176=LINE('',#1103,#238);
#177=LINE('',#1105,#239);
#178=LINE('',#1107,#240);
#179=LINE('',#1109,#241);
#180=LINE('',#1111,#242);
#181=LINE('',#1112,#243);
#182=LINE('',#1133,#244);
#183=LINE('',#1134,#245);
#184=LINE('',#1139,#246);
#185=LINE('',#1140,#247);
#186=LINE('',#1143,#248);
#187=LINE('',#1144,#249);
#188=LINE('',#1148,#250);
#189=LINE('',#1150,#251);
#190=LINE('',#1154,#252);
#191=LINE('',#1155,#253);
#192=LINE('',#1156,#254);
#193=LINE('',#1158,#255);
#194=LINE('',#1161,#256);
#195=LINE('',#1162,#257);
#196=LINE('',#1164,#258);
#197=LINE('',#1167,#259);
#198=LINE('',#1168,#260);
#199=LINE('',#1170,#261);
#200=LINE('',#1173,#262);
#201=LINE('',#1175,#263);
#202=LINE('',#1177,#264);
#203=LINE('',#1179,#265);
#204=LINE('',#1181,#266);
#205=LINE('',#1183,#267);
#206=LINE('',#1185,#268);
#207=LINE('',#1187,#269);
#208=LINE('',#1189,#270);
#209=VECTOR('',#797,4.);
#210=VECTOR('',#800,10.);
#211=VECTOR('',#803,10.);
#212=VECTOR('',#804,10.);
#213=VECTOR('',#807,10.);
#214=VECTOR('',#808,10.);
#215=VECTOR('',#809,10.);
#216=VECTOR('',#812,10.);
#217=VECTOR('',#819,45.);
#218=VECTOR('',#822,10.);
#219=VECTOR('',#825,10.);
#220=VECTOR('',#826,10.);
#221=VECTOR('',#827,10.);
#222=VECTOR('',#828,10.);
#223=VECTOR('',#833,10.);
#224=VECTOR('',#834,10.);
#225=VECTOR('',#835,10.);
#226=VECTOR('',#840,10.);
#227=VECTOR('',#843,10.);
#228=VECTOR('',#846,10.);
#229=VECTOR('',#847,10.);
#230=VECTOR('',#848,10.);
#231=VECTOR('',#873,10.);
#232=VECTOR('',#876,10.);
#233=VECTOR('',#879,10.);
#234=VECTOR('',#882,10.);
#235=VECTOR('',#883,10.);
#236=VECTOR('',#884,10.);
#237=VECTOR('',#891,10.);
#238=VECTOR('',#894,10.);
#239=VECTOR('',#897,10.);
#240=VECTOR('',#900,10.);
#241=VECTOR('',#901,10.);
#242=VECTOR('',#902,10.);
#243=VECTOR('',#903,10.);
#244=VECTOR('',#924,10.);
#245=VECTOR('',#925,10.);
#246=VECTOR('',#930,10.);
#247=VECTOR('',#931,10.);
#248=VECTOR('',#934,10.);
#249=VECTOR('',#935,10.);
#250=VECTOR('',#940,10.);
#251=VECTOR('',#943,10.);
#252=VECTOR('',#946,10.);
#253=VECTOR('',#947,10.);
#254=VECTOR('',#948,10.);
#255=VECTOR('',#951,10.);
#256=VECTOR('',#954,10.);
#257=VECTOR('',#955,10.);
#258=VECTOR('',#958,10.);
#259=VECTOR('',#961,10.);
#260=VECTOR('',#962,10.);
#261=VECTOR('',#965,10.);
#262=VECTOR('',#970,1.8);
#263=VECTOR('',#973,1.8);
#264=VECTOR('',#976,1.8);
#265=VECTOR('',#979,1.8);
#266=VECTOR('',#982,1.8);
#267=VECTOR('',#985,3.9);
#268=VECTOR('',#988,1.8);
#269=VECTOR('',#991,1.8);
#270=VECTOR('',#994,1.8);
#271=CIRCLE('',#722,4.);
#272=CIRCLE('',#723,4.);
#273=CIRCLE('',#726,1.75000000000002);
#274=CIRCLE('',#727,1.75);
#275=CIRCLE('',#730,45.);
#276=CIRCLE('',#735,10.);
#277=CIRCLE('',#736,10.);
#278=CIRCLE('',#738,10.);
#279=CIRCLE('',#739,3.9);
#280=CIRCLE('',#740,1.8);
#281=CIRCLE('',#741,1.8);
#282=CIRCLE('',#742,1.8);
#283=CIRCLE('',#743,3.9);
#284=CIRCLE('',#744,1.8);
#285=CIRCLE('',#745,1.8);
#286=CIRCLE('',#746,1.8);
#287=CIRCLE('',#747,1.8);
#288=CIRCLE('',#748,1.8);
#289=CIRCLE('',#750,10.);
#290=CIRCLE('',#752,2.5);
#291=CIRCLE('',#754,3.9);
#292=CIRCLE('',#756,2.5);
#293=CIRCLE('',#759,1.8);
#294=CIRCLE('',#760,1.8);
#295=CIRCLE('',#761,1.8);
#296=CIRCLE('',#762,3.9);
#297=CIRCLE('',#763,1.8);
#298=CIRCLE('',#764,1.8);
#299=CIRCLE('',#765,1.8);
#300=CIRCLE('',#766,1.8);
#301=CIRCLE('',#767,1.8);
#302=CIRCLE('',#770,1.75);
#303=CIRCLE('',#773,1.75000000000002);
#304=VERTEX_POINT('',#997);
#305=VERTEX_POINT('',#998);
#306=VERTEX_POINT('',#1000);
#307=VERTEX_POINT('',#1002);
#308=VERTEX_POINT('',#1006);
#309=VERTEX_POINT('',#1010);
#310=VERTEX_POINT('',#1013);
#311=VERTEX_POINT('',#1014);
#312=VERTEX_POINT('',#1016);
#313=VERTEX_POINT('',#1018);
#314=VERTEX_POINT('',#1022);
#315=VERTEX_POINT('',#1023);
#316=VERTEX_POINT('',#1025);
#317=VERTEX_POINT('',#1027);
#318=VERTEX_POINT('',#1031);
#319=VERTEX_POINT('',#1032);
#320=VERTEX_POINT('',#1040);
#321=VERTEX_POINT('',#1044);
#322=VERTEX_POINT('',#1045);
#323=VERTEX_POINT('',#1047);
#324=VERTEX_POINT('',#1049);
#325=VERTEX_POINT('',#1053);
#326=VERTEX_POINT('',#1055);
#327=VERTEX_POINT('',#1057);
#328=VERTEX_POINT('',#1059);
#329=VERTEX_POINT('',#1062);
#330=VERTEX_POINT('',#1064);
#331=VERTEX_POINT('',#1066);
#332=VERTEX_POINT('',#1068);
#333=VERTEX_POINT('',#1070);
#334=VERTEX_POINT('',#1072);
#335=VERTEX_POINT('',#1074);
#336=VERTEX_POINT('',#1076);
#337=VERTEX_POINT('',#1078);
#338=VERTEX_POINT('',#1081);
#339=VERTEX_POINT('',#1083);
#340=VERTEX_POINT('',#1087);
#341=VERTEX_POINT('',#1089);
#342=VERTEX_POINT('',#1091);
#343=VERTEX_POINT('',#1093);
#344=VERTEX_POINT('',#1099);
#345=VERTEX_POINT('',#1101);
#346=VERTEX_POINT('',#1108);
#347=VERTEX_POINT('',#1110);
#348=VERTEX_POINT('',#1113);
#349=VERTEX_POINT('',#1115);
#350=VERTEX_POINT('',#1117);
#351=VERTEX_POINT('',#1119);
#352=VERTEX_POINT('',#1121);
#353=VERTEX_POINT('',#1123);
#354=VERTEX_POINT('',#1125);
#355=VERTEX_POINT('',#1127);
#356=VERTEX_POINT('',#1129);
#357=VERTEX_POINT('',#1132);
#358=VERTEX_POINT('',#1136);
#359=VERTEX_POINT('',#1137);
#360=VERTEX_POINT('',#1142);
#361=VERTEX_POINT('',#1146);
#362=VERTEX_POINT('',#1152);
#363=VERTEX_POINT('',#1153);
#364=VERTEX_POINT('',#1160);
#365=VERTEX_POINT('',#1166);
#366=EDGE_CURVE('',#304,#305,#271,.T.);
#367=EDGE_CURVE('',#304,#306,#147,.T.);
#368=EDGE_CURVE('',#307,#306,#272,.T.);
#369=EDGE_CURVE('',#305,#307,#148,.T.);
#370=EDGE_CURVE('',#308,#306,#149,.T.);
#371=EDGE_CURVE('',#308,#307,#150,.T.);
#372=EDGE_CURVE('',#304,#309,#151,.T.);
#373=EDGE_CURVE('',#309,#308,#152,.T.);
#374=EDGE_CURVE('',#310,#311,#153,.T.);
#375=EDGE_CURVE('',#311,#312,#273,.T.);
#376=EDGE_CURVE('',#312,#313,#154,.T.);
#377=EDGE_CURVE('',#313,#310,#274,.T.);
#378=EDGE_CURVE('',#314,#315,#15,.T.);
#379=EDGE_CURVE('',#315,#316,#155,.T.);
#380=EDGE_CURVE('',#317,#316,#275,.F.);
#381=EDGE_CURVE('',#317,#314,#156,.T.);
#382=EDGE_CURVE('',#318,#319,#157,.T.);
#383=EDGE_CURVE('',#318,#309,#158,.T.);
#384=EDGE_CURVE('',#305,#309,#159,.T.);
#385=EDGE_CURVE('',#319,#305,#160,.T.);
#386=EDGE_CURVE('',#307,#314,#161,.T.);
#387=EDGE_CURVE('',#308,#320,#162,.T.);
#388=EDGE_CURVE('',#315,#320,#163,.T.);
#389=EDGE_CURVE('',#321,#322,#276,.T.);
#390=EDGE_CURVE('',#322,#323,#164,.T.);
#391=EDGE_CURVE('',#323,#324,#277,.T.);
#392=EDGE_CURVE('',#324,#321,#165,.T.);
#393=EDGE_CURVE('',#325,#323,#166,.T.);
#394=EDGE_CURVE('',#326,#325,#167,.T.);
#395=EDGE_CURVE('',#327,#326,#168,.T.);
#396=EDGE_CURVE('',#328,#327,#278,.T.);
#397=EDGE_CURVE('',#324,#328,#279,.T.);
#398=EDGE_CURVE('',#329,#329,#280,.T.);
#399=EDGE_CURVE('',#330,#330,#281,.T.);
#400=EDGE_CURVE('',#331,#331,#282,.T.);
#401=EDGE_CURVE('',#332,#332,#283,.T.);
#402=EDGE_CURVE('',#333,#333,#284,.T.);
#403=EDGE_CURVE('',#334,#334,#285,.T.);
#404=EDGE_CURVE('',#335,#335,#286,.T.);
#405=EDGE_CURVE('',#336,#336,#287,.T.);
#406=EDGE_CURVE('',#337,#337,#288,.T.);
#407=EDGE_CURVE('',#327,#338,#169,.T.);
#408=EDGE_CURVE('',#338,#339,#289,.T.);
#409=EDGE_CURVE('',#339,#328,#170,.T.);
#410=EDGE_CURVE('',#326,#340,#171,.T.);
#411=EDGE_CURVE('',#341,#340,#290,.T.);
#412=EDGE_CURVE('',#341,#342,#172,.T.);
#413=EDGE_CURVE('',#342,#343,#173,.T.);
#414=EDGE_CURVE('',#338,#343,#174,.T.);
#415=EDGE_CURVE('',#321,#339,#291,.T.);
#416=EDGE_CURVE('',#340,#344,#175,.T.);
#417=EDGE_CURVE('',#344,#345,#292,.T.);
#418=EDGE_CURVE('',#345,#341,#176,.T.);
#419=EDGE_CURVE('',#325,#344,#177,.T.);
#420=EDGE_CURVE('',#343,#319,#178,.T.);
#421=EDGE_CURVE('',#314,#346,#179,.T.);
#422=EDGE_CURVE('',#346,#347,#180,.T.);
#423=EDGE_CURVE('',#347,#322,#181,.T.);
#424=EDGE_CURVE('',#348,#348,#293,.T.);
#425=EDGE_CURVE('',#349,#349,#294,.T.);
#426=EDGE_CURVE('',#350,#350,#295,.T.);
#427=EDGE_CURVE('',#351,#351,#296,.T.);
#428=EDGE_CURVE('',#352,#352,#297,.T.);
#429=EDGE_CURVE('',#353,#353,#298,.T.);
#430=EDGE_CURVE('',#354,#354,#299,.T.);
#431=EDGE_CURVE('',#355,#355,#300,.T.);
#432=EDGE_CURVE('',#356,#356,#301,.T.);
#433=EDGE_CURVE('',#357,#347,#182,.T.);
#434=EDGE_CURVE('',#345,#357,#183,.T.);
#435=EDGE_CURVE('',#358,#359,#302,.T.);
#436=EDGE_CURVE('',#359,#310,#184,.T.);
#437=EDGE_CURVE('',#358,#313,#185,.T.);
#438=EDGE_CURVE('',#360,#358,#186,.T.);
#439=EDGE_CURVE('',#360,#312,#187,.T.);
#440=EDGE_CURVE('',#361,#360,#303,.T.);
#441=EDGE_CURVE('',#361,#311,#188,.T.);
#442=EDGE_CURVE('',#359,#361,#189,.T.);
#443=EDGE_CURVE('',#362,#363,#190,.T.);
#444=EDGE_CURVE('',#363,#318,#191,.T.);
#445=EDGE_CURVE('',#362,#319,#192,.T.);
#446=EDGE_CURVE('',#362,#342,#193,.T.);
#447=EDGE_CURVE('',#364,#357,#194,.T.);
#448=EDGE_CURVE('',#364,#346,#195,.T.);
#449=EDGE_CURVE('',#317,#364,#196,.T.);
#450=EDGE_CURVE('',#365,#320,#197,.T.);
#451=EDGE_CURVE('',#316,#365,#198,.T.);
#452=EDGE_CURVE('',#363,#365,#199,.T.);
#453=EDGE_CURVE('',#350,#335,#200,.T.);
#454=EDGE_CURVE('',#354,#336,#201,.T.);
#455=EDGE_CURVE('',#349,#337,#202,.T.);
#456=EDGE_CURVE('',#348,#329,#203,.T.);
#457=EDGE_CURVE('',#355,#333,#204,.T.);
#458=EDGE_CURVE('',#351,#332,#205,.T.);
#459=EDGE_CURVE('',#352,#330,#206,.T.);
#460=EDGE_CURVE('',#353,#331,#207,.T.);
#461=EDGE_CURVE('',#356,#334,#208,.T.);
#462=ORIENTED_EDGE('',*,*,#366,.F.);
#463=ORIENTED_EDGE('',*,*,#367,.T.);
#464=ORIENTED_EDGE('',*,*,#368,.F.);
#465=ORIENTED_EDGE('',*,*,#369,.F.);
#466=ORIENTED_EDGE('',*,*,#368,.T.);
#467=ORIENTED_EDGE('',*,*,#370,.F.);
#468=ORIENTED_EDGE('',*,*,#371,.T.);
#469=ORIENTED_EDGE('',*,*,#367,.F.);
#470=ORIENTED_EDGE('',*,*,#372,.T.);
#471=ORIENTED_EDGE('',*,*,#373,.T.);
#472=ORIENTED_EDGE('',*,*,#370,.T.);
#473=ORIENTED_EDGE('',*,*,#374,.T.);
#474=ORIENTED_EDGE('',*,*,#375,.T.);
#475=ORIENTED_EDGE('',*,*,#376,.T.);
#476=ORIENTED_EDGE('',*,*,#377,.T.);
#477=ORIENTED_EDGE('',*,*,#378,.T.);
#478=ORIENTED_EDGE('',*,*,#379,.T.);
#479=ORIENTED_EDGE('',*,*,#380,.F.);
#480=ORIENTED_EDGE('',*,*,#381,.T.);
#481=ORIENTED_EDGE('',*,*,#382,.F.);
#482=ORIENTED_EDGE('',*,*,#383,.T.);
#483=ORIENTED_EDGE('',*,*,#384,.F.);
#484=ORIENTED_EDGE('',*,*,#385,.F.);
#485=ORIENTED_EDGE('',*,*,#366,.T.);
#486=ORIENTED_EDGE('',*,*,#384,.T.);
#487=ORIENTED_EDGE('',*,*,#372,.F.);
#488=ORIENTED_EDGE('',*,*,#386,.F.);
#489=ORIENTED_EDGE('',*,*,#371,.F.);
#490=ORIENTED_EDGE('',*,*,#387,.T.);
#491=ORIENTED_EDGE('',*,*,#388,.F.);
#492=ORIENTED_EDGE('',*,*,#378,.F.);
#493=ORIENTED_EDGE('',*,*,#389,.T.);
#494=ORIENTED_EDGE('',*,*,#390,.T.);
#495=ORIENTED_EDGE('',*,*,#391,.T.);
#496=ORIENTED_EDGE('',*,*,#392,.T.);
#497=ORIENTED_EDGE('',*,*,#391,.F.);
#498=ORIENTED_EDGE('',*,*,#393,.F.);
#499=ORIENTED_EDGE('',*,*,#394,.F.);
#500=ORIENTED_EDGE('',*,*,#395,.F.);
#501=ORIENTED_EDGE('',*,*,#396,.F.);
#502=ORIENTED_EDGE('',*,*,#397,.F.);
#503=ORIENTED_EDGE('',*,*,#398,.F.);
#504=ORIENTED_EDGE('',*,*,#399,.F.);
#505=ORIENTED_EDGE('',*,*,#400,.F.);
#506=ORIENTED_EDGE('',*,*,#401,.F.);
#507=ORIENTED_EDGE('',*,*,#402,.F.);
#508=ORIENTED_EDGE('',*,*,#403,.F.);
#509=ORIENTED_EDGE('',*,*,#404,.F.);
#510=ORIENTED_EDGE('',*,*,#405,.F.);
#511=ORIENTED_EDGE('',*,*,#406,.F.);
#512=ORIENTED_EDGE('',*,*,#396,.T.);
#513=ORIENTED_EDGE('',*,*,#407,.T.);
#514=ORIENTED_EDGE('',*,*,#408,.T.);
#515=ORIENTED_EDGE('',*,*,#409,.T.);
#516=ORIENTED_EDGE('',*,*,#407,.F.);
#517=ORIENTED_EDGE('',*,*,#395,.T.);
#518=ORIENTED_EDGE('',*,*,#410,.T.);
#519=ORIENTED_EDGE('',*,*,#411,.F.);
#520=ORIENTED_EDGE('',*,*,#412,.T.);
#521=ORIENTED_EDGE('',*,*,#413,.T.);
#522=ORIENTED_EDGE('',*,*,#414,.F.);
#523=ORIENTED_EDGE('',*,*,#409,.F.);
#524=ORIENTED_EDGE('',*,*,#415,.F.);
#525=ORIENTED_EDGE('',*,*,#392,.F.);
#526=ORIENTED_EDGE('',*,*,#397,.T.);
#527=ORIENTED_EDGE('',*,*,#411,.T.);
#528=ORIENTED_EDGE('',*,*,#416,.T.);
#529=ORIENTED_EDGE('',*,*,#417,.T.);
#530=ORIENTED_EDGE('',*,*,#418,.T.);
#531=ORIENTED_EDGE('',*,*,#416,.F.);
#532=ORIENTED_EDGE('',*,*,#410,.F.);
#533=ORIENTED_EDGE('',*,*,#394,.T.);
#534=ORIENTED_EDGE('',*,*,#419,.T.);
#535=ORIENTED_EDGE('',*,*,#389,.F.);
#536=ORIENTED_EDGE('',*,*,#415,.T.);
#537=ORIENTED_EDGE('',*,*,#408,.F.);
#538=ORIENTED_EDGE('',*,*,#414,.T.);
#539=ORIENTED_EDGE('',*,*,#420,.T.);
#540=ORIENTED_EDGE('',*,*,#385,.T.);
#541=ORIENTED_EDGE('',*,*,#369,.T.);
#542=ORIENTED_EDGE('',*,*,#386,.T.);
#543=ORIENTED_EDGE('',*,*,#421,.T.);
#544=ORIENTED_EDGE('',*,*,#422,.T.);
#545=ORIENTED_EDGE('',*,*,#423,.T.);
#546=ORIENTED_EDGE('',*,*,#424,.T.);
#547=ORIENTED_EDGE('',*,*,#425,.T.);
#548=ORIENTED_EDGE('',*,*,#426,.T.);
#549=ORIENTED_EDGE('',*,*,#427,.T.);
#550=ORIENTED_EDGE('',*,*,#428,.T.);
#551=ORIENTED_EDGE('',*,*,#429,.T.);
#552=ORIENTED_EDGE('',*,*,#430,.T.);
#553=ORIENTED_EDGE('',*,*,#431,.T.);
#554=ORIENTED_EDGE('',*,*,#432,.T.);
#555=ORIENTED_EDGE('',*,*,#390,.F.);
#556=ORIENTED_EDGE('',*,*,#423,.F.);
#557=ORIENTED_EDGE('',*,*,#433,.F.);
#558=ORIENTED_EDGE('',*,*,#434,.F.);
#559=ORIENTED_EDGE('',*,*,#417,.F.);
#560=ORIENTED_EDGE('',*,*,#419,.F.);
#561=ORIENTED_EDGE('',*,*,#393,.T.);
#562=ORIENTED_EDGE('',*,*,#435,.T.);
#563=ORIENTED_EDGE('',*,*,#436,.T.);
#564=ORIENTED_EDGE('',*,*,#377,.F.);
#565=ORIENTED_EDGE('',*,*,#437,.F.);
#566=ORIENTED_EDGE('',*,*,#438,.T.);
#567=ORIENTED_EDGE('',*,*,#437,.T.);
#568=ORIENTED_EDGE('',*,*,#376,.F.);
#569=ORIENTED_EDGE('',*,*,#439,.F.);
#570=ORIENTED_EDGE('',*,*,#440,.T.);
#571=ORIENTED_EDGE('',*,*,#439,.T.);
#572=ORIENTED_EDGE('',*,*,#375,.F.);
#573=ORIENTED_EDGE('',*,*,#441,.F.);
#574=ORIENTED_EDGE('',*,*,#442,.T.);
#575=ORIENTED_EDGE('',*,*,#441,.T.);
#576=ORIENTED_EDGE('',*,*,#374,.F.);
#577=ORIENTED_EDGE('',*,*,#436,.F.);
#578=ORIENTED_EDGE('',*,*,#443,.T.);
#579=ORIENTED_EDGE('',*,*,#444,.T.);
#580=ORIENTED_EDGE('',*,*,#382,.T.);
#581=ORIENTED_EDGE('',*,*,#445,.F.);
#582=ORIENTED_EDGE('',*,*,#446,.F.);
#583=ORIENTED_EDGE('',*,*,#445,.T.);
#584=ORIENTED_EDGE('',*,*,#420,.F.);
#585=ORIENTED_EDGE('',*,*,#413,.F.);
#586=ORIENTED_EDGE('',*,*,#447,.T.);
#587=ORIENTED_EDGE('',*,*,#433,.T.);
#588=ORIENTED_EDGE('',*,*,#422,.F.);
#589=ORIENTED_EDGE('',*,*,#448,.F.);
#590=ORIENTED_EDGE('',*,*,#449,.T.);
#591=ORIENTED_EDGE('',*,*,#448,.T.);
#592=ORIENTED_EDGE('',*,*,#421,.F.);
#593=ORIENTED_EDGE('',*,*,#381,.F.);
#594=ORIENTED_EDGE('',*,*,#379,.F.);
#595=ORIENTED_EDGE('',*,*,#388,.T.);
#596=ORIENTED_EDGE('',*,*,#450,.F.);
#597=ORIENTED_EDGE('',*,*,#451,.F.);
#598=ORIENTED_EDGE('',*,*,#452,.T.);
#599=ORIENTED_EDGE('',*,*,#450,.T.);
#600=ORIENTED_EDGE('',*,*,#387,.F.);
#601=ORIENTED_EDGE('',*,*,#373,.F.);
#602=ORIENTED_EDGE('',*,*,#383,.F.);
#603=ORIENTED_EDGE('',*,*,#444,.F.);
#604=ORIENTED_EDGE('',*,*,#418,.F.);
#605=ORIENTED_EDGE('',*,*,#434,.T.);
#606=ORIENTED_EDGE('',*,*,#447,.F.);
#607=ORIENTED_EDGE('',*,*,#449,.F.);
#608=ORIENTED_EDGE('',*,*,#380,.T.);
#609=ORIENTED_EDGE('',*,*,#451,.T.);
#610=ORIENTED_EDGE('',*,*,#452,.F.);
#611=ORIENTED_EDGE('',*,*,#443,.F.);
#612=ORIENTED_EDGE('',*,*,#446,.T.);
#613=ORIENTED_EDGE('',*,*,#412,.F.);
#614=ORIENTED_EDGE('',*,*,#442,.F.);
#615=ORIENTED_EDGE('',*,*,#435,.F.);
#616=ORIENTED_EDGE('',*,*,#438,.F.);
#617=ORIENTED_EDGE('',*,*,#440,.F.);
#618=ORIENTED_EDGE('',*,*,#426,.F.);
#619=ORIENTED_EDGE('',*,*,#453,.T.);
#620=ORIENTED_EDGE('',*,*,#404,.T.);
#621=ORIENTED_EDGE('',*,*,#453,.F.);
#622=ORIENTED_EDGE('',*,*,#430,.F.);
#623=ORIENTED_EDGE('',*,*,#454,.T.);
#624=ORIENTED_EDGE('',*,*,#405,.T.);
#625=ORIENTED_EDGE('',*,*,#454,.F.);
#626=ORIENTED_EDGE('',*,*,#425,.F.);
#627=ORIENTED_EDGE('',*,*,#455,.T.);
#628=ORIENTED_EDGE('',*,*,#406,.T.);
#629=ORIENTED_EDGE('',*,*,#455,.F.);
#630=ORIENTED_EDGE('',*,*,#424,.F.);
#631=ORIENTED_EDGE('',*,*,#456,.T.);
#632=ORIENTED_EDGE('',*,*,#398,.T.);
#633=ORIENTED_EDGE('',*,*,#456,.F.);
#634=ORIENTED_EDGE('',*,*,#431,.F.);
#635=ORIENTED_EDGE('',*,*,#457,.T.);
#636=ORIENTED_EDGE('',*,*,#402,.T.);
#637=ORIENTED_EDGE('',*,*,#457,.F.);
#638=ORIENTED_EDGE('',*,*,#427,.F.);
#639=ORIENTED_EDGE('',*,*,#458,.T.);
#640=ORIENTED_EDGE('',*,*,#401,.T.);
#641=ORIENTED_EDGE('',*,*,#458,.F.);
#642=ORIENTED_EDGE('',*,*,#428,.F.);
#643=ORIENTED_EDGE('',*,*,#459,.T.);
#644=ORIENTED_EDGE('',*,*,#399,.T.);
#645=ORIENTED_EDGE('',*,*,#459,.F.);
#646=ORIENTED_EDGE('',*,*,#429,.F.);
#647=ORIENTED_EDGE('',*,*,#460,.T.);
#648=ORIENTED_EDGE('',*,*,#400,.T.);
#649=ORIENTED_EDGE('',*,*,#460,.F.);
#650=ORIENTED_EDGE('',*,*,#432,.F.);
#651=ORIENTED_EDGE('',*,*,#461,.T.);
#652=ORIENTED_EDGE('',*,*,#403,.T.);
#653=ORIENTED_EDGE('',*,*,#461,.F.);
#654=CYLINDRICAL_SURFACE('',#721,4.);
#655=CYLINDRICAL_SURFACE('',#728,45.);
#656=CYLINDRICAL_SURFACE('',#734,10.);
#657=CYLINDRICAL_SURFACE('',#749,10.);
#658=CYLINDRICAL_SURFACE('',#753,3.9);
#659=CYLINDRICAL_SURFACE('',#755,2.5);
#660=CYLINDRICAL_SURFACE('',#769,1.75);
#661=CYLINDRICAL_SURFACE('',#772,1.75000000000002);
#662=CYLINDRICAL_SURFACE('',#782,1.8);
#663=CYLINDRICAL_SURFACE('',#783,1.8);
#664=CYLINDRICAL_SURFACE('',#784,1.8);
#665=CYLINDRICAL_SURFACE('',#785,1.8);
#666=CYLINDRICAL_SURFACE('',#786,1.8);
#667=CYLINDRICAL_SURFACE('',#787,3.9);
#668=CYLINDRICAL_SURFACE('',#788,1.8);
#669=CYLINDRICAL_SURFACE('',#789,1.8);
#670=CYLINDRICAL_SURFACE('',#790,1.8);
#671=ADVANCED_FACE('',(#55),#654,.F.);
#672=ADVANCED_FACE('',(#56),#36,.T.);
#673=ADVANCED_FACE('',(#57,#16),#37,.T.);
#674=ADVANCED_FACE('',(#58),#655,.F.);
#675=ADVANCED_FACE('',(#59),#38,.T.);
#676=ADVANCED_FACE('',(#60),#39,.T.);
#677=ADVANCED_FACE('',(#61),#40,.T.);
#678=ADVANCED_FACE('',(#62),#656,.T.);
#679=ADVANCED_FACE('',(#63,#17,#18,#19,#20,#21,#22,#23,#24,#25),#41,.T.);
#680=ADVANCED_FACE('',(#64),#657,.T.);
#681=ADVANCED_FACE('',(#65),#42,.T.);
#682=ADVANCED_FACE('',(#66),#658,.F.);
#683=ADVANCED_FACE('',(#67),#659,.F.);
#684=ADVANCED_FACE('',(#68),#43,.T.);
#685=ADVANCED_FACE('',(#69,#26,#27,#28,#29,#30,#31,#32,#33,#34),#44,.T.);
#686=ADVANCED_FACE('',(#70),#45,.T.);
#687=ADVANCED_FACE('',(#71),#660,.F.);
#688=ADVANCED_FACE('',(#72),#46,.T.);
#689=ADVANCED_FACE('',(#73),#661,.F.);
#690=ADVANCED_FACE('',(#74),#47,.T.);
#691=ADVANCED_FACE('',(#75),#48,.T.);
#692=ADVANCED_FACE('',(#76),#49,.T.);
#693=ADVANCED_FACE('',(#77),#50,.T.);
#694=ADVANCED_FACE('',(#78),#51,.T.);
#695=ADVANCED_FACE('',(#79),#52,.T.);
#696=ADVANCED_FACE('',(#80),#53,.T.);
#697=ADVANCED_FACE('',(#81,#35),#54,.F.);
#698=ADVANCED_FACE('',(#82),#662,.F.);
#699=ADVANCED_FACE('',(#83),#663,.F.);
#700=ADVANCED_FACE('',(#84),#664,.F.);
#701=ADVANCED_FACE('',(#85),#665,.F.);
#702=ADVANCED_FACE('',(#86),#666,.F.);
#703=ADVANCED_FACE('',(#87),#667,.F.);
#704=ADVANCED_FACE('',(#88),#668,.F.);
#705=ADVANCED_FACE('',(#89),#669,.F.);
#706=ADVANCED_FACE('',(#90),#670,.F.);
#707=CLOSED_SHELL('',(#671,#672,#673,#674,#675,#676,#677,#678,#679,#680,
#681,#682,#683,#684,#685,#686,#687,#688,#689,#690,#691,#692,#693,#694,#695,
#696,#697,#698,#699,#700,#701,#702,#703,#704,#705,#706));
#708=DERIVED_UNIT_ELEMENT(#710,1.);
#709=DERIVED_UNIT_ELEMENT(#1195,-3.);
#710=(
MASS_UNIT()
NAMED_UNIT(*)
SI_UNIT(.KILO.,.GRAM.)
);
#711=DERIVED_UNIT((#708,#709));
#712=MEASURE_REPRESENTATION_ITEM('density measure',
POSITIVE_RATIO_MEASURE(7850.),#711);
#713=PROPERTY_DEFINITION_REPRESENTATION(#718,#715);
#714=PROPERTY_DEFINITION_REPRESENTATION(#719,#716);
#715=REPRESENTATION('material name',(#717),#1192);
#716=REPRESENTATION('density',(#712),#1192);
#717=DESCRIPTIVE_REPRESENTATION_ITEM('Steel','Steel');
#718=PROPERTY_DEFINITION('material property','material name',#1202);
#719=PROPERTY_DEFINITION('material property','density of part',#1202);
#720=AXIS2_PLACEMENT_3D('',#995,#791,#792);
#721=AXIS2_PLACEMENT_3D('',#996,#793,#794);
#722=AXIS2_PLACEMENT_3D('',#999,#795,#796);
#723=AXIS2_PLACEMENT_3D('',#1003,#798,#799);
#724=AXIS2_PLACEMENT_3D('',#1005,#801,#802);
#725=AXIS2_PLACEMENT_3D('',#1009,#805,#806);
#726=AXIS2_PLACEMENT_3D('',#1017,#810,#811);
#727=AXIS2_PLACEMENT_3D('',#1020,#813,#814);
#728=AXIS2_PLACEMENT_3D('',#1021,#815,#816);
#729=AXIS2_PLACEMENT_3D('',#1024,#817,#818);
#730=AXIS2_PLACEMENT_3D('',#1028,#820,#821);
#731=AXIS2_PLACEMENT_3D('',#1030,#823,#824);
#732=AXIS2_PLACEMENT_3D('',#1037,#829,#830);
#733=AXIS2_PLACEMENT_3D('',#1038,#831,#832);
#734=AXIS2_PLACEMENT_3D('',#1043,#836,#837);
#735=AXIS2_PLACEMENT_3D('',#1046,#838,#839);
#736=AXIS2_PLACEMENT_3D('',#1050,#841,#842);
#737=AXIS2_PLACEMENT_3D('',#1052,#844,#845);
#738=AXIS2_PLACEMENT_3D('',#1060,#849,#850);
#739=AXIS2_PLACEMENT_3D('',#1061,#851,#852);
#740=AXIS2_PLACEMENT_3D('',#1063,#853,#854);
#741=AXIS2_PLACEMENT_3D('',#1065,#855,#856);
#742=AXIS2_PLACEMENT_3D('',#1067,#857,#858);
#743=AXIS2_PLACEMENT_3D('',#1069,#859,#860);
#744=AXIS2_PLACEMENT_3D('',#1071,#861,#862);
#745=AXIS2_PLACEMENT_3D('',#1073,#863,#864);
#746=AXIS2_PLACEMENT_3D('',#1075,#865,#866);
#747=AXIS2_PLACEMENT_3D('',#1077,#867,#868);
#748=AXIS2_PLACEMENT_3D('',#1079,#869,#870);
#749=AXIS2_PLACEMENT_3D('',#1080,#871,#872);
#750=AXIS2_PLACEMENT_3D('',#1084,#874,#875);
#751=AXIS2_PLACEMENT_3D('',#1086,#877,#878);
#752=AXIS2_PLACEMENT_3D('',#1090,#880,#881);
#753=AXIS2_PLACEMENT_3D('',#1096,#885,#886);
#754=AXIS2_PLACEMENT_3D('',#1097,#887,#888);
#755=AXIS2_PLACEMENT_3D('',#1098,#889,#890);
#756=AXIS2_PLACEMENT_3D('',#1102,#892,#893);
#757=AXIS2_PLACEMENT_3D('',#1104,#895,#896);
#758=AXIS2_PLACEMENT_3D('',#1106,#898,#899);
#759=AXIS2_PLACEMENT_3D('',#1114,#904,#905);
#760=AXIS2_PLACEMENT_3D('',#1116,#906,#907);
#761=AXIS2_PLACEMENT_3D('',#1118,#908,#909);
#762=AXIS2_PLACEMENT_3D('',#1120,#910,#911);
#763=AXIS2_PLACEMENT_3D('',#1122,#912,#913);
#764=AXIS2_PLACEMENT_3D('',#1124,#914,#915);
#765=AXIS2_PLACEMENT_3D('',#1126,#916,#917);
#766=AXIS2_PLACEMENT_3D('',#1128,#918,#919);
#767=AXIS2_PLACEMENT_3D('',#1130,#920,#921);
#768=AXIS2_PLACEMENT_3D('',#1131,#922,#923);
#769=AXIS2_PLACEMENT_3D('',#1135,#926,#927);
#770=AXIS2_PLACEMENT_3D('',#1138,#928,#929);
#771=AXIS2_PLACEMENT_3D('',#1141,#932,#933);
#772=AXIS2_PLACEMENT_3D('',#1145,#936,#937);
#773=AXIS2_PLACEMENT_3D('',#1147,#938,#939);
#774=AXIS2_PLACEMENT_3D('',#1149,#941,#942);
#775=AXIS2_PLACEMENT_3D('',#1151,#944,#945);
#776=AXIS2_PLACEMENT_3D('',#1157,#949,#950);
#777=AXIS2_PLACEMENT_3D('',#1159,#952,#953);
#778=AXIS2_PLACEMENT_3D('',#1163,#956,#957);
#779=AXIS2_PLACEMENT_3D('',#1165,#959,#960);
#780=AXIS2_PLACEMENT_3D('',#1169,#963,#964);
#781=AXIS2_PLACEMENT_3D('',#1171,#966,#967);
#782=AXIS2_PLACEMENT_3D('',#1172,#968,#969);
#783=AXIS2_PLACEMENT_3D('',#1174,#971,#972);
#784=AXIS2_PLACEMENT_3D('',#1176,#974,#975);
#785=AXIS2_PLACEMENT_3D('',#1178,#977,#978);
#786=AXIS2_PLACEMENT_3D('',#1180,#980,#981);
#787=AXIS2_PLACEMENT_3D('',#1182,#983,#984);
#788=AXIS2_PLACEMENT_3D('',#1184,#986,#987);
#789=AXIS2_PLACEMENT_3D('',#1186,#989,#990);
#790=AXIS2_PLACEMENT_3D('',#1188,#992,#993);
#791=DIRECTION('axis',(0.,0.,1.));
#792=DIRECTION('refdir',(1.,0.,0.));
#793=DIRECTION('center_axis',(-1.66641413298374E-59,1.29903646418726E-14,
1.));
#794=DIRECTION('ref_axis',(-0.250000000000002,0.968245836551854,-1.33226762955019E-14));
#795=DIRECTION('center_axis',(0.,0.,-1.));
#796=DIRECTION('ref_axis',(-0.250000000000002,0.968245836551854,-1.33226762955019E-14));
#797=DIRECTION('',(1.66641413298374E-59,-1.29903646418726E-14,-1.));
#798=DIRECTION('center_axis',(0.,0.,1.));
#799=DIRECTION('ref_axis',(-0.250000000000002,0.968245836551854,-1.33226762955019E-14));
#800=DIRECTION('',(1.66641413298374E-59,-1.29903646418726E-14,-1.));
#801=DIRECTION('center_axis',(0.,0.,1.));
#802=DIRECTION('ref_axis',(1.,0.,0.));
#803=DIRECTION('',(9.83390068600254E-60,1.,0.));
#804=DIRECTION('',(0.148340452930246,0.988936352868297,0.));
#805=DIRECTION('center_axis',(1.,-9.83390068600254E-60,1.66641413298375E-59));
#806=DIRECTION('ref_axis',(9.83390068600254E-60,1.,0.));
#807=DIRECTION('',(-9.83390068600254E-60,-1.,0.));
#808=DIRECTION('',(0.,-2.04281036531029E-14,-1.));
#809=DIRECTION('',(0.,-7.04903507698509E-15,-1.));
#810=DIRECTION('center_axis',(-1.,0.,0.));
#811=DIRECTION('ref_axis',(0.,-1.,1.01506105108585E-14));
#812=DIRECTION('',(0.,8.92877776418112E-15,1.));
#813=DIRECTION('center_axis',(-1.,0.,0.));
#814=DIRECTION('ref_axis',(0.,1.,0.));
#815=DIRECTION('center_axis',(1.,0.,0.));
#816=DIRECTION('ref_axis',(0.,0.435889894354069,0.899999999999999));
#817=DIRECTION('center_axis',(0.988936352868298,-0.148340452930246,0.));
#818=DIRECTION('ref_axis',(0.148340452930246,0.988936352868297,2.73265043978755E-15));
#819=DIRECTION('',(-1.,0.,0.));
#820=DIRECTION('center_axis',(-1.,9.83390068600254E-60,-1.66641413298375E-59));
#821=DIRECTION('ref_axis',(0.,0.435889894354069,0.899999999999999));
#822=DIRECTION('',(1.,0.,0.));
#823=DIRECTION('center_axis',(0.988936352868298,-0.148340452930245,0.));
#824=DIRECTION('ref_axis',(-0.148340452930245,-0.988936352868298,0.));
#825=DIRECTION('',(0.148340452930245,0.988936352868297,0.));
#826=DIRECTION('',(0.,-2.04281036531029E-14,-1.));
#827=DIRECTION('',(-0.148340452930245,-0.988936352868297,0.));
#828=DIRECTION('',(1.66641413298374E-59,-1.29903646418726E-14,-1.));
#829=DIRECTION('center_axis',(0.,0.,-1.));
#830=DIRECTION('ref_axis',(-1.,0.,0.));
#831=DIRECTION('center_axis',(0.988936352868298,-0.148340452930246,0.));
#832=DIRECTION('ref_axis',(0.148340452930246,0.988936352868297,0.));
#833=DIRECTION('',(1.66641413298374E-59,-1.29903646418726E-14,-1.));
#834=DIRECTION('',(0.,-2.04281036531029E-14,-1.));
#835=DIRECTION('',(-0.148340452930246,-0.988936352868297,0.));
#836=DIRECTION('center_axis',(-1.,0.,0.));
#837=DIRECTION('ref_axis',(0.,0.992789382421009,-0.119871773792294));
#838=DIRECTION('center_axis',(-1.,9.83390068600253E-60,-1.66641413298375E-59));
#839=DIRECTION('ref_axis',(0.,0.992789382421009,-0.119871773792294));
#840=DIRECTION('',(-1.,0.,0.));
#841=DIRECTION('center_axis',(1.,-3.77225207906925E-31,-1.57772181044202E-30));
#842=DIRECTION('ref_axis',(0.,0.992789382421009,-0.119871773792294));
#843=DIRECTION('',(1.,0.,0.));
#844=DIRECTION('center_axis',(-1.,3.77225207906925E-31,1.57772181044202E-30));
#845=DIRECTION('ref_axis',(-3.77225207906925E-31,-1.,-2.71450898228322E-62));
#846=DIRECTION('',(3.77225207906905E-31,1.,-1.21713338995942E-14));
#847=DIRECTION('',(-1.57772181044203E-30,-1.194330829521E-14,-1.));
#848=DIRECTION('',(-3.77225207906905E-31,-1.,1.21566320014822E-14));
#849=DIRECTION('center_axis',(1.,-3.77225207906925E-31,-1.57772181044202E-30));
#850=DIRECTION('ref_axis',(0.,0.962896269444497,0.269871773792426));
#851=DIRECTION('center_axis',(-1.,3.77225207906925E-31,1.57772181044202E-30));
#852=DIRECTION('ref_axis',(0.,1.,0.));
#853=DIRECTION('center_axis',(-1.,3.77225207906925E-31,1.57772181044202E-30));
#854=DIRECTION('ref_axis',(0.,1.,0.));
#855=DIRECTION('center_axis',(-1.,3.77225207906925E-31,1.57772181044202E-30));
#856=DIRECTION('ref_axis',(0.,1.,0.));
#857=DIRECTION('center_axis',(-1.,3.77225207906925E-31,1.57772181044202E-30));
#858=DIRECTION('ref_axis',(0.,1.,0.));
#859=DIRECTION('center_axis',(-1.,3.77225207906925E-31,1.57772181044202E-30));
#860=DIRECTION('ref_axis',(0.,1.,0.));
#861=DIRECTION('center_axis',(-1.,3.77225207906925E-31,1.57772181044202E-30));
#862=DIRECTION('ref_axis',(0.,1.,0.));
#863=DIRECTION('center_axis',(-1.,3.77225207906925E-31,1.57772181044202E-30));
#864=DIRECTION('ref_axis',(0.,1.,0.));
#865=DIRECTION('center_axis',(-1.,3.77225207906925E-31,1.57772181044202E-30));
#866=DIRECTION('ref_axis',(0.,1.,0.));
#867=DIRECTION('center_axis',(-1.,3.77225207906925E-31,1.57772181044202E-30));
#868=DIRECTION('ref_axis',(0.,1.,0.));
#869=DIRECTION('center_axis',(-1.,3.77225207906925E-31,1.57772181044202E-30));
#870=DIRECTION('ref_axis',(0.,1.,0.));
#871=DIRECTION('center_axis',(1.,0.,0.));
#872=DIRECTION('ref_axis',(0.,0.962896269444497,0.269871773792426));
#873=DIRECTION('',(1.,0.,0.));
#874=DIRECTION('center_axis',(-1.,9.83390068600253E-60,-1.66641413298375E-59));
#875=DIRECTION('ref_axis',(0.,0.962896269444497,0.269871773792426));
#876=DIRECTION('',(-1.,0.,0.));
#877=DIRECTION('center_axis',(0.,1.21566320014822E-14,1.));
#878=DIRECTION('ref_axis',(-2.11985715128522E-31,-1.,1.21566320014822E-14));
#879=DIRECTION('',(1.,0.,0.));
#880=DIRECTION('center_axis',(0.,1.21566320014822E-14,1.));
#881=DIRECTION('ref_axis',(0.707106781186547,0.707106781186547,-5.02429586778808E-15));
#882=DIRECTION('',(-9.83390068600274E-60,-1.,1.20616822428411E-14));
#883=DIRECTION('',(1.,0.,0.));
#884=DIRECTION('',(-9.83390068600274E-60,-1.,1.19568010669516E-14));
#885=DIRECTION('center_axis',(1.,0.,0.));
#886=DIRECTION('ref_axis',(0.,-1.,1.21128733458664E-14));
#887=DIRECTION('center_axis',(-1.,9.83390068600253E-60,-1.66545440929937E-59));
#888=DIRECTION('ref_axis',(9.83390068600254E-60,1.,-7.36841386754008E-134));
#889=DIRECTION('center_axis',(1.66641413298374E-59,-1.194330829521E-14,
-1.));
#890=DIRECTION('ref_axis',(0.707106781186547,0.707106781186547,-5.02429586778808E-15));
#891=DIRECTION('',(1.66641413298374E-59,-1.194330829521E-14,-1.));
#892=DIRECTION('center_axis',(0.,-1.21713338995942E-14,-1.));
#893=DIRECTION('ref_axis',(0.707106781186547,0.707106781186547,-5.02429586778808E-15));
#894=DIRECTION('',(-1.66641413298374E-59,1.194330829521E-14,1.));
#895=DIRECTION('center_axis',(0.,-1.,1.194330829521E-14));
#896=DIRECTION('ref_axis',(2.24189710755931E-30,-1.194330829521E-14,-1.));
#897=DIRECTION('',(1.,0.,0.));
#898=DIRECTION('center_axis',(1.,-9.83390068600253E-60,1.66641413298375E-59));
#899=DIRECTION('ref_axis',(9.83390068600253E-60,1.,-1.0009102307046E-133));
#900=DIRECTION('',(-1.57476633618643E-59,-0.914050530483358,0.405600330033262));
#901=DIRECTION('',(9.83390068600268E-60,1.,-8.75821894218681E-15));
#902=DIRECTION('',(2.22970091565896E-60,0.914050530483367,0.405600330033243));
#903=DIRECTION('',(9.83390068600276E-60,1.,-1.34020229782744E-14));
#904=DIRECTION('center_axis',(-1.,9.83390068600253E-60,-1.66641413298375E-59));
#905=DIRECTION('ref_axis',(9.83390068600253E-60,1.,-7.36841386754008E-134));
#906=DIRECTION('center_axis',(-1.,9.83390068600253E-60,-1.66641413298375E-59));
#907=DIRECTION('ref_axis',(9.83390068600253E-60,1.,-7.36841386754008E-134));
#908=DIRECTION('center_axis',(-1.,9.83390068600253E-60,-1.66641413298375E-59));
#909=DIRECTION('ref_axis',(9.83390068600253E-60,1.,-7.36841386754008E-134));
#910=DIRECTION('center_axis',(-1.,9.83390068600253E-60,-1.66641413298375E-59));
#911=DIRECTION('ref_axis',(9.83390068600254E-60,1.,-7.36841386754008E-134));
#912=DIRECTION('center_axis',(-1.,9.83390068600253E-60,-1.66641413298375E-59));
#913=DIRECTION('ref_axis',(9.83390068600253E-60,1.,-7.36841386754008E-134));
#914=DIRECTION('center_axis',(-1.,9.83390068600253E-60,-1.66641413298375E-59));
#915=DIRECTION('ref_axis',(9.83390068600253E-60,1.,-7.36841386754008E-134));
#916=DIRECTION('center_axis',(-1.,9.83390068600253E-60,-1.66641413298375E-59));
#917=DIRECTION('ref_axis',(9.83390068600253E-60,1.,-7.36841386754008E-134));
#918=DIRECTION('center_axis',(-1.,9.83390068600253E-60,-1.66641413298375E-59));
#919=DIRECTION('ref_axis',(9.83390068600253E-60,1.,-7.36841386754008E-134));
#920=DIRECTION('center_axis',(-1.,9.83390068600253E-60,-1.66641413298375E-59));
#921=DIRECTION('ref_axis',(9.83390068600254E-60,1.,-7.36841386754008E-134));
#922=DIRECTION('center_axis',(0.,-1.21713338995942E-14,-1.));
#923=DIRECTION('ref_axis',(0.,1.,-1.21713338995942E-14));
#924=DIRECTION('',(1.,0.,0.));
#925=DIRECTION('',(2.98109150191594E-60,-1.,1.84000998025841E-14));
#926=DIRECTION('center_axis',(1.,0.,0.));
#927=DIRECTION('ref_axis',(0.,1.,0.));
#928=DIRECTION('center_axis',(-1.,0.,0.));
#929=DIRECTION('ref_axis',(0.,1.,0.));
#930=DIRECTION('',(1.,0.,0.));
#931=DIRECTION('',(1.,0.,0.));
#932=DIRECTION('center_axis',(0.,1.,-8.92877776418112E-15));
#933=DIRECTION('ref_axis',(0.,8.92877776418112E-15,1.));
#934=DIRECTION('',(0.,8.92877776418112E-15,1.));
#935=DIRECTION('',(1.,0.,0.));
#936=DIRECTION('center_axis',(1.,0.,0.));
#937=DIRECTION('ref_axis',(0.,-1.,1.01506105108585E-14));
#938=DIRECTION('center_axis',(-1.,0.,0.));
#939=DIRECTION('ref_axis',(0.,-1.,1.01506105108585E-14));
#940=DIRECTION('',(1.,0.,0.));
#941=DIRECTION('center_axis',(0.,-1.,7.04903507698509E-15));
#942=DIRECTION('ref_axis',(0.,-7.04903507698509E-15,-1.));
#943=DIRECTION('',(0.,-7.04903507698509E-15,-1.));
#944=DIRECTION('center_axis',(0.,1.95399252334028E-14,1.));
#945=DIRECTION('ref_axis',(0.,-1.,1.95399252334028E-14));
#946=DIRECTION('',(0.,-1.,1.95399252334028E-14));
#947=DIRECTION('',(1.,0.,0.));
#948=DIRECTION('',(1.,0.,0.));
#949=DIRECTION('center_axis',(0.,0.405600330033263,0.914050530483358));
#950=DIRECTION('ref_axis',(2.73024852610709E-60,-0.914050530483358,0.405600330033262));
#951=DIRECTION('',(-2.73024852610709E-60,0.914050530483358,-0.405600330033263));
#952=DIRECTION('center_axis',(0.,0.405600330033244,-0.914050530483367));
#953=DIRECTION('ref_axis',(-2.73024852610709E-60,0.914050530483367,0.405600330033243));
#954=DIRECTION('',(-2.73024852610709E-60,0.914050530483367,0.405600330033243));
#955=DIRECTION('',(1.,0.,0.));
#956=DIRECTION('center_axis',(0.,-8.95456580990266E-15,-1.));
#957=DIRECTION('ref_axis',(-1.8575326234333E-60,1.,-8.95456580990266E-15));
#958=DIRECTION('',(-1.8575326234333E-60,1.,-8.95456580990266E-15));
#959=DIRECTION('center_axis',(0.,-6.43929354282595E-15,-1.));
#960=DIRECTION('ref_axis',(0.,1.,-6.43929354282594E-15));
#961=DIRECTION('',(1.,0.,0.));
#962=DIRECTION('',(0.,-1.,6.43929354282594E-15));
#963=DIRECTION('center_axis',(0.,-1.,2.04281036531029E-14));
#964=DIRECTION('ref_axis',(0.,-2.04281036531029E-14,-1.));
#965=DIRECTION('',(0.,-2.04281036531029E-14,-1.));
#966=DIRECTION('center_axis',(1.,-9.83390068600254E-60,1.66641413298375E-59));
#967=DIRECTION('ref_axis',(9.83390068600254E-60,1.,0.));
#968=DIRECTION('center_axis',(1.,0.,0.));
#969=DIRECTION('ref_axis',(0.,1.,0.));
#970=DIRECTION('',(-1.,0.,0.));
#971=DIRECTION('center_axis',(1.,0.,0.));
#972=DIRECTION('ref_axis',(0.,1.,0.));
#973=DIRECTION('',(-1.,0.,0.));
#974=DIRECTION('center_axis',(1.,0.,0.));
#975=DIRECTION('ref_axis',(0.,1.,0.));
#976=DIRECTION('',(-1.,0.,0.));
#977=DIRECTION('center_axis',(1.,0.,0.));
#978=DIRECTION('ref_axis',(0.,1.,0.));
#979=DIRECTION('',(-1.,0.,0.));
#980=DIRECTION('center_axis',(1.,0.,0.));
#981=DIRECTION('ref_axis',(0.,1.,0.));
#982=DIRECTION('',(-1.,0.,0.));
#983=DIRECTION('center_axis',(1.,0.,0.));
#984=DIRECTION('ref_axis',(0.,1.,0.));
#985=DIRECTION('',(-1.,0.,0.));
#986=DIRECTION('center_axis',(1.,0.,0.));
#987=DIRECTION('ref_axis',(0.,1.,0.));
#988=DIRECTION('',(-1.,0.,0.));
#989=DIRECTION('center_axis',(1.,0.,0.));
#990=DIRECTION('ref_axis',(0.,1.,0.));
#991=DIRECTION('',(-1.,0.,0.));
#992=DIRECTION('center_axis',(1.,0.,0.));
#993=DIRECTION('ref_axis',(0.,1.,0.));
#994=DIRECTION('',(-1.,0.,0.));
#995=CARTESIAN_POINT('',(0.,0.,0.));
#996=CARTESIAN_POINT('Origin',(75.8114583598254,-60.2815885382291,67.9018646025116));
#997=CARTESIAN_POINT('',(71.8114583598254,-60.2815885382292,65.9018646025118));
#998=CARTESIAN_POINT('',(74.8114583598254,-56.4086051920217,65.9018646025118));
#999=CARTESIAN_POINT('Origin',(75.8114583598254,-60.2815885382292,65.9018646025117));
#1000=CARTESIAN_POINT('',(71.8114583598254,-60.2815885382295,40.5018646025118));
#1001=CARTESIAN_POINT('',(71.8114583598254,-60.2815885382291,67.9018646025116));
#1002=CARTESIAN_POINT('',(74.8114583598254,-56.4086051920221,40.5018646025118));
#1003=CARTESIAN_POINT('Origin',(75.8114583598254,-60.2815885382295,40.5018646025117));
#1004=CARTESIAN_POINT('',(74.8114583598254,-56.4086051920217,67.9018646025116));
#1005=CARTESIAN_POINT('Origin',(73.3114583598254,-66.4086051920221,40.5018646025118));
#1006=CARTESIAN_POINT('',(71.8114583598254,-76.408605192022,40.5018646025118));
#1007=CARTESIAN_POINT('',(71.8114583598254,-48.0173155519905,40.5018646025118));
#1008=CARTESIAN_POINT('',(74.8114583598254,-56.4086051920221,40.5018646025118));
#1009=CARTESIAN_POINT('Origin',(71.8114583598254,-29.6260259119589,50.9518646025118));
#1010=CARTESIAN_POINT('',(71.8114583598254,-76.4086051920217,65.9018646025118));
#1011=CARTESIAN_POINT('',(71.8114583598254,-48.0173155519903,65.9018646025118));
#1012=CARTESIAN_POINT('',(71.8114583598254,-76.4086051920217,67.901864602512));
#1013=CARTESIAN_POINT('',(71.8114583598254,-64.5934466318959,62.4018646025119));
#1014=CARTESIAN_POINT('',(71.8114583598254,-64.593446631896,43.5018646025118));
#1015=CARTESIAN_POINT('',(71.8114583598254,-64.5934466318959,62.4018646025119));
#1016=CARTESIAN_POINT('',(71.8114583598254,-68.0934466318961,43.5018646025118));
#1017=CARTESIAN_POINT('Origin',(71.8114583598254,-66.343446631896,43.5018646025118));
#1018=CARTESIAN_POINT('',(71.8114583598254,-68.0934466318959,62.4018646025119));
#1019=CARTESIAN_POINT('',(71.8114583598254,-68.0934466318961,43.5018646025118));
#1020=CARTESIAN_POINT('Origin',(71.8114583598254,-66.3434466318959,62.4018646025119));
#1021=CARTESIAN_POINT('Origin',(67.8114583598254,-76.0236504379552,-6.49813539748817));
#1022=CARTESIAN_POINT('',(74.8114583598254,-56.4086051920221,34.0018646025118));
#1023=CARTESIAN_POINT('',(71.8692015729355,-76.0236504379549,38.5018646025118));
#1024=CARTESIAN_POINT('Origin',(71.8692015729355,-76.0236504379552,-6.49813539748817));
#1025=CARTESIAN_POINT('',(67.8114583598254,-76.0236504379549,38.5018646025118));
#1026=CARTESIAN_POINT('',(67.8114583598254,-76.0236504379549,38.5018646025118));
#1027=CARTESIAN_POINT('',(67.8114583598254,-56.4086051920221,34.0018646025118));
#1028=CARTESIAN_POINT('Origin',(67.8114583598254,-76.0236504379552,-6.49813539748817));
#1029=CARTESIAN_POINT('',(67.8114583598254,-56.4086051920221,34.0018646025118));
#1030=CARTESIAN_POINT('Origin',(74.8114583598254,-56.4086051920217,67.9018646025118));
#1031=CARTESIAN_POINT('',(71.8114583598254,-76.4086051920217,67.901864602512));
#1032=CARTESIAN_POINT('',(74.8114583598254,-56.4086051920217,67.9018646025116));
#1033=CARTESIAN_POINT('',(71.8114583598254,-76.4086051920217,67.9018646025118));
#1034=CARTESIAN_POINT('',(71.8114583598254,-76.4086051920217,67.901864602512));
#1035=CARTESIAN_POINT('',(71.8114583598254,-76.4086051920217,65.9018646025118));
#1036=CARTESIAN_POINT('',(74.8114583598254,-56.4086051920217,67.9018646025116));
#1037=CARTESIAN_POINT('Origin',(73.3114583598254,-66.4086051920217,65.9018646025118));
#1038=CARTESIAN_POINT('Origin',(71.8114583598254,-76.408605192022,38.5018646025118));
#1039=CARTESIAN_POINT('',(74.8114583598254,-56.4086051920217,67.9018646025116));
#1040=CARTESIAN_POINT('',(71.8114583598254,-76.408605192022,38.5018646025118));
#1041=CARTESIAN_POINT('',(71.8114583598254,-76.4086051920217,67.901864602512));
#1042=CARTESIAN_POINT('',(74.8114583598254,-56.4086051920221,38.5018646025118));
#1043=CARTESIAN_POINT('Origin',(61.8114583598254,-0.771340456105923,44.1018646025111));
#1044=CARTESIAN_POINT('',(74.8114583598254,9.15655336810417,42.9031468645882));
#1045=CARTESIAN_POINT('',(74.8114583598254,-0.771340456106047,34.1018646025111));
#1046=CARTESIAN_POINT('Origin',(74.8114583598254,-0.771340456105923,44.1018646025111));
#1047=CARTESIAN_POINT('',(64.8114583598254,-0.771340456106044,34.1018646025111));
#1048=CARTESIAN_POINT('',(61.8114583598254,-0.771340456106045,34.1018646025111));
#1049=CARTESIAN_POINT('',(64.8114583598254,9.15655336810417,42.9031468645882));
#1050=CARTESIAN_POINT('Origin',(64.8114583598254,-0.771340456105923,44.1018646025111));
#1051=CARTESIAN_POINT('',(61.8114583598254,9.15655336810417,42.9031468645882));
#1052=CARTESIAN_POINT('Origin',(64.8114583598254,-3.0934466318959,46.0518646025111));
#1053=CARTESIAN_POINT('',(64.8114583598254,-23.3434466318961,34.1018646025114));
#1054=CARTESIAN_POINT('',(64.8114583598254,-13.2184466318961,34.1018646025112));
#1055=CARTESIAN_POINT('',(64.8114583598254,-23.3434466318959,58.0018646025114));
#1056=CARTESIAN_POINT('',(64.8114583598254,-23.3434466318959,52.0268646025114));
#1057=CARTESIAN_POINT('',(64.8114583598254,-0.472409326340585,58.0018646025111));
#1058=CARTESIAN_POINT('',(64.8114583598254,7.0315533681043,58.001864602511));
#1059=CARTESIAN_POINT('',(64.8114583598254,9.15655336810427,50.7005823404353));
#1060=CARTESIAN_POINT('Origin',(64.8114583598254,-0.472409326340706,48.0018646025111));
#1061=CARTESIAN_POINT('Origin',(64.8114583598254,9.25655336810401,46.8018646025117));
#1062=CARTESIAN_POINT('',(64.8114583598254,-8.34344663189608,38.9018646025121));
#1063=CARTESIAN_POINT('Origin',(64.8114583598254,-6.54344663189608,38.9018646025121));
#1064=CARTESIAN_POINT('',(64.8114583598254,-2.75730306052193,52.3880081738857));
#1065=CARTESIAN_POINT('Origin',(64.8114583598254,-0.957303060521931,52.3880081738857));
#1066=CARTESIAN_POINT('',(64.8114583598254,-13.9295902032699,52.3880081738859));
#1067=CARTESIAN_POINT('Origin',(64.8114583598254,-12.1295902032699,52.3880081738859));
#1068=CARTESIAN_POINT('',(64.8114583598254,-10.443446631896,46.8018646025121));
#1069=CARTESIAN_POINT('Origin',(64.8114583598254,-6.54344663189599,46.8018646025121));
#1070=CARTESIAN_POINT('',(64.8114583598254,-16.243446631896,46.8018646025122));
#1071=CARTESIAN_POINT('Origin',(64.8114583598254,-14.443446631896,46.8018646025122));
#1072=CARTESIAN_POINT('',(64.8114583598254,-0.443446631895986,46.8018646025119));
#1073=CARTESIAN_POINT('Origin',(64.8114583598254,1.35655336810402,46.8018646025119));
#1074=CARTESIAN_POINT('',(64.8114583598254,-2.75730306052207,41.2157210311382));
#1075=CARTESIAN_POINT('Origin',(64.8114583598254,-0.957303060522074,41.2157210311382));
#1076=CARTESIAN_POINT('',(64.8114583598254,-13.9295902032701,41.2157210311384));
#1077=CARTESIAN_POINT('Origin',(64.8114583598254,-12.1295902032701,41.2157210311384));
#1078=CARTESIAN_POINT('',(64.8114583598254,-8.34344663189591,54.7018646025121));
#1079=CARTESIAN_POINT('Origin',(64.8114583598254,-6.5434466318959,54.7018646025121));
#1080=CARTESIAN_POINT('Origin',(61.8114583598254,-0.472409326340706,48.0018646025111));
#1081=CARTESIAN_POINT('',(74.8114583598254,-0.472409326340584,58.0018646025111));
#1082=CARTESIAN_POINT('',(61.8114583598254,-0.472409326340584,58.0018646025111));
#1083=CARTESIAN_POINT('',(74.8114583598254,9.15655336810427,50.7005823404353));
#1084=CARTESIAN_POINT('Origin',(74.8114583598254,-0.472409326340706,48.0018646025111));
#1085=CARTESIAN_POINT('',(61.8114583598254,9.15655336810427,50.7005823404353));
#1086=CARTESIAN_POINT('Origin',(61.8114583598254,17.1565533681044,58.0018646025109));
#1087=CARTESIAN_POINT('',(65.3114583598254,-23.3434466318959,58.0018646025114));
#1088=CARTESIAN_POINT('',(61.8114583598254,-23.3434466318959,58.0018646025114));
#1089=CARTESIAN_POINT('',(67.8114583598254,-25.8434466318959,58.0018646025114));
#1090=CARTESIAN_POINT('Origin',(65.3114583598254,-25.8434466318959,58.0018646025114));
#1091=CARTESIAN_POINT('',(67.8114583598254,-34.0982183857703,58.0018646025115));
#1092=CARTESIAN_POINT('',(67.8114583598254,17.1565533681044,58.0018646025109));
#1093=CARTESIAN_POINT('',(74.8114583598254,-34.0982183857703,58.0018646025115));
#1094=CARTESIAN_POINT('',(67.8114583598254,-34.0982183857703,58.0018646025115));
#1095=CARTESIAN_POINT('',(74.8114583598254,17.1565533681044,58.0018646025109));
#1096=CARTESIAN_POINT('Origin',(61.8114583598254,9.25655336810401,46.8018646025117));
#1097=CARTESIAN_POINT('Origin',(74.8114583598254,9.25655336810401,46.8018646025117));
#1098=CARTESIAN_POINT('Origin',(65.3114583598254,-25.8434466318959,54.4768646025116));
#1099=CARTESIAN_POINT('',(65.3114583598254,-23.3434466318961,34.1018646025114));
#1100=CARTESIAN_POINT('',(65.3114583598254,-23.3434466318959,54.4768646025115));
#1101=CARTESIAN_POINT('',(67.8114583598254,-25.8434466318962,34.1018646025114));
#1102=CARTESIAN_POINT('Origin',(65.3114583598254,-25.8434466318962,34.1018646025114));
#1103=CARTESIAN_POINT('',(67.8114583598254,-25.8434466318959,54.4768646025116));
#1104=CARTESIAN_POINT('Origin',(61.8114583598254,-23.3434466318959,58.0018646025114));
#1105=CARTESIAN_POINT('',(61.8114583598254,-23.3434466318961,34.1018646025114));
#1106=CARTESIAN_POINT('Origin',(74.8114583598254,-19.6260259119589,50.9518646025116));
#1107=CARTESIAN_POINT('',(74.8114583598254,-34.0982183857703,58.0018646025115));
#1108=CARTESIAN_POINT('',(74.8114583598254,-34.0982183857705,34.0018646025116));
#1109=CARTESIAN_POINT('',(74.8114583598254,-56.4086051920221,34.0018646025118));
#1110=CARTESIAN_POINT('',(74.8114583598254,-33.8728609432832,34.1018646025116));
#1111=CARTESIAN_POINT('',(74.8114583598254,-34.0982183857705,34.0018646025116));
#1112=CARTESIAN_POINT('',(74.8114583598254,-33.8728609432832,34.1018646025116));
#1113=CARTESIAN_POINT('',(74.8114583598254,-8.34344663189608,38.9018646025121));
#1114=CARTESIAN_POINT('Origin',(74.8114583598254,-6.54344663189608,38.9018646025121));
#1115=CARTESIAN_POINT('',(74.8114583598254,-8.34344663189591,54.7018646025121));
#1116=CARTESIAN_POINT('Origin',(74.8114583598254,-6.5434466318959,54.7018646025121));
#1117=CARTESIAN_POINT('',(74.8114583598254,-2.75730306052207,41.2157210311382));
#1118=CARTESIAN_POINT('Origin',(74.8114583598254,-0.957303060522074,41.2157210311382));
#1119=CARTESIAN_POINT('',(74.8114583598254,-10.443446631896,46.8018646025121));
#1120=CARTESIAN_POINT('Origin',(74.8114583598254,-6.54344663189599,46.8018646025121));
#1121=CARTESIAN_POINT('',(74.8114583598254,-2.75730306052193,52.3880081738857));
#1122=CARTESIAN_POINT('Origin',(74.8114583598254,-0.957303060521932,52.3880081738857));
#1123=CARTESIAN_POINT('',(74.8114583598254,-13.9295902032699,52.3880081738859));
#1124=CARTESIAN_POINT('Origin',(74.8114583598254,-12.1295902032699,52.3880081738859));
#1125=CARTESIAN_POINT('',(74.8114583598254,-13.9295902032701,41.2157210311384));
#1126=CARTESIAN_POINT('Origin',(74.8114583598254,-12.1295902032701,41.2157210311384));
#1127=CARTESIAN_POINT('',(74.8114583598254,-16.243446631896,46.8018646025122));
#1128=CARTESIAN_POINT('Origin',(74.8114583598254,-14.443446631896,46.8018646025122));
#1129=CARTESIAN_POINT('',(74.8114583598254,-0.443446631895986,46.8018646025119));
#1130=CARTESIAN_POINT('Origin',(74.8114583598254,1.35655336810402,46.8018646025119));
#1131=CARTESIAN_POINT('Origin',(61.8114583598254,-23.3434466318961,34.1018646025114));
#1132=CARTESIAN_POINT('',(67.8114583598254,-33.8728609432832,34.1018646025116));
#1133=CARTESIAN_POINT('',(67.8114583598254,-33.8728609432832,34.1018646025116));
#1134=CARTESIAN_POINT('',(67.8114583598254,-23.3434466318961,34.1018646025114));
#1135=CARTESIAN_POINT('Origin',(67.8114583598254,-66.3434466318959,62.4018646025119));
#1136=CARTESIAN_POINT('',(67.8114583598254,-68.0934466318959,62.4018646025119));
#1137=CARTESIAN_POINT('',(67.8114583598254,-64.5934466318959,62.4018646025119));
#1138=CARTESIAN_POINT('Origin',(67.8114583598254,-66.3434466318959,62.4018646025119));
#1139=CARTESIAN_POINT('',(67.8114583598254,-64.5934466318959,62.4018646025119));
#1140=CARTESIAN_POINT('',(67.8114583598254,-68.0934466318959,62.4018646025119));
#1141=CARTESIAN_POINT('Origin',(67.8114583598254,-68.0934466318961,43.5018646025118));
#1142=CARTESIAN_POINT('',(67.8114583598254,-68.0934466318961,43.5018646025118));
#1143=CARTESIAN_POINT('',(67.8114583598254,-68.0934466318961,43.5018646025118));
#1144=CARTESIAN_POINT('',(67.8114583598254,-68.0934466318961,43.5018646025118));
#1145=CARTESIAN_POINT('Origin',(67.8114583598254,-66.343446631896,43.5018646025118));
#1146=CARTESIAN_POINT('',(67.8114583598254,-64.593446631896,43.5018646025118));
#1147=CARTESIAN_POINT('Origin',(67.8114583598254,-66.343446631896,43.5018646025118));
#1148=CARTESIAN_POINT('',(67.8114583598254,-64.593446631896,43.5018646025118));
#1149=CARTESIAN_POINT('Origin',(67.8114583598254,-64.5934466318959,62.4018646025119));
#1150=CARTESIAN_POINT('',(67.8114583598254,-64.5934466318959,62.4018646025119));
#1151=CARTESIAN_POINT('Origin',(67.8114583598254,-56.4086051920217,67.9018646025116));
#1152=CARTESIAN_POINT('',(67.8114583598254,-56.4086051920217,67.9018646025116));
#1153=CARTESIAN_POINT('',(67.8114583598254,-76.4086051920217,67.901864602512));
#1154=CARTESIAN_POINT('',(67.8114583598254,-56.4086051920217,67.9018646025116));
#1155=CARTESIAN_POINT('',(67.8114583598254,-76.4086051920217,67.901864602512));
#1156=CARTESIAN_POINT('',(67.8114583598254,-56.4086051920217,67.9018646025116));
#1157=CARTESIAN_POINT('Origin',(67.8114583598254,-34.0982183857703,58.0018646025115));
#1158=CARTESIAN_POINT('',(67.8114583598254,-56.4086051920217,67.9018646025116));
#1159=CARTESIAN_POINT('Origin',(67.8114583598254,-34.0982183857705,34.0018646025116));
#1160=CARTESIAN_POINT('',(67.8114583598254,-34.0982183857705,34.0018646025116));
#1161=CARTESIAN_POINT('',(67.8114583598254,-56.4086051920222,24.101864602512));
#1162=CARTESIAN_POINT('',(67.8114583598254,-34.0982183857705,34.0018646025116));
#1163=CARTESIAN_POINT('Origin',(67.8114583598254,-56.4086051920221,34.0018646025118));
#1164=CARTESIAN_POINT('',(67.8114583598254,-76.408605192022,34.001864602512));
#1165=CARTESIAN_POINT('Origin',(67.8114583598254,-76.408605192022,38.5018646025118));
#1166=CARTESIAN_POINT('',(67.8114583598254,-76.408605192022,38.5018646025118));
#1167=CARTESIAN_POINT('',(67.8114583598254,-76.408605192022,38.5018646025118));
#1168=CARTESIAN_POINT('',(67.8114583598254,-56.4086051920221,38.5018646025117));
#1169=CARTESIAN_POINT('Origin',(67.8114583598254,-76.4086051920217,67.901864602512));
#1170=CARTESIAN_POINT('',(67.8114583598254,-76.4086051920217,67.901864602512));
#1171=CARTESIAN_POINT('Origin',(67.8114583598254,-29.6260259119589,50.9518646025118));
#1172=CARTESIAN_POINT('Origin',(61.8114583598254,-0.957303060522074,41.2157210311382));
#1173=CARTESIAN_POINT('',(61.8114583598254,-2.75730306052207,41.2157210311382));
#1174=CARTESIAN_POINT('Origin',(61.8114583598254,-12.1295902032701,41.2157210311384));
#1175=CARTESIAN_POINT('',(61.8114583598254,-13.9295902032701,41.2157210311384));
#1176=CARTESIAN_POINT('Origin',(61.8114583598254,-6.5434466318959,54.7018646025121));
#1177=CARTESIAN_POINT('',(61.8114583598254,-8.34344663189591,54.7018646025121));
#1178=CARTESIAN_POINT('Origin',(61.8114583598254,-6.54344663189608,38.9018646025121));
#1179=CARTESIAN_POINT('',(61.8114583598254,-8.34344663189608,38.9018646025121));
#1180=CARTESIAN_POINT('Origin',(61.8114583598254,-14.443446631896,46.8018646025122));
#1181=CARTESIAN_POINT('',(61.8114583598254,-16.243446631896,46.8018646025122));
#1182=CARTESIAN_POINT('Origin',(61.8114583598254,-6.54344663189599,46.8018646025121));
#1183=CARTESIAN_POINT('',(61.8114583598254,-10.443446631896,46.8018646025121));
#1184=CARTESIAN_POINT('Origin',(61.8114583598254,-0.957303060521931,52.3880081738857));
#1185=CARTESIAN_POINT('',(61.8114583598254,-2.75730306052193,52.3880081738857));
#1186=CARTESIAN_POINT('Origin',(61.8114583598254,-12.1295902032699,52.3880081738859));
#1187=CARTESIAN_POINT('',(61.8114583598254,-13.9295902032699,52.3880081738859));
#1188=CARTESIAN_POINT('Origin',(61.8114583598254,1.35655336810402,46.8018646025119));
#1189=CARTESIAN_POINT('',(61.8114583598254,-0.443446631895986,46.8018646025119));
#1190=UNCERTAINTY_MEASURE_WITH_UNIT(LENGTH_MEASURE(0.01),#1194,
'DISTANCE_ACCURACY_VALUE',
'Maximum model space distance between geometric entities at asserted c
onnectivities');
#1191=UNCERTAINTY_MEASURE_WITH_UNIT(LENGTH_MEASURE(0.01),#1194,
'DISTANCE_ACCURACY_VALUE',
'Maximum model space distance between geometric entities at asserted c
onnectivities');
#1192=(
GEOMETRIC_REPRESENTATION_CONTEXT(3)
GLOBAL_UNCERTAINTY_ASSIGNED_CONTEXT((#1190))
GLOBAL_UNIT_ASSIGNED_CONTEXT((#1194,#1196,#1197))
REPRESENTATION_CONTEXT('','3D')
);
#1193=(
GEOMETRIC_REPRESENTATION_CONTEXT(3)
GLOBAL_UNCERTAINTY_ASSIGNED_CONTEXT((#1191))
GLOBAL_UNIT_ASSIGNED_CONTEXT((#1194,#1196,#1197))
REPRESENTATION_CONTEXT('','3D')
);
#1194=(
LENGTH_UNIT()
NAMED_UNIT(*)
SI_UNIT(.MILLI.,.METRE.)
);
#1195=(
LENGTH_UNIT()
NAMED_UNIT(*)
SI_UNIT($,.METRE.)
);
#1196=(
NAMED_UNIT(*)
PLANE_ANGLE_UNIT()
SI_UNIT($,.RADIAN.)
);
#1197=(
NAMED_UNIT(*)
SI_UNIT($,.STERADIAN.)
SOLID_ANGLE_UNIT()
);
#1198=SHAPE_DEFINITION_REPRESENTATION(#1199,#1200);
#1199=PRODUCT_DEFINITION_SHAPE('',$,#1202);
#1200=SHAPE_REPRESENTATION('',(#720),#1192);
#1201=PRODUCT_DEFINITION_CONTEXT('part definition',#1206,'design');
#1202=PRODUCT_DEFINITION('Castor Mount Back','Castor Mount Back',#1203,
#1201);
#1203=PRODUCT_DEFINITION_FORMATION('',$,#1208);
#1204=PRODUCT_RELATED_PRODUCT_CATEGORY('Castor Mount Back',
'Castor Mount Back',(#1208));
#1205=APPLICATION_PROTOCOL_DEFINITION('international standard',
'automotive_design',2009,#1206);
#1206=APPLICATION_CONTEXT(
'Core Data for Automotive Mechanical Design Process');
#1207=PRODUCT_CONTEXT('part definition',#1206,'mechanical');
#1208=PRODUCT('Castor Mount Back','Castor Mount Back',$,(#1207));
#1209=PRESENTATION_STYLE_ASSIGNMENT((#1210));
#1210=SURFACE_STYLE_USAGE(.BOTH.,#1211);
#1211=SURFACE_SIDE_STYLE('',(#1212));
#1212=SURFACE_STYLE_FILL_AREA(#1213);
#1213=FILL_AREA_STYLE('Steel - Satin',(#1214));
#1214=FILL_AREA_STYLE_COLOUR('Steel - Satin',#1215);
#1215=COLOUR_RGB('Steel - Satin',0.627450980392157,0.627450980392157,0.627450980392157);
ENDSEC;
END-ISO-10303-21;
