ISO-10303-21;
HEADER;
/* Generated by software containing ST-Developer
 * from STEP Tools, Inc. (www.steptools.com) 
 */

FILE_DESCRIPTION(
/* description */ (''),
/* implementation_level */ '2;1');

FILE_NAME(
/* name */ 'Component18.step',
/* time_stamp */ '2026-03-01T00:21:31+05:30',
/* author */ (''),
/* organization */ (''),
/* preprocessor_version */ 'ST-DEVELOPER v20.1',
/* originating_system */ 'Autodesk Translation Framework v14.24.0.0',
/* authorisation */ '');

FILE_SCHEMA (('AUTOMOTIVE_DESIGN { 1 0 10303 214 3 1 1 }'));
ENDSEC;

DATA;
#10=MECHANICAL_DESIGN_GEOMETRIC_PRESENTATION_REPRESENTATION('',(#13),#125);
#11=SHAPE_REPRESENTATION_RELATIONSHIP('SRR','None',#132,#12);
#12=ADVANCED_BREP_SHAPE_REPRESENTATION('',(#14),#124);
#13=STYLED_ITEM('',(#142),#14);
#14=MANIFOLD_SOLID_BREP('Body1',#65);
#15=LINE('',#116,#17);
#16=LINE('',#120,#18);
#17=VECTOR('',#99,6.49999999999999);
#18=VECTOR('',#104,7.5);
#19=CYLINDRICAL_SURFACE('',#82,6.49999999999999);
#20=CYLINDRICAL_SURFACE('',#84,7.5);
#21=FACE_BOUND('',#28,.T.);
#22=FACE_BOUND('',#32,.T.);
#23=FACE_OUTER_BOUND('',#27,.T.);
#24=FACE_OUTER_BOUND('',#29,.T.);
#25=FACE_OUTER_BOUND('',#30,.T.);
#26=FACE_OUTER_BOUND('',#31,.T.);
#27=EDGE_LOOP('',(#47));
#28=EDGE_LOOP('',(#48));
#29=EDGE_LOOP('',(#49,#50,#51,#52));
#30=EDGE_LOOP('',(#53,#54,#55,#56));
#31=EDGE_LOOP('',(#57));
#32=EDGE_LOOP('',(#58));
#33=CIRCLE('',#80,7.5);
#34=CIRCLE('',#81,6.49999999999999);
#35=CIRCLE('',#83,6.49999999999999);
#36=CIRCLE('',#85,7.5);
#37=VERTEX_POINT('',#109);
#38=VERTEX_POINT('',#111);
#39=VERTEX_POINT('',#114);
#40=VERTEX_POINT('',#118);
#41=EDGE_CURVE('',#37,#37,#33,.T.);
#42=EDGE_CURVE('',#38,#38,#34,.T.);
#43=EDGE_CURVE('',#39,#39,#35,.T.);
#44=EDGE_CURVE('',#39,#38,#15,.T.);
#45=EDGE_CURVE('',#40,#40,#36,.T.);
#46=EDGE_CURVE('',#40,#37,#16,.T.);
#47=ORIENTED_EDGE('',*,*,#41,.T.);
#48=ORIENTED_EDGE('',*,*,#42,.T.);
#49=ORIENTED_EDGE('',*,*,#43,.F.);
#50=ORIENTED_EDGE('',*,*,#44,.T.);
#51=ORIENTED_EDGE('',*,*,#42,.F.);
#52=ORIENTED_EDGE('',*,*,#44,.F.);
#53=ORIENTED_EDGE('',*,*,#45,.F.);
#54=ORIENTED_EDGE('',*,*,#46,.T.);
#55=ORIENTED_EDGE('',*,*,#41,.F.);
#56=ORIENTED_EDGE('',*,*,#46,.F.);
#57=ORIENTED_EDGE('',*,*,#45,.T.);
#58=ORIENTED_EDGE('',*,*,#43,.T.);
#59=PLANE('',#79);
#60=PLANE('',#86);
#61=ADVANCED_FACE('',(#23,#21),#59,.F.);
#62=ADVANCED_FACE('',(#24),#19,.F.);
#63=ADVANCED_FACE('',(#25),#20,.T.);
#64=ADVANCED_FACE('',(#26,#22),#60,.T.);
#65=CLOSED_SHELL('',(#61,#62,#63,#64));
#66=DERIVED_UNIT_ELEMENT(#68,1.);
#67=DERIVED_UNIT_ELEMENT(#127,-3.);
#68=(
MASS_UNIT()
NAMED_UNIT(*)
SI_UNIT(.KILO.,.GRAM.)
);
#69=DERIVED_UNIT((#66,#67));
#70=MEASURE_REPRESENTATION_ITEM('density measure',
POSITIVE_RATIO_MEASURE(7850.),#69);
#71=PROPERTY_DEFINITION_REPRESENTATION(#76,#73);
#72=PROPERTY_DEFINITION_REPRESENTATION(#77,#74);
#73=REPRESENTATION('material name',(#75),#124);
#74=REPRESENTATION('density',(#70),#124);
#75=DESCRIPTIVE_REPRESENTATION_ITEM('Steel','Steel');
#76=PROPERTY_DEFINITION('material property','material name',#134);
#77=PROPERTY_DEFINITION('material property','density of part',#134);
#78=AXIS2_PLACEMENT_3D('',#107,#87,#88);
#79=AXIS2_PLACEMENT_3D('',#108,#89,#90);
#80=AXIS2_PLACEMENT_3D('',#110,#91,#92);
#81=AXIS2_PLACEMENT_3D('',#112,#93,#94);
#82=AXIS2_PLACEMENT_3D('',#113,#95,#96);
#83=AXIS2_PLACEMENT_3D('',#115,#97,#98);
#84=AXIS2_PLACEMENT_3D('',#117,#100,#101);
#85=AXIS2_PLACEMENT_3D('',#119,#102,#103);
#86=AXIS2_PLACEMENT_3D('',#121,#105,#106);
#87=DIRECTION('axis',(0.,0.,1.));
#88=DIRECTION('refdir',(1.,0.,0.));
#89=DIRECTION('center_axis',(0.258819043078389,-0.965925826831433,-6.66426003676932E-18));
#90=DIRECTION('ref_axis',(0.965925826831433,0.258819043078389,-3.76730814376429E-25));
#91=DIRECTION('center_axis',(-0.258819043078389,0.965925826831433,6.66426003676932E-18));
#92=DIRECTION('ref_axis',(0.965925826831433,0.258819043078389,-3.76730814376429E-25));
#93=DIRECTION('center_axis',(0.258819043078389,-0.965925826831433,-6.66426003676932E-18));
#94=DIRECTION('ref_axis',(0.965925826831433,0.258819043078389,-3.76730814376429E-25));
#95=DIRECTION('center_axis',(0.258819043078389,-0.965925826831433,0.));
#96=DIRECTION('ref_axis',(0.965925826831433,0.258819043078389,-3.76730814376429E-25));
#97=DIRECTION('center_axis',(-0.258819043078389,0.965925826831433,6.66426003676932E-18));
#98=DIRECTION('ref_axis',(0.965925826831433,0.258819043078389,-3.76730814376429E-25));
#99=DIRECTION('',(-0.258819043078389,0.965925826831433,0.));
#100=DIRECTION('center_axis',(0.258819043078389,-0.965925826831433,0.));
#101=DIRECTION('ref_axis',(0.965925826831433,0.258819043078389,-3.76730814376429E-25));
#102=DIRECTION('center_axis',(0.258819043078389,-0.965925826831433,-6.66426003676932E-18));
#103=DIRECTION('ref_axis',(0.965925826831433,0.258819043078389,-3.76730814376429E-25));
#104=DIRECTION('',(-0.258819043078389,0.965925826831433,0.));
#105=DIRECTION('center_axis',(0.258819043078389,-0.965925826831433,-6.66426003676932E-18));
#106=DIRECTION('ref_axis',(0.965925826831433,0.258819043078389,-3.76730814376429E-25));
#107=CARTESIAN_POINT('',(0.,0.,0.));
#108=CARTESIAN_POINT('Origin',(121.858334566555,175.295075624885,424.801429796661));
#109=CARTESIAN_POINT('',(114.613890865319,173.353932801797,424.801429796661));
#110=CARTESIAN_POINT('Origin',(121.858334566555,175.295075624885,424.801429796661));
#111=CARTESIAN_POINT('',(115.579816692151,173.612751844875,424.801429796661));
#112=CARTESIAN_POINT('Origin',(121.858334566555,175.295075624885,424.801429796661));
#113=CARTESIAN_POINT('Origin',(125.740620212731,160.806188222413,424.801429796661));
#114=CARTESIAN_POINT('',(155.696768369301,23.8942486860033,424.801429796661));
#115=CARTESIAN_POINT('Origin',(161.975286243705,25.5765724660128,424.801429796661));
#116=CARTESIAN_POINT('',(119.462102338326,159.123864442404,424.801429796661));
#117=CARTESIAN_POINT('Origin',(125.740620212731,160.806188222413,424.801429796661));
#118=CARTESIAN_POINT('',(154.73084254247,23.6354296429249,424.801429796661));
#119=CARTESIAN_POINT('Origin',(161.975286243705,25.5765724660128,424.801429796661));
#120=CARTESIAN_POINT('',(118.496176511495,158.865045399325,424.801429796661));
#121=CARTESIAN_POINT('Origin',(161.975286243705,25.5765724660128,424.801429796661));
#122=UNCERTAINTY_MEASURE_WITH_UNIT(LENGTH_MEASURE(0.01),#126,
'DISTANCE_ACCURACY_VALUE',
'Maximum model space distance between geometric entities at asserted c
onnectivities');
#123=UNCERTAINTY_MEASURE_WITH_UNIT(LENGTH_MEASURE(0.01),#126,
'DISTANCE_ACCURACY_VALUE',
'Maximum model space distance between geometric entities at asserted c
onnectivities');
#124=(
GEOMETRIC_REPRESENTATION_CONTEXT(3)
GLOBAL_UNCERTAINTY_ASSIGNED_CONTEXT((#122))
GLOBAL_UNIT_ASSIGNED_CONTEXT((#126,#128,#129))
REPRESENTATION_CONTEXT('','3D')
);
#125=(
GEOMETRIC_REPRESENTATION_CONTEXT(3)
GLOBAL_UNCERTAINTY_ASSIGNED_CONTEXT((#123))
GLOBAL_UNIT_ASSIGNED_CONTEXT((#126,#128,#129))
REPRESENTATION_CONTEXT('','3D')
);
#126=(
LENGTH_UNIT()
NAMED_UNIT(*)
SI_UNIT(.MILLI.,.METRE.)
);
#127=(
LENGTH_UNIT()
NAMED_UNIT(*)
SI_UNIT($,.METRE.)
);
#128=(
NAMED_UNIT(*)
PLANE_ANGLE_UNIT()
SI_UNIT($,.RADIAN.)
);
#129=(
NAMED_UNIT(*)
SI_UNIT($,.STERADIAN.)
SOLID_ANGLE_UNIT()
);
#130=SHAPE_DEFINITION_REPRESENTATION(#131,#132);
#131=PRODUCT_DEFINITION_SHAPE('',$,#134);
#132=SHAPE_REPRESENTATION('',(#78),#124);
#133=PRODUCT_DEFINITION_CONTEXT('part definition',#138,'design');
#134=PRODUCT_DEFINITION('FusionComponent','FusionComponent',#135,#133);
#135=PRODUCT_DEFINITION_FORMATION('',$,#140);
#136=PRODUCT_RELATED_PRODUCT_CATEGORY('FusionComponent',
'FusionComponent',(#140));
#137=APPLICATION_PROTOCOL_DEFINITION('international standard',
'automotive_design',2009,#138);
#138=APPLICATION_CONTEXT(
'Core Data for Automotive Mechanical Design Process');
#139=PRODUCT_CONTEXT('part definition',#138,'mechanical');
#140=PRODUCT('FusionComponent','FusionComponent',$,(#139));
#141=PRESENTATION_STYLE_ASSIGNMENT((#143));
#142=PRESENTATION_STYLE_ASSIGNMENT((#144));
#143=SURFACE_STYLE_USAGE(.BOTH.,#145);
#144=SURFACE_STYLE_USAGE(.BOTH.,#146);
#145=SURFACE_SIDE_STYLE('',(#147));
#146=SURFACE_SIDE_STYLE('',(#148));
#147=SURFACE_STYLE_FILL_AREA(#149);
#148=SURFACE_STYLE_FILL_AREA(#150);
#149=FILL_AREA_STYLE('Steel - Satin',(#151));
#150=FILL_AREA_STYLE('EPX 86FR (with Carbon M2 M3 L1 3D Printers)',(#152));
#151=FILL_AREA_STYLE_COLOUR('Steel - Satin',#153);
#152=FILL_AREA_STYLE_COLOUR(
'EPX 86FR (with Carbon M2 M3 L1 3D Printers)',#154);
#153=COLOUR_RGB('Steel - Satin',0.627450980392157,0.627450980392157,0.627450980392157);
#154=COLOUR_RGB('EPX 86FR (with Carbon M2 M3 L1 3D Printers)',0.247058823529412,
0.247058823529412,0.247058823529412);
ENDSEC;
END-ISO-10303-21;
