ISO-10303-21;
HEADER;
/* Generated by software containing ST-Developer
 * from STEP Tools, Inc. (www.steptools.com) 
 */

FILE_DESCRIPTION(
/* description */ (''),
/* implementation_level */ '2;1');

FILE_NAME(
/* name */ 'Component19.step',
/* time_stamp */ '2026-03-01T00:21:38+05:30',
/* author */ (''),
/* organization */ (''),
/* preprocessor_version */ 'ST-DEVELOPER v20.1',
/* originating_system */ 'Autodesk Translation Framework v14.24.0.0',
/* authorisation */ '');

FILE_SCHEMA (('AUTOMOTIVE_DESIGN { 1 0 10303 214 3 1 1 }'));
ENDSEC;

DATA;
#10=MECHANICAL_DESIGN_GEOMETRIC_PRESENTATION_REPRESENTATION('',(#14,#15),
#126);
#11=SHAPE_REPRESENTATION_RELATIONSHIP('SRR','None',#133,#12);
#12=ADVANCED_BREP_SHAPE_REPRESENTATION('',(#13),#125);
#13=MANIFOLD_SOLID_BREP('Body1',#66);
#14=STYLED_ITEM('',(#143),#64);
#15=STYLED_ITEM('',(#142),#13);
#16=LINE('',#117,#18);
#17=LINE('',#121,#19);
#18=VECTOR('',#100,6.49999999999999);
#19=VECTOR('',#105,7.49999999999999);
#20=CYLINDRICAL_SURFACE('',#83,6.49999999999999);
#21=CYLINDRICAL_SURFACE('',#85,7.49999999999999);
#22=FACE_BOUND('',#29,.T.);
#23=FACE_BOUND('',#33,.T.);
#24=FACE_OUTER_BOUND('',#28,.T.);
#25=FACE_OUTER_BOUND('',#30,.T.);
#26=FACE_OUTER_BOUND('',#31,.T.);
#27=FACE_OUTER_BOUND('',#32,.T.);
#28=EDGE_LOOP('',(#48));
#29=EDGE_LOOP('',(#49));
#30=EDGE_LOOP('',(#50,#51,#52,#53));
#31=EDGE_LOOP('',(#54,#55,#56,#57));
#32=EDGE_LOOP('',(#58));
#33=EDGE_LOOP('',(#59));
#34=CIRCLE('',#81,7.49999999999999);
#35=CIRCLE('',#82,6.49999999999999);
#36=CIRCLE('',#84,6.49999999999999);
#37=CIRCLE('',#86,7.49999999999999);
#38=VERTEX_POINT('',#110);
#39=VERTEX_POINT('',#112);
#40=VERTEX_POINT('',#115);
#41=VERTEX_POINT('',#119);
#42=EDGE_CURVE('',#38,#38,#34,.T.);
#43=EDGE_CURVE('',#39,#39,#35,.T.);
#44=EDGE_CURVE('',#40,#40,#36,.T.);
#45=EDGE_CURVE('',#40,#39,#16,.T.);
#46=EDGE_CURVE('',#41,#41,#37,.T.);
#47=EDGE_CURVE('',#41,#38,#17,.T.);
#48=ORIENTED_EDGE('',*,*,#42,.T.);
#49=ORIENTED_EDGE('',*,*,#43,.T.);
#50=ORIENTED_EDGE('',*,*,#44,.F.);
#51=ORIENTED_EDGE('',*,*,#45,.T.);
#52=ORIENTED_EDGE('',*,*,#43,.F.);
#53=ORIENTED_EDGE('',*,*,#45,.F.);
#54=ORIENTED_EDGE('',*,*,#46,.F.);
#55=ORIENTED_EDGE('',*,*,#47,.T.);
#56=ORIENTED_EDGE('',*,*,#42,.F.);
#57=ORIENTED_EDGE('',*,*,#47,.F.);
#58=ORIENTED_EDGE('',*,*,#46,.T.);
#59=ORIENTED_EDGE('',*,*,#44,.T.);
#60=PLANE('',#80);
#61=PLANE('',#87);
#62=ADVANCED_FACE('',(#24,#22),#60,.F.);
#63=ADVANCED_FACE('',(#25),#20,.F.);
#64=ADVANCED_FACE('',(#26),#21,.T.);
#65=ADVANCED_FACE('',(#27,#23),#61,.T.);
#66=CLOSED_SHELL('',(#62,#63,#64,#65));
#67=DERIVED_UNIT_ELEMENT(#69,1.);
#68=DERIVED_UNIT_ELEMENT(#128,-3.);
#69=(
MASS_UNIT()
NAMED_UNIT(*)
SI_UNIT(.KILO.,.GRAM.)
);
#70=DERIVED_UNIT((#67,#68));
#71=MEASURE_REPRESENTATION_ITEM('density measure',
POSITIVE_RATIO_MEASURE(7850.),#70);
#72=PROPERTY_DEFINITION_REPRESENTATION(#77,#74);
#73=PROPERTY_DEFINITION_REPRESENTATION(#78,#75);
#74=REPRESENTATION('material name',(#76),#125);
#75=REPRESENTATION('density',(#71),#125);
#76=DESCRIPTIVE_REPRESENTATION_ITEM('Steel','Steel');
#77=PROPERTY_DEFINITION('material property','material name',#135);
#78=PROPERTY_DEFINITION('material property','density of part',#135);
#79=AXIS2_PLACEMENT_3D('',#108,#88,#89);
#80=AXIS2_PLACEMENT_3D('',#109,#90,#91);
#81=AXIS2_PLACEMENT_3D('',#111,#92,#93);
#82=AXIS2_PLACEMENT_3D('',#113,#94,#95);
#83=AXIS2_PLACEMENT_3D('',#114,#96,#97);
#84=AXIS2_PLACEMENT_3D('',#116,#98,#99);
#85=AXIS2_PLACEMENT_3D('',#118,#101,#102);
#86=AXIS2_PLACEMENT_3D('',#120,#103,#104);
#87=AXIS2_PLACEMENT_3D('',#122,#106,#107);
#88=DIRECTION('axis',(0.,0.,1.));
#89=DIRECTION('refdir',(1.,0.,0.));
#90=DIRECTION('center_axis',(-1.,-2.22044604925091E-16,3.60748988737744E-17));
#91=DIRECTION('ref_axis',(2.22044604925091E-16,-1.,4.95666398443605E-23));
#92=DIRECTION('center_axis',(1.,2.22044604925091E-16,-3.60748988737744E-17));
#93=DIRECTION('ref_axis',(2.22044604925091E-16,-1.,4.95666398443604E-23));
#94=DIRECTION('center_axis',(-1.,-2.22044604925091E-16,3.60748988737744E-17));
#95=DIRECTION('ref_axis',(2.22044604925091E-16,-1.,4.95666398443605E-23));
#96=DIRECTION('center_axis',(-1.,-2.22044604925031E-16,0.));
#97=DIRECTION('ref_axis',(2.22044604925031E-16,-1.,4.95666398443605E-23));
#98=DIRECTION('center_axis',(1.,2.22044604925091E-16,-3.60748988737744E-17));
#99=DIRECTION('ref_axis',(2.22044604925091E-16,-1.,4.95666398443605E-23));
#100=DIRECTION('',(1.,2.22044604925031E-16,0.));
#101=DIRECTION('center_axis',(-1.,-2.22044604925031E-16,0.));
#102=DIRECTION('ref_axis',(2.22044604925031E-16,-1.,4.95666398443604E-23));
#103=DIRECTION('center_axis',(-1.,-2.22044604925091E-16,3.60748988737744E-17));
#104=DIRECTION('ref_axis',(2.22044604925091E-16,-1.,4.95666398443604E-23));
#105=DIRECTION('',(1.,2.22044604925031E-16,0.));
#106=DIRECTION('center_axis',(-1.,-2.22044604925091E-16,3.60748988737744E-17));
#107=DIRECTION('ref_axis',(2.22044604925091E-16,-1.,4.95666398443605E-23));
#108=CARTESIAN_POINT('',(0.,0.,0.));
#109=CARTESIAN_POINT('Origin',(129.361458359853,-7.34344663186946,424.801864602531));
#110=CARTESIAN_POINT('',(129.361458359853,0.15655336813053,424.801864602531));
#111=CARTESIAN_POINT('Origin',(129.361458359853,-7.34344663186946,424.801864602531));
#112=CARTESIAN_POINT('',(129.361458359853,-0.843446631869471,424.801864602531));
#113=CARTESIAN_POINT('Origin',(129.361458359853,-7.34344663186946,424.801864602531));
#114=CARTESIAN_POINT('Origin',(114.361458359853,-7.34344663186947,424.801864602531));
#115=CARTESIAN_POINT('',(-55.6385416401473,-0.843446631869512,424.801864602531));
#116=CARTESIAN_POINT('Origin',(-55.6385416401473,-7.3434466318695,424.801864602531));
#117=CARTESIAN_POINT('',(114.361458359853,-0.843446631869474,424.801864602531));
#118=CARTESIAN_POINT('Origin',(114.361458359853,-7.34344663186947,424.801864602531));
#119=CARTESIAN_POINT('',(-55.6385416401473,0.156553368130489,424.801864602531));
#120=CARTESIAN_POINT('Origin',(-55.6385416401473,-7.3434466318695,424.801864602531));
#121=CARTESIAN_POINT('',(114.361458359853,0.156553368130526,424.801864602531));
#122=CARTESIAN_POINT('Origin',(-55.6385416401473,-7.3434466318695,424.801864602531));
#123=UNCERTAINTY_MEASURE_WITH_UNIT(LENGTH_MEASURE(0.01),#127,
'DISTANCE_ACCURACY_VALUE',
'Maximum model space distance between geometric entities at asserted c
onnectivities');
#124=UNCERTAINTY_MEASURE_WITH_UNIT(LENGTH_MEASURE(0.01),#127,
'DISTANCE_ACCURACY_VALUE',
'Maximum model space distance between geometric entities at asserted c
onnectivities');
#125=(
GEOMETRIC_REPRESENTATION_CONTEXT(3)
GLOBAL_UNCERTAINTY_ASSIGNED_CONTEXT((#123))
GLOBAL_UNIT_ASSIGNED_CONTEXT((#127,#129,#130))
REPRESENTATION_CONTEXT('','3D')
);
#126=(
GEOMETRIC_REPRESENTATION_CONTEXT(3)
GLOBAL_UNCERTAINTY_ASSIGNED_CONTEXT((#124))
GLOBAL_UNIT_ASSIGNED_CONTEXT((#127,#129,#130))
REPRESENTATION_CONTEXT('','3D')
);
#127=(
LENGTH_UNIT()
NAMED_UNIT(*)
SI_UNIT(.MILLI.,.METRE.)
);
#128=(
LENGTH_UNIT()
NAMED_UNIT(*)
SI_UNIT($,.METRE.)
);
#129=(
NAMED_UNIT(*)
PLANE_ANGLE_UNIT()
SI_UNIT($,.RADIAN.)
);
#130=(
NAMED_UNIT(*)
SI_UNIT($,.STERADIAN.)
SOLID_ANGLE_UNIT()
);
#131=SHAPE_DEFINITION_REPRESENTATION(#132,#133);
#132=PRODUCT_DEFINITION_SHAPE('',$,#135);
#133=SHAPE_REPRESENTATION('',(#79),#125);
#134=PRODUCT_DEFINITION_CONTEXT('part definition',#139,'design');
#135=PRODUCT_DEFINITION('FusionComponent','FusionComponent',#136,#134);
#136=PRODUCT_DEFINITION_FORMATION('',$,#141);
#137=PRODUCT_RELATED_PRODUCT_CATEGORY('FusionComponent',
'FusionComponent',(#141));
#138=APPLICATION_PROTOCOL_DEFINITION('international standard',
'automotive_design',2009,#139);
#139=APPLICATION_CONTEXT(
'Core Data for Automotive Mechanical Design Process');
#140=PRODUCT_CONTEXT('part definition',#139,'mechanical');
#141=PRODUCT('FusionComponent','FusionComponent',$,(#140));
#142=PRESENTATION_STYLE_ASSIGNMENT((#144));
#143=PRESENTATION_STYLE_ASSIGNMENT((#145));
#144=SURFACE_STYLE_USAGE(.BOTH.,#146);
#145=SURFACE_STYLE_USAGE(.BOTH.,#147);
#146=SURFACE_SIDE_STYLE('',(#148));
#147=SURFACE_SIDE_STYLE('',(#149));
#148=SURFACE_STYLE_FILL_AREA(#150);
#149=SURFACE_STYLE_FILL_AREA(#151);
#150=FILL_AREA_STYLE('Steel - Satin',(#152));
#151=FILL_AREA_STYLE('EPX 86FR (with Carbon M2 M3 L1 3D Printers)',(#153));
#152=FILL_AREA_STYLE_COLOUR('Steel - Satin',#154);
#153=FILL_AREA_STYLE_COLOUR(
'EPX 86FR (with Carbon M2 M3 L1 3D Printers)',#155);
#154=COLOUR_RGB('Steel - Satin',0.627450980392157,0.627450980392157,0.627450980392157);
#155=COLOUR_RGB('EPX 86FR (with Carbon M2 M3 L1 3D Printers)',0.247058823529412,
0.247058823529412,0.247058823529412);
ENDSEC;
END-ISO-10303-21;
