ISO-10303-21;
HEADER;
/* Generated by software containing ST-Developer
 * from STEP Tools, Inc. (www.steptools.com) 
 */

FILE_DESCRIPTION(
/* description */ (''),
/* implementation_level */ '2;1');

FILE_NAME(
/* name */ 'Motor Mount.step',
/* time_stamp */ '2026-03-01T00:20:50+05:30',
/* author */ (''),
/* organization */ (''),
/* preprocessor_version */ 'ST-DEVELOPER v20.1',
/* originating_system */ 'Autodesk Translation Framework v14.24.0.0',
/* authorisation */ '');

FILE_SCHEMA (('AUTOMOTIVE_DESIGN { 1 0 10303 214 3 1 1 }'));
ENDSEC;

DATA;
#10=MECHANICAL_DESIGN_GEOMETRIC_PRESENTATION_REPRESENTATION('',(#13),#1221);
#11=SHAPE_REPRESENTATION_RELATIONSHIP('SRR','None',#1228,#12);
#12=ADVANCED_BREP_SHAPE_REPRESENTATION('',(#14),#1220);
#13=STYLED_ITEM('',(#1237),#14);
#14=MANIFOLD_SOLID_BREP('Motor Mount',#717);
#15=FACE_BOUND('',#96,.T.);
#16=FACE_BOUND('',#97,.T.);
#17=FACE_BOUND('',#98,.T.);
#18=FACE_BOUND('',#99,.T.);
#19=FACE_BOUND('',#100,.T.);
#20=FACE_BOUND('',#101,.T.);
#21=FACE_BOUND('',#102,.T.);
#22=FACE_BOUND('',#103,.T.);
#23=FACE_BOUND('',#104,.T.);
#24=FACE_BOUND('',#105,.T.);
#25=FACE_BOUND('',#106,.T.);
#26=FACE_BOUND('',#107,.T.);
#27=FACE_BOUND('',#108,.T.);
#28=FACE_BOUND('',#109,.T.);
#29=FACE_BOUND('',#110,.T.);
#30=FACE_BOUND('',#111,.T.);
#31=FACE_BOUND('',#112,.T.);
#32=FACE_BOUND('',#113,.T.);
#33=FACE_BOUND('',#137,.T.);
#34=FACE_BOUND('',#146,.T.);
#35=FACE_BOUND('',#147,.T.);
#36=FACE_BOUND('',#148,.T.);
#37=FACE_BOUND('',#149,.T.);
#38=FACE_BOUND('',#150,.T.);
#39=FACE_BOUND('',#151,.T.);
#40=FACE_BOUND('',#152,.T.);
#41=FACE_BOUND('',#153,.T.);
#42=FACE_BOUND('',#154,.T.);
#43=FACE_BOUND('',#155,.T.);
#44=FACE_BOUND('',#156,.T.);
#45=FACE_BOUND('',#157,.T.);
#46=FACE_BOUND('',#158,.T.);
#47=FACE_BOUND('',#159,.T.);
#48=FACE_BOUND('',#160,.T.);
#49=FACE_BOUND('',#161,.T.);
#50=FACE_BOUND('',#162,.T.);
#51=FACE_BOUND('',#163,.T.);
#52=PLANE('',#734);
#53=PLANE('',#764);
#54=PLANE('',#801);
#55=PLANE('',#802);
#56=PLANE('',#803);
#57=PLANE('',#806);
#58=PLANE('',#809);
#59=PLANE('',#810);
#60=PLANE('',#811);
#61=FACE_OUTER_BOUND('',#94,.T.);
#62=FACE_OUTER_BOUND('',#95,.T.);
#63=FACE_OUTER_BOUND('',#114,.T.);
#64=FACE_OUTER_BOUND('',#115,.T.);
#65=FACE_OUTER_BOUND('',#116,.T.);
#66=FACE_OUTER_BOUND('',#117,.T.);
#67=FACE_OUTER_BOUND('',#118,.T.);
#68=FACE_OUTER_BOUND('',#119,.T.);
#69=FACE_OUTER_BOUND('',#120,.T.);
#70=FACE_OUTER_BOUND('',#121,.T.);
#71=FACE_OUTER_BOUND('',#122,.T.);
#72=FACE_OUTER_BOUND('',#123,.T.);
#73=FACE_OUTER_BOUND('',#124,.T.);
#74=FACE_OUTER_BOUND('',#125,.T.);
#75=FACE_OUTER_BOUND('',#126,.T.);
#76=FACE_OUTER_BOUND('',#127,.T.);
#77=FACE_OUTER_BOUND('',#128,.T.);
#78=FACE_OUTER_BOUND('',#129,.T.);
#79=FACE_OUTER_BOUND('',#130,.T.);
#80=FACE_OUTER_BOUND('',#131,.T.);
#81=FACE_OUTER_BOUND('',#132,.T.);
#82=FACE_OUTER_BOUND('',#133,.T.);
#83=FACE_OUTER_BOUND('',#134,.T.);
#84=FACE_OUTER_BOUND('',#135,.T.);
#85=FACE_OUTER_BOUND('',#136,.T.);
#86=FACE_OUTER_BOUND('',#138,.T.);
#87=FACE_OUTER_BOUND('',#139,.T.);
#88=FACE_OUTER_BOUND('',#140,.T.);
#89=FACE_OUTER_BOUND('',#141,.T.);
#90=FACE_OUTER_BOUND('',#142,.T.);
#91=FACE_OUTER_BOUND('',#143,.T.);
#92=FACE_OUTER_BOUND('',#144,.T.);
#93=FACE_OUTER_BOUND('',#145,.T.);
#94=EDGE_LOOP('',(#468,#469,#470,#471));
#95=EDGE_LOOP('',(#472,#473,#474,#475,#476,#477,#478,#479,#480,#481,#482,
#483,#484,#485,#486,#487));
#96=EDGE_LOOP('',(#488));
#97=EDGE_LOOP('',(#489));
#98=EDGE_LOOP('',(#490));
#99=EDGE_LOOP('',(#491));
#100=EDGE_LOOP('',(#492));
#101=EDGE_LOOP('',(#493));
#102=EDGE_LOOP('',(#494));
#103=EDGE_LOOP('',(#495));
#104=EDGE_LOOP('',(#496));
#105=EDGE_LOOP('',(#497));
#106=EDGE_LOOP('',(#498));
#107=EDGE_LOOP('',(#499));
#108=EDGE_LOOP('',(#500));
#109=EDGE_LOOP('',(#501));
#110=EDGE_LOOP('',(#502));
#111=EDGE_LOOP('',(#503));
#112=EDGE_LOOP('',(#504));
#113=EDGE_LOOP('',(#505));
#114=EDGE_LOOP('',(#506,#507,#508,#509));
#115=EDGE_LOOP('',(#510,#511,#512,#513));
#116=EDGE_LOOP('',(#514,#515,#516,#517));
#117=EDGE_LOOP('',(#518,#519,#520,#521,#522,#523));
#118=EDGE_LOOP('',(#524,#525,#526,#527));
#119=EDGE_LOOP('',(#528,#529,#530,#531));
#120=EDGE_LOOP('',(#532,#533,#534,#535));
#121=EDGE_LOOP('',(#536,#537,#538,#539));
#122=EDGE_LOOP('',(#540,#541,#542,#543));
#123=EDGE_LOOP('',(#544,#545,#546,#547));
#124=EDGE_LOOP('',(#548,#549,#550,#551));
#125=EDGE_LOOP('',(#552,#553,#554,#555));
#126=EDGE_LOOP('',(#556,#557,#558,#559));
#127=EDGE_LOOP('',(#560,#561,#562,#563));
#128=EDGE_LOOP('',(#564,#565,#566,#567));
#129=EDGE_LOOP('',(#568,#569,#570,#571));
#130=EDGE_LOOP('',(#572,#573,#574,#575));
#131=EDGE_LOOP('',(#576,#577,#578,#579));
#132=EDGE_LOOP('',(#580,#581,#582,#583));
#133=EDGE_LOOP('',(#584,#585,#586,#587));
#134=EDGE_LOOP('',(#588,#589,#590,#591));
#135=EDGE_LOOP('',(#592,#593,#594,#595));
#136=EDGE_LOOP('',(#596,#597,#598,#599,#600,#601,#602,#603));
#137=EDGE_LOOP('',(#604,#605));
#138=EDGE_LOOP('',(#606,#607,#608,#609));
#139=EDGE_LOOP('',(#610,#611,#612,#613));
#140=EDGE_LOOP('',(#614,#615,#616,#617));
#141=EDGE_LOOP('',(#618,#619,#620,#621));
#142=EDGE_LOOP('',(#622,#623,#624,#625));
#143=EDGE_LOOP('',(#626,#627,#628,#629));
#144=EDGE_LOOP('',(#630,#631,#632,#633));
#145=EDGE_LOOP('',(#634,#635,#636,#637,#638,#639,#640,#641));
#146=EDGE_LOOP('',(#642));
#147=EDGE_LOOP('',(#643));
#148=EDGE_LOOP('',(#644));
#149=EDGE_LOOP('',(#645));
#150=EDGE_LOOP('',(#646));
#151=EDGE_LOOP('',(#647));
#152=EDGE_LOOP('',(#648));
#153=EDGE_LOOP('',(#649));
#154=EDGE_LOOP('',(#650));
#155=EDGE_LOOP('',(#651));
#156=EDGE_LOOP('',(#652));
#157=EDGE_LOOP('',(#653));
#158=EDGE_LOOP('',(#654));
#159=EDGE_LOOP('',(#655));
#160=EDGE_LOOP('',(#656));
#161=EDGE_LOOP('',(#657));
#162=EDGE_LOOP('',(#658));
#163=EDGE_LOOP('',(#659));
#164=LINE('',#1030,#212);
#165=LINE('',#1033,#213);
#166=LINE('',#1036,#214);
#167=LINE('',#1038,#215);
#168=LINE('',#1040,#216);
#169=LINE('',#1042,#217);
#170=LINE('',#1044,#218);
#171=LINE('',#1046,#219);
#172=LINE('',#1048,#220);
#173=LINE('',#1050,#221);
#174=LINE('',#1052,#222);
#175=LINE('',#1056,#223);
#176=LINE('',#1060,#224);
#177=LINE('',#1062,#225);
#178=LINE('',#1063,#226);
#179=LINE('',#1104,#227);
#180=LINE('',#1115,#228);
#181=LINE('',#1119,#229);
#182=LINE('',#1123,#230);
#183=LINE('',#1127,#231);
#184=LINE('',#1131,#232);
#185=LINE('',#1135,#233);
#186=LINE('',#1139,#234);
#187=LINE('',#1143,#235);
#188=LINE('',#1147,#236);
#189=LINE('',#1151,#237);
#190=LINE('',#1155,#238);
#191=LINE('',#1159,#239);
#192=LINE('',#1163,#240);
#193=LINE('',#1167,#241);
#194=LINE('',#1171,#242);
#195=LINE('',#1175,#243);
#196=LINE('',#1179,#244);
#197=LINE('',#1183,#245);
#198=LINE('',#1187,#246);
#199=LINE('',#1189,#247);
#200=LINE('',#1190,#248);
#201=LINE('',#1193,#249);
#202=LINE('',#1194,#250);
#203=LINE('',#1197,#251);
#204=LINE('',#1198,#252);
#205=LINE('',#1202,#253);
#206=LINE('',#1205,#254);
#207=LINE('',#1206,#255);
#208=LINE('',#1210,#256);
#209=LINE('',#1213,#257);
#210=LINE('',#1214,#258);
#211=LINE('',#1216,#259);
#212=VECTOR('',#818,10.);
#213=VECTOR('',#821,10.);
#214=VECTOR('',#824,10.);
#215=VECTOR('',#825,10.);
#216=VECTOR('',#826,10.);
#217=VECTOR('',#827,10.);
#218=VECTOR('',#828,10.);
#219=VECTOR('',#829,10.);
#220=VECTOR('',#830,10.);
#221=VECTOR('',#831,10.);
#222=VECTOR('',#832,10.);
#223=VECTOR('',#835,10.);
#224=VECTOR('',#838,10.);
#225=VECTOR('',#839,10.);
#226=VECTOR('',#840,10.);
#227=VECTOR('',#881,10.);
#228=VECTOR('',#900,1.8);
#229=VECTOR('',#905,1.8);
#230=VECTOR('',#910,1.8);
#231=VECTOR('',#915,1.8);
#232=VECTOR('',#920,1.8);
#233=VECTOR('',#925,1.8);
#234=VECTOR('',#930,1.8);
#235=VECTOR('',#935,1.8);
#236=VECTOR('',#940,1.8);
#237=VECTOR('',#945,1.8);
#238=VECTOR('',#950,1.8);
#239=VECTOR('',#955,1.8);
#240=VECTOR('',#960,1.8);
#241=VECTOR('',#965,1.8);
#242=VECTOR('',#970,1.8);
#243=VECTOR('',#975,3.90000000000001);
#244=VECTOR('',#980,3.90000000000001);
#245=VECTOR('',#985,1.8);
#246=VECTOR('',#990,10.);
#247=VECTOR('',#991,10.);
#248=VECTOR('',#992,10.);
#249=VECTOR('',#995,10.);
#250=VECTOR('',#996,10.);
#251=VECTOR('',#999,10.);
#252=VECTOR('',#1000,10.);
#253=VECTOR('',#1005,10.);
#254=VECTOR('',#1008,10.);
#255=VECTOR('',#1009,10.);
#256=VECTOR('',#1014,10.);
#257=VECTOR('',#1017,10.);
#258=VECTOR('',#1018,10.);
#259=VECTOR('',#1021,10.);
#260=CIRCLE('',#732,15.);
#261=CIRCLE('',#733,15.);
#262=CIRCLE('',#735,3.90000000000001);
#263=CIRCLE('',#736,3.90000000000001);
#264=CIRCLE('',#737,1.8);
#265=CIRCLE('',#738,1.8);
#266=CIRCLE('',#739,1.8);
#267=CIRCLE('',#740,1.8);
#268=CIRCLE('',#741,1.8);
#269=CIRCLE('',#742,1.8);
#270=CIRCLE('',#743,1.8);
#271=CIRCLE('',#744,1.8);
#272=CIRCLE('',#745,1.8);
#273=CIRCLE('',#746,1.8);
#274=CIRCLE('',#747,1.8);
#275=CIRCLE('',#748,1.8);
#276=CIRCLE('',#749,1.8);
#277=CIRCLE('',#750,1.8);
#278=CIRCLE('',#751,1.8);
#279=CIRCLE('',#752,3.90000000000001);
#280=CIRCLE('',#753,3.90000000000001);
#281=CIRCLE('',#754,1.8);
#282=CIRCLE('',#756,15.);
#283=CIRCLE('',#757,15.);
#284=CIRCLE('',#759,15.);
#285=CIRCLE('',#760,15.);
#286=CIRCLE('',#762,3.90000000000001);
#287=CIRCLE('',#763,3.90000000000001);
#288=CIRCLE('',#766,1.8);
#289=CIRCLE('',#768,1.8);
#290=CIRCLE('',#770,1.8);
#291=CIRCLE('',#772,1.8);
#292=CIRCLE('',#774,1.8);
#293=CIRCLE('',#776,1.8);
#294=CIRCLE('',#778,1.8);
#295=CIRCLE('',#780,1.8);
#296=CIRCLE('',#782,1.8);
#297=CIRCLE('',#784,1.8);
#298=CIRCLE('',#786,1.8);
#299=CIRCLE('',#788,1.8);
#300=CIRCLE('',#790,1.8);
#301=CIRCLE('',#792,1.8);
#302=CIRCLE('',#794,1.8);
#303=CIRCLE('',#796,3.90000000000001);
#304=CIRCLE('',#798,3.90000000000001);
#305=CIRCLE('',#800,1.8);
#306=CIRCLE('',#805,3.90000000000001);
#307=CIRCLE('',#808,3.90000000000001);
#308=VERTEX_POINT('',#1026);
#309=VERTEX_POINT('',#1027);
#310=VERTEX_POINT('',#1029);
#311=VERTEX_POINT('',#1031);
#312=VERTEX_POINT('',#1035);
#313=VERTEX_POINT('',#1037);
#314=VERTEX_POINT('',#1039);
#315=VERTEX_POINT('',#1041);
#316=VERTEX_POINT('',#1043);
#317=VERTEX_POINT('',#1045);
#318=VERTEX_POINT('',#1047);
#319=VERTEX_POINT('',#1049);
#320=VERTEX_POINT('',#1051);
#321=VERTEX_POINT('',#1053);
#322=VERTEX_POINT('',#1055);
#323=VERTEX_POINT('',#1057);
#324=VERTEX_POINT('',#1059);
#325=VERTEX_POINT('',#1061);
#326=VERTEX_POINT('',#1064);
#327=VERTEX_POINT('',#1066);
#328=VERTEX_POINT('',#1068);
#329=VERTEX_POINT('',#1070);
#330=VERTEX_POINT('',#1072);
#331=VERTEX_POINT('',#1074);
#332=VERTEX_POINT('',#1076);
#333=VERTEX_POINT('',#1078);
#334=VERTEX_POINT('',#1080);
#335=VERTEX_POINT('',#1082);
#336=VERTEX_POINT('',#1084);
#337=VERTEX_POINT('',#1086);
#338=VERTEX_POINT('',#1088);
#339=VERTEX_POINT('',#1090);
#340=VERTEX_POINT('',#1092);
#341=VERTEX_POINT('',#1094);
#342=VERTEX_POINT('',#1096);
#343=VERTEX_POINT('',#1098);
#344=VERTEX_POINT('',#1101);
#345=VERTEX_POINT('',#1103);
#346=VERTEX_POINT('',#1114);
#347=VERTEX_POINT('',#1118);
#348=VERTEX_POINT('',#1122);
#349=VERTEX_POINT('',#1126);
#350=VERTEX_POINT('',#1130);
#351=VERTEX_POINT('',#1134);
#352=VERTEX_POINT('',#1138);
#353=VERTEX_POINT('',#1142);
#354=VERTEX_POINT('',#1146);
#355=VERTEX_POINT('',#1150);
#356=VERTEX_POINT('',#1154);
#357=VERTEX_POINT('',#1158);
#358=VERTEX_POINT('',#1162);
#359=VERTEX_POINT('',#1166);
#360=VERTEX_POINT('',#1170);
#361=VERTEX_POINT('',#1174);
#362=VERTEX_POINT('',#1178);
#363=VERTEX_POINT('',#1182);
#364=VERTEX_POINT('',#1186);
#365=VERTEX_POINT('',#1188);
#366=VERTEX_POINT('',#1192);
#367=VERTEX_POINT('',#1196);
#368=VERTEX_POINT('',#1200);
#369=VERTEX_POINT('',#1204);
#370=VERTEX_POINT('',#1208);
#371=VERTEX_POINT('',#1212);
#372=EDGE_CURVE('',#308,#309,#260,.T.);
#373=EDGE_CURVE('',#309,#310,#164,.T.);
#374=EDGE_CURVE('',#310,#311,#261,.T.);
#375=EDGE_CURVE('',#311,#308,#165,.T.);
#376=EDGE_CURVE('',#309,#312,#166,.T.);
#377=EDGE_CURVE('',#312,#313,#167,.T.);
#378=EDGE_CURVE('',#313,#314,#168,.T.);
#379=EDGE_CURVE('',#314,#315,#169,.T.);
#380=EDGE_CURVE('',#315,#316,#170,.T.);
#381=EDGE_CURVE('',#317,#316,#171,.T.);
#382=EDGE_CURVE('',#317,#318,#172,.T.);
#383=EDGE_CURVE('',#318,#319,#173,.T.);
#384=EDGE_CURVE('',#319,#320,#174,.T.);
#385=EDGE_CURVE('',#320,#321,#262,.T.);
#386=EDGE_CURVE('',#321,#322,#175,.T.);
#387=EDGE_CURVE('',#322,#323,#263,.T.);
#388=EDGE_CURVE('',#323,#324,#176,.T.);
#389=EDGE_CURVE('',#324,#325,#177,.T.);
#390=EDGE_CURVE('',#325,#310,#178,.T.);
#391=EDGE_CURVE('',#326,#326,#264,.T.);
#392=EDGE_CURVE('',#327,#327,#265,.T.);
#393=EDGE_CURVE('',#328,#328,#266,.T.);
#394=EDGE_CURVE('',#329,#329,#267,.T.);
#395=EDGE_CURVE('',#330,#330,#268,.T.);
#396=EDGE_CURVE('',#331,#331,#269,.T.);
#397=EDGE_CURVE('',#332,#332,#270,.T.);
#398=EDGE_CURVE('',#333,#333,#271,.T.);
#399=EDGE_CURVE('',#334,#334,#272,.T.);
#400=EDGE_CURVE('',#335,#335,#273,.T.);
#401=EDGE_CURVE('',#336,#336,#274,.T.);
#402=EDGE_CURVE('',#337,#337,#275,.T.);
#403=EDGE_CURVE('',#338,#338,#276,.T.);
#404=EDGE_CURVE('',#339,#339,#277,.T.);
#405=EDGE_CURVE('',#340,#340,#278,.T.);
#406=EDGE_CURVE('',#341,#341,#279,.T.);
#407=EDGE_CURVE('',#342,#342,#280,.T.);
#408=EDGE_CURVE('',#343,#343,#281,.T.);
#409=EDGE_CURVE('',#316,#344,#282,.T.);
#410=EDGE_CURVE('',#344,#345,#179,.T.);
#411=EDGE_CURVE('',#345,#317,#283,.T.);
#412=EDGE_CURVE('',#345,#311,#284,.T.);
#413=EDGE_CURVE('',#308,#344,#285,.T.);
#414=EDGE_CURVE('',#314,#313,#286,.T.);
#415=EDGE_CURVE('',#315,#312,#287,.T.);
#416=EDGE_CURVE('',#326,#346,#180,.T.);
#417=EDGE_CURVE('',#346,#346,#288,.T.);
#418=EDGE_CURVE('',#327,#347,#181,.T.);
#419=EDGE_CURVE('',#347,#347,#289,.T.);
#420=EDGE_CURVE('',#328,#348,#182,.T.);
#421=EDGE_CURVE('',#348,#348,#290,.T.);
#422=EDGE_CURVE('',#329,#349,#183,.T.);
#423=EDGE_CURVE('',#349,#349,#291,.T.);
#424=EDGE_CURVE('',#330,#350,#184,.T.);
#425=EDGE_CURVE('',#350,#350,#292,.T.);
#426=EDGE_CURVE('',#331,#351,#185,.T.);
#427=EDGE_CURVE('',#351,#351,#293,.T.);
#428=EDGE_CURVE('',#332,#352,#186,.T.);
#429=EDGE_CURVE('',#352,#352,#294,.T.);
#430=EDGE_CURVE('',#333,#353,#187,.T.);
#431=EDGE_CURVE('',#353,#353,#295,.T.);
#432=EDGE_CURVE('',#334,#354,#188,.T.);
#433=EDGE_CURVE('',#354,#354,#296,.T.);
#434=EDGE_CURVE('',#335,#355,#189,.T.);
#435=EDGE_CURVE('',#355,#355,#297,.T.);
#436=EDGE_CURVE('',#336,#356,#190,.T.);
#437=EDGE_CURVE('',#356,#356,#298,.T.);
#438=EDGE_CURVE('',#337,#357,#191,.T.);
#439=EDGE_CURVE('',#357,#357,#299,.T.);
#440=EDGE_CURVE('',#338,#358,#192,.T.);
#441=EDGE_CURVE('',#358,#358,#300,.T.);
#442=EDGE_CURVE('',#339,#359,#193,.T.);
#443=EDGE_CURVE('',#359,#359,#301,.T.);
#444=EDGE_CURVE('',#340,#360,#194,.T.);
#445=EDGE_CURVE('',#360,#360,#302,.T.);
#446=EDGE_CURVE('',#341,#361,#195,.T.);
#447=EDGE_CURVE('',#361,#361,#303,.T.);
#448=EDGE_CURVE('',#342,#362,#196,.T.);
#449=EDGE_CURVE('',#362,#362,#304,.T.);
#450=EDGE_CURVE('',#343,#363,#197,.T.);
#451=EDGE_CURVE('',#363,#363,#305,.T.);
#452=EDGE_CURVE('',#364,#325,#198,.T.);
#453=EDGE_CURVE('',#365,#364,#199,.T.);
#454=EDGE_CURVE('',#365,#318,#200,.T.);
#455=EDGE_CURVE('',#364,#366,#201,.T.);
#456=EDGE_CURVE('',#366,#324,#202,.T.);
#457=EDGE_CURVE('',#366,#367,#203,.T.);
#458=EDGE_CURVE('',#367,#323,#204,.T.);
#459=EDGE_CURVE('',#367,#368,#306,.T.);
#460=EDGE_CURVE('',#368,#322,#205,.T.);
#461=EDGE_CURVE('',#368,#369,#206,.T.);
#462=EDGE_CURVE('',#369,#321,#207,.T.);
#463=EDGE_CURVE('',#369,#370,#307,.T.);
#464=EDGE_CURVE('',#370,#320,#208,.T.);
#465=EDGE_CURVE('',#370,#371,#209,.T.);
#466=EDGE_CURVE('',#371,#319,#210,.T.);
#467=EDGE_CURVE('',#371,#365,#211,.T.);
#468=ORIENTED_EDGE('',*,*,#372,.T.);
#469=ORIENTED_EDGE('',*,*,#373,.T.);
#470=ORIENTED_EDGE('',*,*,#374,.T.);
#471=ORIENTED_EDGE('',*,*,#375,.T.);
#472=ORIENTED_EDGE('',*,*,#373,.F.);
#473=ORIENTED_EDGE('',*,*,#376,.T.);
#474=ORIENTED_EDGE('',*,*,#377,.T.);
#475=ORIENTED_EDGE('',*,*,#378,.T.);
#476=ORIENTED_EDGE('',*,*,#379,.T.);
#477=ORIENTED_EDGE('',*,*,#380,.T.);
#478=ORIENTED_EDGE('',*,*,#381,.F.);
#479=ORIENTED_EDGE('',*,*,#382,.T.);
#480=ORIENTED_EDGE('',*,*,#383,.T.);
#481=ORIENTED_EDGE('',*,*,#384,.T.);
#482=ORIENTED_EDGE('',*,*,#385,.T.);
#483=ORIENTED_EDGE('',*,*,#386,.T.);
#484=ORIENTED_EDGE('',*,*,#387,.T.);
#485=ORIENTED_EDGE('',*,*,#388,.T.);
#486=ORIENTED_EDGE('',*,*,#389,.T.);
#487=ORIENTED_EDGE('',*,*,#390,.T.);
#488=ORIENTED_EDGE('',*,*,#391,.T.);
#489=ORIENTED_EDGE('',*,*,#392,.T.);
#490=ORIENTED_EDGE('',*,*,#393,.T.);
#491=ORIENTED_EDGE('',*,*,#394,.T.);
#492=ORIENTED_EDGE('',*,*,#395,.T.);
#493=ORIENTED_EDGE('',*,*,#396,.T.);
#494=ORIENTED_EDGE('',*,*,#397,.T.);
#495=ORIENTED_EDGE('',*,*,#398,.T.);
#496=ORIENTED_EDGE('',*,*,#399,.T.);
#497=ORIENTED_EDGE('',*,*,#400,.T.);
#498=ORIENTED_EDGE('',*,*,#401,.T.);
#499=ORIENTED_EDGE('',*,*,#402,.T.);
#500=ORIENTED_EDGE('',*,*,#403,.T.);
#501=ORIENTED_EDGE('',*,*,#404,.T.);
#502=ORIENTED_EDGE('',*,*,#405,.T.);
#503=ORIENTED_EDGE('',*,*,#406,.T.);
#504=ORIENTED_EDGE('',*,*,#407,.T.);
#505=ORIENTED_EDGE('',*,*,#408,.T.);
#506=ORIENTED_EDGE('',*,*,#409,.T.);
#507=ORIENTED_EDGE('',*,*,#410,.T.);
#508=ORIENTED_EDGE('',*,*,#411,.T.);
#509=ORIENTED_EDGE('',*,*,#381,.T.);
#510=ORIENTED_EDGE('',*,*,#375,.F.);
#511=ORIENTED_EDGE('',*,*,#412,.F.);
#512=ORIENTED_EDGE('',*,*,#410,.F.);
#513=ORIENTED_EDGE('',*,*,#413,.F.);
#514=ORIENTED_EDGE('',*,*,#414,.T.);
#515=ORIENTED_EDGE('',*,*,#377,.F.);
#516=ORIENTED_EDGE('',*,*,#415,.F.);
#517=ORIENTED_EDGE('',*,*,#379,.F.);
#518=ORIENTED_EDGE('',*,*,#380,.F.);
#519=ORIENTED_EDGE('',*,*,#415,.T.);
#520=ORIENTED_EDGE('',*,*,#376,.F.);
#521=ORIENTED_EDGE('',*,*,#372,.F.);
#522=ORIENTED_EDGE('',*,*,#413,.T.);
#523=ORIENTED_EDGE('',*,*,#409,.F.);
#524=ORIENTED_EDGE('',*,*,#391,.F.);
#525=ORIENTED_EDGE('',*,*,#416,.T.);
#526=ORIENTED_EDGE('',*,*,#417,.T.);
#527=ORIENTED_EDGE('',*,*,#416,.F.);
#528=ORIENTED_EDGE('',*,*,#392,.F.);
#529=ORIENTED_EDGE('',*,*,#418,.T.);
#530=ORIENTED_EDGE('',*,*,#419,.T.);
#531=ORIENTED_EDGE('',*,*,#418,.F.);
#532=ORIENTED_EDGE('',*,*,#393,.F.);
#533=ORIENTED_EDGE('',*,*,#420,.T.);
#534=ORIENTED_EDGE('',*,*,#421,.T.);
#535=ORIENTED_EDGE('',*,*,#420,.F.);
#536=ORIENTED_EDGE('',*,*,#394,.F.);
#537=ORIENTED_EDGE('',*,*,#422,.T.);
#538=ORIENTED_EDGE('',*,*,#423,.T.);
#539=ORIENTED_EDGE('',*,*,#422,.F.);
#540=ORIENTED_EDGE('',*,*,#395,.F.);
#541=ORIENTED_EDGE('',*,*,#424,.T.);
#542=ORIENTED_EDGE('',*,*,#425,.T.);
#543=ORIENTED_EDGE('',*,*,#424,.F.);
#544=ORIENTED_EDGE('',*,*,#396,.F.);
#545=ORIENTED_EDGE('',*,*,#426,.T.);
#546=ORIENTED_EDGE('',*,*,#427,.T.);
#547=ORIENTED_EDGE('',*,*,#426,.F.);
#548=ORIENTED_EDGE('',*,*,#397,.F.);
#549=ORIENTED_EDGE('',*,*,#428,.T.);
#550=ORIENTED_EDGE('',*,*,#429,.T.);
#551=ORIENTED_EDGE('',*,*,#428,.F.);
#552=ORIENTED_EDGE('',*,*,#398,.F.);
#553=ORIENTED_EDGE('',*,*,#430,.T.);
#554=ORIENTED_EDGE('',*,*,#431,.T.);
#555=ORIENTED_EDGE('',*,*,#430,.F.);
#556=ORIENTED_EDGE('',*,*,#399,.F.);
#557=ORIENTED_EDGE('',*,*,#432,.T.);
#558=ORIENTED_EDGE('',*,*,#433,.T.);
#559=ORIENTED_EDGE('',*,*,#432,.F.);
#560=ORIENTED_EDGE('',*,*,#400,.F.);
#561=ORIENTED_EDGE('',*,*,#434,.T.);
#562=ORIENTED_EDGE('',*,*,#435,.T.);
#563=ORIENTED_EDGE('',*,*,#434,.F.);
#564=ORIENTED_EDGE('',*,*,#401,.F.);
#565=ORIENTED_EDGE('',*,*,#436,.T.);
#566=ORIENTED_EDGE('',*,*,#437,.T.);
#567=ORIENTED_EDGE('',*,*,#436,.F.);
#568=ORIENTED_EDGE('',*,*,#402,.F.);
#569=ORIENTED_EDGE('',*,*,#438,.T.);
#570=ORIENTED_EDGE('',*,*,#439,.T.);
#571=ORIENTED_EDGE('',*,*,#438,.F.);
#572=ORIENTED_EDGE('',*,*,#403,.F.);
#573=ORIENTED_EDGE('',*,*,#440,.T.);
#574=ORIENTED_EDGE('',*,*,#441,.T.);
#575=ORIENTED_EDGE('',*,*,#440,.F.);
#576=ORIENTED_EDGE('',*,*,#404,.F.);
#577=ORIENTED_EDGE('',*,*,#442,.T.);
#578=ORIENTED_EDGE('',*,*,#443,.T.);
#579=ORIENTED_EDGE('',*,*,#442,.F.);
#580=ORIENTED_EDGE('',*,*,#405,.F.);
#581=ORIENTED_EDGE('',*,*,#444,.T.);
#582=ORIENTED_EDGE('',*,*,#445,.T.);
#583=ORIENTED_EDGE('',*,*,#444,.F.);
#584=ORIENTED_EDGE('',*,*,#406,.F.);
#585=ORIENTED_EDGE('',*,*,#446,.T.);
#586=ORIENTED_EDGE('',*,*,#447,.T.);
#587=ORIENTED_EDGE('',*,*,#446,.F.);
#588=ORIENTED_EDGE('',*,*,#407,.F.);
#589=ORIENTED_EDGE('',*,*,#448,.T.);
#590=ORIENTED_EDGE('',*,*,#449,.T.);
#591=ORIENTED_EDGE('',*,*,#448,.F.);
#592=ORIENTED_EDGE('',*,*,#408,.F.);
#593=ORIENTED_EDGE('',*,*,#450,.T.);
#594=ORIENTED_EDGE('',*,*,#451,.T.);
#595=ORIENTED_EDGE('',*,*,#450,.F.);
#596=ORIENTED_EDGE('',*,*,#390,.F.);
#597=ORIENTED_EDGE('',*,*,#452,.F.);
#598=ORIENTED_EDGE('',*,*,#453,.F.);
#599=ORIENTED_EDGE('',*,*,#454,.T.);
#600=ORIENTED_EDGE('',*,*,#382,.F.);
#601=ORIENTED_EDGE('',*,*,#411,.F.);
#602=ORIENTED_EDGE('',*,*,#412,.T.);
#603=ORIENTED_EDGE('',*,*,#374,.F.);
#604=ORIENTED_EDGE('',*,*,#414,.F.);
#605=ORIENTED_EDGE('',*,*,#378,.F.);
#606=ORIENTED_EDGE('',*,*,#455,.F.);
#607=ORIENTED_EDGE('',*,*,#452,.T.);
#608=ORIENTED_EDGE('',*,*,#389,.F.);
#609=ORIENTED_EDGE('',*,*,#456,.F.);
#610=ORIENTED_EDGE('',*,*,#457,.F.);
#611=ORIENTED_EDGE('',*,*,#456,.T.);
#612=ORIENTED_EDGE('',*,*,#388,.F.);
#613=ORIENTED_EDGE('',*,*,#458,.F.);
#614=ORIENTED_EDGE('',*,*,#459,.F.);
#615=ORIENTED_EDGE('',*,*,#458,.T.);
#616=ORIENTED_EDGE('',*,*,#387,.F.);
#617=ORIENTED_EDGE('',*,*,#460,.F.);
#618=ORIENTED_EDGE('',*,*,#461,.F.);
#619=ORIENTED_EDGE('',*,*,#460,.T.);
#620=ORIENTED_EDGE('',*,*,#386,.F.);
#621=ORIENTED_EDGE('',*,*,#462,.F.);
#622=ORIENTED_EDGE('',*,*,#463,.F.);
#623=ORIENTED_EDGE('',*,*,#462,.T.);
#624=ORIENTED_EDGE('',*,*,#385,.F.);
#625=ORIENTED_EDGE('',*,*,#464,.F.);
#626=ORIENTED_EDGE('',*,*,#465,.F.);
#627=ORIENTED_EDGE('',*,*,#464,.T.);
#628=ORIENTED_EDGE('',*,*,#384,.F.);
#629=ORIENTED_EDGE('',*,*,#466,.F.);
#630=ORIENTED_EDGE('',*,*,#467,.F.);
#631=ORIENTED_EDGE('',*,*,#466,.T.);
#632=ORIENTED_EDGE('',*,*,#383,.F.);
#633=ORIENTED_EDGE('',*,*,#454,.F.);
#634=ORIENTED_EDGE('',*,*,#467,.T.);
#635=ORIENTED_EDGE('',*,*,#453,.T.);
#636=ORIENTED_EDGE('',*,*,#455,.T.);
#637=ORIENTED_EDGE('',*,*,#457,.T.);
#638=ORIENTED_EDGE('',*,*,#459,.T.);
#639=ORIENTED_EDGE('',*,*,#461,.T.);
#640=ORIENTED_EDGE('',*,*,#463,.T.);
#641=ORIENTED_EDGE('',*,*,#465,.T.);
#642=ORIENTED_EDGE('',*,*,#451,.F.);
#643=ORIENTED_EDGE('',*,*,#449,.F.);
#644=ORIENTED_EDGE('',*,*,#447,.F.);
#645=ORIENTED_EDGE('',*,*,#445,.F.);
#646=ORIENTED_EDGE('',*,*,#443,.F.);
#647=ORIENTED_EDGE('',*,*,#441,.F.);
#648=ORIENTED_EDGE('',*,*,#439,.F.);
#649=ORIENTED_EDGE('',*,*,#437,.F.);
#650=ORIENTED_EDGE('',*,*,#435,.F.);
#651=ORIENTED_EDGE('',*,*,#433,.F.);
#652=ORIENTED_EDGE('',*,*,#431,.F.);
#653=ORIENTED_EDGE('',*,*,#429,.F.);
#654=ORIENTED_EDGE('',*,*,#427,.F.);
#655=ORIENTED_EDGE('',*,*,#425,.F.);
#656=ORIENTED_EDGE('',*,*,#423,.F.);
#657=ORIENTED_EDGE('',*,*,#421,.F.);
#658=ORIENTED_EDGE('',*,*,#419,.F.);
#659=ORIENTED_EDGE('',*,*,#417,.F.);
#660=CYLINDRICAL_SURFACE('',#731,15.);
#661=CYLINDRICAL_SURFACE('',#755,15.);
#662=CYLINDRICAL_SURFACE('',#758,15.);
#663=CYLINDRICAL_SURFACE('',#761,3.90000000000001);
#664=CYLINDRICAL_SURFACE('',#765,1.8);
#665=CYLINDRICAL_SURFACE('',#767,1.8);
#666=CYLINDRICAL_SURFACE('',#769,1.8);
#667=CYLINDRICAL_SURFACE('',#771,1.8);
#668=CYLINDRICAL_SURFACE('',#773,1.8);
#669=CYLINDRICAL_SURFACE('',#775,1.8);
#670=CYLINDRICAL_SURFACE('',#777,1.8);
#671=CYLINDRICAL_SURFACE('',#779,1.8);
#672=CYLINDRICAL_SURFACE('',#781,1.8);
#673=CYLINDRICAL_SURFACE('',#783,1.8);
#674=CYLINDRICAL_SURFACE('',#785,1.8);
#675=CYLINDRICAL_SURFACE('',#787,1.8);
#676=CYLINDRICAL_SURFACE('',#789,1.8);
#677=CYLINDRICAL_SURFACE('',#791,1.8);
#678=CYLINDRICAL_SURFACE('',#793,1.8);
#679=CYLINDRICAL_SURFACE('',#795,3.90000000000001);
#680=CYLINDRICAL_SURFACE('',#797,3.90000000000001);
#681=CYLINDRICAL_SURFACE('',#799,1.8);
#682=CYLINDRICAL_SURFACE('',#804,3.90000000000001);
#683=CYLINDRICAL_SURFACE('',#807,3.90000000000001);
#684=ADVANCED_FACE('',(#61),#660,.F.);
#685=ADVANCED_FACE('',(#62,#15,#16,#17,#18,#19,#20,#21,#22,#23,#24,#25,
#26,#27,#28,#29,#30,#31,#32),#52,.T.);
#686=ADVANCED_FACE('',(#63),#661,.F.);
#687=ADVANCED_FACE('',(#64),#662,.T.);
#688=ADVANCED_FACE('',(#65),#663,.F.);
#689=ADVANCED_FACE('',(#66),#53,.F.);
#690=ADVANCED_FACE('',(#67),#664,.F.);
#691=ADVANCED_FACE('',(#68),#665,.F.);
#692=ADVANCED_FACE('',(#69),#666,.F.);
#693=ADVANCED_FACE('',(#70),#667,.F.);
#694=ADVANCED_FACE('',(#71),#668,.F.);
#695=ADVANCED_FACE('',(#72),#669,.F.);
#696=ADVANCED_FACE('',(#73),#670,.F.);
#697=ADVANCED_FACE('',(#74),#671,.F.);
#698=ADVANCED_FACE('',(#75),#672,.F.);
#699=ADVANCED_FACE('',(#76),#673,.F.);
#700=ADVANCED_FACE('',(#77),#674,.F.);
#701=ADVANCED_FACE('',(#78),#675,.F.);
#702=ADVANCED_FACE('',(#79),#676,.F.);
#703=ADVANCED_FACE('',(#80),#677,.F.);
#704=ADVANCED_FACE('',(#81),#678,.F.);
#705=ADVANCED_FACE('',(#82),#679,.F.);
#706=ADVANCED_FACE('',(#83),#680,.F.);
#707=ADVANCED_FACE('',(#84),#681,.F.);
#708=ADVANCED_FACE('',(#85,#33),#54,.T.);
#709=ADVANCED_FACE('',(#86),#55,.T.);
#710=ADVANCED_FACE('',(#87),#56,.T.);
#711=ADVANCED_FACE('',(#88),#682,.F.);
#712=ADVANCED_FACE('',(#89),#57,.T.);
#713=ADVANCED_FACE('',(#90),#683,.F.);
#714=ADVANCED_FACE('',(#91),#58,.T.);
#715=ADVANCED_FACE('',(#92),#59,.T.);
#716=ADVANCED_FACE('',(#93,#34,#35,#36,#37,#38,#39,#40,#41,#42,#43,#44,
#45,#46,#47,#48,#49,#50,#51),#60,.F.);
#717=CLOSED_SHELL('',(#684,#685,#686,#687,#688,#689,#690,#691,#692,#693,
#694,#695,#696,#697,#698,#699,#700,#701,#702,#703,#704,#705,#706,#707,#708,
#709,#710,#711,#712,#713,#714,#715,#716));
#718=DERIVED_UNIT_ELEMENT(#720,1.);
#719=DERIVED_UNIT_ELEMENT(#1223,-3.);
#720=(
MASS_UNIT()
NAMED_UNIT(*)
SI_UNIT(.KILO.,.GRAM.)
);
#721=DERIVED_UNIT((#718,#719));
#722=MEASURE_REPRESENTATION_ITEM('density measure',
POSITIVE_RATIO_MEASURE(7850.),#721);
#723=PROPERTY_DEFINITION_REPRESENTATION(#728,#725);
#724=PROPERTY_DEFINITION_REPRESENTATION(#729,#726);
#725=REPRESENTATION('material name',(#727),#1220);
#726=REPRESENTATION('density',(#722),#1220);
#727=DESCRIPTIVE_REPRESENTATION_ITEM('Steel','Steel');
#728=PROPERTY_DEFINITION('material property','material name',#1230);
#729=PROPERTY_DEFINITION('material property','density of part',#1230);
#730=AXIS2_PLACEMENT_3D('',#1024,#812,#813);
#731=AXIS2_PLACEMENT_3D('',#1025,#814,#815);
#732=AXIS2_PLACEMENT_3D('',#1028,#816,#817);
#733=AXIS2_PLACEMENT_3D('',#1032,#819,#820);
#734=AXIS2_PLACEMENT_3D('',#1034,#822,#823);
#735=AXIS2_PLACEMENT_3D('',#1054,#833,#834);
#736=AXIS2_PLACEMENT_3D('',#1058,#836,#837);
#737=AXIS2_PLACEMENT_3D('',#1065,#841,#842);
#738=AXIS2_PLACEMENT_3D('',#1067,#843,#844);
#739=AXIS2_PLACEMENT_3D('',#1069,#845,#846);
#740=AXIS2_PLACEMENT_3D('',#1071,#847,#848);
#741=AXIS2_PLACEMENT_3D('',#1073,#849,#850);
#742=AXIS2_PLACEMENT_3D('',#1075,#851,#852);
#743=AXIS2_PLACEMENT_3D('',#1077,#853,#854);
#744=AXIS2_PLACEMENT_3D('',#1079,#855,#856);
#745=AXIS2_PLACEMENT_3D('',#1081,#857,#858);
#746=AXIS2_PLACEMENT_3D('',#1083,#859,#860);
#747=AXIS2_PLACEMENT_3D('',#1085,#861,#862);
#748=AXIS2_PLACEMENT_3D('',#1087,#863,#864);
#749=AXIS2_PLACEMENT_3D('',#1089,#865,#866);
#750=AXIS2_PLACEMENT_3D('',#1091,#867,#868);
#751=AXIS2_PLACEMENT_3D('',#1093,#869,#870);
#752=AXIS2_PLACEMENT_3D('',#1095,#871,#872);
#753=AXIS2_PLACEMENT_3D('',#1097,#873,#874);
#754=AXIS2_PLACEMENT_3D('',#1099,#875,#876);
#755=AXIS2_PLACEMENT_3D('',#1100,#877,#878);
#756=AXIS2_PLACEMENT_3D('',#1102,#879,#880);
#757=AXIS2_PLACEMENT_3D('',#1105,#882,#883);
#758=AXIS2_PLACEMENT_3D('',#1106,#884,#885);
#759=AXIS2_PLACEMENT_3D('',#1107,#886,#887);
#760=AXIS2_PLACEMENT_3D('',#1108,#888,#889);
#761=AXIS2_PLACEMENT_3D('',#1109,#890,#891);
#762=AXIS2_PLACEMENT_3D('',#1110,#892,#893);
#763=AXIS2_PLACEMENT_3D('',#1111,#894,#895);
#764=AXIS2_PLACEMENT_3D('',#1112,#896,#897);
#765=AXIS2_PLACEMENT_3D('',#1113,#898,#899);
#766=AXIS2_PLACEMENT_3D('',#1116,#901,#902);
#767=AXIS2_PLACEMENT_3D('',#1117,#903,#904);
#768=AXIS2_PLACEMENT_3D('',#1120,#906,#907);
#769=AXIS2_PLACEMENT_3D('',#1121,#908,#909);
#770=AXIS2_PLACEMENT_3D('',#1124,#911,#912);
#771=AXIS2_PLACEMENT_3D('',#1125,#913,#914);
#772=AXIS2_PLACEMENT_3D('',#1128,#916,#917);
#773=AXIS2_PLACEMENT_3D('',#1129,#918,#919);
#774=AXIS2_PLACEMENT_3D('',#1132,#921,#922);
#775=AXIS2_PLACEMENT_3D('',#1133,#923,#924);
#776=AXIS2_PLACEMENT_3D('',#1136,#926,#927);
#777=AXIS2_PLACEMENT_3D('',#1137,#928,#929);
#778=AXIS2_PLACEMENT_3D('',#1140,#931,#932);
#779=AXIS2_PLACEMENT_3D('',#1141,#933,#934);
#780=AXIS2_PLACEMENT_3D('',#1144,#936,#937);
#781=AXIS2_PLACEMENT_3D('',#1145,#938,#939);
#782=AXIS2_PLACEMENT_3D('',#1148,#941,#942);
#783=AXIS2_PLACEMENT_3D('',#1149,#943,#944);
#784=AXIS2_PLACEMENT_3D('',#1152,#946,#947);
#785=AXIS2_PLACEMENT_3D('',#1153,#948,#949);
#786=AXIS2_PLACEMENT_3D('',#1156,#951,#952);
#787=AXIS2_PLACEMENT_3D('',#1157,#953,#954);
#788=AXIS2_PLACEMENT_3D('',#1160,#956,#957);
#789=AXIS2_PLACEMENT_3D('',#1161,#958,#959);
#790=AXIS2_PLACEMENT_3D('',#1164,#961,#962);
#791=AXIS2_PLACEMENT_3D('',#1165,#963,#964);
#792=AXIS2_PLACEMENT_3D('',#1168,#966,#967);
#793=AXIS2_PLACEMENT_3D('',#1169,#968,#969);
#794=AXIS2_PLACEMENT_3D('',#1172,#971,#972);
#795=AXIS2_PLACEMENT_3D('',#1173,#973,#974);
#796=AXIS2_PLACEMENT_3D('',#1176,#976,#977);
#797=AXIS2_PLACEMENT_3D('',#1177,#978,#979);
#798=AXIS2_PLACEMENT_3D('',#1180,#981,#982);
#799=AXIS2_PLACEMENT_3D('',#1181,#983,#984);
#800=AXIS2_PLACEMENT_3D('',#1184,#986,#987);
#801=AXIS2_PLACEMENT_3D('',#1185,#988,#989);
#802=AXIS2_PLACEMENT_3D('',#1191,#993,#994);
#803=AXIS2_PLACEMENT_3D('',#1195,#997,#998);
#804=AXIS2_PLACEMENT_3D('',#1199,#1001,#1002);
#805=AXIS2_PLACEMENT_3D('',#1201,#1003,#1004);
#806=AXIS2_PLACEMENT_3D('',#1203,#1006,#1007);
#807=AXIS2_PLACEMENT_3D('',#1207,#1010,#1011);
#808=AXIS2_PLACEMENT_3D('',#1209,#1012,#1013);
#809=AXIS2_PLACEMENT_3D('',#1211,#1015,#1016);
#810=AXIS2_PLACEMENT_3D('',#1215,#1019,#1020);
#811=AXIS2_PLACEMENT_3D('',#1217,#1022,#1023);
#812=DIRECTION('axis',(0.,0.,1.));
#813=DIRECTION('refdir',(1.,0.,0.));
#814=DIRECTION('center_axis',(-1.,0.,0.));
#815=DIRECTION('ref_axis',(0.,-0.516397779494619,0.856348838577496));
#816=DIRECTION('center_axis',(-1.,4.18361114673299E-32,-5.08018592941718E-46));
#817=DIRECTION('ref_axis',(0.,-0.516397779494619,0.856348838577496));
#818=DIRECTION('',(1.,-9.63233169684507E-29,-7.93237310914121E-15));
#819=DIRECTION('center_axis',(1.,1.3625940428064E-28,-7.105427357601E-15));
#820=DIRECTION('ref_axis',(0.,-0.516397779494619,0.856348838577496));
#821=DIRECTION('',(-1.,0.,0.));
#822=DIRECTION('center_axis',(-7.93237310914121E-15,-1.21430643318389E-14,
-1.));
#823=DIRECTION('ref_axis',(1.,1.26217748820747E-28,-7.93237310914121E-15));
#824=DIRECTION('',(-4.18361114673299E-32,-1.,1.21430643318389E-14));
#825=DIRECTION('',(1.,0.,0.));
#826=DIRECTION('',(2.22541065789198E-28,-1.,1.21430643318389E-14));
#827=DIRECTION('',(-1.,0.,0.));
#828=DIRECTION('',(-4.18361114673299E-32,-1.,1.21430643318389E-14));
#829=DIRECTION('',(-1.,9.63233169684507E-29,7.93237310914121E-15));
#830=DIRECTION('',(2.22541065789198E-28,-1.,1.21430643318389E-14));
#831=DIRECTION('',(-1.,-1.26217748820747E-28,7.93237310914121E-15));
#832=DIRECTION('',(-2.22541065789198E-28,1.,-1.21430643318389E-14));
#833=DIRECTION('center_axis',(7.93237310914121E-15,1.21430643318389E-14,
1.));
#834=DIRECTION('ref_axis',(1.,1.26217748820747E-28,-7.93237310914121E-15));
#835=DIRECTION('',(-2.22541065789198E-28,1.,-1.21430643318389E-14));
#836=DIRECTION('center_axis',(7.93237310914121E-15,1.21430643318389E-14,
1.));
#837=DIRECTION('ref_axis',(1.,1.26217748820747E-28,-7.93237310914121E-15));
#838=DIRECTION('',(-2.22541065789198E-28,1.,-1.21430643318389E-14));
#839=DIRECTION('',(1.,1.26217748820747E-28,-7.93237310914121E-15));
#840=DIRECTION('',(2.22541065789198E-28,-1.,1.21430643318389E-14));
#841=DIRECTION('center_axis',(7.93237310914121E-15,1.21430643318389E-14,
1.));
#842=DIRECTION('ref_axis',(1.,1.26217748820747E-28,-7.93237310914121E-15));
#843=DIRECTION('center_axis',(7.93237310914121E-15,1.21430643318389E-14,
1.));
#844=DIRECTION('ref_axis',(1.,1.26217748820747E-28,-7.93237310914121E-15));
#845=DIRECTION('center_axis',(7.93237310914121E-15,1.21430643318389E-14,
1.));
#846=DIRECTION('ref_axis',(1.,1.26217748820747E-28,-7.93237310914121E-15));
#847=DIRECTION('center_axis',(7.93237310914121E-15,1.21430643318389E-14,
1.));
#848=DIRECTION('ref_axis',(1.,1.26217748820747E-28,-7.93237310914121E-15));
#849=DIRECTION('center_axis',(7.93237310914121E-15,1.21430643318389E-14,
1.));
#850=DIRECTION('ref_axis',(1.,1.26217748820747E-28,-7.93237310914121E-15));
#851=DIRECTION('center_axis',(7.93237310914121E-15,1.21430643318389E-14,
1.));
#852=DIRECTION('ref_axis',(1.,1.26217748820747E-28,-7.93237310914121E-15));
#853=DIRECTION('center_axis',(7.93237310914121E-15,1.21430643318389E-14,
1.));
#854=DIRECTION('ref_axis',(1.,1.26217748820747E-28,-7.93237310914121E-15));
#855=DIRECTION('center_axis',(7.93237310914121E-15,1.21430643318389E-14,
1.));
#856=DIRECTION('ref_axis',(1.,1.26217748820747E-28,-7.93237310914121E-15));
#857=DIRECTION('center_axis',(7.93237310914121E-15,1.21430643318389E-14,
1.));
#858=DIRECTION('ref_axis',(1.,1.26217748820747E-28,-7.93237310914121E-15));
#859=DIRECTION('center_axis',(7.93237310914121E-15,1.21430643318389E-14,
1.));
#860=DIRECTION('ref_axis',(1.,1.26217748820747E-28,-7.93237310914121E-15));
#861=DIRECTION('center_axis',(7.93237310914121E-15,1.21430643318389E-14,
1.));
#862=DIRECTION('ref_axis',(1.,1.26217748820747E-28,-7.93237310914121E-15));
#863=DIRECTION('center_axis',(7.93237310914121E-15,1.21430643318389E-14,
1.));
#864=DIRECTION('ref_axis',(1.,1.26217748820747E-28,-7.93237310914121E-15));
#865=DIRECTION('center_axis',(7.93237310914121E-15,1.21430643318389E-14,
1.));
#866=DIRECTION('ref_axis',(1.,1.26217748820747E-28,-7.93237310914121E-15));
#867=DIRECTION('center_axis',(7.93237310914121E-15,1.21430643318389E-14,
1.));
#868=DIRECTION('ref_axis',(1.,1.26217748820747E-28,-7.93237310914121E-15));
#869=DIRECTION('center_axis',(7.93237310914121E-15,1.21430643318389E-14,
1.));
#870=DIRECTION('ref_axis',(1.,1.26217748820747E-28,-7.93237310914121E-15));
#871=DIRECTION('center_axis',(7.93237310914121E-15,1.21430643318389E-14,
1.));
#872=DIRECTION('ref_axis',(1.,1.26217748820747E-28,-7.93237310914121E-15));
#873=DIRECTION('center_axis',(7.93237310914121E-15,1.21430643318389E-14,
1.));
#874=DIRECTION('ref_axis',(1.,1.26217748820747E-28,-7.93237310914121E-15));
#875=DIRECTION('center_axis',(7.93237310914121E-15,1.21430643318389E-14,
1.));
#876=DIRECTION('ref_axis',(1.,1.26217748820747E-28,-7.93237310914121E-15));
#877=DIRECTION('center_axis',(1.,0.,0.));
#878=DIRECTION('ref_axis',(0.,0.51639777949464,0.856348838577484));
#879=DIRECTION('center_axis',(-1.,4.18361114673299E-32,-5.08018592941718E-46));
#880=DIRECTION('ref_axis',(0.,0.51639777949464,0.856348838577484));
#881=DIRECTION('',(1.,0.,0.));
#882=DIRECTION('center_axis',(1.,1.3625940428064E-28,-7.105427357601E-15));
#883=DIRECTION('ref_axis',(0.,0.51639777949464,0.856348838577484));
#884=DIRECTION('center_axis',(-1.,0.,0.));
#885=DIRECTION('ref_axis',(0.,1.,0.));
#886=DIRECTION('center_axis',(1.,0.,0.));
#887=DIRECTION('ref_axis',(0.,1.,0.));
#888=DIRECTION('center_axis',(-1.,0.,0.));
#889=DIRECTION('ref_axis',(0.,1.,0.));
#890=DIRECTION('center_axis',(-1.,0.,0.));
#891=DIRECTION('ref_axis',(0.,-1.17071317210693E-14,-1.));
#892=DIRECTION('center_axis',(1.,-4.18361114673299E-32,5.08018592941718E-46));
#893=DIRECTION('ref_axis',(4.18361114673299E-32,1.,0.));
#894=DIRECTION('center_axis',(1.,-4.18361114673299E-32,5.08018592941718E-46));
#895=DIRECTION('ref_axis',(4.18361114673299E-32,1.,0.));
#896=DIRECTION('center_axis',(1.,-4.18361114673299E-32,5.08018592941718E-46));
#897=DIRECTION('ref_axis',(4.18361114673299E-32,1.,0.));
#898=DIRECTION('center_axis',(-7.105427357601E-15,-1.21384384025684E-14,
-1.));
#899=DIRECTION('ref_axis',(1.,1.36255578888083E-28,-7.105427357601E-15));
#900=DIRECTION('',(7.105427357601E-15,1.21384384025684E-14,1.));
#901=DIRECTION('center_axis',(7.93237310914121E-15,1.21430643318389E-14,
1.));
#902=DIRECTION('ref_axis',(1.,1.26217748820747E-28,-7.93237310914121E-15));
#903=DIRECTION('center_axis',(-7.105427357601E-15,-1.21384384025684E-14,
-1.));
#904=DIRECTION('ref_axis',(1.,1.36255578888083E-28,-7.105427357601E-15));
#905=DIRECTION('',(7.105427357601E-15,1.21384384025684E-14,1.));
#906=DIRECTION('center_axis',(7.93237310914121E-15,1.21430643318389E-14,
1.));
#907=DIRECTION('ref_axis',(1.,1.26217748820747E-28,-7.93237310914121E-15));
#908=DIRECTION('center_axis',(-7.105427357601E-15,-1.21384384025684E-14,
-1.));
#909=DIRECTION('ref_axis',(1.,1.36255578888083E-28,-7.105427357601E-15));
#910=DIRECTION('',(7.105427357601E-15,1.21384384025684E-14,1.));
#911=DIRECTION('center_axis',(7.93237310914121E-15,1.21430643318389E-14,
1.));
#912=DIRECTION('ref_axis',(1.,1.26217748820747E-28,-7.93237310914121E-15));
#913=DIRECTION('center_axis',(-7.105427357601E-15,-1.21384384025684E-14,
-1.));
#914=DIRECTION('ref_axis',(1.,1.36255578888083E-28,-7.105427357601E-15));
#915=DIRECTION('',(7.105427357601E-15,1.21384384025684E-14,1.));
#916=DIRECTION('center_axis',(7.93237310914121E-15,1.21430643318389E-14,
1.));
#917=DIRECTION('ref_axis',(1.,1.26217748820747E-28,-7.93237310914121E-15));
#918=DIRECTION('center_axis',(-7.105427357601E-15,-1.21384384025684E-14,
-1.));
#919=DIRECTION('ref_axis',(1.,1.36255578888083E-28,-7.105427357601E-15));
#920=DIRECTION('',(7.105427357601E-15,1.21384384025684E-14,1.));
#921=DIRECTION('center_axis',(7.93237310914121E-15,1.21430643318389E-14,
1.));
#922=DIRECTION('ref_axis',(1.,1.26217748820747E-28,-7.93237310914121E-15));
#923=DIRECTION('center_axis',(-7.105427357601E-15,-1.21384384025684E-14,
-1.));
#924=DIRECTION('ref_axis',(1.,1.36255578888083E-28,-7.105427357601E-15));
#925=DIRECTION('',(7.105427357601E-15,1.21384384025684E-14,1.));
#926=DIRECTION('center_axis',(7.93237310914121E-15,1.21430643318389E-14,
1.));
#927=DIRECTION('ref_axis',(1.,1.26217748820747E-28,-7.93237310914121E-15));
#928=DIRECTION('center_axis',(-7.105427357601E-15,-1.21384384025684E-14,
-1.));
#929=DIRECTION('ref_axis',(1.,1.36255578888083E-28,-7.105427357601E-15));
#930=DIRECTION('',(7.105427357601E-15,1.21384384025684E-14,1.));
#931=DIRECTION('center_axis',(7.93237310914121E-15,1.21430643318389E-14,
1.));
#932=DIRECTION('ref_axis',(1.,1.26217748820747E-28,-7.93237310914121E-15));
#933=DIRECTION('center_axis',(-7.105427357601E-15,-1.21384384025684E-14,
-1.));
#934=DIRECTION('ref_axis',(1.,1.36255578888083E-28,-7.105427357601E-15));
#935=DIRECTION('',(7.105427357601E-15,1.21384384025684E-14,1.));
#936=DIRECTION('center_axis',(7.93237310914121E-15,1.21430643318389E-14,
1.));
#937=DIRECTION('ref_axis',(1.,1.26217748820747E-28,-7.93237310914121E-15));
#938=DIRECTION('center_axis',(-7.105427357601E-15,-1.21384384025684E-14,
-1.));
#939=DIRECTION('ref_axis',(1.,1.36255578888083E-28,-7.105427357601E-15));
#940=DIRECTION('',(7.105427357601E-15,1.21384384025684E-14,1.));
#941=DIRECTION('center_axis',(7.93237310914121E-15,1.21430643318389E-14,
1.));
#942=DIRECTION('ref_axis',(1.,1.26217748820747E-28,-7.93237310914121E-15));
#943=DIRECTION('center_axis',(-7.105427357601E-15,-1.21384384025684E-14,
-1.));
#944=DIRECTION('ref_axis',(1.,1.36255578888083E-28,-7.105427357601E-15));
#945=DIRECTION('',(7.105427357601E-15,1.21384384025684E-14,1.));
#946=DIRECTION('center_axis',(7.93237310914121E-15,1.21430643318389E-14,
1.));
#947=DIRECTION('ref_axis',(1.,1.26217748820747E-28,-7.93237310914121E-15));
#948=DIRECTION('center_axis',(-7.105427357601E-15,-1.21384384025684E-14,
-1.));
#949=DIRECTION('ref_axis',(1.,1.36255578888083E-28,-7.105427357601E-15));
#950=DIRECTION('',(7.105427357601E-15,1.21384384025684E-14,1.));
#951=DIRECTION('center_axis',(7.93237310914121E-15,1.21430643318389E-14,
1.));
#952=DIRECTION('ref_axis',(1.,1.26217748820747E-28,-7.93237310914121E-15));
#953=DIRECTION('center_axis',(-7.105427357601E-15,-1.21384384025684E-14,
-1.));
#954=DIRECTION('ref_axis',(1.,1.36255578888083E-28,-7.105427357601E-15));
#955=DIRECTION('',(7.105427357601E-15,1.21384384025684E-14,1.));
#956=DIRECTION('center_axis',(7.93237310914121E-15,1.21430643318389E-14,
1.));
#957=DIRECTION('ref_axis',(1.,1.26217748820747E-28,-7.93237310914121E-15));
#958=DIRECTION('center_axis',(-7.105427357601E-15,-1.21384384025684E-14,
-1.));
#959=DIRECTION('ref_axis',(1.,1.36255578888083E-28,-7.105427357601E-15));
#960=DIRECTION('',(7.105427357601E-15,1.21384384025684E-14,1.));
#961=DIRECTION('center_axis',(7.93237310914121E-15,1.21430643318389E-14,
1.));
#962=DIRECTION('ref_axis',(1.,1.26217748820747E-28,-7.93237310914121E-15));
#963=DIRECTION('center_axis',(-7.105427357601E-15,-1.21384384025684E-14,
-1.));
#964=DIRECTION('ref_axis',(1.,1.36255578888083E-28,-7.105427357601E-15));
#965=DIRECTION('',(7.105427357601E-15,1.21384384025684E-14,1.));
#966=DIRECTION('center_axis',(7.93237310914121E-15,1.21430643318389E-14,
1.));
#967=DIRECTION('ref_axis',(1.,1.26217748820747E-28,-7.93237310914121E-15));
#968=DIRECTION('center_axis',(-7.105427357601E-15,-1.21384384025684E-14,
-1.));
#969=DIRECTION('ref_axis',(1.,1.36255578888083E-28,-7.105427357601E-15));
#970=DIRECTION('',(7.105427357601E-15,1.21384384025684E-14,1.));
#971=DIRECTION('center_axis',(7.93237310914121E-15,1.21430643318389E-14,
1.));
#972=DIRECTION('ref_axis',(1.,1.26217748820747E-28,-7.93237310914121E-15));
#973=DIRECTION('center_axis',(-7.105427357601E-15,-1.21384384025684E-14,
-1.));
#974=DIRECTION('ref_axis',(1.,1.36255578888083E-28,-7.105427357601E-15));
#975=DIRECTION('',(7.105427357601E-15,1.21384384025684E-14,1.));
#976=DIRECTION('center_axis',(7.93237310914121E-15,1.21430643318389E-14,
1.));
#977=DIRECTION('ref_axis',(1.,1.26217748820747E-28,-7.93237310914121E-15));
#978=DIRECTION('center_axis',(-7.105427357601E-15,-1.21384384025684E-14,
-1.));
#979=DIRECTION('ref_axis',(1.,1.36255578888083E-28,-7.105427357601E-15));
#980=DIRECTION('',(7.105427357601E-15,1.21384384025684E-14,1.));
#981=DIRECTION('center_axis',(7.93237310914121E-15,1.21430643318389E-14,
1.));
#982=DIRECTION('ref_axis',(1.,1.26217748820747E-28,-7.93237310914121E-15));
#983=DIRECTION('center_axis',(-7.105427357601E-15,-1.21384384025684E-14,
-1.));
#984=DIRECTION('ref_axis',(1.,1.36255578888083E-28,-7.105427357601E-15));
#985=DIRECTION('',(7.105427357601E-15,1.21384384025684E-14,1.));
#986=DIRECTION('center_axis',(7.93237310914121E-15,1.21430643318389E-14,
1.));
#987=DIRECTION('ref_axis',(1.,1.26217748820747E-28,-7.93237310914121E-15));
#988=DIRECTION('center_axis',(1.,1.3625940428064E-28,-7.105427357601E-15));
#989=DIRECTION('ref_axis',(2.22541065789198E-28,-1.,1.21430643318389E-14));
#990=DIRECTION('',(-7.105427357601E-15,-1.21384384025684E-14,-1.));
#991=DIRECTION('',(-2.22541065789198E-28,1.,-1.21430643318389E-14));
#992=DIRECTION('',(-7.105427357601E-15,-1.21384384025684E-14,-1.));
#993=DIRECTION('center_axis',(-2.22504371192247E-28,1.,-1.21384384025684E-14));
#994=DIRECTION('ref_axis',(1.,1.26217748820747E-28,-7.93237310914121E-15));
#995=DIRECTION('',(-1.,-1.26217748820747E-28,7.93237310914121E-15));
#996=DIRECTION('',(-7.105427357601E-15,-1.21384384025684E-14,-1.));
#997=DIRECTION('center_axis',(-1.,-1.3625940428064E-28,7.105427357601E-15));
#998=DIRECTION('ref_axis',(-2.22541065789198E-28,1.,-1.21430643318389E-14));
#999=DIRECTION('',(2.22541065789198E-28,-1.,1.21430643318389E-14));
#1000=DIRECTION('',(-7.105427357601E-15,-1.21384384025684E-14,-1.));
#1001=DIRECTION('center_axis',(-7.105427357601E-15,-1.21384384025684E-14,
-1.));
#1002=DIRECTION('ref_axis',(1.,1.36255578888083E-28,-7.105427357601E-15));
#1003=DIRECTION('center_axis',(-7.93237310914121E-15,-1.21430643318389E-14,
-1.));
#1004=DIRECTION('ref_axis',(1.,1.26217748820747E-28,-7.93237310914121E-15));
#1005=DIRECTION('',(-7.105427357601E-15,-1.21384384025684E-14,-1.));
#1006=DIRECTION('center_axis',(-1.,-1.3625940428064E-28,7.105427357601E-15));
#1007=DIRECTION('ref_axis',(-2.22541065789198E-28,1.,-1.21430643318389E-14));
#1008=DIRECTION('',(2.22541065789198E-28,-1.,1.21430643318389E-14));
#1009=DIRECTION('',(-7.105427357601E-15,-1.21384384025684E-14,-1.));
#1010=DIRECTION('center_axis',(-7.105427357601E-15,-1.21384384025684E-14,
-1.));
#1011=DIRECTION('ref_axis',(1.,1.36255578888083E-28,-7.105427357601E-15));
#1012=DIRECTION('center_axis',(-7.93237310914121E-15,-1.21430643318389E-14,
-1.));
#1013=DIRECTION('ref_axis',(1.,1.26217748820747E-28,-7.93237310914121E-15));
#1014=DIRECTION('',(-7.105427357601E-15,-1.21384384025684E-14,-1.));
#1015=DIRECTION('center_axis',(-1.,-1.3625940428064E-28,7.105427357601E-15));
#1016=DIRECTION('ref_axis',(-2.22541065789198E-28,1.,-1.21430643318389E-14));
#1017=DIRECTION('',(2.22541065789198E-28,-1.,1.21430643318389E-14));
#1018=DIRECTION('',(-7.105427357601E-15,-1.21384384025684E-14,-1.));
#1019=DIRECTION('center_axis',(2.22504371192247E-28,-1.,1.21384384025684E-14));
#1020=DIRECTION('ref_axis',(-1.,-1.26217748820747E-28,7.93237310914121E-15));
#1021=DIRECTION('',(1.,1.26217748820747E-28,-7.93237310914121E-15));
#1022=DIRECTION('center_axis',(-7.93237310914121E-15,-1.21430643318389E-14,
-1.));
#1023=DIRECTION('ref_axis',(1.,1.26217748820747E-28,-7.93237310914121E-15));
#1024=CARTESIAN_POINT('',(0.,0.,0.));
#1025=CARTESIAN_POINT('Origin',(187.711458359832,83.189551690957,32.8018646025295));
#1026=CARTESIAN_POINT('',(177.711458359832,69.9230525295305,39.8018646025202));
#1027=CARTESIAN_POINT('',(177.711458359832,83.1895516909572,47.8018646025296));
#1028=CARTESIAN_POINT('Origin',(177.711458359832,83.189551690957,32.8018646025295));
#1029=CARTESIAN_POINT('',(187.711458359832,83.1895516909572,47.8018646025295));
#1030=CARTESIAN_POINT('',(187.711458359832,83.1895516909572,47.8018646025295));
#1031=CARTESIAN_POINT('',(187.711458359832,69.9230525295305,39.8018646025202));
#1032=CARTESIAN_POINT('Origin',(187.711458359832,83.189551690957,32.8018646025295));
#1033=CARTESIAN_POINT('',(187.711458359832,69.9230525295305,39.8018646025202));
#1034=CARTESIAN_POINT('Origin',(172.711458359832,56.6565533680817,47.80186460253));
#1035=CARTESIAN_POINT('',(177.711458359832,60.4261687330927,47.8018646025311));
#1036=CARTESIAN_POINT('',(177.711458359832,56.6565533680929,47.8018646025299));
#1037=CARTESIAN_POINT('',(187.711458359832,60.4261687330927,47.8018646025311));
#1038=CARTESIAN_POINT('',(187.711458359832,60.4261687330931,47.8018646025298));
#1039=CARTESIAN_POINT('',(187.711458359832,52.8869380031152,47.8018646025312));
#1040=CARTESIAN_POINT('',(187.711458359832,13.0565533680817,47.8018646025304));
#1041=CARTESIAN_POINT('',(177.711458359832,52.8869380031152,47.8018646025312));
#1042=CARTESIAN_POINT('',(187.711458359832,52.8869380031149,47.8018646025299));
#1043=CARTESIAN_POINT('',(177.711458359832,30.1235550452507,47.8018646025303));
#1044=CARTESIAN_POINT('',(177.711458359832,56.6565533680929,47.8018646025299));
#1045=CARTESIAN_POINT('',(187.711458359832,30.1235550452507,47.8018646025302));
#1046=CARTESIAN_POINT('',(187.711458359832,30.1235550452507,47.8018646025302));
#1047=CARTESIAN_POINT('',(187.711458359832,13.0565533680817,47.8018646025304));
#1048=CARTESIAN_POINT('',(187.711458359832,13.0565533680817,47.8018646025304));
#1049=CARTESIAN_POINT('',(157.711458359832,13.0565533680817,47.8018646025306));
#1050=CARTESIAN_POINT('',(157.711458359832,13.0565533680817,47.8018646025306));
#1051=CARTESIAN_POINT('',(157.711458359832,23.1460560506062,47.8018646025305));
#1052=CARTESIAN_POINT('',(157.711458359832,100.256553368082,47.8018646025296));
#1053=CARTESIAN_POINT('',(157.711458359832,26.9670506855911,47.8018646025305));
#1054=CARTESIAN_POINT('Origin',(154.311458359854,25.0565533680986,47.8018646025305));
#1055=CARTESIAN_POINT('',(157.711458359832,86.3460560506375,47.8018646025297));
#1056=CARTESIAN_POINT('',(157.711458359832,100.256553368082,47.8018646025296));
#1057=CARTESIAN_POINT('',(157.711458359832,90.1670506855383,47.8018646025297));
#1058=CARTESIAN_POINT('Origin',(154.31145835983,88.2565533680879,47.8018646025297));
#1059=CARTESIAN_POINT('',(157.711458359832,100.256553368082,47.8018646025296));
#1060=CARTESIAN_POINT('',(157.711458359832,100.256553368082,47.8018646025296));
#1061=CARTESIAN_POINT('',(187.711458359832,100.256553368082,47.8018646025293));
#1062=CARTESIAN_POINT('',(187.711458359832,100.256553368082,47.8018646025293));
#1063=CARTESIAN_POINT('',(187.711458359832,13.0565533680817,47.8018646025304));
#1064=CARTESIAN_POINT('',(162.725314788481,30.6426969394703,47.8018646025304));
#1065=CARTESIAN_POINT('Origin',(164.525314788481,30.6426969394703,47.8018646025304));
#1066=CARTESIAN_POINT('',(160.41145835983,88.2565533680864,47.8018646025297));
#1067=CARTESIAN_POINT('Origin',(162.21145835983,88.2565533680864,47.8018646025297));
#1068=CARTESIAN_POINT('',(168.311458359828,80.356553368085,47.8018646025297));
#1069=CARTESIAN_POINT('Origin',(170.111458359828,80.356553368085,47.8018646025297));
#1070=CARTESIAN_POINT('',(168.311458359831,96.156553368085,47.8018646025295));
#1071=CARTESIAN_POINT('Origin',(170.111458359831,96.156553368085,47.8018646025295));
#1072=CARTESIAN_POINT('',(162.725314788457,93.8426969394597,47.8018646025296));
#1073=CARTESIAN_POINT('Origin',(164.525314788457,93.8426969394597,47.8018646025296));
#1074=CARTESIAN_POINT('',(173.897601931203,82.6704097967102,47.8018646025296));
#1075=CARTESIAN_POINT('Origin',(175.697601931203,82.6704097967102,47.8018646025296));
#1076=CARTESIAN_POINT('',(173.897601931226,19.4704097967205,47.8018646025304));
#1077=CARTESIAN_POINT('Origin',(175.697601931226,19.4704097967205,47.8018646025304));
#1078=CARTESIAN_POINT('',(168.311458359852,17.1565533680954,47.8018646025305));
#1079=CARTESIAN_POINT('Origin',(170.111458359852,17.1565533680954,47.8018646025305));
#1080=CARTESIAN_POINT('',(168.311458359855,32.9565533680954,47.8018646025303));
#1081=CARTESIAN_POINT('Origin',(170.111458359855,32.9565533680954,47.8018646025303));
#1082=CARTESIAN_POINT('',(173.897601931205,93.8426969394577,47.8018646025295));
#1083=CARTESIAN_POINT('Origin',(175.697601931205,93.8426969394577,47.8018646025295));
#1084=CARTESIAN_POINT('',(176.21145835983,88.2565533680835,47.8018646025296));
#1085=CARTESIAN_POINT('Origin',(178.01145835983,88.2565533680835,47.8018646025295));
#1086=CARTESIAN_POINT('',(160.411458359853,25.056553368097,47.8018646025305));
#1087=CARTESIAN_POINT('Origin',(162.211458359854,25.056553368097,47.8018646025304));
#1088=CARTESIAN_POINT('',(176.211458359854,25.0565533680937,47.8018646025303));
#1089=CARTESIAN_POINT('Origin',(178.011458359854,25.0565533680937,47.8018646025303));
#1090=CARTESIAN_POINT('',(162.725314788455,82.6704097967123,47.8018646025297));
#1091=CARTESIAN_POINT('Origin',(164.525314788455,82.6704097967123,47.8018646025297));
#1092=CARTESIAN_POINT('',(162.725314788478,19.4704097967228,47.8018646025305));
#1093=CARTESIAN_POINT('Origin',(164.525314788478,19.4704097967228,47.8018646025305));
#1094=CARTESIAN_POINT('',(166.21145835983,88.256553368085,47.8018646025296));
#1095=CARTESIAN_POINT('Origin',(170.11145835983,88.256553368085,47.8018646025296));
#1096=CARTESIAN_POINT('',(166.211458359854,25.0565533680954,47.8018646025304));
#1097=CARTESIAN_POINT('Origin',(170.111458359854,25.0565533680954,47.8018646025304));
#1098=CARTESIAN_POINT('',(173.897601931229,30.6426969394679,47.8018646025303));
#1099=CARTESIAN_POINT('Origin',(175.697601931229,30.6426969394679,47.8018646025303));
#1100=CARTESIAN_POINT('Origin',(187.711458359832,30.1235550452506,32.8018646025302));
#1101=CARTESIAN_POINT('',(177.711458359832,43.3900542066773,39.8018646025205));
#1102=CARTESIAN_POINT('Origin',(177.711458359832,30.1235550452506,32.8018646025302));
#1103=CARTESIAN_POINT('',(187.711458359832,43.3900542066773,39.8018646025205));
#1104=CARTESIAN_POINT('',(187.711458359832,43.3900542066773,39.8018646025205));
#1105=CARTESIAN_POINT('Origin',(187.711458359832,30.1235550452506,32.8018646025302));
#1106=CARTESIAN_POINT('Origin',(187.711458359832,56.656553368104,46.8018646025108));
#1107=CARTESIAN_POINT('Origin',(187.711458359832,56.656553368104,46.8018646025108));
#1108=CARTESIAN_POINT('Origin',(177.711458359832,56.656553368104,46.8018646025108));
#1109=CARTESIAN_POINT('Origin',(187.711458359832,56.656553368104,46.8018646025108));
#1110=CARTESIAN_POINT('Origin',(187.711458359832,56.656553368104,46.8018646025108));
#1111=CARTESIAN_POINT('Origin',(177.711458359832,56.656553368104,46.8018646025108));
#1112=CARTESIAN_POINT('Origin',(177.711458359832,56.656553368104,39.8018646025211));
#1113=CARTESIAN_POINT('Origin',(164.525314788481,30.6426969394704,62.8018646025304));
#1114=CARTESIAN_POINT('',(162.725314788481,30.6426969394704,62.8018646025304));
#1115=CARTESIAN_POINT('',(162.725314788481,30.6426969394704,62.8018646025304));
#1116=CARTESIAN_POINT('Origin',(164.525314788481,30.6426969394704,62.8018646025304));
#1117=CARTESIAN_POINT('Origin',(162.21145835983,88.2565533680866,62.8018646025297));
#1118=CARTESIAN_POINT('',(160.41145835983,88.2565533680866,62.8018646025297));
#1119=CARTESIAN_POINT('',(160.41145835983,88.2565533680866,62.8018646025297));
#1120=CARTESIAN_POINT('Origin',(162.21145835983,88.2565533680866,62.8018646025297));
#1121=CARTESIAN_POINT('Origin',(170.111458359829,80.3565533680851,62.8018646025297));
#1122=CARTESIAN_POINT('',(168.311458359829,80.3565533680851,62.8018646025297));
#1123=CARTESIAN_POINT('',(168.311458359829,80.3565533680851,62.8018646025297));
#1124=CARTESIAN_POINT('Origin',(170.111458359829,80.3565533680851,62.8018646025297));
#1125=CARTESIAN_POINT('Origin',(170.111458359831,96.1565533680852,62.8018646025295));
#1126=CARTESIAN_POINT('',(168.311458359831,96.1565533680852,62.8018646025295));
#1127=CARTESIAN_POINT('',(168.311458359831,96.1565533680852,62.8018646025295));
#1128=CARTESIAN_POINT('Origin',(170.111458359831,96.1565533680852,62.8018646025295));
#1129=CARTESIAN_POINT('Origin',(164.525314788457,93.8426969394599,62.8018646025296));
#1130=CARTESIAN_POINT('',(162.725314788457,93.8426969394599,62.8018646025296));
#1131=CARTESIAN_POINT('',(162.725314788457,93.8426969394599,62.8018646025296));
#1132=CARTESIAN_POINT('Origin',(164.525314788457,93.8426969394599,62.8018646025296));
#1133=CARTESIAN_POINT('Origin',(175.697601931203,82.6704097967104,62.8018646025296));
#1134=CARTESIAN_POINT('',(173.897601931203,82.6704097967104,62.8018646025296));
#1135=CARTESIAN_POINT('',(173.897601931203,82.6704097967104,62.8018646025296));
#1136=CARTESIAN_POINT('Origin',(175.697601931203,82.6704097967104,62.8018646025296));
#1137=CARTESIAN_POINT('Origin',(175.697601931227,19.4704097967207,62.8018646025304));
#1138=CARTESIAN_POINT('',(173.897601931227,19.4704097967207,62.8018646025304));
#1139=CARTESIAN_POINT('',(173.897601931227,19.4704097967207,62.8018646025304));
#1140=CARTESIAN_POINT('Origin',(175.697601931227,19.4704097967207,62.8018646025304));
#1141=CARTESIAN_POINT('Origin',(170.111458359852,17.1565533680955,62.8018646025305));
#1142=CARTESIAN_POINT('',(168.311458359852,17.1565533680955,62.8018646025305));
#1143=CARTESIAN_POINT('',(168.311458359852,17.1565533680955,62.8018646025305));
#1144=CARTESIAN_POINT('Origin',(170.111458359852,17.1565533680955,62.8018646025305));
#1145=CARTESIAN_POINT('Origin',(170.111458359855,32.9565533680956,62.8018646025303));
#1146=CARTESIAN_POINT('',(168.311458359855,32.9565533680956,62.8018646025303));
#1147=CARTESIAN_POINT('',(168.311458359855,32.9565533680956,62.8018646025303));
#1148=CARTESIAN_POINT('Origin',(170.111458359855,32.9565533680956,62.8018646025303));
#1149=CARTESIAN_POINT('Origin',(175.697601931205,93.8426969394578,62.8018646025295));
#1150=CARTESIAN_POINT('',(173.897601931205,93.8426969394578,62.8018646025295));
#1151=CARTESIAN_POINT('',(173.897601931205,93.8426969394578,62.8018646025295));
#1152=CARTESIAN_POINT('Origin',(175.697601931205,93.8426969394578,62.8018646025295));
#1153=CARTESIAN_POINT('Origin',(178.01145835983,88.2565533680837,62.8018646025295));
#1154=CARTESIAN_POINT('',(176.21145835983,88.2565533680837,62.8018646025296));
#1155=CARTESIAN_POINT('',(176.21145835983,88.2565533680837,62.8018646025296));
#1156=CARTESIAN_POINT('Origin',(178.01145835983,88.2565533680837,62.8018646025295));
#1157=CARTESIAN_POINT('Origin',(162.211458359854,25.0565533680972,62.8018646025304));
#1158=CARTESIAN_POINT('',(160.411458359854,25.0565533680972,62.8018646025305));
#1159=CARTESIAN_POINT('',(160.411458359854,25.0565533680972,62.8018646025305));
#1160=CARTESIAN_POINT('Origin',(162.211458359854,25.0565533680972,62.8018646025304));
#1161=CARTESIAN_POINT('Origin',(178.011458359854,25.0565533680939,62.8018646025303));
#1162=CARTESIAN_POINT('',(176.211458359854,25.0565533680939,62.8018646025303));
#1163=CARTESIAN_POINT('',(176.211458359854,25.0565533680939,62.8018646025303));
#1164=CARTESIAN_POINT('Origin',(178.011458359854,25.0565533680939,62.8018646025303));
#1165=CARTESIAN_POINT('Origin',(164.525314788455,82.6704097967124,62.8018646025297));
#1166=CARTESIAN_POINT('',(162.725314788455,82.6704097967124,62.8018646025297));
#1167=CARTESIAN_POINT('',(162.725314788455,82.6704097967124,62.8018646025297));
#1168=CARTESIAN_POINT('Origin',(164.525314788455,82.6704097967124,62.8018646025297));
#1169=CARTESIAN_POINT('Origin',(164.525314788479,19.470409796723,62.8018646025305));
#1170=CARTESIAN_POINT('',(162.725314788479,19.470409796723,62.8018646025305));
#1171=CARTESIAN_POINT('',(162.725314788479,19.470409796723,62.8018646025305));
#1172=CARTESIAN_POINT('Origin',(164.525314788479,19.470409796723,62.8018646025305));
#1173=CARTESIAN_POINT('Origin',(170.11145835983,88.2565533680852,62.8018646025296));
#1174=CARTESIAN_POINT('',(166.21145835983,88.2565533680852,62.8018646025296));
#1175=CARTESIAN_POINT('',(166.21145835983,88.2565533680852,62.8018646025296));
#1176=CARTESIAN_POINT('Origin',(170.11145835983,88.2565533680852,62.8018646025296));
#1177=CARTESIAN_POINT('Origin',(170.111458359854,25.0565533680956,62.8018646025304));
#1178=CARTESIAN_POINT('',(166.211458359854,25.0565533680956,62.8018646025304));
#1179=CARTESIAN_POINT('',(166.211458359854,25.0565533680956,62.8018646025304));
#1180=CARTESIAN_POINT('Origin',(170.111458359854,25.0565533680956,62.8018646025304));
#1181=CARTESIAN_POINT('Origin',(175.697601931229,30.6426969394681,62.8018646025303));
#1182=CARTESIAN_POINT('',(173.897601931229,30.6426969394681,62.8018646025303));
#1183=CARTESIAN_POINT('',(173.897601931229,30.6426969394681,62.8018646025303));
#1184=CARTESIAN_POINT('Origin',(175.697601931229,30.6426969394681,62.8018646025303));
#1185=CARTESIAN_POINT('Origin',(187.711458359832,100.256553368082,62.8018646025293));
#1186=CARTESIAN_POINT('',(187.711458359832,100.256553368082,62.8018646025293));
#1187=CARTESIAN_POINT('',(187.711458359832,100.256553368082,62.8018646025293));
#1188=CARTESIAN_POINT('',(187.711458359832,13.0565533680819,62.8018646025304));
#1189=CARTESIAN_POINT('',(187.711458359832,13.0565533680819,62.8018646025304));
#1190=CARTESIAN_POINT('',(187.711458359832,13.0565533680819,62.8018646025304));
#1191=CARTESIAN_POINT('Origin',(157.711458359832,100.256553368082,62.8018646025296));
#1192=CARTESIAN_POINT('',(157.711458359832,100.256553368082,62.8018646025296));
#1193=CARTESIAN_POINT('',(187.711458359832,100.256553368082,62.8018646025293));
#1194=CARTESIAN_POINT('',(157.711458359832,100.256553368082,62.8018646025296));
#1195=CARTESIAN_POINT('Origin',(157.711458359832,90.1670506855385,62.8018646025297));
#1196=CARTESIAN_POINT('',(157.711458359832,90.1670506855385,62.8018646025297));
#1197=CARTESIAN_POINT('',(157.711458359832,100.256553368082,62.8018646025296));
#1198=CARTESIAN_POINT('',(157.711458359832,90.1670506855385,62.8018646025297));
#1199=CARTESIAN_POINT('Origin',(154.31145835983,88.2565533680881,62.8018646025297));
#1200=CARTESIAN_POINT('',(157.711458359832,86.3460560506377,62.8018646025297));
#1201=CARTESIAN_POINT('Origin',(154.31145835983,88.2565533680881,62.8018646025297));
#1202=CARTESIAN_POINT('',(157.711458359832,86.3460560506377,62.8018646025297));
#1203=CARTESIAN_POINT('Origin',(157.711458359832,26.9670506855913,62.8018646025305));
#1204=CARTESIAN_POINT('',(157.711458359832,26.9670506855913,62.8018646025305));
#1205=CARTESIAN_POINT('',(157.711458359832,100.256553368082,62.8018646025296));
#1206=CARTESIAN_POINT('',(157.711458359832,26.9670506855913,62.8018646025305));
#1207=CARTESIAN_POINT('Origin',(154.311458359854,25.0565533680988,62.8018646025305));
#1208=CARTESIAN_POINT('',(157.711458359832,23.1460560506064,62.8018646025305));
#1209=CARTESIAN_POINT('Origin',(154.311458359854,25.0565533680988,62.8018646025305));
#1210=CARTESIAN_POINT('',(157.711458359832,23.1460560506064,62.8018646025305));
#1211=CARTESIAN_POINT('Origin',(157.711458359832,13.0565533680819,62.8018646025306));
#1212=CARTESIAN_POINT('',(157.711458359832,13.0565533680819,62.8018646025306));
#1213=CARTESIAN_POINT('',(157.711458359832,100.256553368082,62.8018646025296));
#1214=CARTESIAN_POINT('',(157.711458359832,13.0565533680819,62.8018646025306));
#1215=CARTESIAN_POINT('Origin',(187.711458359832,13.0565533680819,62.8018646025304));
#1216=CARTESIAN_POINT('',(157.711458359832,13.0565533680819,62.8018646025306));
#1217=CARTESIAN_POINT('Origin',(172.711458359832,56.6565533680819,62.80186460253));
#1218=UNCERTAINTY_MEASURE_WITH_UNIT(LENGTH_MEASURE(0.01),#1222,
'DISTANCE_ACCURACY_VALUE',
'Maximum model space distance between geometric entities at asserted c
onnectivities');
#1219=UNCERTAINTY_MEASURE_WITH_UNIT(LENGTH_MEASURE(0.01),#1222,
'DISTANCE_ACCURACY_VALUE',
'Maximum model space distance between geometric entities at asserted c
onnectivities');
#1220=(
GEOMETRIC_REPRESENTATION_CONTEXT(3)
GLOBAL_UNCERTAINTY_ASSIGNED_CONTEXT((#1218))
GLOBAL_UNIT_ASSIGNED_CONTEXT((#1222,#1224,#1225))
REPRESENTATION_CONTEXT('','3D')
);
#1221=(
GEOMETRIC_REPRESENTATION_CONTEXT(3)
GLOBAL_UNCERTAINTY_ASSIGNED_CONTEXT((#1219))
GLOBAL_UNIT_ASSIGNED_CONTEXT((#1222,#1224,#1225))
REPRESENTATION_CONTEXT('','3D')
);
#1222=(
LENGTH_UNIT()
NAMED_UNIT(*)
SI_UNIT(.MILLI.,.METRE.)
);
#1223=(
LENGTH_UNIT()
NAMED_UNIT(*)
SI_UNIT($,.METRE.)
);
#1224=(
NAMED_UNIT(*)
PLANE_ANGLE_UNIT()
SI_UNIT($,.RADIAN.)
);
#1225=(
NAMED_UNIT(*)
SI_UNIT($,.STERADIAN.)
SOLID_ANGLE_UNIT()
);
#1226=SHAPE_DEFINITION_REPRESENTATION(#1227,#1228);
#1227=PRODUCT_DEFINITION_SHAPE('',$,#1230);
#1228=SHAPE_REPRESENTATION('',(#730),#1220);
#1229=PRODUCT_DEFINITION_CONTEXT('part definition',#1234,'design');
#1230=PRODUCT_DEFINITION('Motor Mount','Motor Mount',#1231,#1229);
#1231=PRODUCT_DEFINITION_FORMATION('',$,#1236);
#1232=PRODUCT_RELATED_PRODUCT_CATEGORY('Motor Mount','Motor Mount',(#1236));
#1233=APPLICATION_PROTOCOL_DEFINITION('international standard',
'automotive_design',2009,#1234);
#1234=APPLICATION_CONTEXT(
'Core Data for Automotive Mechanical Design Process');
#1235=PRODUCT_CONTEXT('part definition',#1234,'mechanical');
#1236=PRODUCT('Motor Mount','Motor Mount',$,(#1235));
#1237=PRESENTATION_STYLE_ASSIGNMENT((#1238));
#1238=SURFACE_STYLE_USAGE(.BOTH.,#1239);
#1239=SURFACE_SIDE_STYLE('',(#1240));
#1240=SURFACE_STYLE_FILL_AREA(#1241);
#1241=FILL_AREA_STYLE('Steel - Satin',(#1242));
#1242=FILL_AREA_STYLE_COLOUR('Steel - Satin',#1243);
#1243=COLOUR_RGB('Steel - Satin',0.627450980392157,0.627450980392157,0.627450980392157);
ENDSEC;
END-ISO-10303-21;
