ISO-10303-21;
HEADER;
/* Generated by software containing ST-Developer
 * from STEP Tools, Inc. (www.steptools.com) 
 */

FILE_DESCRIPTION(
/* description */ (''),
/* implementation_level */ '2;1');

FILE_NAME(
/* name */ 'Top Tray Monut v2.step',
/* time_stamp */ '2026-03-01T00:20:03+05:30',
/* author */ (''),
/* organization */ (''),
/* preprocessor_version */ 'ST-DEVELOPER v20.1',
/* originating_system */ 'Autodesk Translation Framework v14.24.0.0',
/* authorisation */ '');

FILE_SCHEMA (('AUTOMOTIVE_DESIGN { 1 0 10303 214 3 1 1 }'));
ENDSEC;

DATA;
#10=MECHANICAL_DESIGN_GEOMETRIC_PRESENTATION_REPRESENTATION('',(#13),#1528);
#11=SHAPE_REPRESENTATION_RELATIONSHIP('SRR','None',#1535,#12);
#12=ADVANCED_BREP_SHAPE_REPRESENTATION('',(#14),#1527);
#13=STYLED_ITEM('',(#1544),#14);
#14=MANIFOLD_SOLID_BREP('Top Tray Monut',#619);
#15=TOROIDAL_SURFACE('',#642,17.7,8.);
#16=FACE_BOUND('',#118,.T.);
#17=FACE_BOUND('',#120,.T.);
#18=FACE_BOUND('',#121,.T.);
#19=FACE_BOUND('',#122,.T.);
#20=FACE_BOUND('',#123,.T.);
#21=FACE_BOUND('',#127,.T.);
#22=FACE_BOUND('',#130,.T.);
#23=FACE_BOUND('',#133,.T.);
#24=FACE_BOUND('',#136,.T.);
#25=FACE_BOUND('',#145,.T.);
#26=FACE_BOUND('',#146,.T.);
#27=FACE_BOUND('',#147,.T.);
#28=FACE_BOUND('',#155,.T.);
#29=FACE_BOUND('',#156,.T.);
#30=FACE_BOUND('',#157,.T.);
#31=FACE_BOUND('',#158,.T.);
#32=FACE_BOUND('',#160,.T.);
#33=FACE_BOUND('',#161,.T.);
#34=FACE_BOUND('',#162,.T.);
#35=FACE_BOUND('',#163,.T.);
#36=FACE_BOUND('',#165,.T.);
#37=CIRCLE('',#637,2.25);
#38=CIRCLE('',#639,2.25);
#39=CIRCLE('',#641,1.7);
#40=CIRCLE('',#643,9.7);
#41=CIRCLE('',#644,8.);
#42=CIRCLE('',#645,17.7);
#43=CIRCLE('',#646,17.7);
#44=CIRCLE('',#647,17.7);
#45=CIRCLE('',#648,17.7);
#46=CIRCLE('',#649,9.7);
#47=CIRCLE('',#652,2.25);
#48=CIRCLE('',#654,1.8);
#49=CIRCLE('',#656,2.25);
#50=CIRCLE('',#658,1.8);
#51=CIRCLE('',#660,2.25);
#52=CIRCLE('',#662,1.8);
#53=CIRCLE('',#664,2.25);
#54=CIRCLE('',#666,1.8);
#55=CIRCLE('',#668,1.8);
#56=CIRCLE('',#670,1.8);
#57=CIRCLE('',#672,1.8);
#58=CIRCLE('',#674,1.8);
#59=CIRCLE('',#679,9.7);
#60=CIRCLE('',#681,7.7);
#61=CIRCLE('',#689,7.7);
#62=PLANE('',#636);
#63=PLANE('',#640);
#64=PLANE('',#653);
#65=PLANE('',#657);
#66=PLANE('',#661);
#67=PLANE('',#665);
#68=PLANE('',#675);
#69=PLANE('',#676);
#70=PLANE('',#677);
#71=PLANE('',#680);
#72=PLANE('',#682);
#73=PLANE('',#683);
#74=PLANE('',#684);
#75=PLANE('',#685);
#76=PLANE('',#686);
#77=PLANE('',#687);
#78=PLANE('',#690);
#79=FACE_OUTER_BOUND('',#112,.T.);
#80=FACE_OUTER_BOUND('',#113,.T.);
#81=FACE_OUTER_BOUND('',#114,.T.);
#82=FACE_OUTER_BOUND('',#115,.T.);
#83=FACE_OUTER_BOUND('',#116,.T.);
#84=FACE_OUTER_BOUND('',#117,.T.);
#85=FACE_OUTER_BOUND('',#119,.T.);
#86=FACE_OUTER_BOUND('',#124,.T.);
#87=FACE_OUTER_BOUND('',#125,.T.);
#88=FACE_OUTER_BOUND('',#126,.T.);
#89=FACE_OUTER_BOUND('',#128,.T.);
#90=FACE_OUTER_BOUND('',#129,.T.);
#91=FACE_OUTER_BOUND('',#131,.T.);
#92=FACE_OUTER_BOUND('',#132,.T.);
#93=FACE_OUTER_BOUND('',#134,.T.);
#94=FACE_OUTER_BOUND('',#135,.T.);
#95=FACE_OUTER_BOUND('',#137,.T.);
#96=FACE_OUTER_BOUND('',#138,.T.);
#97=FACE_OUTER_BOUND('',#139,.T.);
#98=FACE_OUTER_BOUND('',#140,.T.);
#99=FACE_OUTER_BOUND('',#141,.T.);
#100=FACE_OUTER_BOUND('',#142,.T.);
#101=FACE_OUTER_BOUND('',#143,.T.);
#102=FACE_OUTER_BOUND('',#144,.T.);
#103=FACE_OUTER_BOUND('',#148,.T.);
#104=FACE_OUTER_BOUND('',#149,.T.);
#105=FACE_OUTER_BOUND('',#150,.T.);
#106=FACE_OUTER_BOUND('',#151,.T.);
#107=FACE_OUTER_BOUND('',#152,.T.);
#108=FACE_OUTER_BOUND('',#153,.T.);
#109=FACE_OUTER_BOUND('',#154,.T.);
#110=FACE_OUTER_BOUND('',#159,.T.);
#111=FACE_OUTER_BOUND('',#164,.T.);
#112=EDGE_LOOP('',(#401,#402,#403,#404,#405,#406));
#113=EDGE_LOOP('',(#407,#408,#409,#410));
#114=EDGE_LOOP('',(#411,#412,#413,#414));
#115=EDGE_LOOP('',(#415,#416,#417));
#116=EDGE_LOOP('',(#418,#419,#420,#421,#422,#423,#424,#425,#426));
#117=EDGE_LOOP('',(#427));
#118=EDGE_LOOP('',(#428));
#119=EDGE_LOOP('',(#429,#430,#431,#432,#433,#434,#435,#436,#437,#438,#439,
#440,#441,#442,#443,#444,#445));
#120=EDGE_LOOP('',(#446,#447));
#121=EDGE_LOOP('',(#448,#449));
#122=EDGE_LOOP('',(#450,#451));
#123=EDGE_LOOP('',(#452,#453));
#124=EDGE_LOOP('',(#454,#455,#456,#457));
#125=EDGE_LOOP('',(#458,#459,#460,#461,#462));
#126=EDGE_LOOP('',(#463));
#127=EDGE_LOOP('',(#464));
#128=EDGE_LOOP('',(#465,#466,#467,#468,#469));
#129=EDGE_LOOP('',(#470));
#130=EDGE_LOOP('',(#471));
#131=EDGE_LOOP('',(#472,#473,#474,#475,#476));
#132=EDGE_LOOP('',(#477));
#133=EDGE_LOOP('',(#478));
#134=EDGE_LOOP('',(#479,#480,#481,#482,#483));
#135=EDGE_LOOP('',(#484));
#136=EDGE_LOOP('',(#485));
#137=EDGE_LOOP('',(#486,#487,#488,#489));
#138=EDGE_LOOP('',(#490,#491,#492,#493));
#139=EDGE_LOOP('',(#494,#495,#496,#497));
#140=EDGE_LOOP('',(#498,#499,#500,#501));
#141=EDGE_LOOP('',(#502,#503,#504));
#142=EDGE_LOOP('',(#505,#506,#507));
#143=EDGE_LOOP('',(#508,#509,#510));
#144=EDGE_LOOP('',(#511,#512,#513,#514,#515,#516,#517,#518));
#145=EDGE_LOOP('',(#519));
#146=EDGE_LOOP('',(#520,#521,#522));
#147=EDGE_LOOP('',(#523));
#148=EDGE_LOOP('',(#524));
#149=EDGE_LOOP('',(#525,#526,#527));
#150=EDGE_LOOP('',(#528,#529,#530,#531,#532,#533));
#151=EDGE_LOOP('',(#534,#535,#536,#537,#538,#539));
#152=EDGE_LOOP('',(#540,#541,#542,#543,#544,#545,#546));
#153=EDGE_LOOP('',(#547,#548,#549,#550,#551,#552));
#154=EDGE_LOOP('',(#553,#554,#555,#556));
#155=EDGE_LOOP('',(#557));
#156=EDGE_LOOP('',(#558));
#157=EDGE_LOOP('',(#559));
#158=EDGE_LOOP('',(#560));
#159=EDGE_LOOP('',(#561,#562,#563,#564));
#160=EDGE_LOOP('',(#565));
#161=EDGE_LOOP('',(#566));
#162=EDGE_LOOP('',(#567));
#163=EDGE_LOOP('',(#568));
#164=EDGE_LOOP('',(#569));
#165=EDGE_LOOP('',(#570));
#166=LINE('',#874,#197);
#167=LINE('',#956,#198);
#168=LINE('',#1028,#199);
#169=LINE('',#1113,#200);
#170=LINE('',#1401,#201);
#171=LINE('',#1438,#202);
#172=LINE('',#1445,#203);
#173=LINE('',#1452,#204);
#174=LINE('',#1459,#205);
#175=LINE('',#1467,#206);
#176=LINE('',#1471,#207);
#177=LINE('',#1475,#208);
#178=LINE('',#1479,#209);
#179=LINE('',#1482,#210);
#180=LINE('',#1483,#211);
#181=LINE('',#1486,#212);
#182=LINE('',#1487,#213);
#183=LINE('',#1490,#214);
#184=LINE('',#1491,#215);
#185=LINE('',#1495,#216);
#186=LINE('',#1501,#217);
#187=LINE('',#1502,#218);
#188=LINE('',#1505,#219);
#189=LINE('',#1507,#220);
#190=LINE('',#1508,#221);
#191=LINE('',#1511,#222);
#192=LINE('',#1512,#223);
#193=LINE('',#1515,#224);
#194=LINE('',#1516,#225);
#195=LINE('',#1518,#226);
#196=LINE('',#1523,#227);
#197=VECTOR('',#695,1.7);
#198=VECTOR('',#698,1.7);
#199=VECTOR('',#701,1.7);
#200=VECTOR('',#708,2.25);
#201=VECTOR('',#733,1.7);
#202=VECTOR('',#736,2.25);
#203=VECTOR('',#745,2.25);
#204=VECTOR('',#754,2.25);
#205=VECTOR('',#763,2.25);
#206=VECTOR('',#774,1.8);
#207=VECTOR('',#779,1.8);
#208=VECTOR('',#784,1.8);
#209=VECTOR('',#789,1.8);
#210=VECTOR('',#792,10.);
#211=VECTOR('',#793,10.);
#212=VECTOR('',#796,10.);
#213=VECTOR('',#797,10.);
#214=VECTOR('',#800,10.);
#215=VECTOR('',#801,10.);
#216=VECTOR('',#806,9.7);
#217=VECTOR('',#813,10.);
#218=VECTOR('',#814,10.);
#219=VECTOR('',#817,10.);
#220=VECTOR('',#818,10.);
#221=VECTOR('',#819,10.);
#222=VECTOR('',#822,10.);
#223=VECTOR('',#823,10.);
#224=VECTOR('',#826,10.);
#225=VECTOR('',#827,10.);
#226=VECTOR('',#830,10.);
#227=VECTOR('',#837,7.7);
#228=B_SPLINE_CURVE_WITH_KNOTS('',3,(#844,#845,#846,#847,#848,#849,#850,
#851,#852,#853,#854,#855,#856,#857,#858,#859,#860,#861),.UNSPECIFIED.,.F.,
 .F.,(4,2,2,2,2,2,2,2,4),(0.256717642500033,0.320896002232725,0.385074361965417,
0.449254823482742,0.513435285000067,0.577615746517392,0.641796208034717,
0.705974567767408,0.7701529275001),.UNSPECIFIED.);
#229=B_SPLINE_CURVE_WITH_KNOTS('',3,(#863,#864,#865,#866,#867,#868,#869,
#870,#871,#872),.UNSPECIFIED.,.F.,.F.,(4,2,2,2,4),(1.02687057000013,1.09105103151746,
1.15523149303478,1.21940985276747,1.28358821250017),.UNSPECIFIED.);
#230=B_SPLINE_CURVE_WITH_KNOTS('',3,(#875,#876,#877,#878,#879,#880,#881,
#882,#883,#884,#885,#886,#887,#888,#889,#890,#891,#892,#893,#894,#895,#896,
#897,#898,#899,#900,#901,#902,#903,#904,#905,#906,#907,#908),
 .UNSPECIFIED.,.T.,.F.,(4,2,2,2,2,2,2,2,2,2,2,2,2,2,2,2,4),(0.,0.0642678856122451,
0.12853577122449,0.19279826392953,0.25706075663457,0.321323249339609,0.385585742044649,
0.449853627656894,0.514121513269139,0.578389398881385,0.64265728449363,
0.706919777198669,0.771182269903709,0.835444762608749,0.899707255313789,
0.963975140926034,1.02824302653828),.UNSPECIFIED.);
#231=B_SPLINE_CURVE_WITH_KNOTS('',3,(#909,#910,#911,#912,#913,#914,#915,
#916,#917,#918),.UNSPECIFIED.,.F.,.F.,(4,2,2,2,4),(0.7701529275001,0.834331287232792,
0.898509646965483,0.962690108482808,1.02687057000013),.UNSPECIFIED.);
#232=B_SPLINE_CURVE_WITH_KNOTS('',3,(#921,#922,#923,#924,#925,#926,#927,
#928,#929,#930,#931,#932,#933,#934,#935,#936,#937,#938,#939,#940,#941,#942,
#943,#944,#945,#946,#947,#948,#949,#950,#951,#952,#953,#954),
 .UNSPECIFIED.,.T.,.F.,(4,2,2,2,2,2,2,2,2,2,2,2,2,2,2,2,4),(0.,0.0642678856122451,
0.12853577122449,0.19279826392953,0.25706075663457,0.321323249339609,0.385585742044649,
0.449853627656894,0.514121513269139,0.578389398881385,0.64265728449363,
0.706919777198669,0.771182269903709,0.835444762608749,0.899707255313789,
0.963975140926034,1.02824302653828),.UNSPECIFIED.);
#233=B_SPLINE_CURVE_WITH_KNOTS('',3,(#957,#958,#959,#960,#961,#962,#963,
#964,#965,#966,#967,#968,#969,#970,#971,#972,#973,#974,#975,#976,#977,#978,
#979,#980,#981,#982,#983,#984,#985,#986,#987,#988,#989,#990),
 .UNSPECIFIED.,.T.,.F.,(4,2,2,2,2,2,2,2,2,2,2,2,2,2,2,2,4),(0.,0.064180461517325,
0.12836092303465,0.192539282767342,0.256717642500033,0.320896002232725,
0.385074361965417,0.449254823482742,0.513435285000067,0.577615746517392,
0.641796208034717,0.705974567767408,0.7701529275001,0.834331287232792,0.898509646965484,
0.962690108482809,1.02687057000013),.UNSPECIFIED.);
#234=B_SPLINE_CURVE_WITH_KNOTS('',3,(#993,#994,#995,#996,#997,#998,#999,
#1000,#1001,#1002,#1003,#1004,#1005,#1006,#1007,#1008,#1009,#1010,#1011,
#1012,#1013,#1014,#1015,#1016,#1017,#1018,#1019,#1020,#1021,#1022,#1023,
#1024,#1025,#1026),.UNSPECIFIED.,.T.,.F.,(4,2,2,2,2,2,2,2,2,2,2,2,2,2,2,
2,4),(0.,0.0642678856122451,0.12853577122449,0.19279826392953,0.25706075663457,
0.32132324933961,0.38558574204465,0.449853627656895,0.51412151326914,0.578389398881385,
0.64265728449363,0.70691977719867,0.77118226990371,0.83544476260875,0.89970725531379,
0.963975140926035,1.02824302653828),.UNSPECIFIED.);
#235=B_SPLINE_CURVE_WITH_KNOTS('',3,(#1029,#1030,#1031,#1032,#1033,#1034,
#1035,#1036,#1037,#1038,#1039,#1040,#1041,#1042,#1043,#1044,#1045,#1046,
#1047,#1048,#1049,#1050,#1051,#1052,#1053,#1054,#1055,#1056,#1057,#1058,
#1059,#1060,#1061,#1062),.UNSPECIFIED.,.T.,.F.,(4,2,2,2,2,2,2,2,2,2,2,2,
2,2,2,2,4),(0.,0.064180461517325,0.12836092303465,0.192539282767342,0.256717642500034,
0.320896002232725,0.385074361965417,0.449254823482742,0.513435285000067,
0.577615746517392,0.641796208034717,0.705974567767409,0.770152927500101,
0.834331287232793,0.898509646965485,0.962690108482809,1.02687057000013),
 .UNSPECIFIED.);
#236=B_SPLINE_CURVE_WITH_KNOTS('',3,(#1066,#1067,#1068,#1069),
 .UNSPECIFIED.,.F.,.F.,(4,4),(5.74370278202311,5.77843206175184),
 .UNSPECIFIED.);
#237=B_SPLINE_CURVE_WITH_KNOTS('',3,(#1072,#1073,#1074,#1075),
 .UNSPECIFIED.,.F.,.F.,(4,4),(0.,0.0347292797287276),.UNSPECIFIED.);
#238=B_SPLINE_CURVE_WITH_KNOTS('',3,(#1078,#1079,#1080,#1081,#1082,#1083),
 .UNSPECIFIED.,.F.,.F.,(4,2,4),(-0.0814093486648731,-0.032649698416921,
0.),.UNSPECIFIED.);
#239=B_SPLINE_CURVE_WITH_KNOTS('',3,(#1085,#1086,#1087,#1088,#1089,#1090,
#1091,#1092,#1093,#1094,#1095,#1096,#1097,#1098,#1099,#1100),
 .UNSPECIFIED.,.F.,.F.,(4,2,2,2,2,2,2,4),(0.340356455265684,0.425441197537354,
0.510525939809023,0.595619425170196,0.680712910531368,0.765806395892539,
0.850899881253711,0.91841636139294),.UNSPECIFIED.);
#240=B_SPLINE_CURVE_WITH_KNOTS('',3,(#1102,#1103,#1104,#1105,#1106,#1107,
#1108,#1109,#1110,#1111),.UNSPECIFIED.,.F.,.F.,(4,2,2,2,4),(0.,0.0850934853611723,
0.170186970722345,0.255271712994014,0.340356455265684),.UNSPECIFIED.);
#241=B_SPLINE_CURVE_WITH_KNOTS('',3,(#1116,#1117,#1118,#1119,#1120,#1121,
#1122,#1123),.UNSPECIFIED.,.F.,.F.,(4,2,2,4),(-0.237703450841229,-0.170186970722344,
-0.0850934853611722,0.),.UNSPECIFIED.);
#242=B_SPLINE_CURVE_WITH_KNOTS('',3,(#1124,#1125,#1126,#1127),
 .UNSPECIFIED.,.F.,.F.,(4,4),(-0.0815085340908106,0.),.UNSPECIFIED.);
#243=B_SPLINE_CURVE_WITH_KNOTS('',3,(#1137,#1138,#1139,#1140,#1141,#1142,
#1143,#1144),.UNSPECIFIED.,.F.,.F.,(4,2,2,4),(4.7074911545213,5.0107069806989,
5.3139228068765,5.59004497497864),.UNSPECIFIED.);
#244=B_SPLINE_CURVE_WITH_KNOTS('',3,(#1148,#1149,#1150,#1151,#1152,#1153,
#1154,#1155,#1156,#1157,#1158,#1159,#1160,#1161),.UNSPECIFIED.,.F.,.F.,
(4,2,2,2,2,2,4),(3.82493733406395,4.10105950216609,4.40427532834369,4.7074911545213,
5.0107069806989,5.3139228068765,5.59004497497864),.UNSPECIFIED.);
#245=B_SPLINE_CURVE_WITH_KNOTS('',3,(#1165,#1166,#1167,#1168,#1169,#1170,
#1171,#1172,#1173,#1174,#1175,#1176,#1177,#1178),.UNSPECIFIED.,.F.,.F.,
(4,2,2,2,2,2,4),(3.82493733406395,4.10105950216609,4.40427532834369,4.7074911545213,
5.0107069806989,5.3139228068765,5.59004497497864),.UNSPECIFIED.);
#246=B_SPLINE_CURVE_WITH_KNOTS('',3,(#1182,#1183,#1184,#1185,#1186,#1187,
#1188,#1189,#1190,#1191,#1192,#1193,#1194,#1195),.UNSPECIFIED.,.F.,.F.,
(4,2,2,2,2,2,4),(3.82493733406395,4.10105950216609,4.40427532834369,4.7074911545213,
5.0107069806989,5.3139228068765,5.59004497497864),.UNSPECIFIED.);
#247=B_SPLINE_CURVE_WITH_KNOTS('',3,(#1198,#1199,#1200,#1201,#1202,#1203,
#1204,#1205),.UNSPECIFIED.,.F.,.F.,(4,2,2,4),(3.82493733406395,4.10105950216609,
4.40427532834369,4.7074911545213),.UNSPECIFIED.);
#248=B_SPLINE_CURVE_WITH_KNOTS('',3,(#1209,#1210,#1211,#1212,#1213,#1214,
#1215,#1216),.UNSPECIFIED.,.F.,.F.,(4,2,2,4),(-1.56033451109238,-1.47255114307552,
-1.39007098872751,-1.38245966699051),.UNSPECIFIED.);
#249=B_SPLINE_CURVE_WITH_KNOTS('',3,(#1217,#1218,#1219,#1220,#1221,#1222,
#1223,#1224,#1225,#1226,#1227,#1228,#1229,#1230,#1231,#1232,#1233,#1234,
#1235,#1236,#1237,#1238,#1239,#1240,#1241,#1242,#1243,#1244,#1245,#1246,
#1247,#1248,#1249,#1250,#1251,#1252,#1253,#1254),.UNSPECIFIED.,.F.,.F.,
(4,2,2,2,2,2,2,2,2,2,2,2,2,2,2,2,2,2,4),(-1.38245966699051,-1.30858132315072,
-1.2286663125373,-1.16811882069865,-1.11024968842621,-1.04026629738175,
-0.939888023543806,-0.853125683449788,-0.789482285668918,-0.724920227798226,
-0.637194534553434,-0.528142740192395,-0.456101556366731,-0.397946055578648,
-0.33867766250693,-0.264428388731538,-0.175982068578897,-0.088004273701395,
0.),.UNSPECIFIED.);
#250=B_SPLINE_CURVE_WITH_KNOTS('',3,(#1257,#1258,#1259,#1260,#1261,#1262,
#1263,#1264,#1265,#1266,#1267,#1268,#1269,#1270,#1271,#1272,#1273,#1274,
#1275,#1276,#1277,#1278,#1279,#1280,#1281,#1282,#1283,#1284),
 .UNSPECIFIED.,.F.,.F.,(4,2,2,2,2,2,2,2,2,2,2,2,2,4),(-1.56033451109255,
-1.47255114307568,-1.39007098872767,-1.30858132315088,-1.22866631253747,
-1.16811882069883,-1.11024968842641,-1.04026629738196,-0.939888023543995,
-0.853125683449932,-0.789482285669062,-0.724920227798379,-0.637194534553574,
-0.567938609098896),.UNSPECIFIED.);
#251=B_SPLINE_CURVE_WITH_KNOTS('',3,(#1285,#1286,#1287,#1288,#1289,#1290,
#1291,#1292,#1293,#1294,#1295,#1296,#1297,#1298,#1299,#1300,#1301,#1302),
 .UNSPECIFIED.,.F.,.F.,(4,2,2,2,2,2,2,2,4),(-0.567938609098896,-0.528142740192502,
-0.456101556366804,-0.397946055578684,-0.338677662506956,-0.264428388731561,
-0.175982068578909,-0.0880042737013989,0.),.UNSPECIFIED.);
#252=B_SPLINE_CURVE_WITH_KNOTS('',3,(#1305,#1306,#1307,#1308,#1309,#1310,
#1311,#1312,#1313,#1314,#1315,#1316,#1317,#1318,#1319,#1320,#1321,#1322,
#1323,#1324,#1325,#1326,#1327,#1328,#1329,#1330,#1331,#1332,#1333,#1334,
#1335,#1336,#1337,#1338,#1339,#1340,#1341,#1342),.UNSPECIFIED.,.F.,.F.,
(4,2,2,2,2,2,2,2,2,2,2,2,2,2,2,2,2,2,4),(-1.56033451109275,-1.47255114307589,
-1.39007098872789,-1.30858132315112,-1.22866631253772,-1.16811882069909,
-1.11024968842669,-1.04026629738228,-0.939888023544302,-0.853125683450163,
-0.78948228566923,-0.724920227798489,-0.637194534553632,-0.528142740192524,
-0.456101556366821,-0.397946055578704,-0.338677662506968,-0.264428388731562,
-0.177815864810492),.UNSPECIFIED.);
#253=B_SPLINE_CURVE_WITH_KNOTS('',3,(#1343,#1344,#1345,#1346,#1347,#1348,
#1349,#1350),.UNSPECIFIED.,.F.,.F.,(4,2,2,4),(-0.177815864810492,-0.17598206857891,
-0.0880042737014003,0.),.UNSPECIFIED.);
#254=B_SPLINE_CURVE_WITH_KNOTS('',3,(#1353,#1354,#1355,#1356,#1357,#1358,
#1359,#1360,#1361,#1362,#1363,#1364,#1365,#1366,#1367,#1368,#1369,#1370),
 .UNSPECIFIED.,.F.,.F.,(4,2,2,2,2,2,2,2,4),(-1.56033451109262,-1.47255114307576,
-1.39007098872775,-1.30858132315097,-1.22866631253754,-1.1681188206989,
-1.11024968842645,-1.04026629738197,-0.990341655544627),.UNSPECIFIED.);
#255=B_SPLINE_CURVE_WITH_KNOTS('',3,(#1371,#1372,#1373,#1374,#1375,#1376,
#1377,#1378,#1379,#1380,#1381,#1382,#1383,#1384,#1385,#1386,#1387,#1388,
#1389,#1390,#1391,#1392,#1393,#1394,#1395,#1396,#1397,#1398),
 .UNSPECIFIED.,.F.,.F.,(4,2,2,2,2,2,2,2,2,2,2,2,2,4),(-0.990341655544627,
-0.939888023543979,-0.85312568344989,-0.789482285668986,-0.72492022779827,
-0.637194534553445,-0.528142740192388,-0.456101556366724,-0.397946055578634,
-0.338677662506923,-0.264428388731538,-0.175982068578896,-0.0880042737013942,
0.),.UNSPECIFIED.);
#256=B_SPLINE_CURVE_WITH_KNOTS('',3,(#1402,#1403,#1404,#1405,#1406,#1407,
#1408,#1409,#1410,#1411,#1412,#1413,#1414,#1415,#1416,#1417,#1418,#1419,
#1420,#1421,#1422,#1423,#1424,#1425,#1426,#1427,#1428,#1429,#1430,#1431,
#1432,#1433,#1434,#1435),.UNSPECIFIED.,.T.,.F.,(4,2,2,2,2,2,2,2,2,2,2,2,
2,2,2,2,4),(0.,0.0642678856122451,0.12853577122449,0.19279826392953,0.25706075663457,
0.32132324933961,0.38558574204465,0.449853627656895,0.51412151326914,0.578389398881385,
0.64265728449363,0.70691977719867,0.77118226990371,0.83544476260875,0.89970725531379,
0.963975140926035,1.02824302653828),.UNSPECIFIED.);
#257=VERTEX_POINT('',#842);
#258=VERTEX_POINT('',#843);
#259=VERTEX_POINT('',#862);
#260=VERTEX_POINT('',#873);
#261=VERTEX_POINT('',#920);
#262=VERTEX_POINT('',#955);
#263=VERTEX_POINT('',#992);
#264=VERTEX_POINT('',#1027);
#265=VERTEX_POINT('',#1064);
#266=VERTEX_POINT('',#1065);
#267=VERTEX_POINT('',#1070);
#268=VERTEX_POINT('',#1077);
#269=VERTEX_POINT('',#1084);
#270=VERTEX_POINT('',#1101);
#271=VERTEX_POINT('',#1112);
#272=VERTEX_POINT('',#1115);
#273=VERTEX_POINT('',#1129);
#274=VERTEX_POINT('',#1132);
#275=VERTEX_POINT('',#1134);
#276=VERTEX_POINT('',#1136);
#277=VERTEX_POINT('',#1145);
#278=VERTEX_POINT('',#1147);
#279=VERTEX_POINT('',#1162);
#280=VERTEX_POINT('',#1164);
#281=VERTEX_POINT('',#1179);
#282=VERTEX_POINT('',#1181);
#283=VERTEX_POINT('',#1196);
#284=VERTEX_POINT('',#1207);
#285=VERTEX_POINT('',#1208);
#286=VERTEX_POINT('',#1255);
#287=VERTEX_POINT('',#1256);
#288=VERTEX_POINT('',#1303);
#289=VERTEX_POINT('',#1304);
#290=VERTEX_POINT('',#1351);
#291=VERTEX_POINT('',#1352);
#292=VERTEX_POINT('',#1400);
#293=VERTEX_POINT('',#1437);
#294=VERTEX_POINT('',#1441);
#295=VERTEX_POINT('',#1444);
#296=VERTEX_POINT('',#1448);
#297=VERTEX_POINT('',#1451);
#298=VERTEX_POINT('',#1455);
#299=VERTEX_POINT('',#1458);
#300=VERTEX_POINT('',#1462);
#301=VERTEX_POINT('',#1465);
#302=VERTEX_POINT('',#1469);
#303=VERTEX_POINT('',#1473);
#304=VERTEX_POINT('',#1477);
#305=VERTEX_POINT('',#1481);
#306=VERTEX_POINT('',#1485);
#307=VERTEX_POINT('',#1489);
#308=VERTEX_POINT('',#1493);
#309=VERTEX_POINT('',#1497);
#310=VERTEX_POINT('',#1500);
#311=VERTEX_POINT('',#1504);
#312=VERTEX_POINT('',#1506);
#313=VERTEX_POINT('',#1510);
#314=VERTEX_POINT('',#1514);
#315=VERTEX_POINT('',#1521);
#316=EDGE_CURVE('',#257,#258,#228,.T.);
#317=EDGE_CURVE('',#259,#257,#229,.T.);
#318=EDGE_CURVE('',#259,#260,#166,.T.);
#319=EDGE_CURVE('',#260,#260,#230,.T.);
#320=EDGE_CURVE('',#258,#259,#231,.T.);
#321=EDGE_CURVE('',#261,#261,#232,.T.);
#322=EDGE_CURVE('',#261,#262,#167,.T.);
#323=EDGE_CURVE('',#262,#262,#233,.T.);
#324=EDGE_CURVE('',#263,#263,#234,.T.);
#325=EDGE_CURVE('',#263,#264,#168,.T.);
#326=EDGE_CURVE('',#264,#264,#235,.T.);
#327=EDGE_CURVE('',#265,#266,#236,.T.);
#328=EDGE_CURVE('',#267,#265,#37,.T.);
#329=EDGE_CURVE('',#266,#267,#237,.T.);
#330=EDGE_CURVE('',#268,#265,#238,.T.);
#331=EDGE_CURVE('',#269,#268,#239,.T.);
#332=EDGE_CURVE('',#270,#269,#240,.T.);
#333=EDGE_CURVE('',#270,#271,#169,.T.);
#334=EDGE_CURVE('',#271,#271,#38,.T.);
#335=EDGE_CURVE('',#272,#270,#241,.T.);
#336=EDGE_CURVE('',#267,#272,#242,.T.);
#337=EDGE_CURVE('',#273,#273,#39,.T.);
#338=EDGE_CURVE('',#272,#274,#40,.T.);
#339=EDGE_CURVE('',#274,#275,#41,.T.);
#340=EDGE_CURVE('',#276,#275,#243,.F.);
#341=EDGE_CURVE('',#276,#277,#42,.T.);
#342=EDGE_CURVE('',#278,#277,#244,.F.);
#343=EDGE_CURVE('',#278,#279,#43,.T.);
#344=EDGE_CURVE('',#280,#279,#245,.F.);
#345=EDGE_CURVE('',#280,#281,#44,.T.);
#346=EDGE_CURVE('',#282,#281,#246,.F.);
#347=EDGE_CURVE('',#282,#283,#45,.T.);
#348=EDGE_CURVE('',#275,#283,#247,.F.);
#349=EDGE_CURVE('',#274,#268,#46,.T.);
#350=EDGE_CURVE('',#284,#285,#248,.T.);
#351=EDGE_CURVE('',#285,#284,#249,.T.);
#352=EDGE_CURVE('',#286,#287,#250,.T.);
#353=EDGE_CURVE('',#287,#286,#251,.T.);
#354=EDGE_CURVE('',#288,#289,#252,.T.);
#355=EDGE_CURVE('',#289,#288,#253,.T.);
#356=EDGE_CURVE('',#290,#291,#254,.T.);
#357=EDGE_CURVE('',#291,#290,#255,.T.);
#358=EDGE_CURVE('',#273,#292,#170,.T.);
#359=EDGE_CURVE('',#292,#292,#256,.T.);
#360=EDGE_CURVE('',#285,#293,#171,.T.);
#361=EDGE_CURVE('',#293,#293,#47,.T.);
#362=EDGE_CURVE('',#294,#294,#48,.T.);
#363=EDGE_CURVE('',#287,#295,#172,.T.);
#364=EDGE_CURVE('',#295,#295,#49,.T.);
#365=EDGE_CURVE('',#296,#296,#50,.T.);
#366=EDGE_CURVE('',#289,#297,#173,.T.);
#367=EDGE_CURVE('',#297,#297,#51,.T.);
#368=EDGE_CURVE('',#298,#298,#52,.T.);
#369=EDGE_CURVE('',#291,#299,#174,.T.);
#370=EDGE_CURVE('',#299,#299,#53,.T.);
#371=EDGE_CURVE('',#300,#300,#54,.T.);
#372=EDGE_CURVE('',#301,#301,#55,.T.);
#373=EDGE_CURVE('',#301,#294,#175,.T.);
#374=EDGE_CURVE('',#302,#302,#56,.T.);
#375=EDGE_CURVE('',#302,#298,#176,.T.);
#376=EDGE_CURVE('',#303,#303,#57,.T.);
#377=EDGE_CURVE('',#303,#300,#177,.T.);
#378=EDGE_CURVE('',#304,#304,#58,.T.);
#379=EDGE_CURVE('',#304,#296,#178,.T.);
#380=EDGE_CURVE('',#278,#305,#179,.T.);
#381=EDGE_CURVE('',#305,#279,#180,.T.);
#382=EDGE_CURVE('',#276,#306,#181,.T.);
#383=EDGE_CURVE('',#306,#277,#182,.T.);
#384=EDGE_CURVE('',#282,#307,#183,.T.);
#385=EDGE_CURVE('',#307,#283,#184,.T.);
#386=EDGE_CURVE('',#308,#308,#59,.F.);
#387=EDGE_CURVE('',#308,#274,#185,.T.);
#388=EDGE_CURVE('',#309,#309,#60,.T.);
#389=EDGE_CURVE('',#280,#310,#186,.T.);
#390=EDGE_CURVE('',#310,#281,#187,.T.);
#391=EDGE_CURVE('',#305,#311,#188,.T.);
#392=EDGE_CURVE('',#312,#311,#189,.T.);
#393=EDGE_CURVE('',#310,#312,#190,.T.);
#394=EDGE_CURVE('',#313,#312,#191,.T.);
#395=EDGE_CURVE('',#307,#313,#192,.T.);
#396=EDGE_CURVE('',#314,#313,#193,.T.);
#397=EDGE_CURVE('',#306,#314,#194,.T.);
#398=EDGE_CURVE('',#311,#314,#195,.T.);
#399=EDGE_CURVE('',#315,#315,#61,.F.);
#400=EDGE_CURVE('',#315,#309,#196,.T.);
#401=ORIENTED_EDGE('',*,*,#316,.F.);
#402=ORIENTED_EDGE('',*,*,#317,.F.);
#403=ORIENTED_EDGE('',*,*,#318,.T.);
#404=ORIENTED_EDGE('',*,*,#319,.F.);
#405=ORIENTED_EDGE('',*,*,#318,.F.);
#406=ORIENTED_EDGE('',*,*,#320,.F.);
#407=ORIENTED_EDGE('',*,*,#321,.F.);
#408=ORIENTED_EDGE('',*,*,#322,.T.);
#409=ORIENTED_EDGE('',*,*,#323,.F.);
#410=ORIENTED_EDGE('',*,*,#322,.F.);
#411=ORIENTED_EDGE('',*,*,#324,.F.);
#412=ORIENTED_EDGE('',*,*,#325,.T.);
#413=ORIENTED_EDGE('',*,*,#326,.F.);
#414=ORIENTED_EDGE('',*,*,#325,.F.);
#415=ORIENTED_EDGE('',*,*,#327,.F.);
#416=ORIENTED_EDGE('',*,*,#328,.F.);
#417=ORIENTED_EDGE('',*,*,#329,.F.);
#418=ORIENTED_EDGE('',*,*,#330,.F.);
#419=ORIENTED_EDGE('',*,*,#331,.F.);
#420=ORIENTED_EDGE('',*,*,#332,.F.);
#421=ORIENTED_EDGE('',*,*,#333,.T.);
#422=ORIENTED_EDGE('',*,*,#334,.T.);
#423=ORIENTED_EDGE('',*,*,#333,.F.);
#424=ORIENTED_EDGE('',*,*,#335,.F.);
#425=ORIENTED_EDGE('',*,*,#336,.F.);
#426=ORIENTED_EDGE('',*,*,#328,.T.);
#427=ORIENTED_EDGE('',*,*,#334,.F.);
#428=ORIENTED_EDGE('',*,*,#337,.F.);
#429=ORIENTED_EDGE('',*,*,#330,.T.);
#430=ORIENTED_EDGE('',*,*,#327,.T.);
#431=ORIENTED_EDGE('',*,*,#329,.T.);
#432=ORIENTED_EDGE('',*,*,#336,.T.);
#433=ORIENTED_EDGE('',*,*,#338,.T.);
#434=ORIENTED_EDGE('',*,*,#339,.T.);
#435=ORIENTED_EDGE('',*,*,#340,.F.);
#436=ORIENTED_EDGE('',*,*,#341,.T.);
#437=ORIENTED_EDGE('',*,*,#342,.F.);
#438=ORIENTED_EDGE('',*,*,#343,.T.);
#439=ORIENTED_EDGE('',*,*,#344,.F.);
#440=ORIENTED_EDGE('',*,*,#345,.T.);
#441=ORIENTED_EDGE('',*,*,#346,.F.);
#442=ORIENTED_EDGE('',*,*,#347,.T.);
#443=ORIENTED_EDGE('',*,*,#348,.F.);
#444=ORIENTED_EDGE('',*,*,#339,.F.);
#445=ORIENTED_EDGE('',*,*,#349,.T.);
#446=ORIENTED_EDGE('',*,*,#350,.T.);
#447=ORIENTED_EDGE('',*,*,#351,.T.);
#448=ORIENTED_EDGE('',*,*,#352,.T.);
#449=ORIENTED_EDGE('',*,*,#353,.T.);
#450=ORIENTED_EDGE('',*,*,#354,.T.);
#451=ORIENTED_EDGE('',*,*,#355,.T.);
#452=ORIENTED_EDGE('',*,*,#356,.T.);
#453=ORIENTED_EDGE('',*,*,#357,.T.);
#454=ORIENTED_EDGE('',*,*,#337,.T.);
#455=ORIENTED_EDGE('',*,*,#358,.T.);
#456=ORIENTED_EDGE('',*,*,#359,.F.);
#457=ORIENTED_EDGE('',*,*,#358,.F.);
#458=ORIENTED_EDGE('',*,*,#350,.F.);
#459=ORIENTED_EDGE('',*,*,#351,.F.);
#460=ORIENTED_EDGE('',*,*,#360,.T.);
#461=ORIENTED_EDGE('',*,*,#361,.T.);
#462=ORIENTED_EDGE('',*,*,#360,.F.);
#463=ORIENTED_EDGE('',*,*,#361,.F.);
#464=ORIENTED_EDGE('',*,*,#362,.F.);
#465=ORIENTED_EDGE('',*,*,#352,.F.);
#466=ORIENTED_EDGE('',*,*,#353,.F.);
#467=ORIENTED_EDGE('',*,*,#363,.T.);
#468=ORIENTED_EDGE('',*,*,#364,.T.);
#469=ORIENTED_EDGE('',*,*,#363,.F.);
#470=ORIENTED_EDGE('',*,*,#364,.F.);
#471=ORIENTED_EDGE('',*,*,#365,.F.);
#472=ORIENTED_EDGE('',*,*,#354,.F.);
#473=ORIENTED_EDGE('',*,*,#355,.F.);
#474=ORIENTED_EDGE('',*,*,#366,.T.);
#475=ORIENTED_EDGE('',*,*,#367,.T.);
#476=ORIENTED_EDGE('',*,*,#366,.F.);
#477=ORIENTED_EDGE('',*,*,#367,.F.);
#478=ORIENTED_EDGE('',*,*,#368,.F.);
#479=ORIENTED_EDGE('',*,*,#356,.F.);
#480=ORIENTED_EDGE('',*,*,#357,.F.);
#481=ORIENTED_EDGE('',*,*,#369,.T.);
#482=ORIENTED_EDGE('',*,*,#370,.T.);
#483=ORIENTED_EDGE('',*,*,#369,.F.);
#484=ORIENTED_EDGE('',*,*,#370,.F.);
#485=ORIENTED_EDGE('',*,*,#371,.F.);
#486=ORIENTED_EDGE('',*,*,#372,.F.);
#487=ORIENTED_EDGE('',*,*,#373,.T.);
#488=ORIENTED_EDGE('',*,*,#362,.T.);
#489=ORIENTED_EDGE('',*,*,#373,.F.);
#490=ORIENTED_EDGE('',*,*,#374,.F.);
#491=ORIENTED_EDGE('',*,*,#375,.T.);
#492=ORIENTED_EDGE('',*,*,#368,.T.);
#493=ORIENTED_EDGE('',*,*,#375,.F.);
#494=ORIENTED_EDGE('',*,*,#376,.F.);
#495=ORIENTED_EDGE('',*,*,#377,.T.);
#496=ORIENTED_EDGE('',*,*,#371,.T.);
#497=ORIENTED_EDGE('',*,*,#377,.F.);
#498=ORIENTED_EDGE('',*,*,#378,.F.);
#499=ORIENTED_EDGE('',*,*,#379,.T.);
#500=ORIENTED_EDGE('',*,*,#365,.T.);
#501=ORIENTED_EDGE('',*,*,#379,.F.);
#502=ORIENTED_EDGE('',*,*,#343,.F.);
#503=ORIENTED_EDGE('',*,*,#380,.T.);
#504=ORIENTED_EDGE('',*,*,#381,.T.);
#505=ORIENTED_EDGE('',*,*,#341,.F.);
#506=ORIENTED_EDGE('',*,*,#382,.T.);
#507=ORIENTED_EDGE('',*,*,#383,.T.);
#508=ORIENTED_EDGE('',*,*,#347,.F.);
#509=ORIENTED_EDGE('',*,*,#384,.T.);
#510=ORIENTED_EDGE('',*,*,#385,.T.);
#511=ORIENTED_EDGE('',*,*,#386,.F.);
#512=ORIENTED_EDGE('',*,*,#387,.T.);
#513=ORIENTED_EDGE('',*,*,#338,.F.);
#514=ORIENTED_EDGE('',*,*,#335,.T.);
#515=ORIENTED_EDGE('',*,*,#332,.T.);
#516=ORIENTED_EDGE('',*,*,#331,.T.);
#517=ORIENTED_EDGE('',*,*,#349,.F.);
#518=ORIENTED_EDGE('',*,*,#387,.F.);
#519=ORIENTED_EDGE('',*,*,#323,.T.);
#520=ORIENTED_EDGE('',*,*,#316,.T.);
#521=ORIENTED_EDGE('',*,*,#320,.T.);
#522=ORIENTED_EDGE('',*,*,#317,.T.);
#523=ORIENTED_EDGE('',*,*,#326,.T.);
#524=ORIENTED_EDGE('',*,*,#388,.T.);
#525=ORIENTED_EDGE('',*,*,#345,.F.);
#526=ORIENTED_EDGE('',*,*,#389,.T.);
#527=ORIENTED_EDGE('',*,*,#390,.T.);
#528=ORIENTED_EDGE('',*,*,#381,.F.);
#529=ORIENTED_EDGE('',*,*,#391,.T.);
#530=ORIENTED_EDGE('',*,*,#392,.F.);
#531=ORIENTED_EDGE('',*,*,#393,.F.);
#532=ORIENTED_EDGE('',*,*,#389,.F.);
#533=ORIENTED_EDGE('',*,*,#344,.T.);
#534=ORIENTED_EDGE('',*,*,#390,.F.);
#535=ORIENTED_EDGE('',*,*,#393,.T.);
#536=ORIENTED_EDGE('',*,*,#394,.F.);
#537=ORIENTED_EDGE('',*,*,#395,.F.);
#538=ORIENTED_EDGE('',*,*,#384,.F.);
#539=ORIENTED_EDGE('',*,*,#346,.T.);
#540=ORIENTED_EDGE('',*,*,#385,.F.);
#541=ORIENTED_EDGE('',*,*,#395,.T.);
#542=ORIENTED_EDGE('',*,*,#396,.F.);
#543=ORIENTED_EDGE('',*,*,#397,.F.);
#544=ORIENTED_EDGE('',*,*,#382,.F.);
#545=ORIENTED_EDGE('',*,*,#340,.T.);
#546=ORIENTED_EDGE('',*,*,#348,.T.);
#547=ORIENTED_EDGE('',*,*,#383,.F.);
#548=ORIENTED_EDGE('',*,*,#397,.T.);
#549=ORIENTED_EDGE('',*,*,#398,.F.);
#550=ORIENTED_EDGE('',*,*,#391,.F.);
#551=ORIENTED_EDGE('',*,*,#380,.F.);
#552=ORIENTED_EDGE('',*,*,#342,.T.);
#553=ORIENTED_EDGE('',*,*,#398,.T.);
#554=ORIENTED_EDGE('',*,*,#396,.T.);
#555=ORIENTED_EDGE('',*,*,#394,.T.);
#556=ORIENTED_EDGE('',*,*,#392,.T.);
#557=ORIENTED_EDGE('',*,*,#372,.T.);
#558=ORIENTED_EDGE('',*,*,#374,.T.);
#559=ORIENTED_EDGE('',*,*,#376,.T.);
#560=ORIENTED_EDGE('',*,*,#378,.T.);
#561=ORIENTED_EDGE('',*,*,#399,.F.);
#562=ORIENTED_EDGE('',*,*,#400,.T.);
#563=ORIENTED_EDGE('',*,*,#388,.F.);
#564=ORIENTED_EDGE('',*,*,#400,.F.);
#565=ORIENTED_EDGE('',*,*,#321,.T.);
#566=ORIENTED_EDGE('',*,*,#319,.T.);
#567=ORIENTED_EDGE('',*,*,#324,.T.);
#568=ORIENTED_EDGE('',*,*,#359,.T.);
#569=ORIENTED_EDGE('',*,*,#386,.T.);
#570=ORIENTED_EDGE('',*,*,#399,.T.);
#571=CYLINDRICAL_SURFACE('',#633,1.7);
#572=CYLINDRICAL_SURFACE('',#634,1.7);
#573=CYLINDRICAL_SURFACE('',#635,1.7);
#574=CYLINDRICAL_SURFACE('',#638,2.25);
#575=CYLINDRICAL_SURFACE('',#650,1.7);
#576=CYLINDRICAL_SURFACE('',#651,2.25);
#577=CYLINDRICAL_SURFACE('',#655,2.25);
#578=CYLINDRICAL_SURFACE('',#659,2.25);
#579=CYLINDRICAL_SURFACE('',#663,2.25);
#580=CYLINDRICAL_SURFACE('',#667,1.8);
#581=CYLINDRICAL_SURFACE('',#669,1.8);
#582=CYLINDRICAL_SURFACE('',#671,1.8);
#583=CYLINDRICAL_SURFACE('',#673,1.8);
#584=CYLINDRICAL_SURFACE('',#678,9.7);
#585=CYLINDRICAL_SURFACE('',#688,7.7);
#586=ADVANCED_FACE('',(#79),#571,.F.);
#587=ADVANCED_FACE('',(#80),#572,.F.);
#588=ADVANCED_FACE('',(#81),#573,.F.);
#589=ADVANCED_FACE('',(#82),#62,.F.);
#590=ADVANCED_FACE('',(#83),#574,.F.);
#591=ADVANCED_FACE('',(#84,#16),#63,.T.);
#592=ADVANCED_FACE('',(#85,#17,#18,#19,#20),#15,.F.);
#593=ADVANCED_FACE('',(#86),#575,.F.);
#594=ADVANCED_FACE('',(#87),#576,.F.);
#595=ADVANCED_FACE('',(#88,#21),#64,.T.);
#596=ADVANCED_FACE('',(#89),#577,.F.);
#597=ADVANCED_FACE('',(#90,#22),#65,.T.);
#598=ADVANCED_FACE('',(#91),#578,.F.);
#599=ADVANCED_FACE('',(#92,#23),#66,.T.);
#600=ADVANCED_FACE('',(#93),#579,.F.);
#601=ADVANCED_FACE('',(#94,#24),#67,.T.);
#602=ADVANCED_FACE('',(#95),#580,.F.);
#603=ADVANCED_FACE('',(#96),#581,.F.);
#604=ADVANCED_FACE('',(#97),#582,.F.);
#605=ADVANCED_FACE('',(#98),#583,.F.);
#606=ADVANCED_FACE('',(#99),#68,.F.);
#607=ADVANCED_FACE('',(#100),#69,.F.);
#608=ADVANCED_FACE('',(#101),#70,.F.);
#609=ADVANCED_FACE('',(#102,#25,#26,#27),#584,.T.);
#610=ADVANCED_FACE('',(#103),#71,.F.);
#611=ADVANCED_FACE('',(#104),#72,.F.);
#612=ADVANCED_FACE('',(#105),#73,.T.);
#613=ADVANCED_FACE('',(#106),#74,.T.);
#614=ADVANCED_FACE('',(#107),#75,.T.);
#615=ADVANCED_FACE('',(#108),#76,.T.);
#616=ADVANCED_FACE('',(#109,#28,#29,#30,#31),#77,.T.);
#617=ADVANCED_FACE('',(#110,#32,#33,#34,#35),#585,.F.);
#618=ADVANCED_FACE('',(#111,#36),#78,.F.);
#619=CLOSED_SHELL('',(#586,#587,#588,#589,#590,#591,#592,#593,#594,#595,
#596,#597,#598,#599,#600,#601,#602,#603,#604,#605,#606,#607,#608,#609,#610,
#611,#612,#613,#614,#615,#616,#617,#618));
#620=DERIVED_UNIT_ELEMENT(#622,1.);
#621=DERIVED_UNIT_ELEMENT(#1530,-3.);
#622=(
MASS_UNIT()
NAMED_UNIT(*)
SI_UNIT(.KILO.,.GRAM.)
);
#623=DERIVED_UNIT((#620,#621));
#624=MEASURE_REPRESENTATION_ITEM('density measure',
POSITIVE_RATIO_MEASURE(7850.),#623);
#625=PROPERTY_DEFINITION_REPRESENTATION(#630,#627);
#626=PROPERTY_DEFINITION_REPRESENTATION(#631,#628);
#627=REPRESENTATION('material name',(#629),#1527);
#628=REPRESENTATION('density',(#624),#1527);
#629=DESCRIPTIVE_REPRESENTATION_ITEM('Steel','Steel');
#630=PROPERTY_DEFINITION('material property','material name',#1537);
#631=PROPERTY_DEFINITION('material property','density of part',#1537);
#632=AXIS2_PLACEMENT_3D('',#840,#691,#692);
#633=AXIS2_PLACEMENT_3D('',#841,#693,#694);
#634=AXIS2_PLACEMENT_3D('',#919,#696,#697);
#635=AXIS2_PLACEMENT_3D('',#991,#699,#700);
#636=AXIS2_PLACEMENT_3D('',#1063,#702,#703);
#637=AXIS2_PLACEMENT_3D('',#1071,#704,#705);
#638=AXIS2_PLACEMENT_3D('',#1076,#706,#707);
#639=AXIS2_PLACEMENT_3D('',#1114,#709,#710);
#640=AXIS2_PLACEMENT_3D('',#1128,#711,#712);
#641=AXIS2_PLACEMENT_3D('',#1130,#713,#714);
#642=AXIS2_PLACEMENT_3D('',#1131,#715,#716);
#643=AXIS2_PLACEMENT_3D('',#1133,#717,#718);
#644=AXIS2_PLACEMENT_3D('',#1135,#719,#720);
#645=AXIS2_PLACEMENT_3D('',#1146,#721,#722);
#646=AXIS2_PLACEMENT_3D('',#1163,#723,#724);
#647=AXIS2_PLACEMENT_3D('',#1180,#725,#726);
#648=AXIS2_PLACEMENT_3D('',#1197,#727,#728);
#649=AXIS2_PLACEMENT_3D('',#1206,#729,#730);
#650=AXIS2_PLACEMENT_3D('',#1399,#731,#732);
#651=AXIS2_PLACEMENT_3D('',#1436,#734,#735);
#652=AXIS2_PLACEMENT_3D('',#1439,#737,#738);
#653=AXIS2_PLACEMENT_3D('',#1440,#739,#740);
#654=AXIS2_PLACEMENT_3D('',#1442,#741,#742);
#655=AXIS2_PLACEMENT_3D('',#1443,#743,#744);
#656=AXIS2_PLACEMENT_3D('',#1446,#746,#747);
#657=AXIS2_PLACEMENT_3D('',#1447,#748,#749);
#658=AXIS2_PLACEMENT_3D('',#1449,#750,#751);
#659=AXIS2_PLACEMENT_3D('',#1450,#752,#753);
#660=AXIS2_PLACEMENT_3D('',#1453,#755,#756);
#661=AXIS2_PLACEMENT_3D('',#1454,#757,#758);
#662=AXIS2_PLACEMENT_3D('',#1456,#759,#760);
#663=AXIS2_PLACEMENT_3D('',#1457,#761,#762);
#664=AXIS2_PLACEMENT_3D('',#1460,#764,#765);
#665=AXIS2_PLACEMENT_3D('',#1461,#766,#767);
#666=AXIS2_PLACEMENT_3D('',#1463,#768,#769);
#667=AXIS2_PLACEMENT_3D('',#1464,#770,#771);
#668=AXIS2_PLACEMENT_3D('',#1466,#772,#773);
#669=AXIS2_PLACEMENT_3D('',#1468,#775,#776);
#670=AXIS2_PLACEMENT_3D('',#1470,#777,#778);
#671=AXIS2_PLACEMENT_3D('',#1472,#780,#781);
#672=AXIS2_PLACEMENT_3D('',#1474,#782,#783);
#673=AXIS2_PLACEMENT_3D('',#1476,#785,#786);
#674=AXIS2_PLACEMENT_3D('',#1478,#787,#788);
#675=AXIS2_PLACEMENT_3D('',#1480,#790,#791);
#676=AXIS2_PLACEMENT_3D('',#1484,#794,#795);
#677=AXIS2_PLACEMENT_3D('',#1488,#798,#799);
#678=AXIS2_PLACEMENT_3D('',#1492,#802,#803);
#679=AXIS2_PLACEMENT_3D('',#1494,#804,#805);
#680=AXIS2_PLACEMENT_3D('',#1496,#807,#808);
#681=AXIS2_PLACEMENT_3D('',#1498,#809,#810);
#682=AXIS2_PLACEMENT_3D('',#1499,#811,#812);
#683=AXIS2_PLACEMENT_3D('',#1503,#815,#816);
#684=AXIS2_PLACEMENT_3D('',#1509,#820,#821);
#685=AXIS2_PLACEMENT_3D('',#1513,#824,#825);
#686=AXIS2_PLACEMENT_3D('',#1517,#828,#829);
#687=AXIS2_PLACEMENT_3D('',#1519,#831,#832);
#688=AXIS2_PLACEMENT_3D('',#1520,#833,#834);
#689=AXIS2_PLACEMENT_3D('',#1522,#835,#836);
#690=AXIS2_PLACEMENT_3D('',#1524,#838,#839);
#691=DIRECTION('axis',(0.,0.,1.));
#692=DIRECTION('refdir',(1.,0.,0.));
#693=DIRECTION('center_axis',(0.,-1.,0.));
#694=DIRECTION('ref_axis',(1.,0.,0.));
#695=DIRECTION('',(0.,-1.,0.));
#696=DIRECTION('center_axis',(0.,-1.,0.));
#697=DIRECTION('ref_axis',(1.,0.,0.));
#698=DIRECTION('',(0.,-1.,0.));
#699=DIRECTION('center_axis',(0.,-1.,0.));
#700=DIRECTION('ref_axis',(1.,0.,0.));
#701=DIRECTION('',(0.,-1.,0.));
#702=DIRECTION('center_axis',(0.,1.,0.));
#703=DIRECTION('ref_axis',(1.,0.,0.));
#704=DIRECTION('center_axis',(0.,1.,0.));
#705=DIRECTION('ref_axis',(1.,0.,0.));
#706=DIRECTION('center_axis',(0.,-1.,0.));
#707=DIRECTION('ref_axis',(1.,0.,0.));
#708=DIRECTION('',(0.,-1.,0.));
#709=DIRECTION('center_axis',(0.,-1.,0.));
#710=DIRECTION('ref_axis',(1.,0.,0.));
#711=DIRECTION('center_axis',(0.,1.,0.));
#712=DIRECTION('ref_axis',(1.,0.,0.));
#713=DIRECTION('center_axis',(0.,1.,0.));
#714=DIRECTION('ref_axis',(1.,0.,0.));
#715=DIRECTION('center_axis',(0.,0.,1.));
#716=DIRECTION('ref_axis',(1.,0.,0.));
#717=DIRECTION('center_axis',(0.,0.,1.));
#718=DIRECTION('ref_axis',(1.,0.,0.));
#719=DIRECTION('center_axis',(1.22464679914735E-16,-1.,0.));
#720=DIRECTION('ref_axis',(-1.,-1.22464679914735E-16,0.));
#721=DIRECTION('center_axis',(0.,0.,-1.));
#722=DIRECTION('ref_axis',(1.,0.,0.));
#723=DIRECTION('center_axis',(0.,0.,-1.));
#724=DIRECTION('ref_axis',(1.,0.,0.));
#725=DIRECTION('center_axis',(0.,0.,-1.));
#726=DIRECTION('ref_axis',(1.,0.,0.));
#727=DIRECTION('center_axis',(0.,0.,-1.));
#728=DIRECTION('ref_axis',(1.,0.,0.));
#729=DIRECTION('center_axis',(0.,0.,1.));
#730=DIRECTION('ref_axis',(1.,0.,0.));
#731=DIRECTION('center_axis',(0.,-1.,0.));
#732=DIRECTION('ref_axis',(1.,0.,0.));
#733=DIRECTION('',(0.,-1.,0.));
#734=DIRECTION('center_axis',(0.,0.,1.));
#735=DIRECTION('ref_axis',(1.,0.,0.));
#736=DIRECTION('',(0.,0.,1.));
#737=DIRECTION('center_axis',(0.,0.,1.));
#738=DIRECTION('ref_axis',(1.,0.,0.));
#739=DIRECTION('center_axis',(0.,0.,-1.));
#740=DIRECTION('ref_axis',(1.,0.,0.));
#741=DIRECTION('center_axis',(0.,0.,-1.));
#742=DIRECTION('ref_axis',(-1.,0.,0.));
#743=DIRECTION('center_axis',(0.,0.,1.));
#744=DIRECTION('ref_axis',(1.,0.,0.));
#745=DIRECTION('',(0.,0.,1.));
#746=DIRECTION('center_axis',(0.,0.,1.));
#747=DIRECTION('ref_axis',(1.,0.,0.));
#748=DIRECTION('center_axis',(0.,0.,-1.));
#749=DIRECTION('ref_axis',(1.,0.,0.));
#750=DIRECTION('center_axis',(0.,0.,-1.));
#751=DIRECTION('ref_axis',(-1.,0.,0.));
#752=DIRECTION('center_axis',(0.,0.,1.));
#753=DIRECTION('ref_axis',(1.,0.,0.));
#754=DIRECTION('',(0.,0.,1.));
#755=DIRECTION('center_axis',(0.,0.,1.));
#756=DIRECTION('ref_axis',(1.,0.,0.));
#757=DIRECTION('center_axis',(0.,0.,-1.));
#758=DIRECTION('ref_axis',(1.,0.,0.));
#759=DIRECTION('center_axis',(0.,0.,-1.));
#760=DIRECTION('ref_axis',(-1.,0.,0.));
#761=DIRECTION('center_axis',(0.,0.,1.));
#762=DIRECTION('ref_axis',(1.,0.,0.));
#763=DIRECTION('',(0.,0.,1.));
#764=DIRECTION('center_axis',(0.,0.,1.));
#765=DIRECTION('ref_axis',(1.,0.,0.));
#766=DIRECTION('center_axis',(0.,0.,-1.));
#767=DIRECTION('ref_axis',(1.,0.,0.));
#768=DIRECTION('center_axis',(0.,0.,-1.));
#769=DIRECTION('ref_axis',(-1.,0.,0.));
#770=DIRECTION('center_axis',(0.,0.,-1.));
#771=DIRECTION('ref_axis',(-1.,0.,0.));
#772=DIRECTION('center_axis',(0.,0.,-1.));
#773=DIRECTION('ref_axis',(-1.,0.,0.));
#774=DIRECTION('',(0.,0.,-1.));
#775=DIRECTION('center_axis',(0.,0.,-1.));
#776=DIRECTION('ref_axis',(-1.,0.,0.));
#777=DIRECTION('center_axis',(0.,0.,-1.));
#778=DIRECTION('ref_axis',(-1.,0.,0.));
#779=DIRECTION('',(0.,0.,-1.));
#780=DIRECTION('center_axis',(0.,0.,-1.));
#781=DIRECTION('ref_axis',(-1.,0.,0.));
#782=DIRECTION('center_axis',(0.,0.,-1.));
#783=DIRECTION('ref_axis',(-1.,0.,0.));
#784=DIRECTION('',(0.,0.,-1.));
#785=DIRECTION('center_axis',(0.,0.,-1.));
#786=DIRECTION('ref_axis',(-1.,0.,0.));
#787=DIRECTION('center_axis',(0.,0.,-1.));
#788=DIRECTION('ref_axis',(-1.,0.,0.));
#789=DIRECTION('',(0.,0.,-1.));
#790=DIRECTION('center_axis',(0.,0.,1.));
#791=DIRECTION('ref_axis',(-1.,0.,0.));
#792=DIRECTION('',(1.,0.,0.));
#793=DIRECTION('',(0.,-1.,0.));
#794=DIRECTION('center_axis',(0.,0.,1.));
#795=DIRECTION('ref_axis',(-1.,0.,0.));
#796=DIRECTION('',(0.,1.,0.));
#797=DIRECTION('',(1.,0.,0.));
#798=DIRECTION('center_axis',(0.,0.,1.));
#799=DIRECTION('ref_axis',(-1.,0.,0.));
#800=DIRECTION('',(-1.,0.,0.));
#801=DIRECTION('',(0.,1.,0.));
#802=DIRECTION('center_axis',(0.,0.,-1.));
#803=DIRECTION('ref_axis',(1.,0.,0.));
#804=DIRECTION('center_axis',(0.,0.,1.));
#805=DIRECTION('ref_axis',(1.,0.,0.));
#806=DIRECTION('',(0.,0.,1.));
#807=DIRECTION('center_axis',(0.,0.,1.));
#808=DIRECTION('ref_axis',(-1.,0.,0.));
#809=DIRECTION('center_axis',(0.,0.,-1.));
#810=DIRECTION('ref_axis',(1.,0.,0.));
#811=DIRECTION('center_axis',(0.,0.,1.));
#812=DIRECTION('ref_axis',(-1.,0.,0.));
#813=DIRECTION('',(0.,-1.,0.));
#814=DIRECTION('',(-1.,0.,0.));
#815=DIRECTION('center_axis',(1.,0.,0.));
#816=DIRECTION('ref_axis',(0.,1.,0.));
#817=DIRECTION('',(0.,0.,1.));
#818=DIRECTION('',(0.,1.,0.));
#819=DIRECTION('',(0.,0.,1.));
#820=DIRECTION('center_axis',(0.,-1.,0.));
#821=DIRECTION('ref_axis',(1.,0.,0.));
#822=DIRECTION('',(1.,0.,0.));
#823=DIRECTION('',(0.,0.,1.));
#824=DIRECTION('center_axis',(-1.,0.,0.));
#825=DIRECTION('ref_axis',(0.,-1.,0.));
#826=DIRECTION('',(0.,-1.,0.));
#827=DIRECTION('',(0.,0.,1.));
#828=DIRECTION('center_axis',(0.,1.,0.));
#829=DIRECTION('ref_axis',(-1.,0.,0.));
#830=DIRECTION('',(-1.,0.,0.));
#831=DIRECTION('center_axis',(0.,0.,1.));
#832=DIRECTION('ref_axis',(1.,0.,0.));
#833=DIRECTION('center_axis',(0.,0.,-1.));
#834=DIRECTION('ref_axis',(1.,0.,0.));
#835=DIRECTION('center_axis',(0.,0.,-1.));
#836=DIRECTION('ref_axis',(1.,0.,0.));
#837=DIRECTION('',(0.,0.,1.));
#838=DIRECTION('center_axis',(0.,0.,1.));
#839=DIRECTION('ref_axis',(1.,0.,0.));
#840=CARTESIAN_POINT('',(0.,0.,0.));
#841=CARTESIAN_POINT('Origin',(0.,9.7,83.0000012367964));
#842=CARTESIAN_POINT('',(0.,9.7,81.3000012367964));
#843=CARTESIAN_POINT('',(0.,9.7,84.7000012367964));
#844=CARTESIAN_POINT('Ctrl Pts',(-5.20417042793042E-16,9.7,81.3000012367964));
#845=CARTESIAN_POINT('Ctrl Pts',(0.213927865775639,9.7,81.3000012367964));
#846=CARTESIAN_POINT('Ctrl Pts',(0.441815868553988,9.6922045036245,81.342845076781));
#847=CARTESIAN_POINT('Ctrl Pts',(0.860532856538622,9.66403190220218,81.5164747006055));
#848=CARTESIAN_POINT('Ctrl Pts',(1.05139810118698,9.64404591804988,81.6472362819491));
#849=CARTESIAN_POINT('Ctrl Pts',(1.3527698895965,9.60640800574415,81.9486080703586));
#850=CARTESIAN_POINT('Ctrl Pts',(1.48352760112515,9.58628630971745,82.1394712021005));
#851=CARTESIAN_POINT('Ctrl Pts',(1.65715441669352,9.55780198048197,82.5581809104333));
#852=CARTESIAN_POINT('Ctrl Pts',(1.7,9.54986910905066,82.7860663650719));
#853=CARTESIAN_POINT('Ctrl Pts',(1.7,9.54986910905066,83.2139361085208));
#854=CARTESIAN_POINT('Ctrl Pts',(1.65715441669352,9.55780198048197,83.4418215631595));
#855=CARTESIAN_POINT('Ctrl Pts',(1.48352760112515,9.58628630971745,83.8605312714923));
#856=CARTESIAN_POINT('Ctrl Pts',(1.3527698895965,9.60640800574415,84.0513944032341));
#857=CARTESIAN_POINT('Ctrl Pts',(1.05139810118698,9.64404591804988,84.3527661916437));
#858=CARTESIAN_POINT('Ctrl Pts',(0.860532856538622,9.66403190220218,84.4835277729873));
#859=CARTESIAN_POINT('Ctrl Pts',(0.441815868553988,9.6922045036245,84.6571573968118));
#860=CARTESIAN_POINT('Ctrl Pts',(0.213927865775641,9.7,84.7000012367964));
#861=CARTESIAN_POINT('Ctrl Pts',(1.73472347597681E-15,9.7,84.7000012367964));
#862=CARTESIAN_POINT('',(-1.7,9.54986910905066,83.0000012367964));
#863=CARTESIAN_POINT('Ctrl Pts',(-1.7,9.54986910905066,83.0000012367964));
#864=CARTESIAN_POINT('Ctrl Pts',(-1.7,9.54986910905066,82.7860663650719));
#865=CARTESIAN_POINT('Ctrl Pts',(-1.65715441669352,9.55780198048197,82.5581809104333));
#866=CARTESIAN_POINT('Ctrl Pts',(-1.48352760112515,9.58628630971745,82.1394712021005));
#867=CARTESIAN_POINT('Ctrl Pts',(-1.3527698895965,9.60640800574415,81.9486080703586));
#868=CARTESIAN_POINT('Ctrl Pts',(-1.05139810118698,9.64404591804988,81.6472362819491));
#869=CARTESIAN_POINT('Ctrl Pts',(-0.860532856538622,9.66403190220218,81.5164747006055));
#870=CARTESIAN_POINT('Ctrl Pts',(-0.441815868553988,9.6922045036245,81.342845076781));
#871=CARTESIAN_POINT('Ctrl Pts',(-0.21392786577564,9.7,81.3000012367964));
#872=CARTESIAN_POINT('Ctrl Pts',(-4.16333634234434E-16,9.7,81.3000012367964));
#873=CARTESIAN_POINT('',(-1.7,7.50999334220744,83.0000012367964));
#874=CARTESIAN_POINT('',(-1.7,9.7,83.0000012367964));
#875=CARTESIAN_POINT('Ctrl Pts',(-1.7,7.50999334220744,83.0000012367964));
#876=CARTESIAN_POINT('Ctrl Pts',(-1.7,7.50999334220744,83.2142275221705));
#877=CARTESIAN_POINT('Ctrl Pts',(-1.65704187779997,7.52011190178267,83.4422308780244));
#878=CARTESIAN_POINT('Ctrl Pts',(-1.48333611177983,7.55629437035539,83.860854893966));
#879=CARTESIAN_POINT('Ctrl Pts',(-1.35262513904725,7.58179627500902,84.0515391537834));
#880=CARTESIAN_POINT('Ctrl Pts',(-1.05155054954395,7.62938182724692,84.3526137432867));
#881=CARTESIAN_POINT('Ctrl Pts',(-0.860860965362864,7.65460970864502,84.4833345946561));
#882=CARTESIAN_POINT('Ctrl Pts',(-0.442218298946526,7.69016088041649,84.657047542437));
#883=CARTESIAN_POINT('Ctrl Pts',(-0.214208309016799,7.7,84.7000012367964));
#884=CARTESIAN_POINT('Ctrl Pts',(0.214208309016799,7.7,84.7000012367964));
#885=CARTESIAN_POINT('Ctrl Pts',(0.442218298946527,7.69016088041649,84.657047542437));
#886=CARTESIAN_POINT('Ctrl Pts',(0.860860965362864,7.65460970864502,84.4833345946561));
#887=CARTESIAN_POINT('Ctrl Pts',(1.05155054954395,7.62938182724692,84.3526137432867));
#888=CARTESIAN_POINT('Ctrl Pts',(1.35262513904725,7.58179627500902,84.0515391537834));
#889=CARTESIAN_POINT('Ctrl Pts',(1.48333611177983,7.55629437035539,83.860854893966));
#890=CARTESIAN_POINT('Ctrl Pts',(1.65704187779997,7.52011190178267,83.4422308780244));
#891=CARTESIAN_POINT('Ctrl Pts',(1.7,7.50999334220744,83.2142275221705));
#892=CARTESIAN_POINT('Ctrl Pts',(1.7,7.50999334220744,82.7857749514222));
#893=CARTESIAN_POINT('Ctrl Pts',(1.65704187779997,7.52011190178267,82.5577715955684));
#894=CARTESIAN_POINT('Ctrl Pts',(1.48333611177983,7.55629437035539,82.1391475796267));
#895=CARTESIAN_POINT('Ctrl Pts',(1.35262513904725,7.58179627500902,81.9484633198094));
#896=CARTESIAN_POINT('Ctrl Pts',(1.05155054954395,7.62938182724692,81.6473887303061));
#897=CARTESIAN_POINT('Ctrl Pts',(0.860860965362863,7.65460970864502,81.5166678789367));
#898=CARTESIAN_POINT('Ctrl Pts',(0.442218298946526,7.69016088041649,81.3429549311557));
#899=CARTESIAN_POINT('Ctrl Pts',(0.214208309016799,7.7,81.3000012367964));
#900=CARTESIAN_POINT('Ctrl Pts',(-0.214208309016799,7.7,81.3000012367964));
#901=CARTESIAN_POINT('Ctrl Pts',(-0.442218298946526,7.69016088041649,81.3429549311557));
#902=CARTESIAN_POINT('Ctrl Pts',(-0.860860965362863,7.65460970864502,81.5166678789367));
#903=CARTESIAN_POINT('Ctrl Pts',(-1.05155054954395,7.62938182724692,81.6473887303061));
#904=CARTESIAN_POINT('Ctrl Pts',(-1.35262513904725,7.58179627500902,81.9484633198094));
#905=CARTESIAN_POINT('Ctrl Pts',(-1.48333611177983,7.55629437035539,82.1391475796267));
#906=CARTESIAN_POINT('Ctrl Pts',(-1.65704187779997,7.52011190178267,82.5577715955684));
#907=CARTESIAN_POINT('Ctrl Pts',(-1.7,7.50999334220744,82.7857749514222));
#908=CARTESIAN_POINT('Ctrl Pts',(-1.7,7.50999334220744,83.0000012367964));
#909=CARTESIAN_POINT('Ctrl Pts',(8.32667268468867E-16,9.7,84.7000012367964));
#910=CARTESIAN_POINT('Ctrl Pts',(-0.213927865775638,9.7,84.7000012367964));
#911=CARTESIAN_POINT('Ctrl Pts',(-0.441815868553987,9.6922045036245,84.6571573968118));
#912=CARTESIAN_POINT('Ctrl Pts',(-0.860532856538621,9.66403190220218,84.4835277729873));
#913=CARTESIAN_POINT('Ctrl Pts',(-1.05139810118698,9.64404591804988,84.3527661916437));
#914=CARTESIAN_POINT('Ctrl Pts',(-1.3527698895965,9.60640800574415,84.0513944032341));
#915=CARTESIAN_POINT('Ctrl Pts',(-1.48352760112515,9.58628630971745,83.8605312714923));
#916=CARTESIAN_POINT('Ctrl Pts',(-1.65715441669352,9.55780198048197,83.4418215631595));
#917=CARTESIAN_POINT('Ctrl Pts',(-1.7,9.54986910905066,83.2139361085208));
#918=CARTESIAN_POINT('Ctrl Pts',(-1.7,9.54986910905066,83.0000012367964));
#919=CARTESIAN_POINT('Origin',(0.,9.7,83.0000012367964));
#920=CARTESIAN_POINT('',(-1.7,-7.50999334220744,83.0000012367964));
#921=CARTESIAN_POINT('Ctrl Pts',(-1.7,-7.50999334220744,83.0000012367964));
#922=CARTESIAN_POINT('Ctrl Pts',(-1.7,-7.50999334220744,82.7857749514222));
#923=CARTESIAN_POINT('Ctrl Pts',(-1.65704187779997,-7.52011190178267,82.5577715955684));
#924=CARTESIAN_POINT('Ctrl Pts',(-1.48333611177983,-7.55629437035539,82.1391475796267));
#925=CARTESIAN_POINT('Ctrl Pts',(-1.35262513904725,-7.58179627500902,81.9484633198094));
#926=CARTESIAN_POINT('Ctrl Pts',(-1.05155054954395,-7.62938182724692,81.6473887303061));
#927=CARTESIAN_POINT('Ctrl Pts',(-0.860860965362864,-7.65460970864502,81.5166678789367));
#928=CARTESIAN_POINT('Ctrl Pts',(-0.442218298946526,-7.69016088041649,81.3429549311557));
#929=CARTESIAN_POINT('Ctrl Pts',(-0.214208309016799,-7.7,81.3000012367964));
#930=CARTESIAN_POINT('Ctrl Pts',(0.214208309016799,-7.7,81.3000012367964));
#931=CARTESIAN_POINT('Ctrl Pts',(0.442218298946527,-7.69016088041649,81.3429549311557));
#932=CARTESIAN_POINT('Ctrl Pts',(0.860860965362864,-7.65460970864502,81.5166678789367));
#933=CARTESIAN_POINT('Ctrl Pts',(1.05155054954395,-7.62938182724692,81.6473887303061));
#934=CARTESIAN_POINT('Ctrl Pts',(1.35262513904725,-7.58179627500902,81.9484633198094));
#935=CARTESIAN_POINT('Ctrl Pts',(1.48333611177983,-7.55629437035539,82.1391475796267));
#936=CARTESIAN_POINT('Ctrl Pts',(1.65704187779997,-7.52011190178267,82.5577715955684));
#937=CARTESIAN_POINT('Ctrl Pts',(1.7,-7.50999334220744,82.7857749514222));
#938=CARTESIAN_POINT('Ctrl Pts',(1.7,-7.50999334220744,83.2142275221705));
#939=CARTESIAN_POINT('Ctrl Pts',(1.65704187779997,-7.52011190178267,83.4422308780244));
#940=CARTESIAN_POINT('Ctrl Pts',(1.48333611177983,-7.55629437035539,83.860854893966));
#941=CARTESIAN_POINT('Ctrl Pts',(1.35262513904725,-7.58179627500902,84.0515391537834));
#942=CARTESIAN_POINT('Ctrl Pts',(1.05155054954395,-7.62938182724692,84.3526137432867));
#943=CARTESIAN_POINT('Ctrl Pts',(0.860860965362863,-7.65460970864502,84.4833345946561));
#944=CARTESIAN_POINT('Ctrl Pts',(0.442218298946526,-7.69016088041649,84.657047542437));
#945=CARTESIAN_POINT('Ctrl Pts',(0.214208309016799,-7.7,84.7000012367964));
#946=CARTESIAN_POINT('Ctrl Pts',(-0.214208309016799,-7.7,84.7000012367964));
#947=CARTESIAN_POINT('Ctrl Pts',(-0.442218298946526,-7.69016088041649,84.657047542437));
#948=CARTESIAN_POINT('Ctrl Pts',(-0.860860965362863,-7.65460970864502,84.4833345946561));
#949=CARTESIAN_POINT('Ctrl Pts',(-1.05155054954395,-7.62938182724692,84.3526137432867));
#950=CARTESIAN_POINT('Ctrl Pts',(-1.35262513904725,-7.58179627500902,84.0515391537834));
#951=CARTESIAN_POINT('Ctrl Pts',(-1.48333611177983,-7.55629437035539,83.860854893966));
#952=CARTESIAN_POINT('Ctrl Pts',(-1.65704187779997,-7.52011190178267,83.4422308780244));
#953=CARTESIAN_POINT('Ctrl Pts',(-1.7,-7.50999334220744,83.2142275221705));
#954=CARTESIAN_POINT('Ctrl Pts',(-1.7,-7.50999334220744,83.0000012367964));
#955=CARTESIAN_POINT('',(-1.7,-9.54986910905066,83.0000012367964));
#956=CARTESIAN_POINT('',(-1.7,9.7,83.0000012367964));
#957=CARTESIAN_POINT('Ctrl Pts',(-1.7,-9.54986910905066,83.0000012367964));
#958=CARTESIAN_POINT('Ctrl Pts',(-1.7,-9.54986910905066,83.2139361085208));
#959=CARTESIAN_POINT('Ctrl Pts',(-1.65715441669352,-9.55780198048197,83.4418215631595));
#960=CARTESIAN_POINT('Ctrl Pts',(-1.48352760112515,-9.58628630971745,83.8605312714923));
#961=CARTESIAN_POINT('Ctrl Pts',(-1.3527698895965,-9.60640800574415,84.0513944032341));
#962=CARTESIAN_POINT('Ctrl Pts',(-1.05139810118698,-9.64404591804988,84.3527661916437));
#963=CARTESIAN_POINT('Ctrl Pts',(-0.860532856538621,-9.66403190220218,84.4835277729873));
#964=CARTESIAN_POINT('Ctrl Pts',(-0.441815868553987,-9.6922045036245,84.6571573968118));
#965=CARTESIAN_POINT('Ctrl Pts',(-0.213927865775639,-9.7,84.7000012367964));
#966=CARTESIAN_POINT('Ctrl Pts',(0.21392786577564,-9.7,84.7000012367964));
#967=CARTESIAN_POINT('Ctrl Pts',(0.441815868553988,-9.6922045036245,84.6571573968118));
#968=CARTESIAN_POINT('Ctrl Pts',(0.860532856538622,-9.66403190220218,84.4835277729873));
#969=CARTESIAN_POINT('Ctrl Pts',(1.05139810118698,-9.64404591804988,84.3527661916437));
#970=CARTESIAN_POINT('Ctrl Pts',(1.3527698895965,-9.60640800574415,84.0513944032341));
#971=CARTESIAN_POINT('Ctrl Pts',(1.48352760112515,-9.58628630971745,83.8605312714923));
#972=CARTESIAN_POINT('Ctrl Pts',(1.65715441669352,-9.55780198048197,83.4418215631595));
#973=CARTESIAN_POINT('Ctrl Pts',(1.7,-9.54986910905066,83.2139361085208));
#974=CARTESIAN_POINT('Ctrl Pts',(1.7,-9.54986910905066,82.7860663650719));
#975=CARTESIAN_POINT('Ctrl Pts',(1.65715441669352,-9.55780198048197,82.5581809104333));
#976=CARTESIAN_POINT('Ctrl Pts',(1.48352760112515,-9.58628630971745,82.1394712021005));
#977=CARTESIAN_POINT('Ctrl Pts',(1.3527698895965,-9.60640800574415,81.9486080703586));
#978=CARTESIAN_POINT('Ctrl Pts',(1.05139810118698,-9.64404591804988,81.6472362819491));
#979=CARTESIAN_POINT('Ctrl Pts',(0.860532856538622,-9.66403190220218,81.5164747006055));
#980=CARTESIAN_POINT('Ctrl Pts',(0.441815868553988,-9.6922045036245,81.342845076781));
#981=CARTESIAN_POINT('Ctrl Pts',(0.213927865775639,-9.7,81.3000012367964));
#982=CARTESIAN_POINT('Ctrl Pts',(-0.21392786577564,-9.7,81.3000012367964));
#983=CARTESIAN_POINT('Ctrl Pts',(-0.441815868553989,-9.6922045036245,81.342845076781));
#984=CARTESIAN_POINT('Ctrl Pts',(-0.860532856538623,-9.66403190220218,81.5164747006055));
#985=CARTESIAN_POINT('Ctrl Pts',(-1.05139810118698,-9.64404591804988,81.6472362819491));
#986=CARTESIAN_POINT('Ctrl Pts',(-1.3527698895965,-9.60640800574415,81.9486080703586));
#987=CARTESIAN_POINT('Ctrl Pts',(-1.48352760112515,-9.58628630971745,82.1394712021005));
#988=CARTESIAN_POINT('Ctrl Pts',(-1.65715441669352,-9.55780198048197,82.5581809104333));
#989=CARTESIAN_POINT('Ctrl Pts',(-1.7,-9.54986910905066,82.7860663650719));
#990=CARTESIAN_POINT('Ctrl Pts',(-1.7,-9.54986910905066,83.0000012367964));
#991=CARTESIAN_POINT('Origin',(0.,9.7,91.0000013560057));
#992=CARTESIAN_POINT('',(-1.7,-7.50999334220744,91.0000013560057));
#993=CARTESIAN_POINT('Ctrl Pts',(-1.7,-7.50999334220744,91.0000013560057));
#994=CARTESIAN_POINT('Ctrl Pts',(-1.7,-7.50999334220744,90.7857750706315));
#995=CARTESIAN_POINT('Ctrl Pts',(-1.65704187779997,-7.52011190178267,90.5577717147777));
#996=CARTESIAN_POINT('Ctrl Pts',(-1.48333611177983,-7.55629437035539,90.139147698836));
#997=CARTESIAN_POINT('Ctrl Pts',(-1.35262513904725,-7.58179627500902,89.9484634390187));
#998=CARTESIAN_POINT('Ctrl Pts',(-1.05155054954396,-7.62938182724692,89.6473888495154));
#999=CARTESIAN_POINT('Ctrl Pts',(-0.86086096536287,-7.65460970864502,89.5166679981459));
#1000=CARTESIAN_POINT('Ctrl Pts',(-0.442218298946531,-7.69016088041649,
89.342955050365));
#1001=CARTESIAN_POINT('Ctrl Pts',(-0.214208309016799,-7.7,89.3000013560057));
#1002=CARTESIAN_POINT('Ctrl Pts',(0.2142083090168,-7.7,89.3000013560057));
#1003=CARTESIAN_POINT('Ctrl Pts',(0.442218298946532,-7.69016088041649,89.342955050365));
#1004=CARTESIAN_POINT('Ctrl Pts',(0.86086096536287,-7.65460970864502,89.5166679981459));
#1005=CARTESIAN_POINT('Ctrl Pts',(1.05155054954396,-7.62938182724692,89.6473888495154));
#1006=CARTESIAN_POINT('Ctrl Pts',(1.35262513904725,-7.58179627500902,89.9484634390187));
#1007=CARTESIAN_POINT('Ctrl Pts',(1.48333611177984,-7.55629437035539,90.139147698836));
#1008=CARTESIAN_POINT('Ctrl Pts',(1.65704187779997,-7.52011190178267,90.5577717147777));
#1009=CARTESIAN_POINT('Ctrl Pts',(1.7,-7.50999334220744,90.7857750706315));
#1010=CARTESIAN_POINT('Ctrl Pts',(1.7,-7.50999334220744,91.2142276413798));
#1011=CARTESIAN_POINT('Ctrl Pts',(1.65704187779997,-7.52011190178267,91.4422309972337));
#1012=CARTESIAN_POINT('Ctrl Pts',(1.48333611177983,-7.55629437035539,91.8608550131753));
#1013=CARTESIAN_POINT('Ctrl Pts',(1.35262513904725,-7.58179627500902,92.0515392729927));
#1014=CARTESIAN_POINT('Ctrl Pts',(1.05155054954396,-7.62938182724692,92.352613862496));
#1015=CARTESIAN_POINT('Ctrl Pts',(0.860860965362871,-7.65460970864502,92.4833347138654));
#1016=CARTESIAN_POINT('Ctrl Pts',(0.442218298946532,-7.69016088041649,92.6570476616463));
#1017=CARTESIAN_POINT('Ctrl Pts',(0.2142083090168,-7.7,92.7000013560057));
#1018=CARTESIAN_POINT('Ctrl Pts',(-0.2142083090168,-7.7,92.7000013560057));
#1019=CARTESIAN_POINT('Ctrl Pts',(-0.442218298946532,-7.69016088041649,
92.6570476616463));
#1020=CARTESIAN_POINT('Ctrl Pts',(-0.86086096536287,-7.65460970864502,92.4833347138654));
#1021=CARTESIAN_POINT('Ctrl Pts',(-1.05155054954396,-7.62938182724692,92.352613862496));
#1022=CARTESIAN_POINT('Ctrl Pts',(-1.35262513904725,-7.58179627500902,92.0515392729927));
#1023=CARTESIAN_POINT('Ctrl Pts',(-1.48333611177983,-7.55629437035539,91.8608550131753));
#1024=CARTESIAN_POINT('Ctrl Pts',(-1.65704187779997,-7.52011190178267,91.4422309972337));
#1025=CARTESIAN_POINT('Ctrl Pts',(-1.7,-7.50999334220744,91.2142276413798));
#1026=CARTESIAN_POINT('Ctrl Pts',(-1.7,-7.50999334220744,91.0000013560057));
#1027=CARTESIAN_POINT('',(-1.7,-9.54986910905066,91.0000013560057));
#1028=CARTESIAN_POINT('',(-1.7,9.7,91.0000013560057));
#1029=CARTESIAN_POINT('Ctrl Pts',(-1.7,-9.54986910905066,91.0000013560057));
#1030=CARTESIAN_POINT('Ctrl Pts',(-1.7,-9.54986910905066,91.2139362277301));
#1031=CARTESIAN_POINT('Ctrl Pts',(-1.65715441669352,-9.55780198048197,91.4418216823688));
#1032=CARTESIAN_POINT('Ctrl Pts',(-1.48352760112516,-9.58628630971745,91.8605313907016));
#1033=CARTESIAN_POINT('Ctrl Pts',(-1.3527698895965,-9.60640800574415,92.0513945224434));
#1034=CARTESIAN_POINT('Ctrl Pts',(-1.05139810118698,-9.64404591804988,92.352766310853));
#1035=CARTESIAN_POINT('Ctrl Pts',(-0.860532856538624,-9.66403190220218,
92.4835278921966));
#1036=CARTESIAN_POINT('Ctrl Pts',(-0.44181586855399,-9.69220450362449,92.6571575160211));
#1037=CARTESIAN_POINT('Ctrl Pts',(-0.213927865775639,-9.7,92.7000013560057));
#1038=CARTESIAN_POINT('Ctrl Pts',(0.21392786577564,-9.7,92.7000013560057));
#1039=CARTESIAN_POINT('Ctrl Pts',(0.441815868553991,-9.69220450362449,92.6571575160211));
#1040=CARTESIAN_POINT('Ctrl Pts',(0.860532856538625,-9.66403190220218,92.4835278921966));
#1041=CARTESIAN_POINT('Ctrl Pts',(1.05139810118698,-9.64404591804988,92.352766310853));
#1042=CARTESIAN_POINT('Ctrl Pts',(1.3527698895965,-9.60640800574415,92.0513945224434));
#1043=CARTESIAN_POINT('Ctrl Pts',(1.48352760112516,-9.58628630971745,91.8605313907016));
#1044=CARTESIAN_POINT('Ctrl Pts',(1.65715441669352,-9.55780198048197,91.4418216823688));
#1045=CARTESIAN_POINT('Ctrl Pts',(1.7,-9.54986910905066,91.2139362277301));
#1046=CARTESIAN_POINT('Ctrl Pts',(1.7,-9.54986910905066,90.7860664842812));
#1047=CARTESIAN_POINT('Ctrl Pts',(1.65715441669352,-9.55780198048197,90.5581810296426));
#1048=CARTESIAN_POINT('Ctrl Pts',(1.48352760112516,-9.58628630971745,90.1394713213097));
#1049=CARTESIAN_POINT('Ctrl Pts',(1.35276988959651,-9.60640800574415,89.9486081895679));
#1050=CARTESIAN_POINT('Ctrl Pts',(1.05139810118698,-9.64404591804988,89.6472364011584));
#1051=CARTESIAN_POINT('Ctrl Pts',(0.860532856538625,-9.66403190220218,89.5164748198148));
#1052=CARTESIAN_POINT('Ctrl Pts',(0.441815868553991,-9.69220450362449,89.3428451959903));
#1053=CARTESIAN_POINT('Ctrl Pts',(0.213927865775639,-9.7,89.3000013560057));
#1054=CARTESIAN_POINT('Ctrl Pts',(-0.21392786577564,-9.7,89.3000013560057));
#1055=CARTESIAN_POINT('Ctrl Pts',(-0.441815868553991,-9.69220450362449,
89.3428451959903));
#1056=CARTESIAN_POINT('Ctrl Pts',(-0.860532856538626,-9.66403190220218,
89.5164748198148));
#1057=CARTESIAN_POINT('Ctrl Pts',(-1.05139810118698,-9.64404591804988,89.6472364011584));
#1058=CARTESIAN_POINT('Ctrl Pts',(-1.35276988959651,-9.60640800574415,89.9486081895679));
#1059=CARTESIAN_POINT('Ctrl Pts',(-1.48352760112516,-9.58628630971745,90.1394713213097));
#1060=CARTESIAN_POINT('Ctrl Pts',(-1.65715441669352,-9.55780198048197,90.5581810296426));
#1061=CARTESIAN_POINT('Ctrl Pts',(-1.7,-9.54986910905066,90.7860664842813));
#1062=CARTESIAN_POINT('Ctrl Pts',(-1.7,-9.54986910905066,91.0000013560057));
#1063=CARTESIAN_POINT('Origin',(0.,9.7,91.0000013560057));
#1064=CARTESIAN_POINT('',(0.258882202954606,9.7,93.2350584033746));
#1065=CARTESIAN_POINT('',(0.,9.7,93.));
#1066=CARTESIAN_POINT('Ctrl Pts',(0.258882202954625,9.7,93.2350584033746));
#1067=CARTESIAN_POINT('Ctrl Pts',(0.172000259041049,9.7,93.1562028962404));
#1068=CARTESIAN_POINT('Ctrl Pts',(0.0856986055918555,9.7,93.0778274644783));
#1069=CARTESIAN_POINT('Ctrl Pts',(0.,9.7,93.));
#1070=CARTESIAN_POINT('',(-0.258882202954606,9.7,93.2350584033746));
#1071=CARTESIAN_POINT('Origin',(0.,9.7,91.0000013560057));
#1072=CARTESIAN_POINT('Ctrl Pts',(0.,9.7,93.));
#1073=CARTESIAN_POINT('Ctrl Pts',(-0.0856986055918573,9.7,93.0778274644783));
#1074=CARTESIAN_POINT('Ctrl Pts',(-0.172000259041061,9.7,93.1562028962404));
#1075=CARTESIAN_POINT('Ctrl Pts',(-0.258882202954625,9.7,93.2350584033746));
#1076=CARTESIAN_POINT('Origin',(0.,9.7,91.0000013560057));
#1077=CARTESIAN_POINT('',(1.03077903743764,9.64507618300546,93.));
#1078=CARTESIAN_POINT('Ctrl Pts',(1.03077903743764,9.64507618300546,93.));
#1079=CARTESIAN_POINT('Ctrl Pts',(0.887018124511258,9.66044005703152,93.0740929179589));
#1080=CARTESIAN_POINT('Ctrl Pts',(0.735517626974424,9.67434147841779,93.1325634662948));
#1081=CARTESIAN_POINT('Ctrl Pts',(0.473828319588408,9.69150143746079,93.2022234520151));
#1082=CARTESIAN_POINT('Ctrl Pts',(0.366943464569641,9.6967479111795,93.2225418828258));
#1083=CARTESIAN_POINT('Ctrl Pts',(0.258882202954603,9.7,93.2350584033746));
#1084=CARTESIAN_POINT('',(0.,9.7,88.7500013560057));
#1085=CARTESIAN_POINT('Ctrl Pts',(-7.63278329429795E-16,9.7,88.7500013560057));
#1086=CARTESIAN_POINT('Ctrl Pts',(0.283615807572232,9.7,88.7500013560057));
#1087=CARTESIAN_POINT('Ctrl Pts',(0.585439426053856,9.68631082587496,88.8068929179055));
#1088=CARTESIAN_POINT('Ctrl Pts',(1.13949782149292,9.63685122105788,89.0368384492553));
#1089=CARTESIAN_POINT('Ctrl Pts',(1.39181547787156,9.60175072624542,89.2098363185378));
#1090=CARTESIAN_POINT('Ctrl Pts',(1.79018550415652,9.53551317826306,89.6082063448227));
#1091=CARTESIAN_POINT('Ctrl Pts',(1.96316738509614,9.49999088967434,89.8605154125339));
#1092=CARTESIAN_POINT('Ctrl Pts',(2.19310127689824,9.44955873054951,90.4145435875483));
#1093=CARTESIAN_POINT('Ctrl Pts',(2.25,9.43543851657145,90.7163564048018));
#1094=CARTESIAN_POINT('Ctrl Pts',(2.25,9.43543851657145,91.2836463072096));
#1095=CARTESIAN_POINT('Ctrl Pts',(2.19310127689824,9.44955873054951,91.585459124463));
#1096=CARTESIAN_POINT('Ctrl Pts',(1.96316738509614,9.49999088967433,92.1394872994774));
#1097=CARTESIAN_POINT('Ctrl Pts',(1.79018550415652,9.53551317826306,92.3917963671886));
#1098=CARTESIAN_POINT('Ctrl Pts',(1.43294100341517,9.59491272691876,92.7490408679299));
#1099=CARTESIAN_POINT('Ctrl Pts',(1.24177355625755,9.62252698558211,92.891255562764));
#1100=CARTESIAN_POINT('Ctrl Pts',(1.03077903743763,9.64507618300546,93.));
#1101=CARTESIAN_POINT('',(-2.25,9.43543851657145,91.0000013560057));
#1102=CARTESIAN_POINT('Ctrl Pts',(-2.25,9.43543851657145,91.0000013560057));
#1103=CARTESIAN_POINT('Ctrl Pts',(-2.25,9.43543851657145,90.7163564048017));
#1104=CARTESIAN_POINT('Ctrl Pts',(-2.19310127689824,9.44955873054951,90.4145435875483));
#1105=CARTESIAN_POINT('Ctrl Pts',(-1.96316738509614,9.49999088967434,89.8605154125339));
#1106=CARTESIAN_POINT('Ctrl Pts',(-1.79018550415652,9.53551317826306,89.6082063448227));
#1107=CARTESIAN_POINT('Ctrl Pts',(-1.39181547787156,9.60175072624542,89.2098363185378));
#1108=CARTESIAN_POINT('Ctrl Pts',(-1.13949782149292,9.63685122105788,89.0368384492553));
#1109=CARTESIAN_POINT('Ctrl Pts',(-0.585439426053857,9.68631082587496,88.8068929179055));
#1110=CARTESIAN_POINT('Ctrl Pts',(-0.283615807572232,9.7,88.7500013560057));
#1111=CARTESIAN_POINT('Ctrl Pts',(2.77555756156289E-16,9.7,88.7500013560057));
#1112=CARTESIAN_POINT('',(-2.25,8.2,91.0000013560057));
#1113=CARTESIAN_POINT('',(-2.25,9.7,91.0000013560057));
#1114=CARTESIAN_POINT('Origin',(0.,8.2,91.0000013560057));
#1115=CARTESIAN_POINT('',(-1.03077903743764,9.64507618300546,93.));
#1116=CARTESIAN_POINT('Ctrl Pts',(-1.03077903743764,9.64507618300546,93.));
#1117=CARTESIAN_POINT('Ctrl Pts',(-1.24177355607677,9.62252698560143,92.8912555628572));
#1118=CARTESIAN_POINT('Ctrl Pts',(-1.43294100346279,9.59491272691085,92.7490408678823));
#1119=CARTESIAN_POINT('Ctrl Pts',(-1.79018550415652,9.53551317826306,92.3917963671886));
#1120=CARTESIAN_POINT('Ctrl Pts',(-1.96316738509614,9.49999088967434,92.1394872994774));
#1121=CARTESIAN_POINT('Ctrl Pts',(-2.19310127689824,9.44955873054951,91.585459124463));
#1122=CARTESIAN_POINT('Ctrl Pts',(-2.25,9.43543851657145,91.2836463072096));
#1123=CARTESIAN_POINT('Ctrl Pts',(-2.25,9.43543851657145,91.0000013560057));
#1124=CARTESIAN_POINT('Ctrl Pts',(-0.258882202954606,9.7,93.2350584033746));
#1125=CARTESIAN_POINT('Ctrl Pts',(-0.52906765684557,9.6918688058891,93.2037633607751));
#1126=CARTESIAN_POINT('Ctrl Pts',(-0.790354828793209,9.67077056111725,93.1239122011944));
#1127=CARTESIAN_POINT('Ctrl Pts',(-1.03077903743764,9.64507618300546,93.));
#1128=CARTESIAN_POINT('Origin',(0.,8.2,91.0000013560057));
#1129=CARTESIAN_POINT('',(-1.7,8.2,91.0000013560057));
#1130=CARTESIAN_POINT('Origin',(0.,8.2,91.0000013560057));
#1131=CARTESIAN_POINT('Origin',(0.,0.,93.));
#1132=CARTESIAN_POINT('',(-9.7,-1.18790739517293E-15,93.));
#1133=CARTESIAN_POINT('Origin',(0.,0.,93.));
#1134=CARTESIAN_POINT('',(-15.,-7.7970722128237E-16,100.530604225426));
#1135=CARTESIAN_POINT('Origin',(-17.7,-2.16762483449082E-15,93.));
#1136=CARTESIAN_POINT('',(-15.,9.3962758580195,101.));
#1137=CARTESIAN_POINT('Ctrl Pts',(-15.,2.77555756156289E-16,100.530604225426));
#1138=CARTESIAN_POINT('Ctrl Pts',(-15.,1.01071942059201,100.530604225426));
#1139=CARTESIAN_POINT('Ctrl Pts',(-15.,2.12085981539096,100.573204888058));
#1140=CARTESIAN_POINT('Ctrl Pts',(-15.,4.33839944923327,100.7170615458));
#1141=CARTESIAN_POINT('Ctrl Pts',(-15.,5.44617301180084,100.812488071693));
#1142=CARTESIAN_POINT('Ctrl Pts',(-15.,7.37275642716976,100.944875656809));
#1143=CARTESIAN_POINT('Ctrl Pts',(-15.,8.47586863101238,101.));
#1144=CARTESIAN_POINT('Ctrl Pts',(-15.,9.3962758580195,101.));
#1145=CARTESIAN_POINT('',(-9.3962758580195,15.,101.));
#1146=CARTESIAN_POINT('Origin',(0.,0.,101.));
#1147=CARTESIAN_POINT('',(9.3962758580195,15.,101.));
#1148=CARTESIAN_POINT('Ctrl Pts',(-9.3962758580195,15.,101.));
#1149=CARTESIAN_POINT('Ctrl Pts',(-8.47586863101238,15.,101.));
#1150=CARTESIAN_POINT('Ctrl Pts',(-7.37275642716976,15.,100.944875656809));
#1151=CARTESIAN_POINT('Ctrl Pts',(-5.44617301180084,15.,100.812488071693));
#1152=CARTESIAN_POINT('Ctrl Pts',(-4.33839944923327,15.,100.7170615458));
#1153=CARTESIAN_POINT('Ctrl Pts',(-2.12085981539096,15.,100.573204888058));
#1154=CARTESIAN_POINT('Ctrl Pts',(-1.01071942059201,15.,100.530604225426));
#1155=CARTESIAN_POINT('Ctrl Pts',(1.01071942059201,15.,100.530604225426));
#1156=CARTESIAN_POINT('Ctrl Pts',(2.12085981539096,15.,100.573204888058));
#1157=CARTESIAN_POINT('Ctrl Pts',(4.33839944923327,15.,100.7170615458));
#1158=CARTESIAN_POINT('Ctrl Pts',(5.44617301180084,15.,100.812488071693));
#1159=CARTESIAN_POINT('Ctrl Pts',(7.37275642716976,15.,100.944875656809));
#1160=CARTESIAN_POINT('Ctrl Pts',(8.47586863101238,15.,101.));
#1161=CARTESIAN_POINT('Ctrl Pts',(9.3962758580195,15.,101.));
#1162=CARTESIAN_POINT('',(15.,9.3962758580195,101.));
#1163=CARTESIAN_POINT('Origin',(0.,0.,101.));
#1164=CARTESIAN_POINT('',(15.,-9.3962758580195,101.));
#1165=CARTESIAN_POINT('Ctrl Pts',(15.,9.3962758580195,101.));
#1166=CARTESIAN_POINT('Ctrl Pts',(15.,8.47586863101238,101.));
#1167=CARTESIAN_POINT('Ctrl Pts',(15.,7.37275642716976,100.944875656809));
#1168=CARTESIAN_POINT('Ctrl Pts',(15.,5.44617301180084,100.812488071693));
#1169=CARTESIAN_POINT('Ctrl Pts',(15.,4.33839944923327,100.7170615458));
#1170=CARTESIAN_POINT('Ctrl Pts',(15.,2.12085981539096,100.573204888058));
#1171=CARTESIAN_POINT('Ctrl Pts',(15.,1.01071942059201,100.530604225426));
#1172=CARTESIAN_POINT('Ctrl Pts',(15.,-1.01071942059201,100.530604225426));
#1173=CARTESIAN_POINT('Ctrl Pts',(15.,-2.12085981539096,100.573204888058));
#1174=CARTESIAN_POINT('Ctrl Pts',(15.,-4.33839944923327,100.7170615458));
#1175=CARTESIAN_POINT('Ctrl Pts',(15.,-5.44617301180084,100.812488071693));
#1176=CARTESIAN_POINT('Ctrl Pts',(15.,-7.37275642716976,100.944875656809));
#1177=CARTESIAN_POINT('Ctrl Pts',(15.,-8.47586863101238,101.));
#1178=CARTESIAN_POINT('Ctrl Pts',(15.,-9.3962758580195,101.));
#1179=CARTESIAN_POINT('',(9.3962758580195,-15.,101.));
#1180=CARTESIAN_POINT('Origin',(0.,0.,101.));
#1181=CARTESIAN_POINT('',(-9.3962758580195,-15.,101.));
#1182=CARTESIAN_POINT('Ctrl Pts',(9.3962758580195,-15.,101.));
#1183=CARTESIAN_POINT('Ctrl Pts',(8.47586863101238,-15.,101.));
#1184=CARTESIAN_POINT('Ctrl Pts',(7.37275642716976,-15.,100.944875656809));
#1185=CARTESIAN_POINT('Ctrl Pts',(5.44617301180084,-15.,100.812488071693));
#1186=CARTESIAN_POINT('Ctrl Pts',(4.33839944923327,-15.,100.7170615458));
#1187=CARTESIAN_POINT('Ctrl Pts',(2.12085981539096,-15.,100.573204888058));
#1188=CARTESIAN_POINT('Ctrl Pts',(1.01071942059201,-15.,100.530604225426));
#1189=CARTESIAN_POINT('Ctrl Pts',(-1.01071942059201,-15.,100.530604225426));
#1190=CARTESIAN_POINT('Ctrl Pts',(-2.12085981539096,-15.,100.573204888058));
#1191=CARTESIAN_POINT('Ctrl Pts',(-4.33839944923327,-15.,100.7170615458));
#1192=CARTESIAN_POINT('Ctrl Pts',(-5.44617301180084,-15.,100.812488071693));
#1193=CARTESIAN_POINT('Ctrl Pts',(-7.37275642716976,-15.,100.944875656809));
#1194=CARTESIAN_POINT('Ctrl Pts',(-8.47586863101238,-15.,101.));
#1195=CARTESIAN_POINT('Ctrl Pts',(-9.3962758580195,-15.,101.));
#1196=CARTESIAN_POINT('',(-15.,-9.3962758580195,101.));
#1197=CARTESIAN_POINT('Origin',(0.,0.,101.));
#1198=CARTESIAN_POINT('Ctrl Pts',(-15.,-9.3962758580195,101.));
#1199=CARTESIAN_POINT('Ctrl Pts',(-15.,-8.47586863101238,101.));
#1200=CARTESIAN_POINT('Ctrl Pts',(-15.,-7.37275642716976,100.944875656809));
#1201=CARTESIAN_POINT('Ctrl Pts',(-15.,-5.44617301180084,100.812488071693));
#1202=CARTESIAN_POINT('Ctrl Pts',(-15.,-4.33839944923327,100.7170615458));
#1203=CARTESIAN_POINT('Ctrl Pts',(-15.,-2.12085981539096,100.573204888058));
#1204=CARTESIAN_POINT('Ctrl Pts',(-15.,-1.01071942059201,100.530604225426));
#1205=CARTESIAN_POINT('Ctrl Pts',(-15.,-5.55111512312578E-16,100.530604225426));
#1206=CARTESIAN_POINT('Origin',(0.,0.,93.));
#1207=CARTESIAN_POINT('',(-11.5909904066813,11.5909904066813,100.892369183237));
#1208=CARTESIAN_POINT('',(-12.2500001490116,10.0000001490116,100.774355771501));
#1209=CARTESIAN_POINT('Ctrl Pts',(-11.5909904066813,11.5909904066813,100.892369183237));
#1210=CARTESIAN_POINT('Ctrl Pts',(-11.7978977893484,11.3840830240143,100.892369183237));
#1211=CARTESIAN_POINT('Ctrl Pts',(-11.9623944977745,11.1387654214447,100.884684965002));
#1212=CARTESIAN_POINT('Ctrl Pts',(-12.1812596970187,10.6163541375391,100.850170006727));
#1213=CARTESIAN_POINT('Ctrl Pts',(-12.2396629493359,10.3469459957319,100.824678544865));
#1214=CARTESIAN_POINT('Ctrl Pts',(-12.2495832356154,10.0500577798186,100.781916859694));
#1215=CARTESIAN_POINT('Ctrl Pts',(-12.2500001490116,10.0250079261362,100.778193500697));
#1216=CARTESIAN_POINT('Ctrl Pts',(-12.2500001490116,10.0000001490116,100.774355771501));
#1217=CARTESIAN_POINT('Ctrl Pts',(-12.2500001490116,10.0000001490116,100.774355771501));
#1218=CARTESIAN_POINT('Ctrl Pts',(-12.2500001490116,9.75726528364709,100.737105332363));
#1219=CARTESIAN_POINT('Ctrl Pts',(-12.2107401280617,9.51849186973886,100.689097483246));
#1220=CARTESIAN_POINT('Ctrl Pts',(-12.0548237554616,9.04786063064667,100.559292484816));
#1221=CARTESIAN_POINT('Ctrl Pts',(-11.9343758790028,8.82448853358144,100.476648492155));
#1222=CARTESIAN_POINT('Ctrl Pts',(-11.6694620390804,8.47997002965864,100.301580305204));
#1223=CARTESIAN_POINT('Ctrl Pts',(-11.5396538425762,8.34944030290294,100.217561523042));
#1224=CARTESIAN_POINT('Ctrl Pts',(-11.2639826089018,8.13066117801919,100.038152026985));
#1225=CARTESIAN_POINT('Ctrl Pts',(-11.1200466071913,8.04155472640629,99.9440570685018));
#1226=CARTESIAN_POINT('Ctrl Pts',(-10.7894202246887,7.88350468472434,99.7260968669976));
#1227=CARTESIAN_POINT('Ctrl Pts',(-10.6002025979977,7.82274780933189,99.6001068487098));
#1228=CARTESIAN_POINT('Ctrl Pts',(-10.1324896360191,7.73649099138941,99.2905916374396));
#1229=CARTESIAN_POINT('Ctrl Pts',(-9.85897174691842,7.73915353157939,99.1111360891482));
#1230=CARTESIAN_POINT('Ctrl Pts',(-9.37765698556295,7.82592511343239,98.8250939024586));
#1231=CARTESIAN_POINT('Ctrl Pts',(-9.1503318729731,7.90192533421525,98.7023946705278));
#1232=CARTESIAN_POINT('Ctrl Pts',(-8.77236412802551,8.10568681245909,98.5552463104643));
#1233=CARTESIAN_POINT('Ctrl Pts',(-8.61952508361154,8.21293874745774,98.5145102325282));
#1234=CARTESIAN_POINT('Ctrl Pts',(-8.33488302022292,8.47430199784898,98.4938684147333));
#1235=CARTESIAN_POINT('Ctrl Pts',(-8.21233656419714,8.62075675500586,98.5155533505963));
#1236=CARTESIAN_POINT('Ctrl Pts',(-7.9710066704761,8.99435246957015,98.6298821912072));
#1237=CARTESIAN_POINT('Ctrl Pts',(-7.87604330729563,9.22202762547485,98.7416651480349));
#1238=CARTESIAN_POINT('Ctrl Pts',(-7.74804367078709,9.72698743133075,99.0264415686577));
#1239=CARTESIAN_POINT('Ctrl Pts',(-7.72943895721256,10.0267244236217,99.2212216947712));
#1240=CARTESIAN_POINT('Ctrl Pts',(-7.80385773090217,10.5294657067576,99.5529968131653));
#1241=CARTESIAN_POINT('Ctrl Pts',(-7.86061805288683,10.7268681156579,99.6846322666795));
#1242=CARTESIAN_POINT('Ctrl Pts',(-8.01278920222503,11.0683535229611,99.9101106667461));
#1243=CARTESIAN_POINT('Ctrl Pts',(-8.09865540673153,11.2154325680513,100.006461141708));
#1244=CARTESIAN_POINT('Ctrl Pts',(-8.30864557951866,11.494276681201,100.188099851168));
#1245=CARTESIAN_POINT('Ctrl Pts',(-8.43277620830387,11.6247645064863,100.272539088182));
#1246=CARTESIAN_POINT('Ctrl Pts',(-8.75202678818616,11.8861911667823,100.444364710094));
#1247=CARTESIAN_POINT('Ctrl Pts',(-8.95412505412672,12.0064003849696,100.525434718869));
#1248=CARTESIAN_POINT('Ctrl Pts',(-9.44093680199808,12.1979139379646,100.673665090405));
#1249=CARTESIAN_POINT('Ctrl Pts',(-9.72638075046848,12.2522792257181,100.733021990708));
#1250=CARTESIAN_POINT('Ctrl Pts',(-10.3083524261715,12.2475872943117,100.820981095898));
#1251=CARTESIAN_POINT('Ctrl Pts',(-10.5970238484975,12.1890184509599,100.848843256367));
#1252=CARTESIAN_POINT('Ctrl Pts',(-11.1374813662419,11.9632694942366,100.884649365764));
#1253=CARTESIAN_POINT('Ctrl Pts',(-11.3835623443225,11.7984184690402,100.892369183237));
#1254=CARTESIAN_POINT('Ctrl Pts',(-11.5909904066813,11.5909904066813,100.892369183237));
#1255=CARTESIAN_POINT('',(11.5909904066813,-11.5909904066813,100.892369183237));
#1256=CARTESIAN_POINT('',(7.75000014901161,-10.0000001490598,99.2059219294138));
#1257=CARTESIAN_POINT('Ctrl Pts',(11.5909904066813,-11.5909904066813,100.892369183237));
#1258=CARTESIAN_POINT('Ctrl Pts',(11.7978977893484,-11.3840830240143,100.892369183237));
#1259=CARTESIAN_POINT('Ctrl Pts',(11.9623944977745,-11.1387654214447,100.884684965002));
#1260=CARTESIAN_POINT('Ctrl Pts',(12.1812596970187,-10.6163541375391,100.850170006727));
#1261=CARTESIAN_POINT('Ctrl Pts',(12.2396629493359,-10.3469459957319,100.824678544865));
#1262=CARTESIAN_POINT('Ctrl Pts',(12.2577182374224,-9.80659845768996,100.74685069564));
#1263=CARTESIAN_POINT('Ctrl Pts',(12.2184565191902,-9.54178368096792,100.69552160742));
#1264=CARTESIAN_POINT('Ctrl Pts',(12.0548237554616,-9.04786063064667,100.559292484816));
#1265=CARTESIAN_POINT('Ctrl Pts',(11.9343758790028,-8.82448853358145,100.476648492155));
#1266=CARTESIAN_POINT('Ctrl Pts',(11.6694620390804,-8.47997002965863,100.301580305204));
#1267=CARTESIAN_POINT('Ctrl Pts',(11.5396538425761,-8.34944030290293,100.217561523042));
#1268=CARTESIAN_POINT('Ctrl Pts',(11.2639826089018,-8.13066117801919,100.038152026985));
#1269=CARTESIAN_POINT('Ctrl Pts',(11.1200466071913,-8.04155472640629,99.9440570685019));
#1270=CARTESIAN_POINT('Ctrl Pts',(10.7894202246886,-7.88350468472433,99.7260968669976));
#1271=CARTESIAN_POINT('Ctrl Pts',(10.6002025979976,-7.82274780933189,99.6001068487098));
#1272=CARTESIAN_POINT('Ctrl Pts',(10.132489636019,-7.7364909913894,99.2905916374395));
#1273=CARTESIAN_POINT('Ctrl Pts',(9.85897174691834,-7.73915353157941,99.1111360891482));
#1274=CARTESIAN_POINT('Ctrl Pts',(9.37765698556291,-7.8259251134324,98.8250939024585));
#1275=CARTESIAN_POINT('Ctrl Pts',(9.15033187297308,-7.90192533421526,98.7023946705278));
#1276=CARTESIAN_POINT('Ctrl Pts',(8.77236412802559,-8.10568681245906,98.5552463104644));
#1277=CARTESIAN_POINT('Ctrl Pts',(8.61952508361156,-8.21293874745772,98.5145102325282));
#1278=CARTESIAN_POINT('Ctrl Pts',(8.33488302022289,-8.474301997849,98.4938684147333));
#1279=CARTESIAN_POINT('Ctrl Pts',(8.21233656419709,-8.62075675500592,98.5155533505963));
#1280=CARTESIAN_POINT('Ctrl Pts',(7.9710066704761,-8.99435246957015,98.6298821912072));
#1281=CARTESIAN_POINT('Ctrl Pts',(7.87604330729562,-9.22202762547484,98.7416651480349));
#1282=CARTESIAN_POINT('Ctrl Pts',(7.77393005045649,-9.62486541279437,98.9688489789737));
#1283=CARTESIAN_POINT('Ctrl Pts',(7.75000014900349,-9.81053578610057,99.0840982230591));
#1284=CARTESIAN_POINT('Ctrl Pts',(7.75000014901161,-10.0000001491081,99.2059219294138));
#1285=CARTESIAN_POINT('Ctrl Pts',(7.75000014901161,-10.0000001491081,99.2059219294138));
#1286=CARTESIAN_POINT('Ctrl Pts',(7.75000014901628,-10.1088702407743,99.2759243186095));
#1287=CARTESIAN_POINT('Ctrl Pts',(7.75789914984223,-10.2189892655635,99.3481034385985));
#1288=CARTESIAN_POINT('Ctrl Pts',(7.80385773090216,-10.5294657067576,99.5529968131653));
#1289=CARTESIAN_POINT('Ctrl Pts',(7.86061805288683,-10.7268681156579,99.6846322666795));
#1290=CARTESIAN_POINT('Ctrl Pts',(8.01278920222505,-11.0683535229612,99.9101106667462));
#1291=CARTESIAN_POINT('Ctrl Pts',(8.09865540673154,-11.2154325680513,100.006461141708));
#1292=CARTESIAN_POINT('Ctrl Pts',(8.30864557951859,-11.4942766812009,100.188099851168));
#1293=CARTESIAN_POINT('Ctrl Pts',(8.43277620830383,-11.6247645064862,100.272539088182));
#1294=CARTESIAN_POINT('Ctrl Pts',(8.75202678818619,-11.8861911667824,100.444364710094));
#1295=CARTESIAN_POINT('Ctrl Pts',(8.95412505412673,-12.0064003849696,100.525434718869));
#1296=CARTESIAN_POINT('Ctrl Pts',(9.44093680199807,-12.1979139379646,100.673665090405));
#1297=CARTESIAN_POINT('Ctrl Pts',(9.72638075046846,-12.2522792257181,100.733021990708));
#1298=CARTESIAN_POINT('Ctrl Pts',(10.3083524261715,-12.2475872943117,100.820981095898));
#1299=CARTESIAN_POINT('Ctrl Pts',(10.5970238484975,-12.1890184509599,100.848843256367));
#1300=CARTESIAN_POINT('Ctrl Pts',(11.1374813662419,-11.9632694942366,100.884649365764));
#1301=CARTESIAN_POINT('Ctrl Pts',(11.3835623443225,-11.7984184690402,100.892369183237));
#1302=CARTESIAN_POINT('Ctrl Pts',(11.5909904066813,-11.5909904066813,100.892369183237));
#1303=CARTESIAN_POINT('',(-11.5909904066814,-11.5909904066813,100.892369183237));
#1304=CARTESIAN_POINT('',(-12.2500001490116,-10.0000001510407,100.774355772123));
#1305=CARTESIAN_POINT('Ctrl Pts',(-11.5909904066814,-11.5909904066813,100.892369183237));
#1306=CARTESIAN_POINT('Ctrl Pts',(-11.3840830240143,-11.7978977893484,100.892369183237));
#1307=CARTESIAN_POINT('Ctrl Pts',(-11.1387654214447,-11.9623944977745,100.884684965002));
#1308=CARTESIAN_POINT('Ctrl Pts',(-10.6163541375391,-12.1812596970187,100.850170006727));
#1309=CARTESIAN_POINT('Ctrl Pts',(-10.3469459957319,-12.2396629493359,100.824678544865));
#1310=CARTESIAN_POINT('Ctrl Pts',(-9.80659845769002,-12.2577182374224,100.74685069564));
#1311=CARTESIAN_POINT('Ctrl Pts',(-9.541783680968,-12.2184565191902,100.69552160742));
#1312=CARTESIAN_POINT('Ctrl Pts',(-9.04786063064667,-12.0548237554616,100.559292484816));
#1313=CARTESIAN_POINT('Ctrl Pts',(-8.82448853358144,-11.9343758790028,100.476648492155));
#1314=CARTESIAN_POINT('Ctrl Pts',(-8.47997002965865,-11.6694620390804,100.301580305204));
#1315=CARTESIAN_POINT('Ctrl Pts',(-8.34944030290295,-11.5396538425762,100.217561523042));
#1316=CARTESIAN_POINT('Ctrl Pts',(-8.13066117801922,-11.2639826089018,100.038152026985));
#1317=CARTESIAN_POINT('Ctrl Pts',(-8.04155472640632,-11.1200466071914,99.9440570685019));
#1318=CARTESIAN_POINT('Ctrl Pts',(-7.88350468472434,-10.7894202246887,99.7260968669976));
#1319=CARTESIAN_POINT('Ctrl Pts',(-7.8227478093319,-10.6002025979976,99.6001068487098));
#1320=CARTESIAN_POINT('Ctrl Pts',(-7.73649099138937,-10.1324896360189,99.2905916374394));
#1321=CARTESIAN_POINT('Ctrl Pts',(-7.73915353157945,-9.85897174691817,99.1111360891481));
#1322=CARTESIAN_POINT('Ctrl Pts',(-7.8259251134324,-9.37765698556294,98.8250939024586));
#1323=CARTESIAN_POINT('Ctrl Pts',(-7.90192533421526,-9.1503318729731,98.7023946705278));
#1324=CARTESIAN_POINT('Ctrl Pts',(-8.10568681245906,-8.77236412802558,98.5552463104644));
#1325=CARTESIAN_POINT('Ctrl Pts',(-8.21293874745772,-8.61952508361157,98.5145102325282));
#1326=CARTESIAN_POINT('Ctrl Pts',(-8.47430199784898,-8.33488302022292,98.4938684147333));
#1327=CARTESIAN_POINT('Ctrl Pts',(-8.62075675500587,-8.21233656419714,98.5155533505963));
#1328=CARTESIAN_POINT('Ctrl Pts',(-8.99435246957015,-7.97100667047611,98.6298821912072));
#1329=CARTESIAN_POINT('Ctrl Pts',(-9.22202762547484,-7.87604330729563,98.7416651480349));
#1330=CARTESIAN_POINT('Ctrl Pts',(-9.72698743133071,-7.7480436707871,99.0264415686576));
#1331=CARTESIAN_POINT('Ctrl Pts',(-10.0267244236216,-7.72943895721255,99.2212216947712));
#1332=CARTESIAN_POINT('Ctrl Pts',(-10.5294657067577,-7.80385773090217,99.5529968131653));
#1333=CARTESIAN_POINT('Ctrl Pts',(-10.7268681156579,-7.86061805288683,99.6846322666795));
#1334=CARTESIAN_POINT('Ctrl Pts',(-11.0683535229611,-8.01278920222503,99.9101106667461));
#1335=CARTESIAN_POINT('Ctrl Pts',(-11.2154325680513,-8.09865540673153,100.006461141708));
#1336=CARTESIAN_POINT('Ctrl Pts',(-11.494276681201,-8.30864557951862,100.188099851168));
#1337=CARTESIAN_POINT('Ctrl Pts',(-11.6247645064862,-8.43277620830385,100.272539088182));
#1338=CARTESIAN_POINT('Ctrl Pts',(-11.8861911667823,-8.75202678818615,100.444364710094));
#1339=CARTESIAN_POINT('Ctrl Pts',(-12.0064003849696,-8.95412505412671,100.525434718869));
#1340=CARTESIAN_POINT('Ctrl Pts',(-12.1957553249173,-9.43544978463525,100.671994336513));
#1341=CARTESIAN_POINT('Ctrl Pts',(-12.2500001495265,-9.71455334897276,100.730550698012));
#1342=CARTESIAN_POINT('Ctrl Pts',(-12.2500001490116,-10.0000001530698,100.774355772123));
#1343=CARTESIAN_POINT('Ctrl Pts',(-12.2500001490116,-10.0000001530698,100.774355772123));
#1344=CARTESIAN_POINT('Ctrl Pts',(-12.2500001490007,-10.006043751039,100.775283231297));
#1345=CARTESIAN_POINT('Ctrl Pts',(-12.2499757989949,-10.0120901937302,100.776204069876));
#1346=CARTESIAN_POINT('Ctrl Pts',(-12.2475872943117,-10.3083524261715,100.820981095898));
#1347=CARTESIAN_POINT('Ctrl Pts',(-12.1890184509599,-10.5970238484975,100.848843256367));
#1348=CARTESIAN_POINT('Ctrl Pts',(-11.9632694942366,-11.1374813662419,100.884649365764));
#1349=CARTESIAN_POINT('Ctrl Pts',(-11.7984184690402,-11.3835623443225,100.892369183237));
#1350=CARTESIAN_POINT('Ctrl Pts',(-11.5909904066814,-11.5909904066813,100.892369183237));
#1351=CARTESIAN_POINT('',(11.5909904066813,11.5909904066813,100.892369183237));
#1352=CARTESIAN_POINT('',(7.75000014901161,10.000000149049,99.2059219293999));
#1353=CARTESIAN_POINT('Ctrl Pts',(11.5909904066813,11.5909904066813,100.892369183237));
#1354=CARTESIAN_POINT('Ctrl Pts',(11.3840830240143,11.7978977893484,100.892369183237));
#1355=CARTESIAN_POINT('Ctrl Pts',(11.1387654214447,11.9623944977745,100.884684965002));
#1356=CARTESIAN_POINT('Ctrl Pts',(10.6163541375391,12.1812596970187,100.850170006727));
#1357=CARTESIAN_POINT('Ctrl Pts',(10.3469459957319,12.2396629493359,100.824678544865));
#1358=CARTESIAN_POINT('Ctrl Pts',(9.80659845768997,12.2577182374224,100.74685069564));
#1359=CARTESIAN_POINT('Ctrl Pts',(9.54178368096793,12.2184565191902,100.69552160742));
#1360=CARTESIAN_POINT('Ctrl Pts',(9.04786063064668,12.0548237554616,100.559292484816));
#1361=CARTESIAN_POINT('Ctrl Pts',(8.82448853358146,11.9343758790028,100.476648492155));
#1362=CARTESIAN_POINT('Ctrl Pts',(8.47997002965862,11.6694620390804,100.301580305204));
#1363=CARTESIAN_POINT('Ctrl Pts',(8.34944030290293,11.5396538425761,100.217561523042));
#1364=CARTESIAN_POINT('Ctrl Pts',(8.13066117801919,11.2639826089018,100.038152026985));
#1365=CARTESIAN_POINT('Ctrl Pts',(8.04155472640628,11.1200466071913,99.9440570685018));
#1366=CARTESIAN_POINT('Ctrl Pts',(7.88350468472434,10.7894202246887,99.7260968669976));
#1367=CARTESIAN_POINT('Ctrl Pts',(7.82274780933189,10.6002025979976,99.6001068487098));
#1368=CARTESIAN_POINT('Ctrl Pts',(7.76203646696937,10.2710056436073,99.3822564293915));
#1369=CARTESIAN_POINT('Ctrl Pts',(7.75000014901608,10.1344065636782,99.2923439209737));
#1370=CARTESIAN_POINT('Ctrl Pts',(7.75000014901161,10.0000001490864,99.2059219293999));
#1371=CARTESIAN_POINT('Ctrl Pts',(7.75000014901161,10.0000001490864,99.2059219293999));
#1372=CARTESIAN_POINT('Ctrl Pts',(7.75000014900709,9.86416959465937,99.1185842300363));
#1373=CARTESIAN_POINT('Ctrl Pts',(7.76230211517464,9.73056847535266,99.0348268721333));
#1374=CARTESIAN_POINT('Ctrl Pts',(7.82592511343239,9.3776569855629,98.8250939024585));
#1375=CARTESIAN_POINT('Ctrl Pts',(7.90192533421526,9.15033187297308,98.7023946705278));
#1376=CARTESIAN_POINT('Ctrl Pts',(8.10568681245906,8.77236412802558,98.5552463104644));
#1377=CARTESIAN_POINT('Ctrl Pts',(8.21293874745772,8.61952508361156,98.5145102325282));
#1378=CARTESIAN_POINT('Ctrl Pts',(8.47430199784898,8.33488302022292,98.4938684147333));
#1379=CARTESIAN_POINT('Ctrl Pts',(8.62075675500585,8.21233656419714,98.5155533505963));
#1380=CARTESIAN_POINT('Ctrl Pts',(8.99435246957015,7.9710066704761,98.6298821912072));
#1381=CARTESIAN_POINT('Ctrl Pts',(9.22202762547485,7.87604330729563,98.7416651480349));
#1382=CARTESIAN_POINT('Ctrl Pts',(9.72698743133066,7.7480436707871,99.0264415686576));
#1383=CARTESIAN_POINT('Ctrl Pts',(10.0267244236216,7.72943895721255,99.2212216947712));
#1384=CARTESIAN_POINT('Ctrl Pts',(10.5294657067577,7.80385773090217,99.5529968131653));
#1385=CARTESIAN_POINT('Ctrl Pts',(10.7268681156578,7.86061805288683,99.6846322666795));
#1386=CARTESIAN_POINT('Ctrl Pts',(11.0683535229611,8.01278920222504,99.9101106667461));
#1387=CARTESIAN_POINT('Ctrl Pts',(11.2154325680513,8.09865540673154,100.006461141708));
#1388=CARTESIAN_POINT('Ctrl Pts',(11.4942766812009,8.30864557951862,100.188099851168));
#1389=CARTESIAN_POINT('Ctrl Pts',(11.6247645064862,8.43277620830385,100.272539088182));
#1390=CARTESIAN_POINT('Ctrl Pts',(11.8861911667824,8.75202678818618,100.444364710094));
#1391=CARTESIAN_POINT('Ctrl Pts',(12.0064003849696,8.95412505412674,100.525434718869));
#1392=CARTESIAN_POINT('Ctrl Pts',(12.1979139379646,9.44093680199807,100.673665090405));
#1393=CARTESIAN_POINT('Ctrl Pts',(12.2522792257181,9.72638075046847,100.733021990708));
#1394=CARTESIAN_POINT('Ctrl Pts',(12.2475872943117,10.3083524261715,100.820981095898));
#1395=CARTESIAN_POINT('Ctrl Pts',(12.1890184509599,10.5970238484975,100.848843256367));
#1396=CARTESIAN_POINT('Ctrl Pts',(11.9632694942366,11.1374813662419,100.884649365764));
#1397=CARTESIAN_POINT('Ctrl Pts',(11.7984184690402,11.3835623443225,100.892369183237));
#1398=CARTESIAN_POINT('Ctrl Pts',(11.5909904066813,11.5909904066813,100.892369183237));
#1399=CARTESIAN_POINT('Origin',(0.,9.7,91.0000013560057));
#1400=CARTESIAN_POINT('',(-1.7,7.50999334220744,91.0000013560057));
#1401=CARTESIAN_POINT('',(-1.7,9.7,91.0000013560057));
#1402=CARTESIAN_POINT('Ctrl Pts',(-1.7,7.50999334220744,91.0000013560057));
#1403=CARTESIAN_POINT('Ctrl Pts',(-1.7,7.50999334220744,91.2142276413798));
#1404=CARTESIAN_POINT('Ctrl Pts',(-1.65704187779997,7.52011190178267,91.4422309972337));
#1405=CARTESIAN_POINT('Ctrl Pts',(-1.48333611177983,7.55629437035539,91.8608550131753));
#1406=CARTESIAN_POINT('Ctrl Pts',(-1.35262513904725,7.58179627500902,92.0515392729927));
#1407=CARTESIAN_POINT('Ctrl Pts',(-1.05155054954396,7.62938182724692,92.352613862496));
#1408=CARTESIAN_POINT('Ctrl Pts',(-0.86086096536287,7.65460970864502,92.4833347138654));
#1409=CARTESIAN_POINT('Ctrl Pts',(-0.442218298946531,7.69016088041649,92.6570476616463));
#1410=CARTESIAN_POINT('Ctrl Pts',(-0.214208309016799,7.7,92.7000013560057));
#1411=CARTESIAN_POINT('Ctrl Pts',(0.2142083090168,7.7,92.7000013560057));
#1412=CARTESIAN_POINT('Ctrl Pts',(0.442218298946532,7.69016088041649,92.6570476616463));
#1413=CARTESIAN_POINT('Ctrl Pts',(0.86086096536287,7.65460970864502,92.4833347138654));
#1414=CARTESIAN_POINT('Ctrl Pts',(1.05155054954396,7.62938182724692,92.352613862496));
#1415=CARTESIAN_POINT('Ctrl Pts',(1.35262513904725,7.58179627500902,92.0515392729927));
#1416=CARTESIAN_POINT('Ctrl Pts',(1.48333611177984,7.55629437035539,91.8608550131753));
#1417=CARTESIAN_POINT('Ctrl Pts',(1.65704187779997,7.52011190178267,91.4422309972337));
#1418=CARTESIAN_POINT('Ctrl Pts',(1.7,7.50999334220744,91.2142276413798));
#1419=CARTESIAN_POINT('Ctrl Pts',(1.7,7.50999334220744,90.7857750706315));
#1420=CARTESIAN_POINT('Ctrl Pts',(1.65704187779997,7.52011190178267,90.5577717147777));
#1421=CARTESIAN_POINT('Ctrl Pts',(1.48333611177983,7.55629437035539,90.139147698836));
#1422=CARTESIAN_POINT('Ctrl Pts',(1.35262513904725,7.58179627500902,89.9484634390187));
#1423=CARTESIAN_POINT('Ctrl Pts',(1.05155054954396,7.62938182724692,89.6473888495154));
#1424=CARTESIAN_POINT('Ctrl Pts',(0.860860965362871,7.65460970864502,89.5166679981459));
#1425=CARTESIAN_POINT('Ctrl Pts',(0.442218298946532,7.69016088041649,89.342955050365));
#1426=CARTESIAN_POINT('Ctrl Pts',(0.2142083090168,7.7,89.3000013560057));
#1427=CARTESIAN_POINT('Ctrl Pts',(-0.2142083090168,7.7,89.3000013560057));
#1428=CARTESIAN_POINT('Ctrl Pts',(-0.442218298946532,7.69016088041649,89.342955050365));
#1429=CARTESIAN_POINT('Ctrl Pts',(-0.86086096536287,7.65460970864502,89.5166679981459));
#1430=CARTESIAN_POINT('Ctrl Pts',(-1.05155054954396,7.62938182724692,89.6473888495154));
#1431=CARTESIAN_POINT('Ctrl Pts',(-1.35262513904725,7.58179627500902,89.9484634390187));
#1432=CARTESIAN_POINT('Ctrl Pts',(-1.48333611177983,7.55629437035539,90.139147698836));
#1433=CARTESIAN_POINT('Ctrl Pts',(-1.65704187779997,7.52011190178267,90.5577717147777));
#1434=CARTESIAN_POINT('Ctrl Pts',(-1.7,7.50999334220744,90.7857750706315));
#1435=CARTESIAN_POINT('Ctrl Pts',(-1.7,7.50999334220744,91.0000013560057));
#1436=CARTESIAN_POINT('Origin',(-10.0000001490116,10.0000001490116,86.));
#1437=CARTESIAN_POINT('',(-12.2500001490116,10.0000001490116,102.));
#1438=CARTESIAN_POINT('',(-12.2500001490116,10.0000001490116,86.));
#1439=CARTESIAN_POINT('Origin',(-10.0000001490116,10.0000001490116,102.));
#1440=CARTESIAN_POINT('Origin',(-10.0000001490116,10.0000001490116,102.));
#1441=CARTESIAN_POINT('',(-8.31162697096764,10.1116269709676,102.));
#1442=CARTESIAN_POINT('Origin',(-10.1116269709676,10.1116269709676,102.));
#1443=CARTESIAN_POINT('Origin',(10.0000001490116,-10.0000001490116,86.));
#1444=CARTESIAN_POINT('',(7.75000014901161,-10.0000001490116,102.));
#1445=CARTESIAN_POINT('',(7.75000014901161,-10.0000001490116,86.));
#1446=CARTESIAN_POINT('Origin',(10.0000001490116,-10.0000001490116,102.));
#1447=CARTESIAN_POINT('Origin',(10.0000001490116,-10.0000001490116,102.));
#1448=CARTESIAN_POINT('',(11.9116269709676,-10.1116269709676,102.));
#1449=CARTESIAN_POINT('Origin',(10.1116269709676,-10.1116269709676,102.));
#1450=CARTESIAN_POINT('Origin',(-10.0000001490116,-10.0000001490116,86.));
#1451=CARTESIAN_POINT('',(-12.2500001490116,-10.0000001490116,102.));
#1452=CARTESIAN_POINT('',(-12.2500001490116,-10.0000001490116,86.));
#1453=CARTESIAN_POINT('Origin',(-10.0000001490116,-10.0000001490116,102.));
#1454=CARTESIAN_POINT('Origin',(-10.0000001490116,-10.0000001490116,102.));
#1455=CARTESIAN_POINT('',(-8.31162697096763,-10.1116269709676,102.));
#1456=CARTESIAN_POINT('Origin',(-10.1116269709676,-10.1116269709676,102.));
#1457=CARTESIAN_POINT('Origin',(10.0000001490116,10.0000001490116,86.));
#1458=CARTESIAN_POINT('',(7.75000014901161,10.0000001490116,102.));
#1459=CARTESIAN_POINT('',(7.75000014901161,10.0000001490116,86.));
#1460=CARTESIAN_POINT('Origin',(10.0000001490116,10.0000001490116,102.));
#1461=CARTESIAN_POINT('Origin',(10.0000001490116,10.0000001490116,102.));
#1462=CARTESIAN_POINT('',(11.9116269709676,10.1116269709676,102.));
#1463=CARTESIAN_POINT('Origin',(10.1116269709676,10.1116269709676,102.));
#1464=CARTESIAN_POINT('Origin',(-10.1116269709676,10.1116269709676,105.));
#1465=CARTESIAN_POINT('',(-8.31162697096764,10.1116269709676,105.));
#1466=CARTESIAN_POINT('Origin',(-10.1116269709676,10.1116269709676,105.));
#1467=CARTESIAN_POINT('',(-8.31162697096764,10.1116269709676,105.));
#1468=CARTESIAN_POINT('Origin',(-10.1116269709676,-10.1116269709676,105.));
#1469=CARTESIAN_POINT('',(-8.31162697096763,-10.1116269709676,105.));
#1470=CARTESIAN_POINT('Origin',(-10.1116269709676,-10.1116269709676,105.));
#1471=CARTESIAN_POINT('',(-8.31162697096763,-10.1116269709676,105.));
#1472=CARTESIAN_POINT('Origin',(10.1116269709676,10.1116269709676,105.));
#1473=CARTESIAN_POINT('',(11.9116269709676,10.1116269709676,105.));
#1474=CARTESIAN_POINT('Origin',(10.1116269709676,10.1116269709676,105.));
#1475=CARTESIAN_POINT('',(11.9116269709676,10.1116269709676,105.));
#1476=CARTESIAN_POINT('Origin',(10.1116269709676,-10.1116269709676,105.));
#1477=CARTESIAN_POINT('',(11.9116269709676,-10.1116269709676,105.));
#1478=CARTESIAN_POINT('Origin',(10.1116269709676,-10.1116269709676,105.));
#1479=CARTESIAN_POINT('',(11.9116269709676,-10.1116269709676,105.));
#1480=CARTESIAN_POINT('Origin',(0.,0.,101.));
#1481=CARTESIAN_POINT('',(15.,15.,101.));
#1482=CARTESIAN_POINT('',(-15.,15.,101.));
#1483=CARTESIAN_POINT('',(15.,15.,101.));
#1484=CARTESIAN_POINT('Origin',(0.,0.,101.));
#1485=CARTESIAN_POINT('',(-15.,15.,101.));
#1486=CARTESIAN_POINT('',(-15.,-15.,101.));
#1487=CARTESIAN_POINT('',(-15.,15.,101.));
#1488=CARTESIAN_POINT('Origin',(0.,0.,101.));
#1489=CARTESIAN_POINT('',(-15.,-15.,101.));
#1490=CARTESIAN_POINT('',(15.,-15.,101.));
#1491=CARTESIAN_POINT('',(-15.,-15.,101.));
#1492=CARTESIAN_POINT('Origin',(0.,0.,101.));
#1493=CARTESIAN_POINT('',(-9.7,-1.18790739517293E-15,76.));
#1494=CARTESIAN_POINT('Origin',(0.,0.,76.));
#1495=CARTESIAN_POINT('',(-9.7,1.18790739517293E-15,101.));
#1496=CARTESIAN_POINT('Origin',(0.,0.,101.));
#1497=CARTESIAN_POINT('',(-7.7,-9.42978035343462E-16,101.));
#1498=CARTESIAN_POINT('Origin',(0.,0.,101.));
#1499=CARTESIAN_POINT('Origin',(0.,0.,101.));
#1500=CARTESIAN_POINT('',(15.,-15.,101.));
#1501=CARTESIAN_POINT('',(15.,15.,101.));
#1502=CARTESIAN_POINT('',(15.,-15.,101.));
#1503=CARTESIAN_POINT('Origin',(15.,-15.,101.));
#1504=CARTESIAN_POINT('',(15.,15.,105.));
#1505=CARTESIAN_POINT('',(15.,15.,101.));
#1506=CARTESIAN_POINT('',(15.,-15.,105.));
#1507=CARTESIAN_POINT('',(15.,15.,105.));
#1508=CARTESIAN_POINT('',(15.,-15.,101.));
#1509=CARTESIAN_POINT('Origin',(-15.,-15.,101.));
#1510=CARTESIAN_POINT('',(-15.,-15.,105.));
#1511=CARTESIAN_POINT('',(15.,-15.,105.));
#1512=CARTESIAN_POINT('',(-15.,-15.,101.));
#1513=CARTESIAN_POINT('Origin',(-15.,15.,101.));
#1514=CARTESIAN_POINT('',(-15.,15.,105.));
#1515=CARTESIAN_POINT('',(-15.,-15.,105.));
#1516=CARTESIAN_POINT('',(-15.,15.,101.));
#1517=CARTESIAN_POINT('Origin',(15.,15.,101.));
#1518=CARTESIAN_POINT('',(-15.,15.,105.));
#1519=CARTESIAN_POINT('Origin',(0.,0.,105.));
#1520=CARTESIAN_POINT('Origin',(0.,0.,101.));
#1521=CARTESIAN_POINT('',(-7.7,9.42978035343462E-16,76.));
#1522=CARTESIAN_POINT('Origin',(0.,0.,76.));
#1523=CARTESIAN_POINT('',(-7.7,9.42978035343462E-16,101.));
#1524=CARTESIAN_POINT('Origin',(0.,0.,76.));
#1525=UNCERTAINTY_MEASURE_WITH_UNIT(LENGTH_MEASURE(0.01),#1529,
'DISTANCE_ACCURACY_VALUE',
'Maximum model space distance between geometric entities at asserted c
onnectivities');
#1526=UNCERTAINTY_MEASURE_WITH_UNIT(LENGTH_MEASURE(0.01),#1529,
'DISTANCE_ACCURACY_VALUE',
'Maximum model space distance between geometric entities at asserted c
onnectivities');
#1527=(
GEOMETRIC_REPRESENTATION_CONTEXT(3)
GLOBAL_UNCERTAINTY_ASSIGNED_CONTEXT((#1525))
GLOBAL_UNIT_ASSIGNED_CONTEXT((#1529,#1531,#1532))
REPRESENTATION_CONTEXT('','3D')
);
#1528=(
GEOMETRIC_REPRESENTATION_CONTEXT(3)
GLOBAL_UNCERTAINTY_ASSIGNED_CONTEXT((#1526))
GLOBAL_UNIT_ASSIGNED_CONTEXT((#1529,#1531,#1532))
REPRESENTATION_CONTEXT('','3D')
);
#1529=(
LENGTH_UNIT()
NAMED_UNIT(*)
SI_UNIT(.MILLI.,.METRE.)
);
#1530=(
LENGTH_UNIT()
NAMED_UNIT(*)
SI_UNIT($,.METRE.)
);
#1531=(
NAMED_UNIT(*)
PLANE_ANGLE_UNIT()
SI_UNIT($,.RADIAN.)
);
#1532=(
NAMED_UNIT(*)
SI_UNIT($,.STERADIAN.)
SOLID_ANGLE_UNIT()
);
#1533=SHAPE_DEFINITION_REPRESENTATION(#1534,#1535);
#1534=PRODUCT_DEFINITION_SHAPE('',$,#1537);
#1535=SHAPE_REPRESENTATION('',(#632),#1527);
#1536=PRODUCT_DEFINITION_CONTEXT('part definition',#1541,'design');
#1537=PRODUCT_DEFINITION('Top Tray Monut','Top Tray Monut v2',#1538,#1536);
#1538=PRODUCT_DEFINITION_FORMATION('',$,#1543);
#1539=PRODUCT_RELATED_PRODUCT_CATEGORY('Top Tray Monut v2',
'Top Tray Monut v2',(#1543));
#1540=APPLICATION_PROTOCOL_DEFINITION('international standard',
'automotive_design',2009,#1541);
#1541=APPLICATION_CONTEXT(
'Core Data for Automotive Mechanical Design Process');
#1542=PRODUCT_CONTEXT('part definition',#1541,'mechanical');
#1543=PRODUCT('Top Tray Monut','Top Tray Monut v2',$,(#1542));
#1544=PRESENTATION_STYLE_ASSIGNMENT((#1545));
#1545=SURFACE_STYLE_USAGE(.BOTH.,#1546);
#1546=SURFACE_SIDE_STYLE('',(#1547));
#1547=SURFACE_STYLE_FILL_AREA(#1548);
#1548=FILL_AREA_STYLE('Steel - Satin',(#1549));
#1549=FILL_AREA_STYLE_COLOUR('Steel - Satin',#1550);
#1550=COLOUR_RGB('Steel - Satin',0.627450980392157,0.627450980392157,0.627450980392157);
ENDSEC;
END-ISO-10303-21;
