ISO-10303-21;
HEADER;
/* Generated by software containing ST-Developer
 * from STEP Tools, Inc. (www.steptools.com) 
 */

FILE_DESCRIPTION(
/* description */ (''),
/* implementation_level */ '2;1');

FILE_NAME(
/* name */ 'zed mini mount v1.step',
/* time_stamp */ '2026-03-01T00:21:17+05:30',
/* author */ (''),
/* organization */ (''),
/* preprocessor_version */ 'ST-DEVELOPER v20.1',
/* originating_system */ 'Autodesk Translation Framework v14.24.0.0',
/* authorisation */ '');

FILE_SCHEMA (('AUTOMOTIVE_DESIGN { 1 0 10303 214 3 1 1 }'));
ENDSEC;

DATA;
#10=MECHANICAL_DESIGN_GEOMETRIC_PRESENTATION_REPRESENTATION('',(#13),#1556);
#11=SHAPE_REPRESENTATION_RELATIONSHIP('SRR','None',#1563,#12);
#12=ADVANCED_BREP_SHAPE_REPRESENTATION('',(#14),#1555);
#13=STYLED_ITEM('',(#1572),#14);
#14=MANIFOLD_SOLID_BREP('Body1',#974);
#15=CYLINDRICAL_SURFACE('',#1024,1.5);
#16=CYLINDRICAL_SURFACE('',#1041,1.5);
#17=CYLINDRICAL_SURFACE('',#1042,1.5);
#18=CYLINDRICAL_SURFACE('',#1043,1.5);
#19=CYLINDRICAL_SURFACE('',#1044,1.5);
#20=FACE_BOUND('',#92,.T.);
#21=FACE_BOUND('',#93,.T.);
#22=FACE_BOUND('',#94,.T.);
#23=FACE_BOUND('',#95,.T.);
#24=FACE_BOUND('',#97,.T.);
#25=FACE_BOUND('',#98,.T.);
#26=FACE_BOUND('',#103,.T.);
#27=FACE_BOUND('',#106,.T.);
#28=FACE_BOUND('',#110,.T.);
#29=FACE_BOUND('',#112,.T.);
#30=FACE_BOUND('',#123,.T.);
#31=FACE_BOUND('',#128,.T.);
#32=FACE_BOUND('',#135,.T.);
#33=FACE_BOUND('',#143,.T.);
#34=CIRCLE('',#989,1.5);
#35=CIRCLE('',#990,1.5);
#36=CIRCLE('',#991,1.5);
#37=CIRCLE('',#992,1.5);
#38=CIRCLE('',#994,1.5);
#39=CIRCLE('',#995,1.5);
#40=CIRCLE('',#1016,1.5);
#41=CIRCLE('',#1021,1.5);
#42=CIRCLE('',#1028,1.5);
#43=CIRCLE('',#1036,1.5);
#44=FACE_OUTER_BOUND('',#91,.T.);
#45=FACE_OUTER_BOUND('',#96,.T.);
#46=FACE_OUTER_BOUND('',#99,.T.);
#47=FACE_OUTER_BOUND('',#100,.T.);
#48=FACE_OUTER_BOUND('',#101,.T.);
#49=FACE_OUTER_BOUND('',#102,.T.);
#50=FACE_OUTER_BOUND('',#104,.T.);
#51=FACE_OUTER_BOUND('',#105,.T.);
#52=FACE_OUTER_BOUND('',#107,.T.);
#53=FACE_OUTER_BOUND('',#108,.T.);
#54=FACE_OUTER_BOUND('',#109,.T.);
#55=FACE_OUTER_BOUND('',#111,.T.);
#56=FACE_OUTER_BOUND('',#113,.T.);
#57=FACE_OUTER_BOUND('',#114,.T.);
#58=FACE_OUTER_BOUND('',#115,.T.);
#59=FACE_OUTER_BOUND('',#116,.T.);
#60=FACE_OUTER_BOUND('',#117,.T.);
#61=FACE_OUTER_BOUND('',#118,.T.);
#62=FACE_OUTER_BOUND('',#119,.T.);
#63=FACE_OUTER_BOUND('',#120,.T.);
#64=FACE_OUTER_BOUND('',#121,.T.);
#65=FACE_OUTER_BOUND('',#122,.T.);
#66=FACE_OUTER_BOUND('',#124,.T.);
#67=FACE_OUTER_BOUND('',#125,.T.);
#68=FACE_OUTER_BOUND('',#126,.T.);
#69=FACE_OUTER_BOUND('',#127,.T.);
#70=FACE_OUTER_BOUND('',#129,.T.);
#71=FACE_OUTER_BOUND('',#130,.T.);
#72=FACE_OUTER_BOUND('',#131,.T.);
#73=FACE_OUTER_BOUND('',#132,.T.);
#74=FACE_OUTER_BOUND('',#133,.T.);
#75=FACE_OUTER_BOUND('',#134,.T.);
#76=FACE_OUTER_BOUND('',#136,.T.);
#77=FACE_OUTER_BOUND('',#137,.T.);
#78=FACE_OUTER_BOUND('',#138,.T.);
#79=FACE_OUTER_BOUND('',#139,.T.);
#80=FACE_OUTER_BOUND('',#140,.T.);
#81=FACE_OUTER_BOUND('',#141,.T.);
#82=FACE_OUTER_BOUND('',#142,.T.);
#83=FACE_OUTER_BOUND('',#144,.T.);
#84=FACE_OUTER_BOUND('',#145,.T.);
#85=FACE_OUTER_BOUND('',#146,.T.);
#86=FACE_OUTER_BOUND('',#147,.T.);
#87=FACE_OUTER_BOUND('',#148,.T.);
#88=FACE_OUTER_BOUND('',#149,.T.);
#89=FACE_OUTER_BOUND('',#150,.T.);
#90=FACE_OUTER_BOUND('',#151,.T.);
#91=EDGE_LOOP('',(#619,#620,#621,#622,#623,#624,#625,#626,#627,#628,#629,
#630,#631,#632,#633,#634,#635,#636,#637,#638));
#92=EDGE_LOOP('',(#639));
#93=EDGE_LOOP('',(#640));
#94=EDGE_LOOP('',(#641));
#95=EDGE_LOOP('',(#642));
#96=EDGE_LOOP('',(#643,#644,#645,#646,#647,#648,#649,#650,#651,#652,#653,
#654));
#97=EDGE_LOOP('',(#655));
#98=EDGE_LOOP('',(#656));
#99=EDGE_LOOP('',(#657,#658,#659,#660,#661,#662,#663,#664));
#100=EDGE_LOOP('',(#665,#666,#667,#668));
#101=EDGE_LOOP('',(#669,#670,#671,#672,#673,#674,#675,#676,#677,#678,#679,
#680));
#102=EDGE_LOOP('',(#681,#682,#683,#684,#685,#686,#687,#688));
#103=EDGE_LOOP('',(#689,#690,#691,#692,#693,#694));
#104=EDGE_LOOP('',(#695,#696,#697,#698));
#105=EDGE_LOOP('',(#699,#700,#701,#702));
#106=EDGE_LOOP('',(#703,#704,#705,#706));
#107=EDGE_LOOP('',(#707,#708,#709,#710,#711,#712,#713,#714));
#108=EDGE_LOOP('',(#715,#716,#717,#718));
#109=EDGE_LOOP('',(#719,#720,#721,#722));
#110=EDGE_LOOP('',(#723,#724,#725,#726));
#111=EDGE_LOOP('',(#727,#728,#729,#730,#731,#732,#733,#734));
#112=EDGE_LOOP('',(#735,#736,#737,#738));
#113=EDGE_LOOP('',(#739,#740,#741,#742));
#114=EDGE_LOOP('',(#743,#744,#745,#746));
#115=EDGE_LOOP('',(#747,#748,#749,#750));
#116=EDGE_LOOP('',(#751,#752,#753,#754));
#117=EDGE_LOOP('',(#755,#756,#757,#758));
#118=EDGE_LOOP('',(#759,#760,#761,#762));
#119=EDGE_LOOP('',(#763,#764,#765,#766));
#120=EDGE_LOOP('',(#767,#768,#769,#770));
#121=EDGE_LOOP('',(#771,#772,#773,#774));
#122=EDGE_LOOP('',(#775,#776,#777,#778,#779,#780));
#123=EDGE_LOOP('',(#781));
#124=EDGE_LOOP('',(#782,#783,#784,#785));
#125=EDGE_LOOP('',(#786,#787,#788,#789));
#126=EDGE_LOOP('',(#790,#791,#792,#793));
#127=EDGE_LOOP('',(#794,#795,#796,#797));
#128=EDGE_LOOP('',(#798));
#129=EDGE_LOOP('',(#799,#800,#801,#802));
#130=EDGE_LOOP('',(#803,#804,#805,#806));
#131=EDGE_LOOP('',(#807,#808,#809,#810));
#132=EDGE_LOOP('',(#811,#812,#813,#814));
#133=EDGE_LOOP('',(#815,#816,#817,#818));
#134=EDGE_LOOP('',(#819,#820,#821,#822));
#135=EDGE_LOOP('',(#823));
#136=EDGE_LOOP('',(#824,#825,#826,#827));
#137=EDGE_LOOP('',(#828,#829,#830,#831));
#138=EDGE_LOOP('',(#832,#833,#834,#835));
#139=EDGE_LOOP('',(#836,#837,#838,#839));
#140=EDGE_LOOP('',(#840,#841,#842,#843));
#141=EDGE_LOOP('',(#844,#845,#846,#847));
#142=EDGE_LOOP('',(#848,#849,#850,#851));
#143=EDGE_LOOP('',(#852));
#144=EDGE_LOOP('',(#853,#854,#855,#856));
#145=EDGE_LOOP('',(#857,#858,#859,#860));
#146=EDGE_LOOP('',(#861,#862,#863,#864));
#147=EDGE_LOOP('',(#865,#866,#867,#868));
#148=EDGE_LOOP('',(#869,#870,#871,#872));
#149=EDGE_LOOP('',(#873,#874,#875,#876));
#150=EDGE_LOOP('',(#877,#878,#879,#880));
#151=EDGE_LOOP('',(#881,#882,#883,#884));
#152=LINE('',#1288,#275);
#153=LINE('',#1290,#276);
#154=LINE('',#1292,#277);
#155=LINE('',#1294,#278);
#156=LINE('',#1296,#279);
#157=LINE('',#1298,#280);
#158=LINE('',#1300,#281);
#159=LINE('',#1302,#282);
#160=LINE('',#1304,#283);
#161=LINE('',#1306,#284);
#162=LINE('',#1308,#285);
#163=LINE('',#1310,#286);
#164=LINE('',#1312,#287);
#165=LINE('',#1314,#288);
#166=LINE('',#1316,#289);
#167=LINE('',#1318,#290);
#168=LINE('',#1320,#291);
#169=LINE('',#1322,#292);
#170=LINE('',#1324,#293);
#171=LINE('',#1325,#294);
#172=LINE('',#1337,#295);
#173=LINE('',#1339,#296);
#174=LINE('',#1341,#297);
#175=LINE('',#1343,#298);
#176=LINE('',#1345,#299);
#177=LINE('',#1347,#300);
#178=LINE('',#1349,#301);
#179=LINE('',#1351,#302);
#180=LINE('',#1353,#303);
#181=LINE('',#1355,#304);
#182=LINE('',#1357,#305);
#183=LINE('',#1358,#306);
#184=LINE('',#1364,#307);
#185=LINE('',#1366,#308);
#186=LINE('',#1368,#309);
#187=LINE('',#1370,#310);
#188=LINE('',#1372,#311);
#189=LINE('',#1373,#312);
#190=LINE('',#1375,#313);
#191=LINE('',#1376,#314);
#192=LINE('',#1380,#315);
#193=LINE('',#1381,#316);
#194=LINE('',#1383,#317);
#195=LINE('',#1385,#318);
#196=LINE('',#1386,#319);
#197=LINE('',#1388,#320);
#198=LINE('',#1390,#321);
#199=LINE('',#1391,#322);
#200=LINE('',#1392,#323);
#201=LINE('',#1396,#324);
#202=LINE('',#1398,#325);
#203=LINE('',#1400,#326);
#204=LINE('',#1401,#327);
#205=LINE('',#1402,#328);
#206=LINE('',#1403,#329);
#207=LINE('',#1406,#330);
#208=LINE('',#1408,#331);
#209=LINE('',#1410,#332);
#210=LINE('',#1412,#333);
#211=LINE('',#1414,#334);
#212=LINE('',#1415,#335);
#213=LINE('',#1418,#336);
#214=LINE('',#1421,#337);
#215=LINE('',#1423,#338);
#216=LINE('',#1425,#339);
#217=LINE('',#1426,#340);
#218=LINE('',#1428,#341);
#219=LINE('',#1430,#342);
#220=LINE('',#1432,#343);
#221=LINE('',#1433,#344);
#222=LINE('',#1436,#345);
#223=LINE('',#1437,#346);
#224=LINE('',#1440,#347);
#225=LINE('',#1441,#348);
#226=LINE('',#1444,#349);
#227=LINE('',#1446,#350);
#228=LINE('',#1448,#351);
#229=LINE('',#1449,#352);
#230=LINE('',#1452,#353);
#231=LINE('',#1454,#354);
#232=LINE('',#1455,#355);
#233=LINE('',#1456,#356);
#234=LINE('',#1459,#357);
#235=LINE('',#1461,#358);
#236=LINE('',#1463,#359);
#237=LINE('',#1464,#360);
#238=LINE('',#1467,#361);
#239=LINE('',#1468,#362);
#240=LINE('',#1470,#363);
#241=LINE('',#1472,#364);
#242=LINE('',#1475,#365);
#243=LINE('',#1476,#366);
#244=LINE('',#1480,#367);
#245=LINE('',#1481,#368);
#246=LINE('',#1484,#369);
#247=LINE('',#1485,#370);
#248=LINE('',#1487,#371);
#249=LINE('',#1488,#372);
#250=LINE('',#1492,#373);
#251=LINE('',#1496,#374);
#252=LINE('',#1497,#375);
#253=LINE('',#1500,#376);
#254=LINE('',#1501,#377);
#255=LINE('',#1505,#378);
#256=LINE('',#1508,#379);
#257=LINE('',#1511,#380);
#258=LINE('',#1512,#381);
#259=LINE('',#1515,#382);
#260=LINE('',#1516,#383);
#261=LINE('',#1518,#384);
#262=LINE('',#1523,#385);
#263=LINE('',#1524,#386);
#264=LINE('',#1529,#387);
#265=LINE('',#1530,#388);
#266=LINE('',#1533,#389);
#267=LINE('',#1534,#390);
#268=LINE('',#1536,#391);
#269=LINE('',#1541,#392);
#270=LINE('',#1542,#393);
#271=LINE('',#1546,#394);
#272=LINE('',#1548,#395);
#273=LINE('',#1550,#396);
#274=LINE('',#1552,#397);
#275=VECTOR('',#1049,45.);
#276=VECTOR('',#1050,7.);
#277=VECTOR('',#1051,20.);
#278=VECTOR('',#1052,6.99999999999999);
#279=VECTOR('',#1053,10.);
#280=VECTOR('',#1054,6.99999999999999);
#281=VECTOR('',#1055,20.);
#282=VECTOR('',#1056,7.);
#283=VECTOR('',#1057,45.);
#284=VECTOR('',#1058,23.);
#285=VECTOR('',#1059,45.);
#286=VECTOR('',#1060,7.);
#287=VECTOR('',#1061,20.);
#288=VECTOR('',#1062,7.);
#289=VECTOR('',#1063,10.);
#290=VECTOR('',#1064,7.);
#291=VECTOR('',#1065,20.);
#292=VECTOR('',#1066,7.);
#293=VECTOR('',#1067,45.);
#294=VECTOR('',#1068,23.);
#295=VECTOR('',#1079,10.);
#296=VECTOR('',#1080,6.99999999999999);
#297=VECTOR('',#1081,20.);
#298=VECTOR('',#1082,7.);
#299=VECTOR('',#1083,40.);
#300=VECTOR('',#1084,18.);
#301=VECTOR('',#1085,130.);
#302=VECTOR('',#1086,18.);
#303=VECTOR('',#1087,40.);
#304=VECTOR('',#1088,7.);
#305=VECTOR('',#1089,20.);
#306=VECTOR('',#1090,6.99999999999999);
#307=VECTOR('',#1097,4.99999999999999);
#308=VECTOR('',#1098,40.);
#309=VECTOR('',#1099,55.);
#310=VECTOR('',#1100,5.00000000000001);
#311=VECTOR('',#1101,50.);
#312=VECTOR('',#1102,30.);
#313=VECTOR('',#1105,4.99999999999999);
#314=VECTOR('',#1106,4.99999999999999);
#315=VECTOR('',#1109,20.);
#316=VECTOR('',#1110,5.);
#317=VECTOR('',#1111,5.);
#318=VECTOR('',#1112,20.);
#319=VECTOR('',#1113,5.);
#320=VECTOR('',#1114,40.);
#321=VECTOR('',#1115,140.);
#322=VECTOR('',#1116,40.);
#323=VECTOR('',#1117,5.);
#324=VECTOR('',#1120,55.);
#325=VECTOR('',#1121,10.);
#326=VECTOR('',#1122,30.);
#327=VECTOR('',#1123,9.99999999999999);
#328=VECTOR('',#1124,23.);
#329=VECTOR('',#1125,23.);
#330=VECTOR('',#1126,3.99999999999999);
#331=VECTOR('',#1127,15.);
#332=VECTOR('',#1128,3.99999999999999);
#333=VECTOR('',#1129,4.);
#334=VECTOR('',#1130,15.);
#335=VECTOR('',#1131,4.);
#336=VECTOR('',#1136,40.);
#337=VECTOR('',#1137,12.5);
#338=VECTOR('',#1138,25.);
#339=VECTOR('',#1139,12.5);
#340=VECTOR('',#1140,25.);
#341=VECTOR('',#1143,4.99999999999999);
#342=VECTOR('',#1144,30.);
#343=VECTOR('',#1145,50.);
#344=VECTOR('',#1146,5.00000000000001);
#345=VECTOR('',#1149,18.);
#346=VECTOR('',#1150,30.);
#347=VECTOR('',#1153,30.);
#348=VECTOR('',#1154,18.);
#349=VECTOR('',#1155,12.5);
#350=VECTOR('',#1156,25.);
#351=VECTOR('',#1157,12.5);
#352=VECTOR('',#1158,25.);
#353=VECTOR('',#1161,9.99999999999999);
#354=VECTOR('',#1162,30.);
#355=VECTOR('',#1163,10.);
#356=VECTOR('',#1164,130.);
#357=VECTOR('',#1165,4.);
#358=VECTOR('',#1166,15.);
#359=VECTOR('',#1167,4.);
#360=VECTOR('',#1168,15.);
#361=VECTOR('',#1173,5.00000000000004);
#362=VECTOR('',#1174,5.00000000000004);
#363=VECTOR('',#1177,5.00000000000004);
#364=VECTOR('',#1180,5.00000000000004);
#365=VECTOR('',#1185,5.);
#366=VECTOR('',#1186,5.);
#367=VECTOR('',#1193,5.);
#368=VECTOR('',#1194,5.);
#369=VECTOR('',#1197,10.);
#370=VECTOR('',#1198,5.);
#371=VECTOR('',#1199,10.);
#372=VECTOR('',#1200,15.);
#373=VECTOR('',#1205,5.00000000000001);
#374=VECTOR('',#1210,10.);
#375=VECTOR('',#1211,3.99999999999999);
#376=VECTOR('',#1214,10.);
#377=VECTOR('',#1215,15.);
#378=VECTOR('',#1220,3.99999999999999);
#379=VECTOR('',#1225,1.5);
#380=VECTOR('',#1228,7.);
#381=VECTOR('',#1229,5.);
#382=VECTOR('',#1232,7.);
#383=VECTOR('',#1233,5.);
#384=VECTOR('',#1236,20.);
#385=VECTOR('',#1243,5.);
#386=VECTOR('',#1244,5.);
#387=VECTOR('',#1251,7.);
#388=VECTOR('',#1252,5.);
#389=VECTOR('',#1255,5.);
#390=VECTOR('',#1256,7.);
#391=VECTOR('',#1259,20.);
#392=VECTOR('',#1266,5.);
#393=VECTOR('',#1267,5.);
#394=VECTOR('',#1274,1.5);
#395=VECTOR('',#1277,1.5);
#396=VECTOR('',#1280,1.5);
#397=VECTOR('',#1283,1.5);
#398=VERTEX_POINT('',#1286);
#399=VERTEX_POINT('',#1287);
#400=VERTEX_POINT('',#1289);
#401=VERTEX_POINT('',#1291);
#402=VERTEX_POINT('',#1293);
#403=VERTEX_POINT('',#1295);
#404=VERTEX_POINT('',#1297);
#405=VERTEX_POINT('',#1299);
#406=VERTEX_POINT('',#1301);
#407=VERTEX_POINT('',#1303);
#408=VERTEX_POINT('',#1305);
#409=VERTEX_POINT('',#1307);
#410=VERTEX_POINT('',#1309);
#411=VERTEX_POINT('',#1311);
#412=VERTEX_POINT('',#1313);
#413=VERTEX_POINT('',#1315);
#414=VERTEX_POINT('',#1317);
#415=VERTEX_POINT('',#1319);
#416=VERTEX_POINT('',#1321);
#417=VERTEX_POINT('',#1323);
#418=VERTEX_POINT('',#1326);
#419=VERTEX_POINT('',#1328);
#420=VERTEX_POINT('',#1330);
#421=VERTEX_POINT('',#1332);
#422=VERTEX_POINT('',#1335);
#423=VERTEX_POINT('',#1336);
#424=VERTEX_POINT('',#1338);
#425=VERTEX_POINT('',#1340);
#426=VERTEX_POINT('',#1342);
#427=VERTEX_POINT('',#1344);
#428=VERTEX_POINT('',#1346);
#429=VERTEX_POINT('',#1348);
#430=VERTEX_POINT('',#1350);
#431=VERTEX_POINT('',#1352);
#432=VERTEX_POINT('',#1354);
#433=VERTEX_POINT('',#1356);
#434=VERTEX_POINT('',#1359);
#435=VERTEX_POINT('',#1361);
#436=VERTEX_POINT('',#1365);
#437=VERTEX_POINT('',#1367);
#438=VERTEX_POINT('',#1369);
#439=VERTEX_POINT('',#1371);
#440=VERTEX_POINT('',#1378);
#441=VERTEX_POINT('',#1379);
#442=VERTEX_POINT('',#1382);
#443=VERTEX_POINT('',#1384);
#444=VERTEX_POINT('',#1387);
#445=VERTEX_POINT('',#1389);
#446=VERTEX_POINT('',#1394);
#447=VERTEX_POINT('',#1395);
#448=VERTEX_POINT('',#1397);
#449=VERTEX_POINT('',#1399);
#450=VERTEX_POINT('',#1404);
#451=VERTEX_POINT('',#1405);
#452=VERTEX_POINT('',#1407);
#453=VERTEX_POINT('',#1409);
#454=VERTEX_POINT('',#1411);
#455=VERTEX_POINT('',#1413);
#456=VERTEX_POINT('',#1419);
#457=VERTEX_POINT('',#1420);
#458=VERTEX_POINT('',#1422);
#459=VERTEX_POINT('',#1424);
#460=VERTEX_POINT('',#1429);
#461=VERTEX_POINT('',#1431);
#462=VERTEX_POINT('',#1435);
#463=VERTEX_POINT('',#1439);
#464=VERTEX_POINT('',#1442);
#465=VERTEX_POINT('',#1443);
#466=VERTEX_POINT('',#1445);
#467=VERTEX_POINT('',#1447);
#468=VERTEX_POINT('',#1451);
#469=VERTEX_POINT('',#1453);
#470=VERTEX_POINT('',#1457);
#471=VERTEX_POINT('',#1458);
#472=VERTEX_POINT('',#1460);
#473=VERTEX_POINT('',#1462);
#474=VERTEX_POINT('',#1483);
#475=VERTEX_POINT('',#1486);
#476=VERTEX_POINT('',#1489);
#477=VERTEX_POINT('',#1495);
#478=VERTEX_POINT('',#1499);
#479=VERTEX_POINT('',#1502);
#480=VERTEX_POINT('',#1510);
#481=VERTEX_POINT('',#1514);
#482=VERTEX_POINT('',#1519);
#483=VERTEX_POINT('',#1528);
#484=VERTEX_POINT('',#1532);
#485=VERTEX_POINT('',#1537);
#486=EDGE_CURVE('',#398,#399,#152,.T.);
#487=EDGE_CURVE('',#400,#398,#153,.T.);
#488=EDGE_CURVE('',#400,#401,#154,.T.);
#489=EDGE_CURVE('',#402,#401,#155,.T.);
#490=EDGE_CURVE('',#403,#402,#156,.T.);
#491=EDGE_CURVE('',#403,#404,#157,.T.);
#492=EDGE_CURVE('',#405,#404,#158,.T.);
#493=EDGE_CURVE('',#405,#406,#159,.T.);
#494=EDGE_CURVE('',#407,#406,#160,.T.);
#495=EDGE_CURVE('',#407,#408,#161,.T.);
#496=EDGE_CURVE('',#408,#409,#162,.T.);
#497=EDGE_CURVE('',#410,#409,#163,.T.);
#498=EDGE_CURVE('',#410,#411,#164,.T.);
#499=EDGE_CURVE('',#412,#411,#165,.T.);
#500=EDGE_CURVE('',#412,#413,#166,.T.);
#501=EDGE_CURVE('',#413,#414,#167,.T.);
#502=EDGE_CURVE('',#415,#414,#168,.T.);
#503=EDGE_CURVE('',#415,#416,#169,.T.);
#504=EDGE_CURVE('',#416,#417,#170,.T.);
#505=EDGE_CURVE('',#399,#417,#171,.T.);
#506=EDGE_CURVE('',#418,#418,#34,.T.);
#507=EDGE_CURVE('',#419,#419,#35,.T.);
#508=EDGE_CURVE('',#420,#420,#36,.T.);
#509=EDGE_CURVE('',#421,#421,#37,.T.);
#510=EDGE_CURVE('',#422,#423,#172,.T.);
#511=EDGE_CURVE('',#423,#424,#173,.T.);
#512=EDGE_CURVE('',#425,#424,#174,.T.);
#513=EDGE_CURVE('',#425,#426,#175,.T.);
#514=EDGE_CURVE('',#426,#427,#176,.T.);
#515=EDGE_CURVE('',#428,#427,#177,.T.);
#516=EDGE_CURVE('',#429,#428,#178,.T.);
#517=EDGE_CURVE('',#429,#430,#179,.T.);
#518=EDGE_CURVE('',#430,#431,#180,.T.);
#519=EDGE_CURVE('',#432,#431,#181,.T.);
#520=EDGE_CURVE('',#432,#433,#182,.T.);
#521=EDGE_CURVE('',#422,#433,#183,.T.);
#522=EDGE_CURVE('',#434,#434,#38,.T.);
#523=EDGE_CURVE('',#435,#435,#39,.T.);
#524=EDGE_CURVE('',#426,#398,#184,.T.);
#525=EDGE_CURVE('',#399,#436,#185,.T.);
#526=EDGE_CURVE('',#436,#437,#186,.T.);
#527=EDGE_CURVE('',#438,#437,#187,.T.);
#528=EDGE_CURVE('',#439,#438,#188,.T.);
#529=EDGE_CURVE('',#427,#439,#189,.T.);
#530=EDGE_CURVE('',#402,#423,#190,.T.);
#531=EDGE_CURVE('',#403,#422,#191,.T.);
#532=EDGE_CURVE('',#440,#441,#192,.T.);
#533=EDGE_CURVE('',#440,#413,#193,.T.);
#534=EDGE_CURVE('',#442,#412,#194,.T.);
#535=EDGE_CURVE('',#443,#442,#195,.T.);
#536=EDGE_CURVE('',#409,#443,#196,.T.);
#537=EDGE_CURVE('',#444,#408,#197,.T.);
#538=EDGE_CURVE('',#445,#444,#198,.T.);
#539=EDGE_CURVE('',#417,#445,#199,.T.);
#540=EDGE_CURVE('',#416,#441,#200,.T.);
#541=EDGE_CURVE('',#446,#447,#201,.T.);
#542=EDGE_CURVE('',#446,#448,#202,.T.);
#543=EDGE_CURVE('',#448,#449,#203,.T.);
#544=EDGE_CURVE('',#449,#437,#204,.T.);
#545=EDGE_CURVE('',#436,#445,#205,.T.);
#546=EDGE_CURVE('',#447,#444,#206,.T.);
#547=EDGE_CURVE('',#450,#451,#207,.T.);
#548=EDGE_CURVE('',#452,#451,#208,.T.);
#549=EDGE_CURVE('',#453,#452,#209,.T.);
#550=EDGE_CURVE('',#454,#453,#210,.T.);
#551=EDGE_CURVE('',#455,#454,#211,.T.);
#552=EDGE_CURVE('',#450,#455,#212,.T.);
#553=EDGE_CURVE('',#447,#407,#213,.T.);
#554=EDGE_CURVE('',#456,#457,#214,.T.);
#555=EDGE_CURVE('',#458,#456,#215,.T.);
#556=EDGE_CURVE('',#459,#458,#216,.T.);
#557=EDGE_CURVE('',#457,#459,#217,.T.);
#558=EDGE_CURVE('',#431,#406,#218,.T.);
#559=EDGE_CURVE('',#460,#430,#219,.T.);
#560=EDGE_CURVE('',#461,#460,#220,.T.);
#561=EDGE_CURVE('',#446,#461,#221,.T.);
#562=EDGE_CURVE('',#462,#439,#222,.T.);
#563=EDGE_CURVE('',#428,#462,#223,.T.);
#564=EDGE_CURVE('',#463,#429,#224,.T.);
#565=EDGE_CURVE('',#463,#460,#225,.T.);
#566=EDGE_CURVE('',#464,#465,#226,.T.);
#567=EDGE_CURVE('',#465,#466,#227,.T.);
#568=EDGE_CURVE('',#466,#467,#228,.T.);
#569=EDGE_CURVE('',#467,#464,#229,.T.);
#570=EDGE_CURVE('',#468,#438,#230,.T.);
#571=EDGE_CURVE('',#469,#468,#231,.T.);
#572=EDGE_CURVE('',#461,#469,#232,.T.);
#573=EDGE_CURVE('',#462,#463,#233,.T.);
#574=EDGE_CURVE('',#470,#471,#234,.T.);
#575=EDGE_CURVE('',#471,#472,#235,.T.);
#576=EDGE_CURVE('',#472,#473,#236,.T.);
#577=EDGE_CURVE('',#473,#470,#237,.T.);
#578=EDGE_CURVE('',#465,#458,#238,.T.);
#579=EDGE_CURVE('',#466,#456,#239,.T.);
#580=EDGE_CURVE('',#464,#459,#240,.T.);
#581=EDGE_CURVE('',#467,#457,#241,.T.);
#582=EDGE_CURVE('',#469,#448,#242,.T.);
#583=EDGE_CURVE('',#468,#449,#243,.T.);
#584=EDGE_CURVE('',#473,#455,#244,.T.);
#585=EDGE_CURVE('',#472,#450,#245,.T.);
#586=EDGE_CURVE('',#450,#474,#246,.T.);
#587=EDGE_CURVE('',#471,#453,#247,.T.);
#588=EDGE_CURVE('',#475,#453,#248,.T.);
#589=EDGE_CURVE('',#474,#475,#249,.T.);
#590=EDGE_CURVE('',#476,#476,#40,.T.);
#591=EDGE_CURVE('',#470,#454,#250,.T.);
#592=EDGE_CURVE('',#477,#452,#251,.T.);
#593=EDGE_CURVE('',#475,#477,#252,.T.);
#594=EDGE_CURVE('',#451,#478,#253,.T.);
#595=EDGE_CURVE('',#477,#478,#254,.T.);
#596=EDGE_CURVE('',#479,#479,#41,.T.);
#597=EDGE_CURVE('',#478,#474,#255,.T.);
#598=EDGE_CURVE('',#479,#476,#256,.T.);
#599=EDGE_CURVE('',#442,#480,#257,.T.);
#600=EDGE_CURVE('',#480,#411,#258,.T.);
#601=EDGE_CURVE('',#481,#443,#259,.T.);
#602=EDGE_CURVE('',#481,#410,#260,.T.);
#603=EDGE_CURVE('',#481,#480,#261,.T.);
#604=EDGE_CURVE('',#482,#482,#42,.T.);
#605=EDGE_CURVE('',#433,#404,#262,.T.);
#606=EDGE_CURVE('',#432,#405,#263,.T.);
#607=EDGE_CURVE('',#440,#483,#264,.T.);
#608=EDGE_CURVE('',#483,#414,#265,.T.);
#609=EDGE_CURVE('',#484,#415,#266,.T.);
#610=EDGE_CURVE('',#484,#441,#267,.T.);
#611=EDGE_CURVE('',#484,#483,#268,.T.);
#612=EDGE_CURVE('',#485,#485,#43,.T.);
#613=EDGE_CURVE('',#425,#400,#269,.T.);
#614=EDGE_CURVE('',#424,#401,#270,.T.);
#615=EDGE_CURVE('',#485,#421,#271,.T.);
#616=EDGE_CURVE('',#482,#419,#272,.T.);
#617=EDGE_CURVE('',#435,#420,#273,.T.);
#618=EDGE_CURVE('',#434,#418,#274,.T.);
#619=ORIENTED_EDGE('',*,*,#486,.F.);
#620=ORIENTED_EDGE('',*,*,#487,.F.);
#621=ORIENTED_EDGE('',*,*,#488,.T.);
#622=ORIENTED_EDGE('',*,*,#489,.F.);
#623=ORIENTED_EDGE('',*,*,#490,.F.);
#624=ORIENTED_EDGE('',*,*,#491,.T.);
#625=ORIENTED_EDGE('',*,*,#492,.F.);
#626=ORIENTED_EDGE('',*,*,#493,.T.);
#627=ORIENTED_EDGE('',*,*,#494,.F.);
#628=ORIENTED_EDGE('',*,*,#495,.T.);
#629=ORIENTED_EDGE('',*,*,#496,.T.);
#630=ORIENTED_EDGE('',*,*,#497,.F.);
#631=ORIENTED_EDGE('',*,*,#498,.T.);
#632=ORIENTED_EDGE('',*,*,#499,.F.);
#633=ORIENTED_EDGE('',*,*,#500,.T.);
#634=ORIENTED_EDGE('',*,*,#501,.T.);
#635=ORIENTED_EDGE('',*,*,#502,.F.);
#636=ORIENTED_EDGE('',*,*,#503,.T.);
#637=ORIENTED_EDGE('',*,*,#504,.T.);
#638=ORIENTED_EDGE('',*,*,#505,.F.);
#639=ORIENTED_EDGE('',*,*,#506,.T.);
#640=ORIENTED_EDGE('',*,*,#507,.F.);
#641=ORIENTED_EDGE('',*,*,#508,.F.);
#642=ORIENTED_EDGE('',*,*,#509,.T.);
#643=ORIENTED_EDGE('',*,*,#510,.T.);
#644=ORIENTED_EDGE('',*,*,#511,.T.);
#645=ORIENTED_EDGE('',*,*,#512,.F.);
#646=ORIENTED_EDGE('',*,*,#513,.T.);
#647=ORIENTED_EDGE('',*,*,#514,.T.);
#648=ORIENTED_EDGE('',*,*,#515,.F.);
#649=ORIENTED_EDGE('',*,*,#516,.F.);
#650=ORIENTED_EDGE('',*,*,#517,.T.);
#651=ORIENTED_EDGE('',*,*,#518,.T.);
#652=ORIENTED_EDGE('',*,*,#519,.F.);
#653=ORIENTED_EDGE('',*,*,#520,.T.);
#654=ORIENTED_EDGE('',*,*,#521,.F.);
#655=ORIENTED_EDGE('',*,*,#522,.F.);
#656=ORIENTED_EDGE('',*,*,#523,.T.);
#657=ORIENTED_EDGE('',*,*,#514,.F.);
#658=ORIENTED_EDGE('',*,*,#524,.T.);
#659=ORIENTED_EDGE('',*,*,#486,.T.);
#660=ORIENTED_EDGE('',*,*,#525,.T.);
#661=ORIENTED_EDGE('',*,*,#526,.T.);
#662=ORIENTED_EDGE('',*,*,#527,.F.);
#663=ORIENTED_EDGE('',*,*,#528,.F.);
#664=ORIENTED_EDGE('',*,*,#529,.F.);
#665=ORIENTED_EDGE('',*,*,#490,.T.);
#666=ORIENTED_EDGE('',*,*,#530,.T.);
#667=ORIENTED_EDGE('',*,*,#510,.F.);
#668=ORIENTED_EDGE('',*,*,#531,.F.);
#669=ORIENTED_EDGE('',*,*,#532,.F.);
#670=ORIENTED_EDGE('',*,*,#533,.T.);
#671=ORIENTED_EDGE('',*,*,#500,.F.);
#672=ORIENTED_EDGE('',*,*,#534,.F.);
#673=ORIENTED_EDGE('',*,*,#535,.F.);
#674=ORIENTED_EDGE('',*,*,#536,.F.);
#675=ORIENTED_EDGE('',*,*,#496,.F.);
#676=ORIENTED_EDGE('',*,*,#537,.F.);
#677=ORIENTED_EDGE('',*,*,#538,.F.);
#678=ORIENTED_EDGE('',*,*,#539,.F.);
#679=ORIENTED_EDGE('',*,*,#504,.F.);
#680=ORIENTED_EDGE('',*,*,#540,.T.);
#681=ORIENTED_EDGE('',*,*,#541,.F.);
#682=ORIENTED_EDGE('',*,*,#542,.T.);
#683=ORIENTED_EDGE('',*,*,#543,.T.);
#684=ORIENTED_EDGE('',*,*,#544,.T.);
#685=ORIENTED_EDGE('',*,*,#526,.F.);
#686=ORIENTED_EDGE('',*,*,#545,.T.);
#687=ORIENTED_EDGE('',*,*,#538,.T.);
#688=ORIENTED_EDGE('',*,*,#546,.F.);
#689=ORIENTED_EDGE('',*,*,#547,.T.);
#690=ORIENTED_EDGE('',*,*,#548,.F.);
#691=ORIENTED_EDGE('',*,*,#549,.F.);
#692=ORIENTED_EDGE('',*,*,#550,.F.);
#693=ORIENTED_EDGE('',*,*,#551,.F.);
#694=ORIENTED_EDGE('',*,*,#552,.F.);
#695=ORIENTED_EDGE('',*,*,#539,.T.);
#696=ORIENTED_EDGE('',*,*,#545,.F.);
#697=ORIENTED_EDGE('',*,*,#525,.F.);
#698=ORIENTED_EDGE('',*,*,#505,.T.);
#699=ORIENTED_EDGE('',*,*,#537,.T.);
#700=ORIENTED_EDGE('',*,*,#495,.F.);
#701=ORIENTED_EDGE('',*,*,#553,.F.);
#702=ORIENTED_EDGE('',*,*,#546,.T.);
#703=ORIENTED_EDGE('',*,*,#554,.F.);
#704=ORIENTED_EDGE('',*,*,#555,.F.);
#705=ORIENTED_EDGE('',*,*,#556,.F.);
#706=ORIENTED_EDGE('',*,*,#557,.F.);
#707=ORIENTED_EDGE('',*,*,#558,.F.);
#708=ORIENTED_EDGE('',*,*,#518,.F.);
#709=ORIENTED_EDGE('',*,*,#559,.F.);
#710=ORIENTED_EDGE('',*,*,#560,.F.);
#711=ORIENTED_EDGE('',*,*,#561,.F.);
#712=ORIENTED_EDGE('',*,*,#541,.T.);
#713=ORIENTED_EDGE('',*,*,#553,.T.);
#714=ORIENTED_EDGE('',*,*,#494,.T.);
#715=ORIENTED_EDGE('',*,*,#529,.T.);
#716=ORIENTED_EDGE('',*,*,#562,.F.);
#717=ORIENTED_EDGE('',*,*,#563,.F.);
#718=ORIENTED_EDGE('',*,*,#515,.T.);
#719=ORIENTED_EDGE('',*,*,#559,.T.);
#720=ORIENTED_EDGE('',*,*,#517,.F.);
#721=ORIENTED_EDGE('',*,*,#564,.F.);
#722=ORIENTED_EDGE('',*,*,#565,.T.);
#723=ORIENTED_EDGE('',*,*,#566,.T.);
#724=ORIENTED_EDGE('',*,*,#567,.T.);
#725=ORIENTED_EDGE('',*,*,#568,.T.);
#726=ORIENTED_EDGE('',*,*,#569,.T.);
#727=ORIENTED_EDGE('',*,*,#528,.T.);
#728=ORIENTED_EDGE('',*,*,#570,.F.);
#729=ORIENTED_EDGE('',*,*,#571,.F.);
#730=ORIENTED_EDGE('',*,*,#572,.F.);
#731=ORIENTED_EDGE('',*,*,#560,.T.);
#732=ORIENTED_EDGE('',*,*,#565,.F.);
#733=ORIENTED_EDGE('',*,*,#573,.F.);
#734=ORIENTED_EDGE('',*,*,#562,.T.);
#735=ORIENTED_EDGE('',*,*,#574,.T.);
#736=ORIENTED_EDGE('',*,*,#575,.T.);
#737=ORIENTED_EDGE('',*,*,#576,.T.);
#738=ORIENTED_EDGE('',*,*,#577,.T.);
#739=ORIENTED_EDGE('',*,*,#563,.T.);
#740=ORIENTED_EDGE('',*,*,#573,.T.);
#741=ORIENTED_EDGE('',*,*,#564,.T.);
#742=ORIENTED_EDGE('',*,*,#516,.T.);
#743=ORIENTED_EDGE('',*,*,#578,.T.);
#744=ORIENTED_EDGE('',*,*,#555,.T.);
#745=ORIENTED_EDGE('',*,*,#579,.F.);
#746=ORIENTED_EDGE('',*,*,#567,.F.);
#747=ORIENTED_EDGE('',*,*,#580,.T.);
#748=ORIENTED_EDGE('',*,*,#556,.T.);
#749=ORIENTED_EDGE('',*,*,#578,.F.);
#750=ORIENTED_EDGE('',*,*,#566,.F.);
#751=ORIENTED_EDGE('',*,*,#581,.T.);
#752=ORIENTED_EDGE('',*,*,#557,.T.);
#753=ORIENTED_EDGE('',*,*,#580,.F.);
#754=ORIENTED_EDGE('',*,*,#569,.F.);
#755=ORIENTED_EDGE('',*,*,#579,.T.);
#756=ORIENTED_EDGE('',*,*,#554,.T.);
#757=ORIENTED_EDGE('',*,*,#581,.F.);
#758=ORIENTED_EDGE('',*,*,#568,.F.);
#759=ORIENTED_EDGE('',*,*,#543,.F.);
#760=ORIENTED_EDGE('',*,*,#582,.F.);
#761=ORIENTED_EDGE('',*,*,#571,.T.);
#762=ORIENTED_EDGE('',*,*,#583,.T.);
#763=ORIENTED_EDGE('',*,*,#542,.F.);
#764=ORIENTED_EDGE('',*,*,#561,.T.);
#765=ORIENTED_EDGE('',*,*,#572,.T.);
#766=ORIENTED_EDGE('',*,*,#582,.T.);
#767=ORIENTED_EDGE('',*,*,#570,.T.);
#768=ORIENTED_EDGE('',*,*,#527,.T.);
#769=ORIENTED_EDGE('',*,*,#544,.F.);
#770=ORIENTED_EDGE('',*,*,#583,.F.);
#771=ORIENTED_EDGE('',*,*,#552,.T.);
#772=ORIENTED_EDGE('',*,*,#584,.F.);
#773=ORIENTED_EDGE('',*,*,#576,.F.);
#774=ORIENTED_EDGE('',*,*,#585,.T.);
#775=ORIENTED_EDGE('',*,*,#586,.F.);
#776=ORIENTED_EDGE('',*,*,#585,.F.);
#777=ORIENTED_EDGE('',*,*,#575,.F.);
#778=ORIENTED_EDGE('',*,*,#587,.T.);
#779=ORIENTED_EDGE('',*,*,#588,.F.);
#780=ORIENTED_EDGE('',*,*,#589,.F.);
#781=ORIENTED_EDGE('',*,*,#590,.F.);
#782=ORIENTED_EDGE('',*,*,#550,.T.);
#783=ORIENTED_EDGE('',*,*,#587,.F.);
#784=ORIENTED_EDGE('',*,*,#574,.F.);
#785=ORIENTED_EDGE('',*,*,#591,.T.);
#786=ORIENTED_EDGE('',*,*,#551,.T.);
#787=ORIENTED_EDGE('',*,*,#591,.F.);
#788=ORIENTED_EDGE('',*,*,#577,.F.);
#789=ORIENTED_EDGE('',*,*,#584,.T.);
#790=ORIENTED_EDGE('',*,*,#549,.T.);
#791=ORIENTED_EDGE('',*,*,#592,.F.);
#792=ORIENTED_EDGE('',*,*,#593,.F.);
#793=ORIENTED_EDGE('',*,*,#588,.T.);
#794=ORIENTED_EDGE('',*,*,#548,.T.);
#795=ORIENTED_EDGE('',*,*,#594,.T.);
#796=ORIENTED_EDGE('',*,*,#595,.F.);
#797=ORIENTED_EDGE('',*,*,#592,.T.);
#798=ORIENTED_EDGE('',*,*,#596,.T.);
#799=ORIENTED_EDGE('',*,*,#589,.T.);
#800=ORIENTED_EDGE('',*,*,#593,.T.);
#801=ORIENTED_EDGE('',*,*,#595,.T.);
#802=ORIENTED_EDGE('',*,*,#597,.T.);
#803=ORIENTED_EDGE('',*,*,#547,.F.);
#804=ORIENTED_EDGE('',*,*,#586,.T.);
#805=ORIENTED_EDGE('',*,*,#597,.F.);
#806=ORIENTED_EDGE('',*,*,#594,.F.);
#807=ORIENTED_EDGE('',*,*,#596,.F.);
#808=ORIENTED_EDGE('',*,*,#598,.T.);
#809=ORIENTED_EDGE('',*,*,#590,.T.);
#810=ORIENTED_EDGE('',*,*,#598,.F.);
#811=ORIENTED_EDGE('',*,*,#599,.F.);
#812=ORIENTED_EDGE('',*,*,#534,.T.);
#813=ORIENTED_EDGE('',*,*,#499,.T.);
#814=ORIENTED_EDGE('',*,*,#600,.F.);
#815=ORIENTED_EDGE('',*,*,#497,.T.);
#816=ORIENTED_EDGE('',*,*,#536,.T.);
#817=ORIENTED_EDGE('',*,*,#601,.F.);
#818=ORIENTED_EDGE('',*,*,#602,.T.);
#819=ORIENTED_EDGE('',*,*,#601,.T.);
#820=ORIENTED_EDGE('',*,*,#535,.T.);
#821=ORIENTED_EDGE('',*,*,#599,.T.);
#822=ORIENTED_EDGE('',*,*,#603,.F.);
#823=ORIENTED_EDGE('',*,*,#604,.T.);
#824=ORIENTED_EDGE('',*,*,#498,.F.);
#825=ORIENTED_EDGE('',*,*,#602,.F.);
#826=ORIENTED_EDGE('',*,*,#603,.T.);
#827=ORIENTED_EDGE('',*,*,#600,.T.);
#828=ORIENTED_EDGE('',*,*,#492,.T.);
#829=ORIENTED_EDGE('',*,*,#605,.F.);
#830=ORIENTED_EDGE('',*,*,#520,.F.);
#831=ORIENTED_EDGE('',*,*,#606,.T.);
#832=ORIENTED_EDGE('',*,*,#491,.F.);
#833=ORIENTED_EDGE('',*,*,#531,.T.);
#834=ORIENTED_EDGE('',*,*,#521,.T.);
#835=ORIENTED_EDGE('',*,*,#605,.T.);
#836=ORIENTED_EDGE('',*,*,#519,.T.);
#837=ORIENTED_EDGE('',*,*,#558,.T.);
#838=ORIENTED_EDGE('',*,*,#493,.F.);
#839=ORIENTED_EDGE('',*,*,#606,.F.);
#840=ORIENTED_EDGE('',*,*,#533,.F.);
#841=ORIENTED_EDGE('',*,*,#607,.T.);
#842=ORIENTED_EDGE('',*,*,#608,.T.);
#843=ORIENTED_EDGE('',*,*,#501,.F.);
#844=ORIENTED_EDGE('',*,*,#540,.F.);
#845=ORIENTED_EDGE('',*,*,#503,.F.);
#846=ORIENTED_EDGE('',*,*,#609,.F.);
#847=ORIENTED_EDGE('',*,*,#610,.T.);
#848=ORIENTED_EDGE('',*,*,#607,.F.);
#849=ORIENTED_EDGE('',*,*,#532,.T.);
#850=ORIENTED_EDGE('',*,*,#610,.F.);
#851=ORIENTED_EDGE('',*,*,#611,.T.);
#852=ORIENTED_EDGE('',*,*,#612,.F.);
#853=ORIENTED_EDGE('',*,*,#502,.T.);
#854=ORIENTED_EDGE('',*,*,#608,.F.);
#855=ORIENTED_EDGE('',*,*,#611,.F.);
#856=ORIENTED_EDGE('',*,*,#609,.T.);
#857=ORIENTED_EDGE('',*,*,#488,.F.);
#858=ORIENTED_EDGE('',*,*,#613,.F.);
#859=ORIENTED_EDGE('',*,*,#512,.T.);
#860=ORIENTED_EDGE('',*,*,#614,.T.);
#861=ORIENTED_EDGE('',*,*,#524,.F.);
#862=ORIENTED_EDGE('',*,*,#513,.F.);
#863=ORIENTED_EDGE('',*,*,#613,.T.);
#864=ORIENTED_EDGE('',*,*,#487,.T.);
#865=ORIENTED_EDGE('',*,*,#530,.F.);
#866=ORIENTED_EDGE('',*,*,#489,.T.);
#867=ORIENTED_EDGE('',*,*,#614,.F.);
#868=ORIENTED_EDGE('',*,*,#511,.F.);
#869=ORIENTED_EDGE('',*,*,#612,.T.);
#870=ORIENTED_EDGE('',*,*,#615,.T.);
#871=ORIENTED_EDGE('',*,*,#509,.F.);
#872=ORIENTED_EDGE('',*,*,#615,.F.);
#873=ORIENTED_EDGE('',*,*,#604,.F.);
#874=ORIENTED_EDGE('',*,*,#616,.T.);
#875=ORIENTED_EDGE('',*,*,#507,.T.);
#876=ORIENTED_EDGE('',*,*,#616,.F.);
#877=ORIENTED_EDGE('',*,*,#523,.F.);
#878=ORIENTED_EDGE('',*,*,#617,.T.);
#879=ORIENTED_EDGE('',*,*,#508,.T.);
#880=ORIENTED_EDGE('',*,*,#617,.F.);
#881=ORIENTED_EDGE('',*,*,#522,.T.);
#882=ORIENTED_EDGE('',*,*,#618,.T.);
#883=ORIENTED_EDGE('',*,*,#506,.F.);
#884=ORIENTED_EDGE('',*,*,#618,.F.);
#885=PLANE('',#988);
#886=PLANE('',#993);
#887=PLANE('',#996);
#888=PLANE('',#997);
#889=PLANE('',#998);
#890=PLANE('',#999);
#891=PLANE('',#1000);
#892=PLANE('',#1001);
#893=PLANE('',#1002);
#894=PLANE('',#1003);
#895=PLANE('',#1004);
#896=PLANE('',#1005);
#897=PLANE('',#1006);
#898=PLANE('',#1007);
#899=PLANE('',#1008);
#900=PLANE('',#1009);
#901=PLANE('',#1010);
#902=PLANE('',#1011);
#903=PLANE('',#1012);
#904=PLANE('',#1013);
#905=PLANE('',#1014);
#906=PLANE('',#1015);
#907=PLANE('',#1017);
#908=PLANE('',#1018);
#909=PLANE('',#1019);
#910=PLANE('',#1020);
#911=PLANE('',#1022);
#912=PLANE('',#1023);
#913=PLANE('',#1025);
#914=PLANE('',#1026);
#915=PLANE('',#1027);
#916=PLANE('',#1029);
#917=PLANE('',#1030);
#918=PLANE('',#1031);
#919=PLANE('',#1032);
#920=PLANE('',#1033);
#921=PLANE('',#1034);
#922=PLANE('',#1035);
#923=PLANE('',#1037);
#924=PLANE('',#1038);
#925=PLANE('',#1039);
#926=PLANE('',#1040);
#927=ADVANCED_FACE('',(#44,#20,#21,#22,#23),#885,.F.);
#928=ADVANCED_FACE('',(#45,#24,#25),#886,.F.);
#929=ADVANCED_FACE('',(#46),#887,.T.);
#930=ADVANCED_FACE('',(#47),#888,.T.);
#931=ADVANCED_FACE('',(#48),#889,.F.);
#932=ADVANCED_FACE('',(#49,#26),#890,.F.);
#933=ADVANCED_FACE('',(#50),#891,.F.);
#934=ADVANCED_FACE('',(#51,#27),#892,.F.);
#935=ADVANCED_FACE('',(#52),#893,.T.);
#936=ADVANCED_FACE('',(#53),#894,.F.);
#937=ADVANCED_FACE('',(#54,#28),#895,.F.);
#938=ADVANCED_FACE('',(#55,#29),#896,.F.);
#939=ADVANCED_FACE('',(#56),#897,.T.);
#940=ADVANCED_FACE('',(#57),#898,.F.);
#941=ADVANCED_FACE('',(#58),#899,.F.);
#942=ADVANCED_FACE('',(#59),#900,.F.);
#943=ADVANCED_FACE('',(#60),#901,.F.);
#944=ADVANCED_FACE('',(#61),#902,.T.);
#945=ADVANCED_FACE('',(#62),#903,.T.);
#946=ADVANCED_FACE('',(#63),#904,.T.);
#947=ADVANCED_FACE('',(#64),#905,.F.);
#948=ADVANCED_FACE('',(#65,#30),#906,.F.);
#949=ADVANCED_FACE('',(#66),#907,.F.);
#950=ADVANCED_FACE('',(#67),#908,.F.);
#951=ADVANCED_FACE('',(#68),#909,.F.);
#952=ADVANCED_FACE('',(#69,#31),#910,.F.);
#953=ADVANCED_FACE('',(#70),#911,.F.);
#954=ADVANCED_FACE('',(#71),#912,.T.);
#955=ADVANCED_FACE('',(#72),#15,.F.);
#956=ADVANCED_FACE('',(#73),#913,.F.);
#957=ADVANCED_FACE('',(#74),#914,.F.);
#958=ADVANCED_FACE('',(#75,#32),#915,.F.);
#959=ADVANCED_FACE('',(#76),#916,.T.);
#960=ADVANCED_FACE('',(#77),#917,.F.);
#961=ADVANCED_FACE('',(#78),#918,.T.);
#962=ADVANCED_FACE('',(#79),#919,.T.);
#963=ADVANCED_FACE('',(#80),#920,.T.);
#964=ADVANCED_FACE('',(#81),#921,.T.);
#965=ADVANCED_FACE('',(#82,#33),#922,.F.);
#966=ADVANCED_FACE('',(#83),#923,.F.);
#967=ADVANCED_FACE('',(#84),#924,.T.);
#968=ADVANCED_FACE('',(#85),#925,.F.);
#969=ADVANCED_FACE('',(#86),#926,.F.);
#970=ADVANCED_FACE('',(#87),#16,.F.);
#971=ADVANCED_FACE('',(#88),#17,.F.);
#972=ADVANCED_FACE('',(#89),#18,.F.);
#973=ADVANCED_FACE('',(#90),#19,.F.);
#974=CLOSED_SHELL('',(#927,#928,#929,#930,#931,#932,#933,#934,#935,#936,
#937,#938,#939,#940,#941,#942,#943,#944,#945,#946,#947,#948,#949,#950,#951,
#952,#953,#954,#955,#956,#957,#958,#959,#960,#961,#962,#963,#964,#965,#966,
#967,#968,#969,#970,#971,#972,#973));
#975=DERIVED_UNIT_ELEMENT(#977,1.);
#976=DERIVED_UNIT_ELEMENT(#1558,-3.);
#977=(
MASS_UNIT()
NAMED_UNIT(*)
SI_UNIT(.KILO.,.GRAM.)
);
#978=DERIVED_UNIT((#975,#976));
#979=MEASURE_REPRESENTATION_ITEM('density measure',
POSITIVE_RATIO_MEASURE(7850.),#978);
#980=PROPERTY_DEFINITION_REPRESENTATION(#985,#982);
#981=PROPERTY_DEFINITION_REPRESENTATION(#986,#983);
#982=REPRESENTATION('material name',(#984),#1555);
#983=REPRESENTATION('density',(#979),#1555);
#984=DESCRIPTIVE_REPRESENTATION_ITEM('Steel','Steel');
#985=PROPERTY_DEFINITION('material property','material name',#1565);
#986=PROPERTY_DEFINITION('material property','density of part',#1565);
#987=AXIS2_PLACEMENT_3D('',#1284,#1045,#1046);
#988=AXIS2_PLACEMENT_3D('',#1285,#1047,#1048);
#989=AXIS2_PLACEMENT_3D('',#1327,#1069,#1070);
#990=AXIS2_PLACEMENT_3D('',#1329,#1071,#1072);
#991=AXIS2_PLACEMENT_3D('',#1331,#1073,#1074);
#992=AXIS2_PLACEMENT_3D('',#1333,#1075,#1076);
#993=AXIS2_PLACEMENT_3D('',#1334,#1077,#1078);
#994=AXIS2_PLACEMENT_3D('',#1360,#1091,#1092);
#995=AXIS2_PLACEMENT_3D('',#1362,#1093,#1094);
#996=AXIS2_PLACEMENT_3D('',#1363,#1095,#1096);
#997=AXIS2_PLACEMENT_3D('',#1374,#1103,#1104);
#998=AXIS2_PLACEMENT_3D('',#1377,#1107,#1108);
#999=AXIS2_PLACEMENT_3D('',#1393,#1118,#1119);
#1000=AXIS2_PLACEMENT_3D('',#1416,#1132,#1133);
#1001=AXIS2_PLACEMENT_3D('',#1417,#1134,#1135);
#1002=AXIS2_PLACEMENT_3D('',#1427,#1141,#1142);
#1003=AXIS2_PLACEMENT_3D('',#1434,#1147,#1148);
#1004=AXIS2_PLACEMENT_3D('',#1438,#1151,#1152);
#1005=AXIS2_PLACEMENT_3D('',#1450,#1159,#1160);
#1006=AXIS2_PLACEMENT_3D('',#1465,#1169,#1170);
#1007=AXIS2_PLACEMENT_3D('',#1466,#1171,#1172);
#1008=AXIS2_PLACEMENT_3D('',#1469,#1175,#1176);
#1009=AXIS2_PLACEMENT_3D('',#1471,#1178,#1179);
#1010=AXIS2_PLACEMENT_3D('',#1473,#1181,#1182);
#1011=AXIS2_PLACEMENT_3D('',#1474,#1183,#1184);
#1012=AXIS2_PLACEMENT_3D('',#1477,#1187,#1188);
#1013=AXIS2_PLACEMENT_3D('',#1478,#1189,#1190);
#1014=AXIS2_PLACEMENT_3D('',#1479,#1191,#1192);
#1015=AXIS2_PLACEMENT_3D('',#1482,#1195,#1196);
#1016=AXIS2_PLACEMENT_3D('',#1490,#1201,#1202);
#1017=AXIS2_PLACEMENT_3D('',#1491,#1203,#1204);
#1018=AXIS2_PLACEMENT_3D('',#1493,#1206,#1207);
#1019=AXIS2_PLACEMENT_3D('',#1494,#1208,#1209);
#1020=AXIS2_PLACEMENT_3D('',#1498,#1212,#1213);
#1021=AXIS2_PLACEMENT_3D('',#1503,#1216,#1217);
#1022=AXIS2_PLACEMENT_3D('',#1504,#1218,#1219);
#1023=AXIS2_PLACEMENT_3D('',#1506,#1221,#1222);
#1024=AXIS2_PLACEMENT_3D('',#1507,#1223,#1224);
#1025=AXIS2_PLACEMENT_3D('',#1509,#1226,#1227);
#1026=AXIS2_PLACEMENT_3D('',#1513,#1230,#1231);
#1027=AXIS2_PLACEMENT_3D('',#1517,#1234,#1235);
#1028=AXIS2_PLACEMENT_3D('',#1520,#1237,#1238);
#1029=AXIS2_PLACEMENT_3D('',#1521,#1239,#1240);
#1030=AXIS2_PLACEMENT_3D('',#1522,#1241,#1242);
#1031=AXIS2_PLACEMENT_3D('',#1525,#1245,#1246);
#1032=AXIS2_PLACEMENT_3D('',#1526,#1247,#1248);
#1033=AXIS2_PLACEMENT_3D('',#1527,#1249,#1250);
#1034=AXIS2_PLACEMENT_3D('',#1531,#1253,#1254);
#1035=AXIS2_PLACEMENT_3D('',#1535,#1257,#1258);
#1036=AXIS2_PLACEMENT_3D('',#1538,#1260,#1261);
#1037=AXIS2_PLACEMENT_3D('',#1539,#1262,#1263);
#1038=AXIS2_PLACEMENT_3D('',#1540,#1264,#1265);
#1039=AXIS2_PLACEMENT_3D('',#1543,#1268,#1269);
#1040=AXIS2_PLACEMENT_3D('',#1544,#1270,#1271);
#1041=AXIS2_PLACEMENT_3D('',#1545,#1272,#1273);
#1042=AXIS2_PLACEMENT_3D('',#1547,#1275,#1276);
#1043=AXIS2_PLACEMENT_3D('',#1549,#1278,#1279);
#1044=AXIS2_PLACEMENT_3D('',#1551,#1281,#1282);
#1045=DIRECTION('axis',(0.,0.,1.));
#1046=DIRECTION('refdir',(1.,0.,0.));
#1047=DIRECTION('center_axis',(0.,1.,0.));
#1048=DIRECTION('ref_axis',(0.,0.,1.));
#1049=DIRECTION('',(0.,0.,-1.));
#1050=DIRECTION('',(-1.,0.,0.));
#1051=DIRECTION('',(-4.44089209850063E-16,0.,1.));
#1052=DIRECTION('',(1.,0.,0.));
#1053=DIRECTION('',(0.,0.,-1.));
#1054=DIRECTION('',(1.,0.,0.));
#1055=DIRECTION('',(-4.44089209850063E-16,0.,-1.));
#1056=DIRECTION('',(-1.,0.,0.));
#1057=DIRECTION('',(0.,0.,-1.));
#1058=DIRECTION('',(-1.,0.,0.));
#1059=DIRECTION('',(0.,0.,-1.));
#1060=DIRECTION('',(1.,0.,0.));
#1061=DIRECTION('',(1.66533453693773E-16,0.,-1.));
#1062=DIRECTION('',(-1.,0.,1.58603289232165E-16));
#1063=DIRECTION('',(0.,0.,-1.));
#1064=DIRECTION('',(-1.,0.,-1.58603289232165E-16));
#1065=DIRECTION('',(1.66533453693773E-16,0.,1.));
#1066=DIRECTION('',(1.,0.,0.));
#1067=DIRECTION('',(0.,0.,-1.));
#1068=DIRECTION('',(-1.,0.,0.));
#1069=DIRECTION('center_axis',(0.,1.,0.));
#1070=DIRECTION('ref_axis',(0.,0.,1.));
#1071=DIRECTION('center_axis',(0.,-1.,0.));
#1072=DIRECTION('ref_axis',(0.,0.,-1.));
#1073=DIRECTION('center_axis',(0.,-1.,0.));
#1074=DIRECTION('ref_axis',(0.,0.,-1.));
#1075=DIRECTION('center_axis',(0.,1.,0.));
#1076=DIRECTION('ref_axis',(0.,0.,1.));
#1077=DIRECTION('center_axis',(0.,-1.,0.));
#1078=DIRECTION('ref_axis',(0.,0.,-1.));
#1079=DIRECTION('',(0.,0.,-1.));
#1080=DIRECTION('',(1.,0.,0.));
#1081=DIRECTION('',(-4.44089209850063E-16,0.,1.));
#1082=DIRECTION('',(-1.,0.,0.));
#1083=DIRECTION('',(0.,0.,-1.));
#1084=DIRECTION('',(1.,0.,0.));
#1085=DIRECTION('',(0.,0.,-1.));
#1086=DIRECTION('',(1.,0.,0.));
#1087=DIRECTION('',(0.,0.,-1.));
#1088=DIRECTION('',(-1.,0.,0.));
#1089=DIRECTION('',(-4.44089209850063E-16,0.,-1.));
#1090=DIRECTION('',(1.,0.,0.));
#1091=DIRECTION('center_axis',(0.,1.,0.));
#1092=DIRECTION('ref_axis',(0.,0.,1.));
#1093=DIRECTION('center_axis',(0.,-1.,0.));
#1094=DIRECTION('ref_axis',(0.,0.,-1.));
#1095=DIRECTION('center_axis',(1.,0.,0.));
#1096=DIRECTION('ref_axis',(0.,0.,-1.));
#1097=DIRECTION('',(0.,-1.,0.));
#1098=DIRECTION('',(0.,1.,0.));
#1099=DIRECTION('',(0.,0.,1.));
#1100=DIRECTION('',(0.,1.,0.));
#1101=DIRECTION('',(0.,0.,1.));
#1102=DIRECTION('',(0.,1.,0.));
#1103=DIRECTION('center_axis',(1.,0.,0.));
#1104=DIRECTION('ref_axis',(0.,0.,-1.));
#1105=DIRECTION('',(0.,1.,0.));
#1106=DIRECTION('',(0.,1.,0.));
#1107=DIRECTION('center_axis',(1.,0.,0.));
#1108=DIRECTION('ref_axis',(0.,0.,-1.));
#1109=DIRECTION('',(0.,0.,-1.));
#1110=DIRECTION('',(0.,-1.,0.));
#1111=DIRECTION('',(0.,-1.,0.));
#1112=DIRECTION('',(0.,0.,-1.));
#1113=DIRECTION('',(0.,1.,0.));
#1114=DIRECTION('',(0.,-1.,0.));
#1115=DIRECTION('',(0.,0.,1.));
#1116=DIRECTION('',(0.,1.,0.));
#1117=DIRECTION('',(0.,1.,0.));
#1118=DIRECTION('center_axis',(0.,-1.,0.));
#1119=DIRECTION('ref_axis',(0.,0.,-1.));
#1120=DIRECTION('',(0.,0.,1.));
#1121=DIRECTION('',(1.,0.,0.));
#1122=DIRECTION('',(-4.44089209850063E-16,0.,-1.));
#1123=DIRECTION('',(-1.,0.,0.));
#1124=DIRECTION('',(-1.,0.,0.));
#1125=DIRECTION('',(-1.,0.,0.));
#1126=DIRECTION('',(-1.,0.,0.));
#1127=DIRECTION('',(0.,0.,1.));
#1128=DIRECTION('',(-1.,0.,2.7755575615629E-16));
#1129=DIRECTION('',(-1.,0.,0.));
#1130=DIRECTION('',(0.,0.,-1.));
#1131=DIRECTION('',(1.,0.,0.));
#1132=DIRECTION('center_axis',(0.,0.,1.));
#1133=DIRECTION('ref_axis',(1.,0.,0.));
#1134=DIRECTION('center_axis',(0.,0.,-1.));
#1135=DIRECTION('ref_axis',(-1.,0.,0.));
#1136=DIRECTION('',(0.,-1.,0.));
#1137=DIRECTION('',(-1.,0.,0.));
#1138=DIRECTION('',(0.,1.,0.));
#1139=DIRECTION('',(1.,-1.77635683940025E-16,0.));
#1140=DIRECTION('',(1.33226762955019E-16,-1.,0.));
#1141=DIRECTION('center_axis',(1.,0.,0.));
#1142=DIRECTION('ref_axis',(0.,0.,-1.));
#1143=DIRECTION('',(0.,-1.,0.));
#1144=DIRECTION('',(0.,-1.,0.));
#1145=DIRECTION('',(0.,0.,1.));
#1146=DIRECTION('',(0.,-1.,0.));
#1147=DIRECTION('center_axis',(0.,0.,-1.));
#1148=DIRECTION('ref_axis',(-1.,0.,0.));
#1149=DIRECTION('',(1.,0.,0.));
#1150=DIRECTION('',(0.,1.,0.));
#1151=DIRECTION('center_axis',(0.,0.,1.));
#1152=DIRECTION('ref_axis',(1.,0.,0.));
#1153=DIRECTION('',(0.,-1.,0.));
#1154=DIRECTION('',(1.,0.,0.));
#1155=DIRECTION('',(1.,-1.77635683940025E-16,0.));
#1156=DIRECTION('',(0.,1.,0.));
#1157=DIRECTION('',(-1.,0.,0.));
#1158=DIRECTION('',(1.33226762955019E-16,-1.,0.));
#1159=DIRECTION('center_axis',(0.,1.,0.));
#1160=DIRECTION('ref_axis',(0.,0.,1.));
#1161=DIRECTION('',(-1.,0.,0.));
#1162=DIRECTION('',(-4.44089209850063E-16,0.,-1.));
#1163=DIRECTION('',(1.,0.,0.));
#1164=DIRECTION('',(0.,0.,1.));
#1165=DIRECTION('',(-1.,0.,0.));
#1166=DIRECTION('',(0.,0.,1.));
#1167=DIRECTION('',(1.,0.,0.));
#1168=DIRECTION('',(0.,0.,-1.));
#1169=DIRECTION('center_axis',(1.,0.,0.));
#1170=DIRECTION('ref_axis',(0.,0.,-1.));
#1171=DIRECTION('center_axis',(1.,0.,0.));
#1172=DIRECTION('ref_axis',(0.,0.,-1.));
#1173=DIRECTION('',(0.,0.,1.));
#1174=DIRECTION('',(0.,0.,1.));
#1175=DIRECTION('center_axis',(-1.38777878078145E-16,-1.,0.));
#1176=DIRECTION('ref_axis',(0.,0.,-1.));
#1177=DIRECTION('',(0.,0.,1.));
#1178=DIRECTION('center_axis',(-1.,-1.04083408558608E-16,0.));
#1179=DIRECTION('ref_axis',(0.,0.,1.));
#1180=DIRECTION('',(0.,0.,1.));
#1181=DIRECTION('center_axis',(0.,1.,0.));
#1182=DIRECTION('ref_axis',(0.,0.,1.));
#1183=DIRECTION('center_axis',(1.,0.,-4.62592926927149E-16));
#1184=DIRECTION('ref_axis',(-4.62592926927149E-16,0.,-1.));
#1185=DIRECTION('',(0.,1.,0.));
#1186=DIRECTION('',(0.,1.,0.));
#1187=DIRECTION('center_axis',(0.,0.,1.));
#1188=DIRECTION('ref_axis',(1.,0.,0.));
#1189=DIRECTION('center_axis',(0.,0.,-1.));
#1190=DIRECTION('ref_axis',(-1.,0.,0.));
#1191=DIRECTION('center_axis',(0.,0.,1.));
#1192=DIRECTION('ref_axis',(1.,0.,0.));
#1193=DIRECTION('',(0.,1.,0.));
#1194=DIRECTION('',(0.,1.,0.));
#1195=DIRECTION('center_axis',(-1.,0.,0.));
#1196=DIRECTION('ref_axis',(0.,0.,1.));
#1197=DIRECTION('',(0.,1.,0.));
#1198=DIRECTION('',(0.,1.,0.));
#1199=DIRECTION('',(0.,-1.,0.));
#1200=DIRECTION('',(0.,0.,-1.));
#1201=DIRECTION('center_axis',(1.,0.,0.));
#1202=DIRECTION('ref_axis',(0.,0.,-1.));
#1203=DIRECTION('center_axis',(0.,0.,-1.));
#1204=DIRECTION('ref_axis',(-1.,0.,0.));
#1205=DIRECTION('',(0.,1.,0.));
#1206=DIRECTION('center_axis',(1.,0.,0.));
#1207=DIRECTION('ref_axis',(0.,0.,-1.));
#1208=DIRECTION('center_axis',(2.16840434497101E-16,0.,1.));
#1209=DIRECTION('ref_axis',(1.,0.,-2.16840434497101E-16));
#1210=DIRECTION('',(0.,-1.,0.));
#1211=DIRECTION('',(-1.,0.,2.7755575615629E-16));
#1212=DIRECTION('center_axis',(1.,0.,0.));
#1213=DIRECTION('ref_axis',(0.,0.,-1.));
#1214=DIRECTION('',(0.,1.,0.));
#1215=DIRECTION('',(0.,0.,1.));
#1216=DIRECTION('center_axis',(1.,0.,0.));
#1217=DIRECTION('ref_axis',(0.,0.,-1.));
#1218=DIRECTION('center_axis',(0.,-1.,0.));
#1219=DIRECTION('ref_axis',(0.,0.,-1.));
#1220=DIRECTION('',(1.,0.,0.));
#1221=DIRECTION('center_axis',(0.,0.,1.));
#1222=DIRECTION('ref_axis',(1.,0.,0.));
#1223=DIRECTION('center_axis',(1.,0.,0.));
#1224=DIRECTION('ref_axis',(0.,0.,-1.));
#1225=DIRECTION('',(1.,0.,0.));
#1226=DIRECTION('center_axis',(7.2280144832367E-17,0.,1.));
#1227=DIRECTION('ref_axis',(1.,0.,-7.2280144832367E-17));
#1228=DIRECTION('',(-1.,0.,1.58603289232165E-16));
#1229=DIRECTION('',(0.,-1.,0.));
#1230=DIRECTION('center_axis',(0.,0.,-1.));
#1231=DIRECTION('ref_axis',(-1.,0.,0.));
#1232=DIRECTION('',(1.,0.,0.));
#1233=DIRECTION('',(0.,-1.,0.));
#1234=DIRECTION('center_axis',(0.,-1.,0.));
#1235=DIRECTION('ref_axis',(0.,0.,-1.));
#1236=DIRECTION('',(1.66533453693773E-16,0.,-1.));
#1237=DIRECTION('center_axis',(0.,-1.,0.));
#1238=DIRECTION('ref_axis',(0.,0.,-1.));
#1239=DIRECTION('center_axis',(-1.,0.,-1.30104260698261E-16));
#1240=DIRECTION('ref_axis',(-1.30104260698261E-16,0.,1.));
#1241=DIRECTION('center_axis',(-1.,0.,3.46944695195361E-16));
#1242=DIRECTION('ref_axis',(3.46944695195361E-16,0.,1.));
#1243=DIRECTION('',(0.,-1.,0.));
#1244=DIRECTION('',(0.,-1.,0.));
#1245=DIRECTION('center_axis',(7.2280144832367E-17,0.,-1.));
#1246=DIRECTION('ref_axis',(-1.,0.,-7.2280144832367E-17));
#1247=DIRECTION('center_axis',(0.,0.,1.));
#1248=DIRECTION('ref_axis',(1.,0.,0.));
#1249=DIRECTION('center_axis',(-7.2280144832367E-17,0.,1.));
#1250=DIRECTION('ref_axis',(1.,0.,7.2280144832367E-17));
#1251=DIRECTION('',(-1.,0.,-1.58603289232165E-16));
#1252=DIRECTION('',(0.,-1.,0.));
#1253=DIRECTION('center_axis',(0.,0.,-1.));
#1254=DIRECTION('ref_axis',(-1.,0.,0.));
#1255=DIRECTION('',(0.,-1.,0.));
#1256=DIRECTION('',(1.,0.,0.));
#1257=DIRECTION('center_axis',(0.,-1.,0.));
#1258=DIRECTION('ref_axis',(0.,0.,-1.));
#1259=DIRECTION('',(1.66533453693773E-16,0.,1.));
#1260=DIRECTION('center_axis',(0.,1.,0.));
#1261=DIRECTION('ref_axis',(0.,0.,1.));
#1262=DIRECTION('center_axis',(1.,0.,-1.30104260698261E-16));
#1263=DIRECTION('ref_axis',(-1.30104260698261E-16,0.,-1.));
#1264=DIRECTION('center_axis',(1.,0.,3.46944695195361E-16));
#1265=DIRECTION('ref_axis',(3.46944695195361E-16,0.,-1.));
#1266=DIRECTION('',(0.,-1.,0.));
#1267=DIRECTION('',(0.,-1.,0.));
#1268=DIRECTION('center_axis',(0.,0.,1.));
#1269=DIRECTION('ref_axis',(1.,0.,0.));
#1270=DIRECTION('center_axis',(-7.2280144832367E-17,0.,-1.));
#1271=DIRECTION('ref_axis',(-1.,0.,7.2280144832367E-17));
#1272=DIRECTION('center_axis',(0.,-1.,0.));
#1273=DIRECTION('ref_axis',(0.,0.,-1.));
#1274=DIRECTION('',(0.,-1.,0.));
#1275=DIRECTION('center_axis',(0.,-1.,0.));
#1276=DIRECTION('ref_axis',(0.,0.,-1.));
#1277=DIRECTION('',(0.,-1.,0.));
#1278=DIRECTION('center_axis',(0.,-1.,0.));
#1279=DIRECTION('ref_axis',(0.,0.,-1.));
#1280=DIRECTION('',(0.,-1.,0.));
#1281=DIRECTION('center_axis',(0.,-1.,0.));
#1282=DIRECTION('ref_axis',(0.,0.,-1.));
#1283=DIRECTION('',(0.,-1.,0.));
#1284=CARTESIAN_POINT('',(0.,0.,0.));
#1285=CARTESIAN_POINT('Origin',(23.,-20.,70.));
#1286=CARTESIAN_POINT('',(23.,-20.,-25.));
#1287=CARTESIAN_POINT('',(23.,-20.,-70.));
#1288=CARTESIAN_POINT('',(23.,-20.,-25.));
#1289=CARTESIAN_POINT('',(30.,-20.,-25.));
#1290=CARTESIAN_POINT('',(30.,-20.,-25.));
#1291=CARTESIAN_POINT('',(30.,-20.,-5.));
#1292=CARTESIAN_POINT('',(30.,-20.,-25.));
#1293=CARTESIAN_POINT('',(23.,-20.,-5.));
#1294=CARTESIAN_POINT('',(23.,-20.,-5.));
#1295=CARTESIAN_POINT('',(23.,-20.,5.));
#1296=CARTESIAN_POINT('',(23.,-20.,5.));
#1297=CARTESIAN_POINT('',(30.,-20.,5.));
#1298=CARTESIAN_POINT('',(23.,-20.,5.));
#1299=CARTESIAN_POINT('',(30.,-20.,25.));
#1300=CARTESIAN_POINT('',(30.,-20.,25.));
#1301=CARTESIAN_POINT('',(23.,-20.,25.));
#1302=CARTESIAN_POINT('',(30.,-20.,25.));
#1303=CARTESIAN_POINT('',(23.,-20.,70.));
#1304=CARTESIAN_POINT('',(23.,-20.,70.));
#1305=CARTESIAN_POINT('',(0.,-20.,70.));
#1306=CARTESIAN_POINT('',(23.,-20.,70.));
#1307=CARTESIAN_POINT('',(0.,-20.,25.));
#1308=CARTESIAN_POINT('',(0.,-20.,70.));
#1309=CARTESIAN_POINT('',(-7.,-20.,25.));
#1310=CARTESIAN_POINT('',(-7.,-20.,25.));
#1311=CARTESIAN_POINT('',(-7.,-20.,5.));
#1312=CARTESIAN_POINT('',(-7.,-20.,25.));
#1313=CARTESIAN_POINT('',(0.,-20.,5.));
#1314=CARTESIAN_POINT('',(-3.37037740267766E-31,-20.,5.));
#1315=CARTESIAN_POINT('',(-4.33334237487128E-31,-20.,-5.));
#1316=CARTESIAN_POINT('',(0.,-20.,5.));
#1317=CARTESIAN_POINT('',(-7.,-20.,-5.));
#1318=CARTESIAN_POINT('',(-4.33334237487128E-31,-20.,-5.));
#1319=CARTESIAN_POINT('',(-7.,-20.,-25.));
#1320=CARTESIAN_POINT('',(-7.,-20.,-25.));
#1321=CARTESIAN_POINT('',(0.,-20.,-25.));
#1322=CARTESIAN_POINT('',(-7.,-20.,-25.));
#1323=CARTESIAN_POINT('',(0.,-20.,-70.));
#1324=CARTESIAN_POINT('',(0.,-20.,-25.));
#1325=CARTESIAN_POINT('',(23.,-20.,-70.));
#1326=CARTESIAN_POINT('',(26.,-20.,16.5));
#1327=CARTESIAN_POINT('Origin',(26.,-20.,15.));
#1328=CARTESIAN_POINT('',(-3.,-20.,16.5));
#1329=CARTESIAN_POINT('Origin',(-3.,-20.,15.));
#1330=CARTESIAN_POINT('',(26.,-20.,-13.5));
#1331=CARTESIAN_POINT('Origin',(26.,-20.,-15.));
#1332=CARTESIAN_POINT('',(-3.,-20.,-13.5));
#1333=CARTESIAN_POINT('Origin',(-3.,-20.,-15.));
#1334=CARTESIAN_POINT('Origin',(5.,-15.,65.));
#1335=CARTESIAN_POINT('',(23.,-15.,5.));
#1336=CARTESIAN_POINT('',(23.,-15.,-5.));
#1337=CARTESIAN_POINT('',(23.,-15.,5.));
#1338=CARTESIAN_POINT('',(30.,-15.,-5.));
#1339=CARTESIAN_POINT('',(23.,-15.,-5.));
#1340=CARTESIAN_POINT('',(30.,-15.,-25.));
#1341=CARTESIAN_POINT('',(30.,-15.,-25.));
#1342=CARTESIAN_POINT('',(23.,-15.,-25.));
#1343=CARTESIAN_POINT('',(30.,-15.,-25.));
#1344=CARTESIAN_POINT('',(23.,-15.,-65.));
#1345=CARTESIAN_POINT('',(23.,-15.,-25.));
#1346=CARTESIAN_POINT('',(5.,-15.,-65.));
#1347=CARTESIAN_POINT('',(5.,-15.,-65.));
#1348=CARTESIAN_POINT('',(5.,-15.,65.));
#1349=CARTESIAN_POINT('',(5.,-15.,65.));
#1350=CARTESIAN_POINT('',(23.,-15.,65.));
#1351=CARTESIAN_POINT('',(5.,-15.,65.));
#1352=CARTESIAN_POINT('',(23.,-15.,25.));
#1353=CARTESIAN_POINT('',(23.,-15.,65.));
#1354=CARTESIAN_POINT('',(30.,-15.,25.));
#1355=CARTESIAN_POINT('',(30.,-15.,25.));
#1356=CARTESIAN_POINT('',(30.,-15.,5.));
#1357=CARTESIAN_POINT('',(30.,-15.,25.));
#1358=CARTESIAN_POINT('',(23.,-15.,5.));
#1359=CARTESIAN_POINT('',(26.,-15.,16.5));
#1360=CARTESIAN_POINT('Origin',(26.,-15.,15.));
#1361=CARTESIAN_POINT('',(26.,-15.,-13.5));
#1362=CARTESIAN_POINT('Origin',(26.,-15.,-15.));
#1363=CARTESIAN_POINT('Origin',(23.,0.,0.));
#1364=CARTESIAN_POINT('',(23.,-15.,-25.));
#1365=CARTESIAN_POINT('',(23.,20.,-70.));
#1366=CARTESIAN_POINT('',(23.,-20.,-70.));
#1367=CARTESIAN_POINT('',(23.,20.,-15.));
#1368=CARTESIAN_POINT('',(23.,20.,-70.));
#1369=CARTESIAN_POINT('',(23.,15.,-15.));
#1370=CARTESIAN_POINT('',(23.,15.,-15.));
#1371=CARTESIAN_POINT('',(23.,15.,-65.));
#1372=CARTESIAN_POINT('',(23.,15.,-65.));
#1373=CARTESIAN_POINT('',(23.,-15.,-65.));
#1374=CARTESIAN_POINT('Origin',(23.,0.,0.));
#1375=CARTESIAN_POINT('',(23.,-20.,-5.));
#1376=CARTESIAN_POINT('',(23.,-20.,5.));
#1377=CARTESIAN_POINT('Origin',(0.,0.,0.));
#1378=CARTESIAN_POINT('',(-4.81482486096809E-32,-15.,-5.));
#1379=CARTESIAN_POINT('',(0.,-15.,-25.));
#1380=CARTESIAN_POINT('',(0.,-15.,-5.));
#1381=CARTESIAN_POINT('',(0.,-15.,-5.));
#1382=CARTESIAN_POINT('',(-4.81482486096809E-32,-15.,5.));
#1383=CARTESIAN_POINT('',(0.,-15.,5.));
#1384=CARTESIAN_POINT('',(0.,-15.,25.));
#1385=CARTESIAN_POINT('',(0.,-15.,25.));
#1386=CARTESIAN_POINT('',(0.,-20.,25.));
#1387=CARTESIAN_POINT('',(0.,20.,70.));
#1388=CARTESIAN_POINT('',(0.,20.,70.));
#1389=CARTESIAN_POINT('',(0.,20.,-70.));
#1390=CARTESIAN_POINT('',(0.,20.,-70.));
#1391=CARTESIAN_POINT('',(0.,-20.,-70.));
#1392=CARTESIAN_POINT('',(0.,-20.,-25.));
#1393=CARTESIAN_POINT('Origin',(23.,20.,70.));
#1394=CARTESIAN_POINT('',(23.,20.,15.));
#1395=CARTESIAN_POINT('',(23.,20.,70.));
#1396=CARTESIAN_POINT('',(23.,20.,15.));
#1397=CARTESIAN_POINT('',(33.,20.,15.));
#1398=CARTESIAN_POINT('',(23.,20.,15.));
#1399=CARTESIAN_POINT('',(33.,20.,-15.));
#1400=CARTESIAN_POINT('',(33.,20.,15.));
#1401=CARTESIAN_POINT('',(33.,20.,-15.));
#1402=CARTESIAN_POINT('',(23.,20.,-70.));
#1403=CARTESIAN_POINT('',(23.,20.,70.));
#1404=CARTESIAN_POINT('',(23.,20.,7.5));
#1405=CARTESIAN_POINT('',(19.,20.,7.5));
#1406=CARTESIAN_POINT('',(23.,20.,7.50000000000001));
#1407=CARTESIAN_POINT('',(19.,20.,-7.5));
#1408=CARTESIAN_POINT('',(19.,20.,-7.5));
#1409=CARTESIAN_POINT('',(23.,20.,-7.5));
#1410=CARTESIAN_POINT('',(23.,20.,-7.5));
#1411=CARTESIAN_POINT('',(27.,20.,-7.5));
#1412=CARTESIAN_POINT('',(27.,20.,-7.5));
#1413=CARTESIAN_POINT('',(27.,20.,7.50000000000001));
#1414=CARTESIAN_POINT('',(27.,20.,7.50000000000001));
#1415=CARTESIAN_POINT('',(23.,20.,7.5));
#1416=CARTESIAN_POINT('Origin',(23.,20.,-70.));
#1417=CARTESIAN_POINT('Origin',(23.,20.,70.));
#1418=CARTESIAN_POINT('',(23.,20.,70.));
#1419=CARTESIAN_POINT('',(18.25,12.5,70.));
#1420=CARTESIAN_POINT('',(5.75,12.5,70.));
#1421=CARTESIAN_POINT('',(18.25,12.5,70.));
#1422=CARTESIAN_POINT('',(18.25,-12.5,70.));
#1423=CARTESIAN_POINT('',(18.25,-12.5,70.));
#1424=CARTESIAN_POINT('',(5.75,-12.5,70.));
#1425=CARTESIAN_POINT('',(5.75,-12.5,70.));
#1426=CARTESIAN_POINT('',(5.75,12.5,70.));
#1427=CARTESIAN_POINT('Origin',(23.,0.,0.));
#1428=CARTESIAN_POINT('',(23.,-15.,25.));
#1429=CARTESIAN_POINT('',(23.,15.,65.));
#1430=CARTESIAN_POINT('',(23.,15.,65.));
#1431=CARTESIAN_POINT('',(23.,15.,15.));
#1432=CARTESIAN_POINT('',(23.,15.,15.));
#1433=CARTESIAN_POINT('',(23.,20.,15.));
#1434=CARTESIAN_POINT('Origin',(5.,15.,-65.));
#1435=CARTESIAN_POINT('',(5.,15.,-65.));
#1436=CARTESIAN_POINT('',(5.,15.,-65.));
#1437=CARTESIAN_POINT('',(5.,-15.,-65.));
#1438=CARTESIAN_POINT('Origin',(5.,15.,65.));
#1439=CARTESIAN_POINT('',(5.,15.,65.));
#1440=CARTESIAN_POINT('',(5.,15.,65.));
#1441=CARTESIAN_POINT('',(5.,15.,65.));
#1442=CARTESIAN_POINT('',(5.75,-12.5,65.));
#1443=CARTESIAN_POINT('',(18.25,-12.5,65.));
#1444=CARTESIAN_POINT('',(5.75,-12.5,65.));
#1445=CARTESIAN_POINT('',(18.25,12.5,65.));
#1446=CARTESIAN_POINT('',(18.25,-12.5,65.));
#1447=CARTESIAN_POINT('',(5.75,12.5,65.));
#1448=CARTESIAN_POINT('',(18.25,12.5,65.));
#1449=CARTESIAN_POINT('',(5.75,12.5,65.));
#1450=CARTESIAN_POINT('Origin',(5.,15.,65.));
#1451=CARTESIAN_POINT('',(33.,15.,-15.));
#1452=CARTESIAN_POINT('',(33.,15.,-15.));
#1453=CARTESIAN_POINT('',(33.,15.,15.));
#1454=CARTESIAN_POINT('',(33.,15.,15.));
#1455=CARTESIAN_POINT('',(23.,15.,15.));
#1456=CARTESIAN_POINT('',(5.,15.,-65.));
#1457=CARTESIAN_POINT('',(27.,15.,-7.49999999999999));
#1458=CARTESIAN_POINT('',(23.,15.,-7.5));
#1459=CARTESIAN_POINT('',(27.,15.,-7.5));
#1460=CARTESIAN_POINT('',(23.,15.,7.5));
#1461=CARTESIAN_POINT('',(23.,15.,-7.5));
#1462=CARTESIAN_POINT('',(27.,15.,7.5));
#1463=CARTESIAN_POINT('',(23.,15.,7.5));
#1464=CARTESIAN_POINT('',(27.,15.,7.5));
#1465=CARTESIAN_POINT('Origin',(5.,0.,0.));
#1466=CARTESIAN_POINT('Origin',(18.25,12.5,52.));
#1467=CARTESIAN_POINT('',(18.25,-12.5,65.));
#1468=CARTESIAN_POINT('',(18.25,12.5,65.));
#1469=CARTESIAN_POINT('Origin',(5.75,-12.5,52.));
#1470=CARTESIAN_POINT('',(5.75,-12.5,65.));
#1471=CARTESIAN_POINT('Origin',(5.75,12.5,52.));
#1472=CARTESIAN_POINT('',(5.75,12.5,65.));
#1473=CARTESIAN_POINT('Origin',(5.75,12.5,52.));
#1474=CARTESIAN_POINT('Origin',(33.,15.,-15.));
#1475=CARTESIAN_POINT('',(33.,15.,15.));
#1476=CARTESIAN_POINT('',(33.,15.,-15.));
#1477=CARTESIAN_POINT('Origin',(13.,15.,15.));
#1478=CARTESIAN_POINT('Origin',(13.,15.,-15.));
#1479=CARTESIAN_POINT('Origin',(23.,15.,7.5));
#1480=CARTESIAN_POINT('',(27.,15.,7.5));
#1481=CARTESIAN_POINT('',(23.,15.,7.5));
#1482=CARTESIAN_POINT('Origin',(23.,15.,7.5));
#1483=CARTESIAN_POINT('',(23.,30.,7.5));
#1484=CARTESIAN_POINT('',(23.,20.,7.5));
#1485=CARTESIAN_POINT('',(23.,15.,-7.5));
#1486=CARTESIAN_POINT('',(23.,30.,-7.5));
#1487=CARTESIAN_POINT('',(23.,30.,-7.5));
#1488=CARTESIAN_POINT('',(23.,30.,7.5));
#1489=CARTESIAN_POINT('',(23.,25.,1.5));
#1490=CARTESIAN_POINT('Origin',(23.,25.,0.));
#1491=CARTESIAN_POINT('Origin',(23.,15.,-7.5));
#1492=CARTESIAN_POINT('',(27.,15.,-7.5));
#1493=CARTESIAN_POINT('Origin',(27.,15.,-7.5));
#1494=CARTESIAN_POINT('Origin',(23.,30.,-7.5));
#1495=CARTESIAN_POINT('',(19.,30.,-7.5));
#1496=CARTESIAN_POINT('',(19.,30.,-7.5));
#1497=CARTESIAN_POINT('',(23.,30.,-7.5));
#1498=CARTESIAN_POINT('Origin',(19.,30.,-7.5));
#1499=CARTESIAN_POINT('',(19.,30.,7.5));
#1500=CARTESIAN_POINT('',(19.,20.,7.5));
#1501=CARTESIAN_POINT('',(19.,30.,-7.5));
#1502=CARTESIAN_POINT('',(19.,25.,1.5));
#1503=CARTESIAN_POINT('Origin',(19.,25.,0.));
#1504=CARTESIAN_POINT('Origin',(0.,30.,0.));
#1505=CARTESIAN_POINT('',(19.,30.,7.5));
#1506=CARTESIAN_POINT('Origin',(19.,15.,7.5));
#1507=CARTESIAN_POINT('Origin',(17.,25.,0.));
#1508=CARTESIAN_POINT('',(17.,25.,1.5));
#1509=CARTESIAN_POINT('Origin',(3.61400724161835E-16,-15.,5.));
#1510=CARTESIAN_POINT('',(-7.,-15.,5.));
#1511=CARTESIAN_POINT('',(-4.81482486096809E-32,-15.,5.));
#1512=CARTESIAN_POINT('',(-7.,-15.,5.));
#1513=CARTESIAN_POINT('Origin',(0.,-15.,25.));
#1514=CARTESIAN_POINT('',(-7.,-15.,25.));
#1515=CARTESIAN_POINT('',(-7.,-15.,25.));
#1516=CARTESIAN_POINT('',(-7.,-15.,25.));
#1517=CARTESIAN_POINT('Origin',(0.,-15.,0.));
#1518=CARTESIAN_POINT('',(-7.,-15.,25.));
#1519=CARTESIAN_POINT('',(-3.,-15.,16.5));
#1520=CARTESIAN_POINT('Origin',(-3.,-15.,15.));
#1521=CARTESIAN_POINT('Origin',(-7.,-15.,-9.10729824887823E-16));
#1522=CARTESIAN_POINT('Origin',(30.,-15.,-1.04083408558608E-14));
#1523=CARTESIAN_POINT('',(30.,-15.,5.));
#1524=CARTESIAN_POINT('',(30.,-15.,25.));
#1525=CARTESIAN_POINT('Origin',(-3.61400724161835E-16,-15.,5.));
#1526=CARTESIAN_POINT('Origin',(0.,-15.,25.));
#1527=CARTESIAN_POINT('Origin',(3.61400724161835E-16,-15.,-5.));
#1528=CARTESIAN_POINT('',(-7.,-15.,-5.));
#1529=CARTESIAN_POINT('',(-4.81482486096809E-32,-15.,-5.));
#1530=CARTESIAN_POINT('',(-7.,-15.,-5.));
#1531=CARTESIAN_POINT('Origin',(0.,-15.,-25.));
#1532=CARTESIAN_POINT('',(-7.,-15.,-25.));
#1533=CARTESIAN_POINT('',(-7.,-15.,-25.));
#1534=CARTESIAN_POINT('',(-7.,-15.,-25.));
#1535=CARTESIAN_POINT('Origin',(0.,-15.,0.));
#1536=CARTESIAN_POINT('',(-7.,-15.,-25.));
#1537=CARTESIAN_POINT('',(-3.,-15.,-13.5));
#1538=CARTESIAN_POINT('Origin',(-3.,-15.,-15.));
#1539=CARTESIAN_POINT('Origin',(-7.,-15.,9.10729824887823E-16));
#1540=CARTESIAN_POINT('Origin',(30.,-15.,1.04083408558608E-14));
#1541=CARTESIAN_POINT('',(30.,-15.,-25.));
#1542=CARTESIAN_POINT('',(30.,-15.,-5.));
#1543=CARTESIAN_POINT('Origin',(0.,-15.,-25.));
#1544=CARTESIAN_POINT('Origin',(-3.61400724161835E-16,-15.,-5.));
#1545=CARTESIAN_POINT('Origin',(-3.,-15.,-15.));
#1546=CARTESIAN_POINT('',(-3.,-15.,-13.5));
#1547=CARTESIAN_POINT('Origin',(-3.,-15.,15.));
#1548=CARTESIAN_POINT('',(-3.,-15.,16.5));
#1549=CARTESIAN_POINT('Origin',(26.,-15.,-15.));
#1550=CARTESIAN_POINT('',(26.,-15.,-13.5));
#1551=CARTESIAN_POINT('Origin',(26.,-15.,15.));
#1552=CARTESIAN_POINT('',(26.,-15.,16.5));
#1553=UNCERTAINTY_MEASURE_WITH_UNIT(LENGTH_MEASURE(0.01),#1557,
'DISTANCE_ACCURACY_VALUE',
'Maximum model space distance between geometric entities at asserted c
onnectivities');
#1554=UNCERTAINTY_MEASURE_WITH_UNIT(LENGTH_MEASURE(0.01),#1557,
'DISTANCE_ACCURACY_VALUE',
'Maximum model space distance between geometric entities at asserted c
onnectivities');
#1555=(
GEOMETRIC_REPRESENTATION_CONTEXT(3)
GLOBAL_UNCERTAINTY_ASSIGNED_CONTEXT((#1553))
GLOBAL_UNIT_ASSIGNED_CONTEXT((#1557,#1559,#1560))
REPRESENTATION_CONTEXT('','3D')
);
#1556=(
GEOMETRIC_REPRESENTATION_CONTEXT(3)
GLOBAL_UNCERTAINTY_ASSIGNED_CONTEXT((#1554))
GLOBAL_UNIT_ASSIGNED_CONTEXT((#1557,#1559,#1560))
REPRESENTATION_CONTEXT('','3D')
);
#1557=(
LENGTH_UNIT()
NAMED_UNIT(*)
SI_UNIT(.MILLI.,.METRE.)
);
#1558=(
LENGTH_UNIT()
NAMED_UNIT(*)
SI_UNIT($,.METRE.)
);
#1559=(
NAMED_UNIT(*)
PLANE_ANGLE_UNIT()
SI_UNIT($,.RADIAN.)
);
#1560=(
NAMED_UNIT(*)
SI_UNIT($,.STERADIAN.)
SOLID_ANGLE_UNIT()
);
#1561=SHAPE_DEFINITION_REPRESENTATION(#1562,#1563);
#1562=PRODUCT_DEFINITION_SHAPE('',$,#1565);
#1563=SHAPE_REPRESENTATION('',(#987),#1555);
#1564=PRODUCT_DEFINITION_CONTEXT('part definition',#1569,'design');
#1565=PRODUCT_DEFINITION('zed mini mount','zed mini mount v1',#1566,#1564);
#1566=PRODUCT_DEFINITION_FORMATION('',$,#1571);
#1567=PRODUCT_RELATED_PRODUCT_CATEGORY('zed mini mount v1',
'zed mini mount v1',(#1571));
#1568=APPLICATION_PROTOCOL_DEFINITION('international standard',
'automotive_design',2009,#1569);
#1569=APPLICATION_CONTEXT(
'Core Data for Automotive Mechanical Design Process');
#1570=PRODUCT_CONTEXT('part definition',#1569,'mechanical');
#1571=PRODUCT('zed mini mount','zed mini mount v1',$,(#1570));
#1572=PRESENTATION_STYLE_ASSIGNMENT((#1573));
#1573=SURFACE_STYLE_USAGE(.BOTH.,#1574);
#1574=SURFACE_SIDE_STYLE('',(#1575));
#1575=SURFACE_STYLE_FILL_AREA(#1576);
#1576=FILL_AREA_STYLE('Steel - Satin',(#1577));
#1577=FILL_AREA_STYLE_COLOUR('Steel - Satin',#1578);
#1578=COLOUR_RGB('Steel - Satin',0.627450980392157,0.627450980392157,0.627450980392157);
ENDSEC;
END-ISO-10303-21;
