  0
SECTION
  2
HEADER
  9
$ACADVER
  1
AC1015
  9
$ACADMAINTVER
 70
     6
  9
$DWGCODEPAGE
  3
ANSI_1252
  9
$INSBASE
 10
0.0
 20
0.0
 30
0.0
  9
$EXTMIN
 10
-12501.8214037858
 20
-15250.0
 30
0.0
  9
$EXTMAX
 10
39875.0
 20
17000.0
 30
0.0
  9
$LIMMIN
 10
0.0
 20
0.0
  9
$LIMMAX
 10
420.0
 20
297.0
  9
$ORTHOMODE
 70
     0
  9
$REGENMODE
 70
     1
  9
$FILLMODE
 70
     1
  9
$QTEXTMODE
 70
     0
  9
$MIRRTEXT
 70
     1
  9
$LTSCALE
 40
1.0
  9
$ATTMODE
 70
     1
  9
$TEXTSIZE
 40
3.5
  9
$TRACEWID
 40
1.0
  9
$TEXTSTYLE
  7
Standard
  9
$CLAYER
  8
0
  9
$CELTYPE
  6
ByLayer
  9
$CECOLOR
 62
   256
  9
$CELTSCALE
 40
1.0
  9
$DISPSILH
 70
     0
  9
$DIMSCALE
 40
1.0
  9
$DIMASZ
 40
3.302
  9
$DIMEXO
 40
0.0
  9
$DIMDLI
 40
3.75
  9
$DIMRND
 40
0.0
  9
$DIMDLE
 40
0.0
  9
$DIMEXE
 40
1.0
  9
$DIMTP
 40
0.0
  9
$DIMTM
 40
0.0
  9
$DIMTXT
 40
3.5
  9
$DIMCEN
 40
2.5
  9
$DIMTSZ
 40
0.0
  9
$DIMTOL
 70
     0
  9
$DIMLIM
 70
     0
  9
$DIMTIH
 70
     1
  9
$DIMTOH
 70
     1
  9
$DIMSE1
 70
     0
  9
$DIMSE2
 70
     0
  9
$DIMTAD
 70
     1
  9
$DIMZIN
 70
     1
  9
$DIMBLK
  1

  9
$DIMASO
 70
     1
  9
$DIMSHO
 70
     1
  9
$DIMPOST
  1

  9
$DIMAPOST
  1

  9
$DIMALT
 70
     0
  9
$DIMALTD
 70
     3
  9
$DIMALTF
 40
0.0393700787
  9
$DIMLFAC
 40
1.0
  9
$DIMTOFL
 70
     1
  9
$DIMTVP
 40
0.0
  9
$DIMTIX
 70
     0
  9
$DIMSOXD
 70
     0
  9
$DIMSAH
 70
     0
  9
$DIMBLK1
  1

  9
$DIMBLK2
  1

  9
$DIMSTYLE
  2
ISO-25
  9
$DIMCLRD
 70
     0
  9
$DIMCLRE
 70
     0
  9
$DIMCLRT
 70
     0
  9
$DIMTFAC
 40
1.0
  9
$DIMGAP
 40
1.524
  9
$DIMJUST
 70
     0
  9
$DIMSD1
 70
     0
  9
$DIMSD2
 70
     0
  9
$DIMTOLJ
 70
     0
  9
$DIMTZIN
 70
     1
  9
$DIMALTZ
 70
     0
  9
$DIMALTTZ
 70
     0
  9
$DIMUPT
 70
     0
  9
$DIMDEC
 70
     2
  9
$DIMTDEC
 70
     2
  9
$DIMALTU
 70
     2
  9
$DIMALTTD
 70
     3
  9
$DIMTXSTY
  7
Standard
  9
$DIMAUNIT
 70
     0
  9
$DIMADEC
 70
     2
  9
$DIMALTRND
 40
0.0
  9
$DIMAZIN
 70
     0
  9
$DIMDSEP
 70
    44
  9
$DIMATFIT
 70
     3
  9
$DIMFRAC
 70
     0
  9
$DIMLDRBLK
  1

  9
$DIMLUNIT
 70
     2
  9
$DIMLWD
 70
    -2
  9
$DIMLWE
 70
    -2
  9
$DIMTMOVE
 70
     0
  9
$LUNITS
 70
     2
  9
$LUPREC
 70
     2
  9
$SKETCHINC
 40
1.0
  9
$FILLETRAD
 40
0.0
  9
$AUNITS
 70
     0
  9
$AUPREC
 70
     2
  9
$MENU
  1
.
  9
$ELEVATION
 40
0.0
  9
$PELEVATION
 40
0.0
  9
$THICKNESS
 40
0.0
  9
$LIMCHECK
 70
     0
  9
$CHAMFERA
 40
0.0
  9
$CHAMFERB
 40
0.0
  9
$CHAMFERC
 40
0.0
  9
$CHAMFERD
 40
0.0
  9
$SKPOLY
 70
     0
  9
$TDCREATE
 40
2461021.712071424
  9
$TDUCREATE
 40
2461021.482904757
  9
$TDUPDATE
 40
2461021.712217674
  9
$TDUUPDATE
 40
2461021.483051007
  9
$TDINDWG
 40
0.0000000116
  9
$TDUSRTIMER
 40
0.0000000116
  9
$USRTIMER
 70
     1
  9
$ANGBASE
 50
0.0
  9
$ANGDIR
 70
     0
  9
$PDMODE
 70
     0
  9
$PDSIZE
 40
-1.0
  9
$PLINEWID
 40
0.0
  9
$SPLFRAME
 70
     0
  9
$SPLINETYPE
 70
     6
  9
$SPLINESEGS
 70
     8
  9
$HANDSEED
  5
190
  9
$SURFTAB1
 70
     6
  9
$SURFTAB2
 70
     6
  9
$SURFTYPE
 70
     6
  9
$SURFU
 70
     6
  9
$SURFV
 70
     6
  9
$UCSBASE
  2

  9
$UCSNAME
  2

  9
$UCSORG
 10
0.0
 20
0.0
 30
0.0
  9
$UCSXDIR
 10
1.0
 20
0.0
 30
0.0
  9
$UCSYDIR
 10
0.0
 20
1.0
 30
0.0
  9
$UCSORTHOREF
  2

  9
$UCSORTHOVIEW
 70
     0
  9
$UCSORGTOP
 10
0.0
 20
0.0
 30
0.0
  9
$UCSORGBOTTOM
 10
0.0
 20
0.0
 30
0.0
  9
$UCSORGLEFT
 10
0.0
 20
0.0
 30
0.0
  9
$UCSORGRIGHT
 10
0.0
 20
0.0
 30
0.0
  9
$UCSORGFRONT
 10
0.0
 20
0.0
 30
0.0
  9
$UCSORGBACK
 10
0.0
 20
0.0
 30
0.0
  9
$PUCSBASE
  2

  9
$PUCSNAME
  2

  9
$PUCSORG
 10
0.0
 20
0.0
 30
0.0
  9
$PUCSXDIR
 10
1.0
 20
0.0
 30
0.0
  9
$PUCSYDIR
 10
0.0
 20
1.0
 30
0.0
  9
$PUCSORTHOREF
  2

  9
$PUCSORTHOVIEW
 70
     0
  9
$PUCSORGTOP
 10
0.0
 20
0.0
 30
0.0
  9
$PUCSORGBOTTOM
 10
0.0
 20
0.0
 30
0.0
  9
$PUCSORGLEFT
 10
0.0
 20
0.0
 30
0.0
  9
$PUCSORGRIGHT
 10
0.0
 20
0.0
 30
0.0
  9
$PUCSORGFRONT
 10
0.0
 20
0.0
 30
0.0
  9
$PUCSORGBACK
 10
0.0
 20
0.0
 30
0.0
  9
$USERI1
 70
     0
  9
$USERI2
 70
     0
  9
$USERI3
 70
     0
  9
$USERI4
 70
     0
  9
$USERI5
 70
     0
  9
$USERR1
 40
0.0
  9
$USERR2
 40
0.0
  9
$USERR3
 40
0.0
  9
$USERR4
 40
0.0
  9
$USERR5
 40
0.0
  9
$WORLDVIEW
 70
     1
  9
$SHADEDGE
 70
     3
  9
$SHADEDIF
 70
    70
  9
$TILEMODE
 70
     1
  9
$MAXACTVP
 70
    64
  9
$PINSBASE
 10
0.0
 20
0.0
 30
0.0
  9
$PLIMCHECK
 70
     0
  9
$PEXTMIN
 10
1.0000000000E+20
 20
1.0000000000E+20
 30
1.0000000000E+20
  9
$PEXTMAX
 10
-1.0000000000E+20
 20
-1.0000000000E+20
 30
-1.0000000000E+20
  9
$PLIMMIN
 10
0.0
 20
0.0
  9
$PLIMMAX
 10
420.0
 20
297.0
  9
$UNITMODE
 70
     0
  9
$VISRETAIN
 70
     1
  9
$PLINEGEN
 70
     0
  9
$PSLTSCALE
 70
     1
  9
$TREEDEPTH
 70
  3020
  9
$CMLSTYLE
  2
Standard
  9
$CMLJUST
 70
     0
  9
$CMLSCALE
 40
20.0
  9
$PROXYGRAPHICS
 70
     1
  9
$MEASUREMENT
 70
     1
  9
$CELWEIGHT
370
    -1
  9
$ENDCAPS
280
     0
  9
$JOINSTYLE
280
     0
  9
$LWDISPLAY
290
     1
  9
$INSUNITS
 70
     4
  9
$HYPERLINKBASE
  1

  9
$STYLESHEET
  1

  9
$XEDIT
290
     1
  9
$CEPSNTYPE
380
     0
  9
$PSTYLEMODE
290
     1
  9
$FINGERPRINTGUID
  2
{a9306b7c-261b-48bf-8977-765cef9a169f}
  9
$VERSIONGUID
  2
{FAEB1C32-E019-11D5-929B-00C0DF256EC4}
  9
$EXTNAMES
290
     1
  9
$PSVPSCALE
 40
0.0
  9
$OLESTARTUP
290
     0
  0
ENDSEC
  0
SECTION
  2
CLASSES
  0
CLASS
  1
ACDBDICTIONARYWDFLT
  2
AcDbDictionaryWithDefault
  3
ObjectDBX Classes
 90
        0
280
     0
281
     0
  0
CLASS
  1
VISUALSTYLE
  2
AcDbVisualStyle
  3
ObjectDBX Classes
 90
     4095
280
     0
281
     0
  0
CLASS
  1
MATERIAL
  2
AcDbMaterial
  3
ObjectDBX Classes
 90
     1153
280
     0
281
     0
  0
CLASS
  1
SCALE
  2
AcDbScale
  3
ObjectDBX Classes
 90
     1153
280
     0
281
     0
  0
CLASS
  1
TABLESTYLE
  2
AcDbTableStyle
  3
ObjectDBX Classes
 90
     4095
280
     0
281
     0
  0
CLASS
  1
MLEADERSTYLE
  2
AcDbMLeaderStyle
  3
ACDB_MLEADERSTYLE_CLASS
 90
     4095
280
     0
281
     0
  0
CLASS
  1
SUN
  2
AcDbSun
  3
SCENEOE
 90
     1153
280
     0
281
     0
  0
CLASS
  1
ACDBPLACEHOLDER
  2
AcDbPlaceHolder
  3
ObjectDBX Classes
 90
        0
280
     0
281
     0
  0
CLASS
  1
LAYOUT
  2
AcDbLayout
  3
ObjectDBX Classes
 90
        0
280
     0
281
     0
  0
ENDSEC
  0
SECTION
  2
TABLES
  0
TABLE
  2
VPORT
  5
8
330
0
100
AcDbSymbolTable
 70
     1
  0
VPORT
  5
29
330
8
100
AcDbSymbolTableRecord
100
AcDbViewportTableRecord
  2
*Active
 70
     0
 10
0.0
 20
0.0
 11
1.0
 21
1.0
 12
13686.5892981071
 22
875.0
 13
0.0
 23
0.0
 14
10.0
 24
10.0
 15
10.0
 25
10.0
 16
0.0
 26
0.0
 36
1.0
 17
0.0
 27
0.0
 37
0.0
 40
32895.0
 41
1.6240874854
 42
50.0
 43
0.0
 44
0.0
 50
0.0
 51
0.0
 71
     0
 72
   100
 73
     1
 74
     3
 75
     0
 76
     0
 77
     0
 78
     0
281
     0
 65
     1
110
0.0
120
0.0
130
0.0
111
1.0
121
0.0
131
0.0
112
0.0
122
1.0
132
0.0
 79
     0
146
0.0
  0
ENDTAB
  0
TABLE
  2
LTYPE
  5
5
330
0
100
AcDbSymbolTable
 70
     6
  0
LTYPE
  5
14
330
5
100
AcDbSymbolTableRecord
100
AcDbLinetypeTableRecord
  2
ByBlock
 70
     0
  3

 72
    65
 73
     0
 40
0.0
  0
LTYPE
  5
15
330
5
100
AcDbSymbolTableRecord
100
AcDbLinetypeTableRecord
  2
ByLayer
 70
     0
  3

 72
    65
 73
     0
 40
0.0
  0
LTYPE
  5
16
330
5
100
AcDbSymbolTableRecord
100
AcDbLinetypeTableRecord
  2
Continuous
 70
     0
  3
Solid line
 72
    65
 73
     0
 40
0.0
  0
LTYPE
  5
5E
330
5
100
AcDbSymbolTableRecord
100
AcDbLinetypeTableRecord
  2
HIDDEN
 70
     0
  3
Hidden __ __ __ __ __ __ __ __ __ __ __ __ __ __
 72
    65
 73
     2
 40
1.905
 49
1.27
 74
     0
 49
-0.635
 74
     0
  0
LTYPE
  5
5F
330
5
100
AcDbSymbolTableRecord
100
AcDbLinetypeTableRecord
  2
PHANTOM
 70
     0
  3
Phantom ______  __  __  ______  __  __  ______
 72
    65
 73
     6
 40
12.7
 49
6.35
 74
     0
 49
-1.27
 74
     0
 49
1.27
 74
     0
 49
-1.27
 74
     0
 49
1.27
 74
     0
 49
-1.27
 74
     0
  0
LTYPE
  5
60
330
5
100
AcDbSymbolTableRecord
100
AcDbLinetypeTableRecord
  2
CENTER
 70
     0
  3
Center ____ _ ____ _ ____ _ ____ _ ____ _ ____
 72
    65
 73
     4
 40
10.16
 49
6.35
 74
     0
 49
-1.27
 74
     0
 49
1.27
 74
     0
 49
-1.27
 74
     0
  0
LTYPE
  5
61
330
5
100
AcDbSymbolTableRecord
100
AcDbLinetypeTableRecord
  2
CENTERX2
 70
     0
  3
Center (2x) ________  __  ________  __  _____
 72
    65
 73
     4
 40
20.32
 49
12.7
 74
     0
 49
-2.54
 74
     0
 49
2.54
 74
     0
 49
-2.54
 74
     0
  0
LTYPE
  5
62
330
5
100
AcDbSymbolTableRecord
100
AcDbLinetypeTableRecord
  2
DOT2
 70
     0
  3
Dot (.5x) ........................................
 72
    65
 73
     2
 40
0.635
 49
0.0
 74
     0
 49
-0.635
 74
     0
  0
ENDTAB
  0
TABLE
  2
LAYER
  5
2
330
0
100
AcDbSymbolTable
 70
     1
  0
LAYER
  5
10
330
2
100
AcDbSymbolTableRecord
100
AcDbLayerTableRecord
  2
0
 70
     0
 62
     7
  6
Continuous
370
    -3
390
F
  0
ENDTAB
  0
TABLE
  2
STYLE
  5
3
330
0
100
AcDbSymbolTable
 70
     1
  0
STYLE
  5
11
330
3
100
AcDbSymbolTableRecord
100
AcDbTextStyleTableRecord
  2
Standard
 70
     0
 40
0.0
 41
1.0
 50
0.0
 71
     0
 42
3.5
  3
txt
  4

  0
ENDTAB
  0
TABLE
  2
VIEW
  5
6
330
0
100
AcDbSymbolTable
 70
     0
  0
ENDTAB
  0
TABLE
  2
UCS
  5
7
330
0
100
AcDbSymbolTable
 70
     0
  0
ENDTAB
  0
TABLE
  2
APPID
  5
9
330
0
100
AcDbSymbolTable
 70
     1
  0
APPID
  5
12
330
9
100
AcDbSymbolTableRecord
100
AcDbRegAppTableRecord
  2
ACAD
 70
     0
  0
ENDTAB
  0
TABLE
  2
DIMSTYLE
  5
A
330
0
100
AcDbSymbolTable
 70
     1
100
AcDbDimStyleTable
  0
DIMSTYLE
105
27
330
A
100
AcDbSymbolTableRecord
100
AcDbDimStyleTableRecord
  2
ISO-25
 70
     0
 41
2.5
 42
0.625
 43
3.75
 44
1.25
 73
     0
 74
     0
 77
     1
 78
     8
140
2.5
141
2.5
143
0.0393700787
147
0.625
171
     3
172
     1
178
     0
271
     2
272
     2
274
     3
278
    44
283
     0
284
     8
340
11
  0
ENDTAB
  0
TABLE
  2
BLOCK_RECORD
  5
1
330
0
100
AcDbSymbolTable
 70
     1
  0
BLOCK_RECORD
  5
1F
330
1
100
AcDbSymbolTableRecord
100
AcDbBlockTableRecord
  2
*Model_Space
340
22
  0
BLOCK_RECORD
  5
1B
330
1
100
AcDbSymbolTableRecord
100
AcDbBlockTableRecord
  2
*Paper_Space
340
1E
  0
BLOCK_RECORD
  5
23
330
1
100
AcDbSymbolTableRecord
100
AcDbBlockTableRecord
  2
*Paper_Space0
340
26
  0
ENDTAB
  0
ENDSEC
  0
SECTION
  2
BLOCKS
  0
BLOCK
  5
20
330
1F
100
AcDbEntity
  8
0
100
AcDbBlockBegin
  2
*Model_Space
 70
     0
 10
0.0
 20
0.0
 30
0.0
  3
*Model_Space
  1

  0
ENDBLK
  5
21
330
1F
100
AcDbEntity
  8
0
100
AcDbBlockEnd
  0
BLOCK
  5
1C
330
1B
100
AcDbEntity
 67
     1
  8
0
100
AcDbBlockBegin
  2
*Paper_Space
 70
     0
 10
0.0
 20
0.0
 30
0.0
  3
*Paper_Space
  1

  0
ENDBLK
  5
1D
330
1B
100
AcDbEntity
 67
     1
  8
0
100
AcDbBlockEnd
  0
BLOCK
  5
24
330
23
100
AcDbEntity
  8
0
100
AcDbBlockBegin
  2
*Paper_Space0
 70
     0
 10
0.0
 20
0.0
 30
0.0
  3
*Paper_Space0
  1

  0
ENDBLK
  5
25
330
23
100
AcDbEntity
  8
0
100
AcDbBlockEnd
  0
ENDSEC
  0
SECTION
  2
ENTITIES
  0
LINE
  5
63
330
1F
100
AcDbEntity
  8
0
  6
Continuous
 62
     7
100
AcDbLine
 10
0.0
 20
0.0
 30
0.0
 11
-2250.0
 21
0.0
 31
0.0
  0
LINE
  5
64
330
1F
100
AcDbEntity
  8
0
  6
Continuous
 62
     7
100
AcDbLine
 10
-2250.0
 20
0.0
 30
0.0
 11
-2250.0
 21
4750.0
 31
0.0
  0
LINE
  5
65
330
1F
100
AcDbEntity
  8
0
  6
Continuous
 62
     7
100
AcDbLine
 10
-2250.0
 20
4750.0
 30
0.0
 11
-11950.0
 21
4750.0
 31
0.0
  0
LINE
  5
66
330
1F
100
AcDbEntity
  8
0
  6
Continuous
 62
     7
100
AcDbLine
 10
-11950.0
 20
4750.0
 30
0.0
 11
-11950.0
 21
8500.0
 31
0.0
  0
LINE
  5
67
330
1F
100
AcDbEntity
  8
0
  6
Continuous
 62
     7
100
AcDbLine
 10
-11950.0
 20
8500.0
 30
0.0
 11
-2250.0
 21
8500.0
 31
0.0
  0
LINE
  5
68
330
1F
100
AcDbEntity
  8
0
  6
Continuous
 62
     7
100
AcDbLine
 10
-2250.0
 20
8500.0
 30
0.0
 11
-2250.0
 21
14750.0
 31
0.0
  0
LINE
  5
69
330
1F
100
AcDbEntity
  8
0
  6
Continuous
 62
     7
100
AcDbLine
 10
-2250.0
 20
14750.0
 30
0.0
 11
0.0
 21
14750.0
 31
0.0
  0
LINE
  5
6A
330
1F
100
AcDbEntity
  8
0
  6
Continuous
 62
     7
100
AcDbLine
 10
0.0
 20
14750.0
 30
0.0
 11
0.0
 21
12750.0
 31
0.0
  0
LINE
  5
6B
330
1F
100
AcDbEntity
  8
0
  6
Continuous
 62
     7
100
AcDbLine
 10
0.0
 20
12750.0
 30
0.0
 11
16500.0
 21
12750.0
 31
0.0
  0
LINE
  5
6C
330
1F
100
AcDbEntity
  8
0
  6
Continuous
 62
     7
100
AcDbLine
 10
16500.0
 20
10500.0
 30
0.0
 11
0.0
 21
10500.0
 31
0.0
  0
LINE
  5
6D
330
1F
100
AcDbEntity
  8
0
  6
Continuous
 62
     7
100
AcDbLine
 10
0.0
 20
0.0
 30
0.0
 11
0.0
 21
10500.0
 31
0.0
  0
LINE
  5
6E
330
1F
100
AcDbEntity
  8
0
  6
Continuous
 62
     7
100
AcDbLine
 10
16500.0
 20
12750.0
 30
0.0
 11
16500.0
 21
17000.0
 31
0.0
  0
LINE
  5
6F
330
1F
100
AcDbEntity
  8
0
  6
Continuous
 62
     7
100
AcDbLine
 10
16500.0
 20
17000.0
 30
0.0
 11
18875.0
 21
17000.0
 31
0.0
  0
LINE
  5
70
330
1F
100
AcDbEntity
  8
0
  6
Continuous
 62
     7
100
AcDbLine
 10
18875.0
 20
17000.0
 30
0.0
 11
18875.0
 21
15250.0
 31
0.0
  0
LINE
  5
71
330
1F
100
AcDbEntity
  8
0
  6
Continuous
 62
     7
100
AcDbLine
 10
16500.0
 20
10500.0
 30
0.0
 11
16500.0
 21
-15250.0
 31
0.0
  0
LINE
  5
72
330
1F
100
AcDbEntity
  8
0
  6
Continuous
 62
     7
100
AcDbLine
 10
16500.0
 20
-15250.0
 30
0.0
 11
18875.0
 21
-15250.0
 31
0.0
  0
LINE
  5
73
330
1F
100
AcDbEntity
  8
0
  6
Continuous
 62
     7
100
AcDbLine
 10
18875.0
 20
13375.0
 30
0.0
 11
37625.0
 21
13375.0
 31
0.0
  0
LINE
  5
74
330
1F
100
AcDbEntity
  8
0
  6
Continuous
 62
     7
100
AcDbLine
 10
39875.0
 20
15250.0
 30
0.0
 11
18875.0
 21
15250.0
 31
0.0
  0
LINE
  5
75
330
1F
100
AcDbEntity
  8
0
  6
Continuous
 62
     7
100
AcDbLine
 10
18875.0
 20
13375.0
 30
0.0
 11
18875.0
 21
-15250.0
 31
0.0
  0
LINE
  5
76
330
1F
100
AcDbEntity
  8
0
  6
Continuous
 62
     7
100
AcDbLine
 10
39875.0
 20
15250.0
 30
0.0
 11
39875.0
 21
-9500.0
 31
0.0
  0
LINE
  5
77
330
1F
100
AcDbEntity
  8
0
  6
Continuous
 62
     7
100
AcDbLine
 10
37625.0
 20
-9500.0
 30
0.0
 11
37625.0
 21
13375.0
 31
0.0
  0
LINE
  5
78
330
1F
100
AcDbEntity
  8
0
  6
Continuous
 62
     7
100
AcDbLine
 10
37625.0
 20
-9500.0
 30
0.0
 11
39875.0
 21
-9500.0
 31
0.0
  0
LINE
  5
79
330
1F
100
AcDbEntity
  8
0
  6
Continuous
 62
     7
100
AcDbLine
 10
-1553.6458796269
 20
0.0
 30
0.0
 11
-1553.6458796269
 21
-285.4645169861
 31
0.0
  0
LINE
  5
7A
330
1F
100
AcDbEntity
  8
0
  6
Continuous
 62
     7
100
AcDbLine
 10
-1553.6458796269
 20
0.0
 30
0.0
 11
-946.3541203731
 21
0.0
 31
0.0
  0
LINE
  5
7B
330
1F
100
AcDbEntity
  8
0
  6
Continuous
 62
     7
100
AcDbLine
 10
-946.3541203731
 20
0.0
 30
0.0
 11
-946.3541203731
 21
-285.4645169861
 31
0.0
  0
LINE
  5
7C
330
1F
100
AcDbEntity
  8
0
  6
Continuous
 62
     7
100
AcDbLine
 10
-1553.6458796269
 20
-285.4645169861
 30
0.0
 11
-946.3541203731
 21
-285.4645169861
 31
0.0
  0
LINE
  5
7D
330
1F
100
AcDbEntity
  8
0
  6
Continuous
 62
     7
100
AcDbLine
 10
-2250.0
 20
3643.9814060408
 30
0.0
 11
-2250.0
 21
2856.0185939592
 31
0.0
  0
LINE
  5
7E
330
1F
100
AcDbEntity
  8
0
  6
Continuous
 62
     7
100
AcDbLine
 10
-2250.0
 20
12125.0
 30
0.0
 11
-2702.1016326216
 21
12125.0
 31
0.0
  0
LINE
  5
7F
330
1F
100
AcDbEntity
  8
0
  6
Continuous
 62
     7
100
AcDbLine
 10
-2702.1016326216
 20
12674.2993547002
 30
0.0
 11
-2250.0
 21
12674.2993547002
 31
0.0
  0
LINE
  5
80
330
1F
100
AcDbEntity
  8
0
  6
Continuous
 62
     7
100
AcDbLine
 10
-2702.1016326216
 20
12674.2993547002
 30
0.0
 11
-2702.1016326216
 21
11575.7006452998
 31
0.0
  0
LINE
  5
81
330
1F
100
AcDbEntity
  8
0
  6
Continuous
 62
     7
100
AcDbLine
 10
-2702.1016326216
 20
11575.7006452998
 30
0.0
 11
-2250.0
 21
11575.7006452998
 31
0.0
  0
LINE
  5
82
330
1F
100
AcDbEntity
  8
0
  6
Continuous
 62
     7
100
AcDbLine
 10
-2280.4890439255
 20
14375.0
 30
0.0
 11
-2732.5906765471
 21
14375.0
 31
0.0
  0
LINE
  5
83
330
1F
100
AcDbEntity
  8
0
  6
Continuous
 62
     7
100
AcDbLine
 10
-2732.5906765471
 20
14375.0
 30
0.0
 11
-2250.0
 21
14375.0
 31
0.0
  0
LINE
  5
84
330
1F
100
AcDbEntity
  8
0
  6
Continuous
 62
     7
100
AcDbLine
 10
-1250.0
 20
-285.4645169861
 30
0.0
 11
-1553.6458796269
 21
-285.4645169861
 31
0.0
  0
LINE
  5
85
330
1F
100
AcDbEntity
  8
0
  6
Continuous
 62
     7
100
AcDbLine
 10
-2702.1016326216
 20
3799.2993547002
 30
0.0
 11
-2250.0
 21
3799.2993547002
 31
0.0
  0
LINE
  5
86
330
1F
100
AcDbEntity
  8
0
  6
Continuous
 62
     7
100
AcDbLine
 10
-2732.5906765471
 20
14375.0
 30
0.0
 11
-2732.5906765471
 21
13825.7006452998
 31
0.0
  0
LINE
  5
87
330
1F
100
AcDbEntity
  8
0
  6
Continuous
 62
     7
100
AcDbLine
 10
-2732.5906765471
 20
13825.7006452998
 30
0.0
 11
-2250.0
 21
13825.7006452998
 31
0.0
  0
LINE
  5
88
330
1F
100
AcDbEntity
  8
0
  6
Continuous
 62
     7
100
AcDbLine
 10
-2732.5906765471
 20
14375.0
 30
0.0
 11
-2732.5906765471
 21
14673.9458936857
 31
0.0
  0
LINE
  5
89
330
1F
100
AcDbEntity
  8
0
  6
Continuous
 62
     7
100
AcDbLine
 10
-2250.0
 20
3250.0
 30
0.0
 11
-2702.1016326216
 21
3250.0
 31
0.0
  0
LINE
  5
8A
330
1F
100
AcDbEntity
  8
0
  6
Continuous
 62
     7
100
AcDbLine
 10
-2732.5906765471
 20
14673.9458936857
 30
0.0
 11
-2250.0
 21
14673.9458936857
 31
0.0
  0
LINE
  5
8B
330
1F
100
AcDbEntity
  8
0
  6
Continuous
 62
     7
100
AcDbLine
 10
-2702.1016326216
 20
3799.2993547002
 30
0.0
 11
-2702.1016326216
 21
2700.7006452998
 31
0.0
  0
LINE
  5
8C
330
1F
100
AcDbEntity
  8
0
  6
Continuous
 62
     7
100
AcDbLine
 10
-2702.1016326216
 20
2700.7006452998
 30
0.0
 11
-2250.0
 21
2700.7006452998
 31
0.0
  0
LINE
  5
8D
330
1F
100
AcDbEntity
  8
0
  6
Continuous
 62
     7
100
AcDbLine
 10
-1750.0
 20
14986.3391044865
 30
0.0
 11
-1750.0
 21
14750.0
 31
0.0
  0
LINE
  5
8E
330
1F
100
AcDbEntity
  8
0
  6
Continuous
 62
     7
100
AcDbLine
 10
-2193.5855551236
 20
14986.3391044865
 30
0.0
 11
-1306.4144448764
 21
14986.3391044865
 31
0.0
  0
LINE
  5
8F
330
1F
100
AcDbEntity
  8
0
  6
Continuous
 62
     7
100
AcDbLine
 10
-2193.5855551236
 20
14986.3391044865
 30
0.0
 11
-2193.5855551236
 21
14750.0
 31
0.0
  0
LINE
  5
90
330
1F
100
AcDbEntity
  8
0
  6
Continuous
 62
     7
100
AcDbLine
 10
-1306.4144448764
 20
14986.3391044865
 30
0.0
 11
-1306.4144448764
 21
14750.0
 31
0.0
  0
LINE
  5
91
330
1F
100
AcDbEntity
  8
0
  6
Continuous
 62
     7
100
AcDbLine
 10
0.0
 20
4426.25
 30
0.0
 11
0.0
 21
4073.75
 31
0.0
  0
LINE
  5
92
330
1F
100
AcDbEntity
  8
0
  6
Continuous
 62
     7
100
AcDbLine
 10
-150.0
 20
4426.25
 30
0.0
 11
0.0
 21
4426.25
 31
0.0
  0
LINE
  5
93
330
1F
100
AcDbEntity
  8
0
  6
Continuous
 62
     7
100
AcDbLine
 10
-150.0
 20
4426.25
 30
0.0
 11
-150.0
 21
4073.75
 31
0.0
  0
LINE
  5
94
330
1F
100
AcDbEntity
  8
0
  6
Continuous
 62
     7
100
AcDbLine
 10
-150.0
 20
4073.75
 30
0.0
 11
0.0
 21
4073.75
 31
0.0
  0
LINE
  5
95
330
1F
100
AcDbEntity
  8
0
  6
Continuous
 62
     7
100
AcDbLine
 10
0.0
 20
10500.0
 30
0.0
 11
-150.0
 21
10500.0
 31
0.0
  0
LINE
  5
96
330
1F
100
AcDbEntity
  8
0
  6
Continuous
 62
     7
100
AcDbLine
 10
0.0
 20
10500.0
 30
0.0
 11
0.0
 21
10147.5
 31
0.0
  0
LINE
  5
97
330
1F
100
AcDbEntity
  8
0
  6
Continuous
 62
     7
100
AcDbLine
 10
0.0
 20
10147.5
 30
0.0
 11
-150.0
 21
10147.5
 31
0.0
  0
LINE
  5
98
330
1F
100
AcDbEntity
  8
0
  6
Continuous
 62
     7
100
AcDbLine
 10
-150.0
 20
10500.0
 30
0.0
 11
-150.0
 21
10147.5
 31
0.0
  0
LINE
  5
99
330
1F
100
AcDbEntity
  8
0
  6
Continuous
 62
     7
100
AcDbLine
 10
-150.0
 20
4250.0
 30
0.0
 11
0.0
 21
4250.0
 31
0.0
  0
LINE
  5
9A
330
1F
100
AcDbEntity
  8
0
  6
Continuous
 62
     7
100
AcDbLine
 10
0.0
 20
12750.0
 30
0.0
 11
-82.5
 21
12750.0
 31
0.0
  0
LINE
  5
9B
330
1F
100
AcDbEntity
  8
0
  6
Continuous
 62
     7
100
AcDbLine
 10
0.0
 20
12750.0
 30
0.0
 11
0.0
 21
13270.0
 31
0.0
  0
LINE
  5
9C
330
1F
100
AcDbEntity
  8
0
  6
Continuous
 62
     7
100
AcDbLine
 10
0.0
 20
13270.0
 30
0.0
 11
-82.5
 21
13270.0
 31
0.0
  0
LINE
  5
9D
330
1F
100
AcDbEntity
  8
0
  6
Continuous
 62
     7
100
AcDbLine
 10
-82.5
 20
12750.0
 30
0.0
 11
-82.5
 21
13270.0
 31
0.0
  0
LINE
  5
9E
330
1F
100
AcDbEntity
  8
0
  6
Continuous
 62
     7
100
AcDbLine
 10
-150.0
 20
4073.75
 30
0.0
 11
0.0
 21
4426.25
 31
0.0
  0
LINE
  5
9F
330
1F
100
AcDbEntity
  8
0
  6
Continuous
 62
     7
100
AcDbLine
 10
0.0
 20
4073.75
 30
0.0
 11
-150.0
 21
4426.25
 31
0.0
  0
LINE
  5
A0
330
1F
100
AcDbEntity
  8
0
  6
Continuous
 62
     7
100
AcDbLine
 10
-82.5
 20
12750.0
 30
0.0
 11
0.0
 21
13270.0
 31
0.0
  0
LINE
  5
A1
330
1F
100
AcDbEntity
  8
0
  6
Continuous
 62
     7
100
AcDbLine
 10
0.0
 20
12750.0
 30
0.0
 11
-82.5
 21
13270.0
 31
0.0
  0
LINE
  5
A2
330
1F
100
AcDbEntity
  8
0
  6
Continuous
 62
     7
100
AcDbLine
 10
-150.0
 20
10147.5
 30
0.0
 11
0.0
 21
10500.0
 31
0.0
  0
LINE
  5
A3
330
1F
100
AcDbEntity
  8
0
  6
Continuous
 62
     7
100
AcDbLine
 10
0.0
 20
10147.5
 30
0.0
 11
-150.0
 21
10500.0
 31
0.0
  0
LINE
  5
A4
330
1F
100
AcDbEntity
  8
0
  6
Continuous
 62
     7
100
AcDbLine
 10
0.0
 20
12587.5
 30
0.0
 11
355.0
 21
12750.0
 31
0.0
  0
LINE
  5
A5
330
1F
100
AcDbEntity
  8
0
  6
Continuous
 62
     7
100
AcDbLine
 10
0.0
 20
12750.0
 30
0.0
 11
355.0
 21
12750.0
 31
0.0
  0
LINE
  5
A6
330
1F
100
AcDbEntity
  8
0
  6
Continuous
 62
     7
100
AcDbLine
 10
0.0
 20
12750.0
 30
0.0
 11
0.0
 21
12587.5
 31
0.0
  0
LINE
  5
A7
330
1F
100
AcDbEntity
  8
0
  6
Continuous
 62
     7
100
AcDbLine
 10
0.0
 20
12587.5
 30
0.0
 11
355.0
 21
12587.5
 31
0.0
  0
LINE
  5
A8
330
1F
100
AcDbEntity
  8
0
  6
Continuous
 62
     7
100
AcDbLine
 10
355.0
 20
12750.0
 30
0.0
 11
355.0
 21
12587.5
 31
0.0
  0
LINE
  5
A9
330
1F
100
AcDbEntity
  8
0
  6
Continuous
 62
     7
100
AcDbLine
 10
355.0
 20
12587.5
 30
0.0
 11
0.0
 21
12750.0
 31
0.0
  0
LINE
  5
AA
330
1F
100
AcDbEntity
  8
0
  6
Continuous
 62
     7
100
AcDbLine
 10
16145.0
 20
12587.5
 30
0.0
 11
16500.0
 21
12750.0
 31
0.0
  0
LINE
  5
AB
330
1F
100
AcDbEntity
  8
0
  6
Continuous
 62
     7
100
AcDbLine
 10
16145.0
 20
12750.0
 30
0.0
 11
16500.0
 21
12750.0
 31
0.0
  0
LINE
  5
AC
330
1F
100
AcDbEntity
  8
0
  6
Continuous
 62
     7
100
AcDbLine
 10
16145.0
 20
12750.0
 30
0.0
 11
16145.0
 21
12587.5
 31
0.0
  0
LINE
  5
AD
330
1F
100
AcDbEntity
  8
0
  6
Continuous
 62
     7
100
AcDbLine
 10
16145.0
 20
12587.5
 30
0.0
 11
16500.0
 21
12587.5
 31
0.0
  0
LINE
  5
AE
330
1F
100
AcDbEntity
  8
0
  6
Continuous
 62
     7
100
AcDbLine
 10
16500.0
 20
12750.0
 30
0.0
 11
16500.0
 21
12587.5
 31
0.0
  0
LINE
  5
AF
330
1F
100
AcDbEntity
  8
0
  6
Continuous
 62
     7
100
AcDbLine
 10
16500.0
 20
12587.5
 30
0.0
 11
16145.0
 21
12750.0
 31
0.0
  0
LINE
  5
B0
330
1F
100
AcDbEntity
  8
0
  6
Continuous
 62
     7
100
AcDbLine
 10
16322.5
 20
12587.5
 30
0.0
 11
16322.5
 21
12750.0
 31
0.0
  0
LINE
  5
B1
330
1F
100
AcDbEntity
  8
0
  6
Continuous
 62
     7
100
AcDbLine
 10
15250.0
 20
13270.0
 30
0.0
 11
15250.0
 21
12750.0
 31
0.0
  0
LINE
  5
B2
330
1F
100
AcDbEntity
  8
0
  6
Continuous
 62
     7
100
AcDbLine
 10
14612.0975553554
 20
12750.0
 30
0.0
 11
15887.9024446446
 21
12750.0
 31
0.0
  0
LINE
  5
B3
330
1F
100
AcDbEntity
  8
0
  6
Continuous
 62
     7
100
AcDbLine
 10
14612.0975553554
 20
12750.0
 30
0.0
 11
14612.0975553554
 21
13270.0
 31
0.0
  0
LINE
  5
B4
330
1F
100
AcDbEntity
  8
0
  6
Continuous
 62
     7
100
AcDbLine
 10
14612.0975553554
 20
13270.0
 30
0.0
 11
15887.9024446446
 21
13270.0
 31
0.0
  0
LINE
  5
B5
330
1F
100
AcDbEntity
  8
0
  6
Continuous
 62
     7
100
AcDbLine
 10
15887.9024446446
 20
12750.0
 30
0.0
 11
15887.9024446446
 21
13270.0
 31
0.0
  0
LINE
  5
B6
330
1F
100
AcDbEntity
  8
0
  6
Continuous
 62
     7
100
AcDbLine
 10
16500.0
 20
12750.0
 30
0.0
 11
16587.5
 21
13220.0
 31
0.0
  0
LINE
  5
B7
330
1F
100
AcDbEntity
  8
0
  6
Continuous
 62
     7
100
AcDbLine
 10
16500.0
 20
12750.0
 30
0.0
 11
16587.5
 21
12750.0
 31
0.0
  0
LINE
  5
B8
330
1F
100
AcDbEntity
  8
0
  6
Continuous
 62
     7
100
AcDbLine
 10
16500.0
 20
12750.0
 30
0.0
 11
16500.0
 21
13220.0
 31
0.0
  0
LINE
  5
B9
330
1F
100
AcDbEntity
  8
0
  6
Continuous
 62
     7
100
AcDbLine
 10
16500.0
 20
13220.0
 30
0.0
 11
16587.5
 21
13220.0
 31
0.0
  0
LINE
  5
BA
330
1F
100
AcDbEntity
  8
0
  6
Continuous
 62
     7
100
AcDbLine
 10
16587.5
 20
12750.0
 30
0.0
 11
16587.5
 21
13220.0
 31
0.0
  0
LINE
  5
BB
330
1F
100
AcDbEntity
  8
0
  6
Continuous
 62
     7
100
AcDbLine
 10
16587.5
 20
12750.0
 30
0.0
 11
16500.0
 21
13220.0
 31
0.0
  0
LINE
  5
BC
330
1F
100
AcDbEntity
  8
0
  6
Continuous
 62
     7
100
AcDbLine
 10
16655.0
 20
10375.0
 30
0.0
 11
16500.0
 21
10375.0
 31
0.0
  0
LINE
  5
BD
330
1F
100
AcDbEntity
  8
0
  6
Continuous
 62
     7
100
AcDbLine
 10
16500.0
 20
10500.0
 30
0.0
 11
16655.0
 21
10500.0
 31
0.0
  0
LINE
  5
BE
330
1F
100
AcDbEntity
  8
0
  6
Continuous
 62
     7
100
AcDbLine
 10
16500.0
 20
10500.0
 30
0.0
 11
16500.0
 21
10250.0
 31
0.0
  0
LINE
  5
BF
330
1F
100
AcDbEntity
  8
0
  6
Continuous
 62
     7
100
AcDbLine
 10
16500.0
 20
10250.0
 30
0.0
 11
16655.0
 21
10250.0
 31
0.0
  0
LINE
  5
C0
330
1F
100
AcDbEntity
  8
0
  6
Continuous
 62
     7
100
AcDbLine
 10
16655.0
 20
10500.0
 30
0.0
 11
16655.0
 21
10250.0
 31
0.0
  0
LINE
  5
C1
330
1F
100
AcDbEntity
  8
0
  6
Continuous
 62
     7
100
AcDbLine
 10
16500.0
 20
4362.5
 30
0.0
 11
16645.0
 21
4362.5
 31
0.0
  0
LINE
  5
C2
330
1F
100
AcDbEntity
  8
0
  6
Continuous
 62
     7
100
AcDbLine
 10
16500.0
 20
4362.5
 30
0.0
 11
16500.0
 21
3887.5
 31
0.0
  0
LINE
  5
C3
330
1F
100
AcDbEntity
  8
0
  6
Continuous
 62
     7
100
AcDbLine
 10
16500.0
 20
3887.5
 30
0.0
 11
16645.0
 21
3887.5
 31
0.0
  0
LINE
  5
C4
330
1F
100
AcDbEntity
  8
0
  6
Continuous
 62
     7
100
AcDbLine
 10
16645.0
 20
4362.5
 30
0.0
 11
16645.0
 21
3887.5
 31
0.0
  0
LINE
  5
C5
330
1F
100
AcDbEntity
  8
0
  6
Continuous
 62
     7
100
AcDbLine
 10
16500.0
 20
362.5
 30
0.0
 11
16645.0
 21
362.5
 31
0.0
  0
LINE
  5
C6
330
1F
100
AcDbEntity
  8
0
  6
Continuous
 62
     7
100
AcDbLine
 10
16500.0
 20
362.5
 30
0.0
 11
16500.0
 21
-112.5
 31
0.0
  0
LINE
  5
C7
330
1F
100
AcDbEntity
  8
0
  6
Continuous
 62
     7
100
AcDbLine
 10
16500.0
 20
-112.5
 30
0.0
 11
16645.0
 21
-112.5
 31
0.0
  0
LINE
  5
C8
330
1F
100
AcDbEntity
  8
0
  6
Continuous
 62
     7
100
AcDbLine
 10
16645.0
 20
362.5
 30
0.0
 11
16645.0
 21
-112.5
 31
0.0
  0
LINE
  5
C9
330
1F
100
AcDbEntity
  8
0
  6
Continuous
 62
     7
100
AcDbLine
 10
16500.0
 20
-4212.5
 30
0.0
 11
16645.0
 21
-4212.5
 31
0.0
  0
LINE
  5
CA
330
1F
100
AcDbEntity
  8
0
  6
Continuous
 62
     7
100
AcDbLine
 10
16500.0
 20
-4212.5
 30
0.0
 11
16500.0
 21
-4537.5
 31
0.0
  0
LINE
  5
CB
330
1F
100
AcDbEntity
  8
0
  6
Continuous
 62
     7
100
AcDbLine
 10
16500.0
 20
-4537.5
 30
0.0
 11
16645.0
 21
-4537.5
 31
0.0
  0
LINE
  5
CC
330
1F
100
AcDbEntity
  8
0
  6
Continuous
 62
     7
100
AcDbLine
 10
16645.0
 20
-4212.5
 30
0.0
 11
16645.0
 21
-4537.5
 31
0.0
  0
LINE
  5
CD
330
1F
100
AcDbEntity
  8
0
  6
Continuous
 62
     7
100
AcDbLine
 10
16500.0
 20
-3999.347158795
 30
0.0
 11
16500.0
 21
-4324.347158795
 31
0.0
  0
LINE
  5
CE
330
1F
100
AcDbEntity
  8
0
  6
Continuous
 62
     7
100
AcDbLine
 10
16645.0
 20
-4212.5
 30
0.0
 11
16645.0
 21
-4324.347158795
 31
0.0
  0
LINE
  5
CF
330
1F
100
AcDbEntity
  8
0
  6
Continuous
 62
     7
100
AcDbLine
 10
16500.0
 20
-5663.2028361999
 30
0.0
 11
16500.0
 21
-5988.2028361999
 31
0.0
  0
LINE
  5
D0
330
1F
100
AcDbEntity
  8
0
  6
Continuous
 62
     7
100
AcDbLine
 10
16645.0
 20
4125.0
 30
0.0
 11
16500.0
 21
4125.0
 31
0.0
  0
LINE
  5
D1
330
1F
100
AcDbEntity
  8
0
  6
Continuous
 62
     7
100
AcDbLine
 10
16645.0
 20
125.0
 30
0.0
 11
16500.0
 21
125.0
 31
0.0
  0
LINE
  5
D2
330
1F
100
AcDbEntity
  8
0
  6
Continuous
 62
     7
100
AcDbLine
 10
16645.0
 20
-4375.0
 30
0.0
 11
16500.0
 21
-4375.0
 31
0.0
  0
LINE
  5
D3
330
1F
100
AcDbEntity
  8
0
  6
Continuous
 62
     7
100
AcDbLine
 10
16645.0
 20
-8875.0
 30
0.0
 11
16500.0
 21
-8875.0
 31
0.0
  0
LINE
  5
D4
330
1F
100
AcDbEntity
  8
0
  6
Continuous
 62
     7
100
AcDbLine
 10
16500.0
 20
-8712.5
 30
0.0
 11
16645.0
 21
-8712.5
 31
0.0
  0
LINE
  5
D5
330
1F
100
AcDbEntity
  8
0
  6
Continuous
 62
     7
100
AcDbLine
 10
16500.0
 20
-8712.5
 30
0.0
 11
16500.0
 21
-9037.5
 31
0.0
  0
LINE
  5
D6
330
1F
100
AcDbEntity
  8
0
  6
Continuous
 62
     7
100
AcDbLine
 10
16500.0
 20
-9037.5
 30
0.0
 11
16645.0
 21
-9037.5
 31
0.0
  0
LINE
  5
D7
330
1F
100
AcDbEntity
  8
0
  6
Continuous
 62
     7
100
AcDbLine
 10
16645.0
 20
-8712.5
 30
0.0
 11
16645.0
 21
-9037.5
 31
0.0
  0
LINE
  5
D8
330
1F
100
AcDbEntity
  8
0
  6
Continuous
 62
     7
100
AcDbLine
 10
16500.0
 20
-9037.5
 30
0.0
 11
16645.0
 21
-8712.5
 31
0.0
  0
LINE
  5
D9
330
1F
100
AcDbEntity
  8
0
  6
Continuous
 62
     7
100
AcDbLine
 10
16645.0
 20
-9037.5
 30
0.0
 11
16500.0
 21
-8712.5
 31
0.0
  0
LINE
  5
DA
330
1F
100
AcDbEntity
  8
0
  6
Continuous
 62
     7
100
AcDbLine
 10
16645.0
 20
-4212.5
 30
0.0
 11
16500.0
 21
-4537.5
 31
0.0
  0
LINE
  5
DB
330
1F
100
AcDbEntity
  8
0
  6
Continuous
 62
     7
100
AcDbLine
 10
16645.0
 20
-4537.5
 30
0.0
 11
16500.0
 21
-4212.5
 31
0.0
  0
LINE
  5
DC
330
1F
100
AcDbEntity
  8
0
  6
Continuous
 62
     7
100
AcDbLine
 10
16500.0
 20
-112.5
 30
0.0
 11
16645.0
 21
362.5
 31
0.0
  0
LINE
  5
DD
330
1F
100
AcDbEntity
  8
0
  6
Continuous
 62
     7
100
AcDbLine
 10
16645.0
 20
-112.5
 30
0.0
 11
16500.0
 21
362.5
 31
0.0
  0
LINE
  5
DE
330
1F
100
AcDbEntity
  8
0
  6
Continuous
 62
     7
100
AcDbLine
 10
16500.0
 20
3887.5
 30
0.0
 11
16645.0
 21
4362.5
 31
0.0
  0
LINE
  5
DF
330
1F
100
AcDbEntity
  8
0
  6
Continuous
 62
     7
100
AcDbLine
 10
16645.0
 20
3887.5
 30
0.0
 11
16500.0
 21
4362.5
 31
0.0
  0
LINE
  5
E0
330
1F
100
AcDbEntity
  8
0
  6
Continuous
 62
     7
100
AcDbLine
 10
16500.0
 20
10250.0
 30
0.0
 11
16655.0
 21
10500.0
 31
0.0
  0
LINE
  5
E1
330
1F
100
AcDbEntity
  8
0
  6
Continuous
 62
     7
100
AcDbLine
 10
16655.0
 20
10250.0
 30
0.0
 11
16500.0
 21
10500.0
 31
0.0
  0
LINE
  5
E2
330
1F
100
AcDbEntity
  8
0
  6
Continuous
 62
     7
100
AcDbLine
 10
19487.1903421967
 20
9750.0
 30
0.0
 11
18875.0
 21
9750.0
 31
0.0
  0
LINE
  5
E3
330
1F
100
AcDbEntity
  8
0
  6
Continuous
 62
     7
100
AcDbLine
 10
18875.0
 20
10612.5781206293
 30
0.0
 11
19487.1903421967
 21
10612.5781206293
 31
0.0
  0
LINE
  5
E4
330
1F
100
AcDbEntity
  8
0
  6
Continuous
 62
     7
100
AcDbLine
 10
18875.0
 20
10612.5781206293
 30
0.0
 11
18875.0
 21
8887.4218793707
 31
0.0
  0
LINE
  5
E5
330
1F
100
AcDbEntity
  8
0
  6
Continuous
 62
     7
100
AcDbLine
 10
18875.0
 20
8887.4218793707
 30
0.0
 11
19487.1903421967
 21
8887.4218793707
 31
0.0
  0
LINE
  5
E6
330
1F
100
AcDbEntity
  8
0
  6
Continuous
 62
     7
100
AcDbLine
 10
19487.1903421967
 20
10612.5781206293
 30
0.0
 11
19487.1903421967
 21
8887.4218793707
 31
0.0
  0
LINE
  5
E7
330
1F
100
AcDbEntity
  8
0
  6
Continuous
 62
     7
100
AcDbLine
 10
19487.1903421967
 20
5250.0
 30
0.0
 11
18875.0
 21
5250.0
 31
0.0
  0
LINE
  5
E8
330
1F
100
AcDbEntity
  8
0
  6
Continuous
 62
     7
100
AcDbLine
 10
18875.0
 20
6164.5475032873
 30
0.0
 11
19487.1903421967
 21
6164.5475032873
 31
0.0
  0
LINE
  5
E9
330
1F
100
AcDbEntity
  8
0
  6
Continuous
 62
     7
100
AcDbLine
 10
18875.0
 20
6164.5475032873
 30
0.0
 11
18875.0
 21
4335.4524967127
 31
0.0
  0
LINE
  5
EA
330
1F
100
AcDbEntity
  8
0
  6
Continuous
 62
     7
100
AcDbLine
 10
18875.0
 20
4335.4524967127
 30
0.0
 11
19487.1903421967
 21
4335.4524967127
 31
0.0
  0
LINE
  5
EB
330
1F
100
AcDbEntity
  8
0
  6
Continuous
 62
     7
100
AcDbLine
 10
19487.1903421967
 20
6164.5475032873
 30
0.0
 11
19487.1903421967
 21
4335.4524967127
 31
0.0
  0
LINE
  5
EC
330
1F
100
AcDbEntity
  8
0
  6
Continuous
 62
     7
100
AcDbLine
 10
19487.1903421967
 20
-3750.0
 30
0.0
 11
18875.0
 21
-3750.0
 31
0.0
  0
LINE
  5
ED
330
1F
100
AcDbEntity
  8
0
  6
Continuous
 62
     7
100
AcDbLine
 10
18875.0
 20
-2750.2671119868
 30
0.0
 11
19487.1903421967
 21
-2750.2671119868
 31
0.0
  0
LINE
  5
EE
330
1F
100
AcDbEntity
  8
0
  6
Continuous
 62
     7
100
AcDbLine
 10
18875.0
 20
-2750.2671119868
 30
0.0
 11
18875.0
 21
-4749.7328880132
 31
0.0
  0
LINE
  5
EF
330
1F
100
AcDbEntity
  8
0
  6
Continuous
 62
     7
100
AcDbLine
 10
18875.0
 20
-4749.7328880132
 30
0.0
 11
19487.1903421967
 21
-4749.7328880132
 31
0.0
  0
LINE
  5
F0
330
1F
100
AcDbEntity
  8
0
  6
Continuous
 62
     7
100
AcDbLine
 10
19487.1903421967
 20
-2750.2671119868
 30
0.0
 11
19487.1903421967
 21
-4749.7328880132
 31
0.0
  0
LINE
  5
F1
330
1F
100
AcDbEntity
  8
0
  6
Continuous
 62
     7
100
AcDbLine
 10
19487.1903421967
 20
-6250.0
 30
0.0
 11
18875.0
 21
-6250.0
 31
0.0
  0
LINE
  5
F2
330
1F
100
AcDbEntity
  8
0
  6
Continuous
 62
     7
100
AcDbLine
 10
18875.0
 20
-5201.2347918354
 30
0.0
 11
19487.1903421967
 21
-5201.2347918354
 31
0.0
  0
LINE
  5
F3
330
1F
100
AcDbEntity
  8
0
  6
Continuous
 62
     7
100
AcDbLine
 10
18875.0
 20
-5201.2347918354
 30
0.0
 11
18875.0
 21
-7298.7652081646
 31
0.0
  0
LINE
  5
F4
330
1F
100
AcDbEntity
  8
0
  6
Continuous
 62
     7
100
AcDbLine
 10
18875.0
 20
-7298.7652081646
 30
0.0
 11
19487.1903421967
 21
-7298.7652081646
 31
0.0
  0
LINE
  5
F5
330
1F
100
AcDbEntity
  8
0
  6
Continuous
 62
     7
100
AcDbLine
 10
19487.1903421967
 20
-5201.2347918354
 30
0.0
 11
19487.1903421967
 21
-7298.7652081646
 31
0.0
  0
LINE
  5
F6
330
1F
100
AcDbEntity
  8
0
  6
Continuous
 62
     7
100
AcDbLine
 10
23375.0
 20
15656.4766455323
 30
0.0
 11
23375.0
 21
15250.0
 31
0.0
  0
LINE
  5
F7
330
1F
100
AcDbEntity
  8
0
  6
Continuous
 62
     7
100
AcDbLine
 10
22469.2206951882
 20
15250.0
 30
0.0
 11
24280.7793048117
 21
15250.0
 31
0.0
  0
LINE
  5
F8
330
1F
100
AcDbEntity
  8
0
  6
Continuous
 62
     7
100
AcDbLine
 10
22709.1206797411
 20
15250.0
 30
0.0
 11
24040.8793202589
 21
15250.0
 31
0.0
  0
LINE
  5
F9
330
1F
100
AcDbEntity
  8
0
  6
Continuous
 62
     7
100
AcDbLine
 10
27030.8962508519
 20
15250.0
 30
0.0
 11
28719.1037491481
 21
15250.0
 31
0.0
  0
LINE
  5
FA
330
1F
100
AcDbEntity
  8
0
  6
Continuous
 62
     7
100
AcDbLine
 10
22709.1206797411
 20
15250.0
 30
0.0
 11
22709.1206797411
 21
15656.4766455323
 31
0.0
  0
LINE
  5
FB
330
1F
100
AcDbEntity
  8
0
  6
Continuous
 62
     7
100
AcDbLine
 10
31758.7987541907
 20
15250.0
 30
0.0
 11
33243.7515786232
 21
15250.0
 31
0.0
  0
LINE
  5
FC
330
1F
100
AcDbEntity
  8
0
  6
Continuous
 62
     7
100
AcDbLine
 10
22709.1206797411
 20
15656.4766455323
 30
0.0
 11
24040.8793202589
 21
15656.4766455323
 31
0.0
  0
LINE
  5
FD
330
1F
100
AcDbEntity
  8
0
  6
Continuous
 62
     7
100
AcDbLine
 10
38875.0
 20
15250.0
 30
0.0
 11
39875.0
 21
15250.0
 31
0.0
  0
LINE
  5
FE
330
1F
100
AcDbEntity
  8
0
  6
Continuous
 62
     7
100
AcDbLine
 10
39875.0
 20
15250.0
 30
0.0
 11
39875.0
 21
12388.5510554033
 31
0.0
  0
LINE
  5
FF
330
1F
100
AcDbEntity
  8
0
  6
Continuous
 62
     7
100
AcDbLine
 10
18875.0
 20
13375.0
 30
0.0
 11
19062.5
 21
13470.0
 31
0.0
  0
LINE
  5
100
330
1F
100
AcDbEntity
  8
0
  6
Continuous
 62
     7
100
AcDbLine
 10
18875.0
 20
13375.0
 30
0.0
 11
19062.5
 21
13375.0
 31
0.0
  0
LINE
  5
101
330
1F
100
AcDbEntity
  8
0
  6
Continuous
 62
     7
100
AcDbLine
 10
18875.0
 20
13375.0
 30
0.0
 11
18875.0
 21
13470.0
 31
0.0
  0
LINE
  5
102
330
1F
100
AcDbEntity
  8
0
  6
Continuous
 62
     7
100
AcDbLine
 10
18875.0
 20
13470.0
 30
0.0
 11
19062.5
 21
13470.0
 31
0.0
  0
LINE
  5
103
330
1F
100
AcDbEntity
  8
0
  6
Continuous
 62
     7
100
AcDbLine
 10
19062.5
 20
13375.0
 30
0.0
 11
19062.5
 21
13470.0
 31
0.0
  0
LINE
  5
104
330
1F
100
AcDbEntity
  8
0
  6
Continuous
 62
     7
100
AcDbLine
 10
19062.5
 20
13375.0
 30
0.0
 11
18875.0
 21
13470.0
 31
0.0
  0
LINE
  5
105
330
1F
100
AcDbEntity
  8
0
  6
Continuous
 62
     7
100
AcDbLine
 10
20260.7055733158
 20
13375.0
 30
0.0
 11
20885.7055733158
 21
13445.0
 31
0.0
  0
LINE
  5
106
330
1F
100
AcDbEntity
  8
0
  6
Continuous
 62
     7
100
AcDbLine
 10
20260.7055733158
 20
13375.0
 30
0.0
 11
20885.7055733158
 21
13375.0
 31
0.0
  0
LINE
  5
107
330
1F
100
AcDbEntity
  8
0
  6
Continuous
 62
     7
100
AcDbLine
 10
20260.7055733158
 20
13375.0
 30
0.0
 11
20260.7055733158
 21
13445.0
 31
0.0
  0
LINE
  5
108
330
1F
100
AcDbEntity
  8
0
  6
Continuous
 62
     7
100
AcDbLine
 10
20260.7055733158
 20
13445.0
 30
0.0
 11
20885.7055733158
 21
13445.0
 31
0.0
  0
LINE
  5
109
330
1F
100
AcDbEntity
  8
0
  6
Continuous
 62
     7
100
AcDbLine
 10
20885.7055733158
 20
13375.0
 30
0.0
 11
20885.7055733158
 21
13445.0
 31
0.0
  0
LINE
  5
10A
330
1F
100
AcDbEntity
  8
0
  6
Continuous
 62
     7
100
AcDbLine
 10
20885.7055733158
 20
13375.0
 30
0.0
 11
20260.7055733158
 21
13445.0
 31
0.0
  0
LINE
  5
10B
330
1F
100
AcDbEntity
  8
0
  6
Continuous
 62
     7
100
AcDbLine
 10
37117.8579967192
 20
11875.0
 30
0.0
 11
37625.0
 21
11875.0
 31
0.0
  0
LINE
  5
10C
330
1F
100
AcDbEntity
  8
0
  6
Continuous
 62
     7
100
AcDbLine
 10
35618.220671429
 20
13375.0
 30
0.0
 11
35168.220671429
 21
13375.0
 31
0.0
  0
LINE
  5
10D
330
1F
100
AcDbEntity
  8
0
  6
Continuous
 62
     7
100
AcDbLine
 10
35618.220671429
 20
13375.0
 30
0.0
 11
35618.220671429
 21
13445.0
 31
0.0
  0
LINE
  5
10E
330
1F
100
AcDbEntity
  8
0
  6
Continuous
 62
     7
100
AcDbLine
 10
35618.220671429
 20
13445.0
 30
0.0
 11
35168.220671429
 21
13445.0
 31
0.0
  0
LINE
  5
10F
330
1F
100
AcDbEntity
  8
0
  6
Continuous
 62
     7
100
AcDbLine
 10
35168.220671429
 20
13375.0
 30
0.0
 11
35168.220671429
 21
13445.0
 31
0.0
  0
LINE
  5
110
330
1F
100
AcDbEntity
  8
0
  6
Continuous
 62
     7
100
AcDbLine
 10
37625.0
 20
12667.4778719917
 30
0.0
 11
37117.8579967192
 21
12667.4778719917
 31
0.0
  0
LINE
  5
111
330
1F
100
AcDbEntity
  8
0
  6
Continuous
 62
     7
100
AcDbLine
 10
37625.0
 20
12667.4778719917
 30
0.0
 11
37625.0
 21
11082.5221280083
 31
0.0
  0
LINE
  5
112
330
1F
100
AcDbEntity
  8
0
  6
Continuous
 62
     7
100
AcDbLine
 10
37625.0
 20
11082.5221280083
 30
0.0
 11
37117.8579967192
 21
11082.5221280083
 31
0.0
  0
LINE
  5
113
330
1F
100
AcDbEntity
  8
0
  6
Continuous
 62
     7
100
AcDbLine
 10
37117.8579967192
 20
12667.4778719917
 30
0.0
 11
37117.8579967192
 21
11082.5221280083
 31
0.0
  0
LINE
  5
114
330
1F
100
AcDbEntity
  8
0
  6
Continuous
 62
     7
100
AcDbLine
 10
37625.0
 20
12667.4778719917
 30
0.0
 11
37727.5
 21
13142.4778719917
 31
0.0
  0
LINE
  5
115
330
1F
100
AcDbEntity
  8
0
  6
Continuous
 62
     7
100
AcDbLine
 10
37625.0
 20
12667.4778719917
 30
0.0
 11
37727.5
 21
12667.4778719917
 31
0.0
  0
LINE
  5
116
330
1F
100
AcDbEntity
  8
0
  6
Continuous
 62
     7
100
AcDbLine
 10
37625.0
 20
12667.4778719917
 30
0.0
 11
37625.0
 21
13142.4778719917
 31
0.0
  0
LINE
  5
117
330
1F
100
AcDbEntity
  8
0
  6
Continuous
 62
     7
100
AcDbLine
 10
37625.0
 20
13142.4778719917
 30
0.0
 11
37727.5
 21
13142.4778719917
 31
0.0
  0
LINE
  5
118
330
1F
100
AcDbEntity
  8
0
  6
Continuous
 62
     7
100
AcDbLine
 10
37727.5
 20
12667.4778719917
 30
0.0
 11
37727.5
 21
13142.4778719917
 31
0.0
  0
LINE
  5
119
330
1F
100
AcDbEntity
  8
0
  6
Continuous
 62
     7
100
AcDbLine
 10
37727.5
 20
12667.4778719917
 30
0.0
 11
37625.0
 21
13142.4778719917
 31
0.0
  0
LINE
  5
11A
330
1F
100
AcDbEntity
  8
0
  6
Continuous
 62
     7
100
AcDbLine
 10
37727.5
 20
11082.5221280083
 30
0.0
 11
37727.5
 21
10607.5221280083
 31
0.0
  0
LINE
  5
11B
330
1F
100
AcDbEntity
  8
0
  6
Continuous
 62
     7
100
AcDbLine
 10
37625.0
 20
10607.5221280083
 30
0.0
 11
37727.5
 21
10607.5221280083
 31
0.0
  0
LINE
  5
11C
330
1F
100
AcDbEntity
  8
0
  6
Continuous
 62
     7
100
AcDbLine
 10
37625.0
 20
11082.5221280083
 30
0.0
 11
37625.0
 21
10607.5221280083
 31
0.0
  0
LINE
  5
11D
330
1F
100
AcDbEntity
  8
0
  6
Continuous
 62
     7
100
AcDbLine
 10
37625.0
 20
11082.5221280083
 30
0.0
 11
37727.5
 21
11082.5221280083
 31
0.0
  0
LINE
  5
11E
330
1F
100
AcDbEntity
  8
0
  6
Continuous
 62
     7
100
AcDbLine
 10
37625.0
 20
11082.5221280083
 30
0.0
 11
37727.5
 21
10607.5221280083
 31
0.0
  0
LINE
  5
11F
330
1F
100
AcDbEntity
  8
0
  6
Continuous
 62
     7
100
AcDbLine
 10
37727.5
 20
11082.5221280083
 30
0.0
 11
37625.0
 21
10607.5221280083
 31
0.0
  0
LINE
  5
120
330
1F
100
AcDbEntity
  8
0
  6
Continuous
 62
     7
100
AcDbLine
 10
37625.0
 20
11082.5221280083
 30
0.0
 11
37727.5
 21
11082.5221280083
 31
0.0
  0
LINE
  5
121
330
1F
100
AcDbEntity
  8
0
  6
Continuous
 62
     7
100
AcDbLine
 10
37625.0
 20
10607.5221280083
 30
0.0
 11
37625.0
 21
11082.5221280083
 31
0.0
  0
LINE
  5
122
330
1F
100
AcDbEntity
  8
0
  6
Continuous
 62
     7
100
AcDbLine
 10
37117.8579967192
 20
-3625.0
 30
0.0
 11
37625.0
 21
-3625.0
 31
0.0
  0
LINE
  5
123
330
1F
100
AcDbEntity
  8
0
  6
Continuous
 62
     7
100
AcDbLine
 10
37625.0
 20
-2689.810692073
 30
0.0
 11
37117.8579967192
 21
-2689.810692073
 31
0.0
  0
LINE
  5
124
330
1F
100
AcDbEntity
  8
0
  6
Continuous
 62
     7
100
AcDbLine
 10
37625.0
 20
-2689.810692073
 30
0.0
 11
37625.0
 21
-4560.189307927
 31
0.0
  0
LINE
  5
125
330
1F
100
AcDbEntity
  8
0
  6
Continuous
 62
     7
100
AcDbLine
 10
37625.0
 20
-4560.189307927
 30
0.0
 11
37117.8579967192
 21
-4560.189307927
 31
0.0
  0
LINE
  5
126
330
1F
100
AcDbEntity
  8
0
  6
Continuous
 62
     7
100
AcDbLine
 10
37117.8579967192
 20
-2689.810692073
 30
0.0
 11
37117.8579967192
 21
-4560.189307927
 31
0.0
  0
LINE
  5
127
330
1F
100
AcDbEntity
  8
0
  6
Continuous
 62
     7
100
AcDbLine
 10
37117.8579967192
 20
-6375.0
 30
0.0
 11
37625.0
 21
-6375.0
 31
0.0
  0
LINE
  5
128
330
1F
100
AcDbEntity
  8
0
  6
Continuous
 62
     7
100
AcDbLine
 10
37625.0
 20
-5475.9454125042
 30
0.0
 11
37117.8579967192
 21
-5475.9454125042
 31
0.0
  0
LINE
  5
129
330
1F
100
AcDbEntity
  8
0
  6
Continuous
 62
     7
100
AcDbLine
 10
37625.0
 20
-5475.9454125042
 30
0.0
 11
37625.0
 21
-7274.0545874958
 31
0.0
  0
LINE
  5
12A
330
1F
100
AcDbEntity
  8
0
  6
Continuous
 62
     7
100
AcDbLine
 10
37625.0
 20
-7274.0545874958
 30
0.0
 11
37117.8579967192
 21
-7274.0545874958
 31
0.0
  0
LINE
  5
12B
330
1F
100
AcDbEntity
  8
0
  6
Continuous
 62
     7
100
AcDbLine
 10
37117.8579967192
 20
-5475.9454125042
 30
0.0
 11
37117.8579967192
 21
-7274.0545874958
 31
0.0
  0
LINE
  5
12C
330
1F
100
AcDbEntity
  8
0
  6
Continuous
 62
     7
100
AcDbLine
 10
37924.3842009218
 20
-2749.0545874958
 30
0.0
 11
37625.0
 21
-2689.810692073
 31
0.0
  0
LINE
  5
12D
330
1F
100
AcDbEntity
  8
0
  6
Continuous
 62
     7
100
AcDbLine
 10
37625.0
 20
-2689.810692073
 30
0.0
 11
37625.0
 21
-7274.0545874958
 31
0.0
  0
LINE
  5
12E
330
1F
100
AcDbEntity
  8
0
  6
Continuous
 62
     7
100
AcDbLine
 10
37924.3842009218
 20
-2749.0545874958
 30
0.0
 11
37924.3842009218
 21
-7274.0545874958
 31
0.0
  0
LINE
  5
12F
330
1F
100
AcDbEntity
  8
0
  6
Continuous
 62
     7
100
AcDbLine
 10
37924.3842009218
 20
-7274.0545874958
 30
0.0
 11
37625.0
 21
-7274.0545874958
 31
0.0
  0
LINE
  5
130
330
1F
100
AcDbEntity
  8
0
  6
Continuous
 62
     7
100
AcDbLine
 10
37625.0
 20
-7274.0545874958
 30
0.0
 11
37924.3842009218
 21
-2749.0545874958
 31
0.0
  0
LINE
  5
131
330
1F
100
AcDbEntity
  8
0
  6
Continuous
 62
     7
100
AcDbLine
 10
37924.3842009218
 20
-7274.0545874958
 30
0.0
 11
37625.0
 21
-2689.810692073
 31
0.0
  0
LINE
  5
132
330
1F
100
AcDbEntity
  8
0
  6
Continuous
 62
     7
100
AcDbLine
 10
38375.0
 20
-10100.0
 30
0.0
 11
38375.0
 21
-9500.0
 31
0.0
  0
LINE
  5
133
330
1F
100
AcDbEntity
  8
0
  6
Continuous
 62
     7
100
AcDbLine
 10
37853.5129918211
 20
-9500.0
 30
0.0
 11
38896.4870081789
 21
-9500.0
 31
0.0
  0
LINE
  5
134
330
1F
100
AcDbEntity
  8
0
  6
Continuous
 62
     7
100
AcDbLine
 10
37853.5129918211
 20
-9500.0
 30
0.0
 11
37853.5129918211
 21
-10100.0
 31
0.0
  0
LINE
  5
135
330
1F
100
AcDbEntity
  8
0
  6
Continuous
 62
     7
100
AcDbLine
 10
37853.5129918211
 20
-10100.0
 30
0.0
 11
38896.4870081789
 21
-10100.0
 31
0.0
  0
LINE
  5
136
330
1F
100
AcDbEntity
  8
0
  6
Continuous
 62
     7
100
AcDbLine
 10
38896.4870081789
 20
-9500.0
 30
0.0
 11
38896.4870081789
 21
-10100.0
 31
0.0
  0
LINE
  5
137
330
1F
100
AcDbEntity
  8
0
  6
Continuous
 62
     7
100
AcDbLine
 10
18968.75
 20
13470.0
 30
0.0
 11
18968.75
 21
13375.0
 31
0.0
  0
LINE
  5
138
330
1F
100
AcDbEntity
  8
0
  6
Continuous
 62
     7
100
AcDbLine
 10
20573.2055733158
 20
13445.0
 30
0.0
 11
20573.2055733158
 21
13375.0
 31
0.0
  0
LINE
  5
139
330
1F
100
AcDbEntity
  8
0
  6
Continuous
 62
     7
100
AcDbLine
 10
24040.8793202589
 20
15250.0
 30
0.0
 11
24040.8793202589
 21
15656.4766455323
 31
0.0
  0
LINE
  5
13A
330
1F
100
AcDbEntity
  8
0
  6
Continuous
 62
     7
100
AcDbLine
 10
27875.0
 20
15656.4766455323
 30
0.0
 11
27875.0
 21
15250.0
 31
0.0
  0
LINE
  5
13B
330
1F
100
AcDbEntity
  8
0
  6
Continuous
 62
     7
100
AcDbLine
 10
27295.177993242
 20
15250.0
 30
0.0
 11
28454.822006758
 21
15250.0
 31
0.0
  0
LINE
  5
13C
330
1F
100
AcDbEntity
  8
0
  6
Continuous
 62
     7
100
AcDbLine
 10
27295.177993242
 20
15250.0
 30
0.0
 11
27295.177993242
 21
15656.4766455323
 31
0.0
  0
LINE
  5
13D
330
1F
100
AcDbEntity
  8
0
  6
Continuous
 62
     7
100
AcDbLine
 10
27295.177993242
 20
15656.4766455323
 30
0.0
 11
28454.822006758
 21
15656.4766455323
 31
0.0
  0
LINE
  5
13E
330
1F
100
AcDbEntity
  8
0
  6
Continuous
 62
     7
100
AcDbLine
 10
28454.822006758
 20
15250.0
 30
0.0
 11
28454.822006758
 21
15656.4766455323
 31
0.0
  0
LINE
  5
13F
330
1F
100
AcDbEntity
  8
0
  6
Continuous
 62
     7
100
AcDbLine
 10
32375.0
 20
15656.4766455323
 30
0.0
 11
32375.0
 21
15250.0
 31
0.0
  0
LINE
  5
140
330
1F
100
AcDbEntity
  8
0
  6
Continuous
 62
     7
100
AcDbLine
 10
31758.7987541907
 20
15250.0
 30
0.0
 11
32991.2012458093
 21
15250.0
 31
0.0
  0
LINE
  5
141
330
1F
100
AcDbEntity
  8
0
  6
Continuous
 62
     7
100
AcDbLine
 10
31758.7987541907
 20
15250.0
 30
0.0
 11
31758.7987541907
 21
15656.4766455323
 31
0.0
  0
LINE
  5
142
330
1F
100
AcDbEntity
  8
0
  6
Continuous
 62
     7
100
AcDbLine
 10
31758.7987541907
 20
15656.4766455323
 30
0.0
 11
32991.2012458093
 21
15656.4766455323
 31
0.0
  0
LINE
  5
143
330
1F
100
AcDbEntity
  8
0
  6
Continuous
 62
     7
100
AcDbLine
 10
32991.2012458093
 20
15250.0
 30
0.0
 11
32991.2012458093
 21
15656.4766455323
 31
0.0
  0
LINE
  5
144
330
1F
100
AcDbEntity
  8
0
  6
Continuous
 62
     7
100
AcDbLine
 10
39375.0
 20
15591.2723522134
 30
0.0
 11
39375.0
 21
15250.0
 31
0.0
  0
LINE
  5
145
330
1F
100
AcDbEntity
  8
0
  6
Continuous
 62
     7
100
AcDbLine
 10
39875.0
 20
15250.0
 30
0.0
 11
38875.0
 21
15250.0
 31
0.0
  0
LINE
  5
146
330
1F
100
AcDbEntity
  8
0
  6
Continuous
 62
     7
100
AcDbLine
 10
39875.0
 20
15250.0
 30
0.0
 11
39875.0
 21
15591.2723522134
 31
0.0
  0
LINE
  5
147
330
1F
100
AcDbEntity
  8
0
  6
Continuous
 62
     7
100
AcDbLine
 10
39875.0
 20
15591.2723522134
 30
0.0
 11
38875.0
 21
15591.2723522134
 31
0.0
  0
LINE
  5
148
330
1F
100
AcDbEntity
  8
0
  6
Continuous
 62
     7
100
AcDbLine
 10
38875.0
 20
15250.0
 30
0.0
 11
38875.0
 21
15591.2723522134
 31
0.0
  0
LINE
  5
149
330
1F
100
AcDbEntity
  8
0
  6
Continuous
 62
     7
100
AcDbLine
 10
-1250.0
 20
-285.4645169861
 30
0.0
 11
-1250.0
 21
0.0
 31
0.0
  0
LINE
  5
14A
330
1F
100
AcDbEntity
  8
0
  6
Continuous
 62
     7
100
AcDbLine
 10
16500.0
 20
362.5
 30
0.0
 11
0.0
 21
362.5
 31
0.0
  0
LINE
  5
14B
330
1F
100
AcDbEntity
  8
0
  6
Continuous
 62
     7
100
AcDbLine
 10
16500.0
 20
3887.5
 30
0.0
 11
9925.1409752033
 21
3887.5
 31
0.0
  0
LINE
  5
14C
330
1F
100
AcDbEntity
  8
0
  6
Continuous
 62
     7
100
AcDbLine
 10
16500.0
 20
3887.5
 30
0.0
 11
16500.0
 21
-112.5
 31
0.0
  0
LINE
  5
14D
330
1F
100
AcDbEntity
  8
0
  6
Continuous
 62
     7
100
AcDbLine
 10
0.0
 20
362.5
 30
0.0
 11
0.0
 21
3887.5
 31
0.0
  0
LINE
  5
14E
330
1F
100
AcDbEntity
  8
0
  6
Continuous
 62
     7
100
AcDbLine
 10
0.0
 20
362.5
 30
0.0
 11
16500.0
 21
3887.5
 31
0.0
  0
LINE
  5
14F
330
1F
100
AcDbEntity
  8
0
  6
Continuous
 62
     7
100
AcDbLine
 10
0.0
 20
3887.5
 30
0.0
 11
16500.0
 21
3887.5
 31
0.0
  0
LINE
  5
150
330
1F
100
AcDbEntity
  8
0
  6
Continuous
 62
     7
100
AcDbLine
 10
0.0
 20
3887.5
 30
0.0
 11
0.0
 21
362.5
 31
0.0
  0
LINE
  5
151
330
1F
100
AcDbEntity
  8
0
  6
Continuous
 62
     7
100
AcDbLine
 10
0.0
 20
362.5
 30
0.0
 11
16500.0
 21
362.5
 31
0.0
  0
LINE
  5
152
330
1F
100
AcDbEntity
  8
0
  6
Continuous
 62
     7
100
AcDbLine
 10
16500.0
 20
3887.5
 30
0.0
 11
16500.0
 21
362.5
 31
0.0
  0
LINE
  5
153
330
1F
100
AcDbEntity
  8
0
  6
Continuous
 62
     7
100
AcDbLine
 10
16500.0
 20
362.5
 30
0.0
 11
0.0
 21
3887.5
 31
0.0
  0
LINE
  5
154
330
1F
100
AcDbEntity
  8
0
  6
Continuous
 62
     7
100
AcDbLine
 10
-12501.8214037858
 20
6258.7965392238
 30
0.0
 11
-11950.0
 21
6258.7965392238
 31
0.0
  0
LINE
  5
155
330
1F
100
AcDbEntity
  8
0
  6
Continuous
 62
     7
100
AcDbLine
 10
-11950.0
 20
5725.0
 30
0.0
 11
-12501.8214037858
 21
5725.0
 31
0.0
  0
LINE
  5
156
330
1F
100
AcDbEntity
  8
0
  6
Continuous
 62
     7
100
AcDbLine
 10
-11950.0
 20
5725.0
 30
0.0
 11
-11950.0
 21
6792.5930784475
 31
0.0
  0
LINE
  5
157
330
1F
100
AcDbEntity
  8
0
  6
Continuous
 62
     7
100
AcDbLine
 10
-11950.0
 20
6792.5930784475
 30
0.0
 11
-12501.8214037858
 21
6792.5930784475
 31
0.0
  0
LINE
  5
158
330
1F
100
AcDbEntity
  8
0
  6
Continuous
 62
     7
100
AcDbLine
 10
-12501.8214037858
 20
5725.0
 30
0.0
 11
-12501.8214037858
 21
6792.5930784475
 31
0.0
  0
LINE
  5
159
330
1F
100
AcDbEntity
  8
0
  6
Continuous
 62
     7
100
AcDbLine
 10
-11950.0
 20
6458.0155249783
 30
0.0
 11
-12501.8214037858
 21
6458.0155249783
 31
0.0
  0
LINE
  5
15A
330
1F
100
AcDbEntity
  8
0
  6
Continuous
 62
     7
100
AcDbLine
 10
-11950.0
 20
6458.0155249783
 30
0.0
 11
-11950.0
 21
7525.0
 31
0.0
  0
LINE
  5
15B
330
1F
100
AcDbEntity
  8
0
  6
Continuous
 62
     7
100
AcDbLine
 10
-11950.0
 20
7525.0
 30
0.0
 11
-12501.8214037858
 21
7525.0
 31
0.0
  0
LINE
  5
15C
330
1F
100
AcDbEntity
  8
0
  6
Continuous
 62
     7
100
AcDbLine
 10
-12501.8214037858
 20
6458.0155249783
 30
0.0
 11
-12501.8214037858
 21
7525.0
 31
0.0
  0
LINE
  5
15D
330
1F
100
AcDbEntity
  8
0
  6
Continuous
 62
     7
100
AcDbLine
 10
-12501.8214037858
 20
6991.5077624891
 30
0.0
 11
-11950.0
 21
6991.5077624891
 31
0.0
  0
LINE
  5
15E
330
1F
100
AcDbEntity
  8
0
  6
Continuous
 62
     7
100
AcDbLine
 10
35168.220671429
 20
13375.0
 30
0.0
 11
35618.220671429
 21
13445.0
 31
0.0
  0
LINE
  5
15F
330
1F
100
AcDbEntity
  8
0
  6
Continuous
 62
     7
100
AcDbLine
 10
35618.220671429
 20
13375.0
 30
0.0
 11
35168.220671429
 21
13445.0
 31
0.0
  0
LINE
  5
160
330
1F
100
AcDbEntity
  8
0
  6
Continuous
 62
     7
100
AcDbLine
 10
10822.5
 20
12750.0
 30
0.0
 11
11177.5
 21
12750.0
 31
0.0
  0
LINE
  5
161
330
1F
100
AcDbEntity
  8
0
  6
Continuous
 62
     7
100
AcDbLine
 10
16500.0
 20
10500.0
 30
0.0
 11
16500.0
 21
10662.5
 31
0.0
  0
LINE
  5
162
330
1F
100
AcDbEntity
  8
0
  6
Continuous
 62
     7
100
AcDbLine
 10
16322.5
 20
10662.5
 30
0.0
 11
16322.5
 21
10500.0
 31
0.0
  0
LINE
  5
163
330
1F
100
AcDbEntity
  8
0
  6
Continuous
 62
     7
100
AcDbLine
 10
16500.0
 20
10662.5
 30
0.0
 11
16145.0
 21
10500.0
 31
0.0
  0
LINE
  5
164
330
1F
100
AcDbEntity
  8
0
  6
Continuous
 62
     7
100
AcDbLine
 10
16145.0
 20
10662.5
 30
0.0
 11
16500.0
 21
10500.0
 31
0.0
  0
LINE
  5
165
330
1F
100
AcDbEntity
  8
0
  6
Continuous
 62
     7
100
AcDbLine
 10
16145.0
 20
10662.5
 30
0.0
 11
16500.0
 21
10662.5
 31
0.0
  0
LINE
  5
166
330
1F
100
AcDbEntity
  8
0
  6
Continuous
 62
     7
100
AcDbLine
 10
16145.0
 20
10500.0
 30
0.0
 11
16145.0
 21
10662.5
 31
0.0
  0
LINE
  5
167
330
1F
100
AcDbEntity
  8
0
  6
Continuous
 62
     7
100
AcDbLine
 10
11177.5
 20
10500.0
 30
0.0
 11
11177.5
 21
10662.5
 31
0.0
  0
LINE
  5
168
330
1F
100
AcDbEntity
  8
0
  6
Continuous
 62
     7
100
AcDbLine
 10
10822.5
 20
10662.5
 30
0.0
 11
11177.5
 21
10662.5
 31
0.0
  0
LINE
  5
169
330
1F
100
AcDbEntity
  8
0
  6
Continuous
 62
     7
100
AcDbLine
 10
10822.5
 20
10500.0
 30
0.0
 11
10822.5
 21
10662.5
 31
0.0
  0
LINE
  5
16A
330
1F
100
AcDbEntity
  8
0
  6
Continuous
 62
     7
100
AcDbLine
 10
10822.5
 20
10500.0
 30
0.0
 11
11177.5
 21
10500.0
 31
0.0
  0
LINE
  5
16B
330
1F
100
AcDbEntity
  8
0
  6
Continuous
 62
     7
100
AcDbLine
 10
11000.0
 20
10662.5
 30
0.0
 11
11000.0
 21
10500.0
 31
0.0
  0
LINE
  5
16C
330
1F
100
AcDbEntity
  8
0
  6
Continuous
 62
     7
100
AcDbLine
 10
355.0
 20
10500.0
 30
0.0
 11
355.0
 21
10662.5
 31
0.0
  0
LINE
  5
16D
330
1F
100
AcDbEntity
  8
0
  6
Continuous
 62
     7
100
AcDbLine
 10
355.0
 20
10662.5
 30
0.0
 11
0.0
 21
10500.0
 31
0.0
  0
LINE
  5
16E
330
1F
100
AcDbEntity
  8
0
  6
Continuous
 62
     7
100
AcDbLine
 10
0.0
 20
10662.5
 30
0.0
 11
355.0
 21
10662.5
 31
0.0
  0
LINE
  5
16F
330
1F
100
AcDbEntity
  8
0
  6
Continuous
 62
     7
100
AcDbLine
 10
0.0
 20
10662.5
 30
0.0
 11
355.0
 21
10500.0
 31
0.0
  0
LINE
  5
170
330
1F
100
AcDbEntity
  8
0
  6
Continuous
 62
     7
100
AcDbLine
 10
0.0
 20
10500.0
 30
0.0
 11
0.0
 21
10662.5
 31
0.0
  0
LWPOLYLINE
  5
171
330
1F
100
AcDbEntity
  8
0
  6
Continuous
 62
     7
100
AcDbPolyline
 90
       16
 70
   128
 43
0.0
 10
1.8846150488
 20
3.5
 10
3.5
 20
0.0
 10
3.5
 20
0.0
 10
3.1585536859
 20
0.0
 10
3.1585536859
 20
0.0
 10
2.6411258013
 20
1.1217948718
 10
2.6411258013
 20
1.1217948718
 10
1.0544871795
 20
1.1217948718
 10
1.0544871795
 20
1.1217948718
 10
0.523036859
 20
0.0
 10
0.523036859
 20
0.0
 10
0.1794871795
 20
0.0
 10
0.1794871795
 20
0.0
 10
1.8397435897
 20
3.5
 10
1.8397435897
 20
3.5
 10
1.8846153846
 20
3.5
  0
LWPOLYLINE
  5
172
330
1F
100
AcDbEntity
  8
0
  6
Continuous
 62
     7
100
AcDbPolyline
 90
        6
 70
   128
 43
0.0
 10
1.8586730585
 20
2.8171073718
 10
1.2255608974
 20
1.4807692308
 10
1.2255608974
 20
1.4807692308
 10
2.4756610577
 20
1.4807692308
 10
2.4756610577
 20
1.4807692308
 10
1.8586738782
 20
2.8171073718
  0
LWPOLYLINE
  5
173
330
1F
100
AcDbEntity
  8
0
  6
Continuous
 62
     7
100
AcDbPolyline
 90
       53
 70
   128
 43
0.0
 10
3.9487145841
 20
2.5576923077
 10
4.2628205128
 20
2.5576923077
 10
4.2628205128
 20
2.5576923077
 10
4.2628205128
 20
2.1811899038
 10
4.2628205128
 20
2.1811899038
 10
4.3343349359
 20
2.2849559295
 10
4.4079527244
 20
2.3732972756
 10
4.4829727564
 20
2.4455128205
 10
4.5600961538
 20
2.5030048077
 10
4.6393229167
 20
2.546474359
 10
4.7206530449
 20
2.5780248397
 10
4.8026842949
 20
2.5962540064
 10
4.8868189103
 20
2.6025641026
 10
4.8868189103
 20
2.6025641026
 10
4.9520232372
 20
2.5969551282
 10
5.0193309295
 20
2.5808293269
 10
5.0887419872
 20
2.5534855769
 10
5.1602564103
 20
2.5149238782
 10
5.1602564103
 20
2.5149238782
 10
4.9877804487
 20
2.2428886218
 10
4.9877804487
 20
2.2428886218
 10
4.9422075321
 20
2.2625200321
 10
4.9001402244
 20
2.2772435897
 10
4.8615785256
 20
2.2856570513
 10
4.8272235577
 20
2.2884615385
 10
4.8272235577
 20
2.2884615385
 10
4.7522035256
 20
2.2800480769
 10
4.6778846154
 20
2.2548076923
 10
4.6056690705
 20
2.2127403846
 10
4.5341546474
 20
2.1538461538
 10
4.4997996795
 20
2.1180889423
 10
4.4675480769
 20
2.0774238782
 10
4.4381009615
 20
2.0325520833
 10
4.4100560897
 20
1.9827724359
 10
4.3841145833
 20
1.9280849359
 10
4.3602764423
 20
1.8691907051
 10
4.3385416667
 20
1.8053886218
 10
4.3189102564
 20
1.7373798077
 10
4.3189102564
 20
1.7373798077
 10
4.3055889423
 20
1.6763822115
 10
4.2943709936
 20
1.6013621795
 10
4.2845552885
 20
1.5123197115
 10
4.2768429487
 20
1.4092548077
 10
4.2705328526
 20
1.2928685897
 10
4.2663261218
 20
1.1624599359
 10
4.2635216346
 20
1.0180288462
 10
4.2628205128
 20
0.8595753205
 10
4.2628205128
 20
0.8595753205
 10
4.2628205128
 20
0.0
 10
4.2628205128
 20
0.0
 10
3.9487179487
 20
0.0
 10
3.9487179487
 20
0.0
 10
3.9487179487
 20
2.5576923077
  0
LWPOLYLINE
  5
174
330
1F
100
AcDbEntity
  8
0
  6
Continuous
 62
     7
100
AcDbPolyline
 90
       12
 70
   128
 43
0.0
 10
6.9102533162
 20
3.5
 10
7.2243589744
 20
3.5
 10
7.2243589744
 20
3.5
 10
7.2243589744
 20
0.358974359
 10
7.2243589744
 20
0.358974359
 10
8.5705128205
 20
0.358974359
 10
8.5705128205
 20
0.358974359
 10
8.5705128205
 20
0.0
 10
8.5705128205
 20
0.0
 10
6.9102564103
 20
0.0
 10
6.9102564103
 20
0.0
 10
6.9102564103
 20
3.5
  0
LWPOLYLINE
  5
175
330
1F
100
AcDbEntity
  8
0
  6
Continuous
 62
     7
100
AcDbPolyline
 90
       62
 70
   128
 43
0.0
 10
11.666662991
 20
2.5576923077
 10
11.6666666667
 20
0.0
 10
11.6666666667
 20
0.0
 10
11.3525641026
 20
0.0
 10
11.3525641026
 20
0.0
 10
11.3525641026
 20
0.4424078526
 10
11.3525641026
 20
0.4424078526
 10
11.2438902244
 20
0.324619391
 10
11.1296073718
 20
0.2236578526
 10
11.0076121795
 20
0.1395232372
 10
10.8800080128
 20
0.0722155449
 10
10.74609375
 20
0.0210336538
 10
10.6065705128
 20
-0.0154246795
 10
10.4600360577
 20
-0.0378605769
 10
10.3078926282
 20
-0.0448717949
 10
10.3078926282
 20
-0.0448717949
 10
10.1725761218
 20
-0.0385616987
 10
10.0421674679
 20
-0.0203325321
 10
9.9166666667
 20
0.0098157051
 10
9.7960737179
 20
0.0518830128
 10
9.6810897436
 20
0.1065705128
 10
9.5703125
 20
0.1731770833
 10
9.4651442308
 20
0.2517027244
 10
9.3648838141
 20
0.3428485577
 10
9.273036859
 20
0.4424078526
 10
9.1938100962
 20
0.546875
 10
9.1272035256
 20
0.6569511218
 10
9.0718149038
 20
0.7726362179
 10
9.0290464744
 20
0.8932291667
 10
8.9988982372
 20
1.0187299679
 10
8.9806690705
 20
1.1498397436
 10
8.9743589744
 20
1.2858573718
 10
8.9743589744
 20
1.2858573718
 10
8.9806690705
 20
1.4190705128
 10
8.9988982372
 20
1.5480769231
 10
9.0297475962
 20
1.671474359
 10
9.0732171474
 20
1.7906650641
 10
9.1286057692
 20
1.9042467949
 10
9.1959134615
 20
2.0129206731
 10
9.2758413462
 20
2.1173878205
 10
9.3683894231
 20
2.2162459936
 10
9.4693509615
 20
2.3066907051
 10
9.5759214744
 20
2.3852163462
 10
9.6866987179
 20
2.4518229167
 10
9.8030849359
 20
2.5058092949
 10
9.9243790064
 20
2.5485777244
 10
10.0505809295
 20
2.5787259615
 10
10.1816907051
 20
2.5962540064
 10
10.3177083333
 20
2.6025641026
 10
10.3177083333
 20
2.6025641026
 10
10.4740584936
 20
2.5948517628
 10
10.6226963141
 20
2.5717147436
 10
10.7636217949
 20
2.5324519231
 10
10.8968349359
 20
2.4784655449
 10
11.0223357372
 20
2.4076522436
 10
11.1408253205
 20
2.3179086538
 10
11.2502003205
 20
2.2106370192
 10
11.3525641026
 20
2.0844350962
 10
11.3525641026
 20
2.0844350962
 10
11.3525641026
 20
2.5576923077
 10
11.3525641026
 20
2.5576923077
 10
11.6666666667
 20
2.5576923077
  0
LWPOLYLINE
  5
176
330
1F
100
AcDbEntity
  8
0
  6
Continuous
 62
     7
100
AcDbPolyline
 90
       56
 70
   128
 43
0.0
 10
10.3219076991
 20
2.2884615385
 10
10.1844951923
 20
2.2800480769
 10
10.0526842949
 20
2.2555088141
 10
9.9264823718
 20
2.2141426282
 10
9.8051883013
 20
2.156650641
 10
9.6930088141
 20
2.0844350962
 10
9.5927483974
 20
1.9981971154
 10
9.5044070513
 20
1.8993389423
 10
9.4279847756
 20
1.7864583333
 10
9.3669871795
 20
1.6658653846
 10
9.3235176282
 20
1.5410657051
 10
9.296875
 20
1.4134615385
 10
9.2884615385
 20
1.2823517628
 10
9.2884615385
 20
1.2823517628
 10
9.2975761218
 20
1.151943109
 10
9.3235176282
 20
1.0243389423
 10
9.3676883013
 20
0.8995392628
 10
9.4293870192
 20
0.7775440705
 10
9.5065104167
 20
0.6639623397
 10
9.5948517628
 20
0.5637019231
 10
9.6958133013
 20
0.4767628205
 10
9.8086939103
 20
0.4031450321
 10
9.9299879808
 20
0.3442508013
 10
10.0554887821
 20
0.3028846154
 10
10.1851963141
 20
0.2776442308
 10
10.3191105769
 20
0.2692307692
 10
10.3191105769
 20
0.2692307692
 10
10.4551282051
 20
0.2776442308
 10
10.5876402244
 20
0.3021834936
 10
10.7159455128
 20
0.3435496795
 10
10.8407451923
 20
0.4017427885
 10
10.9564302885
 20
0.4739583333
 10
11.0587940705
 20
0.5580929487
 10
11.1457331731
 20
0.6541466346
 10
11.2193509615
 20
0.7614182692
 10
11.2775440705
 20
0.878505609
 10
11.3196113782
 20
1.0033052885
 10
11.344150641
 20
1.1344150641
 10
11.3525641026
 20
1.2732371795
 10
11.3525641026
 20
1.2732371795
 10
11.34765625
 20
1.3791065705
 10
11.3336338141
 20
1.4807692308
 10
11.3104967949
 20
1.5782251603
 10
11.2782451923
 20
1.6707732372
 10
11.2361778846
 20
1.7591145833
 10
11.1849959936
 20
1.8432491987
 10
11.1246995192
 20
1.9224759615
 10
11.0545873397
 20
1.9974959936
 10
10.9781650641
 20
2.0655048077
 10
10.8975360577
 20
2.1251001603
 10
10.8119991987
 20
2.1748798077
 10
10.7229567308
 20
2.2155448718
 10
10.6290064103
 20
2.2477964744
 10
10.530849359
 20
2.2702323718
 10
10.4284855769
 20
2.2842548077
 10
10.3219150641
 20
2.2884615385
  0
LWPOLYLINE
  5
177
330
1F
100
AcDbEntity
  8
0
  6
Continuous
 62
     7
100
AcDbPolyline
 90
       62
 70
   128
 43
0.0
 10
12.3846083879
 20
0.0
 10
12.3846153846
 20
3.5897435897
 10
12.3846153846
 20
3.5897435897
 10
12.6987179487
 20
3.5897435897
 10
12.6987179487
 20
3.5897435897
 10
12.6987179487
 20
2.0935496795
 10
12.6987179487
 20
2.0935496795
 10
12.8073918269
 20
2.2134415064
 10
12.9216746795
 20
2.3165064103
 10
13.04296875
 20
2.4041466346
 10
13.1698717949
 20
2.4756610577
 10
13.3037860577
 20
2.5310496795
 10
13.4433092949
 20
2.5710136218
 10
13.58984375
 20
2.5948517628
 10
13.7419871795
 20
2.6025641026
 10
13.7419871795
 20
2.6025641026
 10
13.8773036859
 20
2.5962540064
 10
14.0084134615
 20
2.5780248397
 10
14.1339142628
 20
2.5478766026
 10
14.2545072115
 20
2.5058092949
 10
14.3694911859
 20
2.4511217949
 10
14.4802684295
 20
2.3845152244
 10
14.5854366987
 20
2.3059895833
 10
14.6856971154
 20
2.21484375
 10
14.7775440705
 20
2.1152844551
 10
14.8567708333
 20
2.0108173077
 10
14.9240785256
 20
1.9007411859
 10
14.9794671474
 20
1.7857572115
 10
15.0222355769
 20
1.6658653846
 10
15.0523838141
 20
1.5403645833
 10
15.0706129808
 20
1.4099559295
 10
15.0769230769
 20
1.2739383013
 10
15.0769230769
 20
1.2739383013
 10
15.0706129808
 20
1.1400240385
 10
15.0523838141
 20
1.0110176282
 10
15.0215344551
 20
0.8869190705
 10
14.9780649038
 20
0.7677283654
 10
14.9226762821
 20
0.6534455128
 10
14.8546674679
 20
0.5447716346
 10
14.7747395833
 20
0.4403044872
 10
14.6821915064
 20
0.3414463141
 10
14.5812299679
 20
0.2510016026
 10
14.4746594551
 20
0.1724759615
 10
14.3638822115
 20
0.105869391
 10
14.2474959936
 20
0.0518830128
 10
14.1262019231
 20
0.0091145833
 10
14.0
 20
-0.0210336538
 10
13.8681891026
 20
-0.0385616987
 10
13.7321714744
 20
-0.0448717949
 10
13.7321714744
 20
-0.0448717949
 10
13.5765224359
 20
-0.0371594551
 10
13.4285857372
 20
-0.0140224359
 10
13.2883613782
 20
0.0252403846
 10
13.1551482372
 20
0.0792267628
 10
13.0296474359
 20
0.1507411859
 10
12.9118589744
 20
0.2397836538
 10
12.8017828526
 20
0.3477564103
 10
12.6987179487
 20
0.4732572115
 10
12.6987179487
 20
0.4732572115
 10
12.6987179487
 20
0.0
 10
12.6987179487
 20
0.0
 10
12.3846153846
 20
0.0
  0
LWPOLYLINE
  5
178
330
1F
100
AcDbEntity
  8
0
  6
Continuous
 62
     7
100
AcDbPolyline
 90
       56
 70
   128
 43
0.0
 10
13.7293636799
 20
0.2692307692
 10
13.866786859
 20
0.2776442308
 10
13.9985977564
 20
0.3021834936
 10
14.1247996795
 20
0.3435496795
 10
14.24609375
 20
0.4010416667
 10
14.3582732372
 20
0.4732572115
 10
14.4585336538
 20
0.5594951923
 10
14.546875
 20
0.6583533654
 10
14.6225961538
 20
0.7705328526
 10
14.6842948718
 20
0.8911258013
 10
14.7277644231
 20
1.0159254808
 10
14.7544070513
 20
1.1428285256
 10
14.7628205128
 20
1.2739383013
 10
14.7628205128
 20
1.2739383013
 10
14.7537059295
 20
1.4050480769
 10
14.7277644231
 20
1.5333533654
 10
14.6828926282
 20
1.6581530449
 10
14.6211939103
 20
1.7801482372
 10
14.5447716346
 20
1.8937299679
 10
14.4564302885
 20
1.9939903846
 10
14.35546875
 20
2.0809294872
 10
14.242588141
 20
2.1545472756
 10
14.1219951923
 20
2.2134415064
 10
13.996494391
 20
2.2548076923
 10
13.8674879808
 20
2.2800480769
 10
13.7342748397
 20
2.2884615385
 10
13.7342748397
 20
2.2884615385
 10
13.5982572115
 20
2.2800480769
 10
13.4664463141
 20
2.2548076923
 10
13.3374399038
 20
2.2134415064
 10
13.2119391026
 20
2.1545472756
 10
13.0955528846
 20
2.081630609
 10
12.9931891026
 20
1.9974959936
 10
12.9048477564
 20
1.9014423077
 10
12.8312299679
 20
1.7934695513
 10
12.773036859
 20
1.6763822115
 10
12.7316706731
 20
1.5529847756
 10
12.7071314103
 20
1.421875
 10
12.6987179487
 20
1.2837540064
 10
12.6987179487
 20
1.2837540064
 10
12.7036258013
 20
1.1778846154
 10
12.7176482372
 20
1.0762219551
 10
12.7407852564
 20
0.9787660256
 10
12.773036859
 20
0.8862179487
 10
12.8151041667
 20
0.7978766026
 10
12.8662860577
 20
0.7137419872
 10
12.9265825321
 20
0.6345152244
 10
12.9959935897
 20
0.5594951923
 10
13.0724158654
 20
0.4914863782
 10
13.1537459936
 20
0.4325921474
 10
13.2385817308
 20
0.3828125
 10
13.3283253205
 20
0.3421474359
 10
13.422275641
 20
0.3098958333
 10
13.5204326923
 20
0.2874599359
 10
13.6227964744
 20
0.2734375
 10
13.7293669872
 20
0.2692307692
  0
LWPOLYLINE
  5
179
330
1F
100
AcDbEntity
  8
0
  6
Continuous
 62
     7
100
AcDbPolyline
 90
       16
 70
   128
 43
0.0
 10
-2698.600769043
 20
3797.4147393156
 10
-2702.1016326216
 20
3795.7993547002
 10
-2702.1016326216
 20
3795.7993547002
 10
-2702.1016326216
 20
3796.1408010143
 10
-2702.1016326216
 20
3796.1408010143
 10
-2700.9798377498
 20
3796.6582288989
 10
-2700.9798377498
 20
3796.6582288989
 10
-2700.9798377498
 20
3798.2448675207
 10
-2700.9798377498
 20
3798.2448675207
 10
-2702.1016326216
 20
3798.7763178412
 10
-2702.1016326216
 20
3798.7763178412
 10
-2702.1016326216
 20
3799.1198675207
 10
-2702.1016326216
 20
3799.1198675207
 10
-2698.6016326216
 20
3797.4596111105
 10
-2698.6016326216
 20
3797.4596111105
 10
-2698.6016326216
 20
3797.4147393156
  0
LWPOLYLINE
  5
17A
330
1F
100
AcDbEntity
  8
0
  6
Continuous
 62
     7
100
AcDbPolyline
 90
        6
 70
   128
 43
0.0
 10
-2699.2835998535
 20
3797.440680822
 10
-2700.6208633908
 20
3798.0737938028
 10
-2700.6208633908
 20
3798.0737938028
 10
-2700.6208633908
 20
3796.8236936425
 10
-2700.6208633908
 20
3796.8236936425
 10
-2699.2845252498
 20
3797.440680822
  0
LWPOLYLINE
  5
17B
330
1F
100
AcDbEntity
  8
0
  6
Continuous
 62
     7
100
AcDbPolyline
 90
       53
 70
   128
 43
0.0
 10
-2699.5429992676
 20
3795.4403803412
 10
-2699.5439403139
 20
3795.1262777771
 10
-2699.5439403139
 20
3795.1262777771
 10
-2699.9204427177
 20
3795.1262777771
 10
-2699.9204427177
 20
3795.1262777771
 10
-2699.8166766921
 20
3795.054763354
 10
-2699.7283353459
 20
3794.9811455656
 10
-2699.6561198011
 20
3794.9061255335
 10
-2699.5986278139
 20
3794.8283010143
 10
-2699.5551582626
 20
3794.7490742515
 10
-2699.5236077818
 20
3794.6684452451
 10
-2699.5053786152
 20
3794.5864139951
 10
-2699.499068519
 20
3794.5022793797
 10
-2699.499068519
 20
3794.5022793797
 10
-2699.5046774934
 20
3794.4370750528
 10
-2699.5208032947
 20
3794.3704684822
 10
-2699.5481470447
 20
3794.3003563028
 10
-2699.5867087434
 20
3794.2288418797
 10
-2699.5867087434
 20
3794.2288418797
 10
-2699.8587439998
 20
3794.4013178412
 10
-2699.8587439998
 20
3794.4013178412
 10
-2699.8391125895
 20
3794.4468907579
 10
-2699.8243890318
 20
3794.4889580656
 10
-2699.8159755703
 20
3794.5275197643
 10
-2699.8131710831
 20
3794.5618747322
 10
-2699.8131710831
 20
3794.5618747322
 10
-2699.8215845447
 20
3794.6375958861
 10
-2699.8468249293
 20
3794.7112136746
 10
-2699.888892237
 20
3794.7841303412
 10
-2699.9477864677
 20
3794.8549436425
 10
-2699.9835436793
 20
3794.8892986105
 10
-2700.0242087434
 20
3794.921550213
 10
-2700.0690805383
 20
3794.9509973284
 10
-2700.1188601857
 20
3794.9790422002
 10
-2700.1735476857
 20
3795.0049837066
 10
-2700.2324419165
 20
3795.0288218476
 10
-2700.2962439998
 20
3795.0505566233
 10
-2700.3642528139
 20
3795.0701880335
 10
-2700.3642528139
 20
3795.0701880335
 10
-2700.42525041
 20
3795.0835093476
 10
-2700.5002704421
 20
3795.0947272963
 10
-2700.58931291
 20
3795.1045430015
 10
-2700.6923778139
 20
3795.1122553412
 10
-2700.8087640318
 20
3795.1185654374
 10
-2700.9391726857
 20
3795.1227721681
 10
-2701.0836037754
 20
3795.1255766553
 10
-2701.2420573011
 20
3795.1262777771
 10
-2701.2420573011
 20
3795.1262777771
 10
-2702.1016326216
 20
3795.1262777771
 10
-2702.1016326216
 20
3795.1262777771
 10
-2702.1016326216
 20
3795.4403803412
 10
-2702.1016326216
 20
3795.4403803412
 10
-2699.5439403139
 20
3795.4403803412
  0
LWPOLYLINE
  5
17C
330
1F
100
AcDbEntity
  8
0
  6
Continuous
 62
     7
100
AcDbPolyline
 90
        8
 70
   128
 43
0.0
 10
-2698.5111236572
 20
3792.5685854694
 10
-2698.5118890318
 20
3792.2544829053
 10
-2698.5118890318
 20
3792.2544829053
 10
-2702.1016326216
 20
3792.2544829053
 10
-2702.1016326216
 20
3792.2544829053
 10
-2702.1016326216
 20
3792.5685854694
 10
-2702.1016326216
 20
3792.5685854694
 10
-2698.5118890318
 20
3792.5685854694
  0
LWPOLYLINE
  5
17D
330
1F
100
AcDbEntity
  8
0
  6
Continuous
 62
     7
100
AcDbPolyline
 90
       62
 70
   128
 43
0.0
 10
-2699.5429992676
 20
3788.9339700848
 10
-2702.1016326216
 20
3788.9339700848
 10
-2702.1016326216
 20
3788.9339700848
 10
-2702.1016326216
 20
3789.2480726489
 10
-2702.1016326216
 20
3789.2480726489
 10
-2701.659224769
 20
3789.2480726489
 10
-2701.659224769
 20
3789.2480726489
 10
-2701.7770132306
 20
3789.3567465271
 10
-2701.877974769
 20
3789.4710293797
 10
-2701.9621093844
 20
3789.5923234502
 10
-2702.0294170767
 20
3789.7199276169
 10
-2702.0805989677
 20
3789.8538418797
 10
-2702.1170573011
 20
3789.9940662387
 10
-2702.1394931985
 20
3790.1406006938
 10
-2702.1465044165
 20
3790.2927441233
 10
-2702.1465044165
 20
3790.2927441233
 10
-2702.1401943203
 20
3790.4280606297
 10
-2702.1219651536
 20
3790.5584692835
 10
-2702.0918169165
 20
3790.6839700848
 10
-2702.0497496088
 20
3790.8045630335
 10
-2701.9950621088
 20
3790.9195470079
 10
-2701.9284555383
 20
3791.0296231297
 10
-2701.8499298972
 20
3791.1347913989
 10
-2701.7587840639
 20
3791.2350518156
 10
-2701.659224769
 20
3791.3268987707
 10
-2701.5547576216
 20
3791.4061255335
 10
-2701.4446814998
 20
3791.4734332258
 10
-2701.3289964036
 20
3791.5288218476
 10
-2701.2084034549
 20
3791.5715902771
 10
-2701.0829026536
 20
3791.6017385143
 10
-2700.951792878
 20
3791.619967681
 10
-2700.8157752498
 20
3791.6262777771
 10
-2700.8157752498
 20
3791.6262777771
 10
-2700.6825621088
 20
3791.619967681
 10
-2700.5535556985
 20
3791.6017385143
 10
-2700.4301582626
 20
3791.5708891553
 10
-2700.3109675575
 20
3791.527419604
 10
-2700.1973858267
 20
3791.4720309822
 10
-2700.0887119485
 20
3791.4040221681
 10
-2699.9842448011
 20
3791.3240942835
 10
-2699.885386628
 20
3791.2315462066
 10
-2699.7949419165
 20
3791.1305846681
 10
-2699.7164162754
 20
3791.0247152771
 10
-2699.6498097049
 20
3790.9132369117
 10
-2699.5958233267
 20
3790.7975518156
 10
-2699.5530548972
 20
3790.6762577451
 10
-2699.52290666
 20
3790.550055822
 10
-2699.5053786152
 20
3790.4189460463
 10
-2699.499068519
 20
3790.2829284181
 10
-2699.499068519
 20
3790.2829284181
 10
-2699.5067808588
 20
3790.1265782579
 10
-2699.529917878
 20
3789.9779404374
 10
-2699.5691806985
 20
3789.8363138348
 10
-2699.6231670767
 20
3789.7031006938
 10
-2699.693980378
 20
3789.5775998925
 10
-2699.7837239677
 20
3789.459811431
 10
-2699.8909956024
 20
3789.350436431
 10
-2700.0171975254
 20
3789.2480726489
 10
-2700.0171975254
 20
3789.2480726489
 10
-2699.5439403139
 20
3789.2480726489
 10
-2699.5439403139
 20
3789.2480726489
 10
-2699.5439403139
 20
3788.9339700848
  0
LWPOLYLINE
  5
17E
330
1F
100
AcDbEntity
  8
0
  6
Continuous
 62
     7
100
AcDbPolyline
 90
       56
 70
   128
 43
0.0
 10
-2699.8119354248
 20
3790.2787216874
 10
-2699.8215845447
 20
3790.4161415592
 10
-2699.8461238075
 20
3790.5479524566
 10
-2699.8874899934
 20
3790.6741543797
 10
-2699.9449819806
 20
3790.7954484502
 10
-2700.0171975254
 20
3790.9076279374
 10
-2700.1034355062
 20
3791.007888354
 10
-2700.2022936793
 20
3791.0962297002
 10
-2700.3151742883
 20
3791.171950854
 10
-2700.435767237
 20
3791.233649572
 10
-2700.5605669165
 20
3791.2771191233
 10
-2700.6881710831
 20
3791.3037617515
 10
-2700.8192808588
 20
3791.312175213
 10
-2700.8192808588
 20
3791.312175213
 10
-2700.9496895126
 20
3791.3030606297
 10
-2701.0772936793
 20
3791.2771191233
 10
-2701.2020933588
 20
3791.2322473284
 10
-2701.3240885511
 20
3791.1705486105
 10
-2701.4376702818
 20
3791.0941263348
 10
-2701.5379306985
 20
3791.0057849887
 10
-2701.6248698011
 20
3790.9048234502
 10
-2701.6984875895
 20
3790.7919428412
 10
-2701.7573818203
 20
3790.6706487707
 10
-2701.7987480062
 20
3790.5458490912
 10
-2701.8239883908
 20
3790.4154404374
 10
-2701.8324018524
 20
3790.2815261746
 10
-2701.8324018524
 20
3790.2815261746
 10
-2701.8239883908
 20
3790.1455085463
 10
-2701.799449128
 20
3790.0136976489
 10
-2701.7580829421
 20
3789.8846912387
 10
-2701.6998898331
 20
3789.7598915592
 10
-2701.6276742883
 20
3789.644206463
 10
-2701.5435396729
 20
3789.541842681
 10
-2701.447485987
 20
3789.4542024566
 10
-2701.3402143524
 20
3789.3805846681
 10
-2701.2231270126
 20
3789.3223915592
 10
-2701.0983273331
 20
3789.2810253733
 10
-2700.9672175575
 20
3789.2564861105
 10
-2700.8283954421
 20
3789.2480726489
 10
-2700.8283954421
 20
3789.2480726489
 10
-2700.7225260511
 20
3789.2529805015
 10
-2700.6208633908
 20
3789.2670029374
 10
-2700.5234074613
 20
3789.2901399566
 10
-2700.4308593844
 20
3789.3223915592
 10
-2700.3425180383
 20
3789.3644588669
 10
-2700.2583834229
 20
3789.4156407579
 10
-2700.17915666
 20
3789.4759372322
 10
-2700.104136628
 20
3789.5453482899
 10
-2700.0361278139
 20
3789.6217705656
 10
-2699.9765324613
 20
3789.7031006938
 10
-2699.9267528139
 20
3789.787936431
 10
-2699.8860877498
 20
3789.8776800207
 10
-2699.8538361472
 20
3789.9716303412
 10
-2699.8314002498
 20
3790.0697873925
 10
-2699.8173778139
 20
3790.1721511746
 10
-2699.8131710831
 20
3790.2787216874
  0
LWPOLYLINE
  5
17F
330
1F
100
AcDbEntity
  8
0
  6
Continuous
 62
     7
100
AcDbPolyline
 90
       62
 70
   128
 43
0.0
 10
-2702.1007537842
 20
3788.2160213669
 10
-2698.5118890318
 20
3788.2160213669
 10
-2698.5118890318
 20
3788.2160213669
 10
-2698.5118890318
 20
3787.9019188028
 10
-2698.5118890318
 20
3787.9019188028
 10
-2700.0080829421
 20
3787.9019188028
 10
-2700.0080829421
 20
3787.9019188028
 10
-2699.8881911152
 20
3787.7939460463
 10
-2699.7851262113
 20
3787.678962072
 10
-2699.697485987
 20
3787.5583691233
 10
-2699.6259715639
 20
3787.4307649566
 10
-2699.5705829421
 20
3787.2975518156
 10
-2699.5306189998
 20
3787.1573274566
 10
-2699.5067808588
 20
3787.0114941233
 10
-2699.499068519
 20
3786.858649572
 10
-2699.499068519
 20
3786.858649572
 10
-2699.5053786152
 20
3786.7233330656
 10
-2699.5236077818
 20
3786.5922232899
 10
-2699.553756019
 20
3786.4667224887
 10
-2699.5958233267
 20
3786.3468306617
 10
-2699.6505108267
 20
3786.2311455656
 10
-2699.7171173972
 20
3786.120368322
 10
-2699.7956430383
 20
3786.0152000528
 10
-2699.8867888716
 20
3785.9149396361
 10
-2699.9863481665
 20
3785.823092681
 10
-2700.0908153139
 20
3785.7438659181
 10
-2700.2008914357
 20
3785.6765582258
 10
-2700.31587541
 20
3785.6218707258
 10
-2700.435767237
 20
3785.5784011746
 10
-2700.5612680383
 20
3785.5482529374
 10
-2700.6916766921
 20
3785.5300237707
 10
-2700.8276943203
 20
3785.5237136746
 10
-2700.8276943203
 20
3785.5237136746
 10
-2700.9616085831
 20
3785.5300237707
 10
-2701.0906149934
 20
3785.5482529374
 10
-2701.2147135511
 20
3785.5791022963
 10
-2701.3339042562
 20
3785.6225718476
 10
-2701.4481871088
 20
3785.6779604694
 10
-2701.556860987
 20
3785.7459692835
 10
-2701.6613281344
 20
3785.8258971681
 10
-2701.7601863075
 20
3785.9184452451
 10
-2701.850631019
 20
3786.0194067835
 10
-2701.92915666
 20
3786.1259772963
 10
-2701.9957632306
 20
3786.2367545399
 10
-2702.0497496088
 20
3786.3531407579
 10
-2702.0925180383
 20
3786.4744348284
 10
-2702.1226662754
 20
3786.6006367515
 10
-2702.1401943203
 20
3786.7324476489
 10
-2702.1465044165
 20
3786.8684652771
 10
-2702.1465044165
 20
3786.8684652771
 10
-2702.1387920767
 20
3787.0241143156
 10
-2702.1156550575
 20
3787.1720510143
 10
-2702.076392237
 20
3787.3122753733
 10
-2702.0224058588
 20
3787.4447873925
 10
-2701.9508914357
 20
3787.5702881938
 10
-2701.8618489677
 20
3787.6887777771
 10
-2701.7538762113
 20
3787.7988538989
 10
-2701.62837541
 20
3787.9019188028
 10
-2701.62837541
 20
3787.9019188028
 10
-2702.1016326216
 20
3787.9019188028
 10
-2702.1016326216
 20
3787.9019188028
 10
-2702.1016326216
 20
3788.2160213669
  0
LWPOLYLINE
  5
180
330
1F
100
AcDbEntity
  8
0
  6
Continuous
 62
     7
100
AcDbPolyline
 90
       56
 70
   128
 43
0.0
 10
-2701.831817627
 20
3786.8712697643
 10
-2701.8239883908
 20
3786.7338498925
 10
-2701.799449128
 20
3786.6020389951
 10
-2701.7580829421
 20
3786.475837072
 10
-2701.7005909549
 20
3786.3545430015
 10
-2701.62837541
 20
3786.2423635143
 10
-2701.5421374293
 20
3786.1421030976
 10
-2701.4432792562
 20
3786.0537617515
 10
-2701.331099769
 20
3785.9773394758
 10
-2701.2105068203
 20
3785.9163418797
 10
-2701.0857071408
 20
3785.8728723284
 10
-2700.9588040959
 20
3785.8462297002
 10
-2700.8276943203
 20
3785.8378162387
 10
-2700.8276943203
 20
3785.8378162387
 10
-2700.6965845447
 20
3785.846930822
 10
-2700.5682792562
 20
3785.8728723284
 10
-2700.4434795767
 20
3785.9170430015
 10
-2700.3214843844
 20
3785.9787417194
 10
-2700.2079026536
 20
3786.0558651169
 10
-2700.107642237
 20
3786.144206463
 10
-2700.0207031344
 20
3786.2451680015
 10
-2699.9470853459
 20
3786.3580486105
 10
-2699.8881911152
 20
3786.4786415592
 10
-2699.8468249293
 20
3786.6041423605
 10
-2699.8215845447
 20
3786.7331487707
 10
-2699.8131710831
 20
3786.8663619117
 10
-2699.8131710831
 20
3786.8663619117
 10
-2699.8215845447
 20
3787.0023795399
 10
-2699.8468249293
 20
3787.1341904374
 10
-2699.8881911152
 20
3787.2631968476
 10
-2699.9470853459
 20
3787.3886976489
 10
-2700.0200020126
 20
3787.5050838669
 10
-2700.104136628
 20
3787.6074476489
 10
-2700.2001903139
 20
3787.6950878733
 10
-2700.3081630703
 20
3787.7687056617
 10
-2700.42525041
 20
3787.8268987707
 10
-2700.5486478459
 20
3787.8689660784
 10
-2700.6797576216
 20
3787.8935053412
 10
-2700.8178786152
 20
3787.9019188028
 10
-2700.8178786152
 20
3787.9019188028
 10
-2700.9237480062
 20
3787.8970109502
 10
-2701.0254106665
 20
3787.8829885143
 10
-2701.1228665959
 20
3787.8598514951
 10
-2701.2154146729
 20
3787.8275998925
 10
-2701.303756019
 20
3787.7855325848
 10
-2701.3878906344
 20
3787.7343506938
 10
-2701.4671173972
 20
3787.6740542194
 10
-2701.5421374293
 20
3787.6039420399
 10
-2701.6101462434
 20
3787.5275197643
 10
-2701.6690404741
 20
3787.4468907579
 10
-2701.7188201216
 20
3787.3613538989
 10
-2701.7594851857
 20
3787.272311431
 10
-2701.7917367883
 20
3787.1783611105
 10
-2701.8141726857
 20
3787.0802040592
 10
-2701.8281951216
 20
3786.9778402771
 10
-2701.8324018524
 20
3786.8712697643
  0
LWPOLYLINE
  5
181
330
1F
100
AcDbEntity
  8
0
  6
Continuous
 62
     7
100
AcDbPolyline
 90
       16
 70
   128
 43
0.0
 10
10996.4981079102
 20
12589.3846153846
 10
11000.0
 20
12591.0
 10
11000.0
 20
12591.0
 10
11000.0
 20
12590.6585536859
 10
11000.0
 20
12590.6585536859
 10
10998.8782051282
 20
12590.1411258013
 10
10998.8782051282
 20
12590.1411258013
 10
10998.8782051282
 20
12588.5544871795
 10
10998.8782051282
 20
12588.5544871795
 10
11000.0
 20
12588.023036859
 10
11000.0
 20
12588.023036859
 10
11000.0
 20
12587.6794871795
 10
11000.0
 20
12587.6794871795
 10
10996.5
 20
12589.3397435897
 10
10996.5
 20
12589.3397435897
 10
10996.5
 20
12589.3846153846
  0
LWPOLYLINE
  5
182
330
1F
100
AcDbEntity
  8
0
  6
Continuous
 62
     7
100
AcDbPolyline
 90
        6
 70
   128
 43
0.0
 10
10997.1771240234
 20
12589.3586738782
 10
10998.5192307692
 20
12588.7255608974
 10
10998.5192307692
 20
12588.7255608974
 10
10998.5192307692
 20
12589.9756610577
 10
10998.5192307692
 20
12589.9756610577
 10
10997.1828926282
 20
12589.3586738782
  0
LWPOLYLINE
  5
183
330
1F
100
AcDbEntity
  8
0
  6
Continuous
 62
     7
100
AcDbPolyline
 90
       53
 70
   128
 43
0.0
 10
10997.4365234375
 20
12591.358974359
 10
10997.4423076923
 20
12591.6730769231
 10
10997.4423076923
 20
12591.6730769231
 10
10997.8188100962
 20
12591.6730769231
 10
10997.8188100962
 20
12591.6730769231
 10
10997.7150440705
 20
12591.7445913462
 10
10997.6267027244
 20
12591.8182091346
 10
10997.5537860577
 20
12591.8932291667
 10
10997.4962940705
 20
12591.9703525641
 10
10997.4528245192
 20
12592.0495793269
 10
10997.4219751603
 20
12592.1309094551
 10
10997.4037459936
 20
12592.2129407051
 10
10997.3974358974
 20
12592.2970753205
 10
10997.3974358974
 20
12592.2970753205
 10
10997.4030448718
 20
12592.3622796474
 10
10997.4191706731
 20
12592.4295873397
 10
10997.4465144231
 20
12592.4989983974
 10
10997.4850761218
 20
12592.5705128205
 10
10997.4850761218
 20
12592.5705128205
 10
10997.7571113782
 20
12592.398036859
 10
10997.7571113782
 20
12592.398036859
 10
10997.7374799679
 20
12592.3524639423
 10
10997.7227564103
 20
12592.3103966346
 10
10997.7143429487
 20
12592.2718349359
 10
10997.7115384615
 20
12592.2374799679
 10
10997.7115384615
 20
12592.2374799679
 10
10997.7199519231
 20
12592.1624599359
 10
10997.7451923077
 20
12592.0881410256
 10
10997.7865584936
 20
12592.0159254808
 10
10997.8454527244
 20
12591.9444110577
 10
10997.8812099359
 20
12591.9100560897
 10
10997.921875
 20
12591.8778044872
 10
10997.9674479167
 20
12591.8483573718
 10
10998.0172275641
 20
12591.8203125
 10
10998.0712139423
 20
12591.7943709936
 10
10998.1308092949
 20
12591.7705328526
 10
10998.1946113782
 20
12591.7487980769
 10
10998.2626201923
 20
12591.7291666667
 10
10998.2626201923
 20
12591.7291666667
 10
10998.3236177885
 20
12591.7158453526
 10
10998.3993389423
 20
12591.7046274038
 10
10998.4876802885
 20
12591.6948116987
 10
10998.5907451923
 20
12591.687099359
 10
10998.7071314103
 20
12591.6807892628
 10
10998.8382411859
 20
12591.676582532
 10
10998.9819711538
 20
12591.6737780449
 10
10999.1404246795
 20
12591.6730769231
 10
10999.1404246795
 20
12591.6730769231
 10
11000.0
 20
12591.6730769231
 10
11000.0
 20
12591.6730769231
 10
11000.0
 20
12591.358974359
 10
11000.0
 20
12591.358974359
 10
10997.4423076923
 20
12591.358974359
  0
LWPOLYLINE
  5
184
330
1F
100
AcDbEntity
  8
0
  6
Continuous
 62
     7
100
AcDbPolyline
 90
        8
 70
   128
 43
0.0
 10
10996.4065551758
 20
12594.2307692308
 10
10996.4102564103
 20
12594.5448717949
 10
10996.4102564103
 20
12594.5448717949
 10
11000.0
 20
12594.5448717949
 10
11000.0
 20
12594.5448717949
 10
11000.0
 20
12594.2307692308
 10
11000.0
 20
12594.2307692308
 10
10996.4102564103
 20
12594.2307692308
  0
LWPOLYLINE
  5
185
330
1F
100
AcDbEntity
  8
0
  6
Continuous
 62
     7
100
AcDbPolyline
 90
       62
 70
   128
 43
0.0
 10
10997.4365234375
 20
12597.8653846154
 10
11000.0
 20
12597.8653846154
 10
11000.0
 20
12597.8653846154
 10
11000.0
 20
12597.5512820513
 10
11000.0
 20
12597.5512820513
 10
10999.5575921474
 20
12597.5512820513
 10
10999.5575921474
 20
12597.5512820513
 10
10999.675380609
 20
12597.4426081731
 10
10999.7770432692
 20
12597.3283253205
 10
10999.8604767628
 20
12597.2063301282
 10
10999.9277844551
 20
12597.0787259615
 10
10999.9789663462
 20
12596.9448116987
 10
11000.0154246795
 20
12596.8052884615
 10
11000.0378605769
 20
12596.6587540064
 10
11000.0448717949
 20
12596.5066105769
 10
11000.0448717949
 20
12596.5066105769
 10
11000.0385616987
 20
12596.3712940705
 10
11000.0203325321
 20
12596.2408854167
 10
10999.9901842949
 20
12596.1153846154
 10
10999.9481169872
 20
12595.9947916667
 10
10999.8934294872
 20
12595.8798076923
 10
10999.8268229167
 20
12595.7690304487
 10
10999.7482972756
 20
12595.6638621795
 10
10999.6571514423
 20
12595.5636017628
 10
10999.5575921474
 20
12595.4717548077
 10
10999.453125
 20
12595.3925280449
 10
10999.3430488782
 20
12595.3259214744
 10
10999.2273637821
 20
12595.2705328526
 10
10999.1067708333
 20
12595.2277644231
 10
10998.9812700321
 20
12595.1976161859
 10
10998.8501602564
 20
12595.1793870192
 10
10998.7141426282
 20
12595.1730769231
 10
10998.7141426282
 20
12595.1730769231
 10
10998.5809294872
 20
12595.1793870192
 10
10998.4519230769
 20
12595.1976161859
 10
10998.328525641
 20
12595.2284655449
 10
10998.2093349359
 20
12595.2719350962
 10
10998.0957532051
 20
12595.3273237179
 10
10997.9870793269
 20
12595.3946314103
 10
10997.8826121795
 20
12595.4745592949
 10
10997.7837540064
 20
12595.5671073718
 10
10997.6933092949
 20
12595.6680689103
 10
10997.6147836538
 20
12595.7746394231
 10
10997.5481770833
 20
12595.8854166667
 10
10997.4941907051
 20
12596.0018028846
 10
10997.4514222756
 20
12596.1230969551
 10
10997.4212740385
 20
12596.2492988782
 10
10997.4037459936
 20
12596.3804086538
 10
10997.3974358974
 20
12596.516426282
 10
10997.3974358974
 20
12596.516426282
 10
10997.4051482372
 20
12596.6727764423
 10
10997.4282852564
 20
12596.8214142628
 10
10997.4675480769
 20
12596.9623397436
 10
10997.5215344551
 20
12597.0955528846
 10
10997.5930488782
 20
12597.2210536859
 10
10997.6820913462
 20
12597.3395432692
 10
10997.7900641026
 20
12597.4489182692
 10
10997.9155649038
 20
12597.5512820513
 10
10997.9155649038
 20
12597.5512820513
 10
10997.4423076923
 20
12597.5512820513
 10
10997.4423076923
 20
12597.5512820513
 10
10997.4423076923
 20
12597.8653846154
  0
LWPOLYLINE
  5
186
330
1F
100
AcDbEntity
  8
0
  6
Continuous
 62
     7
100
AcDbPolyline
 90
       56
 70
   128
 43
0.0
 10
10997.7111816406
 20
12596.5206330128
 10
10997.7199519231
 20
12596.383213141
 10
10997.7444911859
 20
12596.2514022436
 10
10997.7858573718
 20
12596.1252003205
 10
10997.843349359
 20
12596.00390625
 10
10997.9162660256
 20
12595.8917267628
 10
10998.0018028846
 20
12595.7914663461
 10
10998.1013621795
 20
12595.703125
 10
10998.2135416667
 20
12595.6267027244
 10
10998.3341346154
 20
12595.5657051282
 10
10998.4589342949
 20
12595.5222355769
 10
10998.5865384615
 20
12595.4955929487
 10
10998.7176482372
 20
12595.4871794872
 10
10998.7176482372
 20
12595.4871794872
 10
10998.848056891
 20
12595.4962940705
 10
10998.9756610577
 20
12595.5222355769
 10
10999.0997596154
 20
12595.56640625
 10
10999.2217548077
 20
12595.6281049679
 10
10999.3353365385
 20
12595.7052283654
 10
10999.4362980769
 20
12595.7935697115
 10
10999.5232371795
 20
12595.89453125
 10
10999.5968549679
 20
12596.007411859
 10
10999.6557491987
 20
12596.1287059295
 10
10999.6971153846
 20
12596.2542067308
 10
10999.7223557692
 20
12596.3839142628
 10
10999.7307692308
 20
12596.5178285256
 10
10999.7307692308
 20
12596.5178285256
 10
10999.7223557692
 20
12596.6538461538
 10
10999.6978165064
 20
12596.7863581731
 10
10999.6557491987
 20
12596.9146634615
 10
10999.5975560897
 20
12597.039463141
 10
10999.5253405449
 20
12597.1551482372
 10
10999.4412059295
 20
12597.2575120192
 10
10999.3458533654
 20
12597.3444511218
 10
10999.237880609
 20
12597.4180689103
 10
10999.1207932692
 20
12597.4762620192
 10
10998.9966947115
 20
12597.5183293269
 10
10998.8655849359
 20
12597.5428685897
 10
10998.7267628205
 20
12597.5512820513
 10
10998.7267628205
 20
12597.5512820513
 10
10998.6208934295
 20
12597.5463741987
 10
10998.5192307692
 20
12597.5323517628
 10
10998.4217748397
 20
12597.5092147436
 10
10998.3292267628
 20
12597.476963141
 10
10998.2408854167
 20
12597.4348958333
 10
10998.1567508013
 20
12597.3837139423
 10
10998.0775240385
 20
12597.3234174679
 10
10998.0025040064
 20
12597.2533052885
 10
10997.9344951923
 20
12597.1768830128
 10
10997.8748998397
 20
12597.0962540064
 10
10997.8251201923
 20
12597.0107171474
 10
10997.7844551282
 20
12596.9216746795
 10
10997.7522035256
 20
12596.827724359
 10
10997.7297676282
 20
12596.7295673077
 10
10997.7157451923
 20
12596.6272035256
 10
10997.7115384615
 20
12596.5206330128
  0
LWPOLYLINE
  5
187
330
1F
100
AcDbEntity
  8
0
  6
Continuous
 62
     7
100
AcDbPolyline
 90
       62
 70
   128
 43
0.0
 10
11000.0
 20
12598.5833333333
 10
10996.4102564103
 20
12598.5833333333
 10
10996.4102564103
 20
12598.5833333333
 10
10996.4102564103
 20
12598.8974358974
 10
10996.4102564103
 20
12598.8974358974
 10
10997.9064503205
 20
12598.8974358974
 10
10997.9064503205
 20
12598.8974358974
 10
10997.7865584936
 20
12599.0061097756
 10
10997.6834935897
 20
12599.1203926282
 10
10997.5958533654
 20
12599.2416866987
 10
10997.5243389423
 20
12599.3685897436
 10
10997.4689503205
 20
12599.5025040064
 10
10997.4289863782
 20
12599.6420272436
 10
10997.4051482372
 20
12599.7885616987
 10
10997.3974358974
 20
12599.9407051282
 10
10997.3974358974
 20
12599.9407051282
 10
10997.4037459936
 20
12600.0760216346
 10
10997.4219751603
 20
12600.2071314103
 10
10997.4521233974
 20
12600.3326322115
 10
10997.4941907051
 20
12600.4532251603
 10
10997.5488782051
 20
12600.5682091346
 10
10997.6154847756
 20
12600.6789863782
 10
10997.6940104167
 20
12600.7841546474
 10
10997.78515625
 20
12600.8844150641
 10
10997.8847155449
 20
12600.9762620192
 10
10997.9891826923
 20
12601.055488782
 10
10998.0992588141
 20
12601.1227964744
 10
10998.2142427885
 20
12601.1781850962
 10
10998.3341346154
 20
12601.2209535256
 10
10998.4596354167
 20
12601.2511017628
 10
10998.5900440705
 20
12601.2693309295
 10
10998.7260616987
 20
12601.2756410256
 10
10998.7260616987
 20
12601.2756410256
 10
10998.8599759615
 20
12601.2693309295
 10
10998.9889823718
 20
12601.2511017628
 10
10999.1130809295
 20
12601.2202524038
 10
10999.2322716346
 20
12601.1767828526
 10
10999.3465544872
 20
12601.1213942308
 10
10999.4552283654
 20
12601.0533854167
 10
10999.5596955128
 20
12600.973457532
 10
10999.6585536859
 20
12600.8809094551
 10
10999.7489983974
 20
12600.7799479167
 10
10999.8275240385
 20
12600.6733774038
 10
10999.894130609
 20
12600.5626001603
 10
10999.9481169872
 20
12600.4462139423
 10
10999.9908854167
 20
12600.3249198718
 10
11000.0210336538
 20
12600.1987179487
 10
11000.0385616987
 20
12600.0669070513
 10
11000.0448717949
 20
12599.9308894231
 10
11000.0448717949
 20
12599.9308894231
 10
11000.0371594551
 20
12599.7752403846
 10
11000.0140224359
 20
12599.6273036859
 10
10999.9747596154
 20
12599.4870793269
 10
10999.9207732372
 20
12599.3538661859
 10
10999.8499599359
 20
12599.2283653846
 10
10999.7602163462
 20
12599.1105769231
 10
10999.6529447115
 20
12599.0005008013
 10
10999.5267427885
 20
12598.8974358974
 10
10999.5267427885
 20
12598.8974358974
 10
11000.0
 20
12598.8974358974
 10
11000.0
 20
12598.8974358974
 10
11000.0
 20
12598.5833333333
  0
LWPOLYLINE
  5
188
330
1F
100
AcDbEntity
  8
0
  6
Continuous
 62
     7
100
AcDbPolyline
 90
       56
 70
   128
 43
0.0
 10
10999.7253417969
 20
12599.9280849359
 10
10999.7223557692
 20
12600.0655048077
 10
10999.6978165064
 20
12600.1973157051
 10
10999.6564503205
 20
12600.3235176282
 10
10999.5989583333
 20
12600.4448116987
 10
10999.5267427885
 20
12600.5569911859
 10
10999.4405048077
 20
12600.6572516026
 10
10999.3416466346
 20
12600.7455929487
 10
10999.2287660256
 20
12600.8213141026
 10
10999.1081730769
 20
12600.8830128205
 10
10998.9840745192
 20
12600.9264823718
 10
10998.8571714744
 20
12600.953125
 10
10998.7260616987
 20
12600.9615384615
 10
10998.7260616987
 20
12600.9615384615
 10
10998.5949519231
 20
12600.9524238782
 10
10998.4666466346
 20
12600.9264823718
 10
10998.3418469551
 20
12600.8816105769
 10
10998.2198517628
 20
12600.819911859
 10
10998.1062700321
 20
12600.7434895833
 10
10998.0060096154
 20
12600.6551482372
 10
10997.9190705128
 20
12600.5541866987
 10
10997.8454527244
 20
12600.4413060897
 10
10997.7865584936
 20
12600.320713141
 10
10997.7451923077
 20
12600.1952123397
 10
10997.7199519231
 20
12600.0662059295
 10
10997.7115384615
 20
12599.9329927885
 10
10997.7115384615
 20
12599.9329927885
 10
10997.7199519231
 20
12599.7969751603
 10
10997.7451923077
 20
12599.6651642628
 10
10997.7865584936
 20
12599.5361578526
 10
10997.8454527244
 20
12599.4106570513
 10
10997.918369391
 20
12599.2942708333
 10
10998.0025040064
 20
12599.1919070513
 10
10998.0985576923
 20
12599.1035657051
 10
10998.2058293269
 20
12599.0299479167
 10
10998.3229166667
 20
12598.9717548077
 10
10998.4470152244
 20
12598.9303886218
 10
10998.578125
 20
12598.905849359
 10
10998.7162459936
 20
12598.8974358974
 10
10998.7162459936
 20
12598.8974358974
 10
10998.8221153846
 20
12598.90234375
 10
10998.9237780449
 20
12598.9163661859
 10
10999.0212339744
 20
12598.9395032051
 10
10999.1137820513
 20
12598.9717548077
 10
10999.2021233974
 20
12599.0138221154
 10
10999.285556891
 20
12599.0650040064
 10
10999.3647836538
 20
12599.1253004808
 10
10999.4398036859
 20
12599.1947115385
 10
10999.5078125
 20
12599.2711338141
 10
10999.5674078526
 20
12599.3524639423
 10
10999.6171875
 20
12599.4372996795
 10
10999.6578525641
 20
12599.5270432692
 10
10999.6901041667
 20
12599.6209935897
 10
10999.7125400641
 20
12599.719150641
 10
10999.7265625
 20
12599.8215144231
 10
10999.7307692308
 20
12599.9280849359
  0
POINT
  5
189
330
1F
100
AcDbEntity
  8
0
  6
Continuous
 62
     7
100
AcDbPoint
 10
-1125.0
 20
0.0
 30
0.0
  0
POINT
  5
18A
330
1F
100
AcDbEntity
  8
0
  6
Continuous
 62
     7
100
AcDbPoint
 10
-2250.0
 20
3250.0
 30
0.0
  0
POINT
  5
18B
330
1F
100
AcDbEntity
  8
0
  6
Continuous
 62
     7
100
AcDbPoint
 10
-2250.0
 20
12125.0
 30
0.0
  0
POINT
  5
18C
330
1F
100
AcDbEntity
  8
0
  6
Continuous
 62
     7
100
AcDbPoint
 10
-1750.0
 20
14750.0
 30
0.0
  0
POINT
  5
18D
330
1F
100
AcDbEntity
  8
0
  6
Continuous
 62
     7
100
AcDbPoint
 10
0.0
 20
4903.4711266843
 30
0.0
  0
POINT
  5
18E
330
1F
100
AcDbEntity
  8
0
  6
Continuous
 62
     7
100
AcDbPoint
 10
-2476.0508163108
 20
3250.0
 30
0.0
  0
ENDSEC
  0
SECTION
  2
OBJECTS
  0
DICTIONARY
  5
C
330
0
100
AcDbDictionary
281
     1
  3
ACAD_GROUP
350
D
  3
ACAD_LAYOUT
350
1A
  3
ACAD_MLINESTYLE
350
17
  3
ACAD_PLOTSETTINGS
350
19
  3
ACAD_PLOTSTYLENAME
350
E
  3
ACAD_SCALELIST
350
47
  3
DWGPROPS
350
18F
  0
DICTIONARY
  5
D
102
{ACAD_REACTORS
330
C
102
}
330
C
100
AcDbDictionary
281
     1
  0
DICTIONARY
  5
1A
102
{ACAD_REACTORS
330
C
102
}
330
C
100
AcDbDictionary
281
     1
  3
Layout1
350
1E
  3
Layout2
350
26
  3
Model
350
22
  0
DICTIONARY
  5
17
102
{ACAD_REACTORS
330
C
102
}
330
C
100
AcDbDictionary
281
     1
  3
Standard
350
18
  0
DICTIONARY
  5
19
102
{ACAD_REACTORS
330
C
102
}
330
C
100
AcDbDictionary
281
     1
  0
ACDBDICTIONARYWDFLT
  5
E
102
{ACAD_REACTORS
330
C
102
}
330
C
100
AcDbDictionary
281
     1
  3
Normal
350
F
100
AcDbDictionaryWithDefault
340
F
  0
DICTIONARY
  5
47
102
{ACAD_REACTORS
330
C
102
}
330
C
100
AcDbDictionary
281
     1
  3
A0
350
48
  3
A1
350
49
  3
A2
350
4A
  3
A3
350
4B
  3
A4
350
4C
  3
A5
350
4D
  3
A6
350
4E
  3
A7
350
4F
  3
A8
350
50
  3
A9
350
51
  3
B0
350
52
  3
B1
350
53
  3
B2
350
54
  3
B3
350
55
  3
B4
350
56
  3
B5
350
57
  3
B6
350
58
  0
XRECORD
  5
18F
102
{ACAD_REACTORS
330
C
102
}
330
C
100
AcDbXrecord
280
     1
  1
DWGPROPS COOKIE
  2

  3

  4

  6

  7

  8
lalit
  9

300
=
301
=
302
=
303
=
304
=
305
=
306
=
307
=
308
=
309
=
 40
0.0
 41
2461021.482904757
 42
2461021.483051007
  1

 90
        0
  0
LAYOUT
  5
1E
102
{ACAD_REACTORS
330
1A
102
}
330
1A
100
AcDbPlotSettings
  1

  2
none_device
  4

  6

 40
0.0
 41
0.0
 42
0.0
 43
0.0
 44
0.0
 45
0.0
 46
0.0
 47
0.0
 48
0.0
 49
0.0
140
0.0
141
0.0
142
1.0
143
1.0
 70
   688
 72
     1
 73
     0
 74
     5
  7

 75
    16
147
1.0
148
0.0
149
0.0
100
AcDbLayout
  1
Layout1
 70
     1
 71
     1
 10
0.0
 20
0.0
 11
420.0
 21
297.0
 12
0.0
 22
0.0
 32
0.0
 14
1.0000000000E+20
 24
1.0000000000E+20
 34
1.0000000000E+20
 15
-1.0000000000E+20
 25
-1.0000000000E+20
 35
-1.0000000000E+20
146
0.0
 13
0.0
 23
0.0
 33
0.0
 16
1.0
 26
0.0
 36
0.0
 17
0.0
 27
1.0
 37
0.0
 76
     0
330
1B
  0
LAYOUT
  5
26
102
{ACAD_REACTORS
330
1A
102
}
330
1A
100
AcDbPlotSettings
  1

  2
none_device
  4

  6

 40
0.0
 41
0.0
 42
0.0
 43
0.0
 44
0.0
 45
0.0
 46
0.0
 47
0.0
 48
0.0
 49
0.0
140
0.0
141
0.0
142
1.0
143
1.0
 70
   688
 72
     1
 73
     0
 74
     5
  7

 75
    16
147
1.0
148
0.0
149
0.0
100
AcDbLayout
  1
Layout2
 70
     1
 71
     2
 10
0.0
 20
0.0
 11
0.0
 21
0.0
 12
0.0
 22
0.0
 32
0.0
 14
0.0
 24
0.0
 34
0.0
 15
0.0
 25
0.0
 35
0.0
146
0.0
 13
0.0
 23
0.0
 33
0.0
 16
1.0
 26
0.0
 36
0.0
 17
0.0
 27
1.0
 37
0.0
 76
     0
330
23
  0
LAYOUT
  5
22
102
{ACAD_REACTORS
330
1A
102
}
330
1A
100
AcDbPlotSettings
  1

  2
none_device
  4
ANSI_A_(11.00_x_8.50_Inches)
  6

 40
6.35
 41
19.05
 42
6.35000508
 43
19.05000254
 44
279.4
 45
215.9
 46
61.0700725251
 47
84.2790568035
 48
0.0
 49
0.0
140
0.0
141
0.0
142
0.0002079164
143
1.0
 70
  1696
 72
     0
 73
     0
 74
     0
  7

 75
     0
147
0.0179189148
148
-1300.4909072572
149
0.0
100
AcDbLayout
  1
Model
 70
     1
 71
     0
 10
0.0
 20
0.0
 11
420.0
 21
297.0
 12
0.0
 22
0.0
 32
0.0
 14
-12501.8214037858
 24
-15250.0
 34
0.0
 15
39875.0
 25
17000.0
 35
0.0
146
0.0
 13
0.0
 23
0.0
 33
0.0
 16
1.0
 26
0.0
 36
0.0
 17
0.0
 27
1.0
 37
0.0
 76
     0
330
1F
331
29
  0
MLINESTYLE
  5
18
102
{ACAD_REACTORS
330
17
102
}
330
17
100
AcDbMlineStyle
  2
Standard
 70
     0
  3

 62
   256
 51
90.0
 52
90.0
 71
     2
 49
0.5
 62
   256
  6
BYLAYER
 49
-0.5
 62
   256
  6
BYLAYER
  0
ACDBPLACEHOLDER
  5
F
102
{ACAD_REACTORS
330
E
102
}
330
E
  0
SCALE
  5
48
102
{ACAD_REACTORS
330
47
102
}
330
47
100
AcDbScale
 70
     0
300
1:1
140
1.0
141
1.0
290
     1
  0
SCALE
  5
49
102
{ACAD_REACTORS
330
47
102
}
330
47
100
AcDbScale
 70
     0
300
1:2
140
1.0
141
2.0
290
     0
  0
SCALE
  5
4A
102
{ACAD_REACTORS
330
47
102
}
330
47
100
AcDbScale
 70
     0
300
1:4
140
1.0
141
4.0
290
     0
  0
SCALE
  5
4B
102
{ACAD_REACTORS
330
47
102
}
330
47
100
AcDbScale
 70
     0
300
1:5
140
1.0
141
5.0
290
     0
  0
SCALE
  5
4C
102
{ACAD_REACTORS
330
47
102
}
330
47
100
AcDbScale
 70
     0
300
1:8
140
1.0
141
8.0
290
     0
  0
SCALE
  5
4D
102
{ACAD_REACTORS
330
47
102
}
330
47
100
AcDbScale
 70
     0
300
1:10
140
1.0
141
10.0
290
     0
  0
SCALE
  5
4E
102
{ACAD_REACTORS
330
47
102
}
330
47
100
AcDbScale
 70
     0
300
1:16
140
1.0
141
16.0
290
     0
  0
SCALE
  5
4F
102
{ACAD_REACTORS
330
47
102
}
330
47
100
AcDbScale
 70
     0
300
1:20
140
1.0
141
20.0
290
     0
  0
SCALE
  5
50
102
{ACAD_REACTORS
330
47
102
}
330
47
100
AcDbScale
 70
     0
300
1:30
140
1.0
141
30.0
290
     0
  0
SCALE
  5
51
102
{ACAD_REACTORS
330
47
102
}
330
47
100
AcDbScale
 70
     0
300
1:40
140
1.0
141
40.0
290
     0
  0
SCALE
  5
52
102
{ACAD_REACTORS
330
47
102
}
330
47
100
AcDbScale
 70
     0
300
1:50
140
1.0
141
50.0
290
     0
  0
SCALE
  5
53
102
{ACAD_REACTORS
330
47
102
}
330
47
100
AcDbScale
 70
     0
300
1:100
140
1.0
141
100.0
290
     0
  0
SCALE
  5
54
102
{ACAD_REACTORS
330
47
102
}
330
47
100
AcDbScale
 70
     0
300
2:1
140
2.0
141
1.0
290
     0
  0
SCALE
  5
55
102
{ACAD_REACTORS
330
47
102
}
330
47
100
AcDbScale
 70
     0
300
4:1
140
4.0
141
1.0
290
     0
  0
SCALE
  5
56
102
{ACAD_REACTORS
330
47
102
}
330
47
100
AcDbScale
 70
     0
300
8:1
140
8.0
141
1.0
290
     0
  0
SCALE
  5
57
102
{ACAD_REACTORS
330
47
102
}
330
47
100
AcDbScale
 70
     0
300
10:1
140
10.0
141
1.0
290
     0
  0
SCALE
  5
58
102
{ACAD_REACTORS
330
47
102
}
330
47
100
AcDbScale
 70
     0
300
100:1
140
100.0
141
1.0
290
     0
  0
ENDSEC
  0
EOF
